<?xml version="1.0" encoding="UTF-8"?><svg xmlns="http://www.w3.org/2000/svg" xmlns:xlink="http://www.w3.org/1999/xlink" viewBox="0 0 300 300"><defs><linearGradient id="b" x1="57.35" y1="-208.11" x2="4.43" y2="-281.37" gradientTransform="translate(-167.69 255.05) rotate(-92.9) scale(1 -1)" gradientUnits="userSpaceOnUse"><stop offset="0" stop-color="#ffbb0a"/><stop offset="1" stop-color="#fff551"/></linearGradient><linearGradient id="c" x1="79.1" y1="158.03" x2="75.93" y2="113.66" gradientTransform="matrix(1, 0, 0, 1, 0, 0)" xlink:href="#b"/><linearGradient id="d" x1="71.41" y1="188.13" x2="133.65" y2="207.94" gradientUnits="userSpaceOnUse"><stop offset="0" stop-color="#e4e4e4"/><stop offset=".58" stop-color="#f6f7f5"/><stop offset=".99" stop-color="#fefffd"/></linearGradient><linearGradient id="e" x1="200.95" y1="178.13" x2="196.88" y2="176.85" xlink:href="#d"/><linearGradient id="f" x1="84.96" y1="231.97" x2="80.68" y2="202.19" gradientUnits="userSpaceOnUse"><stop offset="0" stop-color="#ff1511"/><stop offset="1" stop-color="#ff6c7b"/></linearGradient><linearGradient id="g" x1="78.51" y1="232.89" x2="74.23" y2="203.11" xlink:href="#f"/><linearGradient id="h" x1="71.83" y1="233.85" x2="67.55" y2="204.07" xlink:href="#f"/><linearGradient id="i" x1="61.88" y1="236.41" x2="62.92" y2="221.08" xlink:href="#f"/><linearGradient id="j" x1="83.33" y1="212.64" x2="131.09" y2="212.64" xlink:href="#d"/><linearGradient id="k" x1="96.83" y1="213.18" x2="121.94" y2="213.18" xlink:href="#d"/><linearGradient id="l" x1="113.59" y1="215.36" x2="129.42" y2="215.36" xlink:href="#d"/><linearGradient id="m" x1="84.57" y1="209.65" x2="99.79" y2="209.65" xlink:href="#d"/></defs><g style="isolation:isolate;"><g id="a"><g><g><path d="M168.87,125.18V40.17c0-.92-1.44-.93-1.44,0V125.18c0,.92,1.44,.93,1.44,0h0Z" style="fill:#6a6a6a;"/><path d="M151.97,77.36h87.46c.92,0,.93-1.44,0-1.44h-87.46c-.92,0-.93,1.44,0,1.44h0Z" style="fill:#6a6a6a;"/><path d="M239.79,75.87c-1.16-.85-2.32-1.71-3.48-2.56l-.49-.36c-.3-.22-.81-.06-.98,.26-.2,.37-.07,.74,.26,.98,1.16,.85,2.32,1.71,3.48,2.56l.49,.36c.3,.22,.81,.06,.98-.26,.2-.37,.07-.74-.26-.98h0Z" style="fill:#6a6a6a;"/><path d="M239.07,75.87c-1.44,.78-2.89,1.56-4.27,2.44-.32,.2-.47,.65-.26,.98,.2,.32,.64,.47,.98,.26,1.38-.88,2.83-1.66,4.27-2.44,.33-.18,.46-.66,.26-.98-.22-.34-.63-.45-.98-.26h0Z" style="fill:#6a6a6a;"/><path d="M207.88,92.33v3.82c0,.38,.33,.74,.72,.72s.72-.32,.72-.72v-3.82c0-.38-.33-.74-.72-.72s-.72,.32-.72,.72h0Z" style="fill:#6a6a6a;"/><path d="M207.88,98.84v3.82c0,.38,.33,.74,.72,.72s.72-.32,.72-.72v-3.82c0-.38-.33-.74-.72-.72s-.72,.32-.72,.72h0Z" style="fill:#6a6a6a;"/><path d="M207.88,86.02v3.82c0,.38,.33,.74,.72,.72s.72-.32,.72-.72v-3.82c0-.38-.33-.74-.72-.72s-.72,.32-.72,.72h0Z" style="fill:#6a6a6a;"/><path d="M207.88,79.89v3.82c0,.38,.33,.74,.72,.72s.72-.32,.72-.72v-3.82c0-.38-.33-.74-.72-.72s-.72,.32-.72,.72h0Z" style="fill:#6a6a6a;"/><path d="M168.81,101.12c4.26-3.51,10.23-4.91,15.65-4.02s9.92,3.94,14.98,5.55c10.92,3.48,23.36,4.77,34.61,2.1,2.97-.7,5.68-1.9,8.23-3.57,1.21-.79,2.48-1.53,3.65-2.37,.63-.46,1.47-1.61,2.24-1.77,.9-.19,.52-1.57-.38-1.39-.64,.13-1.19,.74-1.67,1.15-.98,.83-2.02,1.46-3.09,2.17-2.47,1.63-4.87,3.1-7.73,3.96-5.77,1.73-12.17,1.94-18.15,1.59s-12-1.53-17.74-3.39c-5.17-1.68-9.89-4.82-15.35-5.53-5.74-.74-11.78,.82-16.26,4.51-.71,.59,.31,1.6,1.02,1.02h0Z" style="fill:#6a6a6a;"/><path d="M168.96,90.59c3.51-3.51,7.02-7.02,10.53-10.53,.65-.65-.36-1.67-1.02-1.02-3.51,3.51-7.02,7.02-10.53,10.53-.65,.65,.36,1.67,1.02,1.02h0Z" style="fill:#6a6a6a;"/><path d="M169.18,98.83c6.31-6.31,12.62-12.62,18.93-18.93,.65-.65-.36-1.67-1.02-1.02-6.31,6.31-12.62,12.62-18.93,18.93-.65,.65,.36,1.67,1.02,1.02h0Z" style="fill:#6a6a6a;"/><path d="M181.07,96.21c5.35-5.35,10.7-10.7,16.05-16.05,.65-.65-.36-1.67-1.02-1.02-5.35,5.35-10.7,10.7-16.05,16.05-.65,.65,.36,1.67,1.02,1.02h0Z" style="fill:#6a6a6a;"/><path d="M188.4,97.73c5.66-5.66,11.31-11.31,16.97-16.97,.65-.65-.36-1.67-1.02-1.02-.18,.18-.36,.36-.54,.54-.65,.65,.36,1.67,1.02,1.02,.18-.18,.36-.36,.54-.54l-1.02-1.02c-5.66,5.66-11.31,11.31-16.97,16.97-.65,.65,.36,1.67,1.02,1.02h0Z" style="fill:#6a6a6a;"/><path d="M196.54,100.74c3.26-3.26,6.51-6.51,9.77-9.77,.65-.65-.36-1.67-1.02-1.02-3.26,3.26-6.51,6.51-9.77,9.77-.65,.65,.36,1.67,1.02,1.02h0Z" style="fill:#6a6a6a;"/><path d="M167.95,43.27c11.19,11.19,22.39,22.39,33.58,33.58,.65,.65,1.67-.36,1.02-1.02-11.19-11.19-22.39-22.39-33.58-33.58-.65-.65-1.67,.36-1.02,1.02h0Z" style="fill:#6a6a6a;"/><path d="M184.94,59.2c7.89,0,15.77,.45,23.66,.46,.92,0,.93-1.44,0-1.44-7.89,0-15.77-.45-23.66-.46-.92,0-.93,1.44,0,1.44h0Z" style="fill:#6a6a6a;"/><path d="M205.64,57.12c1.07,.58,2.13,1.16,3.2,1.73,.15,.08,.31,.17,.46,.25,.33,.18,.8,.09,.98-.26s.1-.79-.26-.98c-1.07-.58-2.13-1.16-3.2-1.73-.15-.08-.31-.17-.46-.25-.33-.18-.8-.09-.98,.26s-.1,.79,.26,.98h0Z" style="fill:#6a6a6a;"/><path d="M209.16,57.98c-.92,.77-1.83,1.54-2.75,2.31-.13,.11-.26,.22-.39,.33-.29,.24-.27,.77,0,1.02,.31,.28,.71,.26,1.02,0,.92-.77,1.83-1.54,2.75-2.31,.13-.11,.26-.22,.39-.33,.29-.24,.27-.77,0-1.02-.31-.28-.71-.26-1.02,0h0Z" style="fill:#6a6a6a;"/><path d="M209.11,108.29c.37-.33,.55-.86,.26-1.3-.26-.4-.74-.52-1.18-.58-.96-.13-1.99-.06-2.73,.63-1.75,1.62,.07,4.16,.65,5.9,.17,.5,.32,1.02,.32,1.53,0,.26,.01,.34-.09,.58,.06-.13-.12,.16-.03,.05-.09,.12-.07,.09-.2,.16-.81,.45-.08,1.69,.72,1.24,1.71-.96,.93-3.33,.37-4.75-.17-.42-.35-.84-.53-1.25-.07-.16-.14-.31-.2-.47,.05,.11-.03-.07-.04-.1-.04-.09-.07-.19-.1-.28-.13-.38-.25-.84-.1-1.24,.06-.16,.16-.29,.3-.39,.07-.05,.15-.1,.23-.14,0,0-.14,.05-.06,.03,.07-.02,.13-.04,.2-.05,.16-.04,.06-.02,.16-.03s.21-.02,.32-.02c.2,0,.41,0,.61,.02,.02,0,.03,0,.14,.03,.04,.01,.08,.02,.13,.03,.12,.03,0,.01,0-.01,0-.03,.09,.12,0,0-.07-.1-.1-.11-.13-.25-.02-.06-.03-.46,.05-.4,.03-.04,.03-.04,0,0-.02,.03-.05,.05-.08,.07-.69,.62,.33,1.63,1.02,1.02h0Z" style="fill:#6a6a6a;"/><path d="M202.64,112.47c1.59-.02,3.15-.3,4.73-.46,.37-.04,.74-.3,.72-.72-.02-.36-.32-.76-.72-.72-1.58,.15-3.14,.44-4.73,.46-.38,0-.74,.33-.72,.72s.32,.72,.72,.72h0Z" style="fill:#6a6a6a;"/><path d="M209.74,108.97c-.45,1.31-.93,2.65-.98,4.05-.05,1.48,.52,2.83,1.62,3.83,.68,.62,1.7-.39,1.02-1.02-.89-.81-1.27-1.81-1.19-3.01s.53-2.35,.91-3.47c.13-.37-.14-.79-.5-.88-.39-.11-.76,.13-.88,.5h0Z" style="fill:#6a6a6a;"/><path d="M210.98,113.44c1.03,.76,2.04,1.59,3.21,2.14,.34,.16,.79,.11,.98-.26,.17-.32,.11-.81-.26-.98-1.17-.55-2.17-1.38-3.21-2.14-.3-.22-.81-.06-.98,.26-.2,.37-.07,.75,.26,.98h0Z" style="fill:#6a6a6a;"/><path d="M212.34,115.61c.02-.07,.05-.13,.07-.2,.01-.03,.03-.07,.04-.1-.04,.09-.04,.1-.01,.02,.06-.13,.12-.26,.18-.39,.13-.26,.27-.5,.42-.75,.3-.49,.61-.97,.9-1.47,.19-.33,.09-.8-.26-.98s-.78-.09-.98,.26c-.61,1.06-1.34,2.05-1.75,3.22-.12,.36,.14,.8,.5,.88,.4,.09,.75-.12,.88-.5h0Z" style="fill:#6a6a6a;"/><path d="M213.27,108.25c1.45,1.07,2.42,2.82,2.96,4.5s.79,3.61-.02,5.2c-.41,.82,.82,1.55,1.24,.72,.98-1.95,.81-4.28,.16-6.31s-1.85-4.06-3.62-5.36c-.75-.55-1.46,.7-.72,1.24h0Z" style="fill:#6a6a6a;"/><path d="M151.93,126.25s0-.04,0-.06l-.03,.19s0-.02,0-.04l-.07,.17s0-.01,.01-.02l-.11,.15s0-.01,.02-.02l-.15,.11s.01,0,.02-.01l-.17,.07s.02,0,.04,0l-.19,.03s.04,0,.06,0c.1,0,.19-.02,.28-.06,.09-.03,.17-.08,.23-.15,.07-.07,.12-.14,.15-.23,.04-.09,.07-.18,.06-.28l-.03-.19c-.03-.12-.1-.23-.18-.32l-.15-.11c-.11-.06-.23-.1-.36-.1-.01,0-.02,0-.03,0,0,0,0,0-.01,0,0,0,0,0,0,0,0,0,0,0,0,0-.06,0-.14,.02-.19,.03,0,0-.02,0-.03,0,0,0,0,0,0,0,0,0,0,0,0,0-.02,0-.15,.06-.17,.07,0,0,0,0-.01,0,0,0,0,0,0,0-.02,.02-.08,.06-.07,.06,0,0-.05,.04-.07,.06,0,0,0,0,0,0,0,0,0,0,0,0,0,0,0,0,0,0-.01,.01-.1,.13-.11,.15,0,0,0,0,0,0,0,0,0,0,0,0,0,0,0,0,0,0-.01,.03-.04,.09-.04,.09,0,.02-.03,.06-.04,.09,0,0,0,.02,0,.02,0,0,0,0,0,0,0,.03,0,.07-.01,.1,0,.03,0,.07-.01,.1,0,0,0,.01,0,.02,0,.01,0,.03,0,.04,0,.1,.02,.19,.06,.28,.03,.09,.08,.17,.15,.23,.07,.07,.14,.12,.23,.15,.09,.04,.18,.07,.28,.06l.19-.03c.12-.03,.23-.1,.32-.18l.11-.15c.06-.11,.1-.23,.1-.36h0Z" style="fill:#6a6a6a;"/><path d="M153.19,126.97h2.59c.38,0,.74-.33,.72-.72s-.32-.72-.72-.72h-2.59c-.38,0-.74,.33-.72,.72s.32,.72,.72,.72h0Z" style="fill:#6a6a6a;"/><path d="M157.92,126.66h2.75c.38,0,.74-.33,.72-.72s-.32-.72-.72-.72h-2.75c-.38,0-.74,.33-.72,.72s.32,.72,.72,.72h0Z" style="fill:#6a6a6a;"/><path d="M162.81,126.82h2.44c.38,0,.74-.33,.72-.72s-.32-.72-.72-.72h-2.44c-.38,0-.74,.33-.72,.72s.32,.72,.72,.72h0Z" style="fill:#6a6a6a;"/><path d="M152.69,122.89v-4.12c0-.38-.33-.74-.72-.72s-.72,.32-.72,.72v4.12c0,.38,.33,.74,.72,.72s.72-.32,.72-.72h0Z" style="fill:#6a6a6a;"/><path d="M152.54,114.35v-4.73c0-.38-.33-.74-.72-.72s-.72,.32-.72,.72v4.73c0,.38,.33,.74,.72,.72s.72-.32,.72-.72h0Z" style="fill:#6a6a6a;"/><path d="M152.84,106.41v-3.36c0-.38-.33-.74-.72-.72s-.72,.32-.72,.72v3.36c0,.38,.33,.74,.72,.72s.72-.32,.72-.72h0Z" style="fill:#6a6a6a;"/><path d="M153.3,100v-3.66c0-.38-.33-.74-.72-.72s-.72,.32-.72,.72v3.66c0,.38,.33,.74,.72,.72s.72-.32,.72-.72h0Z" style="fill:#6a6a6a;"/><path d="M153.45,91.76v-2.9c0-.38-.33-.74-.72-.72s-.72,.32-.72,.72v2.9c0,.38,.33,.74,.72,.72s.72-.32,.72-.72h0Z" style="fill:#6a6a6a;"/><path d="M153.45,86.26v-2.59c0-.38-.33-.74-.72-.72s-.72,.32-.72,.72v2.59c0,.38,.33,.74,.72,.72s.72-.32,.72-.72h0Z" style="fill:#6a6a6a;"/><path d="M153.3,82.14v-2.9c0-.38-.33-.74-.72-.72s-.72,.32-.72,.72v2.9c0,.38,.33,.74,.72,.72s.72-.32,.72-.72h0Z" style="fill:#6a6a6a;"/><path d="M150.55,131.95c1.59,1.77,2.69,3.91,4.11,5.82l.62-1.08c-2.43,.21-4.87,.31-7.27,.76l.88,.88c.38-1.14,1.04-2.18,1.69-3.18,.68-1.06,1.41-2.09,2.01-3.2,.44-.81-.8-1.54-1.24-.72-1.22,2.27-3.03,4.24-3.84,6.72-.18,.56,.38,.98,.88,.88,2.27-.43,4.59-.51,6.89-.71,.48-.04,.98-.6,.62-1.08-1.49-2.01-2.66-4.24-4.33-6.11-.62-.69-1.63,.33-1.02,1.02h0Z" style="fill:#6a6a6a;"/><path d="M154.97,133.17c.61,.7,1.08,1.52,1.55,2.31,.52,.88,1,1.78,1.51,2.67,.29,.51,1.18,.45,1.31-.17,.49-2.36,.88-4.73,1.26-7.11,.06-.38-.1-.77-.5-.88-.34-.09-.82,.12-.88,.5-.37,2.38-.77,4.76-1.26,7.11l1.31-.17c-1.03-1.78-1.93-3.71-3.28-5.27-.25-.29-.76-.26-1.02,0-.29,.29-.25,.72,0,1.02h0Z" style="fill:#6a6a6a;"/><path d="M161.17,136.32v2.7c0,.38,.33,.74,.72,.72s.72-.32,.72-.72v-.41c0-.38-.33-.74-.72-.72s-.72,.32-.72,.72v.41c0,.38,.33,.74,.72,.72s.72-.32,.72-.72v-2.7c0-.38-.33-.74-.72-.72s-.72,.32-.72,.72h0Z" style="fill:#6a6a6a;"/></g><g><g><polygon points="86.93 98.6 86.93 98.6 87.42 97.65 87.42 97.65 87.42 97.65 86.93 98.6" style="fill:#ff6c7b;"/><rect x="85.3" y="98.4" width="0" height="1.07" style="fill:#ff6c7b;"/><polygon points="86.93 98.6 87.42 97.65 87.42 97.65 84.69 93.47 84.21 94.42 84.21 94.42 84.21 94.42 86.93 98.6" style="fill:#ff6c7b;"/><polygon points="85.54 98.46 85.54 98.46 85.54 98.46 83.64 95.53 83.64 95.53 85.54 98.46" style="fill:#ff6c7b;"/><polygon points="84.41 100.67 83.92 101.62 83.92 101.62 84.41 100.67 84.41 100.67 84.41 100.67" style="fill:#ff6c7b;"/><polygon points="85.05 99.4 85.54 98.46 85.54 98.46 83.64 95.53 83.64 95.53 83.15 96.48 83.15 96.48 85.05 99.4" style="fill:#ff6c7b;"/><polygon points="84.41 100.67 84.41 100.67 82.51 97.75 84.41 100.67" style="fill:#ff6c7b;"/><polygon points="83.28 102.87 82.79 103.82 82.79 103.82 83.28 102.87 83.28 102.87 83.28 102.87" style="fill:#ff6c7b;"/><polygon points="83.92 101.62 84.41 100.67 84.41 100.67 82.51 97.75 82.02 98.69 82.02 98.69 83.92 101.62" style="fill:#ff6c7b;"/><rect x="82.33" y="99.67" width="0" height="3.49" style="fill:#ff6c7b;"/><polygon points="81.66 106.03 82.15 105.08 82.15 105.08 82.15 105.08 81.66 106.03" style="fill:#ff6c7b;"/><polygon points="82.79 103.82 83.28 102.87 83.28 102.87 81.38 99.95 81.38 99.95 80.89 100.9 80.89 100.9 80.89 100.9 82.79 103.82" style="fill:#ff6c7b;"/><rect x="77.71" y="100.98" width="3.19" height="0" style="fill:#ff6c7b;"/><polygon points="81.29 109.62 81.78 108.67 81.78 108.67 81.78 108.67 81.29 109.62" style="fill:#ff6c7b;"/><polygon points="81.66 106.03 82.15 105.08 82.15 105.08 80.25 102.16 79.76 103.11 81.66 106.03" style="fill:#ff6c7b;"/><polygon points="79.06 104.48 81.78 108.67 81.78 108.67 79.06 104.48 75.88 104.64 75.88 104.64 79.06 104.48" style="fill:#ff6c7b;"/><polygon points="79.25 110.76 79.73 109.81 79.25 110.76 79.25 110.76" style="fill:#ff6c7b;"/><polygon points="81.29 109.62 81.78 108.67 81.78 108.67 79.06 104.48 78.57 105.44 78.57 105.44 78.57 105.44 81.29 109.62" style="fill:#ff6c7b;"/><polygon points="79.73 109.81 77.83 106.89 77.83 106.89 79.73 109.81" style="fill:#ff6c7b;"/><polygon points="78.6 112.02 78.11 112.97 78.11 112.97 78.6 112.02 78.6 112.02 78.6 112.02" style="fill:#ff6c7b;"/><polygon points="79.25 110.76 79.73 109.81 77.83 106.89 77.83 106.89 77.34 107.83 77.34 107.83 79.25 110.76" style="fill:#ff6c7b;"/><polygon points="77.11 179.54 80.29 179.39 79.01 127.02 75.98 133.23 77.11 179.54" style="fill:#ffc700;"/><rect x="77.65" y="108.81" width="0" height="3.49" style="fill:#ff6c7b;"/><polygon points="76.99 115.17 76.99 115.17 77.47 114.22 77.47 114.22 77.47 114.22 76.99 115.17" style="fill:#ff6c7b;"/><polygon points="78.11 112.97 78.6 112.02 78.6 112.02 76.7 109.1 76.7 109.1 76.21 110.04 76.21 110.04 78.11 112.97" style="fill:#ff6c7b;"/><polygon points="75.85 117.38 75.85 117.38 76.34 116.43 76.34 116.43 76.34 116.43 75.85 117.38" style="fill:#ff6c7b;"/><polygon points="76.99 115.17 77.47 114.22 77.47 114.22 75.57 111.3 75.08 112.25 75.08 112.25 75.08 112.25 76.99 115.17" style="fill:#ff6c7b;"/><rect x="75.19" y="120.49" width="1.07" height="0" style="fill:#ff6c7b;"/><polygon points="75.85 117.38 76.34 116.43 76.34 116.43 74.44 113.51 73.95 114.46 73.95 114.46 73.95 114.46 75.85 117.38" style="fill:#ff6c7b;"/><polygon points="75.97 120.02 75.97 120.02 75.97 120.02 73.25 115.84 73.25 115.84 75.97 120.02" style="fill:#ff6c7b;"/><polygon points="73.44 122.11 73.92 121.16 73.44 122.11 73.44 122.11" style="fill:#ff6c7b;"/><polygon points="75.48 120.97 75.97 120.02 75.97 120.02 73.25 115.84 73.25 115.84 72.76 116.79 72.76 116.79 75.48 120.97" style="fill:#ff6c7b;"/><polygon points="73.92 121.16 72.02 118.24 72.01 118.24 72.02 118.24 73.92 121.16" style="fill:#ff6c7b;"/><polygon points="72.79 123.37 72.31 124.32 72.31 124.32 72.79 123.37 72.79 123.37 72.79 123.37" style="fill:#ff6c7b;"/><polygon points="73.44 122.11 73.92 121.16 72.02 118.24 71.54 119.19 71.54 119.19 71.54 119.19 73.44 122.11" style="fill:#ff6c7b;"/><polygon points="72.79 123.37 72.79 123.37 70.89 120.45 70.88 120.45 70.89 120.45 72.79 123.37" style="fill:#ff6c7b;"/><polygon points="71.18 126.52 71.66 125.57 71.66 125.57 71.66 125.57 71.18 126.52" style="fill:#ff6c7b;"/><polygon points="72.31 124.32 72.79 123.37 72.79 123.37 70.89 120.45 70.4 121.4 71.51 123.09 72.31 124.32" style="fill:#ff6c7b;"/><polygon points="70.05 128.73 70.05 128.73 70.53 127.78 70.53 127.78 70.53 127.78 70.05 128.73" style="fill:#ff6c7b;"/><polygon points="71.18 126.52 71.66 125.57 71.66 125.57 69.76 122.65 69.28 123.6 69.28 123.6 71.18 126.52" style="fill:#ff6c7b;"/><rect x="69.92" y="131.31" width="0" height="1.07" style="fill:#ff6c7b;"/><polygon points="70.05 128.73 70.53 127.78 70.53 127.78 68.63 124.86 68.14 125.81 68.14 125.81 70.05 128.73" style="fill:#ff6c7b;"/><polygon points="70.16 131.37 70.16 131.37 70.16 131.37 67.44 127.19 67.44 127.19 70.16 131.37" style="fill:#ff6c7b;"/><polygon points="67.63 133.46 67.63 133.46 68.11 132.51 68.11 132.51 68.11 132.51 67.63 133.46" style="fill:#ff6c7b;"/><polygon points="69.67 132.32 70.16 131.37 70.16 131.37 67.44 127.19 67.44 127.19 66.95 128.14 66.95 128.14 69.67 132.32" style="fill:#ff6c7b;"/><polygon points="66.5 135.67 66.5 135.67 66.99 134.71 66.99 134.71 66.99 134.71 66.5 135.67" style="fill:#ff6c7b;"/><polygon points="67.63 133.46 68.11 132.51 68.11 132.51 66.21 129.59 65.73 130.54 65.73 130.54 65.73 130.54 67.63 133.46" style="fill:#ff6c7b;"/><polygon points="65.37 137.87 65.86 136.92 65.37 137.87 65.37 137.87" style="fill:#ff6c7b;"/><polygon points="66.5 135.67 66.99 134.71 66.99 134.71 65.08 131.79 64.6 132.75 64.6 132.75 66.5 135.67" style="fill:#ff6c7b;"/><polygon points="64.24 140.08 64.72 139.14 64.24 140.08 64.24 140.08" style="fill:#ff6c7b;"/><polygon points="65.37 137.87 65.86 136.92 63.95 134 63.95 134 63.95 134 63.47 134.95 63.47 134.95 65.37 137.87" style="fill:#ff6c7b;"/><polygon points="64.35 142.72 63.87 143.67 63.87 143.67 64.35 142.72 64.35 142.72 64.35 142.72" style="fill:#ff6c7b;"/><polygon points="64.72 139.14 62.82 136.21 62.81 136.21 62.82 136.21 64.72 139.14" style="fill:#ff6c7b;"/><polygon points="64.24 140.08 64.72 139.14 62.82 136.21 62.34 137.16 62.34 137.16 64.24 140.08" style="fill:#ff6c7b;"/><rect x="62.99" y="138.13" height="4.99" style="fill:#ff6c7b;"/><polygon points="61.82 144.81 62.31 143.86 62.31 143.86 62.31 143.86 61.82 144.81" style="fill:#ff6c7b;"/><polygon points="63.87 143.67 64.35 142.72 64.35 142.72 61.63 138.54 61.63 138.54 61.15 139.49 61.15 139.49 63.87 143.67" style="fill:#ff6c7b;"/><rect x="60.4" y="146.54" width="1.07" height="0" style="fill:#ff6c7b;"/><polygon points="61.82 144.81 62.31 143.86 62.31 143.86 60.41 140.94 59.92 141.89 59.92 141.89 61.82 144.81" style="fill:#ff6c7b;"/><polygon points="61.18 146.06 61.18 146.06 61.18 146.06 59.28 143.14 59.28 143.14 61.18 146.06" style="fill:#ff6c7b;"/><polygon points="60.05 148.28 59.56 149.22 59.56 149.22 60.05 148.28 60.05 148.28 60.05 148.28" style="fill:#ff6c7b;"/><polygon points="60.69 147.02 61.18 146.06 61.18 146.06 59.28 143.14 59.28 143.14 58.79 144.1 58.79 144.1 58.79 144.1 60.69 147.02" style="fill:#ff6c7b;"/><rect x="59.1" y="145.07" width="0" height="3.49" style="fill:#ff6c7b;"/><polygon points="58.92 150.49 58.43 151.44 58.43 151.44 58.92 150.49 58.92 150.49 58.92 150.49" style="fill:#ff6c7b;"/><polygon points="59.56 149.22 60.05 148.28 60.05 148.28 58.15 145.35 58.15 145.35 57.66 146.3 57.66 146.3 59.56 149.22" style="fill:#ff6c7b;"/><polygon points="58.06 155.02 58.06 155.02 58.55 154.07 58.55 154.07 58.55 154.07 58.06 155.02" style="fill:#ff6c7b;"/><polygon points="58.92 150.49 58.92 150.49 57.01 147.56 58.92 150.49" style="fill:#ff6c7b;"/><polygon points="53.35 148.67 53.35 148.67 53.35 148.67 53.35 148.67" style="fill:#ff6c7b;"/><polygon points="58.43 151.44 58.92 150.49 58.92 150.49 57.01 147.56 56.53 148.51 56.53 148.51 58.43 151.44" style="fill:#ff6c7b;"/><rect x="55.72" y="155.68" width="1.07" height="0" transform="translate(-93.61 85.38) rotate(-45)" style="fill:#ff6c7b;"/><polygon points="58.06 155.02 58.55 154.07 58.55 154.07 55.83 149.89 55.34 150.84 55.34 150.84 58.06 155.02" style="fill:#ff6c7b;"/><polygon points="56.5 155.21 56.5 155.21 56.5 155.21 55.7 153.99 56.5 155.21" style="fill:#ff6c7b;"/><polygon points="54.88 158.37 55.37 157.42 54.88 158.37 54.88 158.37" style="fill:#ff6c7b;"/><polygon points="56.01 156.16 56.5 155.21 56.5 155.21 55.7 153.99 54.6 152.29 54.6 152.29 54.6 152.29 54.11 153.24 54.11 153.24 56.01 156.16" style="fill:#ff6c7b;"/><polygon points="55.37 157.42 53.47 154.49 53.46 154.49 53.47 154.49 55.37 157.42" style="fill:#ff6c7b;"/><polygon points="54.24 159.63 54.24 159.63 53.75 160.58 54.24 159.63 54.24 159.63" style="fill:#ff6c7b;"/><polygon points="54.88 158.37 55.37 157.42 53.47 154.49 52.98 155.45 52.98 155.45 54.88 158.37" style="fill:#ff6c7b;"/><rect x="53.29" y="156.42" width="0" height="3.49" style="fill:#ff6c7b;"/><polygon points="52.62 162.79 52.62 162.79 52.62 162.79 53.11 161.84 53.11 161.84 53.11 161.84 52.62 162.79" style="fill:#ff6c7b;"/><polygon points="54.24 159.63 52.34 156.71 52.34 156.7 51.85 157.65 53.75 160.58 54.24 159.63 54.24 159.63" style="fill:#ff6c7b;"/><polygon points="52.25 166.37 52.25 166.37 52.74 165.42 52.74 165.42 52.74 165.42 52.25 166.37" style="fill:#ff6c7b;"/><polygon points="51.52 161.09 52.62 162.79 53.11 161.84 53.11 161.84 51.21 158.92 50.72 159.86 50.72 159.86 50.72 159.86 51.52 161.09" style="fill:#ff6c7b;"/><polygon points="51.52 161.09 52.62 162.79 52.62 162.79 51.52 161.09" style="fill:#ff6c7b;"/><polygon points="50.69 166.56 50.21 167.51 50.21 167.51 50.69 166.56 50.69 166.56 50.69 166.56" style="fill:#ff6c7b;"/><polygon points="52.25 166.37 52.74 165.42 52.74 165.42 50.02 161.24 49.53 162.19 49.53 162.19 49.53 162.19 52.25 166.37" style="fill:#ff6c7b;"/><polygon points="50.69 166.56 50.69 166.56 48.79 163.64 48.78 163.64 48.79 163.64 50.69 166.56" style="fill:#ff6c7b;"/><polygon points="49.07 169.72 49.07 169.72 49.56 168.77 49.56 168.77 49.56 168.77 49.07 169.72" style="fill:#ff6c7b;"/><polygon points="50.21 167.51 50.69 166.56 50.69 166.56 48.79 163.64 48.3 164.59 48.3 164.59 50.21 167.51" style="fill:#ff6c7b;"/><polygon points="47.95 171.93 48.43 170.98 47.95 171.93 47.95 171.93" style="fill:#ff6c7b;"/><polygon points="49.07 169.72 49.56 168.77 49.56 168.77 47.66 165.85 47.17 166.8 47.17 166.8 49.07 169.72" style="fill:#ff6c7b;"/><polygon points="46.81 174.14 46.81 174.14 47.3 173.18 47.3 173.18 47.3 173.18 46.81 174.14" style="fill:#ff6c7b;"/><polygon points="47.95 171.93 48.43 170.98 46.53 168.06 46.04 169 46.04 169 46.04 169 47.95 171.93" style="fill:#ff6c7b;"/><polygon points="42.86 169.16 42.86 169.16 42.86 169.16 42.86 169.16" style="fill:#ff6c7b;"/><polygon points="42.87 169.16 46.04 169 46.04 169 42.87 169.16" style="fill:#ff6c7b;"/><rect x="46.16" y="177.24" width="1.07" height="0" style="fill:#ff6c7b;"/><polygon points="46.81 174.14 47.3 173.18 47.3 173.18 45.4 170.26 44.91 171.22 46.81 174.14" style="fill:#ff6c7b;"/><polygon points="45.35 174.34 44.21 172.59 44.21 172.59 45.35 174.34" style="fill:#ff6c7b;"/><polygon points="44.4 178.86 44.4 178.86 44.88 177.91 44.88 177.91 44.88 177.91 44.4 178.86" style="fill:#ff6c7b;"/><polygon points="46.45 177.72 46.93 176.77 46.93 176.77 45.35 174.34 44.21 172.59 44.21 172.59 43.72 173.54 43.72 173.54 46.45 177.72" style="fill:#ff6c7b;"/><polygon points="43.75 180.12 43.75 180.12 43.75 180.12 43.27 181.07 43.27 181.07 43.27 181.07 43.75 180.12" style="fill:#ff6c7b;"/><polygon points="44.4 178.86 44.88 177.91 44.88 177.91 42.98 174.99 42.5 175.94 42.5 175.94 44.4 178.86" style="fill:#ff6c7b;"/><polygon points="42.14 183.28 42.14 183.28 42.62 182.33 42.62 182.33 42.62 182.33 42.14 183.28" style="fill:#ff6c7b;"/><polygon points="43.75 180.12 41.85 177.2 41.36 178.15 43.27 181.07 43.75 180.12 43.75 180.12" style="fill:#ff6c7b;"/><polygon points="41.36 178.15 43.27 181.07 43.27 181.07 41.36 178.15 38.18 178.3 38.18 178.3 38.18 178.3 41.36 178.15" style="fill:#ff6c7b;"/><polygon points="41.49 184.53 41.01 185.49 41.01 185.49 41.49 184.53 41.49 184.53 41.49 184.53" style="fill:#ff6c7b;"/><polygon points="42.14 183.28 42.62 182.33 42.62 182.33 40.72 179.41 40.24 180.36 40.24 180.36 42.14 183.28" style="fill:#ff6c7b;"/><polygon points="41.12 188.12 40.64 189.07 40.64 189.07 41.12 188.12 41.12 188.12 41.12 188.12" style="fill:#ff6c7b;"/><rect x="40.54" y="181.33" width="0" height="3.49" style="fill:#ff6c7b;"/><polygon points="41.01 185.49 41.49 184.53 41.49 184.53 39.59 181.61 39.59 181.61 39.1 182.57 39.1 182.57 41.01 185.49" style="fill:#ff6c7b;"/><polygon points="41.12 188.12 41.12 188.12 38.4 183.94 38.39 183.94 38.4 183.94 41.12 188.12" style="fill:#ff6c7b;"/><polygon points="38.59 190.21 38.59 190.21 39.08 189.26 39.08 189.26 39.08 189.26 38.59 190.21" style="fill:#ff6c7b;"/><polygon points="40.64 189.07 41.12 188.12 41.12 188.12 38.4 183.94 37.92 184.89 37.92 184.89 40.64 189.07" style="fill:#ff6c7b;"/><polygon points="37.46 192.42 37.46 192.42 37.95 191.47 37.95 191.47 37.95 191.47 37.46 192.42" style="fill:#ff6c7b;"/><polygon points="38.59 190.21 39.08 189.26 39.08 189.26 37.17 186.34 36.69 187.29 36.69 187.29 36.69 187.29 38.59 190.21" style="fill:#ff6c7b;"/><rect x="36.57" y="193.62" width="0" height="1.07" style="fill:#ff6c7b;"/><polygon points="37.46 192.42 37.95 191.47 37.95 191.47 36.04 188.55 35.56 189.5 35.56 189.5 37.46 192.42" style="fill:#ff6c7b;"/><polygon points="35.69 195.88 35.2 196.84 35.2 196.84 35.69 195.88 35.69 195.88 35.69 195.88" style="fill:#ff6c7b;"/><polygon points="36.33 194.63 36.82 193.68 36.82 193.68 34.91 190.76 34.91 190.76 34.91 190.76 34.43 191.71 34.43 191.71 36.33 194.63" style="fill:#ff6c7b;"/><polygon points="34.83 200.42 34.83 200.42 35.32 199.47 35.32 199.47 35.32 199.47 34.83 200.42" style="fill:#ff6c7b;"/><polygon points="35.69 195.88 35.69 195.88 33.79 192.96 33.78 192.96 33.79 192.96 35.69 195.88" style="fill:#ff6c7b;"/><polygon points="35.2 196.84 35.69 195.88 35.69 195.88 33.79 192.96 33.3 193.92 33.3 193.92 35.2 196.84" style="fill:#ff6c7b;"/><polygon points="28.93 196.39 28.93 196.39 28.93 196.39 28.93 196.39" style="fill:#ff6c7b;"/><polygon points="34.83 200.42 35.32 199.47 35.32 199.47 32.59 195.29 32.11 196.24 32.11 196.24 34.83 200.42" style="fill:#ff6c7b;"/></g><g><path d="M90.75,81.64c-2.02,3.94-62.61,122.36-64.83,126.71-1.06,.05-2.12,.1-3.18,.15,21.61-42.24,43.22-84.47,64.83-126.71,1.06-.05,2.12-.1,3.18-.15Z" style="fill:#ffc700;"/><polygon points="39.08 189.26 37.17 186.34 39.08 189.26 39.08 189.26" style="fill:url(#b);"/></g><path d="M92.65,194.03l-.61-35.71-.48-28.28-.51-30.12-.31-18.28-6.05,11.83,2.72,4.18-.48,.95-2.72-4.18-.57,1.12,1.9,2.92-.48,.95-1.9-2.92-.65,1.26,1.9,2.92-.48,.95-1.9-2.92-.64,1.26,1.9,2.92-.49,.95-1.9-2.92-.64,1.26,1.9,2.93-.48,.94-1.91-2.92-.7,1.38,2.72,4.18-.49,.96-2.72-4.18-.74,1.45,1.9,2.92-.48,.95-1.91-2.93-.64,1.26,1.9,2.92-.48,.95-1.91-2.92-.64,1.26,1.91,2.92-.49,.95-1.9-2.93-.65,1.26,1.91,2.92-.49,.95-1.9-2.92-.71,1.38,2.72,4.18-.49,.96-2.72-4.18-.74,1.45,1.91,2.92-.49,.95-1.9-2.92-.64,1.26,1.9,2.92-.49,.95-.8-1.22-1.1-1.7-.64,1.25,1.9,2.93-.48,.94-1.91-2.92-.64,1.26,1.9,2.92-.48,.95-1.9-2.92-.71,1.37,2.72,4.18-.48,.95-2.72-4.18-.74,1.45,1.9,2.92-.48,.95-1.9-2.92-.64,1.26,1.9,2.92-.49,.95-1.9-2.92-.64,1.26,1.9,2.92-.49,.95-1.9-2.92-.64,1.26,1.9,2.92-.49,.95-1.9-2.93-.7,1.38,2.72,4.18-.48,.94-2.72-4.18-.74,1.45,1.9,2.92-.49,.95-1.9-2.92-.64,1.26,1.9,2.92-.48,.95-1.91-2.92-.64,1.26,1.91,2.92-.49,.95-1.9-2.92-.65,1.26,1.91,2.93-.49,.94-1.9-2.92-.71,1.38,2.72,4.18-.49,.95-2.72-4.18-.75,1.45,1.11,1.7,.8,1.22-.49,.95-1.9-2.93-.64,1.26,1.9,2.92-.49,.96-1.9-2.92-.64,1.26,1.9,2.92-.48,.95-1.91-2.92-.64,1.26,1.9,2.92-.48,.95-1.1-1.7-.8-1.22-.71,1.38,2.72,4.18-.48,.95-2.72-4.18-.74,1.45,1.9,2.92-.48,.95-1.9-2.92-.65,1.26,1.91,2.92-.49,.96-1.9-2.92-.64,1.25,1.9,2.93-.49,.94-1.9-2.92-.64,1.26,1.9,2.92-.49,.96-1.9-2.92-.71,1.37,1.15,1.75,1.58,2.43-.48,.95-2.72-4.18-.74,1.45,1.9,2.92-.49,.95-1.9-2.92-.64,1.26,1.9,2.92-.49,.96-1.9-2.93-.64,1.26,1.9,2.92-.48,.95-1.9-2.92-.64,1.26,1.9,2.92-.49,.96-1.9-2.93-.71,1.38,2.72,4.18-.49,.94-2.72-4.18-.75,1.45,1.91,2.92-.49,.95-1.9-2.92-.64,1.26,1.9,2.92-.48,.95h0l-1.9-2.93-.64,1.26,1.9,2.92-.48,.95-1.91-2.92-.64,1.26,1.91,2.92-.49,.95-1.91-2.92-.7,1.38,2.72,4.18-.48,.95-2.72-4.18-6.2,12.11,8.73-1.38,23.49-3.7,11.16-1.76,21.49-3.39,1.94-.31-.06-3.79Zm-23.64-14.59l-17.32,2.03,.12-.24,24.21-47.3,3.05-5.95,.65,28.01,.52,22.13-11.22,1.32Z" style="fill:#ffe092;"/><polygon points="92.65 194.03 90.78 198.12 69.29 201.51 92.04 158.31 92.65 194.03" style="fill:url(#c); mix-blend-mode:screen;"/></g><g><polygon points="271.11 197.17 143.65 227.01 144.24 191.61 271.65 164.77 271.11 197.17" style="fill:#a37c58;"/><polygon points="144.24 191.61 65.67 171.91 193.09 145.07 271.65 164.77 144.24 191.61" style="fill:#d19c5e;"/><path d="M67.88,173.23l-.55,33.17s75.01,19.29,76.34,19.47l.57-34.14-76.35-18.51Z" style="fill:url(#d);"/><polygon points="141.92 191.03 141.92 191.03 65.67 171.91 65.66 173.04 141.89 192.85 141.36 224.59 65.12 205.47 65.1 206.6 143.65 227.01 143.68 225.17 144.21 193.45 144.24 191.61 141.92 191.03" style="fill:#8c6646;"/><g><path d="M152.35,205.56l6.67-1.6c.26-.06,.44-.08,.56-.04,.12,.03,.2,.11,.24,.22,.04,.12,.06,.28,.06,.49s-.02,.38-.06,.51c-.04,.13-.11,.24-.21,.31-.14,.11-.35,.19-.61,.25l-2.29,.55v6.04c0,.18,0,.32-.02,.41-.01,.09-.05,.2-.11,.33-.06,.13-.17,.24-.32,.32-.15,.08-.35,.16-.6,.22-.25,.06-.45,.08-.59,.07s-.25-.07-.31-.17c-.06-.1-.1-.2-.11-.29-.01-.09-.02-.23-.02-.41v-6.02l-2.3,.55c-.25,.06-.44,.08-.56,.04-.12-.03-.2-.11-.24-.22-.04-.12-.06-.28-.06-.49s.02-.38,.06-.51,.11-.24,.21-.31c.14-.11,.35-.19,.61-.25Z" style="fill:#fff;"/><path d="M168.48,209.02c.12,.26,.18,.45,.18,.58,0,.3-.25,.62-.74,.95-.26,.17-.46,.28-.62,.32-.16,.04-.28,.03-.38-.02-.1-.05-.17-.11-.22-.18-.08-.13-.39-.78-.94-1.95l-.37,.11-1.51,.36v1.36c0,.18,0,.32-.02,.42s-.05,.21-.11,.34c-.11,.24-.42,.43-.94,.55-.56,.13-.89,.06-.98-.21-.05-.12-.07-.33-.07-.61v-6.66c0-.18,0-.32,.02-.42,.01-.09,.05-.21,.11-.34,.11-.24,.42-.43,.94-.55l2.59-.62c.7-.17,1.39-.08,2.05,.28,.32,.17,.58,.44,.79,.82,.21,.37,.31,.82,.31,1.34,0,.9-.3,1.72-.9,2.45,.18,.38,.45,.95,.82,1.69Zm-4.61-1.96l1.54-.37c.23-.06,.46-.2,.7-.43,.23-.23,.35-.52,.35-.88s-.12-.59-.35-.72c-.23-.12-.47-.16-.72-.1l-1.51,.36v2.12Z" style="fill:#fff;"/><path d="M170.52,202.28c0-.18,0-.32,.02-.42,.01-.09,.05-.21,.11-.34,.11-.24,.42-.43,.94-.55,.56-.13,.89-.06,1,.21,.04,.13,.06,.33,.06,.61v6.67c0,.19,0,.33-.02,.42-.01,.09-.05,.2-.11,.34-.11,.24-.42,.43-.94,.55-.56,.13-.89,.06-.98-.22-.05-.12-.07-.32-.07-.59v-6.67Z" style="fill:#fff;"/><path d="M179.39,202.59l2.11-.51c.43-.09,.7-.04,.79,.15,.08,.13,.12,.35,.12,.64v2.64c0,.26-.11,.53-.34,.81-.67,.86-1.68,1.45-3.02,1.77-1.19,.29-2.23,.08-3.11-.61s-1.32-1.67-1.32-2.94,.45-2.44,1.34-3.51c.9-1.07,1.95-1.75,3.17-2.04,.94-.23,1.84-.13,2.67,.3,.22,.11,.33,.26,.33,.46s-.09,.44-.28,.74c-.31,.5-.6,.78-.85,.84-.15,.04-.4-.02-.73-.15-.34-.14-.74-.15-1.2-.04-.61,.15-1.15,.49-1.62,1.03-.47,.54-.71,1.16-.71,1.85s.24,1.22,.72,1.59c.48,.37,1.03,.48,1.63,.34,.44-.11,.84-.27,1.19-.5v-1.31l-.95,.23c-.25,.06-.42,.07-.53,.03-.1-.04-.17-.12-.2-.23-.03-.12-.05-.28-.05-.49s.02-.39,.05-.52,.1-.24,.2-.31c.14-.11,.34-.19,.58-.25Z" style="fill:#fff;"/><path d="M188.7,196.76c1.18-.28,2.21-.1,3.08,.55s1.31,1.6,1.31,2.87-.42,2.45-1.25,3.54c-.83,1.09-1.86,1.78-3.07,2.07-1.22,.29-2.25,.1-3.1-.58-.85-.68-1.28-1.62-1.28-2.84,0-.66,.12-1.31,.36-1.95,.24-.64,.56-1.2,.96-1.69,.4-.49,.86-.91,1.38-1.25,.52-.35,1.06-.59,1.61-.72Zm-2.18,5.05c0,.71,.23,1.24,.69,1.57,.46,.33,.97,.43,1.54,.3,.57-.14,1.08-.47,1.54-1.02,.46-.54,.68-1.17,.68-1.9s-.23-1.26-.69-1.59c-.46-.33-.97-.43-1.54-.29-.57,.14-1.08,.48-1.54,1.03-.46,.55-.69,1.19-.69,1.9Z" style="fill:#fff;"/><path d="M200.75,194.35c.08-.16,.19-.28,.34-.36,.15-.08,.34-.15,.57-.21,.23-.05,.41-.08,.55-.07,.14,0,.24,.03,.31,.07,.07,.04,.12,.11,.15,.22,.05,.12,.07,.31,.07,.59v6.66c0,.19,0,.33-.02,.42-.01,.09-.05,.2-.11,.34-.11,.24-.42,.43-.94,.55-.31,.07-.53,.1-.65,.08-.12-.02-.22-.07-.3-.16-1.8-1.97-2.98-3.25-3.55-3.85v3.95c0,.19,0,.33-.02,.42-.01,.09-.05,.2-.11,.34-.11,.24-.42,.42-.94,.55-.5,.12-.8,.08-.91-.11-.06-.1-.1-.2-.11-.3-.01-.09-.02-.23-.02-.42v-6.7c0-.3,.04-.54,.11-.69,.08-.16,.19-.28,.34-.36,.15-.08,.35-.16,.59-.21,.24-.06,.43-.08,.57-.07,.14,.01,.24,.04,.29,.08,.03,.02,.12,.1,.28,.25,1.69,1.89,2.82,3.14,3.38,3.74v-4.06c0-.3,.04-.54,.11-.69Z" style="fill:#fff;"/><path d="M209.04,191.89c1.18-.28,2.21-.1,3.08,.55,.87,.65,1.31,1.6,1.31,2.87s-.42,2.45-1.25,3.54c-.83,1.09-1.86,1.78-3.07,2.07-1.22,.29-2.25,.1-3.1-.58s-1.28-1.62-1.28-2.84c0-.66,.12-1.31,.36-1.95,.24-.64,.56-1.2,.96-1.69,.4-.49,.86-.91,1.38-1.25,.52-.35,1.06-.59,1.61-.72Zm-2.18,5.05c0,.71,.23,1.24,.69,1.57,.46,.33,.97,.43,1.54,.3,.57-.14,1.08-.47,1.54-1.02,.46-.54,.68-1.17,.68-1.9s-.23-1.26-.69-1.59c-.46-.33-.97-.43-1.54-.29-.57,.14-1.08,.48-1.54,1.03-.46,.55-.68,1.19-.68,1.9Z" style="fill:#fff;"/><path d="M224.76,188.57c.06,.1,.1,.2,.11,.3,.01,.09,.02,.23,.02,.42v6.66c0,.55-.15,.91-.46,1.08-.15,.08-.34,.15-.58,.21-.23,.06-.42,.08-.55,.07-.14,0-.24-.03-.31-.07-.07-.04-.13-.1-.17-.2-.04-.13-.06-.33-.06-.61v-4.02c-.2,.3-.49,.76-.88,1.39-.38,.63-.63,1.03-.73,1.19-.1,.16-.18,.27-.22,.33s-.14,.16-.29,.29c-.16,.13-.32,.22-.5,.26-.18,.04-.34,.04-.49,0-.15-.05-.25-.11-.32-.17l-.1-.11c-.16-.16-.48-.51-.95-1.05-.47-.54-.73-.83-.77-.87v4.04c0,.18,0,.32-.02,.42s-.05,.21-.11,.33c-.12,.25-.43,.43-.94,.55-.49,.12-.79,.08-.91-.11-.06-.1-.1-.19-.11-.29-.01-.09-.02-.23-.02-.43v-6.66c0-.18,0-.32,.02-.42,.01-.09,.05-.21,.11-.34,.12-.24,.43-.42,.94-.54,.22-.05,.4-.07,.56-.06,.16,.01,.26,.04,.31,.09l.07,.05,2.72,2.92c1.36-2.12,2.27-3.53,2.72-4.22,.14-.25,.46-.43,.97-.55,.51-.12,.82-.09,.93,.1Z" style="fill:#fff;"/><path d="M229.18,193.85l3.7-.88c.18-.04,.32-.07,.41-.08s.2,0,.32,.04c.22,.06,.32,.35,.32,.86,0,.56-.15,.92-.44,1.09-.14,.08-.34,.15-.62,.22l-4.75,1.14c-.56,.13-.89,.06-.98-.22-.05-.12-.07-.31-.07-.59v-6.67c0-.41,.08-.7,.23-.89,.15-.18,.44-.33,.86-.43l4.73-1.13c.18-.04,.32-.07,.41-.08s.2,0,.32,.04c.22,.06,.32,.35,.32,.86,0,.56-.15,.92-.44,1.09-.14,.08-.34,.15-.62,.22l-3.68,.88v1.21l2.38-.57c.18-.04,.32-.07,.41-.08,.09,0,.2,0,.32,.04,.22,.06,.33,.35,.33,.86,0,.56-.15,.92-.46,1.09-.14,.08-.34,.15-.62,.22l-2.35,.56v1.21Z" style="fill:#fff;"/><path d="M236.49,185.42l6.67-1.6c.26-.06,.44-.08,.56-.04,.12,.03,.2,.11,.24,.22,.04,.12,.06,.28,.06,.49s-.02,.38-.06,.51c-.04,.13-.11,.24-.2,.31-.14,.11-.35,.19-.61,.25l-2.29,.55v6.04c0,.18,0,.32-.02,.41-.01,.09-.05,.2-.11,.33-.06,.13-.17,.24-.32,.32-.15,.08-.35,.16-.6,.22-.25,.06-.45,.08-.59,.07-.15-.01-.25-.07-.31-.17-.06-.1-.1-.2-.11-.29-.01-.09-.02-.23-.02-.41v-6.02l-2.3,.55c-.26,.06-.44,.08-.56,.04-.12-.03-.2-.11-.24-.22-.04-.12-.06-.28-.06-.49s.02-.38,.06-.51c.04-.13,.11-.24,.2-.31,.14-.11,.35-.19,.61-.25Z" style="fill:#fff;"/><path d="M252.61,188.88c.12,.26,.18,.45,.18,.58,0,.3-.25,.62-.74,.95-.26,.17-.46,.28-.62,.32-.16,.04-.28,.03-.38-.02-.1-.05-.17-.11-.22-.18-.08-.13-.39-.78-.94-1.95l-.37,.11-1.51,.36v1.36c0,.18,0,.32-.02,.42-.01,.1-.05,.21-.11,.35-.11,.24-.42,.43-.94,.55-.56,.13-.89,.06-.98-.21-.05-.12-.07-.33-.07-.61v-6.66c0-.18,0-.32,.02-.42,.01-.09,.05-.21,.11-.34,.11-.24,.42-.43,.94-.55l2.59-.62c.7-.17,1.39-.08,2.05,.28,.32,.17,.58,.44,.79,.82,.21,.37,.31,.82,.31,1.34,0,.9-.3,1.72-.9,2.45,.17,.38,.45,.95,.82,1.69Zm-4.61-1.96l1.54-.37c.23-.06,.46-.2,.7-.43,.23-.23,.35-.52,.35-.88s-.12-.59-.35-.71c-.23-.12-.47-.16-.72-.1l-1.51,.36v2.12Z" style="fill:#fff;"/><path d="M261.4,179.63c.39,.18,.59,.4,.59,.65,0,.15-.09,.39-.28,.7l-2.59,4.5v2.29c0,.18,0,.32-.02,.42-.01,.09-.05,.21-.11,.35-.06,.14-.17,.25-.32,.33-.15,.08-.36,.16-.61,.22-.26,.06-.46,.09-.61,.07-.15-.01-.26-.07-.32-.18-.06-.11-.1-.21-.11-.3-.01-.09-.02-.23-.02-.42v-2.27l-2.59-3.25c-.18-.23-.28-.42-.28-.57,0-.26,.17-.54,.53-.86,.35-.32,.6-.5,.76-.54,.15-.04,.27-.03,.36,0,.14,.06,.28,.19,.43,.39l1.86,2.53,1.86-3.42c.15-.28,.28-.47,.4-.57,.11-.1,.24-.17,.39-.21s.38,0,.7,.13Z" style="fill:#fff;"/></g><polygon points="65.12 205.47 67.37 204.38 67.34 206.02 65.12 205.47" style="fill:#07225f;"/></g><g><path d="M80.11,127.21c-.09-.57-.19-1.15-.29-1.72l118.9,25.86,.26,16.91-.26-15.51-118.6-25.54Z" style="fill:#5254cf;"/><path d="M199.27,188.51l-119.46-25.77c.07-.48,.13-.97,.2-1.45l119.24,25.54,.03,1.68Z" style="fill:#5254cf;"/><polygon points="198.71 151.35 277.27 131.65 158.38 105.78 79.82 125.49 198.71 151.35" style="fill:#9f9ef2;"/><path d="M275.06,134.26l.55,33.13s-75.01,19.26-76.34,19.44l-.56-34.09,76.35-18.48Z" style="fill:#ddd; isolation:isolate;"/><path d="M81.93,161.64c1.59-11.86,1.84-23.3,.1-34.08l116.68,25.19,.26,15.51,.28,18.57-117.31-25.19Z" style="fill:#efefef; isolation:isolate;"/><polygon points="199.27 186.84 199.25 186.83 198.97 168.26 199.27 186.84" style="fill:url(#e);"/><polygon points="198.71 151.35 277.27 131.65 277.27 168.3 199.28 188.51 199.28 186.84 275.61 167.39 275.61 134.26 198.71 152.75 198.71 151.35" style="fill:#393a8f;"/></g><g><path d="M230.28,116.91s0,0,0,0c.04,.04,.08,.12,.13,.2,.01,.02,.02,.04,.03,.07,.04,.1,.08,.21,.11,.35,.15,.62,.16,1.39,.02,1.72-.03,.08-.07,.12-.12,.14t0,0c1.21-.46,2.43-.92,3.64-1.39,0,0,.02-.01,.03-.03,.03-.07,.03-.24,0-.37-.01-.05-.03-.08-.04-.11,0,0,0,0-.01-.01,0,0-.02-.02-.03-.03-1.28-.2-2.56-.4-3.85-.61t0,0s.06,.02,.1,.06Z" style="fill:#6a6a6a;"/><polygon points="223.18 122.13 223.19 122.13 223.18 122.13 223.18 122.13" style="fill:#e4eeed;"/><path d="M222.61,115.68s0,0,0,0c.05,.02,.11,.06,.16,.11,.02,.01,.03,.03,.05,.05,.04,.05,.09,.1,.13,.17,.01,.02,.02,.03,.04,.05,.05,.09,.11,.19,.16,.31,.01,.03,.02,.06,.04,.09,.04,.1,.08,.2,.12,.32,.01,.04,.03,.08,.04,.12,.05,.15,.09,.31,.14,.49,.39,1.58,.4,3.54,.04,4.38-.05,.11-.1,.19-.16,.26-.02,.02-.04,.03-.06,.04-.03,.02-.06,.05-.09,.06,0,0,0,0,0,0,2.41-.91,4.82-1.82,7.23-2.74h0s.08-.06,.12-.14c.14-.33,.14-1.1-.02-1.72-.03-.14-.07-.25-.11-.35-.01-.02-.02-.05-.03-.07-.04-.09-.08-.16-.13-.2,0,0,0,0,0,0-.03-.03-.06-.05-.1-.06h0c-2.55-.4-5.09-.79-7.64-1.19-.01,0-.02,0-.04,0,.03,0,.06,0,.09,.01Z" style="fill:#efefef; isolation:isolate;"/><path d="M223.18,122.13s0,0,0,0c.01,0,.02,0,.03,0,.03-.01,.06-.04,.09-.06-.04,.03-.08,.06-.12,.07Z" style="fill:#0075f2;"/><path d="M223.18,116.46s-.02-.06-.04-.09c.01,.03,.02,.06,.04,.09Z" style="fill:#0075f2;"/><path d="M223.34,116.9s-.03-.08-.04-.12c.01,.04,.03,.08,.04,.12Z" style="fill:#0075f2;"/><path d="M223.52,121.77c-.05,.11-.1,.19-.16,.26,.06-.06,.11-.14,.16-.26Z" style="fill:#0075f2;"/><path d="M222.61,115.68s0,0,0,0c0,0,0,0,0,0Z" style="fill:#0075f2;"/><path d="M222.99,116.07s-.02-.04-.04-.05c.01,.02,.02,.03,.04,.05Z" style="fill:#0075f2;"/><path d="M222.78,115.79s.03,.03,.05,.05c-.02-.02-.03-.03-.05-.05Z" style="fill:#0075f2;"/><path d="M129.2,125.41c.05,.02,.11,.06,.16,.11,.02,.01,.03,.03,.05,.05,.04,.05,.09,.1,.13,.17,.01,.02,.02,.03,.04,.05,.05,.09,.11,.19,.16,.31,.01,.03,.02,.06,.03,.08,.04,.1,.08,.21,.12,.32,.01,.04,.03,.08,.04,.12,.05,.15,.09,.31,.14,.49,.39,1.58,.4,3.54,.04,4.38-.05,.11-.1,.19-.16,.26,0,0,0,.01,0,.02-.02,.02-.03,.01-.05,.03-.04,.03-.08,.06-.12,.06,0,0-.01,.01-.02,.01,2.21-.23,4.5-.47,6.81-.71l6.6-.69c4.05-.42,8.2-.85,12.44-1.3l7.37-.77c.67-.07,1.34-.14,2.01-.21l15.17-1.58c2.62-.27,5.23-.55,7.83-.82l1.92-.2c2.5-.26,4.98-.52,7.45-.78l12.4-1.29c2.25-.23,4.46-.47,6.63-.69l6.79-.71s.01,0,.02-.01c0,0,0,0,0,0,.04,0,.08-.03,.12-.07,.02-.01,.04-.02,.06-.04,.06-.06,.11-.14,.16-.26,.36-.83,.35-2.79-.04-4.38-.04-.18-.09-.34-.14-.49-.01-.04-.03-.08-.04-.12-.04-.11-.08-.22-.12-.32-.01-.03-.02-.06-.04-.09-.05-.12-.1-.22-.16-.31-.01-.02-.02-.04-.04-.05-.04-.07-.09-.12-.13-.17-.02-.02-.03-.03-.05-.05-.05-.05-.11-.09-.16-.11,0,0,0,0,0,0-.03-.01-.06-.01-.09-.01-.01,0-.02,0-.03,0-2.2,.23-4.48,.47-6.8,.71l-6.61,.69c-4.04,.42-8.19,.85-12.42,1.29l-7.39,.77c-.66,.07-1.33,.14-1.99,.21l-7.8,.81c-5.07,.53-10.15,1.06-15.18,1.58l-1.99,.21c-2.49,.26-4.95,.52-7.39,.77l-12.42,1.29c-2.24,.23-4.45,.46-6.61,.69l-6.79,.71s.08,0,.13,.02c0,0,0,0,0,0Z" style="fill:#ffc700;"/><path d="M129.36,125.53s.03,.03,.05,.05c-.02-.02-.03-.03-.05-.05Z" style="fill:#e4eeed;"/><path d="M129.2,125.41s0,0,0,0c0,0,0,0,0,0Z" style="fill:#e4eeed;"/><path d="M129.77,126.19s-.02-.06-.03-.08c.01,.03,.02,.06,.03,.08Z" style="fill:#e4eeed;"/><path d="M129.89,131.8s-.08,.06-.12,.06c.04,0,.08-.03,.12-.06Z" style="fill:#e4eeed;"/><path d="M130.11,131.5c-.05,.11-.1,.19-.16,.26,.06-.06,.11-.14,.16-.26Z" style="fill:#e4eeed;"/><path d="M129.58,125.8s-.02-.04-.04-.05c.01,.02,.02,.03,.04,.05Z" style="fill:#e4eeed;"/><path d="M129.93,126.63s-.03-.08-.04-.12c.01,.04,.03,.08,.04,.12Z" style="fill:#e4eeed;"/><path d="M126.21,125.69s.08,0,.13,.02c0,0,0,0,0,0,.04,.02,.09,.04,.13,.08,.01,0,.02,.02,.03,.03,.02,.01,.03,.03,.05,.05,.04,.05,.09,.1,.13,.17,.01,.02,.02,.03,.04,.05,.05,.09,.11,.19,.16,.31,.01,.03,.02,.06,.03,.08,.04,.1,.08,.21,.12,.32,.01,.04,.03,.08,.04,.12,.05,.15,.1,.31,.14,.49,.39,1.58,.4,3.54,.04,4.38-.05,.11-.1,.19-.16,.26-.02,.02-.04,.03-.06,.04-.04,.03-.08,.06-.12,.07,0,0-.01,.01-.02,.01l1.43-.15c.5-.05,1-.1,1.43-.15,0,0,.01,0,.02-.01,.04,0,.08-.03,.12-.06,.02-.01,.03-.01,.05-.03,0,0,0-.01,0-.02,.06-.06,.11-.14,.16-.26,.36-.83,.35-2.79-.04-4.38-.04-.18-.09-.34-.14-.49-.01-.04-.03-.08-.04-.12-.04-.12-.08-.22-.12-.32-.01-.03-.02-.06-.03-.08-.05-.12-.1-.22-.16-.31-.01-.02-.02-.04-.04-.05-.04-.07-.09-.12-.13-.17-.02-.02-.03-.03-.05-.05-.05-.05-.11-.09-.16-.11,0,0,0,0,0,0-.04-.02-.08-.02-.13-.02l-1.43,.15s0,0,0,0l-1.43,.15Z" style="fill:#efefef; isolation:isolate;"/><path d="M126.33,125.71s0,0,0,0c0,0,0,0,0,0Z" style="fill:#ff7485;"/><path d="M126.5,125.82s.03,.03,.05,.05c-.02-.02-.03-.03-.05-.05Z" style="fill:#ff7485;"/><path d="M126.87,126.4s.02,.06,.03,.08c-.01-.03-.02-.06-.03-.08Z" style="fill:#ff7485;"/><path d="M126.67,126.04s.02,.03,.04,.05c-.01-.02-.02-.04-.04-.05Z" style="fill:#ff7485;"/><path d="M127.24,131.8c-.05,.11-.1,.19-.16,.26,.06-.06,.11-.14,.16-.26Z" style="fill:#ff7485;"/><path d="M127.03,132.1s-.08,.06-.12,.07c.04,0,.08-.03,.12-.07Z" style="fill:#ff7485;"/><path d="M127.03,126.81s.03,.08,.04,.12c-.01-.04-.03-.08-.04-.12Z" style="fill:#ff7485;"/><path d="M127.03,132.1s.04-.02,.06-.04c.06-.06,.11-.14,.16-.26,.36-.83,.35-2.79-.04-4.38-.04-.18-.09-.34-.14-.49-.01-.04-.03-.08-.04-.12-.04-.12-.08-.22-.12-.32-.01-.03-.02-.06-.03-.08-.05-.12-.11-.22-.16-.31-.01-.02-.02-.04-.04-.05-.04-.07-.09-.12-.13-.17-.02-.02-.03-.03-.05-.05-.01-.01-.02-.03-.03-.03-.04-.04-.09-.06-.13-.08,0,0,0,0,0,0-.04-.02-.09-.02-.13-.02h0l-7.58,.79c-.46,.05-.91,.1-1.34,.14-.32,.03-.6,.15-.84,.34-.24,.18-.43,.43-.58,.76-.06,.15-.11,.31-.15,.48-.03,.14-.05,.28-.07,.42,0,.03-.01,.06-.01,.09-.02,.18-.03,.35-.03,.53,0,0,0,0,0,.01,0,.19,0,.37,.02,.54,0,.03,0,.07,.01,.1,.01,.14,.03,.28,.04,.4,0,.04,.01,.08,.02,.11,.05,.32,.1,.56,.12,.63,.01,.05,.03,.1,.04,.15,.02,.09,.05,.17,.07,.24,.02,.05,.03,.11,.05,.16,0,.03,.02,.06,.03,.08,.02,.05,.04,.09,.06,.13,.04,.09,.08,.18,.12,.26,.03,.06,.06,.11,.1,.16,.05,.08,.1,.15,.15,.21,.03,.04,.06,.07,.09,.1,.06,.06,.12,.12,.18,.17,.03,.03,.06,.05,.09,.07,.06,.04,.12,.08,.18,.11,.05,.03,.1,.05,.16,.07,.04,.02,.08,.03,.12,.05,.28,.09,.54,.1,.7,.08l2.66-.28c.38-.04,.76-.08,1.14-.12l2.45-.26c.94-.1,1.84-.19,2.66-.28,0,0,.01-.01,.02-.01,.04,0,.08-.03,.12-.07Z" style="fill:#fc7464;"/></g><g><path d="M220.55,128.06l-4.3-3.23c-.25-.21-.6-.36-.98-.46-.32-.08-.67-.12-1.01-.1-.22,0-.43,.04-.63,.1l-2.13,.61c-.18-.14-.37-.28-.56-.42-.17-.13-.34-.26-.52-.38-.17-.11-.33-.22-.49-.33-.28-.18-.56-.36-.86-.53-.2-.12-.4-.24-.6-.35-.5-.28-1.01-.55-1.55-.81-.21-.11-.43-.21-.66-.32-.15-.07-.3-.14-.46-.2-.4-.19-.83-.37-1.26-.54-.23-.1-.47-.19-.7-.28-.61-.23-1.23-.45-1.86-.66-.25-.08-.49-.16-.74-.24-.65-.2-1.31-.39-1.98-.56-.25-.07-.51-.13-.77-.2-.69-.17-1.38-.32-2.07-.46-.26-.05-.51-.1-.78-.14-.7-.13-1.41-.24-2.13-.34-.26-.04-.53-.07-.79-.1-.2-.02-.41-.05-.61-.07-.51-.06-1.03-.11-1.55-.15-.26-.02-.52-.04-.78-.05-.72-.05-1.44-.08-2.15-.09-.26,0-.51-.01-.77-.01-.71,0-1.41,0-2.12,.03-.19,0-.39,.01-.58,.03-.06,0-.12,0-.17,0-3.29,.18-6.47,.7-9.34,1.59-.09,.03-.19,.06-.28,.09-.2,.06-.4,.13-.59,.2-.55,.19-1.06,.38-1.57,.59-.19,.07-.36,.15-.53,.23-.21,.09-.42,.19-.62,.29-.27,.13-.53,.26-.78,.4-.16,.09-.31,.18-.47,.27-.43,.24-.83,.5-1.21,.77-.14,.1-.28,.19-.41,.29-.36,.27-.7,.55-1.01,.84-.12,.11-.23,.21-.34,.32-.29,.29-.57,.59-.81,.9-.09,.11-.18,.23-.27,.34-.22,.31-.42,.62-.6,.94-.07,.12-.13,.24-.19,.36-.15,.32-.29,.65-.39,.98-.04,.13-.08,.25-.11,.38-.08,.33-.15,.66-.18,1-.01,.13-.03,.26-.03,.39-.02,.33,0,.67,.03,1.01,.01,.13,.03,.27,.06,.4,.04,.33,.12,.67,.22,1,.04,.13,.08,.27,.13,.4,.11,.33,.26,.65,.42,.98,.06,.13,.13,.27,.21,.4,.17,.31,.37,.63,.59,.95,.09,.13,.19,.27,.3,.4,.22,.3,.47,.6,.74,.9,.12,.13,.24,.26,.36,.39,.08,.08,.17,.17,.25,.26,.2,.2,.41,.4,.64,.6,.14,.13,.28,.25,.43,.37,.06,.05,.12,.11,.19,.16l-1.87,.54c-.31,.09-.52,.24-.6,.42-.06,.13-.06,.27,0,.41,.06,.13,.16,.26,.32,.38l4.3,3.35,49.69-13.78-.11-.44Zm-43.24,6.68c-.07-.05-.13-.1-.19-.14-4.47-3.53-2.77-8.03,3.96-10.05,1.04-.31,2.14-.55,3.27-.71,2.55-.36,5.25-.35,7.84,0,3.84,.52,7.39,1.79,9.68,3.65,.06,.05,.13,.1,.18,.16l-24.73,7.08Z" style="fill:#a37c58;"/><path d="M216.4,124.18c-.25-.21-.6-.36-.98-.46-.32-.08-.67-.12-1.01-.1-.22,0-.43,.04-.63,.1l-2.13,.61c-.18-.14-.37-.28-.56-.42-.17-.13-.34-.26-.53-.38-.17-.11-.33-.22-.49-.33-.28-.18-.56-.36-.86-.53-.2-.12-.4-.24-.6-.35-.5-.28-1.01-.55-1.55-.81-.21-.11-.43-.21-.66-.32-.15-.07-.3-.14-.46-.2-.4-.19-.83-.37-1.26-.54-.23-.1-.47-.19-.7-.28-.61-.23-1.23-.45-1.86-.66-.25-.08-.49-.16-.74-.24-.65-.2-1.31-.39-1.98-.56-.25-.07-.51-.13-.77-.19-.69-.17-1.38-.32-2.07-.46-.26-.05-.51-.1-.78-.14-.7-.13-1.41-.24-2.13-.34-.26-.04-.53-.07-.79-.1-.2-.02-.41-.05-.61-.07-.51-.06-1.03-.11-1.55-.15-.26-.02-.52-.04-.78-.05-.72-.05-1.44-.08-2.15-.09-.26,0-.51-.01-.77-.01-.71,0-1.41,0-2.12,.03-.19,0-.39,.01-.58,.03-.06,0-.12,0-.17,0-3.29,.18-6.47,.7-9.34,1.59-.09,.03-.19,.06-.28,.09-.2,.06-.4,.13-.59,.2-.55,.19-1.06,.38-1.57,.59-.19,.07-.36,.15-.53,.23-.21,.09-.42,.19-.62,.29-.27,.13-.53,.26-.78,.4-.16,.09-.31,.18-.47,.27-.43,.24-.83,.5-1.21,.77-.14,.1-.28,.19-.41,.29-.36,.27-.7,.55-1.01,.84-.12,.11-.23,.21-.34,.32-.29,.29-.57,.59-.81,.9-.09,.11-.18,.23-.27,.34-.22,.31-.42,.62-.6,.94-.07,.12-.13,.24-.19,.36-.15,.32-.28,.65-.39,.98-.04,.13-.08,.25-.11,.38-.08,.33-.15,.66-.18,1-.01,.13-.03,.26-.03,.39-.02,.33,0,.67,.03,1.01,.01,.13,.03,.27,.06,.4,.04,.33,.12,.67,.22,1,.04,.13,.08,.27,.13,.4,.11,.33,.26,.65,.42,.98,.06,.13,.13,.27,.21,.4,.17,.31,.37,.63,.59,.95,.09,.13,.19,.27,.3,.4,.22,.3,.47,.6,.74,.9,.12,.13,.24,.26,.36,.39,.08,.08,.17,.17,.25,.26,.2,.2,.41,.4,.64,.6,.14,.13,.28,.25,.43,.37,.06,.05,.12,.11,.19,.16l-1.87,.53c-.31,.09-.52,.24-.6,.42-.06,.13-.06,.27,0,.41,.06,.13,.16,.26,.32,.38l4.3,3.35,49.69-13.78-4.42-3.66Zm-35.18-.29c1.04-.31,2.14-.55,3.27-.71,2.55-.36,5.25-.35,7.84,0,3.84,.52,7.39,1.79,9.68,3.65,.06,.05,.13,.1,.18,.16l-9.77,2.79h0s-7.65,2.19-7.65,2.19h0s-7.31,2.09-7.31,2.09c-.07-.05-.13-.1-.19-.14-4.47-3.53-2.77-8.03,3.96-10.05Z" style="fill:#ffe092;"/></g><g><polygon points="269.1 244.24 270.63 256.63 272.13 243.46 269.1 244.24" style="fill:#6a6a6a;"/><path d="M266.62,198.94l1.04,42.12c.03,1.21,.55,2.36,1.44,3.18h0l2.85-.12,.97-3.63c.79-2.96,1.02-6.04,.68-9.08l-3.8-33.63-3.18,1.18Z" style="fill:#9f9ef2;"/><g><rect x="221.06" y="230.05" width="31.3" height="3.69" transform="translate(520.13 60.21) rotate(104.38)" style="fill:#ffc700;"/><g><polygon points="232.68 250.04 231.43 249.72 231.04 246.6 234.61 247.51 232.68 250.04" style="fill:#efefef; isolation:isolate;"/><polygon points="231.64 251.39 231.43 249.72 232.68 250.04 231.64 251.39" style="fill:#6a6a6a;"/></g><rect x="240.03" y="214.17" width="1.5" height="3.69" transform="translate(509.84 36.44) rotate(104.38)" style="fill:#6a6a6a;"/><path d="M240.63,211.74h2.54v3.69h-2.54c-.54,0-.98-.44-.98-.98v-1.72c0-.54,.44-.98,.98-.98Z" transform="translate(508.25 32.79) rotate(104.38)" style="fill:#fc7464;"/></g><path d="M268.79,190.06l2.95-11.59c.43-1.62-.62-3.26-2.27-3.55h0c-1.58-.28-3.08,.8-3.32,2.39l-1.65,12.07,4.3,.68Z" style="fill:#5254cf;"/><path d="M238.91,241.97h0c1.03,.25,2.08-.35,2.39-1.36,5.09-16.31,10.26-33.97,14.92-39.15,.93-1.04,2.32-1.53,3.7-1.36l7.64,.95c4.5,.73,7.01-8.8,2.75-10.64,0,0-9.2-7.49-18.27,8.44-4.44,6.86-7.55,15.39-9.91,24.36-.13,.51-.63,.83-1.14,.75l-4.14-.65c-.5-.08-.98,.22-1.13,.7l-3.81,12.11c-.19,.6,.21,1.23,.83,1.31l5.12,.62-.42,1.35c-.35,1.11,.32,2.29,1.46,2.56Z" style="fill:#5254cf;"/><g><path d="M268.17,194.46c.05,1.42-1.07,2.6-2.48,2.65-1.42,.05-2.6-1.07-2.65-2.48-.05-1.42,1.07-2.6,2.48-2.65,1.42-.05,2.6,1.07,2.65,2.48Z" style="fill:#d0d0fc;"/><path d="M266.81,194.51c.02,.67-.5,1.23-1.17,1.25-.67,.02-1.23-.5-1.25-1.17-.02-.67,.5-1.23,1.17-1.25s1.23,.5,1.25,1.17Z" style="fill:#fff;"/></g><g><path d="M245.41,232.16c.04,1.28-.96,2.35-2.24,2.39-1.28,.04-2.35-.96-2.39-2.24-.04-1.28,.96-2.35,2.24-2.39,1.28-.04,2.35,.96,2.39,2.24Z" style="fill:#d0d0fc;"/><path d="M244.19,232.2c.02,.6-.45,1.11-1.05,1.12-.6,.02-1.11-.45-1.12-1.05-.02-.6,.45-1.11,1.05-1.12,.6-.02,1.11,.45,1.12,1.05Z" style="fill:#fff;"/></g></g><g><path d="M82.61,202.71l-5.38,13.61,53.9,13.29,6.06-14.33c1.03-2.45-1.38-5.14-5.33-6l-41.47-9.29c-3.41-.74-6.88,.48-7.79,2.73Z" style="fill:#393a8f;"/><path d="M76.88,216.28l-31.06,23.62c-2.41,1.99-2.71,5.78,2.43,7.38l43.75,12.71c4.1,1.19,9.24,.33,11.41-1.91l27.71-28.52,.33-2.3-54.57-10.98Z" style="fill:#393a8f;"/><path d="M48.57,244.96l43.76,12.74c4.1,1.19,9.24,.33,11.41-1.9l5.62-5.79,22.09-22.74-53.51-13.13-.75-.18-30.87,25.47c-2.41,1.99-1.43,4.48,2.24,5.54Z" style="fill:#9f9ef2;"/><path d="M48.57,244.96l43.76,12.74c4.1,1.19,9.24,.33,11.41-1.9l5.62-5.79c-7.68-8.95-25.82-29.53-31.41-35.87l-.75-.18-30.87,25.47c-2.41,1.99-1.43,4.48,2.24,5.54Z" style="fill:#5254cf;"/><g><path d="M112.23,229.92l3.75,.95c1.54,.39,3.4,.09,4.16-.66l1.26-1.26c.74-.74,.1-1.65-1.42-2.03l-3.71-.92c-1.51-.37-3.34-.09-4.09,.64l-1.29,1.24c-.77,.74-.17,1.65,1.35,2.04Z" style="fill:#e9eeee;"/><path d="M101,227.08l3.65,.93c1.5,.38,3.35,.09,4.12-.65l1.3-1.24c.76-.73,.17-1.61-1.32-1.98l-3.62-.9c-1.47-.36-3.28-.08-4.06,.63l-1.32,1.21c-.79,.72-.23,1.62,1.25,1.99Z" style="fill:#e9eeee;"/><path d="M90.05,224.3l3.56,.9c1.46,.37,3.3,.09,4.09-.63l1.33-1.21c.78-.71,.23-1.58-1.22-1.94l-3.53-.88c-1.43-.36-3.23-.08-4.03,.62l-1.35,1.19c-.8,.71-.29,1.58,1.16,1.95Z" style="fill:#e9eeee;"/><path d="M79.37,221.59l3.48,.88c1.43,.36,3.24,.08,4.05-.62l1.36-1.18c.8-.7,.29-1.54-1.13-1.89l-3.45-.86c-1.4-.35-3.18-.08-3.99,.61l-1.38,1.16c-.82,.69-.35,1.55,1.06,1.9Z" style="fill:url(#f);"/><path d="M106.65,235.35l3.79,.99c1.56,.41,3.46,.1,4.24-.68l1.31-1.31c.77-.77,.14-1.71-1.4-2.11l-3.76-.96c-1.52-.39-3.39-.09-4.18,.66l-1.34,1.29c-.8,.77-.2,1.72,1.33,2.12Z" style="fill:#e9eeee;"/><path d="M95.29,232.38l3.69,.97c1.52,.4,3.4,.1,4.2-.67l1.34-1.28c.79-.75,.2-1.67-1.3-2.06l-3.66-.94c-1.49-.38-3.34-.09-4.14,.65l-1.37,1.26c-.82,.75-.27,1.68,1.23,2.07Z" style="fill:#e9eeee;"/><path d="M84.21,229.49l3.6,.94c1.48,.39,3.35,.09,4.17-.65l1.38-1.25c.81-.74,.27-1.64-1.2-2.01l-3.57-.91c-1.45-.37-3.29-.09-4.11,.64l-1.4,1.23c-.83,.73-.33,1.64,1.13,2.02Z" style="fill:#e9eeee;"/><path d="M73.41,226.67l3.51,.92c1.44,.38,3.3,.09,4.13-.64l1.4-1.23c.82-.72,.33-1.6-1.1-1.96l-3.49-.89c-1.41-.36-3.23-.08-4.07,.63l-1.43,1.2c-.85,.72-.39,1.6,1.04,1.97Z" style="fill:url(#g);"/><path d="M100.86,240.99l3.84,1.03c1.58,.42,3.52,.11,4.33-.7l1.36-1.36c.8-.8,.17-1.78-1.39-2.19l-3.8-1c-1.54-.41-3.45-.1-4.26,.68l-1.39,1.34c-.83,.8-.24,1.78,1.31,2.2Z" style="fill:#e9eeee;"/><path d="M89.36,237.89l3.74,1.01c1.54,.41,3.46,.1,4.29-.69l1.39-1.33c.82-.78,.24-1.74-1.28-2.14l-3.71-.98c-1.5-.4-3.39-.1-4.23,.67l-1.42,1.31c-.85,.78-.31,1.74,1.21,2.15Z" style="fill:#e9eeee;"/><path d="M78.16,234.87l3.64,.98c1.5,.4,3.4,.1,4.25-.67l1.43-1.3c.84-.76,.31-1.7-1.18-2.09l-3.61-.95c-1.47-.39-3.34-.09-4.19,.66l-1.45,1.28c-.86,.76-.37,1.7,1.11,2.1Z" style="fill:#e9eeee;"/><path d="M67.24,231.93l3.55,.96c1.46,.39,3.35,.1,4.22-.66l1.46-1.27c.85-.75,.37-1.66-1.08-2.04l-3.52-.93c-1.43-.38-3.29-.09-4.15,.64l-1.48,1.25c-.88,.74-.43,1.66,1.01,2.05Z" style="fill:url(#h);"/><path d="M94.85,246.83l3.88,1.08c1.6,.44,3.58,.12,4.42-.72l1.41-1.41c.83-.83,.21-1.85-1.37-2.28l-3.85-1.05c-1.56-.42-3.51-.11-4.35,.7l-1.44,1.39c-.86,.83-.29,1.85,1.29,2.29Z" style="fill:#e9eeee;"/><path d="M83.21,243.6l3.78,1.05c1.55,.43,3.52,.11,4.38-.71l1.45-1.38c.85-.81,.28-1.8-1.26-2.22l-3.75-1.02c-1.52-.41-3.45-.1-4.31,.69l-1.47,1.35c-.88,.81-.35,1.81,1.18,2.24Z" style="fill:#e9eeee;"/><path d="M71.89,240.45l3.68,1.02c1.51,.42,3.46,.11,4.34-.7l1.48-1.35c.87-.79,.35-1.76-1.15-2.17l-3.65-.99c-1.48-.4-3.39-.1-4.28,.68l-1.5,1.32c-.9,.79-.42,1.77,1.08,2.18Z" style="fill:#e9eeee;"/><path d="M53.6,242.87l4.87,1.4c1.15,.33,2.66,.09,3.38-.54l8.78-7.66c.68-.59,.32-1.32-.81-1.63l-4.78-1.3c-1.11-.3-2.57-.07-3.26,.51l-8.91,7.52c-.73,.62-.41,1.38,.72,1.7Z" style="fill:url(#i);"/><path d="M88.6,252.91l3.93,1.13c1.62,.46,3.64,.13,4.52-.75l1.47-1.47c.86-.86,.26-1.92-1.34-2.37l-3.9-1.09c-1.58-.44-3.57-.12-4.45,.73l-1.5,1.44c-.89,.86-.33,1.93,1.26,2.38Z" style="fill:#e9eeee;"/><path d="M76.83,249.53l3.83,1.1c1.57,.45,3.58,.12,4.48-.73l1.5-1.43c.88-.84,.33-1.88-1.23-2.31l-3.79-1.06c-1.54-.43-3.51-.11-4.41,.71l-1.53,1.41c-.91,.84-.4,1.88,1.15,2.33Z" style="fill:#e9eeee;"/><path d="M65.37,246.25l3.73,1.07c1.53,.44,3.52,.12,4.44-.72l1.54-1.4c.9-.82,.4-1.83-1.12-2.26l-3.69-1.03c-1.5-.42-3.45-.11-4.37,.7l-1.56,1.37c-.93,.82-.47,1.84,1.05,2.27Z" style="fill:#e9eeee;"/></g><g><path d="M112.31,229.35l3.75,.95c1.54,.39,3.4,.09,4.16-.66l1.27-1.26c.74-.74,.1-1.65-1.42-2.03l-3.71-.92c-1.51-.37-3.34-.09-4.1,.64l-1.29,1.24c-.77,.74-.17,1.65,1.35,2.04Z" style="fill:#fefffd;"/><path d="M101.08,226.5l3.65,.93c1.5,.38,3.35,.09,4.12-.65l1.3-1.24c.76-.73,.17-1.61-1.32-1.98l-3.62-.9c-1.47-.37-3.28-.08-4.06,.63l-1.32,1.21c-.79,.72-.23,1.62,1.25,1.99Z" style="fill:#fefffd;"/><path d="M90.13,223.72l3.56,.9c1.46,.37,3.3,.09,4.09-.63l1.33-1.21c.78-.71,.23-1.58-1.22-1.94l-3.53-.88c-1.43-.36-3.23-.08-4.03,.62l-1.35,1.19c-.8,.71-.29,1.58,1.16,1.95Z" style="fill:#fefffd;"/><path d="M79.45,221.01l3.48,.88c1.43,.36,3.24,.08,4.05-.62l1.36-1.18c.8-.7,.29-1.54-1.13-1.89l-3.45-.86c-1.4-.35-3.18-.08-3.99,.61l-1.38,1.16c-.82,.69-.35,1.55,1.06,1.9Z" style="fill:#fc7464;"/><path d="M106.73,234.78l3.79,.99c1.56,.41,3.46,.1,4.24-.68l1.31-1.31c.77-.77,.14-1.71-1.41-2.11l-3.76-.96c-1.52-.39-3.39-.09-4.18,.66l-1.34,1.29c-.8,.77-.2,1.72,1.34,2.12Z" style="fill:#fefffd;"/><path d="M95.37,231.8l3.7,.97c1.52,.4,3.4,.1,4.2-.67l1.34-1.28c.79-.75,.2-1.67-1.3-2.06l-3.66-.94c-1.49-.38-3.34-.09-4.14,.65l-1.37,1.26c-.82,.75-.27,1.68,1.23,2.07Z" style="fill:#fefffd;"/><path d="M84.29,228.91l3.6,.94c1.48,.39,3.35,.09,4.17-.65l1.38-1.25c.81-.74,.27-1.64-1.2-2.01l-3.57-.91c-1.45-.37-3.29-.09-4.11,.64l-1.4,1.23c-.83,.73-.33,1.64,1.13,2.02Z" style="fill:#fefffd;"/><path d="M73.49,226.08l3.51,.92c1.44,.38,3.3,.09,4.13-.64l1.4-1.23c.82-.72,.33-1.6-1.1-1.97l-3.49-.89c-1.41-.36-3.23-.08-4.07,.62l-1.43,1.2c-.85,.72-.39,1.6,1.04,1.98Z" style="fill:#fc7464;"/><path d="M100.94,240.41l3.84,1.03c1.58,.42,3.52,.11,4.33-.7l1.36-1.36c.8-.8,.17-1.78-1.39-2.19l-3.8-1c-1.54-.41-3.45-.1-4.26,.68l-1.39,1.34c-.83,.8-.24,1.78,1.31,2.2Z" style="fill:#fefffd;"/><path d="M89.44,237.31l3.74,1.01c1.54,.41,3.46,.11,4.29-.69l1.4-1.33c.82-.78,.24-1.74-1.28-2.14l-3.71-.98c-1.5-.4-3.39-.1-4.23,.67l-1.42,1.31c-.85,.78-.31,1.74,1.21,2.15Z" style="fill:#fefffd;"/><path d="M78.24,234.29l3.64,.98c1.5,.4,3.4,.1,4.25-.67l1.43-1.3c.84-.76,.31-1.7-1.18-2.09l-3.61-.95c-1.47-.39-3.34-.09-4.19,.66l-1.45,1.28c-.86,.76-.37,1.7,1.11,2.1Z" style="fill:#fefffd;"/><path d="M67.32,231.35l3.55,.96c1.46,.39,3.35,.1,4.22-.66l1.46-1.27c.85-.75,.37-1.66-1.08-2.04l-3.52-.93c-1.43-.38-3.29-.09-4.15,.64l-1.48,1.25c-.88,.74-.43,1.66,1.01,2.05Z" style="fill:#fc7464;"/><path d="M94.93,246.26l3.88,1.08c1.6,.44,3.58,.12,4.42-.72l1.41-1.41c.83-.83,.21-1.85-1.37-2.28l-3.85-1.05c-1.56-.42-3.51-.11-4.35,.7l-1.44,1.39c-.86,.83-.29,1.85,1.29,2.29Z" style="fill:#fefffd;"/><path d="M83.3,243.02l3.78,1.05c1.55,.43,3.52,.11,4.38-.71l1.45-1.38c.85-.81,.28-1.81-1.26-2.22l-3.75-1.02c-1.52-.41-3.45-.11-4.31,.69l-1.47,1.35c-.88,.81-.35,1.81,1.18,2.24Z" style="fill:#fefffd;"/><path d="M71.97,239.87l3.68,1.02c1.51,.42,3.46,.11,4.34-.69l1.48-1.35c.87-.79,.35-1.76-1.15-2.17l-3.65-.99c-1.48-.4-3.39-.1-4.28,.68l-1.5,1.32c-.9,.79-.42,1.77,1.08,2.18Z" style="fill:#fefffd;"/><path d="M53.68,242.28l4.87,1.4c1.15,.33,2.66,.09,3.38-.54l8.78-7.66c.68-.59,.32-1.32-.81-1.63l-4.78-1.3c-1.11-.3-2.57-.07-3.26,.51l-8.91,7.52c-.73,.62-.41,1.38,.72,1.7Z" style="fill:#fc7464;"/><path d="M88.68,252.33l3.93,1.13c1.62,.46,3.64,.13,4.52-.75l1.47-1.47c.86-.86,.26-1.92-1.34-2.37l-3.9-1.09c-1.58-.44-3.57-.12-4.45,.73l-1.5,1.44c-.89,.86-.33,1.93,1.26,2.39Z" style="fill:#fefffd;"/><path d="M76.91,248.95l3.83,1.1c1.57,.45,3.58,.12,4.48-.73l1.5-1.43c.88-.84,.33-1.88-1.23-2.31l-3.79-1.06c-1.54-.43-3.51-.11-4.41,.71l-1.53,1.41c-.91,.84-.4,1.88,1.15,2.33Z" style="fill:#fefffd;"/><path d="M65.45,245.66l3.73,1.07c1.53,.44,3.52,.12,4.44-.72l1.54-1.4c.9-.82,.4-1.83-1.12-2.26l-3.69-1.04c-1.5-.42-3.45-.11-4.37,.7l-1.56,1.37c-.93,.82-.47,1.84,1.05,2.27Z" style="fill:#fefffd;"/></g><path d="M81.82,202.65l-4.58,11.34,54.21,13.28,4.9-12.31c1.03-2.45-1.38-5.14-5.33-6l-41.41-9.04c-3.41-.74-6.88,.48-7.79,2.73Z" style="fill:#9f9ef2;"/><g><path d="M89.28,202.06l39.79,9.18c2.31,.53,3.69,2.25,3.07,3.83l-2.57,6.52c-.62,1.57-2.99,2.38-5.27,1.8l-39.37-9.91c-1.99-.5-3.15-2.09-2.59-3.55l2.31-6.05c.56-1.46,2.63-2.28,4.65-1.81Z" style="fill:#393a8f;"/><path d="M85.93,212.79l4.36,1.05,9.5,2.3,5.11,1.23,17.05,4.12,1.89,.46c.27,.06,.54,.11,.8,.14,1.86,.2,3.6-.45,4.09-1.62l.69-1.65,1.53-3.66c.56-1.34-.74-2.82-2.9-3.3l-4.49-1-9.98-2.23-2.74-.61-14.02-3.13-6.51-1.46-.53-.12c-1.89-.42-3.83,.24-4.33,1.49l-.89,2.18-1.12,2.77c-.5,1.24,.6,2.61,2.48,3.07Z" style="fill:url(#j);"/></g><g><path d="M96.83,204.86l8.06,12.51,17.05,4.12c-3.23-3.95-7.28-8.87-11.09-13.49l-14.02-3.13Z" style="fill:url(#k); mix-blend-mode:screen;"/><path d="M113.59,208.61c3.75,4.58,7.75,9.45,11.05,13.47,1.86,.2,3.6-.45,4.09-1.62l.69-1.65-5.85-7.97-9.98-2.23Z" style="fill:url(#l); mix-blend-mode:screen;"/><path d="M84.57,206.96c1.89,2.28,3.84,4.62,5.71,6.88l9.5,2.3-9.47-12.74-.53-.12c-1.89-.42-3.83,.24-4.33,1.49l-.89,2.18Z" style="fill:url(#m); mix-blend-mode:screen;"/></g></g></g></g></g></svg>