<?xml version="1.0" encoding="UTF-8"?><svg xmlns="http://www.w3.org/2000/svg" xmlns:xlink="http://www.w3.org/1999/xlink" viewBox="0 0 300 300"><defs><linearGradient id="b" x1="242.35" y1="129.35" x2="256" y2="125.62" gradientTransform="translate(26.5 -32.13) rotate(12.57)" gradientUnits="userSpaceOnUse"><stop offset=".02" stop-color="#999"/><stop offset=".28" stop-color="#bdbebd"/><stop offset=".58" stop-color="#e0e1df"/><stop offset=".83" stop-color="#f6f7f5"/><stop offset=".99" stop-color="#fefffd"/></linearGradient><linearGradient id="c" x1="230.05" y1="118.92" x2="239.25" y2="113.27" gradientTransform="translate(26.5 -32.13) rotate(12.57)" gradientUnits="userSpaceOnUse"><stop offset="0" stop-color="#e4e4e4"/><stop offset=".58" stop-color="#f6f7f5"/><stop offset=".99" stop-color="#fefffd"/></linearGradient><linearGradient id="d" x1="240.44" y1="115.56" x2="253.61" y2="115.56" xlink:href="#c"/><radialGradient id="e" cx="234.5" cy="106.49" fx="234.5" fy="106.49" r="3.92" gradientTransform="translate(26.5 -44.25) rotate(13.07) scale(1 1.04) skewX(1.02)" gradientUnits="userSpaceOnUse"><stop offset="0" stop-color="#fefffd"/><stop offset="1" stop-color="#b3b3b3"/></radialGradient><linearGradient id="f" x1="241.67" y1="190.25" x2="246.7" y2="188.91" gradientTransform="translate(26.5 -32.13) rotate(12.57)" gradientUnits="userSpaceOnUse"><stop offset=".02" stop-color="#999"/><stop offset=".04" stop-color="#a1a2a1"/><stop offset=".12" stop-color="#bebebd"/><stop offset=".22" stop-color="#d5d6d5"/><stop offset=".33" stop-color="#e7e8e7"/><stop offset=".46" stop-color="#f4f5f3"/><stop offset=".63" stop-color="#fbfcfa"/><stop offset=".99" stop-color="#fefffd"/></linearGradient><linearGradient id="g" x1="262.67" y1="185.14" x2="267.71" y2="183.8" xlink:href="#f"/><linearGradient id="h" x1="225.68" y1="120.89" x2="233.99" y2="118.62" xlink:href="#b"/><linearGradient id="i" x1="239.11" y1="120.23" x2="243.54" y2="119.01" xlink:href="#b"/><linearGradient id="j" x1="229.19" y1="131.48" x2="235.72" y2="131.48" xlink:href="#b"/><linearGradient id="s" x1="168.41" y1="198.28" x2="203.67" y2="198.28" gradientUnits="userSpaceOnUse"><stop offset="0" stop-color="#1d5598"/><stop offset=".24" stop-color="#1c579a"/><stop offset=".41" stop-color="#1a61a2"/><stop offset=".56" stop-color="#1671af"/><stop offset=".71" stop-color="#1188c2"/><stop offset=".84" stop-color="#0aa5da"/><stop offset=".97" stop-color="#02c8f7"/><stop offset="1" stop-color="#00d2ff"/></linearGradient></defs><g style="isolation:isolate;"><g id="a"><g><g><path d="M31.67,74.36c-1.69-1.67-3.06-3.63-4.66-5.39-.15-.17-.31-.34-.46-.51-.13-.15-.24-.29-.3-.37-.05-.07-.09-.15-.14-.23l-.04-.07c.03,.1,.04,.1,0,0l-.02-.07c.01,.13,.01,.14,.01,.03-.02,.13-.02,.14,0,.04-.05,.11-.04,.12,0,.02l-.04,.06c.07-.07,.09-.08,.03-.04,.1-.05,.19-.13,.29-.18,.19-.1,.39-.18,.59-.25,.43-.16,.87-.31,1.32-.41,.18-.04,.36-.08,.55-.1-.18,.03,.09,0,.11,0,.08,0,.16-.01,.24-.02,.15,0,.3,0,.46,0,.07,0,.14,0,.21,.01,.26,.02-.04-.02,.1,.01,.12,.03,.24,.05,.36,.09,.05,.02,.11,.04,.16,.06,.18,.05-.16-.1,0,0,.09,.05,.18,.11,.27,.15,.06,.03,.17,.15-.02-.03,.05,.04,.09,.08,.14,.13,.03,.03,.06,.07,.09,.1,.12,.1-.1-.19-.03-.04,.03,.07,.08,.16,.13,.23-.15-.23-.03-.06,0,.06,.01,.04,.01,.08,.02,.12-.07-.28,0-.13-.02-.03,0,.04,0,.09,0,.13,.02,.16,.06-.22,0-.07-.03,.07-.05,.18-.07,.26-.02,.16,.11-.19,.02-.05-.02,.04-.04,.09-.06,.13-.02,.04-.05,.08-.07,.12-.11,.2,.1-.08,0,.01-.09,.08-.17,.18-.25,.26-.04,.04-.19,.15,.01,0-.06,.04-.12,.09-.19,.13-.12,.08-.25,.14-.37,.21-.18,.11,.18-.06-.02,.01-.08,.03-.17,.06-.25,.09-.16,.05-.32,.1-.49,.13-.07,.02-.15,.03-.23,.04,.21-.04-.13,.01-.16,.02-.42,.04-.85,.03-1.27-.01-.48-.04-.88,.45-.88,.92,0,.53,.41,.88,.88,.92,1.49,.13,3.22-.11,4.32-1.27,.82-.86,1.14-2.23,.45-3.28-.85-1.3-2.48-1.51-3.86-1.32-1.07,.15-2.18,.48-3.14,1.01-1.05,.58-1.42,1.73-.77,2.8,.32,.52,.74,.97,1.15,1.41,.49,.54,.95,1.11,1.41,1.68,1.02,1.27,2.05,2.53,3.21,3.67,.82,.81,2.07-.48,1.25-1.3h0Z" style="fill:#394547;"/><path d="M34.53,67.29c1.12,1.11,2.7,1.62,4.09,2.25,1.7,.77,3.2,1.92,4.89,2.72,.6,.29,1.31-.05,1.33-.79,.03-1.23-.55-2.35-1.14-3.38-.5-.87-1.25-1.91-1.31-2.9-.03-.5-.38-.92-.88-.92-.45,0-.91,.42-.88,.92,.08,1.24,.68,2.32,1.29,3.36,.51,.88,1.2,1.89,1.17,2.91l1.33-.79c-1.65-.78-3.11-1.91-4.77-2.66-.73-.33-1.46-.64-2.18-.98-.59-.28-1.25-.62-1.67-1.03-.82-.81-2.07,.48-1.25,1.3h0Z" style="fill:#394547;"/><path d="M47.69,67.1c1-.19,1.96-.53,2.93-.83,.48-.15,.96-.28,1.45-.39,.13-.03,.25-.05,.38-.07,.08-.01,.1-.01,0,0,.05,0,.11-.01,.16-.02,.23-.02,.45-.03,.68-.01,.46,.03,.9-.44,.88-.92-.02-.52-.39-.89-.88-.92-1.03-.07-2.08,.23-3.06,.53s-1.99,.66-3.02,.86c-.47,.09-.73,.68-.62,1.13,.14,.51,.61,.73,1.09,.64h0Z" style="fill:#394547;"/><path d="M51.43,66.36c-.39,.14-.78,.37-.89,.81-.1,.38-.01,.81,.27,1.1,.32,.32,.73,.3,1.14,.28,.28-.01,.55-.04,.82-.08,1.1-.15,2.18-.44,3.27-.67,.45-.09,.76-.68,.62-1.13-.16-.5-.6-.74-1.09-.64-.7,.14-1.39,.32-2.09,.47-.18,.04-.35,.07-.53,.1-.08,.01-.16,.03-.25,.04-.11,.02-.11,.02-.01,0-.04,0-.08,.01-.12,.02-.37,.04-.74,.07-1.11,.06l.62,.27c.28,.35,.24,.72-.14,1.12-.12,.05-.13,.05-.03,.01,.44-.16,.77-.64,.62-1.13-.14-.45-.62-.81-1.09-.64h0Z" style="fill:#394547;"/><path d="M58.97,55.68c2.07,1.85,4.26,3.56,6.44,5.28,.53,.42,1.36-.14,1.33-.79-.05-.81-.46-1.59-.71-2.34-.15-.46-.72-1.82-.25-2.22,.73-.62,2.09,.63,2.55,1.08,.77,.74,1.58,1.62,2.04,2.61l1.52-.93c-.5-.74-.99-1.49-1.37-2.3-.17-.37-.36-.81-.38-1.23,0-.15-.03-.36,.07-.48,.17-.21,.08-.09,.3-.02,1.18,.35,2.42,1.28,3.38,2.06,.89,.74,1.7,1.59,2.47,2.46s2.02-.43,1.25-1.3c-1.06-1.2-2.18-2.31-3.46-3.24-.72-.52-1.49-.98-2.29-1.37s-1.54-.84-2.38-.32c-2.48,1.53-.23,5.02,.89,6.67,.65,.97,2.03,.14,1.52-.93-.59-1.27-1.69-2.46-2.72-3.35-1.13-.98-2.69-1.84-4.15-1.07-1.21,.63-1.27,2.05-1.01,3.27,.13,.6,.34,1.18,.55,1.76,.09,.26,.19,.51,.28,.77,.04,.12,.14,.64,.13,.41l1.33-.79c-2.06-1.62-4.12-3.24-6.08-4.99-.86-.77-2.11,.53-1.25,1.3h0Z" style="fill:#394547;"/><path d="M64.93,64.65c6.29-1.37,12.45-3.36,18.76-4.64,1.11-.23,.64-2-.47-1.77-6.31,1.29-12.47,3.27-18.76,4.64-1.11,.24-.64,2.01,.47,1.77h0Z" style="fill:#394547;"/><path d="M78.33,74.01c-.71-.65-1.01-1.47-1.47-2.3s-1.1-1.52-1.75-2.18c-1.21-1.22-2.95-2.45-3.62-4.12l-1.09,1.13c3.71,.75,6.68,3.54,10.34,4.53,.67,.18,1.49-.68,1-1.35-.69-.93-1.32-1.93-1.81-3-.27-.59-.97-2.11-.27-2.65h-.89c3,2.15,4.85,5.58,7.99,7.58,.97,.62,1.86-.97,.89-1.59-3.12-1.99-4.98-5.43-7.99-7.58-.23-.17-.66-.18-.89,0-2.67,2.07-.03,6.17,1.45,8.16l1-1.35c-3.66-.99-6.61-3.78-10.34-4.53-.58-.12-1.37,.42-1.09,1.13,.75,1.89,2.31,3.2,3.7,4.57,.7,.69,1.43,1.39,1.9,2.28,.5,.94,.9,1.84,1.69,2.57,.85,.78,2.1-.51,1.25-1.3h0Z" style="fill:#394547;"/><path d="M85.83,55.92c1.65,1.09,2.85,2.74,4.07,4.29s2.68,3.17,4.53,4.08c.43,.21,.95,.12,1.21-.33,.22-.4,.12-1.04-.32-1.26-1.8-.88-3.09-2.41-4.32-3.98s-2.55-3.25-4.28-4.38c-.96-.63-1.85,.96-.89,1.59h0Z" style="fill:#394547;"/><path d="M87.77,56.1c1.08-.37,2.15-.86,3.29-1.01,.54-.07,1.09-.06,1.61,.1,.28,.09,.52,.23,.76,.39-.05-.04,.11,.11,.12,.12-.04-.01-.03-.05-.03-.05,.01,.16-.03-.33,0-.17,0,.01,.09-.1-.02,.03-.02,.03,.07-.07-.05,.06-.07,.07-.14,.14-.22,.21-.17,.14-.65,.43-.96,.6-.73,.41-1.54,.74-2.21,1.26-.54,.42-.62,1.52,.21,1.68,1.26,.25,2.53,.38,3.79,.6,1.08,.19,2.31,.37,3.21,1.06,.39,.29,.98,.07,1.21-.33,.26-.46,.07-.96-.32-1.26-.99-.75-2.31-1-3.49-1.22-1.31-.24-2.63-.37-3.93-.63l.21,1.68c.81-.64,1.82-1,2.69-1.54s1.92-1.39,1.56-2.58c-.45-1.45-2.45-1.93-3.71-1.88-1.47,.06-2.82,.64-4.2,1.11-1.07,.37-.61,2.14,.47,1.77h0Z" style="fill:#394547;"/><path d="M95.94,53.42c2.04-.43,4.03-1.07,6.09-1.4,.47-.08,.73-.69,.62-1.13-.14-.52-.61-.72-1.09-.64-2.06,.33-4.05,.97-6.09,1.4-.47,.1-.74,.68-.62,1.13,.13,.51,.62,.74,1.09,.64h0Z" style="fill:#394547;"/><path d="M98.33,52.87c2.29,2.45,4.98,4.46,7.27,6.92,.79,.85,2.04-.45,1.25-1.3-2.29-2.46-4.98-4.47-7.27-6.92-.79-.85-2.04,.45-1.25,1.3h0Z" style="fill:#394547;"/></g><g><path d="M52.55,110.78c-1.65-1.63-2.98-3.54-4.54-5.26-.29-.32-.61-.63-.86-.98-.07-.1-.14-.2-.19-.31,.04,.08-.08-.07-.02-.03,0,.06,0,.04,0-.06,0,.03,0,.06,0,.09,.03,0-.04,.05,0,.04,.03-.02,.21-.14,.25-.16,.17-.1,.36-.17,.54-.24,.44-.17,.9-.32,1.36-.43,.3-.07,.58-.12,.87-.14,.15-.01,.31-.01,.46-.01,.07,0,.45,.04,.32,.02,.23,.04,.47,.1,.69,.19-.19-.08,.08,.06,.13,.09,.04,.02,.07,.05,.11,.07,.06,.04-.13-.12,.02,.02,.05,.05,.21,.27,.08,.06,.05,.07,.09,.15,.13,.22-.04-.08-.08-.07,.01,.07,.01,.02,.02,.09,.02,.11-.06-.25,0-.1-.01-.02,0,.12-.02,.23,.01,.04-.02,.1-.04,.19-.07,.28-.03,.12,.09-.12-.03,.06-.04,.06-.21,.31-.07,.14-.3,.39-.64,.59-1.08,.73-.71,.24-1.38,.25-2.15,.18-1.03-.09-1.14,1.5-.23,1.8,2.64,.9,5.28,1.81,7.93,2.71l1.13,.39c1.08,.37,1.54-1.4,.47-1.77-2.64-.9-5.28-1.81-7.93-2.71l-1.13-.39-.23,1.8c1.5,.13,3.25-.11,4.35-1.3,.81-.88,1.1-2.23,.41-3.28-.86-1.32-2.55-1.48-3.94-1.28-1.69,.25-5.22,1.28-3.85,3.73,.3,.54,.75,1,1.17,1.45,.46,.51,.9,1.04,1.33,1.57,1.06,1.31,2.12,2.62,3.31,3.8,.82,.81,2.07-.48,1.25-1.3h0Z" style="fill:#394547;"/><path d="M56.96,101.54c.73,1.42,2.13,2.44,3.26,3.49,1.37,1.28,2.44,2.85,3.8,4.14,.83,.8,2.09-.5,1.25-1.3-1.33-1.27-2.37-2.81-3.72-4.07-.6-.56-1.21-1.09-1.8-1.66-.27-.26-.54-.53-.78-.82-.05-.06-.1-.12-.15-.18-.18-.23,.08,.13-.08-.1-.09-.13-.18-.27-.25-.42-.22-.44-.81-.57-1.21-.33-.42,.26-.54,.82-.32,1.26h0Z" style="fill:#394547;"/><path d="M68.57,103.53c1-.19,1.96-.53,2.93-.83,.48-.15,.96-.28,1.45-.39,.13-.03,.25-.05,.38-.07,.08-.01,.1-.01,0,0,.05,0,.11-.01,.16-.02,.23-.02,.45-.03,.68-.01,.46,.03,.9-.44,.88-.92-.02-.52-.39-.89-.88-.92-1.03-.07-2.08,.23-3.06,.53s-1.99,.66-3.02,.86c-.47,.09-.73,.68-.62,1.13,.14,.51,.61,.73,1.09,.64h0Z" style="fill:#394547;"/><path d="M72.32,104.99c1.56,.02,3.07-.44,4.59-.75,.45-.09,.76-.68,.62-1.13-.16-.5-.6-.74-1.09-.64-.7,.14-1.39,.32-2.09,.47-.18,.04-.35,.07-.53,.1-.08,.01-.16,.03-.25,.04-.11,.02-.11,.02-.01,0-.04,0-.08,.01-.12,.02-.37,.04-.74,.07-1.11,.06-.46,0-.9,.43-.88,.92s.39,.91,.88,.92h0Z" style="fill:#394547;"/><path d="M79.85,92.11c2.07,1.85,4.26,3.56,6.44,5.28,.53,.42,1.36-.14,1.33-.79-.05-.81-.46-1.59-.71-2.34-.15-.46-.72-1.82-.25-2.22,.73-.62,2.09,.63,2.55,1.08,.77,.74,1.58,1.62,2.04,2.61l1.52-.93c-.5-.74-.99-1.49-1.37-2.3-.17-.37-.36-.81-.38-1.23,0-.15-.03-.36,.07-.48,.17-.21,.08-.09,.3-.02,1.18,.35,2.42,1.28,3.38,2.06,.89,.74,1.7,1.59,2.47,2.46s2.02-.43,1.25-1.3c-1.06-1.2-2.18-2.31-3.46-3.24-.72-.52-1.49-.98-2.29-1.37s-1.54-.84-2.38-.32c-2.48,1.53-.23,5.02,.89,6.67,.65,.97,2.03,.14,1.52-.93-.59-1.27-1.69-2.46-2.72-3.35-1.13-.98-2.69-1.84-4.15-1.07-1.21,.63-1.27,2.05-1.01,3.27,.13,.6,.34,1.18,.55,1.76,.09,.26,.19,.51,.28,.77,.04,.12,.14,.64,.13,.41l1.33-.79c-2.06-1.62-4.12-3.24-6.08-4.99-.86-.77-2.11,.53-1.25,1.3h0Z" style="fill:#394547;"/><path d="M85.81,101.08c6.29-1.37,12.45-3.36,18.76-4.64,1.11-.23,.64-2-.47-1.77-6.31,1.29-12.47,3.27-18.76,4.64-1.11,.24-.64,2.01,.47,1.77h0Z" style="fill:#394547;"/><path d="M99.21,110.44c-.71-.65-1.01-1.47-1.47-2.3s-1.1-1.52-1.75-2.18c-1.21-1.22-2.95-2.45-3.62-4.12l-1.09,1.13c3.71,.75,6.68,3.54,10.34,4.53,.67,.18,1.49-.68,1-1.35-.69-.93-1.32-1.93-1.81-3-.27-.59-.97-2.11-.27-2.65h-.89c3,2.15,4.85,5.58,7.99,7.58,.97,.62,1.86-.97,.89-1.59-3.12-1.99-4.98-5.43-7.99-7.58-.23-.17-.66-.18-.89,0-2.67,2.07-.03,6.17,1.45,8.16l1-1.35c-3.66-.99-6.61-3.78-10.34-4.53-.58-.12-1.37,.42-1.09,1.13,.75,1.89,2.31,3.2,3.71,4.57,.7,.69,1.43,1.39,1.9,2.28,.5,.94,.9,1.84,1.69,2.57,.85,.78,2.1-.51,1.25-1.3h0Z" style="fill:#394547;"/></g><g><path d="M173.9,55.61c-2.28-.56-6.26-1.18-7.02,2.06-.6,2.57,2.96,3.4,4.64,3.85,2.28,.61,4.61,1.14,6.82,2.02,.89,.35,2.04,.81,2.63,1.63,.37,.52,.29,.98-.15,1.35-.79,.67-2.03,.8-3.01,.81-1.28,.02-2.59-.23-3.73-.86-1-.56-1.89,1.03-.89,1.59,2.04,1.14,4.64,1.44,6.87,.81,1.85-.52,3.61-2.16,2.6-4.3-.97-2.06-3.82-2.86-5.75-3.46-2.34-.72-4.83-1.12-7.1-2.04-.84-.34-1.67-.73-.89-1.55,1.04-1.1,3.27-.43,4.49-.13,1.1,.27,1.58-1.5,.47-1.77h0Z" style="fill:#394547;"/><path d="M179,56.69c1.41,1.96,3.01,3.79,4.72,5.47,1.9,1.87,3.97,3.65,6.3,4.89,1.01,.54,1.9-1.05,.89-1.59-2.21-1.18-4.15-2.84-5.95-4.61-1.6-1.58-3.12-3.27-4.44-5.1-.29-.4-.76-.6-1.21-.33-.38,.23-.6,.86-.32,1.26h0Z" style="fill:#394547;"/><path d="M188.29,58.86c1.95,2.55,3.71,5.27,6.2,7.3,.72,.58,2-.17,1.39-1.11-1.03-1.59-2.27-3.06-3.11-4.77-.31-.62-.58-1.36-.48-2.07,.11-.8,.7-1.43,1.29-1.89l-.68,.09c2.13,.59,3.86,2.26,5.33,3.89,1.39,1.54,2.6,3.23,3.86,4.88,.71,.92,1.95-.38,1.25-1.3-2.08-2.72-4.07-5.56-6.81-7.61-.68-.51-1.41-.95-2.19-1.28-.35-.15-.82-.38-1.21-.38-.5,0-.99,.54-1.32,.88-1.24,1.29-1.59,3.02-.99,4.73,.76,2.15,2.32,3.9,3.53,5.77l1.39-1.11c-2.5-2.03-4.25-4.75-6.2-7.3-.71-.92-1.95,.38-1.25,1.3h0Z" style="fill:#394547;"/><path d="M205.84,63.34c-.99-3.64-3.64-6.43-5.34-9.69l-1,1.35c2.44,.36,4.7,1.87,6.73,3.23,2.03,1.36,3.96,2.88,5.91,4.37,.91,.7,1.8-.89,.89-1.59-1.99-1.53-3.97-3.08-6.06-4.48s-4.49-2.95-7-3.32c-.74-.11-1.39,.59-1,1.35,1.62,3.1,4.22,5.8,5.16,9.25,.31,1.14,2.01,.65,1.7-.49h0Z" style="fill:#394547;"/><path d="M205.75,60.1c-.63,.13-1.25,.25-1.88,.38-.45,.09-.75,.68-.62,1.13,.16,.52,.59,.72,1.09,.64,.8-.12,1.6-.29,2.37-.53,.68-.21,1.39-.46,1.99-.88,.38-.27,.59-.82,.32-1.26-.25-.4-.8-.61-1.21-.33-.11,.08-.22,.15-.34,.21-.07,.04-.15,.08-.22,.11-.03,.02-.07,.03-.1,.05-.11,.05,.16-.07,.05-.02-.33,.14-.67,.26-1.02,.36-.75,.23-1.53,.39-2.3,.51l.47,1.77c.63-.13,1.25-.25,1.88-.38,.45-.09,.75-.68,.62-1.13-.16-.5-.6-.74-1.09-.64h0Z" style="fill:#394547;"/><path d="M181.97,46.86c-.05-.08-.1-.17-.15-.26,.09,.16-.12-.14,0,.06-.02-.03,.02-.29-.01-.06,.02-.12-.07,.02,.02-.06,0,0,.15-.16,.13-.15,.11-.09,.29-.18,.34-.2,.78-.34,1.7-.31,2.5-.04,1.02,.34,1.78,1.18,2.01,2.28,.28,1.32-.18,2.72-.6,3.96-.19,.57,.31,1.16,.85,1.16,2.15,0,4.21-.61,6.3-1.04,1.11-.23,.64-2-.47-1.77-1.94,.4-3.84,.98-5.83,.97l.85,1.16c.58-1.72,1.07-3.67,.45-5.46-.56-1.6-1.88-2.76-3.47-3.14-1.22-.29-2.67-.22-3.75,.48s-1.42,1.95-.71,3.04c.64,.97,2.17,.05,1.52-.93h0Z" style="fill:#394547;"/><path d="M215.45,56.19c2.39-.48,4.79-.96,7.18-1.45,.47-.09,.74-.68,.62-1.13-.13-.51-.62-.74-1.09-.64-2.39,.48-4.79,.96-7.18,1.45-.47,.09-.74,.68-.62,1.13,.13,.51,.62,.74,1.09,.64h0Z" style="fill:#394547;"/><path d="M215.52,52.42c2.17,2.62,4.3,5.28,6.62,7.75,.8,.85,2.04-.45,1.25-1.3-2.33-2.47-4.45-5.13-6.62-7.75-.31-.38-.93-.33-1.25,0-.36,.37-.31,.92,0,1.3h0Z" style="fill:#394547;"/><path d="M214.69,79.03c-1.59-2.07-5.17-3.59-7.52-1.99-1.9,1.3-1.27,3.91-.41,5.67,.74,1.51,2.05,2.64,3.33,3.66,1.62,1.29,3.44,2.45,5.4,3.08,1.84,.59,4.02,.55,5.1-1.38,.57-1.02-.95-1.95-1.52-.93-.27,.48-.55,.68-1.1,.8-.43,.09-1.11,0-1.67-.16-1.58-.44-3.04-1.33-4.37-2.28-1.15-.82-2.3-1.76-3.17-2.9,.11,.14-.09-.13-.12-.18-.06-.1-.12-.21-.18-.31-.19-.35-.36-.71-.49-1.09-.22-.63-.45-1.45-.17-2.05,.35-.77,1.71-.78,2.45-.63,1.25,.25,2.4,.97,3.2,2,.3,.39,.93,.32,1.25,0,.37-.38,.3-.91,0-1.3h0Z" style="fill:#394547;"/><path d="M221.71,77.96c-.47,2.04-.24,4.36,.65,6.24,1.31,2.78,4.2,3.8,7.03,3.51,1.02-.1,2.23-.31,2.97-1.14,.66-.74,.64-1.73,.26-2.6s-1.04-1.58-1.7-2.19c-.81-.75-1.71-1.41-2.65-1.98s-2.03-1.13-3.13-1.43c-.92-.26-1.9-.35-2.68,.29-.38,.3-.31,.98,0,1.3,.37,.39,.87,.31,1.25,0-.26,.21-.11,.09-.03,.05s-.23,.1-.03,.02c.14-.06,.19,.03-.03,0,.06,.01,.16-.01,.23-.01s.14,0,.21,0c.08,0,.33,.06,.03,0,.16,.04,.33,.06,.49,.1,.39,.1,.78,.25,1.15,.4,.15,.06-.01,0-.04-.02,.06,.03,.12,.05,.18,.08,.1,.05,.2,.09,.3,.14,.2,.1,.41,.21,.61,.32,.43,.24,.86,.5,1.27,.77,.2,.13,.39,.27,.58,.41,.1,.07,.19,.14,.28,.21,.04,.03,.07,.06,.11,.09,.04,.03,.07,.06,.11,.09-.08-.06-.09-.08-.04-.03,.35,.29,.69,.59,1.01,.92,.14,.15,.28,.3,.41,.45,.06,.07,.12,.15,.18,.23,.03,.04,.09,.14-.04-.05,.04,.05,.07,.1,.11,.16,.09,.13,.17,.27,.25,.42,.04,.07,.07,.14,.1,.21-.14-.28-.01-.01,.01,.07,.01,.05,.02,.16,.04,.2-.11-.17,0-.2-.01-.01-.03,.23,.05-.1,.01-.02-.02,.04-.09,.29-.02,.1s-.01,.05-.05,.07c-.14,.09,.17-.14,0-.01-.05,.04-.1,.1-.15,.15,.21-.21-.01,0-.09,.04-.05,.03-.33,.15-.08,.05-.09,.04-.18,.07-.28,.1-.23,.08-.47,.13-.71,.17-.06,.01-.13,.02-.19,.03,.17-.03-.01,0-.06,0-.14,.01-.29,.03-.43,.04-.41,.03-.82,.04-1.23,.01-.57-.04-1.12-.15-1.74-.39-.04-.01-.2-.09-.06-.02-.06-.03-.12-.06-.19-.09-.11-.06-.21-.11-.32-.18-.11-.07-.22-.14-.33-.22-.02-.01-.22-.17-.07-.05-.06-.05-.12-.1-.17-.15-.18-.17-.35-.35-.51-.54-.03-.04-.06-.08-.09-.12,.13,.17-.02-.03-.04-.05-.07-.11-.15-.22-.22-.34-.14-.24-.26-.49-.37-.75,.08,.19-.07-.19-.09-.26-.04-.13-.08-.25-.12-.38-.07-.26-.14-.53-.18-.8-.02-.14-.05-.28-.07-.42,.03,.26-.01-.14-.02-.2-.04-.49-.05-.99-.02-1.48,0-.11,.01-.21,.02-.32,0-.06,.01-.11,.02-.17,.01-.18-.04,.21,0,.03s.06-.38,.1-.57c.26-1.15-1.44-1.64-1.7-.49h0Z" style="fill:#394547;"/><path d="M234.95,76.31c-.92-.26-1.93-.16-2.86,0s-1.95,.41-2.61,1.09-.65,1.7,.02,2.36,1.64,.89,2.49,1.06c1.87,.37,3.78,.45,5.65,.85,1.06,.22,2.13,.47,3.16,.85,.38,.14,.78,.31,1.1,.57,.05,.04,.15,.17,.15,.17-.14,0,.07-.28,.06-.33,.04,.14-.62,.37-.81,.43-.48,.15-.97,.25-1.47,.3-.96,.11-2.03,.17-2.95-.09-1.1-.31-1.57,1.46-.47,1.77,1.72,.49,3.98,.32,5.65-.31,.78-.3,1.65-.82,1.71-1.78s-.67-1.61-1.4-2.01c-1.7-.93-3.78-1.32-5.66-1.62-1.03-.17-2.08-.25-3.12-.39-.86-.12-1.88-.22-2.65-.64-.06-.03-.11-.07-.17-.1-.12-.07-.03-.07-.05-.04-.04,.07,.05-.27,0,0,0,0-.03,.3-.04,.28,.01,.03,.08-.05,.01-.02,.09-.03,.18-.13,.27-.17,.19-.11,.4-.18,.61-.24,.89-.27,2.04-.46,2.9-.22,1.1,.31,1.56-1.46,.47-1.77h0Z" style="fill:#394547;"/><path d="M247.95,82.59c-.38-.84-.45-1.78-.56-2.68s-.29-1.81-.64-2.69c-.59-1.49-1.68-3.03-1.71-4.69l-1.33,.79c4.33,2.57,8.61,5.22,12.77,8.08,.95,.65,1.83-.94,.89-1.59-4.16-2.86-8.45-5.51-12.77-8.08-.57-.34-1.34,.09-1.33,.79,.04,1.9,1.09,3.52,1.79,5.21,.77,1.86,.54,3.93,1.36,5.77,.48,1.07,2,.14,1.52-.93h0Z" style="fill:#394547;"/><path d="M248.3,80.84c.06-.04,.12-.07,.19-.1,.11-.06-.06,.04-.08,.03,.02,0,.1-.04,.12-.05,.17-.07,.34-.12,.52-.17,.43-.13,.87-.23,1.31-.33,.92-.2,1.84-.36,2.75-.54,.45-.09,.76-.68,.62-1.13-.16-.5-.6-.74-1.09-.64-.94,.19-1.89,.35-2.83,.56-.8,.18-1.67,.35-2.4,.78-.4,.24-.57,.84-.32,1.26s.78,.58,1.21,.33h0Z" style="fill:#394547;"/><path d="M226.43,66.36s-.15-.38-.08-.19c-.02-.04,0-.31-.02-.05,0-.04,.02-.06,0-.03,.06-.04,.09-.08,.23-.11,.28-.07,.17-.06,.46-.07,.81-.03,1.7,.24,2.38,.8,2.12,1.74-.87,4.18-1.58,5.94-.21,.52,.32,1.22,.85,1.16,2.9-.32,5.85-.48,8.69-1.22,1.1-.29,.63-2.06-.47-1.77-2.69,.71-5.47,.86-8.22,1.16l.85,1.16c.47-1.17,1.49-2.04,2.01-3.2,.56-1.25,.58-2.62-.22-3.76-1.11-1.6-3.57-2.62-5.42-1.9-1.04,.41-1.57,1.47-1.17,2.58s2.1,.62,1.7-.49h0Z" style="fill:#394547;"/><path d="M257.42,74.51c1.63-.33,3.26-.66,4.88-.98,.45-.09,.75-.68,.62-1.13-.16-.5-.6-.74-1.09-.64-1.63,.33-3.26,.66-4.88,.98-.45,.09-.75,.68-.62,1.13,.16,.5,.6,.74,1.09,.64h0Z" style="fill:#394547;"/><path d="M258.39,76.37c.85,.37,1.84,.24,2.73,.11,.45-.07,.89-.16,1.34-.23,.12-.02,.24-.04,.37-.06,.05,0,.11-.02,.16-.02-.09,.01-.07,0,0,0,.23-.03,.47-.05,.7-.06,.46-.02,.9-.41,.88-.92-.02-.48-.39-.94-.88-.92-.95,.04-1.87,.26-2.81,.41-.11,.02-.21,.03-.32,.05,.09-.01,.08-.01,0,0-.05,0-.1,.01-.16,.02-.2,.02-.4,.04-.6,.04-.1,0-.19,0-.29,0-.06,0-.12-.01-.17-.01-.12,0,.15,.04,.03,0-.18-.05-.35-.08-.53-.16-.43-.19-.99,.2-1.09,.64-.12,.54,.16,.93,.62,1.13h0Z" style="fill:#394547;"/><path d="M270.15,72.14c1.44-1.02,2.57-2.34,3.7-3.7h-1.25c2.46,2.91,4.05,6.49,7.18,8.76,.93,.68,1.82-.92,.89-1.59-2.96-2.14-4.5-5.71-6.83-8.47-.3-.35-.95-.36-1.25,0-1.02,1.24-2.03,2.49-3.34,3.41-.93,.66-.05,2.25,.89,1.59h0Z" style="fill:#394547;"/></g><g><polygon points="145.98 76.9 173.33 81.35 146.27 86.09 119.09 81.33 145.98 76.9" style="fill:#a37c58;"/><polygon points="200.37 121.97 146.07 131.07 92.23 122.01 146.07 112.95 200.37 121.97" style="fill:#a37c58;"/><polygon points="146.04 175.98 227.69 162.2 146.04 148.03 64.73 162.2 146.04 175.98" style="fill:#a37c58;"/><g><g><polyline points="70.86 153.31 146.08 165.97 146.08 131.09 92.24 121.99" style="fill:#ffe092;"/><polyline points="43.08 194.03 146.08 211.15 146.08 175.99 64.73 162.2" style="fill:#ffe092;"/><polyline points="98.12 113.02 146.08 121.1 146.08 86.06 119.4 81.4 119.08 81.34" style="fill:#ffe092;"/><polygon points="146.08 40.78 124.22 73.31 146.08 76.96 146.08 40.78" style="fill:#ffe092;"/></g><g><polygon points="249.07 194.02 227.7 162.22 146.18 176.01 146.08 175.99 146.08 211.14 249.07 194.02" style="fill:#ffc700;"/><polygon points="167.59 73.35 167.9 73.3 146.08 40.78 146.08 76.96 146.34 77 167.59 73.35" style="fill:#ffc700;"/><polyline points="173.37 81.38 146.28 86.1 146.08 86.06 146.08 121.1 146.26 121.13 194.4 113.02" style="fill:#ffc700;"/><polyline points="200.37 121.99 146.34 131.14 146.08 131.09 146.08 165.97 146.26 166 221.58 153.4" style="fill:#ffc700;"/></g></g></g><g><g><path d="M223.02,201.85l-3.63-.11c-.93,0-1.67-.82-1.58-1.79l5.96-71.35,4.27,.39-5.01,72.86Z" style="fill:#394547;"/><path d="M240.58,201.57l3.28-.03c1,0,1.78-.91,1.68-1.95l-6.95-71.11-4.26,.45,6.25,72.63Z" style="fill:#394547;"/><polygon points="246.53 198.92 245.22 200.83 244.37 200.32 245.96 197.46 246.53 198.92" style="fill:#333;"/><path d="M240.24,118.83c.04,5.33-4.08,9.68-9.19,9.71-5.11,.04-9.29-4.25-9.33-9.57-.04-5.33,4.08-9.68,9.19-9.72,5.11-.04,9.29,4.25,9.33,9.57Z" style="fill:#394547;"/><path d="M233.91,120.28l-5.64,.04-.17-23.52c-.01-1.62,1.41-2.86,2.96-2.87h0c1.56-.01,2.68,2.83,2.69,4.45l.15,21.9Z" style="fill:#394547;"/><path d="M234.9,118.87c.02,2.25-1.73,4.09-3.89,4.11-2.16,.02-3.93-1.8-3.95-4.05-.02-2.25,1.73-4.09,3.89-4.11,2.16-.02,3.93,1.8,3.95,4.05Z" style="fill:#333;"/></g><g><path d="M223.14,199.95l-2.53,.02c-.93,0-1.67-.82-1.58-1.79l5.96-71.35,4.27,.39-6.11,72.73Z" style="fill:#6a6a6a;"/><path d="M241.81,199.8l3.28-.03c1,0,1.78-.91,1.68-1.95l-6.95-71.11-4.26,.45,6.25,72.63Z" style="fill:#6a6a6a;"/><polygon points="235.33 147.87 235.95 147.8 237.18 146.03 241.66 145.56 241.75 146.54 242.29 145.49 236.56 146.1 235.33 147.87" style="fill:url(#b);"/><polygon points="228.26 146.16 222.52 145.64 224.57 120.98 230.31 121.5 228.26 146.16" style="fill:url(#c);"/><polygon points="236.56 146.1 242.29 145.49 239.9 120.87 234.16 121.47 236.56 146.1" style="fill:url(#d);"/><path d="M241.47,117.06c.04,5.33-4.08,9.68-9.19,9.72-5.11,.04-9.29-4.25-9.33-9.57-.04-5.33,4.08-9.68,9.19-9.71s9.29,4.25,9.33,9.57Z" style="fill:#6a6a6a;"/><path d="M235.13,118.51l-5.64,.04-.15-21.9c-.01-1.62,1.24-2.95,2.8-2.96h0c1.56-.01,2.83,1.29,2.84,2.92l.15,21.9Z" style="fill:#6a6a6a;"/><path d="M236.12,117.1c.02,2.25-1.73,4.09-3.89,4.11-2.16,.02-3.93-1.8-3.95-4.05-.02-2.25,1.73-4.09,3.89-4.11,2.16-.02,3.93,1.8,3.95,4.05Z" style="fill:url(#e);"/><path d="M222.62,200.98l-.73,10.73-1.28-10.67c-.08-.63,2.05-.67,2.01-.06Z" style="fill:url(#f);"/><path d="M244.23,200.57l-.73,10.73-1.28-10.67c-.08-.63,2.05-.67,2.01-.06Z" style="fill:url(#g);"/></g><polygon points="224.41 122.32 223.22 124.17 221.29 147.41 222.78 145.67 224.41 122.32" style="fill:url(#h);"/><polygon points="234.65 126.52 233.41 128.09 235.33 147.87 236.56 146.1 234.65 126.52" style="fill:url(#i);"/><polygon points="221.29 147.41 222.78 145.67 228.26 146.16 227.71 146.4 223.3 146.06 222.19 147.5 221.29 147.41" style="fill:url(#j);"/></g><g><polygon points="255.51 206.08 275.14 212.45 275.14 212.99 166.09 234.6 150.85 227.05 150.85 226.51 255.51 206.08" style="fill:#e84343;"/><polygon points="255.51 204.75 275.14 212.45 166.07 233.84 150.85 226.51 255.51 204.75" style="fill:#f66;"/><g style="opacity:.38;"><polygon points="190.76 218.21 183.93 227.19 183.46 227.82 183.4 227.89 183.12 228.27 182.56 229.01 182.26 229.39 181.71 230.12 181.42 230.5 181.12 230.89 169.5 233.17 169.98 232.6 170.28 232.24 170.88 231.54 171.19 231.17 171.77 230.47 172.08 230.1 172.1 230.07 172.64 229.44 180.24 220.4 190.76 218.21" style="fill:#fff; mix-blend-mode:screen;"/><polygon points="207.75 214.68 200.72 223.84 200.22 224.48 199.98 224.8 199.68 225.19 199.11 225.94 198.81 226.33 198.24 227.08 197.93 227.46 197.82 227.61 185.77 229.98 186.06 229.63 186.37 229.26 186.98 228.55 187.3 228.18 187.9 227.46 188.22 227.08 188.45 226.82 189 226.18 196.83 216.95 207.75 214.68" style="fill:#fff; mix-blend-mode:screen;"/><polygon points="235.8 208.85 228.43 218.31 227.91 218.97 227.33 219.72 227.02 220.13 226.41 220.9 226.1 221.3 225.5 222.07 225.39 222.21 212.61 224.71 212.9 224.38 213.54 223.64 213.87 223.26 214.51 222.52 214.84 222.13 215.42 221.46 216 220.79 224.22 211.26 235.8 208.85" style="fill:#fff; mix-blend-mode:screen;"/><polygon points="254.51 204.96 246.91 214.62 246.19 215.53 245.57 216.32 245.24 216.73 244.63 217.52 244.3 217.93 243.77 218.6 230.5 221.21 230.59 221.11 231.24 220.36 231.58 219.96 232.25 219.21 232.59 218.82 233.25 218.06 234 217.2 242.48 207.46 254.51 204.96" style="fill:#fff; mix-blend-mode:screen;"/></g><polygon points="269.29 210.16 270.27 210.54 268.11 210.97 272.95 212.88 272.01 213.07 267.17 211.16 265.39 211.51 270.21 213.42 269.27 213.61 264.47 211.7 262.69 212.05 267.47 213.96 266.54 214.14 261.76 212.24 259.99 212.59 264.75 214.49 263.82 214.67 259.07 212.77 257.32 213.12 262.05 215.02 261.13 215.2 256.41 213.3 254.66 213.65 259.36 215.55 258.44 215.73 253.75 213.83 252.01 214.18 256.68 216.07 255.77 216.25 251.1 214.36 249.38 214.7 254.03 216.59 253.12 216.77 248.48 214.88 246.76 215.22 251.38 217.11 250.47 217.29 245.87 215.4 244.15 215.74 248.74 217.63 247.84 217.81 243.26 215.92 241.57 216.25 246.13 218.14 245.24 218.32 240.68 216.43 238.99 216.77 243.52 218.65 242.63 218.83 238.11 216.94 236.42 217.28 240.93 219.16 240.05 219.33 235.55 217.45 233.88 217.78 238.36 219.67 237.48 219.84 233.01 217.96 231.34 218.29 235.8 220.17 234.92 220.34 230.48 218.46 228.82 218.79 233.25 220.67 232.37 220.84 227.95 218.96 226.31 219.29 230.72 221.16 229.85 221.33 225.46 219.46 223.81 219.79 228.19 221.66 227.33 221.83 222.96 219.96 221.33 220.28 225.68 222.15 224.82 222.32 220.48 220.45 218.86 220.77 223.19 222.64 222.34 222.81 218.02 220.94 216.41 221.26 220.71 223.13 219.86 223.29 215.57 221.43 213.96 221.75 218.24 223.61 217.39 223.78 213.12 221.91 211.53 222.23 215.78 224.09 214.95 224.26 210.7 222.4 209.11 222.71 213.34 224.57 212.5 224.74 208.28 222.88 206.7 223.19 210.91 225.05 210.07 225.21 205.88 223.35 204.31 223.67 208.49 225.52 207.67 225.68 203.5 223.83 201.93 224.14 206.08 225.99 205.26 226.15 201.12 224.3 199.56 224.61 203.69 226.46 202.87 226.62 198.75 224.77 197.2 225.08 201.31 226.93 200.5 227.09 196.4 225.24 194.86 225.55 198.94 227.39 198.13 227.55 194.06 225.71 192.52 226.01 196.58 227.86 195.78 228.01 191.72 226.17 190.2 226.47 194.24 228.32 193.44 228.47 189.41 226.63 187.89 226.93 191.91 228.77 191.11 228.93 187.1 227.09 185.59 227.39 189.58 229.23 188.79 229.38 184.81 227.55 183.31 227.85 187.28 229.68 186.49 229.84 182.53 228 181.03 228.3 184.98 230.13 184.2 230.29 180.25 228.45 178.77 228.75 182.69 230.58 181.91 230.73 177.99 228.9 176.52 229.2 180.42 231.02 179.65 231.18 175.75 229.35 174.27 229.64 178.16 231.47 177.38 231.62 173.51 229.8 172.04 230.09 175.9 231.91 175.13 232.06 171.28 230.24 169.83 230.53 173.67 232.35 172.9 232.5 169.07 230.68 167.62 230.97 171.44 232.79 170.67 232.94 166.86 231.12 165.42 231.4 169.22 233.22 168.46 233.37 164.67 231.55 162.3 232.02 161.54 231.66 269.29 210.16" style="fill:#fff;"/></g><g id="k"><g id="l"><path id="m" d="M98.87,200.56c0-4.67-2.95-9.34-8.87-12.9-11.72-7.05-30.75-7.1-42.58-.17v2.6c11.83-6.94,30.86-6.88,42.58,.17,5.91,3.56,8.87,8.23,8.87,12.9v-2.6Z" style="fill:#5254cf;"/><path id="n" d="M99.95,219.07c8.38-5.13,12.57-11.82,12.57-18.51v2.6c0,6.69-4.19,13.38-12.57,18.51v-2.6Z" style="fill:#5254cf;"/><g id="o"><polygon id="p" points="18.94 181.97 99.47 230.39 99.47 232.99 18.94 184.57 18.94 181.97" style="fill:#5254cf;"/><polygon id="q" points="99.47 230.39 109.12 224.59 109.12 227.19 99.47 232.99 99.47 230.39" style="fill:#5254cf;"/></g></g><path id="r" d="M99.95,219.07c16.85-10.32,16.76-26.96-.29-37.21-17.05-10.25-44.72-10.31-61.89-.17l-9.18-5.52-9.65,5.8,80.53,48.42,9.65-5.8-9.18-5.52Zm-52.52-31.58c11.83-6.94,30.86-6.88,42.58,.17,11.73,7.05,11.82,18.49,.28,25.6l-42.86-25.77Z" style="fill:#9f9ef2;"/></g><g><path d="M208.41,206.21c-.76-.14-1.53-.21-2.32-.21v-7.72c0-.18-.04-.37-.12-.55-1.05-2.24-8.52-4-17.88-4.24-.68-.02-1.36-.02-2.05-.02s-1.38,0-2.05,.02c-10.12,.25-18.01,2.29-18.01,4.78v48.8c0,.79,.1,1.55,.29,2.27,.02,.1,.05,.2,.08,.31,.77,2.78,1.8,3.37,4.82,4.94,8.61,2.29,20.45,2,30.32,0,2.61-.95,4.6-3.37,4.6-7.52v-3.64c1.58,0,3.11-.28,4.54-.81,6.42-2.32,11.09-9.47,11.09-17.91,0-9.39-5.77-17.17-13.31-18.51Zm1.88,30.76c-1.29,.64-2.72,.99-4.2,.99v-26.47c.92,0,1.81,.13,2.66,.39,4.82,1.43,8.4,6.64,8.4,12.85,0,5.53-2.84,10.27-6.86,12.25Z" style="fill:#9f9ef2;"/><path d="M206.1,198.28v48.8c0,4.15-1.99,6.57-4.6,7.52-9.88,2-21.72,2.29-30.32,0-3.02-1.57-4.04-2.16-4.82-4.94-.03-.11-.06-.21-.08-.31,9.92-6.54,33.81-24.74,39.7-51.61,.08,.18,.12,.36,.12,.55Z" style="fill:#5254cf; opacity:.34;"/><path d="M193.83,232.75s-.01-.01-.02-.02c-.01,0-.02-.01-.03-.02,0,0-.02,0-.02-.01-.01,0-.03-.01-.04-.01,0,0-.01,0-.02,0-.02,0-.05,0-.07,0-.15,0-.28,.1-.32,.25-.15,.55-.64,1.81-2.14,1.81-.05,0-.11,0-.17,0,0,0,0,0-.01,0,0,0,0,0,0,0,0,0-.01,0-.02,0,0,0,0,0,0,0,0,0-.01,0-.02,0,0,0,0,0-.01,0,0,0-.02,0-.02,0,0,0-.01,0-.02,0,0,0-.02,0-.03,0,0,0-.01,0-.02,0,0,0-.02,0-.03,0,0,0-.02,0-.03,0-.01,0-.02,0-.03,0,0,0-.02,0-.03,0-.01,0-.02,0-.04-.01,0,0-.02,0-.03-.01-.01,0-.02,0-.04-.01-.01,0-.02,0-.03-.01-.01,0-.03-.01-.04-.02-.01,0-.02-.01-.04-.02-.01,0-.03-.01-.04-.02-.01,0-.02-.01-.04-.02-.01,0-.03-.02-.04-.03-.01,0-.03-.02-.04-.02-.01,0-.03-.02-.04-.03-.01,0-.03-.02-.04-.03-.01-.01-.03-.02-.04-.03-.01-.01-.03-.02-.04-.03-.01-.01-.03-.03-.04-.04-.01-.01-.03-.02-.04-.04-.2-.2-.4-.48-.57-.9-.23-.57-.38-1.37-.37-2.53,0-.27,.13-5.48,.66-7.95h3.02c.7,0,1.27-.57,1.27-1.28,0-.35-.14-.67-.37-.9-.02-.02-.03-.03-.05-.04-.01-.01-.03-.03-.04-.04-.02-.01-.04-.03-.05-.04-.02-.01-.03-.02-.05-.03-.02-.01-.04-.02-.06-.03-.02,0-.03-.02-.05-.03-.02-.01-.04-.02-.06-.03-.02,0-.03-.02-.05-.02-.02,0-.04-.02-.07-.02-.02,0-.03-.01-.05-.02-.02,0-.05-.01-.07-.02-.02,0-.03,0-.05-.01-.03,0-.05,0-.08-.01-.01,0-.03,0-.04,0-.04,0-.09,0-.13,0h-11.26c-3.87,0-4.72,5.11-4.71,5.11,.33-.07,.6-.3,.75-.6,.3-.64,.75-1.08,1.19-1.37,.46-.3,.99-.49,1.54-.55,.15-.02,.3-.03,.46-.03h.85c.04,2.08-.04,8.96-2.57,11.69-.2,.21-.34,.48-.39,.77-.07,.41-.06,.97,.36,1.42,.27,.28,.65,.45,1.07,.45,.6,0,1.5-.32,1.94-2.08,.08-.2,1.5-4.1,1.62-12.25h2.8s1.54,0,1.54,0h0c-.08,.39-.18,.96-.29,1.64-.06,.34-.11,.71-.17,1.1-.04,.26-.07,.53-.11,.81-.02,.14-.03,.28-.05,.42-.03,.29-.06,.58-.09,.88-.25,2.68-.26,5.73,.57,7.65,.03,.08,.07,.15,.11,.23,.01,.02,.03,.05,.04,.07,.03,.05,.06,.1,.09,.15,.02,.02,.03,.05,.05,.07,.03,.05,.07,.09,.1,.14,.02,.02,.03,.04,.05,.06,.05,.06,.1,.11,.15,.17,.55,.55,1.29,.86,2.04,.86,.63,0,1.27-.21,1.8-.66,.72-.61,1.41-1.65,1.64-3.45,.01-.12-.03-.22-.12-.29Z" style="fill:#d0d0fc;"/><path d="M206.1,198.28c0,2.66-8.98,4.81-20.05,4.81s-20.06-2.15-20.06-4.81c0-2.49,7.89-4.53,18.01-4.78,.67-.02,1.36-.02,2.05-.02s1.37,0,2.05,.02c10.11,.25,18,2.29,18,4.78Z" style="fill:#d0d0fc;"/><path d="M203.67,198.28c0,1.77-7.89,3.2-17.63,3.2s-17.63-1.43-17.63-3.2,7.89-3.2,17.63-3.2,17.63,1.43,17.63,3.2Z" style="fill:url(#s); mix-blend-mode:multiply;"/><path d="M203.67,198.28c0,1.77-7.89,3.2-17.63,3.2s-17.63-1.43-17.63-3.2,7.89-3.2,17.63-3.2,17.63,1.43,17.63,3.2Z" style="fill:#5254cf;"/></g><g><path d="M108.29,259.22s-22.08-2.9-20.94-3.3c1.14-.4,42.72-5.35,42.72-5.35l14.96,3.73-36.74,4.92Z" style="fill:#e6e6e6; mix-blend-mode:multiply;"/><g><polygon points="145.03 236.69 145.03 254.3 108.28 259.22 108.28 241.61 145.03 236.69" style="fill:#e8e2e4;"/><polygon points="99.09 239.86 108.29 241.62 108.29 259.22 99.09 257.46 99.09 239.86" style="fill:#ccc;"/><polygon points="145.03 236.69 108.28 241.61 99.09 239.86 135.83 234.94 145.03 236.69" style="fill:#f2f2f2;"/><polygon points="145.03 236.69 145.03 254.3 120.59 257.57 120.59 239.97 145.03 236.69" style="fill:#9f9ef2;"/><polygon points="145.03 236.69 120.59 239.97 111.39 238.21 135.83 234.94 145.03 236.69" style="fill:#5254cf;"/></g></g></g></g></g></svg>