<?xml version="1.0" encoding="UTF-8"?><svg xmlns="http://www.w3.org/2000/svg" xmlns:xlink="http://www.w3.org/1999/xlink" viewBox="0 0 300 300"><defs><linearGradient id="b" x1="-469.12" y1="-147.47" x2="-464.39" y2="-147.47" gradientTransform="translate(-254 186.28) rotate(159.95)" gradientUnits="userSpaceOnUse"><stop offset="0" stop-color="#9bb3d5"/><stop offset=".02" stop-color="#9cb4d5"/><stop offset=".46" stop-color="#cad5e4"/><stop offset=".8" stop-color="#e7eaee"/><stop offset="1" stop-color="#f2f2f2"/></linearGradient><linearGradient id="c" x1="-618.27" y1="83.26" x2="-613.54" y2="83.26" gradientTransform="translate(-383.98 155.03) rotate(-172.54)" xlink:href="#b"/><linearGradient id="d" x1="-547.23" y1="-64.55" x2="-542.49" y2="-64.55" gradientTransform="translate(-309.92 182.11) rotate(171.21)" xlink:href="#b"/><linearGradient id="e" x1="48.8" y1="162.43" x2="61.71" y2="158.9" gradientUnits="userSpaceOnUse"><stop offset=".02" stop-color="#999"/><stop offset=".28" stop-color="#bdbebd"/><stop offset=".58" stop-color="#e0e1df"/><stop offset=".83" stop-color="#f6f7f5"/><stop offset=".99" stop-color="#fefffd"/></linearGradient><linearGradient id="f" x1="37.28" y1="153.02" x2="45.82" y2="147.79" gradientTransform="translate(20.56 -3.74) rotate(7.63)" gradientUnits="userSpaceOnUse"><stop offset="0" stop-color="#e4e4e4"/><stop offset=".58" stop-color="#f6f7f5"/><stop offset=".99" stop-color="#fefffd"/></linearGradient><linearGradient id="g" x1="47.13" y1="149.86" x2="59.4" y2="149.86" gradientTransform="translate(48.76 307.6) rotate(-161.65)" xlink:href="#f"/><radialGradient id="h" cx="40.43" cy="136.6" fx="40.43" fy="136.6" r="3.71" gradientUnits="userSpaceOnUse"><stop offset="0" stop-color="#fefffd"/><stop offset="1" stop-color="#b3b3b3"/></radialGradient><linearGradient id="i" x1="47.66" y1="217.88" x2="52.42" y2="216.61" gradientUnits="userSpaceOnUse"><stop offset=".02" stop-color="#999"/><stop offset=".04" stop-color="#a1a2a1"/><stop offset=".12" stop-color="#bebebd"/><stop offset=".22" stop-color="#d5d6d5"/><stop offset=".33" stop-color="#e7e8e7"/><stop offset=".46" stop-color="#f4f5f3"/><stop offset=".63" stop-color="#fbfcfa"/><stop offset=".99" stop-color="#fefffd"/></linearGradient><linearGradient id="j" x1="67.54" y1="213.06" x2="72.3" y2="211.79" xlink:href="#i"/><linearGradient id="k" x1="33.15" y1="154.85" x2="40.92" y2="152.72" xlink:href="#e"/><linearGradient id="l" x1="45.79" y1="154.14" x2="50.04" y2="152.98" xlink:href="#e"/><linearGradient id="m" x1="36.34" y1="164.43" x2="42.53" y2="164.43" xlink:href="#e"/></defs><g style="isolation:isolate;"><g id="a"><g><g><path d="M267.15,113.64c0,2.51-11.49,4.55-25.68,4.55s-25.69-2.04-25.69-4.55,11.5-4.55,25.69-4.55,25.68,2.04,25.68,4.55Z" style="fill:#a37c58;"/><g><path d="M266.09,90.02s0,0,0,0c.04-.02,.1-.02,.17-.03,.02,0,.04,0,.06,0,.08,0,.17,0,.27,.02,.46,.08,.99,.3,1.17,.49,.04,.05,.06,.09,.06,.12t0,0c.04-.96,.08-1.91,.12-2.87,0,0,0-.02-.01-.03-.04-.04-.15-.09-.25-.1-.03,0-.06,0-.08,0,0,0,0,0-.01,0,0,0-.02,0-.02,0-.51,.81-1.02,1.62-1.53,2.43t0,0s.03-.04,.07-.05Z" style="fill:#6a6a6a;"/><polygon points="267.57 96.35 267.57 96.35 267.57 96.35 267.57 96.35" style="fill:#e4eeed;"/><path d="M263.04,94.87s0,0,0,0c.03-.03,.07-.06,.12-.08,.01,0,.03-.01,.05-.02,.05-.02,.1-.03,.15-.04,.02,0,.03,0,.05,0,.08-.01,.16-.02,.25-.02,.02,0,.05,0,.07,0,.08,0,.16,0,.25,.01,.03,0,.06,0,.1,0,.12,.01,.24,.03,.37,.05,1.18,.2,2.52,.75,2.98,1.24,.06,.07,.1,.13,.13,.18,0,.02,0,.03,.01,.05,0,.03,.02,.05,.02,.08,0,0,0,0,0,0,.08-1.9,.16-3.79,.24-5.69h0s-.02-.07-.06-.12c-.18-.19-.7-.41-1.17-.49-.1-.02-.19-.02-.27-.02-.02,0-.04,0-.06,0-.07,0-.13,0-.17,.03,0,0,0,0,0,0-.03,.01-.05,.03-.07,.05h0c-1.01,1.61-2.01,3.22-3.02,4.83,0,0,0,.02,0,.02,0-.02,.02-.04,.04-.06Z" style="fill:#efefef; isolation:isolate;"/><path d="M267.57,96.35s0,0,0,0c0,0,0-.01,0-.02,0-.02-.01-.05-.02-.08,0,.04,.02,.07,0,.1Z" style="fill:#0075f2;"/><path d="M263.73,94.71s-.05,0-.07,0c.02,0,.05,0,.07,0Z" style="fill:#0075f2;"/><path d="M264.08,94.73s-.06,0-.1,0c.03,0,.06,0,.1,0Z" style="fill:#0075f2;"/><path d="M267.43,96.02c.06,.07,.1,.13,.13,.18-.03-.06-.06-.12-.13-.18Z" style="fill:#0075f2;"/><path d="M263.04,94.87s0,0,0,0c0,0,0,0,0,0Z" style="fill:#0075f2;"/><path d="M263.41,94.73s-.03,0-.05,0c.02,0,.03,0,.05,0Z" style="fill:#0075f2;"/><path d="M263.16,94.79s.03-.01,.05-.02c-.02,0-.03,.01-.05,.02Z" style="fill:#0075f2;"/><path d="M242.56,161.01s.07-.06,.12-.08c.01,0,.03-.01,.05-.02,.04-.02,.1-.03,.15-.04,.02,0,.03,0,.05,0,.08-.01,.16-.02,.25-.02,.02,0,.04,0,.07,0,.08,0,.16,0,.25,.01,.03,0,.06,0,.1,0,.12,.01,.24,.03,.37,.05,1.18,.2,2.52,.75,2.98,1.24,.06,.07,.1,.13,.13,.18,0,0,0,0,0,.01,0,.01,0,.03,0,.04,0,.04,.02,.07,0,.1,0,0,0,.01,0,.02,.48-1.56,.99-3.18,1.49-4.82l1.45-4.67c.89-2.87,1.8-5.81,2.73-8.81l1.62-5.22c.15-.47,.29-.95,.44-1.42l3.32-10.74c.57-1.85,1.15-3.7,1.72-5.54l.42-1.36c.55-1.77,1.09-3.53,1.63-5.27l2.72-8.78c.49-1.59,.98-3.16,1.45-4.7l1.49-4.81s0-.01,0-.02c0,0,0,0,0,0,0-.03,0-.07,0-.1,0-.02,0-.03-.01-.05-.03-.06-.06-.12-.13-.18-.46-.49-1.79-1.04-2.98-1.24-.13-.02-.25-.04-.37-.05-.03,0-.06,0-.1,0-.09,0-.17-.01-.25-.01-.02,0-.05,0-.07,0-.09,0-.18,0-.25,.02-.02,0-.03,0-.05,0-.06,.01-.11,.02-.15,.04-.02,0-.03,.01-.05,.02-.05,.02-.09,.05-.12,.08,0,0,0,0,0,0-.02,.02-.03,.04-.04,.06,0,0,0,.01-.01,.02-.48,1.56-.98,3.18-1.49,4.81l-1.45,4.68c-.89,2.86-1.8,5.8-2.72,8.8l-1.62,5.24c-.15,.47-.29,.94-.44,1.41l-1.71,5.52c-1.11,3.59-2.22,7.18-3.33,10.75l-.44,1.41c-.54,1.76-1.08,3.5-1.62,5.24l-2.72,8.8c-.49,1.59-.98,3.15-1.45,4.68l-1.49,4.81s.03-.06,.05-.08c0,0,0,0,0,0Z" style="fill:#ffc700;"/><path d="M242.69,160.94s.03-.01,.05-.02c-.02,0-.03,.01-.05,.02Z" style="fill:#e4eeed;"/><path d="M242.56,161.01s0,0,0,0c0,0,0,0,0,0Z" style="fill:#e4eeed;"/><path d="M243.25,160.85s-.05,0-.07,0c.02,0,.04,0,.07,0Z" style="fill:#e4eeed;"/><path d="M247.09,162.4s.02,.07,0,.1c0-.03,0-.07,0-.1Z" style="fill:#e4eeed;"/><path d="M246.95,162.16c.06,.07,.1,.13,.13,.18-.03-.06-.06-.12-.13-.18Z" style="fill:#e4eeed;"/><path d="M242.93,160.87s-.03,0-.05,0c.02,0,.03,0,.05,0Z" style="fill:#e4eeed;"/><path d="M243.6,160.87s-.06,0-.1,0c.03,0,.06,0,.1,0Z" style="fill:#e4eeed;"/><path d="M241.88,163.13s.03-.06,.05-.08c0,0,0,0,0,0,.02-.02,.05-.05,.09-.07,0,0,.02,0,.03-.01,.01,0,.03-.01,.05-.02,.04-.02,.1-.03,.15-.04,.02,0,.03,0,.05,0,.08-.01,.16-.02,.25-.02,.02,0,.04,0,.07,0,.08,0,.16,0,.25,.01,.03,0,.06,0,.1,0,.12,.01,.24,.03,.37,.05,1.18,.2,2.52,.75,2.98,1.24,.06,.07,.1,.13,.13,.18,0,.02,0,.03,.01,.05,0,.04,.02,.07,0,.1,0,0,0,.01,0,.02l.31-1.02c.11-.36,.22-.71,.31-1.02,0,0,0-.01,0-.02,0-.03,0-.07,0-.1,0-.01,0-.03,0-.04,0,0,0,0,0-.01-.03-.06-.06-.12-.13-.18-.46-.49-1.79-1.04-2.98-1.24-.13-.02-.25-.04-.37-.05-.03,0-.06,0-.1,0-.09,0-.17-.01-.25-.01-.02,0-.05,0-.07,0-.09,0-.18,0-.25,.02-.02,0-.03,0-.05,0-.06,.01-.11,.02-.15,.04-.02,0-.03,.01-.05,.02-.05,.02-.09,.05-.12,.08,0,0,0,0,0,0-.02,.02-.04,.05-.05,.08l-.31,1.01s0,0,0,0l-.31,1.01Z" style="fill:#e4eeed;"/><path d="M241.93,163.05s0,0,0,0c0,0,0,0,0,0Z" style="fill:#ff7485;"/><path d="M242.06,162.97s.03-.01,.05-.02c-.02,0-.03,.01-.05,.02Z" style="fill:#ff7485;"/><path d="M242.56,162.88s.04,0,.07,0c-.02,0-.05,0-.07,0Z" style="fill:#ff7485;"/><path d="M242.26,162.91s.03,0,.05,0c-.02,0-.03,0-.05,0Z" style="fill:#ff7485;"/><path d="M246.32,164.19c.06,.07,.1,.13,.13,.18-.03-.06-.06-.12-.13-.18Z" style="fill:#ff7485;"/><path d="M246.46,164.43s.02,.07,0,.1c0-.03,0-.07,0-.1Z" style="fill:#ff7485;"/><path d="M242.88,162.89s.06,0,.1,0c-.03,0-.06,0-.1,0Z" style="fill:#ff7485;"/><path d="M246.46,164.43s0-.03-.01-.05c-.03-.06-.06-.12-.13-.18-.46-.49-1.79-1.04-2.98-1.24-.13-.02-.25-.04-.37-.05-.03,0-.06,0-.1,0-.09,0-.17-.01-.25-.01-.02,0-.05,0-.07,0-.09,0-.18,0-.25,.02-.02,0-.03,0-.05,0-.06,.01-.11,.02-.15,.04-.02,0-.03,.01-.05,.02-.01,0-.02,0-.03,.01-.04,.02-.07,.04-.09,.07,0,0,0,0,0,0-.02,.02-.04,.05-.05,.08h0l-1.66,5.37c-.1,.33-.2,.65-.29,.95-.07,.23-.07,.45-.01,.66,.05,.22,.17,.42,.35,.61,.08,.09,.18,.17,.28,.24,.08,.06,.18,.12,.27,.17,.02,.01,.04,.02,.06,.04,.11,.06,.23,.12,.35,.17,0,0,0,0,0,0,.13,.05,.25,.1,.37,.14,.02,0,.05,.01,.07,.02,.1,.03,.2,.06,.29,.09,.03,0,.06,.01,.08,.02,.23,.06,.41,.09,.46,.1,.04,0,.08,0,.11,.01,.07,0,.13,.02,.19,.02,.04,0,.08,0,.12,.01,.02,0,.04,0,.06,0,.04,0,.07,0,.11,0,.07,0,.14,0,.21,0,.05,0,.09-.01,.14-.02,.07-.01,.13-.02,.19-.04,.03,0,.07-.02,.1-.03,.06-.02,.12-.05,.17-.07,.03-.01,.05-.03,.08-.04,.04-.03,.09-.06,.13-.09,.04-.03,.07-.06,.1-.08,.02-.02,.04-.04,.06-.07,.15-.17,.22-.34,.26-.45l.58-1.89c.08-.27,.17-.54,.25-.81l.54-1.74c.2-.66,.4-1.3,.58-1.88,0,0,0-.01,0-.02,0-.03,0-.07,0-.1Z" style="fill:#ff7485;"/></g><g><path d="M228.64,75.23s0,0,0,0c.03-.03,.09-.06,.15-.09,.02,0,.03-.01,.05-.02,.07-.03,.16-.05,.26-.07,.46-.09,1.03-.07,1.27,.05,.06,.03,.09,.06,.1,.09t0,0c-.3-.91-.6-1.82-.9-2.73,0,0,0-.01-.02-.02-.05-.03-.17-.03-.27,0-.03,0-.06,.02-.08,.03,0,0,0,0-.01,0,0,0-.02,.01-.02,.02-.19,.94-.38,1.87-.57,2.81h0s.02-.05,.04-.07Z" style="fill:#6a6a6a;"/><polygon points="232.25 80.63 232.25 80.63 232.25 80.63 232.25 80.63" style="fill:#e4eeed;"/><path d="M227.48,80.84s0,0,0,0c.02-.04,.05-.08,.09-.12,.01-.01,.02-.02,.04-.03,.04-.03,.08-.06,.13-.09,.01,0,.03-.02,.04-.03,.07-.04,.14-.07,.23-.11,.02,0,.04-.02,.06-.02,.07-.03,.15-.05,.24-.08,.03,0,.06-.02,.09-.03,.11-.03,.23-.06,.36-.09,1.18-.23,2.62-.18,3.23,.12,.08,.04,.14,.08,.18,.13,.01,.01,.02,.03,.03,.04,.02,.02,.04,.04,.04,.07,0,0,0,0,0,0-.59-1.8-1.18-3.61-1.77-5.41h0s-.04-.06-.1-.09c-.24-.12-.8-.14-1.27-.05-.1,.02-.19,.05-.26,.07-.02,0-.04,.01-.05,.02-.07,.03-.12,.06-.15,.09,0,0,0,0,0,0-.02,.02-.04,.05-.04,.07h0c-.38,1.86-.75,3.72-1.13,5.58,0,0,0,.02,0,.03,0-.02,0-.05,.01-.07Z" style="fill:#efefef; isolation:isolate;"/><path d="M232.25,80.63s0,0,0,0c0,0,0-.02,0-.02,0-.02-.03-.04-.04-.07,.02,.03,.04,.06,.04,.09Z" style="fill:#0075f2;"/><path d="M228.07,80.44s-.04,.02-.06,.02c.02,0,.04-.02,.06-.02Z" style="fill:#0075f2;"/><path d="M228.4,80.34s-.06,.02-.09,.03c.03,0,.06-.02,.09-.03Z" style="fill:#0075f2;"/><path d="M231.99,80.37c.08,.04,.14,.08,.18,.13-.04-.04-.1-.09-.18-.13Z" style="fill:#0075f2;"/><path d="M227.48,80.83s0,0,0,0c0,0,0,0,0,0Z" style="fill:#0075f2;"/><path d="M227.78,80.57s-.03,.02-.04,.03c.01,0,.03-.02,.04-.03Z" style="fill:#0075f2;"/><path d="M227.57,80.72s.02-.02,.04-.03c-.01,.01-.03,.02-.04,.03Z" style="fill:#0075f2;"/><path d="M231.52,149.96s.05-.08,.09-.12c.01-.01,.02-.02,.04-.03,.04-.03,.08-.06,.13-.09,.01,0,.03-.02,.04-.03,.07-.04,.14-.07,.23-.11,.02,0,.04-.01,.06-.02,.07-.03,.15-.05,.24-.08,.03,0,.06-.02,.09-.03,.11-.03,.23-.06,.36-.09,1.18-.23,2.62-.18,3.23,.12,.08,.04,.14,.08,.18,.13,0,0,0,0,.01,0,.01,.01,0,.02,.02,.04,.02,.03,.04,.06,.04,.09,0,0,0,.01,0,.02-.1-1.64-.19-3.33-.29-5.04l-.29-4.88c-.18-3-.35-6.07-.54-9.2l-.32-5.45c-.03-.49-.06-.99-.09-1.48l-.66-11.22c-.11-1.94-.23-3.87-.34-5.79l-.08-1.42c-.11-1.85-.22-3.69-.32-5.51l-.54-9.17c-.1-1.66-.19-3.3-.29-4.91l-.29-5.02s0-.01,0-.02c0,0,0,0,0,0,0-.03-.02-.06-.04-.09-.01-.01-.01-.03-.03-.04-.04-.04-.1-.09-.18-.13-.6-.3-2.05-.35-3.23-.12-.13,.03-.25,.05-.36,.09-.03,0-.06,.02-.09,.03-.09,.02-.17,.05-.24,.08-.02,0-.04,.02-.06,.02-.09,.03-.16,.07-.23,.11-.02,0-.03,.02-.04,.03-.05,.03-.09,.06-.13,.09-.01,.01-.03,.02-.04,.03-.04,.04-.07,.08-.09,.12,0,0,0,0,0,0,0,.02-.01,.05-.01,.07,0,0,0,.02,0,.02,.1,1.63,.19,3.32,.29,5.03l.29,4.89c.17,2.99,.35,6.06,.54,9.19l.32,5.47c.03,.49,.06,.98,.09,1.47l.34,5.77c.22,3.75,.44,7.51,.66,11.23l.09,1.47c.11,1.84,.21,3.66,.32,5.47l.54,9.19c.1,1.66,.19,3.29,.29,4.89l.29,5.03s0-.06,.02-.09c0,0,0,0,0,0Z" style="fill:#ffc700;"/><path d="M231.6,149.84s.02-.02,.04-.03c-.01,.01-.03,.02-.04,.03Z" style="fill:#e4eeed;"/><path d="M231.52,149.96s0,0,0,0c0,0,0,0,0,0Z" style="fill:#e4eeed;"/><path d="M232.11,149.57s-.04,.01-.06,.02c.02,0,.04-.01,.06-.02Z" style="fill:#e4eeed;"/><path d="M236.24,149.66s.04,.06,.04,.09c0-.03-.02-.06-.04-.09Z" style="fill:#e4eeed;"/><path d="M236.03,149.49c.08,.04,.14,.08,.18,.13-.04-.04-.1-.09-.18-.13Z" style="fill:#e4eeed;"/><path d="M231.81,149.69s-.03,.02-.04,.03c.01,0,.03-.02,.04-.03Z" style="fill:#e4eeed;"/><path d="M232.44,149.46s-.06,.02-.09,.03c.03,0,.06-.02,.09-.03Z" style="fill:#e4eeed;"/><path d="M231.62,152.17s0-.06,.02-.09c0,0,0,0,0,0,.01-.03,.03-.06,.06-.09,0,0,.02-.02,.03-.02,.01-.01,.02-.02,.04-.03,.04-.03,.08-.06,.13-.09,.01,0,.03-.02,.04-.03,.07-.04,.14-.07,.23-.11,.02,0,.04-.01,.06-.02,.07-.03,.15-.05,.24-.08,.03,0,.06-.02,.09-.03,.11-.03,.23-.06,.37-.09,1.18-.23,2.62-.18,3.23,.12,.08,.04,.14,.08,.18,.13,.01,.01,.02,.03,.03,.04,.02,.03,.04,.06,.04,.09,0,0,0,.01,0,.02l-.06-1.06c-.02-.37-.04-.74-.06-1.06,0,0,0-.01,0-.02,0-.03-.02-.06-.04-.09,0-.01,0-.02-.02-.04,0,0,0,0-.01,0-.04-.04-.1-.09-.18-.13-.6-.3-2.05-.35-3.23-.12-.13,.03-.25,.05-.36,.09-.03,0-.06,.02-.09,.03-.09,.03-.17,.05-.24,.08-.02,0-.04,.01-.06,.02-.09,.03-.16,.07-.23,.11-.02,0-.03,.02-.04,.03-.05,.03-.09,.06-.13,.09-.01,.01-.03,.02-.04,.03-.04,.04-.07,.08-.09,.12,0,0,0,0,0,0-.01,.03-.02,.06-.02,.09l.06,1.06s0,0,0,0l.06,1.06Z" style="fill:#e4eeed;"/><path d="M231.64,152.08s0,0,0,0c0,0,0,0,0,0Z" style="fill:#ff7485;"/><path d="M231.73,151.96s.02-.02,.04-.03c-.01,.01-.03,.02-.04,.03Z" style="fill:#ff7485;"/><path d="M232.17,151.71s.04-.01,.06-.02c-.02,0-.04,.01-.06,.02Z" style="fill:#ff7485;"/><path d="M231.9,151.84s.03-.02,.04-.03c-.02,0-.03,.02-.04,.03Z" style="fill:#ff7485;"/><path d="M236.15,151.61c.08,.04,.14,.08,.18,.13-.04-.04-.1-.09-.18-.13Z" style="fill:#ff7485;"/><path d="M236.37,151.78s.04,.06,.04,.09c0-.03-.02-.06-.04-.09Z" style="fill:#ff7485;"/><path d="M232.47,151.61s.06-.02,.09-.03c-.03,0-.06,.02-.09,.03Z" style="fill:#ff7485;"/><path d="M236.37,151.78s-.01-.03-.03-.04c-.04-.04-.1-.09-.18-.13-.6-.3-2.05-.35-3.23-.12-.13,.03-.25,.05-.37,.09-.03,0-.06,.02-.09,.03-.09,.03-.17,.05-.24,.08-.02,0-.04,.01-.06,.02-.09,.03-.16,.07-.23,.11-.02,0-.03,.02-.04,.03-.05,.03-.09,.06-.13,.09-.01,.01-.03,.02-.04,.03,0,0-.02,.02-.03,.02-.03,.03-.05,.06-.06,.09,0,0,0,0,0,0-.01,.03-.02,.06-.02,.09h0l.33,5.61c.02,.34,.04,.68,.06,.99,.01,.24,.09,.44,.22,.63,.13,.18,.3,.33,.54,.45,.11,.05,.23,.09,.35,.13,.1,.03,.21,.05,.31,.07,.02,0,.04,.01,.07,.01,.13,.02,.26,.03,.39,.04,0,0,0,0,0,0,.14,0,.27,0,.4,0,.03,0,.05,0,.08,0,.11,0,.21-.01,.3-.02,.03,0,.06,0,.09,0,.24-.03,.42-.06,.47-.07,.04,0,.07-.02,.11-.03,.06-.01,.12-.03,.18-.05,.04-.01,.08-.02,.12-.03,.02,0,.04-.01,.06-.02,.04-.01,.06-.03,.1-.04,.07-.03,.13-.05,.19-.08,.04-.02,.08-.04,.12-.07,.06-.03,.11-.07,.16-.11,.03-.02,.05-.04,.08-.06,.05-.04,.09-.08,.13-.13,.02-.02,.04-.04,.06-.07,.03-.04,.06-.08,.09-.13,.02-.04,.04-.07,.06-.11,.01-.03,.03-.05,.04-.08,.08-.21,.09-.4,.08-.51l-.11-1.97c-.02-.28-.03-.56-.05-.84l-.11-1.82c-.04-.69-.08-1.36-.11-1.97,0,0,0-.01,0-.02,0-.03-.02-.06-.04-.09Z" style="fill:#ff7485;"/></g><g><path d="M246.82,83.34s0,0,0,0c.04-.03,.1-.05,.16-.06,.02,0,.03,0,.05-.01,.08-.02,.16-.03,.27-.04,.47-.03,1.03,.07,1.25,.22,.05,.04,.08,.07,.09,.1t0,0c-.17-.94-.34-1.88-.52-2.82,0,0,0-.01-.02-.02-.05-.03-.17-.05-.27-.05-.04,0-.06,0-.08,.01,0,0,0,0-.01,0,0,0-.02,0-.02,.01-.32,.9-.64,1.8-.95,2.71t0,0s.03-.04,.05-.06Z" style="fill:#6a6a6a;"/><polygon points="249.66 89.19 249.66 89.18 249.66 89.19 249.66 89.19" style="fill:#e4eeed;"/><path d="M244.91,88.74s0,0,0,0c.02-.04,.06-.07,.1-.1,.01,0,.03-.02,.04-.03,.04-.03,.09-.05,.14-.07,.02,0,.03-.01,.04-.02,.07-.03,.15-.05,.24-.07,.02,0,.04,0,.07-.01,.08-.02,.16-.03,.25-.04,.03,0,.06,0,.1-.01,.12-.01,.24-.03,.37-.03,1.2-.07,2.62,.18,3.18,.56,.08,.05,.13,.1,.16,.15,.01,.02,.01,.03,.02,.05,.01,.02,.03,.05,.03,.07,0,0,0,0,0,0-.34-1.87-.68-3.74-1.02-5.61h0s-.03-.07-.09-.1c-.22-.15-.78-.25-1.25-.22-.11,0-.19,.02-.27,.04-.02,0-.04,0-.05,.01-.07,.02-.13,.04-.16,.06,0,0,0,0,0,0-.03,.02-.05,.04-.05,.06h0c-.63,1.79-1.26,3.58-1.88,5.38,0,0,0,.02,0,.03,0-.02,0-.04,.02-.07Z" style="fill:#efefef; isolation:isolate;"/><path d="M249.66,89.19s0,0,0,0c0,0,0-.02,0-.02,0-.02-.02-.05-.03-.07,.02,.03,.03,.07,.03,.1Z" style="fill:#0075f2;"/><path d="M245.55,88.43s-.05,0-.07,.01c.02,0,.04,0,.07-.01Z" style="fill:#0075f2;"/><path d="M245.89,88.37s-.06,0-.1,.01c.03,0,.06,0,.1-.01Z" style="fill:#0075f2;"/><path d="M249.44,88.89c.08,.05,.13,.1,.16,.15-.04-.05-.09-.1-.16-.15Z" style="fill:#0075f2;"/><path d="M244.91,88.74s0,0,0,0c0,0,0,0,0,0Z" style="fill:#0075f2;"/><path d="M245.24,88.51s-.03,.01-.04,.02c.01,0,.03-.01,.04-.02Z" style="fill:#0075f2;"/><path d="M245.01,88.63s.03-.02,.04-.03c-.01,0-.03,.02-.04,.03Z" style="fill:#0075f2;"/><path d="M239.46,157.76s.06-.07,.1-.1c.01,0,.03-.02,.04-.03,.04-.03,.09-.05,.14-.07,.02,0,.03-.01,.04-.02,.07-.03,.15-.05,.24-.07,.02,0,.04,0,.06-.01,.08-.02,.16-.03,.25-.04,.03,0,.06,0,.09-.01,.12-.01,.24-.03,.37-.03,1.2-.07,2.62,.18,3.18,.56,.08,.05,.13,.1,.16,.15,0,0,0,0,0,0,0,.01,0,.03,.01,.04,.02,.03,.03,.06,.03,.1,0,0,0,.01,0,.02,.13-1.63,.26-3.32,.4-5.03l.39-4.88c.24-2.99,.48-6.06,.73-9.19l.43-5.45c.04-.49,.08-.99,.12-1.48l.89-11.21c.15-1.93,.31-3.86,.46-5.79l.11-1.42c.15-1.85,.29-3.68,.43-5.5l.72-9.16c.13-1.66,.26-3.3,.39-4.9l.4-5.02s0-.01,0-.02c0,0,0,0,0,0,0-.03-.01-.06-.03-.1,0-.02,0-.03-.02-.05-.04-.05-.09-.1-.16-.15-.56-.38-1.98-.62-3.18-.56-.13,0-.26,.02-.37,.03-.03,0-.06,0-.1,.01-.09,.01-.17,.03-.25,.04-.02,0-.05,0-.07,.01-.09,.02-.17,.05-.24,.07-.02,0-.03,.01-.04,.02-.05,.02-.1,.05-.14,.07-.01,0-.03,.02-.04,.03-.04,.03-.08,.07-.1,.1,0,0,0,0,0,0-.01,.02-.02,.04-.02,.07,0,0,0,.01,0,.02-.13,1.63-.26,3.31-.4,5.02l-.39,4.89c-.24,2.99-.48,6.05-.72,9.18l-.43,5.46c-.04,.49-.08,.98-.12,1.47l-.45,5.76c-.3,3.74-.59,7.5-.89,11.22l-.12,1.47c-.15,1.84-.29,3.66-.43,5.46l-.72,9.18c-.13,1.66-.26,3.29-.39,4.89l-.4,5.02s.01-.06,.03-.09c0,0,0,0,0,0Z" style="fill:#ffc700;"/><path d="M239.56,157.66s.03-.02,.04-.03c-.01,0-.03,.02-.04,.03Z" style="fill:#e4eeed;"/><path d="M239.46,157.76s0,0,0,0c0,0,0,0,0,0Z" style="fill:#e4eeed;"/><path d="M240.09,157.45s-.04,0-.06,.01c.02,0,.04,0,.06-.01Z" style="fill:#e4eeed;"/><path d="M244.18,158.12s.03,.07,.03,.1c0-.03-.01-.06-.03-.1Z" style="fill:#e4eeed;"/><path d="M243.99,157.92c.08,.05,.13,.1,.16,.15-.04-.05-.09-.1-.16-.15Z" style="fill:#e4eeed;"/><path d="M239.79,157.54s-.03,.01-.04,.02c.02,0,.03-.01,.04-.02Z" style="fill:#e4eeed;"/><path d="M240.44,157.4s-.06,0-.09,.01c.03,0,.06,0,.09-.01Z" style="fill:#e4eeed;"/><path d="M239.26,159.97s.01-.06,.03-.09c0,0,0,0,0,0,.02-.03,.04-.06,.07-.08,0,0,.02-.01,.03-.02,.01,0,.03-.02,.04-.03,.04-.03,.09-.05,.14-.07,.02,0,.03-.01,.04-.02,.07-.03,.15-.05,.24-.07,.02,0,.04,0,.06-.01,.08-.02,.16-.03,.25-.04,.03,0,.06,0,.09-.01,.12-.01,.24-.03,.37-.03,1.2-.07,2.62,.18,3.18,.56,.08,.05,.13,.1,.16,.15,.01,.02,.01,.03,.02,.05,.02,.03,.03,.07,.03,.1,0,0,0,.01,0,.02l.08-1.06c.03-.37,.06-.74,.08-1.06,0,0,0-.01,0-.02,0-.03-.01-.06-.03-.1,0-.01,0-.03-.01-.04,0,0,0,0,0,0-.04-.05-.09-.1-.16-.15-.56-.38-1.98-.62-3.18-.56-.13,0-.26,.02-.37,.03-.03,0-.06,0-.09,.01-.09,.01-.17,.03-.25,.04-.02,0-.04,0-.06,.01-.09,.02-.17,.05-.24,.07-.02,0-.03,.01-.04,.02-.05,.02-.1,.05-.14,.07-.01,0-.03,.02-.04,.03-.04,.03-.08,.07-.1,.1,0,0,0,0,0,0-.02,.03-.03,.06-.03,.09l-.08,1.06s0,0,0,0l-.08,1.06Z" style="fill:#e4eeed;"/><path d="M239.29,159.88s0,0,0,0c0,0,0,0,0,0Z" style="fill:#ff7485;"/><path d="M239.39,159.78s.03-.02,.04-.03c-.01,0-.03,.02-.04,.03Z" style="fill:#ff7485;"/><path d="M239.86,159.59s.04,0,.06-.01c-.02,0-.04,0-.06,.01Z" style="fill:#ff7485;"/><path d="M239.57,159.68s.03-.01,.04-.02c-.02,0-.03,.01-.04,.02Z" style="fill:#ff7485;"/><path d="M243.82,160.04c.07,.05,.13,.1,.16,.15-.04-.05-.09-.1-.16-.15Z" style="fill:#ff7485;"/><path d="M244.01,160.23s.03,.07,.03,.1c0-.03-.01-.06-.03-.1Z" style="fill:#ff7485;"/><path d="M240.18,159.53s.06,0,.09-.01c-.03,0-.06,0-.09,.01Z" style="fill:#ff7485;"/><path d="M244.01,160.23s-.01-.03-.02-.05c-.04-.05-.09-.1-.16-.15-.56-.38-1.98-.62-3.18-.56-.13,0-.26,.02-.37,.03-.03,0-.06,0-.09,.01-.09,.01-.17,.03-.25,.04-.02,0-.04,0-.06,.01-.09,.02-.17,.05-.24,.07-.02,0-.03,.01-.04,.02-.05,.02-.1,.05-.14,.07-.01,0-.03,.02-.04,.03,0,0-.02,.01-.03,.02-.03,.03-.06,.05-.07,.08,0,0,0,0,0,0-.02,.03-.03,.06-.03,.09h0l-.44,5.6c-.03,.34-.05,.68-.08,.99-.02,.24,.03,.45,.13,.65,.1,.2,.26,.37,.47,.52,.1,.07,.21,.12,.33,.17,.1,.04,.2,.08,.3,.11,.02,0,.04,.02,.06,.02,.13,.04,.25,.07,.38,.09,0,0,0,0,0,0,.13,.03,.27,.05,.39,.06,.03,0,.05,0,.07,0,.11,.01,.21,.02,.3,.02,.03,0,.06,0,.09,0,.24,0,.42,0,.47,0,.04,0,.08,0,.11-.01,.07,0,.13-.01,.19-.02,.04,0,.08-.01,.12-.02,.02,0,.04,0,.06,0,.04,0,.07-.02,.1-.03,.07-.02,.14-.03,.2-.05,.05-.02,.09-.03,.13-.05,.06-.03,.12-.05,.18-.08,.03-.02,.06-.03,.09-.05,.05-.03,.1-.07,.15-.11,.02-.02,.04-.04,.07-.06,.04-.04,.07-.07,.1-.11,.03-.03,.05-.07,.07-.1,.02-.03,.03-.05,.05-.08,.11-.19,.14-.38,.15-.5l.16-1.97c.02-.28,.04-.56,.07-.84l.14-1.81c.05-.69,.11-1.36,.16-1.97,0,0,0-.01,0-.02,0-.03-.01-.06-.03-.1Z" style="fill:#ff7485;"/></g><g><path d="M236.03,167.61s0,0,0,0c-.03,.03-.08,.07-.14,.11-.02,0-.03,.02-.05,.03-.07,.04-.15,.07-.25,.11-.45,.15-1.01,.2-1.26,.12-.06-.02-.1-.05-.11-.08t0,0c.42,.86,.83,1.72,1.25,2.59,0,0,.01,.01,.02,.02,.05,.02,.18,0,.27-.03,.03-.01,.06-.02,.08-.04,0,0,0,0,0-.01,0,0,.02-.01,.02-.02,.07-.95,.14-1.91,.2-2.86t0,0s-.01,.05-.04,.07Z" style="fill:#0075f2;"/><polygon points="231.75 162.73 231.75 162.73 231.75 162.73 231.75 162.73" style="fill:#e4eeed;"/><path d="M236.45,161.9s0,0,0,0c-.01,.04-.04,.08-.07,.13,0,.01-.02,.02-.03,.04-.03,.04-.07,.07-.12,.11-.01,.01-.02,.02-.04,.03-.06,.05-.13,.09-.22,.14-.02,.01-.04,.02-.06,.03-.07,.04-.14,.07-.23,.11-.03,.01-.06,.03-.09,.04-.11,.04-.22,.09-.35,.13-1.14,.38-2.58,.52-3.21,.3-.09-.03-.15-.06-.2-.1-.02-.01-.02-.03-.03-.04-.02-.02-.04-.04-.05-.06,0,0,0,0,0,0,.82,1.71,1.64,3.42,2.46,5.14h0s.05,.06,.11,.08c.25,.08,.81,.03,1.26-.12,.1-.03,.18-.07,.25-.11,.02,0,.03-.02,.05-.03,.06-.04,.11-.07,.14-.11,0,0,0,0,0,0,.02-.03,.03-.05,.04-.07h0c.13-1.89,.26-3.79,.39-5.68,0,0,0-.02,0-.03,0,.02,0,.05,0,.07Z" style="fill:url(#b);"/><path d="M231.75,162.73s0,0,0,0c0,0,0,.02,0,.02,0,.02,.03,.04,.05,.06-.02-.03-.05-.05-.06-.09Z" style="fill:#0075f2;"/><path d="M235.92,162.37s.04-.02,.06-.03c-.02,.01-.04,.02-.06,.03Z" style="fill:#0075f2;"/><path d="M235.6,162.52s.06-.03,.09-.04c-.03,.01-.06,.03-.09,.04Z" style="fill:#0075f2;"/><path d="M232.04,162.95c-.09-.03-.15-.06-.2-.1,.05,.04,.11,.07,.2,.1Z" style="fill:#0075f2;"/><path d="M236.45,161.9s0,0,0,0c0,0,0,0,0,0Z" style="fill:#0075f2;"/><path d="M236.19,162.2s.02-.02,.04-.03c-.01,0-.02,.02-.04,.03Z" style="fill:#0075f2;"/><path d="M236.38,162.03s-.02,.02-.03,.04c.01-.01,.02-.02,.03-.04Z" style="fill:#0075f2;"/><path d="M223.44,93.89s-.04,.08-.07,.13c0,.01-.02,.02-.03,.04-.03,.04-.07,.07-.12,.11-.01,.01-.02,.02-.04,.03-.06,.05-.13,.09-.22,.14-.02,.01-.04,.02-.06,.03-.07,.04-.15,.07-.23,.11-.03,.01-.06,.03-.09,.04-.11,.04-.22,.09-.35,.13-1.14,.38-2.58,.52-3.21,.3-.09-.03-.15-.06-.2-.1,0,0,0,0-.01,0-.01-.01-.01-.02-.02-.03-.02-.03-.05-.05-.06-.08,0,0,0,0,0-.02,.31,1.61,.63,3.27,.95,4.96l.92,4.8c.56,2.95,1.14,5.97,1.73,9.06l1.03,5.36c.09,.49,.19,.97,.28,1.46l2.11,11.04c.36,1.91,.73,3.81,1.09,5.7l.27,1.4c.35,1.82,.69,3.63,1.04,5.42l1.73,9.02c.31,1.64,.62,3.25,.92,4.83l.95,4.94s0,0,0,.01c0,0,0,0,0,0,0,.03,.03,.06,.06,.09,.01,.01,.02,.03,.03,.04,.05,.04,.11,.07,.2,.1,.64,.21,2.07,.08,3.21-.3,.13-.04,.24-.09,.35-.13,.03-.01,.06-.03,.09-.04,.08-.04,.16-.07,.23-.11,.02-.01,.04-.02,.06-.03,.08-.05,.15-.09,.22-.14,.01-.01,.02-.02,.04-.03,.05-.04,.09-.07,.12-.11,.01-.01,.02-.02,.03-.04,.03-.04,.06-.09,.07-.13,0,0,0,0,0,0,0-.02,0-.05,0-.07,0,0,0-.02,0-.02-.31-1.61-.62-3.26-.95-4.95l-.92-4.82c-.56-2.94-1.14-5.97-1.73-9.04l-1.03-5.38c-.09-.48-.18-.97-.28-1.45l-1.09-5.68c-.71-3.69-1.41-7.39-2.11-11.05l-.28-1.45c-.35-1.81-.69-3.6-1.03-5.38l-1.73-9.04c-.31-1.63-.62-3.24-.92-4.82l-.95-4.95s0,.06,0,.09c0,0,0,0,0,0Z" style="fill:#ffc700;"/><path d="M223.37,94.02s-.02,.02-.03,.04c.01-.01,.02-.02,.03-.04Z" style="fill:#e4eeed;"/><path d="M223.44,93.89s0,0,0,0c0,0,0,0,0,0Z" style="fill:#e4eeed;"/><path d="M222.9,94.36s.04-.02,.06-.03c-.02,.01-.04,.02-.06,.03Z" style="fill:#e4eeed;"/><path d="M218.79,94.8s-.05-.05-.06-.08c0,.03,.03,.06,.06,.08Z" style="fill:#e4eeed;"/><path d="M219.02,94.94c-.09-.03-.15-.06-.2-.1,.05,.04,.11,.07,.2,.1Z" style="fill:#e4eeed;"/><path d="M223.18,94.19s.02-.02,.04-.03c-.01,.01-.02,.02-.04,.03Z" style="fill:#e4eeed;"/><path d="M222.59,94.51s.06-.03,.09-.04c-.03,.01-.06,.03-.09,.04Z" style="fill:#e4eeed;"/><path d="M223.04,91.71s0,.06,0,.09t0,0s-.03,.07-.05,.1c0,0-.02,.02-.02,.03,0,.01-.02,.02-.03,.04-.03,.04-.07,.07-.12,.11-.01,.01-.02,.02-.04,.03-.06,.05-.13,.09-.22,.14-.02,.01-.04,.02-.06,.03-.07,.04-.15,.07-.23,.11-.03,.01-.06,.03-.09,.04-.11,.04-.22,.09-.35,.13-1.14,.38-2.58,.52-3.21,.3-.09-.03-.15-.06-.2-.1-.02-.01-.02-.03-.03-.04-.02-.03-.05-.05-.06-.08,0,0,0,0,0-.02l.2,1.04c.07,.37,.14,.73,.2,1.04,0,0,0,0,0,.02,0,.03,.03,.06,.06,.08,0,.01,0,.02,.02,.03,0,0,0,0,.01,0,.05,.04,.11,.07,.2,.1,.64,.21,2.07,.08,3.21-.3,.13-.04,.24-.09,.35-.13,.03-.01,.06-.03,.09-.04,.08-.04,.16-.07,.23-.11,.02-.01,.04-.02,.06-.03,.08-.05,.15-.09,.22-.14,.01-.01,.02-.02,.04-.03,.05-.04,.08-.07,.12-.11,.01-.01,.02-.02,.03-.04,.03-.04,.06-.09,.07-.13,0,0,0,0,0,0,0-.03,.01-.06,0-.09l-.2-1.04s0,0,0,0l-.2-1.04Z" style="fill:#efefef; isolation:isolate;"/><path d="M223.04,91.81s0,0,0,0t0,0Z" style="fill:#ff7485;"/><path d="M222.97,91.93s-.02,.02-.03,.04c.01-.01,.02-.02,.03-.04Z" style="fill:#ff7485;"/><path d="M222.56,92.24s-.04,.02-.06,.03c.02-.01,.04-.02,.06-.03Z" style="fill:#ff7485;"/><path d="M222.82,92.08s-.02,.02-.04,.03c.01-.01,.02-.02,.04-.03Z" style="fill:#ff7485;"/><path d="M218.62,92.86c-.09-.03-.15-.06-.2-.1,.05,.04,.11,.07,.2,.1Z" style="fill:#ff7485;"/><path d="M218.39,92.72s-.05-.05-.06-.08c0,.03,.03,.06,.06,.08Z" style="fill:#ff7485;"/><path d="M222.28,92.38s-.06,.03-.09,.04c.03-.01,.06-.03,.09-.04Z" style="fill:#ff7485;"/><path d="M218.39,92.72s.02,.03,.03,.04c.05,.04,.11,.07,.2,.1,.64,.21,2.07,.08,3.21-.3,.13-.04,.24-.09,.35-.13,.03-.01,.06-.03,.09-.04,.08-.04,.16-.07,.23-.11,.02,0,.04-.02,.06-.03,.08-.05,.15-.09,.22-.14,.01-.01,.02-.02,.04-.03,.05-.04,.09-.07,.12-.11,.01-.01,.02-.02,.03-.04,0,0,.02-.02,.02-.03,.02-.03,.04-.07,.05-.1,0,0,0,0,0,0,0-.03,.01-.06,0-.09h0l-1.06-5.52c-.06-.34-.13-.67-.19-.97-.05-.23-.15-.43-.3-.59-.15-.16-.34-.29-.59-.38-.11-.04-.24-.06-.36-.08-.1-.02-.21-.02-.32-.02-.02,0-.04,0-.07,0-.13,0-.26,0-.39,.01,0,0,0,0,0,0-.14,.01-.27,.03-.39,.05-.03,0-.05,0-.07,.01-.1,.02-.2,.04-.29,.06-.03,0-.06,.01-.08,.02-.23,.06-.41,.11-.45,.13-.04,.01-.07,.03-.11,.04-.06,.02-.12,.05-.17,.07-.04,.02-.08,.03-.11,.05-.02,0-.04,.02-.06,.03-.04,.02-.06,.04-.09,.05-.06,.03-.13,.07-.18,.11-.04,.03-.08,.05-.11,.08-.05,.04-.1,.08-.15,.13-.02,.02-.05,.05-.07,.07-.04,.05-.08,.1-.12,.15-.02,.02-.03,.05-.05,.07-.03,.04-.05,.09-.07,.14-.02,.04-.03,.08-.04,.12,0,.03-.02,.06-.03,.09-.05,.21-.04,.4-.02,.52l.37,1.94c.05,.27,.11,.55,.16,.83l.34,1.79c.13,.68,.26,1.34,.37,1.94,0,0,0,0,0,.02,0,.03,.03,.06,.06,.08Z" style="fill:#fc7464;"/></g><g><path d="M237.11,155.45s0,0,0,0c-.04,.02-.1,.02-.17,.03-.02,0-.04,0-.06,0-.08,0-.17,0-.27-.02-.47-.07-.99-.29-1.17-.48-.04-.05-.06-.09-.06-.12t0,0c-.03,.96-.06,1.91-.09,2.87,0,0,0,.02,.01,.03,.04,.04,.15,.09,.25,.1,.03,0,.06,0,.08,0,0,0,0,0,.01,0,0,0,.02,0,.02-.01,.5-.82,1-1.63,1.5-2.45h0s-.03,.04-.07,.05Z" style="fill:#0075f2;"/><polygon points="235.57 149.13 235.57 149.13 235.57 149.13 235.57 149.13" style="fill:#e4eeed;"/><path d="M240.12,150.57s0,0,0,0c-.03,.03-.07,.06-.12,.08-.01,0-.03,.01-.05,.02-.04,.02-.1,.03-.15,.04-.02,0-.03,0-.05,0-.08,.01-.16,.02-.25,.02-.02,0-.05,0-.07,0-.08,0-.16,0-.25,0-.03,0-.06,0-.1,0-.12-.01-.24-.02-.37-.04-1.19-.19-2.53-.73-2.99-1.21-.06-.07-.1-.13-.13-.18,0-.02,0-.03-.01-.05,0-.03-.02-.05-.02-.08,0,0,0,0,0,0-.06,1.9-.12,3.8-.19,5.69h0s.02,.07,.06,.12c.18,.19,.71,.4,1.17,.48,.1,.02,.19,.02,.27,.02,.02,0,.04,0,.06,0,.07,0,.13-.01,.17-.03,0,0,0,0,0,0,.03-.01,.05-.03,.07-.05h0c.99-1.62,1.98-3.24,2.97-4.86,0,0,0-.02,0-.02,0,.02-.02,.04-.04,.06Z" style="fill:url(#c);"/><path d="M235.57,149.13s0,0,0,0c0,0,0,.01,0,.02,0,.02,.01,.05,.02,.08,0-.04-.02-.07,0-.1Z" style="fill:#0075f2;"/><path d="M239.43,150.74s.05,0,.07,0c-.02,0-.05,0-.07,0Z" style="fill:#0075f2;"/><path d="M239.08,150.73s.06,0,.1,0c-.03,0-.06,0-.1,0Z" style="fill:#0075f2;"/><path d="M235.72,149.47c-.06-.07-.1-.13-.13-.18,.03,.06,.07,.12,.13,.18Z" style="fill:#0075f2;"/><path d="M240.12,150.57s0,0,0,0c0,0,0,0,0,0Z" style="fill:#0075f2;"/><path d="M239.75,150.72s.03,0,.05,0c-.02,0-.03,0-.05,0Z" style="fill:#0075f2;"/><path d="M239.99,150.65s-.03,.01-.05,.02c.02,0,.03-.01,.05-.02Z" style="fill:#0075f2;"/><path d="M259.99,84.24s-.07,.06-.12,.08c-.01,0-.03,.01-.05,.02-.04,.02-.1,.03-.15,.04-.02,0-.03,0-.05,0-.08,.01-.16,.02-.25,.02-.02,0-.04,0-.07,0-.08,0-.16,0-.25,0-.03,0-.06,0-.1,0-.12-.01-.24-.02-.37-.04-1.19-.19-2.53-.73-2.99-1.21-.06-.07-.1-.13-.13-.18,0,0,0,0,0-.01,0-.01,0-.03,0-.04,0-.04-.02-.07,0-.1,0,0,0-.01,0-.02-.47,1.57-.96,3.19-1.45,4.84l-1.4,4.69c-.86,2.87-1.75,5.83-2.65,8.83l-1.57,5.23c-.14,.47-.28,.95-.43,1.42l-3.23,10.77c-.56,1.86-1.11,3.71-1.67,5.56l-.41,1.37c-.53,1.78-1.06,3.54-1.58,5.29l-2.64,8.8c-.48,1.6-.95,3.17-1.41,4.71l-1.44,4.82s0,.01,0,.02c0,0,0,0,0,0,0,.03,0,.07,0,.1,0,.02,0,.03,.01,.05,.03,.06,.07,.12,.13,.18,.46,.48,1.8,1.03,2.99,1.21,.13,.02,.25,.03,.37,.04,.03,0,.06,0,.1,0,.09,0,.17,0,.25,0,.02,0,.05,0,.07,0,.09,0,.18,0,.25-.02,.02,0,.03,0,.05,0,.06-.01,.11-.02,.15-.04,.02,0,.03-.01,.05-.02,.05-.02,.09-.05,.12-.08,0,0,0,0,0,0,.02-.02,.03-.04,.04-.06,0,0,0-.01,.01-.02,.47-1.57,.95-3.18,1.45-4.83l1.41-4.7c.86-2.87,1.74-5.82,2.64-8.82l1.57-5.25c.14-.47,.28-.94,.42-1.41l1.66-5.54c1.08-3.6,2.16-7.2,3.23-10.78l.42-1.41c.53-1.76,1.05-3.51,1.57-5.25l2.64-8.82c.48-1.59,.95-3.16,1.41-4.7l1.45-4.83s-.02,.06-.05,.08c0,0,0,0,0,0Z" style="fill:#ffc700;"/><path d="M259.87,84.32s-.03,.01-.05,.02c.02,0,.03-.01,.05-.02Z" style="fill:#e4eeed;"/><path d="M259.99,84.24s0,0,0,0c0,0,0,0,0,0Z" style="fill:#e4eeed;"/><path d="M259.3,84.41s.05,0,.07,0c-.02,0-.04,0-.07,0Z" style="fill:#e4eeed;"/><path d="M255.45,82.9s-.02-.07,0-.1c0,.03,0,.07,0,.1Z" style="fill:#e4eeed;"/><path d="M255.59,83.14c-.06-.07-.1-.13-.13-.18,.03,.06,.07,.12,.13,.18Z" style="fill:#e4eeed;"/><path d="M259.62,84.39s.03,0,.05,0c-.02,0-.03,0-.05,0Z" style="fill:#e4eeed;"/><path d="M258.95,84.4s.06,0,.1,0c-.03,0-.06,0-.1,0Z" style="fill:#e4eeed;"/><path d="M260.65,82.13s-.02,.06-.05,.08c0,0,0,0,0,0-.02,.02-.05,.05-.09,.07,0,0-.02,0-.03,.01-.01,0-.03,.01-.05,.02-.04,.02-.1,.03-.15,.04-.02,0-.03,0-.05,0-.08,.01-.16,.02-.25,.02-.02,0-.04,0-.07,0-.08,0-.16,0-.25,0-.03,0-.06,0-.1,0-.12-.01-.24-.02-.37-.04-1.19-.19-2.53-.73-2.99-1.21-.06-.07-.1-.13-.13-.18,0-.02,0-.03-.01-.05,0-.04-.02-.07,0-.1,0,0,0-.01,0-.02l-.31,1.02c-.11,.36-.21,.71-.3,1.02,0,0,0,.01,0,.02,0,.03,0,.07,0,.1,0,.01,0,.03,0,.04,0,0,0,0,0,.01,.03,.06,.07,.12,.13,.18,.46,.48,1.8,1.03,2.99,1.21,.13,.02,.26,.03,.37,.04,.03,0,.06,0,.1,0,.09,0,.17,0,.25,0,.02,0,.05,0,.07,0,.09,0,.18,0,.25-.02,.02,0,.03,0,.05,0,.06-.01,.11-.02,.15-.04,.02,0,.03-.01,.05-.02,.05-.02,.09-.05,.12-.08,0,0,0,0,0,0,.02-.02,.04-.05,.05-.08l.3-1.02s0,0,0,0l.3-1.02Z" style="fill:#efefef; isolation:isolate;"/><path d="M260.6,82.21s0,0,0,0c0,0,0,0,0,0Z" style="fill:#ff7485;"/><path d="M260.48,82.29s-.03,.01-.05,.02c.02,0,.03-.01,.05-.02Z" style="fill:#ff7485;"/><path d="M259.98,82.38s-.04,0-.07,0c.02,0,.05,0,.07,0Z" style="fill:#ff7485;"/><path d="M260.28,82.35s-.03,0-.05,0c.02,0,.03,0,.05,0Z" style="fill:#ff7485;"/><path d="M256.2,81.1c-.06-.07-.1-.13-.13-.18,.03,.06,.07,.12,.13,.18Z" style="fill:#ff7485;"/><path d="M256.06,80.87s-.02-.07,0-.1c0,.03,0,.07,0,.1Z" style="fill:#ff7485;"/><path d="M259.66,82.37s-.06,0-.1,0c.03,0,.06,0,.1,0Z" style="fill:#ff7485;"/><path d="M256.06,80.87s0,.03,.01,.05c.03,.06,.07,.12,.13,.18,.46,.48,1.8,1.03,2.99,1.21,.13,.02,.26,.03,.37,.04,.03,0,.06,0,.1,0,.09,0,.17,0,.25,0,.02,0,.05,0,.07,0,.09,0,.18,0,.25-.02,.02,0,.03,0,.05,0,.06-.01,.11-.02,.15-.04,.02,0,.03-.01,.05-.02,.01,0,.02,0,.03-.01,.04-.02,.07-.04,.09-.07,0,0,0,0,0,0,.02-.02,.04-.05,.05-.08h0l1.61-5.38c.1-.33,.19-.65,.28-.95,.07-.23,.07-.45,0-.66-.06-.21-.17-.42-.35-.61-.08-.09-.18-.17-.29-.24-.09-.06-.18-.12-.27-.17-.02-.01-.04-.02-.06-.04-.12-.06-.23-.12-.35-.17,0,0,0,0,0,0-.13-.05-.25-.1-.37-.14-.02,0-.05-.01-.07-.02-.1-.03-.2-.06-.29-.08-.03,0-.06-.01-.08-.02-.23-.06-.41-.09-.46-.1-.04,0-.08,0-.11-.01-.07,0-.13-.01-.19-.02-.04,0-.08,0-.12,0-.02,0-.04,0-.06,0-.04,0-.07,0-.11,0-.07,0-.14,0-.21,.01-.05,0-.09,.01-.14,.02-.07,.01-.13,.03-.19,.04-.03,0-.07,.02-.1,.03-.06,.02-.12,.05-.17,.08-.03,.01-.05,.03-.08,.04-.04,.03-.09,.06-.13,.09-.03,.03-.07,.06-.09,.09-.02,.02-.04,.04-.06,.07-.15,.17-.22,.34-.26,.45l-.57,1.89c-.08,.27-.16,.54-.24,.81l-.52,1.74c-.2,.66-.39,1.31-.57,1.89,0,0,0,.01,0,.02,0,.03,0,.07,0,.1Z" style="fill:#fc7464;"/></g><g><path d="M238.87,165.6s0,0,0,0c-.03,.03-.09,.05-.16,.08-.02,0-.03,.01-.05,.02-.08,.02-.16,.04-.27,.05-.47,.06-1.03,0-1.26-.13-.05-.03-.09-.06-.09-.1t0,0c.24,.93,.48,1.85,.72,2.78,0,0,0,.01,.02,.02,.05,.03,.17,.04,.27,.03,.04,0,.06-.01,.08-.02,0,0,0,0,.01,0,0,0,.02-.01,.02-.02,.25-.92,.51-1.85,.76-2.77t0,0s-.02,.04-.05,.07Z" style="fill:#0075f2;"/><polygon points="235.63 159.97 235.63 159.97 235.63 159.97 235.63 159.97" style="fill:#e4eeed;"/><path d="M240.4,160.08s0,0,0,0c-.02,.04-.05,.07-.1,.11-.01,.01-.03,.02-.04,.03-.04,.03-.08,.06-.14,.08-.01,0-.03,.02-.04,.02-.07,.03-.15,.06-.24,.09-.02,0-.04,.01-.07,.02-.07,.02-.16,.04-.24,.06-.03,0-.06,.01-.09,.02-.12,.02-.24,.04-.37,.06-1.19,.15-2.63,0-3.21-.33-.08-.05-.13-.09-.17-.14-.01-.02-.02-.03-.03-.05-.01-.02-.03-.05-.04-.07,0,0,0,0,0,0,.47,1.84,.94,3.68,1.41,5.52h0s.04,.07,.09,.1c.23,.13,.79,.19,1.26,.13,.1-.01,.19-.03,.27-.05,.02,0,.04-.01,.05-.02,.07-.02,.12-.05,.16-.08,0,0,0,0,0,0,.03-.02,.04-.04,.05-.07h0c.5-1.83,1-3.67,1.5-5.5,0,0,0-.02,0-.03,0,.02,0,.05-.02,.07Z" style="fill:url(#d);"/><path d="M235.63,159.97s0,0,0,0c0,0,0,.02,0,.02,0,.02,.02,.05,.04,.07-.02-.03-.03-.06-.04-.09Z" style="fill:#0075f2;"/><path d="M239.78,160.43s.05-.01,.07-.02c-.02,0-.04,.01-.07,.02Z" style="fill:#0075f2;"/><path d="M239.44,160.51s.06-.01,.09-.02c-.03,0-.06,.01-.09,.02Z" style="fill:#0075f2;"/><path d="M235.86,160.25c-.08-.05-.13-.09-.17-.14,.04,.05,.1,.09,.17,.14Z" style="fill:#0075f2;"/><path d="M240.4,160.08s0,0,0,0c0,0,0,0,0,0Z" style="fill:#0075f2;"/><path d="M240.09,160.32s.03-.01,.04-.02c-.01,0-.03,.02-.04,.02Z" style="fill:#0075f2;"/><path d="M240.3,160.19s-.03,.02-.04,.03c.01,0,.03-.02,.04-.03Z" style="fill:#0075f2;"/><path d="M240.91,90.84s-.05,.07-.1,.11c-.01,.01-.03,.02-.04,.03-.04,.03-.08,.06-.14,.08-.01,0-.03,.02-.04,.02-.07,.03-.15,.06-.24,.09-.02,0-.04,.01-.06,.02-.08,.02-.16,.04-.25,.06-.03,0-.06,.01-.09,.02-.12,.02-.24,.04-.37,.06-1.19,.15-2.63,0-3.21-.33-.08-.05-.13-.09-.17-.14,0,0,0,0-.01,0-.01-.01,0-.03-.02-.04-.02-.03-.03-.06-.04-.09,0,0,0-.01,0-.02-.01,1.64-.02,3.33-.04,5.05l-.04,4.89c-.02,3-.05,6.08-.07,9.22l-.04,5.46c0,.5,0,.99-.01,1.49l-.08,11.24c-.01,1.94-.03,3.88-.04,5.8v1.43c-.02,1.86-.04,3.69-.05,5.52l-.07,9.19c-.01,1.67-.02,3.31-.04,4.92l-.04,5.03s0,.01,0,.02c0,0,0,0,0,0,0,.03,.02,.06,.04,.09,0,.02,.01,.03,.03,.05,.04,.05,.1,.09,.17,.14,.58,.33,2.02,.48,3.21,.33,.13-.02,.25-.04,.37-.06,.03,0,.06-.01,.09-.02,.09-.02,.17-.04,.24-.06,.02,0,.04-.01,.07-.02,.09-.03,.17-.06,.24-.09,.02,0,.03-.01,.04-.02,.05-.03,.1-.05,.14-.08,.01,0,.03-.02,.04-.03,.04-.04,.08-.07,.1-.11,0,0,0,0,0,0,.01-.02,.01-.05,.02-.07,0,0,0-.01,0-.02,.01-1.63,.02-3.32,.04-5.04l.04-4.9c.02-3,.04-6.07,.07-9.21l.04-5.48c0-.49,0-.98,.01-1.48l.04-5.78c.03-3.76,.06-7.52,.08-11.25v-1.48c.02-1.84,.04-3.67,.05-5.48l.07-9.21c.01-1.66,.02-3.3,.04-4.9l.04-5.04s0,.06-.02,.09c0,0,0,0,0,0Z" style="fill:#ffc700;"/><path d="M240.82,90.95s-.03,.02-.04,.03c.01,0,.03-.02,.04-.03Z" style="fill:#e4eeed;"/><path d="M240.91,90.84s0,0,0,0c0,0,0,0,0,0Z" style="fill:#e4eeed;"/><path d="M240.3,91.19s.04-.01,.06-.02c-.02,0-.04,.01-.06,.02Z" style="fill:#e4eeed;"/><path d="M236.18,90.82s-.03-.06-.04-.09c0,.03,.02,.06,.04,.09Z" style="fill:#e4eeed;"/><path d="M236.38,91.01c-.08-.05-.13-.09-.17-.14,.04,.05,.1,.09,.17,.14Z" style="fill:#e4eeed;"/><path d="M240.6,91.08s.03-.02,.04-.02c-.01,0-.03,.02-.04,.02Z" style="fill:#e4eeed;"/><path d="M239.96,91.27s.06-.01,.09-.02c-.03,0-.06,.01-.09,.02Z" style="fill:#e4eeed;"/><path d="M240.95,88.62s0,.06-.02,.09c0,0,0,0,0,0-.02,.03-.04,.06-.07,.09,0,0-.02,.01-.03,.02-.01,.01-.03,.02-.04,.03-.04,.03-.08,.06-.14,.08-.01,0-.03,.02-.04,.02-.07,.03-.15,.06-.24,.09-.02,0-.04,.01-.06,.02-.08,.02-.16,.04-.25,.06-.03,0-.06,.01-.09,.02-.12,.02-.24,.04-.37,.06-1.19,.15-2.63,0-3.21-.33-.08-.05-.13-.09-.17-.14-.01-.02-.02-.03-.03-.05-.02-.03-.03-.06-.04-.09,0,0,0-.01,0-.02v1.06c-.01,.37-.01,.74-.02,1.06,0,0,0,.01,0,.02,0,.03,.02,.06,.04,.09,0,.01,0,.03,.02,.04,0,0,0,0,.01,0,.04,.05,.1,.09,.17,.14,.58,.33,2.02,.48,3.21,.33,.13-.02,.25-.04,.37-.06,.03,0,.06-.01,.09-.02,.09-.02,.17-.04,.25-.06,.02,0,.04-.01,.06-.02,.09-.03,.17-.06,.24-.09,.02,0,.03-.02,.04-.02,.05-.03,.1-.05,.14-.08,.01,0,.03-.02,.04-.03,.04-.04,.08-.07,.1-.11,0,0,0,0,0,0,.02-.03,.02-.06,.02-.09v-1.06s0,0,0,0v-1.06Z" style="fill:#efefef; isolation:isolate;"/><path d="M240.93,88.71s0,0,0,0c0,0,0,0,0,0Z" style="fill:#ff7485;"/><path d="M240.83,88.82s-.03,.02-.04,.03c.01,0,.03-.02,.04-.03Z" style="fill:#ff7485;"/><path d="M240.38,89.05s-.04,.01-.06,.02c.02,0,.04-.01,.06-.02Z" style="fill:#ff7485;"/><path d="M240.66,88.93s-.03,.02-.04,.02c.02,0,.03-.01,.04-.02Z" style="fill:#ff7485;"/><path d="M236.39,88.88c-.08-.05-.13-.09-.17-.14,.04,.05,.1,.09,.17,.14Z" style="fill:#ff7485;"/><path d="M236.19,88.7s-.03-.06-.04-.09c0,.03,.02,.06,.04,.09Z" style="fill:#ff7485;"/><path d="M240.07,89.13s-.06,.01-.09,.02c.03,0,.06-.01,.09-.02Z" style="fill:#ff7485;"/><path d="M236.19,88.7s.01,.03,.03,.05c.04,.05,.1,.09,.17,.14,.58,.33,2.02,.48,3.21,.33,.13-.02,.25-.04,.37-.06,.03,0,.06-.01,.09-.02,.09-.02,.17-.04,.25-.06,.02,0,.04-.01,.06-.02,.09-.03,.17-.06,.24-.09,.02,0,.03-.02,.04-.02,.05-.03,.1-.05,.14-.08,.01,0,.03-.02,.04-.03,0,0,.02-.01,.03-.02,.03-.03,.05-.06,.07-.09,0,0,0,0,0,0,.02-.03,.02-.06,.02-.09h0l.04-5.62c0-.34,0-.68,0-.99,0-.24-.06-.45-.18-.64-.11-.19-.28-.35-.51-.49-.11-.06-.22-.11-.34-.15-.1-.04-.2-.06-.31-.09-.02,0-.04-.01-.06-.02-.13-.03-.26-.05-.38-.06,0,0,0,0,0,0-.14-.02-.27-.03-.4-.03-.03,0-.05,0-.08,0-.11,0-.21,0-.3,0-.03,0-.06,0-.09,0-.24,0-.42,.03-.47,.03-.04,0-.07,.01-.11,.02-.07,.01-.13,.02-.18,.03-.04,0-.08,.02-.12,.03-.02,0-.04,0-.06,.01-.04,.01-.07,.02-.1,.04-.07,.02-.14,.04-.2,.07-.04,.02-.09,.04-.13,.06-.06,.03-.12,.06-.17,.09-.03,.02-.06,.04-.08,.06-.05,.04-.1,.08-.14,.12-.02,.02-.04,.04-.06,.06-.03,.04-.07,.08-.1,.12-.03,.04-.05,.07-.07,.11-.01,.03-.03,.05-.04,.08-.09,.2-.12,.39-.12,.51v1.97c-.02,.28-.02,.56-.02,.84v1.82c-.02,.69-.02,1.37-.03,1.97,0,0,0,.01,0,.02,0,.03,.02,.06,.04,.09Z" style="fill:#fc7464;"/></g><path d="M267.15,113.64v77.22c0,2.51-11.49,4.55-25.68,4.55s-25.69-2.04-25.69-4.55V113.64c0,2.51,11.5,4.55,25.69,4.55s25.68-2.04,25.68-4.55Z" style="fill:#d19c5e;"/></g><g><path d="M277.36,217.96l-190.45,39.37-44.7-19.2c-.95-.39-1.39-1.58-.79-2.41,.2-.28,.5-.49,.86-.56l162.09-40.12,72.99,22.92Z" style="fill:#e6e6e6; mix-blend-mode:multiply;"/><g><polygon points="185.84 235.58 86.43 258.43 25.75 168.73 26.18 167.32 117.45 155.89 185.84 235.58" style="fill:#ffc700;"/><polygon points="277.36 217.96 185.84 235.58 117.45 155.89 200.14 144.69 277.36 216.96 277.36 217.96" style="fill:#ffc700;"/></g><g><path d="M185.12,235.11c-10.52-7.77-58.15,7.71-97.03,17.71l-54-81c35.4-8.46,80.09-22.31,86.05-13.68l64.97,76.97Z" style="fill:#ccc;"/><path d="M272.89,212.79c-36.7,8.37-78.71,9.58-87.78,22.38l-64.97-77.03h0c1.62-3.49,4.64-5.83,8.07-6.26l70.86-8.94,73.82,69.86Z" style="fill:#e4e4e4;"/></g><g><path d="M184.72,233.61c-10.52-7.77-58.15,7.71-97.03,17.71l-54-81c35.4-8.46,80.09-22.31,86.05-13.68l64.97,76.97Z" style="fill:#e4e4e4;"/><path d="M272.49,211.3c-36.7,8.37-78.71,9.57-87.78,22.38l-64.97-77.03h0c1.62-3.49,4.64-5.83,8.07-6.26l70.86-8.95,73.82,69.86Z" style="fill:#cdcdcd;"/></g><path d="M184.46,232.03s-.06-.04-.1-.07c-10.7-7.61-58.17,7.81-96.93,17.77l-17.18-25.76-36.82-55.24c35.39-8.46,80.08-22.31,86.05-13.68l9.43,11.17,55.54,65.81Z" style="fill:#fff;"/><path d="M272.25,209.71c-36.7,8.37-78.72,9.57-87.78,22.38l-.1-.12-55.44-65.73-9.43-11.17c.8-1.74,1.97-3.2,3.35-4.27,1.39-1.08,3-1.76,4.71-1.99l24.42-3.09,46.45-5.85,73.83,69.85Z" style="fill:#fff;"/><g><g><g><path d="M264.79,207.35c-33.11,7.55-71.01,8.64-79.19,20.19l-58.62-69.49h0c1.46-3.15,4.19-5.26,7.28-5.65l63.93-8.07,66.6,63.02Z" style="fill:none; stroke:#e6e6e6; stroke-miterlimit:10;"/><g><path d="M129.73,161.31l.64-.59c3.44-3.16,7.6-5.13,11.98-5.7l59.02-7.65h.01" style="fill:none; stroke:#e6e6e6; stroke-miterlimit:10;"/><path d="M133.27,165.52l.72-.66c3.44-3.15,7.6-5.12,11.98-5.69l59.7-7.74" style="fill:none; stroke:#e6e6e6; stroke-miterlimit:10;"/><path d="M136.67,169.53l.5-.46c3.44-3.16,7.6-5.13,11.97-5.7l60.83-7.88" style="fill:none; stroke:#e6e6e6; stroke-miterlimit:10;"/><path d="M140.06,173.56l.29-.27c3.44-3.16,7.6-5.13,11.97-5.7l61.96-8.02" style="fill:none; stroke:#e6e6e6; stroke-miterlimit:10;"/><path d="M143.44,177.57l.09-.08c3.44-3.16,7.6-5.13,11.97-5.69l63.07-8.19" style="fill:none; stroke:#e6e6e6; stroke-miterlimit:10;"/><path d="M146.84,181.59c3.42-3.09,7.52-5.03,11.84-5.59l64.19-8.31" style="fill:none; stroke:#e6e6e6; stroke-miterlimit:10;"/><path d="M150.22,185.6c3.38-2.98,7.4-4.84,11.63-5.39l65.32-8.46" style="fill:none; stroke:#e6e6e6; stroke-miterlimit:10;"/><path d="M153.61,189.63c3.37-2.86,7.85-4.74,22.25-6.54l55.66-7.21" style="fill:none; stroke:#e6e6e6; stroke-miterlimit:10;"/><path d="M157.01,193.65c3.28-2.76,7.14-4.49,11.2-5.02l67.38-8.91" style="fill:none; stroke:#e6e6e6; stroke-miterlimit:10;"/><path d="M160.4,197.68c3.24-2.65,7.02-4.32,10.98-4.84l68.28-9.26" style="fill:none; stroke:#e6e6e6; stroke-miterlimit:10;"/><path d="M163.8,201.7c3.2-2.55,6.9-4.15,10.76-4.65l68.93-9.84" style="fill:none; stroke:#e6e6e6; stroke-miterlimit:10;"/><path d="M167.69,206.32l.27-.24c3.44-3.15,7.6-5.13,11.97-5.69l67.33-9.61" style="fill:none; stroke:#e6e6e6; stroke-miterlimit:10;"/><path d="M171.63,210.98l1.71-1.57c3.44-3.15,7.6-5.12,11.97-5.69l65.72-9.38" style="fill:none; stroke:#e6e6e6; stroke-miterlimit:10;"/><path d="M175.96,216.11l2.05-1.88c3.44-3.16,7.6-5.13,11.98-5.7l64.51-10.9" style="fill:none; stroke:#e6e6e6; stroke-miterlimit:10;"/><path d="M180.35,221.32l2.14-1.96c3.44-3.16,7.6-5.13,11.97-5.7l65.32-11.04" style="fill:none; stroke:#e6e6e6; stroke-miterlimit:10;"/></g></g><line x1="130.31" y1="153.98" x2="189.43" y2="224.02" style="fill:none; stroke:#e6e6e6; stroke-miterlimit:10;"/><line x1="135.74" y1="152.33" x2="193.55" y2="221.84" style="fill:none; stroke:#e6e6e6; stroke-miterlimit:10;"/><line x1="141.05" y1="151.43" x2="198.38" y2="220.36" style="fill:none; stroke:#e6e6e6; stroke-miterlimit:10;"/><line x1="146.62" y1="150.84" x2="203.21" y2="218.88" style="fill:none; stroke:#e6e6e6; stroke-miterlimit:10;"/><line x1="152.11" y1="150.15" x2="208.04" y2="217.4" style="fill:none; stroke:#e6e6e6; stroke-miterlimit:10;"/><line x1="157.72" y1="149.44" x2="213.37" y2="216.35" style="fill:none; stroke:#e6e6e6; stroke-miterlimit:10;"/><line x1="162.33" y1="148.62" x2="217.98" y2="215.53" style="fill:none; stroke:#e6e6e6; stroke-miterlimit:10;"/><line x1="167.28" y1="148.21" x2="224.44" y2="214.48" style="fill:none; stroke:#e6e6e6; stroke-miterlimit:10;"/><line x1="172.03" y1="147.56" x2="229.69" y2="213.64" style="fill:none; stroke:#e6e6e6; stroke-miterlimit:10;"/><line x1="177.17" y1="146.87" x2="236" y2="212.65" style="fill:none; stroke:#e6e6e6; stroke-miterlimit:10;"/><line x1="181.7" y1="146.41" x2="243.49" y2="211.43" style="fill:none; stroke:#e6e6e6; stroke-miterlimit:10;"/><line x1="186.53" y1="145.8" x2="251.03" y2="210.13" style="fill:none; stroke:#e6e6e6; stroke-miterlimit:10;"/></g><line x1="192.02" y1="145.11" x2="258.31" y2="208.74" style="fill:none; stroke:#e6e6e6; stroke-miterlimit:10;"/></g><g><g><g><path d="M88.79,245.01c37.69-8.88,65.59-22.89,86.65-18.37l-58.05-67.27h0c-5.6-1.92-10.66-2.73-13.48-2.13l-64.68,13.79,49.57,73.97Z" style="fill:none; stroke:#e6e6e6; stroke-miterlimit:10;"/><g><path d="M41.62,174.61h0s60.24-12.98,60.24-12.98c4.07-.87,9.98-.62,17,.72l1.29,.24" style="fill:none; stroke:#e6e6e6; stroke-miterlimit:10;"/><path d="M44.82,179.37l60.59-13.53c4.05-.9,9.92-.68,16.89,.61l1.45,.27" style="fill:none; stroke:#e6e6e6; stroke-miterlimit:10;"/><path d="M48.01,184.14l61.35-14.19c4.01-.92,9.84-.73,16.78,.53l1,.18" style="fill:none; stroke:#e6e6e6; stroke-miterlimit:10;"/><path d="M51.22,188.93l62.07-14.86c3.97-.94,9.77-.79,16.67,.44l.58,.1" style="fill:none; stroke:#e6e6e6; stroke-miterlimit:10;"/><path d="M54.4,193.68l62.83-15.52c3.92-.98,9.68-.85,16.53,.34l.17,.03" style="fill:none; stroke:#e6e6e6; stroke-miterlimit:10;"/><path d="M57.61,198.46l63.51-16.23c3.85-.98,9.48-.9,16.19,.21" style="fill:none; stroke:#e6e6e6; stroke-miterlimit:10;"/><path d="M60.81,203.25l64.21-16.95c3.74-.99,9.17-.97,15.65,.05" style="fill:none; stroke:#e6e6e6; stroke-miterlimit:10;"/><path d="M64.05,208.07l55.23-15.04c12.77-3.54,18.49-3.69,24.77-2.79" style="fill:none; stroke:#e6e6e6; stroke-miterlimit:10;"/><path d="M67.07,212.59l65.7-18.2c3.53-.99,8.59-1.07,14.63-.24" style="fill:none; stroke:#e6e6e6; stroke-miterlimit:10;"/><path d="M70.11,217.11l66.51-18.71c3.44-.98,8.32-1.1,14.15-.37" style="fill:none; stroke:#e6e6e6; stroke-miterlimit:10;"/><path d="M72.96,221.37l67.51-18.95c3.31-.99,8.02-1.15,13.64-.5" style="fill:none; stroke:#e6e6e6; stroke-miterlimit:10;"/><path d="M75.76,225.56l65.82-18.96c3.74-1.15,9.28-1.24,15.87-.3l.5,.07" style="fill:none; stroke:#e6e6e6; stroke-miterlimit:10;"/><path d="M78.57,229.74l64.12-18.95c3.76-1.17,9.29-1.3,15.88-.4l3.24,.45" style="fill:none; stroke:#e6e6e6; stroke-miterlimit:10;"/><path d="M81.14,233.6l65.21-17.86c3.74-1.2,9.24-1.37,15.81-.5l3.87,.51" style="fill:none; stroke:#e6e6e6; stroke-miterlimit:10;"/><path d="M85.07,239.45l65.57-18.63c3.71-1.23,9.16-1.44,15.69-.61l4,.5" style="fill:none; stroke:#e6e6e6; stroke-miterlimit:10;"/></g></g><line x1="109.1" y1="157.29" x2="168.29" y2="225.78" style="fill:none; stroke:#e6e6e6; stroke-miterlimit:10;"/><line x1="102.71" y1="157.62" x2="162.67" y2="225.89" style="fill:none; stroke:#e6e6e6; stroke-miterlimit:10;"/><line x1="97.43" y1="158.5" x2="157.48" y2="226.73" style="fill:none; stroke:#e6e6e6; stroke-miterlimit:10;"/><line x1="92.34" y1="159.71" x2="152.2" y2="227.58" style="fill:none; stroke:#e6e6e6; stroke-miterlimit:10;"/><line x1="87.08" y1="160.83" x2="146.83" y2="228.44" style="fill:none; stroke:#e6e6e6; stroke-miterlimit:10;"/><line x1="81.6" y1="162" x2="141.66" y2="229.8" style="fill:none; stroke:#e6e6e6; stroke-miterlimit:10;"/><line x1="76.66" y1="162.79" x2="137.24" y2="231.06" style="fill:none; stroke:#e6e6e6; stroke-miterlimit:10;"/><line x1="72.03" y1="164.02" x2="131.09" y2="232.92" style="fill:none; stroke:#e6e6e6; stroke-miterlimit:10;"/><line x1="67.11" y1="165.02" x2="126.02" y2="234.46" style="fill:none; stroke:#e6e6e6; stroke-miterlimit:10;"/><line x1="61.71" y1="166.12" x2="119.85" y2="236.36" style="fill:none; stroke:#e6e6e6; stroke-miterlimit:10;"/><line x1="57.13" y1="167.22" x2="112.3" y2="238.65" style="fill:none; stroke:#e6e6e6; stroke-miterlimit:10;"/><line x1="51.99" y1="168.32" x2="104.4" y2="240.95" style="fill:none; stroke:#e6e6e6; stroke-miterlimit:10;"/></g><line x1="46.03" y1="169.59" x2="96.36" y2="243.13" style="fill:none; stroke:#e6e6e6; stroke-miterlimit:10;"/></g><g><path d="M78.5,192.91c-1.09-1.03-1.97-2.25-3-3.33-.1-.1-.2-.21-.3-.31-.08-.09-.16-.18-.19-.23-.03-.05-.06-.09-.09-.14l-.02-.05c.02,.06,.02,.06,0,0v-.04c0,.08,0,.09,0,.02-.01,.08-.01,.09,0,.03-.03,.07-.03,.07,0,.01l-.02,.04s.05-.05,.02-.03c.06-.03,.12-.08,.19-.11,.12-.06,.25-.11,.38-.16,.28-.1,.56-.19,.85-.25,.12-.03,.23-.05,.35-.06-.12,.02,.06,0,.07,0,.05,0,.1,0,.16-.01,.1,0,.2,0,.29,0,.05,0,.09,0,.14,0,.16,.01-.03-.02,.06,0,.08,.02,.15,.03,.23,.05,.04,.01,.07,.03,.11,.03,.12,.03-.11-.06,0,0,.05,.03,.12,.07,.17,.1,.04,.02,.11,.1-.01-.02,.03,.03,.06,.05,.09,.08,.02,.02,.04,.05,.06,.06,.08,.06-.06-.12-.02-.03,.02,.04,.05,.1,.08,.14-.1-.14-.02-.04,0,.04,0,.02,0,.05,.01,.08-.05-.18,0-.08-.01-.02,0,.02,0,.06,0,.08,.01,.1,.04-.14,0-.05-.02,.05-.04,.11-.04,.16-.02,.1,.07-.12,.01-.03-.02,.02-.03,.05-.04,.08-.01,.03-.03,.05-.05,.08-.07,.13,.06-.05,0,0-.06,.05-.11,.11-.16,.16-.03,.03-.12,.09,0,0-.04,.03-.08,.06-.12,.08-.08,.05-.16,.09-.24,.13-.12,.07,.12-.04-.02,0-.05,.02-.11,.04-.16,.06-.1,.03-.21,.06-.31,.08-.05,0-.1,.02-.15,.03,.13-.02-.08,0-.11,.01-.27,.02-.54,.02-.82,0-.31-.03-.57,.28-.57,.57,0,.33,.26,.54,.57,.57,.96,.08,2.07-.07,2.79-.79,.53-.53,.73-1.38,.29-2.03-.54-.8-1.6-.94-2.49-.82-.69,.09-1.41,.29-2.02,.62-.68,.36-.91,1.07-.5,1.73,.2,.32,.48,.6,.74,.87,.32,.33,.61,.69,.91,1.04,.66,.78,1.32,1.56,2.07,2.27,.53,.5,1.34-.3,.8-.8h0Z" style="fill:#394547;"/><path d="M80.34,188.55c.72,.68,1.74,1,2.64,1.39,1.1,.48,2.06,1.19,3.15,1.68,.39,.18,.84-.03,.86-.49,.02-.76-.36-1.46-.74-2.09-.32-.54-.8-1.18-.85-1.79-.02-.31-.25-.57-.57-.57-.29,0-.59,.26-.57,.57,.05,.77,.44,1.44,.83,2.08,.33,.55,.77,1.17,.75,1.8l.86-.49c-1.06-.48-2-1.18-3.07-1.65-.47-.21-.94-.39-1.41-.61-.38-.18-.81-.38-1.08-.64-.53-.5-1.34,.3-.8,.8h0Z" style="fill:#394547;"/><path d="M88.83,188.43c.64-.12,1.26-.33,1.89-.51,.31-.09,.62-.18,.94-.24,.08-.02,.16-.03,.24-.04,.05,0,.07,0,0,0,.03,0,.07,0,.1-.01,.14-.01,.29-.02,.44,0,.3,.02,.58-.27,.57-.57-.01-.32-.25-.55-.57-.57-.66-.04-1.34,.14-1.97,.33s-1.28,.41-1.95,.53c-.3,.05-.47,.42-.4,.7,.09,.32,.4,.45,.7,.4h0Z" style="fill:#394547;"/><path d="M91.23,187.97c-.25,.09-.5,.23-.58,.5-.07,.24,0,.5,.17,.68,.2,.2,.47,.19,.73,.17,.18,0,.35-.03,.53-.05,.71-.09,1.4-.27,2.11-.41,.29-.06,.49-.42,.4-.7-.1-.31-.39-.46-.7-.4-.45,.09-.9,.2-1.35,.29-.11,.02-.23,.04-.34,.06-.05,0-.11,.02-.16,.02-.07,0-.07,.01,0,0-.03,0-.05,0-.08,0-.24,.03-.48,.04-.72,.04l.4,.17c.18,.21,.15,.45-.09,.69-.08,.03-.09,.03-.02,0,.28-.1,.5-.39,.4-.7-.09-.28-.4-.5-.7-.4h0Z" style="fill:#394547;"/><path d="M96.09,181.36c1.34,1.14,2.74,2.21,4.15,3.26,.34,.26,.88-.09,.86-.49-.03-.5-.29-.98-.46-1.45-.1-.29-.46-1.13-.16-1.38,.47-.39,1.34,.39,1.64,.67,.49,.46,1.02,1,1.32,1.62l.98-.57c-.32-.46-.64-.92-.88-1.43-.11-.23-.23-.5-.25-.76,0-.09-.02-.22,.05-.3,.11-.13,.05-.06,.19-.01,.76,.22,1.56,.79,2.17,1.28,.58,.46,1.09,.98,1.59,1.52s1.3-.27,.8-.8c-.68-.74-1.41-1.43-2.23-2.01-.46-.32-.96-.61-1.47-.84s-.99-.52-1.53-.2c-1.6,.95-.15,3.11,.57,4.13,.42,.6,1.3,.09,.98-.57-.38-.78-1.09-1.52-1.75-2.07-.73-.6-1.73-1.14-2.68-.66-.78,.39-.82,1.27-.65,2.02,.08,.37,.22,.73,.35,1.09,.06,.16,.12,.32,.18,.48,.02,.07,.09,.4,.08,.26l.86-.49c-1.33-1-2.65-2.01-3.92-3.09-.55-.47-1.36,.33-.8,.8h0Z" style="fill:#394547;"/><path d="M99.93,186.91c4.05-.85,8.02-2.08,12.09-2.87,.72-.14,.41-1.24-.3-1.1-4.07,.8-8.03,2.03-12.09,2.87-.72,.15-.41,1.25,.3,1.1h0Z" style="fill:#394547;"/><path d="M108.56,192.7c-.46-.4-.65-.91-.95-1.42s-.71-.94-1.13-1.35c-.78-.76-1.9-1.51-2.33-2.55l-.7,.7c2.39,.46,4.3,2.19,6.66,2.8,.43,.11,.96-.42,.64-.83-.44-.58-.85-1.19-1.17-1.85-.17-.37-.62-1.31-.17-1.64h-.57c1.93,1.33,3.12,3.45,5.15,4.69,.63,.38,1.2-.6,.57-.98-2.01-1.23-3.21-3.36-5.15-4.69-.15-.1-.42-.11-.57,0-1.72,1.28-.02,3.82,.93,5.05l.64-.83c-2.36-.61-4.26-2.34-6.66-2.8-.37-.07-.88,.26-.7,.7,.49,1.17,1.49,1.98,2.39,2.82,.45,.43,.92,.86,1.22,1.41,.32,.58,.58,1.14,1.09,1.59,.55,.48,1.35-.32,.8-.8h0Z" style="fill:#394547;"/><path d="M113.39,181.51c1.07,.67,1.83,1.69,2.62,2.65s1.73,1.96,2.92,2.52c.28,.13,.61,.08,.78-.2,.14-.25,.07-.65-.2-.78-1.16-.55-1.99-1.49-2.79-2.46s-1.64-2.01-2.76-2.71c-.62-.39-1.19,.59-.57,.98h0Z" style="fill:#394547;"/><path d="M114.64,181.62c.7-.23,1.39-.53,2.12-.62,.35-.04,.7-.04,1.04,.06,.18,.05,.33,.14,.49,.24-.04-.02,.07,.07,.08,.07-.02,0-.02-.03-.02-.03,0,.1-.02-.2,0-.11,0,0,.06-.06-.01,.02-.01,.02,.05-.04-.03,.04-.05,.04-.09,.09-.14,.13-.11,.09-.42,.27-.62,.37-.47,.25-.99,.46-1.42,.78-.35,.26-.4,.94,.14,1.04,.81,.15,1.63,.23,2.44,.37,.69,.12,1.49,.23,2.07,.65,.25,.18,.63,.04,.78-.2,.17-.29,.05-.6-.2-.78-.64-.46-1.49-.62-2.25-.75-.84-.15-1.69-.23-2.53-.39l.14,1.04c.52-.4,1.17-.62,1.73-.95s1.24-.86,1-1.6c-.29-.9-1.58-1.19-2.39-1.16-.95,.04-1.81,.39-2.7,.69-.69,.23-.4,1.32,.3,1.1h0Z" style="fill:#394547;"/><path d="M119.9,179.96c1.31-.26,2.6-.66,3.93-.87,.3-.05,.47-.43,.4-.7-.09-.32-.39-.44-.7-.4-1.33,.21-2.61,.6-3.93,.87-.3,.06-.47,.42-.4,.7,.09,.31,.4,.46,.7,.4h0Z" style="fill:#394547;"/><path d="M121.45,179.62c1.48,1.52,3.21,2.76,4.68,4.28,.51,.53,1.31-.28,.8-.8-1.47-1.52-3.21-2.76-4.68-4.28-.51-.53-1.31,.28-.8,.8h0Z" style="fill:#394547;"/></g><g><path d="M90.83,211.92c-1.06-1.01-1.92-2.19-2.92-3.25-.19-.2-.39-.39-.55-.61-.04-.06-.09-.13-.12-.19,.03,.05-.05-.04-.01-.02,0,.04,0,.03,0-.04,0,.02,0,.04,0,.06,.02,0-.03,.03,0,.02,.02,0,.14-.09,.16-.1,.11-.06,.23-.11,.35-.15,.29-.11,.58-.2,.88-.27,.19-.04,.37-.07,.56-.09,.1,0,.2,0,.3,0,.04,0,.29,.02,.2,0,.15,.02,.3,.06,.44,.12-.12-.05,.05,.04,.08,.05,.02,.01,.05,.03,.07,.05,.04,.03-.08-.08,0,.01,.03,.03,.14,.17,.05,.04,.03,.05,.06,.09,.08,.14-.03-.05-.05-.04,0,.04,0,.01,.01,.05,.01,.07-.04-.15,0-.06,0-.01,0,.07-.02,.14,0,.02-.01,.06-.03,.12-.04,.18-.02,.07,.06-.08-.02,.04-.02,.04-.13,.19-.05,.08-.2,.24-.41,.36-.69,.45-.46,.15-.89,.15-1.39,.11-.66-.06-.73,.93-.15,1.12l5.11,1.68,.73,.24c.7,.23,1-.87,.3-1.1l-5.11-1.68-.73-.24-.15,1.12c.96,.08,2.09-.07,2.8-.8,.52-.54,.71-1.38,.26-2.03-.56-.82-1.64-.92-2.54-.79-1.09,.15-3.36,.79-2.48,2.31,.2,.33,.49,.62,.75,.9,.3,.31,.58,.64,.86,.97,.68,.81,1.37,1.62,2.13,2.35,.53,.5,1.34-.3,.8-.8h0Z" style="fill:#394547;"/><path d="M93.67,206.2c.47,.88,1.37,1.51,2.1,2.16,.89,.79,1.57,1.76,2.45,2.56,.54,.49,1.34-.31,.8-.8-.85-.79-1.53-1.74-2.39-2.52-.38-.34-.78-.68-1.16-1.03-.17-.16-.35-.33-.5-.51-.03-.04-.07-.07-.1-.11-.12-.14,.05,.08-.05-.06-.06-.08-.11-.17-.16-.26-.14-.27-.52-.35-.78-.2-.27,.16-.35,.51-.2,.78h0Z" style="fill:#394547;"/><path d="M101.15,207.43c.64-.12,1.26-.33,1.89-.51,.31-.09,.62-.18,.94-.24,.08-.02,.16-.03,.24-.04,.05,0,.07,0,0,0,.03,0,.07,0,.1-.01,.15-.01,.29-.02,.44,0,.3,.02,.58-.27,.57-.57-.01-.32-.25-.55-.57-.57-.66-.04-1.34,.14-1.97,.33s-1.28,.41-1.95,.53c-.3,.05-.47,.42-.4,.7,.09,.32,.4,.45,.7,.4h0Z" style="fill:#394547;"/><path d="M103.56,208.34c1.01,.01,1.98-.27,2.96-.47,.29-.06,.49-.42,.4-.7-.1-.31-.39-.46-.7-.4-.45,.09-.9,.2-1.35,.29-.11,.02-.23,.04-.34,.06-.05,0-.11,.02-.16,.02-.07,0-.07,.01,0,0-.03,0-.05,0-.08,0-.24,.03-.48,.04-.72,.04-.3,0-.58,.26-.57,.57s.25,.56,.57,.57h0Z" style="fill:#394547;"/><path d="M108.42,200.37c1.34,1.14,2.74,2.21,4.15,3.26,.34,.26,.88-.09,.86-.49-.03-.5-.29-.98-.46-1.45-.1-.29-.46-1.13-.16-1.38,.47-.39,1.34,.39,1.64,.67,.49,.46,1.02,1,1.32,1.62l.98-.57c-.32-.46-.64-.92-.88-1.43-.11-.23-.23-.5-.25-.76,0-.09-.02-.22,.05-.3,.11-.13,.05-.06,.19-.01,.76,.22,1.56,.79,2.17,1.28,.58,.46,1.09,.98,1.59,1.52s1.3-.27,.8-.8c-.68-.74-1.41-1.43-2.23-2.01-.46-.32-.96-.61-1.47-.84s-.99-.52-1.53-.2c-1.6,.94-.15,3.11,.57,4.13,.42,.6,1.3,.09,.98-.57-.38-.78-1.09-1.52-1.75-2.07-.73-.6-1.73-1.14-2.68-.66-.78,.39-.82,1.27-.65,2.02,.08,.37,.22,.73,.35,1.09,.06,.16,.12,.32,.18,.48,.02,.07,.09,.4,.08,.26l.86-.49c-1.33-1-2.65-2.01-3.92-3.09-.55-.47-1.36,.33-.8,.8h0Z" style="fill:#394547;"/><path d="M112.25,205.91c4.05-.85,8.02-2.08,12.09-2.87,.72-.14,.41-1.24-.3-1.1-4.07,.8-8.03,2.03-12.09,2.87-.72,.15-.41,1.25,.3,1.1h0Z" style="fill:#394547;"/><path d="M120.88,211.7c-.46-.4-.65-.91-.95-1.42s-.71-.94-1.13-1.35c-.78-.76-1.9-1.51-2.33-2.55l-.7,.7c2.39,.46,4.3,2.19,6.66,2.8,.43,.11,.96-.42,.64-.83-.44-.58-.85-1.19-1.17-1.85-.17-.37-.62-1.31-.17-1.64h-.57c1.93,1.33,3.12,3.45,5.15,4.69,.63,.38,1.2-.6,.57-.98-2.01-1.23-3.21-3.36-5.15-4.69-.15-.1-.42-.11-.57,0-1.72,1.28-.02,3.82,.93,5.05l.64-.83c-2.36-.61-4.26-2.34-6.66-2.8-.37-.07-.88,.26-.7,.7,.49,1.17,1.49,1.98,2.39,2.82,.45,.43,.92,.86,1.22,1.41,.32,.58,.58,1.14,1.09,1.59,.55,.48,1.35-.32,.8-.8h0Z" style="fill:#394547;"/></g><g><path d="M162.25,169.82c-1.47-.34-4.03-.73-4.52,1.27-.39,1.59,1.91,2.1,2.99,2.38,1.47,.38,2.97,.71,4.39,1.25,.57,.22,1.32,.5,1.69,1.01,.24,.32,.19,.61-.09,.83-.51,.42-1.31,.5-1.94,.5-.83,0-1.67-.14-2.4-.53-.64-.35-1.22,.63-.57,.98,1.31,.71,2.99,.89,4.43,.5,1.19-.32,2.33-1.34,1.68-2.66s-2.46-1.77-3.7-2.14c-1.51-.45-3.11-.69-4.57-1.26-.54-.21-1.08-.45-.57-.96,.67-.68,2.11-.26,2.89-.08,.71,.17,1.02-.93,.3-1.1h0Z" style="fill:#394547;"/><path d="M165.54,170.48c.91,1.21,1.94,2.34,3.04,3.39,1.22,1.16,2.56,2.26,4.06,3.03,.65,.33,1.23-.65,.57-.98-1.42-.73-2.67-1.76-3.83-2.85-1.03-.97-2.01-2.02-2.86-3.16-.18-.25-.49-.37-.78-.2-.24,.14-.39,.53-.2,.78h0Z" style="fill:#394547;"/><path d="M171.53,171.82c1.26,1.58,2.39,3.26,4,4.52,.46,.36,1.29-.1,.89-.69-.66-.98-1.46-1.89-2-2.95-.2-.39-.37-.84-.31-1.28,.07-.49,.45-.88,.83-1.17l-.44,.06c1.37,.36,2.49,1.4,3.44,2.41,.9,.95,1.67,2,2.49,3.02,.46,.57,1.26-.24,.8-.8-1.34-1.68-2.62-3.44-4.39-4.71-.44-.32-.91-.59-1.41-.79-.23-.09-.53-.24-.78-.23-.32,0-.64,.33-.85,.55-.8,.8-1.02,1.87-.64,2.92,.49,1.33,1.49,2.41,2.27,3.57l.89-.69c-1.61-1.25-2.74-2.94-4-4.52-.46-.57-1.26,.24-.8,.8h0Z" style="fill:#394547;"/><path d="M182.83,174.59c-.64-2.25-2.34-3.98-3.44-5.99l-.64,.83c1.57,.22,3.03,1.16,4.34,2s2.55,1.78,3.8,2.71c.59,.43,1.16-.55,.57-.98-1.28-.95-2.56-1.91-3.9-2.77s-2.89-1.82-4.51-2.05c-.48-.07-.9,.36-.64,.83,1.04,1.92,2.72,3.59,3.32,5.72,.2,.7,1.3,.4,1.1-.3h0Z" style="fill:#394547;"/><path d="M182.77,172.59c-.4,.08-.81,.16-1.21,.23-.29,.06-.49,.42-.4,.7,.1,.32,.38,.44,.7,.4,.52-.07,1.03-.18,1.53-.33,.44-.13,.9-.29,1.28-.54,.25-.16,.38-.51,.2-.78-.16-.25-.51-.38-.78-.2-.07,.05-.14,.09-.22,.13-.05,.02-.09,.05-.14,.07-.02,.01-.05,.02-.07,.03-.07,.03,.1-.04,.03-.01-.22,.08-.43,.16-.65,.22-.49,.14-.98,.24-1.48,.31l.3,1.1c.4-.08,.81-.16,1.21-.23,.29-.06,.49-.42,.4-.7-.1-.31-.39-.46-.7-.4h0Z" style="fill:#394547;"/><path d="M167.46,164.4c-.04-.05-.07-.1-.1-.16,.06,.1-.08-.09,0,.03-.01-.02,.01-.18,0-.04,.01-.07-.04,.01,.01-.04,0,0,.09-.1,.09-.09,.07-.05,.19-.11,.22-.12,.5-.21,1.09-.19,1.61-.03,.66,.21,1.15,.73,1.3,1.41,.18,.82-.12,1.68-.39,2.45-.12,.35,.2,.72,.55,.72,1.38,0,2.71-.38,4.06-.64,.72-.14,.41-1.24-.3-1.1-1.25,.25-2.47,.61-3.76,.6l.55,.72c.37-1.07,.69-2.27,.29-3.38-.36-.99-1.21-1.71-2.23-1.94-.78-.18-1.72-.14-2.42,.3s-.92,1.21-.45,1.88c.41,.6,1.4,.03,.98-.57h0Z" style="fill:#394547;"/><path d="M189.02,170.17c1.54-.3,3.08-.6,4.63-.89,.3-.06,.47-.42,.4-.7-.09-.32-.4-.46-.7-.4-1.54,.3-3.08,.6-4.63,.89-.3,.06-.47,.42-.4,.7,.09,.32,.4,.46,.7,.4h0Z" style="fill:#394547;"/><path d="M189.07,167.84c1.4,1.62,2.77,3.27,4.27,4.8,.51,.52,1.32-.28,.8-.8-1.5-1.53-2.87-3.18-4.27-4.8-.2-.23-.6-.21-.8,0-.23,.23-.2,.57,0,.8h0Z" style="fill:#394547;"/><path d="M188.53,184.3c-1.03-1.28-3.33-2.22-4.84-1.23-1.22,.81-.82,2.42-.26,3.51,.48,.94,1.32,1.63,2.14,2.26,1.04,.8,2.21,1.52,3.48,1.91,1.18,.37,2.59,.34,3.28-.85,.37-.63-.61-1.21-.98-.57-.17,.3-.35,.42-.71,.49-.28,.05-.71,0-1.07-.1-1.02-.27-1.96-.82-2.82-1.41-.74-.51-1.48-1.09-2.05-1.8,.07,.09-.06-.08-.08-.11-.04-.06-.08-.13-.11-.19-.12-.22-.23-.44-.32-.67-.14-.39-.29-.89-.11-1.27,.22-.48,1.1-.48,1.58-.39,.8,.16,1.55,.6,2.06,1.24,.19,.24,.6,.2,.8,0,.24-.23,.19-.57,0-.8h0Z" style="fill:#394547;"/><path d="M193.05,183.64c-.3,1.26-.15,2.7,.42,3.86,.85,1.72,2.71,2.35,4.53,2.17,.66-.06,1.44-.19,1.91-.7,.42-.46,.41-1.07,.17-1.61s-.67-.98-1.1-1.36c-.52-.46-1.1-.87-1.71-1.23s-1.31-.7-2.01-.89c-.59-.16-1.22-.22-1.73,.18-.24,.19-.2,.61,0,.8,.24,.24,.56,.19,.8,0-.17,.13-.07,.05-.02,.03s-.15,.06-.02,.01c.09-.03,.12,.02-.02,0,.04,0,.1,0,.15,0s.09,0,.13,0c.05,0,.21,.04,.02,0,.1,.02,.21,.04,.31,.06,.25,.06,.5,.15,.74,.25,.09,.04,0,0-.02-.01,.04,.02,.08,.03,.11,.05,.06,.03,.13,.06,.19,.09,.13,.06,.26,.13,.39,.2,.28,.15,.55,.31,.82,.48,.13,.08,.25,.17,.38,.25,.06,.04,.12,.09,.18,.13,.02,.02,.05,.04,.07,.05,.02,.02,.05,.04,.07,.05-.05-.04-.06-.05-.03-.02,.23,.18,.44,.37,.65,.57,.09,.09,.18,.18,.26,.28,.04,.05,.08,.09,.12,.14,.02,.03,.06,.09-.02-.03,.02,.03,.05,.06,.07,.1,.06,.08,.11,.17,.16,.26,.02,.04,.04,.09,.06,.13-.09-.17,0,0,0,.04,0,.03,.01,.1,.03,.12-.07-.1,0-.12,0,0-.02,.14,.03-.06,0-.01-.01,.02-.06,.18-.01,.06s0,.03-.03,.05c-.09,.06,.11-.09,0,0-.03,.03-.07,.06-.1,.09,.13-.13,0,0-.06,.03-.04,.02-.21,.09-.05,.03-.06,.02-.12,.05-.18,.06-.15,.05-.3,.08-.46,.11-.04,0-.08,.01-.13,.02,.11-.02,0,0-.04,0-.09,0-.18,.02-.28,.03-.26,.02-.53,.02-.79,0-.37-.02-.72-.09-1.12-.24-.02,0-.13-.06-.04-.01-.04-.02-.08-.04-.12-.06-.07-.03-.14-.07-.2-.11-.07-.04-.14-.09-.21-.13-.01,0-.14-.11-.04-.03-.04-.03-.07-.06-.11-.09-.12-.1-.23-.22-.33-.34-.02-.02-.04-.05-.06-.07,.08,.1-.01-.02-.02-.03-.05-.07-.1-.14-.14-.21-.09-.15-.17-.31-.24-.47,.05,.12-.04-.12-.06-.16-.03-.08-.05-.16-.08-.24-.05-.16-.09-.33-.12-.5-.02-.09-.03-.17-.04-.26,.02,.16,0-.08-.01-.13-.03-.3-.03-.61-.01-.92,0-.07,0-.13,.02-.2,0-.03,0-.07,.01-.1,0-.11-.02,.13,0,.02s.04-.23,.07-.35c.17-.71-.93-1.01-1.1-.3h0Z" style="fill:#394547;"/><path d="M201.58,182.62c-.59-.16-1.24-.1-1.84,0s-1.25,.26-1.68,.68-.42,1.05,.01,1.46,1.06,.55,1.61,.65c1.21,.23,2.43,.28,3.64,.52,.69,.14,1.37,.29,2.03,.53,.24,.09,.5,.19,.71,.35,.03,.03,.1,.11,.1,.11-.09,0,.05-.17,.04-.2,.02,.09-.4,.23-.52,.27-.31,.09-.63,.15-.95,.19-.62,.07-1.31,.11-1.9-.05-.71-.19-1.01,.9-.3,1.1,1.11,.3,2.56,.2,3.64-.19,.5-.18,1.06-.51,1.1-1.1s-.43-.99-.9-1.24c-1.09-.57-2.43-.82-3.64-1-.67-.1-1.34-.15-2.01-.24-.55-.07-1.21-.14-1.71-.39-.04-.02-.07-.04-.11-.06-.08-.04-.02-.05-.03-.02-.03,.05,.03-.17,0,0,0,0-.02,.18-.03,.17,0,.02,.05-.03,0-.01,.06-.02,.12-.08,.18-.11,.13-.07,.26-.11,.39-.15,.57-.17,1.32-.29,1.87-.13,.71,.19,1.01-.9,.3-1.1h0Z" style="fill:#394547;"/><path d="M209.95,186.5c-.24-.52-.29-1.1-.36-1.66s-.19-1.12-.41-1.66c-.38-.92-1.08-1.87-1.1-2.9l-.86,.49c2.79,1.59,5.55,3.23,8.23,5,.61,.4,1.18-.58,.57-.98-2.68-1.77-5.44-3.41-8.23-5-.37-.21-.87,.05-.86,.49,.03,1.17,.7,2.18,1.15,3.23,.5,1.15,.35,2.43,.88,3.57,.31,.66,1.29,.09,.98-.57h0Z" style="fill:#394547;"/><path d="M210.19,185.42s.08-.04,.12-.06c.07-.04-.04,.02-.05,.02,.01,0,.06-.02,.08-.03,.11-.04,.22-.08,.33-.11,.28-.08,.56-.14,.84-.2,.59-.12,1.18-.22,1.77-.34,.29-.06,.49-.42,.4-.7-.1-.31-.39-.46-.7-.4-.61,.12-1.22,.22-1.82,.35-.52,.11-1.08,.22-1.54,.48-.26,.15-.37,.52-.2,.78s.5,.36,.78,.2h0Z" style="fill:#394547;"/><path d="M196.09,176.46s-.1-.23-.05-.12c0-.02,0-.19-.01-.03,0-.02,.02-.04,0-.02,.04-.02,.06-.05,.15-.07,.18-.04,.11-.04,.3-.05,.52-.02,1.09,.15,1.53,.5,1.37,1.08-.56,2.58-1.02,3.67-.14,.32,.21,.75,.55,.72,1.87-.2,3.77-.3,5.6-.76,.71-.18,.41-1.28-.3-1.1-1.73,.44-3.53,.53-5.3,.72l.55,.72c.3-.72,.96-1.26,1.3-1.98,.36-.77,.37-1.62-.14-2.33-.72-.99-2.3-1.62-3.49-1.17-.67,.25-1.01,.91-.75,1.6s1.35,.38,1.1-.3h0Z" style="fill:#394547;"/><path d="M216.06,181.5c1.05-.2,2.1-.41,3.15-.61,.29-.06,.49-.42,.4-.7-.1-.31-.39-.46-.7-.4-1.05,.2-2.1,.41-3.15,.61-.29,.06-.49,.42-.4,.7,.1,.31,.39,.46,.7,.4h0Z" style="fill:#394547;"/><path d="M216.68,182.66c.55,.23,1.19,.15,1.76,.07,.29-.04,.58-.1,.86-.14,.08-.01,.16-.03,.24-.04,.03,0,.07-.01,.1-.02-.06,0-.05,0,0,0,.15-.02,.3-.03,.45-.04,.3-.01,.58-.25,.57-.57-.01-.3-.25-.58-.57-.57-.61,.03-1.21,.16-1.81,.25-.07,.01-.14,.02-.21,.03,.06,0,.05,0,0,0-.03,0-.07,0-.1,.01-.13,.01-.26,.02-.39,.02-.06,0-.12,0-.18,0-.04,0-.07,0-.11,0-.08,0,.1,.02,.02,0-.11-.03-.23-.05-.34-.1-.28-.12-.64,.12-.7,.4-.08,.33,.1,.58,.4,.7h0Z" style="fill:#394547;"/><path d="M224.26,180.04c.93-.63,1.66-1.45,2.38-2.29h-.8c1.58,1.8,2.61,4.01,4.63,5.42,.6,.42,1.17-.57,.57-.98-1.91-1.33-2.9-3.53-4.4-5.24-.19-.22-.61-.22-.8,0-.66,.77-1.31,1.54-2.15,2.11-.6,.41-.03,1.39,.57,.98h0Z" style="fill:#394547;"/></g></g><g><g><path d="M122.29,108.91c-.74-.48-1.57-.84-2.47-.71-.98,.14-1.79,.88-2.3,1.7-.42,.66-.54,1.46-.18,2.18,.32,.64,.92,1.09,1.49,1.5,1.07,.77,2.36,1.5,3.13,2.6,.4,.57,.54,1.16,.31,1.83-.2,.56-.6,1.01-1.11,1.31-.99,.56-2.5,.53-3.11-.56-.41-.74-1.55-.08-1.13,.66,1.44,2.55,5.41,1.73,6.48-.7,.72-1.63,0-3.13-1.23-4.26-.53-.48-1.12-.89-1.7-1.32-.54-.39-1.13-.74-1.61-1.21-.65-.64-.39-1.24,.2-1.85,.82-.84,1.68-.6,2.57-.02,.71,.46,1.37-.67,.66-1.13h0Z" style="fill:#6a6a6a;"/><path d="M124.81,109.72c-.02,1.76,.12,3.52,.39,5.25s.63,3.42,1.51,4.88c.44,.72,1.57,.06,1.13-.66-.82-1.36-1.14-3.02-1.38-4.57s-.36-3.27-.34-4.91c.01-.84-1.3-.84-1.31,0h0Z" style="fill:#6a6a6a;"/><path d="M129.1,112.22c.03,2.38-.19,4.85,.45,7.18,.2,.73,1.25,.55,1.29-.17,.09-1.56,0-3.16,.28-4.7s1.1-2.88,2.43-3.81h-.66c.12,.09,.3,.32,.41,.51,.15,.27,.26,.56,.35,.85,.22,.74,.33,1.52,.4,2.29,.13,1.52,.1,3.05,.12,4.57,.01,.84,1.32,.85,1.31,0-.02-1.68,.02-3.36-.17-5.03-.17-1.52-.44-3.37-1.77-4.33-.17-.13-.49-.12-.66,0-1.53,1.07-2.59,2.53-2.99,4.37-.38,1.73-.28,3.52-.38,5.27l1.29-.17c-.61-2.21-.38-4.56-.41-6.83-.01-.84-1.32-.85-1.31,0h0Z" style="fill:#6a6a6a;"/><path d="M137.13,118.46c.85-2.95,.62-6.02,1.02-9.04l-.99,.57c1.15,.49,1.79,2.12,2.24,3.23,.56,1.39,.99,2.83,1.44,4.26,.25,.8,1.52,.46,1.27-.35-.48-1.55-.95-3.11-1.58-4.61-.55-1.3-1.3-3.08-2.7-3.67-.49-.21-.92,.04-.99,.57-.39,2.89-.16,5.86-.98,8.69-.24,.81,1.03,1.16,1.27,.35h0Z" style="fill:#6a6a6a;"/><path d="M137.96,115.42c-.4,.06-.8,.13-1.21,.19-.15,.02-.33,.17-.39,.3s-.1,.27-.08,.42c.04,.3,.32,.6,.64,.57,1.09-.09,2.26-.34,3.19-.93,.29-.18,.43-.59,.24-.9-.19-.29-.59-.43-.9-.24-.09,.06-.18,.11-.28,.16-.05,.03-.1,.05-.15,.07-.03,.01-.05,.02-.08,.04-.08,.04,0,0,.04-.01-.24,.07-.47,.18-.71,.24s-.49,.12-.74,.17c-.06,.01-.12,.02-.18,.03-.03,0-.06,0-.09,.01-.02,0-.13,.02-.03,0s0,0-.02,0c-.03,0-.06,0-.09,.01-.07,0-.13,.01-.2,.02l.17,1.29c.4-.06,.8-.13,1.21-.19,.34-.05,.56-.5,.46-.81-.12-.37-.44-.52-.81-.46h0Z" style="fill:#6a6a6a;"/><path d="M130.63,101.9s0-.06,0-.1c0-.16-.02,.1,0,0,.02-.07,.03-.14,.05-.2,.02-.05,.09-.21,.02-.06,.03-.07,.07-.13,.11-.2,.03-.05,.07-.1,.1-.15-.11,.15,.03-.03,.06-.05,.05-.05,.1-.09,.15-.14,.02-.02,.1-.07-.03,.02,.04-.03,.07-.05,.11-.08,.05-.03,.1-.06,.15-.09,.03-.02,.21-.11,.12-.06s.08-.03,.11-.04c.07-.02,.14-.04,.21-.06,.03,0,.07-.01,.11-.02-.02,0-.16,0-.05,0,.06,0,.11,0,.17,0,.06,0,.13,.01,.19,0,.08,0-.13-.04-.05,0,.03,.02,.08,.02,.12,.03,.05,.01,.23,.09,.05,0,.05,.02,.1,.05,.14,.07,.07,.04,.13,.11,.03,.01,.05,.05,.1,.1,.15,.15,.1,.1-.06-.09-.01-.01,.02,.03,.03,.05,.05,.08,.02,.04,.1,.24,.05,.08,.02,.06,.04,.13,.06,.19,.01,.05,.05,.3,.04,.16,.08,.85-.2,1.68-.59,2.48-.48,1-1.11,1.93-1.74,2.85-.22,.32-.01,.9,.39,.96,1.41,.22,2.77-.19,4.15-.41,.35-.06,.54-.49,.46-.81-.1-.37-.46-.51-.81-.46-1.11,.18-2.32,.59-3.45,.41l.39,.96c.64-.92,1.28-1.87,1.76-2.89s.9-2.2,.71-3.36c-.12-.79-.63-1.47-1.41-1.71-.68-.21-1.45-.06-2.06,.3-.77,.46-1.27,1.24-1.31,2.14-.01,.35,.31,.66,.66,.66,.37,0,.64-.3,.66-.66h0Z" style="fill:#6a6a6a;"/><path d="M145.82,112.34c1.54-.24,3.07-.48,4.61-.72,.35-.05,.54-.49,.46-.81-.1-.37-.46-.51-.81-.46l-4.61,.72c-.35,.05-.54,.49-.46,.81,.1,.37,.46,.51,.81,.46h0Z" style="fill:#6a6a6a;"/><path d="M146.97,108.63c.12,2.48,.2,4.97,.48,7.44,.04,.35,.27,.66,.66,.66,.32,0,.7-.3,.66-.66-.28-2.47-.35-4.96-.48-7.44-.04-.84-1.35-.85-1.31,0h0Z" style="fill:#6a6a6a;"/><path d="M161.74,106.14c-.02-.92-.29-1.91-.99-2.55s-1.58-.73-2.41-.39c-1.53,.62-2.19,2.47-2.5,3.96-.27,1.3-.22,2.51,.11,3.8s.83,2.64,1.78,3.57c.47,.46,1.09,.8,1.76,.76,.81-.04,1.48-.57,1.99-1.16,.55-.64-.38-1.57-.93-.93-.29,.34-.65,.72-1.09,.78-.07,0-.19,0-.34-.06-.04-.01-.27-.15-.34-.21-.74-.62-1.13-1.66-1.41-2.56s-.48-1.81-.4-2.73c.09-1.13,.42-2.44,1.1-3.36,.32-.43,.86-.86,1.43-.71,.72,.19,.92,1.15,.93,1.79,.02,.84,1.33,.85,1.31,0h0Z" style="fill:#6a6a6a;"/><path d="M165.87,105.17c-.92,1.48-1.67,3.18-2.01,4.89s-.15,3.68,1.76,4.19c1.64,.43,3.41-.25,3.95-1.92,.47-1.44,.06-3.11-.55-4.44-.47-1.02-1.75-2.88-3.09-1.93-.68,.48-.03,1.62,.66,1.13,.03-.02,.07-.05,.11-.07,.02,0-.14,.05-.01,.01,.09-.03-.17,0-.03,0s0,0,0,0c.04,0,.08,.02,.12,.03,.1,.04-.12-.07-.02,0,.04,.02,.08,.05,.12,.07,.02,.01,.05,.03,.07,.05,.07,.05-.1-.08-.03-.02,.08,.07,.16,.14,.24,.22,.04,.04,.08,.09,.12,.13,.02,.02,.03,.04,.05,.06,.05,.06-.06-.09,.01,.02,.16,.22,.3,.45,.43,.7,.27,.51,.45,1.04,.59,1.69,.07,.35,.09,.44,.11,.81,0,.15,0,.3,0,.45,0,.07,0,.14-.02,.22-.01,.15,.01-.02-.02,.13-.02,.13-.05,.25-.09,.37-.02,.06-.04,.13-.07,.19-.04,.09,.04-.09,0,0-.02,.03-.03,.07-.05,.1-.04,.08-.18,.29-.17,.28,0,0-.18,.19-.26,.25,.09-.07-.17,.1-.23,.13-.13,.07,0,0-.1,.04-.08,.03-.16,.05-.25,.07-.19,.05-.19,.04-.39,.06-.19,.01-.41,0-.58-.01-.29-.04-.55-.13-.72-.26,.03,.02-.09-.08-.12-.11-.03-.03-.06-.06-.08-.09,0,0,.05,.08,.01,.01-.04-.06-.07-.12-.11-.18-.02-.03-.03-.05-.04-.08-.03-.06,.02,.07-.02-.04-.19-.56-.15-1.22-.04-1.83,.31-1.62,1.01-3.21,1.88-4.61,.45-.72-.69-1.38-1.13-.66h0Z" style="fill:#6a6a6a;"/><path d="M174.11,105.1c-.93-.73-2.55-.44-3.49,.13-.56,.34-1,.9-1,1.57s.46,1.14,.98,1.46,1.13,.53,1.7,.73c.13,.04,.25,.09,.38,.13,.06,.02,.12,.04,.17,.07,.02,0,.2,.08,.06,.02,.22,.1,.43,.22,.65,.34,.53,.3,1.1,.62,1.47,1.11,.12,.15,.18,.31,.16,.47,.01-.12-.03,.09-.04,.1,.05-.13-.02,.03-.03,.05-.1,.16,.09-.09-.04,.05-.05,.06-.11,.12-.17,.16,.11-.08-.06,.03-.07,.04-.08,.04-.15,.08-.23,.12,.11-.05-.09,.03-.09,.03-.09,.03-.18,.06-.26,.08-.34,.09-.52,.11-.89,.12-.16,0-.32,0-.48-.02,0,0-.22-.02-.09,0-.08-.01-.16-.03-.24-.04-.13-.03-.25-.06-.37-.11,.15,.06-.1-.06-.15-.1-.28-.21-.73-.04-.9,.24-.2,.34-.05,.68,.24,.9,.41,.31,1.01,.4,1.51,.44,.61,.05,1.26,0,1.85-.19s1.19-.51,1.51-1.06c.35-.6,.31-1.33-.07-1.91s-.99-1.03-1.59-1.4c-.47-.29-.94-.55-1.45-.74s-1.07-.36-1.47-.55c-.12-.06-.24-.12-.36-.19-.05-.03-.11-.07-.16-.1-.16-.11,.08,.08-.06-.05-.04-.04-.08-.08-.12-.12-.12-.13,.06,.11-.02-.04s.05,.13-.02-.03c-.02-.07-.02-.06,0,.02,0-.03,0-.07,0-.11-.05,.17,0-.03,.02-.05,.03-.07,.03-.07,0,0,.02-.04,.04-.07,.06-.1,.12-.15-.09,.08,.05-.06,.02-.02,.19-.16,.11-.1,.27-.2,.46-.26,.8-.34,.32-.08,.5-.1,.86-.09,.06,0,.12,0,.18,.01-.15-.02,.07,.01,.1,.02,.05,.01,.09,.03,.14,.04-.21-.07,.12,.1-.07-.05,.28,.22,.66,.27,.93,0,.23-.23,.28-.71,0-.93h0Z" style="fill:#6a6a6a;"/><path d="M178.8,111.95c.29-1.68,1.18-3.17,1.55-4.83,.34-1.54,.4-3.19,1.06-4.64h-1.13c1.34,2.64,2.62,5.31,3.7,8.07,.31,.78,1.57,.44,1.27-.35-1.12-2.86-2.44-5.64-3.84-8.38-.21-.41-.93-.44-1.13,0-.69,1.53-.82,3.17-1.16,4.8-.36,1.71-1.28,3.26-1.58,4.98-.14,.83,1.12,1.18,1.27,.35h0Z" style="fill:#6a6a6a;"/><path d="M180.12,109.71s.09-.05,.14-.07c.1-.05,0,0-.04,.02,.02,0,.05-.02,.07-.03,.12-.04,.24-.08,.36-.11,.29-.08,.58-.14,.87-.19,.59-.1,1.18-.17,1.76-.27,.34-.05,.56-.5,.46-.81-.12-.37-.44-.52-.81-.46-.6,.1-1.21,.17-1.81,.27-.57,.1-1.15,.22-1.66,.51-.3,.17-.42,.6-.24,.9s.58,.41,.9,.24h0Z" style="fill:#6a6a6a;"/><path d="M173.57,95.56c.02-.09,.04-.17,.07-.26,.01-.04,.03-.08,.04-.12,0,.01-.04,.09,0,.02s.07-.13,.11-.2c.01-.02,.03-.05,.04-.07-.09,.12,0,0,.03-.03,.04-.04,.08-.08,.12-.12,.07-.06-.1,.06-.02,.02,.02-.01,.04-.03,.06-.04,.06-.03,.18-.07,.04-.03,.06-.02,.13-.03,.19-.05,.08-.03-.13,0-.05,0,.02,0,.04,0,.06,0,.06,0,.11,0,.17,0-.14,0-.04,0,.04,.02,.02,0,.04,.02,.06,.02,.07,.02-.11-.07-.02,0,.05,.03,.1,.06,.15,.09,.09,.05-.07-.08,.03,.02,.04,.05,.09,.09,.13,.14,.05,.05-.03-.03-.03-.04,.03,.04,.06,.08,.08,.13,.1,.17,.16,.4,.16,.64,0,.37-.06,.66-.2,1.04-.28,.73-.87,1.41-1.42,2-.66,.7-1.37,1.36-1.94,2.14-.3,.4,.1,1,.57,.99,1.8-.05,3.62,0,5.39-.41,.82-.19,.47-1.46-.35-1.27-1.65,.38-3.36,.32-5.04,.37l.57,.99c.13-.18-.04,.04,.04-.06,.03-.04,.06-.07,.09-.11,.07-.09,.14-.17,.22-.25,.17-.19,.34-.37,.51-.55,.35-.36,.71-.72,1.05-1.09,.71-.78,1.39-1.66,1.68-2.69,.23-.83,.23-1.81-.29-2.53-.45-.63-1.18-.98-1.96-.85-.89,.15-1.47,.95-1.66,1.79s1.08,1.17,1.27,.35h0Z" style="fill:#6a6a6a;"/><path d="M187.84,104.79c1.04-.16,2.09-.33,3.13-.49,.34-.05,.56-.5,.46-.81-.12-.37-.44-.52-.81-.46-1.04,.16-2.09,.33-3.13,.49-.34,.05-.56,.5-.46,.81,.12,.37,.44,.52,.81,.46h0Z" style="fill:#6a6a6a;"/><path d="M187.23,106.4c.39,.49,1.12,.52,1.7,.47s1.15-.19,1.73-.15c.34,.02,.67-.32,.66-.66-.02-.38-.29-.63-.66-.66-.54-.04-1.07,.08-1.61,.13-.25,.03-.49,.02-.74,.02-.08,0,.17,.03,.06,0-.03,0-.05,0-.08-.02-.03,0-.2-.07-.08-.02,.14,.06-.12-.1,0,0,.1,.08-.03-.04-.05-.07-.21-.27-.71-.24-.93,0-.26,.29-.23,.64,0,.93h0Z" style="fill:#6a6a6a;"/><path d="M195.93,103.69c1.31-.85,2.44-1.93,3.57-3l-1.12-.46c.08,1.43-.05,2.86-.08,4.29s-.02,2.81,.44,4.12c.28,.79,1.55,.45,1.27-.35-.44-1.24-.43-2.6-.39-3.9,.04-1.39,.16-2.77,.08-4.16-.03-.57-.69-.87-1.12-.46-1.05,.99-2.09,2-3.31,2.79-.71,.46-.05,1.59,.66,1.13h0Z" style="fill:#6a6a6a;"/></g><g><path d="M137.19,69.89c-.09-2.17,.17-4.32,.18-6.49,0-.56-.07-1.34,.29-1.82s1.24-.58,1.79-.61c.2-.01,.49,0,.58,.01,.1,.02,.2,.04,.3,.08-.12-.05,.11,.06,.15,.09-.05-.03,0-.01,.07,.07-.1-.15,.03,.06,.05,.1-.07-.17,.02,.06,.03,.11,.03,.17,.02-.06,.01,.11,0,.04-.02,.31,0,.13-.01,.09-.03,.18-.06,.26-.07,.26-.05,.21-.17,.44-.21,.4-.35,.58-.69,.88-.62,.56-1.43,.78-2.17,.37s-1.4,.73-.66,1.13c2.14,1.17,4.82-.65,5.04-2.96,.11-1.09-.62-1.94-1.69-2.1-1.6-.24-3.71,.35-4.07,2.12-.22,1.1-.12,2.28-.18,3.4-.09,1.56-.19,3.12-.12,4.68,.04,.84,1.35,.85,1.31,0h0Z" style="fill:#6a6a6a;"/><path d="M142.78,62.3c.06,1.26,.79,2.33,1.33,3.43s.75,2.42,1.3,3.56c.22,.45,.91,.41,1.13,0,.59-1.07,.85-2.26,1.06-3.45s.37-2.33,.88-3.37c.16-.32,.09-.71-.24-.9-.29-.17-.74-.08-.9,.24-.54,1.1-.77,2.28-.97,3.47s-.4,2.33-.97,3.36h1.13c-.52-1.08-.7-2.29-1.21-3.37-.44-.93-1.2-1.89-1.25-2.95-.04-.84-1.35-.85-1.31,0h0Z" style="fill:#6a6a6a;"/><path d="M150.86,65.02c.75,.02,1.51-.14,2.25-.25,.06,0,.07,0,0,0,.05,0,.1-.01,.15-.02,.09-.01,.17-.02,.26-.03,.17-.02,.35-.03,.53-.03,.09,0,.17,0,.26,0,.04,0,.08,0,.12,0,.1,0-.01-.02-.04,0,.04-.02,.17,.03,.21,.04,.03,0,.05,.02,.08,.02,.13,.03-.13-.06-.01,0,.31,.15,.72,.09,.9-.24,.16-.3,.09-.74-.24-.9-.69-.34-1.48-.27-2.22-.17-.43,.06-.85,.12-1.28,.18-.08,.01,.1-.01-.03,0-.05,0-.09,.01-.14,.02-.09,.01-.18,.02-.28,.03-.18,.01-.35,.02-.53,.02-.34,0-.67,.31-.66,.66s.29,.65,.66,.66h0Z" style="fill:#6a6a6a;"/><path d="M152.59,65.64c-.5,.1-.8,.5-.83,.99-.02,.31,.22,.53,.48,.63,.99,.37,2.08,.19,3.11,.18,.34,0,.67-.3,.66-.66s-.29-.66-.66-.66c-.49,0-.99,.04-1.48,.04-.12,0-.23,0-.35,0s-.28,.01-.39-.03c.1,.01,.11,.01,.03,0h-.05c-.06-.02-.12-.03-.18-.04-.12-.03-.23-.06-.35-.11l.48,.63c-.02,.11-.02,.14-.01,.09,.01-.05,0-.02-.04,.08,.05-.09-.07,.07-.09,.09-.05,.03-.06,.04-.03,.02,.04-.03,.02-.02-.08,.03,.03,0,.09-.02,.12-.03,.34-.06,.56-.49,.46-.81-.12-.36-.45-.53-.81-.46h0Z" style="fill:#6a6a6a;"/><path d="M163.33,55.56c.21,2.22,.56,4.42,.91,6.63,.09,.56,.95,.63,1.2,.16,.31-.6,.46-1.3,.66-1.94,.25-.82,.51-1.66,.92-2.42,.19-.35,.32-.58,.6-.81-.1,.08,.07-.04,.1-.06,.1-.05-.08,.01,.07-.02,.16-.04-.06-.01,.06,0s.01,0-.01,0c.04,0,.1,.03,.14,.04,.02,0-.03,0-.03-.02,0,0,.07,.11,.03,.03-.03-.07,0,.01,.01,.03,.08,.13,.03,.04,.07,.13,.04,.1,.07,.21,.09,.31,.1,.41,.12,.83,.13,1.26,.02,.93-.02,1.88-.22,2.72l1.29,.17c.12-.96,.29-2.03,.58-3.02,.15-.51,.33-1.01,.62-1.46,.23-.37,.49-.61,.84-.7l-.74-.3c1.12,1.81,1.2,3.96,1.16,6.03-.02,.84,1.3,.84,1.31,0,.05-2.3-.1-4.68-1.34-6.69-.16-.26-.45-.37-.74-.3-1.28,.31-1.91,1.65-2.28,2.79s-.56,2.43-.71,3.66c-.09,.74,1.11,.88,1.29,.17,.23-.92,.28-1.93,.27-2.88s-.01-2.21-.74-2.89-1.78-.36-2.37,.29c-.68,.75-1.05,1.77-1.37,2.72-.18,.52-.33,1.04-.49,1.57-.06,.21-.13,.42-.2,.63-.03,.08-.06,.16-.09,.25-.05,.13,.05-.1-.04,.08l1.2,.16c-.34-2.09-.67-4.17-.87-6.28-.03-.35-.28-.66-.66-.66-.33,0-.69,.3-.66,.66h0Z" style="fill:#6a6a6a;"/><path d="M162.26,66.06c4.5-.1,8.96-.85,13.47-.86,.84,0,.85-1.31,0-1.31-4.5,.01-8.97,.76-13.47,.86-.84,.02-.85,1.33,0,1.31h0Z" style="fill:#6a6a6a;"/><path d="M164.64,79.04c-.07-.89,.19-1.72,.36-2.58s.2-1.69,.17-2.55c-.05-1.74-.31-3.51,.17-5.21l-1.1,.29c.94,.8,1.31,2.06,1.72,3.17,.46,1.25,.96,2.51,1.88,3.5,.42,.45,1.07,.07,1.12-.46,.11-1.26,.33-2.51,.67-3.73,.29-1.03,.69-2.47,1.7-3.03l-.96-.39c.66,3.06-.29,6.23,.58,9.27,.23,.81,1.5,.47,1.27-.35-.86-3.02,.08-6.22-.58-9.27-.09-.42-.61-.59-.96-.39-1.25,.7-1.84,2.25-2.22,3.54-.42,1.41-.66,2.89-.79,4.35l1.12-.46c-1.75-1.89-1.6-4.97-3.6-6.67-.37-.31-.95-.21-1.1,.29-.5,1.76-.29,3.56-.22,5.36,.03,.88,.03,1.74-.16,2.6-.2,.91-.44,1.8-.37,2.73,.07,.84,1.38,.84,1.31,0h0Z" style="fill:#6a6a6a;"/><path d="M178.89,61.26c.89,3.37-.89,7.07,.58,10.34,.35,.77,1.48,.1,1.13-.66-.66-1.47-.41-3.31-.31-4.86,.12-1.71,.3-3.49-.14-5.17-.21-.82-1.48-.47-1.27,.35h0Z" style="fill:#6a6a6a;"/><path d="M180.38,62.07c.54-.1,1.16-.26,1.64-.31,.15-.01,.3-.02,.45-.02,.18,0,.25,0,.36,.03,.25,.06,.38,.1,.53,.3,.1,.13,.17,.43,.16,.61,0,.11,.02-.09,0,.01,0,.03-.01,.06-.02,.09-.04,.12,.03-.04-.02,.07-.09,.17-.05,.12-.18,.24-.33,.34-.95,.61-1.44,.81-.66,.26-1.36,.47-1.97,.83-.34,.2-.46,.75-.13,1.03,.59,.5,1.26,.9,1.88,1.37,.54,.41,1.1,.9,1.22,1.57,.06,.35,.49,.55,.81,.46,.37-.1,.52-.46,.46-.81-.32-1.73-2.25-2.53-3.44-3.52l-.13,1.03c.57-.34,1.21-.51,1.88-.78s1.46-.62,1.95-1.22c.55-.68,.58-1.57,.18-2.34s-1.23-1.07-2.04-1.08-1.66,.23-2.47,.38c-.35,.06-.55,.49-.46,.81,.1,.37,.46,.52,.81,.46h0Z" style="fill:#6a6a6a;"/><path d="M186.43,61.05c1.44-.02,2.87-.26,4.32-.17,.34,.02,.67-.32,.66-.66-.02-.37-.29-.63-.66-.66-1.44-.09-2.88,.16-4.32,.17-.34,0-.67,.3-.66,.66s.29,.66,.66,.66h0Z" style="fill:#6a6a6a;"/><path d="M187.84,60.74c.02,2.83,.51,5.63,.52,8.46,0,.84,1.32,.85,1.31,0-.01-2.83-.5-5.63-.52-8.46,0-.84-1.32-.85-1.31,0h0Z" style="fill:#6a6a6a;"/></g><g><path d="M53.92,115.08c-.24-19.06-.47-38.12-.71-57.18-.07-5.32-.13-10.63-.2-15.95-.01-.84-1.32-.85-1.31,0,.23,19.04,.47,38.08,.7,57.11,.07,5.34,.13,10.67,.2,16.01,.01,.84,1.32,.85,1.31,0h0Z" style="fill:#6a6a6a;"/><path d="M52.75,74.06c9.04-.04,18.08-.09,27.12-.14,8.19-.05,16.39-.1,24.58-.14,5.96-.03,11.91-.05,17.87-.08,.84,0,.85-1.32,0-1.31-9.77,.04-19.55,.09-29.32,.14-7.92,.05-15.85,.1-23.77,.14-5.5,.03-10.99,.06-16.49,.08-.84,0-.85,1.32,0,1.31h0Z" style="fill:#6a6a6a;"/><path d="M122.98,72.9c-.04-.78-.67-1.44-1.19-1.96-.64-.63-1.36-1.21-2.12-1.68-.34-.21-.7-.41-1.08-.52-.33-.09-.73,.11-.81,.46s.1,.71,.46,.81c.05,.02,.11,.04,.16,.05,.11,.04-.09-.04-.05-.02,.03,.02,.07,.03,.1,.05,.14,.07,.28,.14,.42,.22,.33,.19,.64,.42,.95,.64,.09,.07-.09-.07,.04,.03,.04,.03,.08,.06,.11,.09,.08,.07,.16,.13,.24,.2,.16,.13,.31,.27,.46,.41s.29,.28,.43,.43c.06,.06,.11,.12,.17,.19,.03,.03,.05,.06,.08,.09,.02,.02,.13,.16,.06,.07s.02,.03,.04,.05c.02,.03,.05,.07,.07,.1,.04,.07,.09,.14,.12,.21,.01,.03,.06,.14,.02,.03s0,0,0,.02c0,.03,.01,.07,.03,.09,.03,.07-.02-.19,0-.07,.02,.34,.29,.67,.66,.66,.34-.02,.68-.29,.66-.66h0Z" style="fill:#6a6a6a;"/><path d="M122.15,72.27c-1.6,.29-2.93,1.39-4.3,2.18-.3,.17-.43,.6-.24,.9s.58,.42,.9,.24c.67-.39,1.3-.82,1.97-1.21,.34-.2,.69-.38,1.04-.54,.1-.05-.07,.03,.03-.01,.04-.02,.08-.03,.12-.05,.09-.04,.18-.07,.28-.1,.18-.06,.36-.1,.55-.14,.34-.06,.56-.49,.46-.81-.12-.36-.44-.52-.81-.46h0Z" style="fill:#6a6a6a;"/><path d="M90.74,75.9c-.13-.06-.17-.07-.11-.05,.03,.02,.02,.01-.04-.03-.11-.08-.03-.02-.01,0,.06,.07-.1-.15-.05-.07,.01,.02,.02,.04,.04,.06,.01,.02,.02,.05,.03,.07,.05,.09-.06-.16-.02-.06,.02,.06,.04,.12,.06,.19,.04,.14,.07,.28,.1,.43,.02,.08,.03,.17,.04,.25,0,.05,0,.2,0,0,0,.04,.01,.08,.01,.12,.07,.62,.1,1.24,.1,1.86,0,.34,.3,.67,.66,.66s.65-.29,.66-.66c0-.73-.04-1.47-.14-2.19s-.24-1.57-.98-1.85c-.32-.12-.73,.14-.81,.46-.09,.38,.11,.67,.46,.81h0Z" style="fill:#6a6a6a;"/><path d="M91.69,82.09c0,.74,.02,1.49,.03,2.23,0,.34,.3,.67,.66,.66s.66-.29,.66-.66c0-.74-.02-1.49-.03-2.23,0-.34-.3-.67-.66-.66s-.66,.29-.66,.66h0Z" style="fill:#6a6a6a;"/><path d="M91.75,87.6c.01,1.09,.03,2.19,.04,3.28,0,.34,.3,.67,.66,.66s.66-.29,.66-.66c-.01-1.09-.03-2.19-.04-3.28,0-.34-.3-.67-.66-.66s-.66,.29-.66,.66h0Z" style="fill:#6a6a6a;"/><path d="M91.82,93.29c0,.62,.02,1.24,.02,1.86,0,.34,.3,.67,.66,.66s.66-.29,.66-.66c0-.62-.02-1.24-.02-1.86,0-.34-.3-.67-.66-.66s-.66,.29-.66,.66h0Z" style="fill:#6a6a6a;"/><path d="M53.49,94.51c4.17-3.09,9.65-4.22,14.77-3.7s9.85,3.24,14.81,4.64c10.8,3.05,22.66,4.08,33.73,1.92,2.98-.58,5.78-1.61,8.41-3.15,1.23-.72,2.54-1.37,3.71-2.17,.4-.27,.78-.58,1.16-.87,.25-.19,.64-.58,.97-.63,.83-.12,.48-1.38-.35-1.27-.67,.1-1.33,.8-1.84,1.19-.89,.68-1.89,1.17-2.85,1.74-2.44,1.44-4.82,2.7-7.57,3.42-5.54,1.47-11.57,1.66-17.27,1.42s-11.56-1.18-17.16-2.72c-5.01-1.38-9.69-4.02-14.87-4.75-5.57-.78-11.75,.39-16.31,3.77-.67,.5-.02,1.64,.66,1.13h0Z" style="fill:#6a6a6a;"/><path d="M56.16,83.11c2.55-2.29,5.11-4.57,7.66-6.86,.63-.56-.3-1.49-.93-.93-2.55,2.29-5.11,4.57-7.66,6.86-.63,.56,.3,1.49,.93,.93h0Z" style="fill:#6a6a6a;"/><path d="M58.01,88.09c4.76-4.27,9.53-8.53,14.29-12.8,.63-.56-.3-1.49-.93-.93-4.76,4.27-9.53,8.53-14.29,12.8-.63,.56,.3,1.49,.93,.93h0Z" style="fill:#6a6a6a;"/><path d="M66.82,89.36c4.37-3.91,8.74-7.83,13.12-11.74,.63-.56-.3-1.49-.93-.93-4.37,3.91-8.74,7.83-13.12,11.74-.63,.56,.3,1.49,.93,.93h0Z" style="fill:#6a6a6a;"/><path d="M74.89,91.69c5.57-4.98,11.13-9.97,16.7-14.95,.63-.56-.3-1.49-.93-.93-.17,.15-.35,.31-.52,.46-.63,.56,.3,1.49,.93,.93,.45-.4,.9-.81,1.35-1.21,.63-.56-.3-1.49-.93-.93-.45,.4-.9,.81-1.35,1.21l.93,.93c.17-.15,.35-.31,.52-.46l-.93-.93c-5.57,4.98-11.13,9.97-16.7,14.95-.63,.56,.3,1.49,.93,.93h0Z" style="fill:#6a6a6a;"/><path d="M81.48,94.55c3.14-2.81,6.29-5.63,9.43-8.44,.63-.56-.3-1.49-.93-.93-3.14,2.81-6.29,5.63-9.43,8.44-.63,.56,.3,1.49,.93,.93h0Z" style="fill:#6a6a6a;"/><path d="M52.23,44.65c8.61,7.47,17.23,14.94,25.84,22.41,2.43,2.11,4.86,4.22,7.29,6.33,.64,.55,1.57-.37,.93-.93-8.61-7.47-17.23-14.94-25.84-22.41-2.43-2.11-4.86-4.22-7.29-6.33-.64-.55-1.57,.37-.93,.93h0Z" style="fill:#6a6a6a;"/><path d="M68.95,58.3c7.7-.03,15.4,.32,23.1,.29,.84,0,.85-1.32,0-1.31-7.7,.03-15.4-.32-23.1-.29-.84,0-.85,1.32,0,1.31h0Z" style="fill:#6a6a6a;"/><path d="M89.31,56.48c.07,.03,.15,.05,.22,.08,.05,.02,.07,.03,0,0,.04,.02,.09,.04,.13,.06,.14,.07,.29,.14,.43,.21,.3,.16,.59,.33,.89,.49,.61,.34,1.24,.67,1.92,.84,.33,.09,.73-.11,.81-.46s-.1-.72-.46-.81c-.16-.04-.32-.09-.48-.15-.04-.01-.07-.03-.11-.04-.01,0-.12-.05-.06-.02s-.05-.02-.06-.03c-.04-.02-.07-.03-.11-.05-.31-.14-.6-.31-.9-.48-.61-.34-1.22-.69-1.88-.92-.32-.12-.73,.13-.81,.46-.08,.37,.11,.68,.46,.81h0Z" style="fill:#6a6a6a;"/><path d="M92.46,57.23c-.61,.27-1.2,.62-1.77,.97-.66,.4-1.31,.81-1.92,1.28-.27,.21-.44,.57-.24,.9,.17,.27,.61,.46,.9,.24,.61-.47,1.26-.88,1.92-1.28,.58-.35,1.16-.7,1.77-.97,.31-.14,.41-.62,.24-.9-.21-.33-.56-.39-.9-.24h0Z" style="fill:#6a6a6a;"/><path d="M93.03,100.41c.39-.31,.53-.87,.17-1.27-.25-.27-.63-.36-.98-.41-.8-.11-1.75-.1-2.45,.37-1.99,1.35-.22,3.6,.42,5.18,.18,.44,.37,.99,.38,1.39,0,.24,.03,.26-.07,.48,.03-.06-.05,.06-.06,.07-.01,.01-.09,.08-.02,.02-.06,.04-.12,.07-.18,.1-.76,.38-.09,1.51,.66,1.13,1.72-.86,.77-3.14,.17-4.41-.29-.6-.68-1.2-.86-1.85-.08-.3-.12-.61,.09-.86,.06-.08,.14-.13,.22-.19,.06-.04,.14-.08,.21-.11,0,0-.14,.05-.06,.03,.06-.02,.11-.03,.17-.04,.04,0,.24-.04,.12-.02,.37-.04,.75-.05,1.11,0-.11-.01,.12,.03,.15,.03,.12,.02,.11,.06,.07,.01,.01,.01,.04,.02,.05,.03-.16-.14-.26-.32-.2-.54,0,.03,.04-.2,.09-.19,0,0-.12,.11-.12,.11-.28,.22-.23,.7,0,.93,.27,.27,.65,.22,.93,0h0Z" style="fill:#6a6a6a;"/><path d="M86.79,104.04c1.55-.02,3.08-.28,4.61-.41,.35-.03,.66-.28,.66-.66,0-.33-.3-.69-.66-.66-1.54,.14-3.07,.39-4.61,.41-.35,0-.66,.3-.66,.66s.3,.66,.66,.66h0Z" style="fill:#6a6a6a;"/><path d="M93.73,100.94c-.43,1.12-.88,2.27-.91,3.49-.04,1.33,.57,2.5,1.6,3.32,.28,.22,.66,.27,.93,0,.23-.23,.28-.71,0-.93-.86-.68-1.28-1.49-1.21-2.55,.06-.99,.49-2.03,.86-2.98,.13-.33-.14-.72-.46-.81-.37-.1-.68,.13-.81,.46h0Z" style="fill:#6a6a6a;"/><path d="M94.97,104.83c1.08,.68,2.12,1.41,3.31,1.89,.32,.13,.73-.14,.81-.46,.09-.38-.12-.67-.46-.81-.07-.03-.03,0,.02,0-.03-.01-.06-.03-.09-.04-.07-.03-.14-.07-.21-.1-.14-.07-.27-.14-.41-.21-.27-.15-.54-.31-.81-.47-.5-.31-.99-.63-1.48-.95-.29-.18-.74-.07-.9,.24-.17,.32-.07,.7,.24,.9h0Z" style="fill:#6a6a6a;"/><path d="M96.26,106.67s.02-.06,.03-.08c.03-.08,0,0-.01,.03,.04-.05,.06-.12,.08-.18,.05-.11,.11-.21,.17-.32,.13-.23,.26-.44,.41-.66,.28-.42,.59-.84,.86-1.27,.19-.29,.07-.74-.24-.9-.33-.17-.7-.07-.9,.24-.59,.92-1.28,1.76-1.67,2.79-.12,.32,.14,.73,.46,.81,.37,.09,.68-.11,.81-.46h0Z" style="fill:#6a6a6a;"/><path d="M97.15,100.36c1.37,.87,2.4,2.33,2.97,3.83,.53,1.39,.8,3.08,.04,4.44-.41,.74,.72,1.4,1.13,.66,.93-1.67,.74-3.72,.09-5.46-.69-1.84-1.89-3.55-3.57-4.62-.71-.45-1.37,.68-.66,1.13h0Z" style="fill:#6a6a6a;"/></g></g><g><path d="M185.16,264.66s-20.9-2.63-19.82-3c1.08-.37,40.43-4.86,40.43-4.86l14.16,3.39-34.77,4.47Z" style="fill:#e6e6e6; mix-blend-mode:multiply;"/><g><polygon points="219.92 244.19 219.92 260.19 185.15 264.66 185.15 248.66 219.92 244.19" style="fill:#e8e2e4;"/><polygon points="176.45 247.07 185.16 248.67 185.16 264.66 176.45 263.06 176.45 247.07" style="fill:#ccc;"/><polygon points="219.92 244.19 185.15 248.66 176.45 247.07 211.22 242.6 219.92 244.19" style="fill:#f2f2f2;"/><polygon points="219.92 244.19 219.92 260.19 196.8 263.17 196.8 247.17 219.92 244.19" style="fill:#9f9ef2;"/><polygon points="219.92 244.19 196.8 247.17 188.09 245.57 211.22 242.6 219.92 244.19" style="fill:#5254cf;"/></g></g><g><path d="M68.09,208.19h0s.67-1.85,.67-1.85h0c.08-.3,.06-.63-.09-.94l-19.57-40.68h0l.37,.76,.2-.97-8.68-18.07c.41-1.44,.4-3.01-.16-4.54-1.24-3.42-4.73-5.63-8.49-5.71l-3.3-9.09c-.47-1.3-2.01-2.03-3.44-1.63-.35,.1-.66,.26-.93,.46-1.43,.4-2.38,1.75-1.91,3.04l3.39,9.34c-1.33,1.12-2.24,2.59-2.6,4.2-.89,1.76-1.09,3.83-.36,5.85,.56,1.54,1.57,2.82,2.86,3.79h0s4.83,19.15,4.83,19.15l.85-.16h0l10.88,43.2c.2,.8,1.11,1.28,1.97,1.04l1.21-.29,3.92,7.68-2.19-8.09,.43-.1-.52-1.91-10.99-43.76h.06s.45-.34,.45-.34l-.56,.1h0l.56-.1-3.68-14.59c.41-.06,.83-.13,1.24-.25,.75-.21,1.44-.51,2.08-.87l7.35,15.31,.55-.21h0l19.55,42.01,1.61-.45,3.84,7.52-2.17-8.02c.37-.18,.64-.47,.77-.82Zm-40.69-54.91l-.09-.35s0,0,0,0l.09,.35Z" style="fill:#e6e6e6; mix-blend-mode:multiply;"/><g><g><path d="M48.7,213.63l-3.38,.65c-.86,.2-1.7-.39-1.82-1.26l-8.6-64.51,4.02-.53,9.78,65.66Z" style="fill:#394547;"/><path d="M64.87,209.77l3.03-.7c.93-.21,1.47-1.18,1.17-2.08l-20.49-61.64-3.85,1.28,20.14,63.14Z" style="fill:#394547;"/><polygon points="69.84 206.2 69 208.15 68.13 207.88 69.03 205.02 69.84 206.2" style="fill:#333;"/><path d="M48.19,136.45c1.09,4.72-1.85,9.42-6.57,10.51-4.72,1.09-9.42-1.85-10.51-6.57-1.09-4.72,1.85-9.42,6.57-10.51,4.72-1.09,9.42,1.85,10.51,6.57Z" style="fill:#394547;"/><path d="M42.63,139.04l-5.2,1.2-4.81-20.83c-.33-1.44,.73-2.83,2.17-3.16h0c1.44-.33,3.03,1.96,3.36,3.4l4.47,19.39Z" style="fill:#394547;"/><path d="M43.26,137.59c.46,1.99-.78,3.99-2.78,4.45-2,.46-3.99-.78-4.45-2.78-.46-2,.78-3.99,2.78-4.45,1.99-.46,3.99,.78,4.45,2.78Z" style="fill:#333;"/></g><g><path d="M48.44,211.92l-2.33,.54c-.86,.2-1.7-.39-1.82-1.26l-8.6-64.51,4.02-.53,8.74,65.77Z" style="fill:#6a6a6a;"/><path d="M65.65,207.95l3.03-.7c.93-.21,1.47-1.18,1.17-2.08l-20.49-61.64-3.85,1.28,20.14,63.14Z" style="fill:#6a6a6a;"/><polygon points="49.4 163.22 49.96 163.03 50.74 161.21 54.79 159.87 55.07 160.72 55.36 159.68 50.18 161.4 49.4 163.22" style="fill:url(#e);"/><rect x="35.61" y="141.13" width="5.46" height="22.49" transform="translate(-19.89 6.44) rotate(-7.63)" style="fill:url(#f);"/><rect x="46.5" y="138.61" width="5.46" height="22.49" transform="translate(143.14 276.6) rotate(161.65)" style="fill:url(#g);"/><path d="M48.97,134.63c1.09,4.72-1.85,9.42-6.57,10.51-4.72,1.09-9.42-1.85-10.51-6.57-1.09-4.72,1.85-9.42,6.57-10.51,4.72-1.09,9.42,1.85,10.51,6.57Z" style="fill:#6a6a6a;"/><path d="M43.41,137.22l-5.2,1.2-4.47-19.39c-.33-1.44,.56-2.87,2-3.2h0c1.44-.33,2.87,.56,3.2,2l4.47,19.39Z" style="fill:#6a6a6a;"/><path d="M44.05,135.77c.46,2-.78,3.99-2.78,4.45-1.99,.46-3.99-.78-4.45-2.78-.46-1.99,.78-3.99,2.78-4.45,2-.46,3.99,.78,4.45,2.78Z" style="fill:url(#h);"/><path d="M48.16,212.95l1.45,9.67-3.29-9.2c-.19-.54,1.76-1.02,1.85-.46Z" style="fill:url(#i);"/><path d="M68.04,208.13l1.45,9.67-3.29-9.2c-.19-.54,1.76-1.02,1.85-.46Z" style="fill:url(#j);"/></g><polygon points="34.26 142.81 33.53 144.69 36.34 165.71 37.37 163.85 34.26 142.81" style="fill:url(#k);"/><polygon points="44.55 144.42 43.71 146.08 49.4 163.22 50.18 161.4 44.55 144.42" style="fill:url(#l);"/><polygon points="36.34 165.71 37.37 163.85 42.53 163.16 42.07 163.48 37.93 164.1 37.18 165.59 36.34 165.71" style="fill:url(#m);"/></g></g></g></g></g></svg>