<?xml version="1.0" encoding="UTF-8"?><svg id="a" xmlns="http://www.w3.org/2000/svg" xmlns:xlink="http://www.w3.org/1999/xlink" viewBox="0 0 300 300"><defs><linearGradient id="b" x1="1065.72" y1="-999.94" x2="1065.77" y2="-999.94" gradientTransform="translate(539.08 -1262.79) rotate(145.41)" gradientUnits="userSpaceOnUse"><stop offset=".02" stop-color="#fed488"/><stop offset=".17" stop-color="#fdcf80"/><stop offset=".4" stop-color="#fcc36c"/><stop offset=".68" stop-color="#faaf4c"/><stop offset=".99" stop-color="#f7931f"/><stop offset="1" stop-color="#f7931e"/></linearGradient><linearGradient id="c" x1="1066.3" y1="-1003.33" x2="1066.32" y2="-1003.33" xlink:href="#b"/><linearGradient id="d" x1="1066.19" y1="-1003.08" x2="1066.22" y2="-1003.08" xlink:href="#b"/><linearGradient id="e" x1="1065.66" y1="-1000.06" x2="1065.7" y2="-1000.06" xlink:href="#b"/><linearGradient id="f" x1="1066.59" y1="-1003.76" x2="1066.6" y2="-1003.76" xlink:href="#b"/><linearGradient id="g" x1="1066.41" y1="-1003.55" x2="1066.43" y2="-1003.55" xlink:href="#b"/><linearGradient id="h" x1="1066.5" y1="-1003.68" x2="1066.52" y2="-1003.68" xlink:href="#b"/></defs><polygon points="69.78 30.04 260.4 131.14 261.38 264.93 69.51 161.67 69.78 30.04" style="fill:#1d1d1b; isolation:isolate; opacity:.1;"/><g><path d="m254.24,139.02c-.1-.07-.2-.15-.3-.22.15,0,.31,0,.3.22Z" style="fill:#394547;"/><path d="m92.3,135.86c3.92,2.27,7.8,4.62,11.8,6.75.04.13.07.13.08,0,.01-4.88.04-9.77.04-14.65,0-2.55-.03-5.09-.05-7.64.02-.56.05-1.12.05-1.67,0-15.2,0-30.4,0-45.6.03-.11.1-.27-.08-.29-.06,0-.14.18-.2.28-.11.21-.16.52-.49.42-.33-.09-.27-.38-.19-.61.28-.83.58-1.64.88-2.46.07-.2.18-.4.43-.4.33,0,.34.29.4.52.29,1.11.58,2.23.87,3.34.08.29.28.68-.14.81-.46.14-.4-.36-.54-.6-.06-.11.01-.29-.25-.34,0,4.02,0,8.02,0,12.02,0,.52.39.59.69.8.27.18.77.3.53.73-.2.35-.55.04-.83-.08-.09-.04-.2-.03-.38-.06,0,.51,0,.99,0,1.47,0,11.36.02,22.72-.03,34.08,0,1.21.31,1.93,1.44,2.4.47.19,1.24.29,1.11,1.15-.94.02-1.53-.77-2.38-1.01-.28.2-.13.5-.13.75-.01,5.46,0,10.91-.03,16.37,0,.67.25.98.79,1.29,3.07,1.74,6.12,3.51,9.18,5.27.54.31,1.06.65,1.61.99.35-.3.13-.7.17-1.05.03-.27-.04-.6.37-.63.38-.03.54.26.46.54-.46,1.67.78,2.13,1.86,2.75,15.37,8.86,30.73,17.73,46.09,26.6.06.03.13.05.19.07.05-.03.12-.06.14-.1.14-.32-.2-.94.33-.95.66-.01.33.63.35.98.04.43.17.7.55.92,4.03,2.31,8.05,4.64,12.07,6.96.11.06.25.07.37.1.05-.09.1-.15.1-.2,0-.43-.87-.76-.34-1.13.6-.42.73.42,1.01.73.56.62,1.03,1.32,1.54,1.98.35.45.22.63-.3.78-.67.19-1.39-.06-2.04.29-.07.04-.3-.05-.34-.13-.08-.15-.06-.38.12-.45.32-.13.66-.2,1.01-.3.04-.38-.34-.38-.54-.5-12.64-7.31-25.28-14.6-37.92-21.9-10.25-5.92-20.5-11.85-30.76-17.77-.33-.19-.68-.34-1.02-.51-1.4-.84-2.82-1.65-4.21-2.52-.71-.44-.84-.25-.83.51.02,6.04.02,12.08,0,18.12,0,.4.3,1.12-.31,1.14-.64.02-.34-.72-.34-1.11-.04-4.75-.05-9.49-.06-14.24.02-1.56.01-3.13.07-4.69.02-.58-.41-.79-.75-.98-2.73-1.59-5.47-3.15-8.22-4.71-.98-.58-1.97-1.16-2.95-1.75-.44-.27-.8-.55-.03-.87Zm87.49,50.26s-.05-.05-.07-.07c-.02.02-.05.05-.07.07.04.03.07.05.11.08.01-.02.03-.05.04-.07Z" style="fill:#394547;"/><path d="m221.7,149.93c-.01,5.81-.02,11.61-.05,17.42,0,.73.31.59.76.45,4.26-1.32,8.53-2.62,12.8-3.92.87-.25,1.73-.5,2.6-.75-.06-.3-.31-.31-.49-.41-.19-.1-.22-.27-.15-.44.08-.21.28-.2.44-.13.48.21.98.38,1.41.67.63.43-.33.81-.11,1.26,0,0,0,.02,0,.02-.05.05-.05.1,0,.15-.17.04-.25.15-.24.33h-.08s-.06.05-.06.05c-.11.07-.23.14-.34.22-.13,0-.25-.02-.38-.03-.2-.35.21-.62.13-1.08-5.2,1.58-10.36,3.16-15.78,4.81,6.02,3.48,11.84,6.85,17.68,10.23.01-.2.02-.44.04-.68.5.07,2.01,1.55,2.02,2,0,.24-.14.4-.37.42-.45.04-.9.06-1.36.08-.2,0-.41-.17-.25-.29.89-.69-.08-.76-.34-.91-2.75-1.61-5.47-3.28-8.33-4.7-.38-.19-.57-.62-1.03-.67-2.79-1.64-5.58-3.28-8.33-4.9-.36.21-.24.47-.24.69,0,6.8.02,13.61.04,20.41,0,1.89,0,3.78,0,5.67-.37.91.24,1.58.58,2.32-.06.13-.12.26-.17.39-.3.41-.19,1.28-.73,1.26-.66-.03-.51-.88-.63-1.38-.15-.63-.93-1.37.2-1.91.11-.05.05-.46.05-.7,0-8.64-.02-17.28.02-25.92,0-.95-.25-.99-1.06-.74-4.86,1.51-9.74,2.97-14.61,4.44-.13.04-.24.12-.35.18.05.35.4.28.52.49.1.18.09.43-.08.43-.65.02-1.2-.34-1.73-.66-.51-.31-.04-.67.12-.98.14-.28.31-.56.53-.77.34-.32.53-.1.46.26-.11.52.14.52.5.41,5-1.52,10-3.05,15.24-4.65-6.04-3.49-11.88-6.86-17.71-10.23-.22.24.12.64-.29.73-.31.07-.4-.23-.55-.41-.2-.24-.41-.49-.57-.75-.22-.36-.88-.66-.52-1.11.31-.38.97-.29,1.49-.33.32-.02.51.31.28.46-.77.52.03.59.21.69,5.86,3.4,11.73,6.78,17.61,10.16.11.07.23.12.46.22v-16.4c.02-3.8.03-7.6.04-11.4,0-.17.03-.44-.06-.5-1.29-.86.15-1.56.16-2.33,0-.23.43-.31.53.02.25.86.46,1.74.63,2.63.05.27-.25.27-.45.32-.19-.09-.14.04-.13.14,0,3.22,0,6.45.01,9.67Z" style="fill:#394547;"/><path d="m134.72,127.79c4.91-.97,9.81-1.94,14.72-2.91.13-.03.26-.1.38-.16,3.46-.49,6.84-1.35,10.27-1.99,1.27-.23,2.52-.51,3.79-.74.45-.08.66-.23.63-.75-.05-.77.1-1.55.99-1.74.86-.18,1.33.47,1.7,1.13.41.72.57,1.49.5,2.32-.05.6-.27,1.12-.87,1.3-.62.19-1.22-.12-1.42-.62-.49-1.22-1.31-1.02-2.28-.81-2.78.6-5.6,1.01-8.34,1.74-1.23.33-2.54.22-3.7.77-3.08.59-6.17,1.15-9.25,1.77-7.22,1.44-14.44,2.89-21.67,4.34-.21.04-.42.06-.61.14-.27.11-.72-.08-.78.34-.07.45.39.54.67.7,3.54,2.05,7.08,4.09,10.62,6.13,11.68,6.74,23.36,13.48,35.04,20.22.18.1.35.2.5.29.08-.03.14-.04.14-.06.05-.34-.03-.84.16-.99.47-.37.54.07.57.44.02.35-.06.76.1,1.02.34.55,1.07.64,1.54,1.04.35.3,1.28.34.9.98-.29.5-.82-.22-1.25-.36-.23-.07-.43-.24-.64-.36-.35-.22-.66-.34-.68.27,0,.24-.09.41-.37.4-.29-.02-.34-.26-.29-.45.19-.87-.36-1.22-1-1.59-14.89-8.58-29.78-17.17-44.67-25.76-.3-.17-.62-.33-.91-.52-.32-.2-.46.03-.74.16-1.36.65-1.25,1.78-1.16,2.94.03.38-.12.51-.48.45,0-.13.04-.29-.14-.35v-.27c.1-1.16-.09-2.19-.56-3.34-.61-1.5-1.52-2.41-2.88-3.05-.23-.11-.39-.28-.43-.54.16-.33.44-.21.7-.2.41.25.82.5,1.22.76.44.29.75.55,1.16-.17.43-.76,1.51-.62,2.02.34.48.93,1.03.93,1.9.74,3.28-.73,6.58-1.38,9.87-2.07,1.68-.32,3.37-.65,5.05-.97Zm-17.9,2.25c-.29-.07-.38.09-.47.24-.43.68.16,2.71.88,3.02.2.09.42.12.57-.07.15-.2.22-.47,0-.66-.21-.18-.47-.3-.7-.46-.42-.28-.41-.51.05-.76.18-.1.69.05.46-.45-.18-.38-.45-.7-.79-.85Zm49.68-6.4c.76-1,.37-2.87-.51-3.34-.27-.15-.47-.11-.62.12-.21.32-.15.62.22.75.82.29.93.92.86,1.67-.02.2.02.4.06.8Z" style="fill:#394547;"/><path d="m209.64,203.73s-.05-.07-.1-.07c-3.49-2.04-6.99-4.07-10.48-6.11-.27-.16-.56-.3-.81-.47-.29-.2-.85-.34-.56-.82.28-.47.69-.07,1,.11,1.99,1.15,3.97,2.32,5.96,3.47.33.19.68.34,1.02.5,3.07,1.79,6.13,3.58,9.2,5.36,4.37,2.54,8.75,5.07,13.13,7.6.33.19.68.35,1.02.52,1.58.92,3.17,1.83,4.75,2.75.82.52,1.6,1.12,2.53,1.44.08.04.16.09.24.13.32.2.64.39.94.61.85.61,1.92.88,2.63,1.7-.2.81-.72.44-1.08.23-2.19-1.31-4.41-2.54-6.68-3.71-1.93-.99-3.71-2.3-5.67-3.27-.86-1.01-2.12-1.42-3.21-2.06-4.41-2.6-8.86-5.13-13.3-7.68-.09-.05-.2-.06-.29-.09l-.22-.13Z" style="fill:#394547;"/><path d="m212.72,211.25c4.15,2.4,8.3,4.8,12.45,7.21,4.32,2.51,8.63,5.02,12.95,7.52.42.25.85.48,1.27.74.33.21.67.52.4.92-.27.39-.72.03-.91-.11-1.74-1.35-3.74-2.28-5.63-3.37-11.47-6.65-22.96-13.26-34.43-19.92-.45-.26-1.46-.43-1.11-1.08.39-.73,1.04.11,1.47.36,4.43,2.52,8.83,5.1,13.23,7.66.09.05.2.05.3.08Z" style="fill:#394547;"/><path d="m229.58,227.83c.27.17.54.33.82.5.81.52,1.61,1.06,2.51,1.41,0,0,0,0,0,0,.78.6,1.63,1.06,2.52,1.48,0,0,0-.01,0-.01.09.05.17.11.26.16.01.05.04.06.09.05,1.41.84,2.81,1.67,4.22,2.51,0,1.07-.58.61-1.01.36-1.81-1.03-3.6-2.08-5.41-3.12-.27-.15-.55-.28-.83-.42-2.66-1.65-5.37-3.2-8.12-4.69,0,0,0,0,0,0-2.74-1.73-5.58-3.3-8.41-4.88-.35-.21-.7-.42-1.06-.63-.78-.45-1.56-.89-2.35-1.34-4.55-2.64-9.11-5.29-13.66-7.93-.3-.18-.61-.34-.9-.53-.29-.19-.86-.31-.54-.81.31-.48.69-.04.99.13,1.1.61,2.18,1.26,3.27,1.88,2.66,1.52,5.33,3.04,8,4.56,4.51,2.61,9.02,5.22,13.53,7.83.04.06.1.09.17.09.43.25.85.5,1.28.76.22.11.45.23.67.34,1.27.87,2.61,1.62,3.99,2.31Z" style="fill:#394547;"/><path d="m206.07,221.1c.27.16.54.33.81.49.81.53,1.61,1.06,2.51,1.42,0,0,0,0,0,0,.78.59,1.65,1.04,2.52,1.48,0,0,0,0,0,0,.23.15.45.32.69.46,4.58,2.65,9.16,5.3,13.75,7.94,4.01,2.31,8.03,4.6,12.05,6.89.27.16.55.32.82.49.14.08.28.16.42.24.07.1.14.19.22.29.07.26.08.51-.19.68-.13-.04-.26-.08-.38-.12-.49-.28-.98-.55-1.47-.83-4.49-2.62-8.98-5.24-13.49-7.84-7.5-4.34-15-8.66-22.5-12.99-1.19-.69-2.36-1.4-3.54-2.1.08-.23.16-.47.24-.7,1.75.97,3.5,1.94,5.25,2.91.03.06.08.08.14.07.19.21.42.35.7.41.44.36.92.65,1.47.84Z" style="fill:#394547;"/><path d="m186.14,193.57c.55-.85.03-1.64-.11-2.72-.59.74-1.36,1.16-.28,2.24-.89-.28-1.41-.53-1.86-.99,1.34-.65,2.42-1.67,1.46-3.66-.12-.5-.25-.98-.71-1.29-.2-.13-.29-.34-.07-.5.6-.42.83.39,1.32.43.29.02.54.39.31.55-.66.47-.08.9-.05,1.34.03.16,0,.39.09.48.25.21.31-.11.44-.22.49-.42.57-.85.04-1.3.65-.28,1.01.25,1.45.53.14.09.09.24-.13.36-1.41.73-1.65,1.25-1.29,2.73.23.91.21,1.93,1.19,2.67-.85.12-1.22-.54-1.8-.62Z" style="fill:#394547;"/><path d="m114.2,152.66c.75-.65,1-.6,1.29.27.16.49.24,1,.37,1.59.21-.28.4-.48.54-.71.19-.31.43-.48.77-.31.33.16.5.48.51.85,0,.23-.09.43-.37.35-.26-.07-.39-.7-.78-.16-.31.43-.61.84-.49,1.42.09.41.13.82.22,1.23.09.39.2.74.77.47.53-.26.31.2.32.42-.96.72-1.3.61-1.57-.5-.09-.39-.17-.79-.25-1.18-.63.12-.64,1.6-1.6.67-.27-.27-.59-.8-.15-1.08.4-.26.41.42.68.59.93-.95,1.08-1.87.55-3.18-.12-.29-.16-.37-.5-.24-.63.23-.26-.28-.3-.48Z" style="fill:#394547;"/><path d="m181.61,144.95c.54.72.45,1.58.53,2.41.06.65-.06,1.31.24,2.1.58-.86.65-1.75.88-2.59.07-.24.04-.75.5-.61.33.1.37.53.25.82-.63,1.7-1.27,3.4-2.45,4.81-.29.35-.66.65-1.18.43-.35-.15-.55-.43-.55-.81,0-.16.04-.38.15-.46.14-.11.31.03.46.14.68.5,1.26.33,1.29-.44.06-1.6-.22-3.17-.41-4.75,0-.06-.04-.14-.08-.18q-.48-.45.08-.95c.1.03.2.05.3.08Z" style="fill:#394547;"/><path d="m134.01,179.56c.46-.35.75.6,1.19.17.29-.29.66-.64.51-1.08-.2-.63.1-1.46-.69-1.85-.18-.09-.56.09-.45-.34.08-.3.21-.61.55-.7.33-.08.55.13.64.41.18.59.31,1.2.47,1.81.32-.07.38-.39.54-.59.2-.26.4-.53.77-.35.34.16.48.5.52.86.04.32-.17.53-.43.31-.89-.75-1.04.3-1.13.6-.24.77.01,1.57.32,2.32.27.65.72-.37,1.04.08-.15.51-.43.92-1.01.86-.58-.06-.6-.58-.69-1.02-.07-.36-.17-.72-.26-1.09-.54.21-.52,1.17-1.23.93-.55-.18-.67-.75-.64-1.31Z" style="fill:#394547;"/><path d="m146.45,182.45c.58-.13.83.21,1,.68.06.17.09.36-.06.49-.22.2-.38.07-.5-.13-.29-.47-.44-.07-.6.1-.53.59-.54,2.25-.11,2.96.34.56.64-.11,1,.04-.02.54-.32.84-.8.9-.55.07-.67-.39-.77-.81-.1-.43-.18-.86-.27-1.29-.38,0-.39.31-.53.48-.22.28-.41.61-.84.37-.41-.23-.52-.64-.54-1.07,0-.15.09-.28.25-.27.39.02.34.49.61.62,1.24-.91.75-2.09.51-3.23-.14-.67-.58.08-.85-.22.06-.39.16-.79.65-.88.45-.08.53.36.72.63.11.55.21,1.09.35,1.77.32-.49.55-.83.78-1.17Z" style="fill:#394547;"/><path d="m167.78,187.25c-.89.68-1.31.54-1.56-.54-.09-.4-.15-.82-.23-1.23-.32.09-.38.34-.5.54-.17.29-.35.53-.73.45-.41-.09-.53-.44-.63-.76-.06-.18-.04-.47.08-.58.2-.19.4.03.48.21.24.52.43.26.65,0,.47-.57.54-2.39.09-2.96-.06-.07-.15-.14-.23-.17-.19-.06-.5.54-.55-.07-.02-.27.17-.62.52-.72.36-.11.63.07.72.42.16.56.27,1.12.41,1.71.6-.14.57-1.22,1.35-.89.55.23.52.76.42,1.27-.19-.02-.38-.04-.58-.06-.25-.37-.41-.05-.56.09-.63.58-.38,1.29-.3,1.99.1.84.42,1.19,1.25.74-.03.19-.06.38-.09.58Z" style="fill:#394547;"/><path d="m100.71,116.13c.52.21.52.67.38,1.05-.59,1.63-1.22,3.26-2.33,4.63-.67.83-1.51.75-1.78-.1-.08-.24-.14-.5.13-.65.24-.14.37.09.52.22.54.43,1.23.19,1.22-.52,0-.77.16-1.59-.24-2.33l-.17-1.46q.18-.74-.52-1.03c-.24-.1-.13-.27-.07-.41.14-.34.38-.57.76-.61.08.04.16.09.24.13.08.14.15.28.23.41.05.22.1.43.16.65,0,1.16,0,2.32,0,3.48.87-.91.97-2.01,1.21-3.06.09-.14.18-.27.26-.41Z" style="fill:#394547;"/><path d="m101.15,80.44c-.33,2.04-1.29,3.8-2.5,5.43-.25.33-.65.56-1.11.42-.36-.12-.52-.44-.6-.79-.04-.17-.04-.37.13-.47.16-.09.33-.02.48.09.23.18.28.72.78.34.4-.3.59-.65.54-1.16-.12-1.35-.22-2.71-.33-4.06.03-.2.04-.43-.17-.52-.24-.11-.31.16-.43.29-.07-.06-.14-.13-.21-.19.14-.43.27-.95.84-.88.53.07.46.63.57,1.01.07.26.08.55.08.83,0,.91,0,1.83,0,2.84.56-.25.57-.62.66-.93.2-.66.37-1.34.55-2.01.12-.45.28-.78.72-.23Z" style="fill:#394547;"/><path d="m164.86,196.21c-.14-.3-.51-.47-.31-1.03.54.71,1.1,1.4,1.61,2.13.15.22.05.45-.31.46-.45.02-.91,0-1.33.21l-.18-.25c1.17-.64.25-.9-.24-1.17-3.1-1.71-6.07-3.67-9.25-5.24-.1-.05-.14-.21-.27-.43.84.05,1.31.66,1.96.8,2.7,1.56,5.41,3.12,8.11,4.68.08.03.17.05.25.08-.01-.09-.03-.17-.04-.26Z" style="fill:#394547;"/><path d="m118.55,170.28c-.15.57.37.71.28,1.36-.77-.86-1.4-1.59-1.95-2.56.74-.11,1.34-.19,1.98-.28-.1.64-.68.27-.96.65,3.52,2.04,7.02,4.07,10.52,6.1l-.17.3c-3.21-1.84-6.42-3.68-9.7-5.56Z" style="fill:#394547;"/><path d="m105.74,60.47c.37.31.89.39,1.15.86-1.04.4-1.33,1.41-1.72,2.26-.4.86-.63,1.85.36,2.83-.87-.06-1.3-.53-1.81-.81-.13-.07-.17-.28-.04-.35,1.31-.76.47-1.95.47-2.89,0-1.06-.25-2.19-.94-3.11.58-.07.92.43,1.4.6.17.06.36.27.26.38-.89.91.09,1.72-.06,2.77.76-.86,1.02-1.64.9-2.54Z" style="fill:#394547;"/><path d="m109.28,116.46v.08c-.6.56-.92-.16-1.28-.37-.54-.31.2-.38.24-.62.19-1.2.45-2.4.42-3.63.06-.35-.44-.45-.35-.81,0,0,0,0,0,0,.98.32,1.87.78,2.28,1.79.25.63.34,1.29-.09,1.89-.46.63-1,.06-1.61.07v1.04c-.06.33.19.43.4.55Zm.13-4.29c-.29.58-.26,1.17-.33,1.75-.04.35.15.52.46.57.33.06.55-.1.59-.43.08-.73.1-1.46-.72-1.89Z" style="fill:#394547;"/><path d="m169.27,119.68c-.27-.14-.51-.26-.75-.39-.4-.22-.52-.24-.29-.91.45-1.33.84-2.84.31-4.32,1.71.51,2.47,1.49,2.29,2.94-.07.59-.31.99-1,.9-.26-.03-.6-.45-.78.02-.14.37-.27.8.05,1.18.11.12.28.22.17.58Zm.14-4.75c-.09.68-.18,1.26-.25,1.85-.04.36.2.5.49.57.36.09.53-.13.57-.44.09-.74.11-1.47-.8-1.98Z" style="fill:#394547;"/><path d="m178.82,138.37c-.15.56.09,1.16-.15,1.71-.11,0-.22,0-.32,0v-9.48c-.34.11-.19.6-.62.68-.02-.9.51-1.56.98-2.32.27,1.04.53,2.08.81,3.18-.58-.07-.38-.55-.71-.84v7.07Z" style="fill:#394547;"/><path d="m175.63,120.58c.28-.24.46-.46.69-.58.1-.05.34.05.46.15.17.14.17.38.1.58-.09.27-.24.08-.4.05-.67-.12-.82.56-.7.82.2.45-.43,1.51.8,1.32.02,0,.12.19.09.26-.07.24-.25.42-.5.48-.24.06-.43-.06-.5-.27-.13-.39-.22-.8-.32-1.2-.8.69-1.22.69-1.36-.01-.05-.23,0-.49.29-.37.97.43.99-.34.87-.81-.1-.4.35-1.25-.68-1.24-.17,0-.05-.36.09-.52.24-.25.51-.29.66.06.16.37.25.77.4,1.27Z" style="fill:#394547;"/><path d="m138.49,185.85c.27.53,1.07.43,1.06,1.12-.3.27-.47-.02-.65-.12-1.3-.69-1.29-.7-.19-1.74.96-.9.99-1.28.2-2.16-.37.05-.06.53-.39.61-.05-.02-.14-.02-.17-.06-.14-.27-.13-.53.08-.77.15-.17.31-.22.55-.14.88.29,1.18,1.71.47,2.44-.29.3-.63.54-.96.81Z" style="fill:#394547;"/><path d="m173.58,123.57c-.75-1.51-1.5-3.01-.84-4.72.14-.36.25-.73.46-1.04.26-.39.75-1.01,1.07-.74.5.42-.34.56-.53.86-.81,1.28-.71,2.65-.53,4.04.07.54.24,1.07.37,1.6Z" style="fill:#394547;"/><path d="m116.75,93.87c-.23-.33-.95-.35-.67-1.02,1.29.17,2.18,1.12,3.29,1.65.21.1.1.17.05.29-.12.29-.33.34-.58.24-.75-.29-1.52-.55-2.09-1.17Z" style="fill:#394547;"/><path d="m169.35,192.73c-.08-.07-.15-.14-.24-.19-1.34-.79-1.38-.83-.21-1.89.71-.65.69-1.33.44-2.12.86.63.92,1.52.08,2.19-.62.49-1.17.87-.03,1.38.37.17.43.46-.05.64Z" style="fill:#394547;"/><path d="m221.95,135.42c-.02.24-.1.43-.29.55-.24.14-.39-.04-.55-.16-.7-.5-1.11-1.01-.06-1.59.16-.09.52-.26.23-.55-.11-.11-.27-.7-.56-.08-.1.2-.27.04-.26-.08,0-.24.04-.5.15-.7.09-.17.28-.08.44.02,1.14.7,1.15.71.18,1.66-.24.23-.36.4-.15.7.26.38.33.18.57-.07.21-.21.21.19.3.31Z" style="fill:#394547;"/><path d="m114.08,92.31c-.66-.39-1.31-.77-1.96-1.17-.26-.16-.66-.32-.43-.69.18-.29.64-.23.84-.04.73.7,1.74.92,2.5,1.56,0,.99-.56.41-.94.33Z" style="fill:#394547;"/><path d="m151.68,113.12c.97.58,1.93,1.14,2.88,1.73.07.04.08.27.03.38-.08.17-.28.23-.44.13-.91-.52-1.82-1.04-2.72-1.57-.17-.1-.2-.3-.11-.46.05-.09.22-.12.37-.2Z" style="fill:#394547;"/><path d="m109.08,126.64c.81.48,1.74,1.02,2.65,1.58.08.05.1.27.07.38-.06.2-.27.23-.43.15-.88-.44-1.77-.89-2.63-1.36-.17-.09-.3-.3-.21-.54.07-.19.22-.25.56-.21Z" style="fill:#394547;"/><path d="m148.82,192.57c-.48-.27-.97-.55-1.5-.85.94-.43,1.25-2.57.6-3.5.94,0,.95,0,.85.84-.07.62-.12,1.25-.26,1.85-.14.6-.15,1.13.32,1.66Z" style="fill:#394547;"/><path d="m129.46,100.39c.91.5,1.82.99,2.73,1.5.24.13.56.29.39.62-.18.34-.48.15-.72.01-.85-.48-1.69-.96-2.53-1.44-.15-.27-.04-.49.14-.69Z" style="fill:#394547;"/><path d="m123.81,97.22c0,.31-.13.5-.38.37-.98-.49-1.96-1-2.92-1.54-.09-.05-.08-.33-.06-.49.04-.23.26-.26.41-.18.94.52,1.88,1.07,2.81,1.62.07.04.1.17.13.21Z" style="fill:#394547;"/><path d="m117.97,159.24q1.12-.08.88,1.58c-.21.91-.41,1.82.12,2.75-.47-.27-.94-.54-1.45-.83.99-.5,1.22-2.68.44-3.5Z" style="fill:#394547;"/><path d="m146.93,111.28c-.04-.13-.07-.27-.11-.4.23-.39.53-.23.81-.08.76.43,1.51.87,2.27,1.31.21.13.46.28.3.57-.16.27-.42.18-.64.05-.87-.48-1.75-.97-2.62-1.46Z" style="fill:#394547;"/><path d="m160.62,118.29c.83.49,1.79,1.04,2.74,1.62.16.1.15.31.02.46-.13.15-.3.18-.47.08-.87-.5-1.75-.99-2.62-1.5-.2-.12-.27-.32-.16-.54.07-.13.2-.18.5-.12Z" style="fill:#394547;"/><path d="m156.26,115.77c.77.46,1.72,1.02,2.66,1.59.17.1.19.3.07.46-.11.15-.28.2-.46.09-.91-.52-1.81-1.04-2.71-1.57-.17-.1-.18-.3-.11-.47.06-.15.2-.17.56-.1Z" style="fill:#394547;"/><path d="m227.67,154.26c-.67-.07-.98-.22-.68-1.07.25-.73.4-1.6.12-2.42.35.27.9.28,1.02.83-.67-.04-.6.46-.61.88,0,.19.1.39.29.34.55-.15.27-.6.28-.94,0-.1.02-.19.03-.29.69.89.59,1.36-.37,1.65-.45.14-.46.23-.08,1.02Z" style="fill:#394547;"/><path d="m145.83,110.23c-1.32.01-2.14-1.04-3.22-1.54-.15-.07-.22-.3-.1-.46.15-.2.39-.15.57-.05.74.38,1.46.77,2.19,1.16,0,0,.03.04.03.03.09.18.26.24.44.27.03.19.05.38.08.58Z" style="fill:#394547;"/><path d="m110.5,89.29c.21.55.14.87-.54.59-.35-.15-.68-.35-1.02-.53-.38-.24-.78-.46-1.15-.72-.26-.18-.78-.28-.49-.73.23-.37.57-.04.82.1.8.42,1.59.86,2.38,1.3Z" style="fill:#394547;"/><path d="m128.23,99.78c-.04.35-.23.47-.44.35-.94-.51-1.87-1.06-2.8-1.6-.17-.1-.18-.3-.1-.46.09-.19.28-.22.44-.13.91.51,1.81,1.03,2.71,1.57.1.06.15.21.19.27Z" style="fill:#394547;"/><path d="m143.27,183.3c-.97-.51-1.88-1-2.79-1.48-.24-.13-.37-.33-.28-.6.15-.45.37-.08.55-.02.83.26,1.53.79,2.29,1.19.36.19.35.47.23.91Z" style="fill:#394547;"/><path d="m102.51,85.96c.78,1,.76,1.66-.16,2.39-.53.42-1,.74,0,1.13.21.08.52.23.36.52-.18.32-.41.04-.61-.05-1.3-.62-1.34-.79-.25-1.74.7-.6.99-1.23.49-2.07.06-.06.11-.12.17-.18Z" style="fill:#394547;"/><path d="m117.43,138.41c.01.94.03,1.88.03,2.81,0,.29.1.73-.35.72-.45-.01-.3-.47-.32-.75-.05-.59-.06-1.18-.09-1.76.21-.36-.24-1.2.73-1.02Z" style="fill:#394547;"/><path d="m231.93,158.05c-.13-.15-.4-.41-.22-.51,1.28-.69.5-1.67.41-2.56,0-.06.04-.13.06-.19q.5.34.59,1.55c.31,0,.18-.3.27-.44.1-.16.15-.36.24-.6.31.89-.42,2.29-1.36,2.74,0,0,0,0,0,0Z" style="fill:#394547;"/><path d="m243.64,183.28c.09-.97-.04-1.91-.41-2.8-.1-.24-.13-.38.07-.48.29-.16.5.03.53.29.06.55.06,1.1.09,1.71.74-.22.32-1.1.99-1.5,0,1.21-.53,2.07-1.11,2.91-.05-.04-.1-.09-.15-.12Z" style="fill:#394547;"/><path d="m165.85,133.19c-.04-.23-.07-.46-.1-.69.01-.76.02-1.52.03-2.27,0-.24-.03-.52.3-.56.36-.04.36.25.36.49,0,.86-.01,1.72,0,2.59,0,.45-.24.51-.6.45Z" style="fill:#394547;"/><path d="m166.49,136.48c0,.35,0,.7,0,1.05,0,.07,0,.14-.01.2-.25.27-.64.39-.65-.06-.02-1.1-.28-2.23.16-3.31.54.02.45.42.46.76.02.45.03.91.04,1.36Z" style="fill:#394547;"/><path d="m165.77,126.71c0-.35-.02-.7,0-1.05.02-.28-.13-.72.36-.71.41,0,.29.41.29.65.02.73.02,1.47,0,2.2,0,.25.12.64-.29.66-.5.02-.34-.43-.36-.71-.03-.35,0-.7,0-1.05Z" style="fill:#394547;"/><path d="m234.69,156.09c.37.26.79.43.99.74.15.23-.25.44-.44.63-.47.47-.47.48.17.65.17.04.23.12.23.27,0,.19-.07.35-.25.42-.54.21-.6-.45-1-.57-.36-.12,0-.37.15-.53.37-.41.36-.39-.04-.83-.09-.1-.06-.34-.03-.5.02-.11.16-.19.23-.27Z" style="fill:#394547;"/><path d="m230,155.61c-.22.13-.39.03-.46-.2-.16-.48.21-.2.37-.28.5-.25.33-.7.17-1.08-.08-.19-.52-.34-.17-.55.38-.23.41.21.51.44.03.06,0,.16.04.2.23.27.67-.66.78.11.05.37-.76.15-.63.71.05.24.05.49.14.71.07.16.57.19.19.47-.27.21-.44-.04-.49-.31-.05-.26-.07-.53-.44-.22Z" style="fill:#394547;"/><path d="m178.03,127.14q-1.43-.44-.51-1.46c.26-.29.54-.58.33-1.02-.07-.15-.13-.33-.36-.3-.16.02-.07.51-.37.2-.1-.11-.05-.34.09-.47.19-.18.42-.12.57.01.52.45.68,1.11.19,1.55-.63.57-.66.95.05,1.47Z" style="fill:#394547;"/><path d="m110.76,120.27c.81-.42.48-1.19.56-1.83.02-.19-.44-.33-.11-.59.08-.06.28-.03.39.02.29.14.18.4.16.64-.07.68-.37,1.36-.13,2.03.12.32.2.44-.22.36-.17-.25-.57-.28-.65-.62Z" style="fill:#394547;"/><path d="m235.62,159.89c1.14-1.2.75-2.57.43-4.13,1.05,1.82.87,3.42-.43,4.13Z" style="fill:#394547;"/><path d="m178.76,122.64c.38.61,1.1.75,1.64,1.13.22.15.38.31.31.57-.07.25-.27.1-.42.07-.49-.3-1-.59-1.47-.91-.34-.24-.77-.52-.07-.86Z" style="fill:#394547;"/><path d="m229.28,156.17c-.68-.35-.36-1.14-.72-1.63.14-.88,0-1.89,1.12-2.33-1.09,1.24-.72,2.61-.4,3.97Z" style="fill:#394547;"/><path d="m171.52,122.29c.2-.28.44-.56.35-.94-.04-.19-.07-.46-.36-.36-.14.05-.21.44-.42.09-.05-.08.02-.27.09-.38.13-.21.33-.2.54-.1.68.34.67,1.21-.03,1.85-.06-.06-.11-.11-.17-.17Z" style="fill:#394547;"/><path d="m102.34,86.14c-.58-.27-.37.45-.68.54-.4-.28-.28-.65-.04-.89.3-.3.64-.15.89.17-.06.06-.11.12-.17.18Z" style="fill:#394547;"/><path d="m171.35,122.76c-.15.56.7.38.62.95-.5.07-.87-.23-1.12-.59-.15-.22.14-.41.36-.52.05.05.1.11.14.16Z" style="fill:#394547;"/><path d="m169.36,188.54c-.47-.09-.59.34-.76.64-.49-.38-.1-.68-.06-.99.37-.11.66-.03.83.35Z" style="fill:#394547;"/><path d="m243.8,183.41c-.69.74-.71.74-1.15-.16.34-.19.68.46.99.04.05.04.1.08.15.12Z" style="fill:#394547;"/><path d="m145.75,109.65c-.18-.03-.35-.08-.44-.27.27-.12.54-.55.83-.2.16.2-.18.36-.39.46Z" style="fill:#394547;"/><path d="m158.01,124.94c.1-.15.23-.22.41-.16.02,0,.04.05.05.08-.15.03-.31.06-.46.09,0,0,0,0,0,0Z" style="fill:#394547;"/><path d="m103.93,73.05c.07-.1.15-.29.2-.28.18.02.1.17.08.29-.09,0-.19,0-.28,0Z" style="fill:#394547;"/><path d="m171.21,122.6c.1-.1.21-.21.31-.31.06.06.11.11.17.17-.11.1-.22.2-.34.3-.05-.05-.1-.11-.14-.16Z" style="fill:#394547;"/><path d="m238.91,164.09s0-.02,0-.02c.06,0,.12.01.18.02-.06,0-.12,0-.18,0Z" style="fill:#394547;"/><path d="m235.68,231.36c-.09-.05-.17-.11-.26-.16.09.05.17.11.26.16Z" style="fill:#394547;"/><path d="m221.69,140.25c-.02-.1-.06-.23.13-.14-.02.07-.06.11-.13.14Z" style="fill:#394547;"/><path d="m173.16,144.5c.63-1.03.72-2.04,1-2.99.07-.25.08-.65.46-.55.29.07.38.43.3.7-.6,1.83-1.31,3.61-2.58,5.08-.42.49-1.02.66-1.48-.04-.17-.25-.34-.61-.06-.87.3-.28.46.09.66.25.44.37,1.15.1,1.14-.54-.03-1.6-.21-3.19-.33-4.79-.01-.16-.1-.29-.26-.22-.19.08-.44.42-.46-.06-.01-.29.18-.6.5-.74.27-.12.48-.02.62.21.28.43.31.93.27,1.41-.1,1.01.2,1.97.23,3.15Z" style="fill:#394547;"/><path d="m178.89,165.53c.14-.17.28-.35.59-.73-.14,1.07-.46,1.79-1.04,2.54-.27-1.07-.54-2.14-.88-3.48.56.41.53.79.85,1.04v-8.69c.08,0,.17,0,.25,0v9.24c.08.03.16.06.24.09Z" style="fill:#394547;"/><path d="m182.45,124.49c.32-.22.38-.71.84-.61.29.06.36.32.41.56.04.21.02.47-.31.31-.7-.33-.85.31-.8.63.09.55-.42,1.55.82,1.51.02,0,.08.17.07.25-.05.23-.23.34-.44.4-.23.06-.45.01-.54-.2-.15-.39-.24-.79-.38-1.26-.36.22-.55.87-1.05.59-.27-.16-.33-.57-.24-.96.68.42,1.17.19,1.11-.56-.04-.51.28-1.27-.64-1.5-.3-.07-.02-.36.07-.48.18-.25.46-.24.6.02.2.4.31.84.47,1.3Z" style="fill:#394547;"/><path d="m184.88,130.3c2.01-1.98,1.33-4.28.85-6.61,1.62,1.83,1.14,5.86-.85,6.61Z" style="fill:#394547;"/><path d="m175.28,147.42c-.16-.39-.16-.77.29-.95.4-.16.65.18.87.44.59.71.45,1.61-.38,2.27-.51.41-.9.73.01,1.1.23.09.52.28.37.53-.22.38-.48,0-.69-.11-1.21-.62-1.23-.71-.21-1.62.4-.36.8-.69.8-1.28,0-.37-.07-.75-.43-.89-.48-.19-.08.59-.63.5Z" style="fill:#394547;"/><path d="m201.83,176.14c-.07-.17-.1-.31-.17-.43-.18-.3-.07-1.08-.81-.44-.14.12-.33-.2-.4-.39-.04-.1-.09-.3.13-.31,1.4-.07.53-.91.46-1.44-.02-.15-.46-.26-.11-.51.21-.15.46.01.5.21.09.5.27.65.75.4.16-.08.32.11.35.3.04.24-.15.2-.3.27-.61.31-.66,1.27-.1,1.64.1.07.39-.09.26.22-.06.14-.24.22-.55.48Z" style="fill:#394547;"/><path d="m170.47,162.07c.97.59,1.92,1.15,2.86,1.74.07.04.07.26.03.37-.07.19-.26.23-.43.13-.9-.51-1.8-1.02-2.69-1.54-.16-.09-.23-.27-.09-.44.08-.1.2-.16.33-.26Z" style="fill:#394547;"/><path d="m180.2,147.21c-.91-.52-1.78-1.02-2.65-1.51-.3-.17-.56-.41-.37-.74.23-.4.49,0,.69.11.68.35,1.31.79,1.99,1.13.47.23.44.54.35,1.01Z" style="fill:#394547;"/><path d="m184.48,151.84c.68.02,1.12.1.9.93-.16.6-.2,1.23-.28,1.85-.07.54-.2,1.11.7,1.53-.66.08-.92-.13-1.11-.31-.16-.15-1.3-.24-.13-.76.44-.2.32-2.63-.08-3.25Z" style="fill:#394547;"/><path d="m117.48,145.06c0,.45,0,.9,0,1.36,0,.25-.05.52-.37.52-.27,0-.31-.24-.32-.45,0-.94,0-1.88,0-2.81,0-.21.09-.45.35-.43.25.02.32.23.33.46,0,.45,0,.9,0,1.36h0Z" style="fill:#394547;"/><path d="m166.43,140.95c0,.42.01.84,0,1.25,0,.19.04.46-.26.48-.25.02-.38-.15-.38-.39,0-.94,0-1.88,0-2.82,0-.2.15-.32.33-.32.21,0,.3.15.31.34,0,.49,0,.98,0,1.46Z" style="fill:#394547;"/><path d="m166.43,164.71c0,.45,0,.9,0,1.36,0,.19-.11.34-.32.33-.19-.01-.32-.13-.32-.34,0-.94,0-1.88,0-2.82,0-.26.14-.38.39-.36.24.01.25.2.25.37,0,.49,0,.97,0,1.46Z" style="fill:#394547;"/><path d="m166.44,174.2c-.22.47.42,1.52-.36,1.57-.57.04-.21-1.05-.29-1.63-.06-.41-.01-.83,0-1.25,0-.24-.02-.54.31-.56.34-.02.35.27.35.52,0,.42,0,.84,0,1.35Z" style="fill:#394547;"/><path d="m166.44,169.43c0,.42,0,.84,0,1.26,0,.21-.02.43-.32.44-.29,0-.34-.19-.34-.42,0-.91,0-1.81,0-2.72,0-.23.09-.41.37-.39.23.02.27.2.28.37.01.49,0,.98,0,1.47Z" style="fill:#394547;"/><path d="m165.78,155.04c0-.42,0-.83,0-1.25,0-.23.09-.42.34-.42.29,0,.3.25.3.45,0,.87.01,1.73,0,2.6,0,.21-.02.45-.29.47-.35.03-.36-.24-.36-.49,0-.45,0-.9,0-1.35h0Z" style="fill:#394547;"/><path d="m166.44,145.63c0,.42,0,.84,0,1.25,0,.24.02.53-.34.52-.28,0-.31-.23-.31-.45,0-.87,0-1.74,0-2.61,0-.21.04-.44.3-.47.39-.04.33.29.34.5.02.42,0,.84,0,1.25Z" style="fill:#394547;"/><path d="m166.44,150.63c-.2.44.41,1.44-.35,1.47-.62.02-.21-.99-.29-1.53-.07-.48-.02-.97-.01-1.46,0-.22.03-.43.31-.45.29-.02.34.2.34.42.01.49,0,.98,0,1.56Z" style="fill:#394547;"/><path d="m184.7,131c-.93-.17-.9-.16-.65-.88.18-.52.25-1.08.2-1.64-.01-.14-.39-.34.03-.42.33-.06.42.17.38.45-.05.34-.16.68-.17,1.02-.02.5-.25,1.03.18,1.48h.02Z" style="fill:#394547;"/><path d="m166.47,137.74c0-.07,0-.14.01-.2.07.04.15.07.22.11-.08.03-.16.06-.23.09Z" style="fill:#394547;"/><path d="m184.68,131.01s.03.04.04.07c0,0-.02.03-.02.04,0-.04,0-.08,0-.12,0,0-.02.01-.02.01Z" style="fill:#394547;"/><path d="m115.26,119.46c-.43.07-.49.67-.93.46-.35-.17-.48-.48-.37-.98.37.14.84.52,1.03-.18.18-.66.12-1.3-.34-1.81-.09-.09-.36-.06-.29-.33.04-.18.17-.31.35-.35.2-.05.34.07.43.22.23.36.27.78.29,1.21.48.02.65-1.08,1.25-.31.1.12.16.34.12.48-.05.22-.24.13-.42.08-.55-.16-.72.33-.73.63,0,.56-.07,1.19.44,1.62.13.11.5-.35.46.17-.02.21-.22.34-.43.41-.3.1-.48-.04-.57-.29-.12-.32-.2-.66-.31-1.05Z" style="fill:#394547;"/><path d="m122.34,121.7c.17-.19.28-.31.39-.44.19-.23.4-.27.63-.07.17.14.27.33.22.56-.1.47-.3.15-.51.08-.3-.09-.4.22-.51.4-.35.61-.05,1.47.62,1.86.07.04.17.13.17.2-.01.23-.18.37-.39.44-.22.07-.45.03-.54-.18-.16-.38-.26-.79-.41-1.24-.4.21-.85,1.19-1.29.06-.14-.36-.01-.51.36-.32.63.32.75-.27.74-.49-.02-.59.32-1.39-.64-1.64-.06-.01-.13-.19-.11-.23.11-.17.23-.36.39-.47.16-.11.36-.01.43.16.15.38.27.78.45,1.33Z" style="fill:#394547;"/><path d="m113.5,120.81c-.9-1.6-1.31-3.25-.79-5.02.1-.33.28-.64.48-.92.26-.35.69-.91,1.02-.64.39.33-.31.55-.5.82-.94,1.37-.71,2.86-.53,4.35.06.47.22.93.33,1.4Z" style="fill:#394547;"/><path d="m125.72,120.91c1.37,2.18,1.19,6.26-1.13,6.64.92-1.02,1.53-1.95,1.54-3.17.01-1.19-.26-2.32-.41-3.47Z" style="fill:#394547;"/><path d="m117.9,124.4c-1.42-.51-1.44-.53-.48-1.53.3-.31.42-.65.29-1.04-.16-.47-.32-.27-.51,0-.06.09-.19-.06-.19-.16,0-.13.02-.28.08-.39.11-.18.3-.15.47-.09.57.2.78,1.2.33,1.7-.2.23-.47.41-.7.61.1.4.73.3.72.88Z" style="fill:#394547;"/><path d="m120.54,121.72c-.62-.36-1.25-.71-1.87-1.08-.18-.11-.41-.25-.29-.48.19-.38.44-.06.59.05.58.43,1.49.51,1.57,1.52Z" style="fill:#394547;"/><path d="m124.31,128.19c-.29-.17-.75-.06-.4-.78.27-.56.63-1.42-.04-2.17.57-.12.79.04.7.61-.12.73-.39,1.46-.14,2.22-.04.03-.08.07-.12.11Z" style="fill:#394547;"/><path d="m109.28,116.46c-.21-.13-.46-.23-.4-.55.35.03.44.25.4.55Z" style="fill:#394547;"/><path d="m124.43,128.08c.1.03.19.07.11.18-.01.02-.15-.05-.23-.07.03-.04.07-.08.12-.11Z" style="fill:#394547;"/><path d="m139.29,122.98c-1.27.46-1.97-.05-2.07-1.48-.07-.97.22-1.86.68-2.67.47-.84,1.13-1.35,2.14-.79.32-.92.55-1.8-.58-2.44,1.49-.23,1.68-.09,1.53,1.19-.24,1.93-.55,3.84-.82,5.77-.12.82.01,1.33,1,.56.07.78-.34,1.12-.86,1.17-.91.09-.79-.78-1.02-1.31Zm-1.45-2.25c.03.89.09,1.62.85,1.69.75.08.88-.64.98-1.24.09-.55.17-1.1.24-1.65.06-.45-.18-.73-.57-.88-.39-.15-.69.05-.86.39-.31.61-.69,1.2-.64,1.69Z" style="fill:#394547;"/><path d="m134.07,102.96c.97.58,1.92,1.15,2.87,1.73.07.04.09.27.05.38-.08.18-.3.21-.45.12-.91-.51-1.81-1.04-2.71-1.57-.16-.09-.25-.27-.13-.45.07-.09.22-.13.37-.21Z" style="fill:#394547;"/><path d="m138.46,105.48c.98.59,1.93,1.15,2.87,1.73.08.05.12.28.07.38-.11.25-.37.2-.54.11-.88-.48-1.75-.98-2.61-1.49-.2-.12-.27-.33-.14-.53.06-.09.21-.13.35-.2Z" style="fill:#394547;"/><path d="m102.47,126.24c-.44-.25-.88-.51-1.36-.78.84-.39,1.16-2.69.55-3.47.93-.1.99-.05.87.75-.1.65-.22,1.3-.31,1.96-.07.51-.2,1.04.46,1.36-.07.06-.14.12-.21.19Z" style="fill:#394547;"/><path d="m104.18,142.61c-.02.13-.05.13-.08,0,0,0,.04-.04.04-.04l.05.03Z" style="fill:#394547;"/><path d="m179.79,186.12s-.03.05-.04.07c-.04-.03-.07-.05-.11-.08.02-.02.05-.05.07-.07.02.02.05.05.07.07Z" style="fill:#394547;"/></g><g><g><polygon points="268 127.65 262.69 129.67 242.47 118.75 66.82 26.27 72.79 26.65 268 127.65" style="fill:#d19c5e;"/><path d="m257.91,133.68L84.05,40.12l-12.42-6.67s-3.18,93.54-4.41,134.57c.08-41.92-.41-141.75-.41-141.75l135.57,70.85s26.73,14.41,40.09,21.63c6.7,3.68,20.21,10.92,20.21,10.92l5.32-2.02.87,139.28-5.12,3.4" style="fill:#a37c58;"/><path d="m258.9,260.93l-.99-127.25,4.77-4.01,1.07,140.66s-.06-.03-.06-.03c-1.93-4.33-4.8-9.37-4.8-9.37Z" style="fill:#d19c5e;"/><path d="m71.91,168.01c-1.43-.02-2.8-.63-4.26-.4-.26-41.09-.83-141.34-.83-141.34,0,0,4.05,6.45,4.82,7.18,0,0,0-.02,0-.02,0,0,1.04,95.87.28,134.58Z" style="fill:#d19c5e;"/><polygon points="75.05 35.3 76.15 168.52 72.41 166.96 71.63 33.44 75.05 35.3" style="fill:#775a42;"/><path d="m72.01,33.58c-.07.01-.12-.01-.16-.07.05.02.11.05.16.07Z" style="fill:#2b4c56;"/><path d="m71.63,33.44c.19,38.84.66,95.75.73,134.58-.15,0-.3,0-.46,0,.76-38.7-1.13-96.1-.28-134.58Z" style="fill:#d19c5e;"/><path d="m73.19,161.69l2.54-2.38s22.12,11.91,30.07,16.03c20.56,11.37,41.58,22.25,62.13,33.62,22.19,11.77,66.42,35.59,66.42,35.59l24.55,13.22.17,3.64-185.88-99.72Z" style="fill:#a37c58;"/></g><polygon points="258.9 260.93 263.75 270.33 234.29 254.65 229.14 251.78 211.72 242.58 71.91 168.01 76.16 163.48 90.67 171.05 131.52 193 258.9 260.93" style="fill:#d19c5e;"/></g><g><path d="m208.24,194.78s7.05-1.98,10.73-8.7c3.68-6.73,4.48-13.29,2.88-14.9-1.6-1.6-15.76,2.34-16.21,4.69s-3.17,20.4,2.59,18.9Z" style="fill:#d19c5e;"/><g><path d="m233.03,166.78s0,0,0,0c0-.03,0-.08-.01-.14,0-.01,0-.03,0-.04-.01-.06-.03-.13-.05-.21-.11-.37-.31-.79-.45-.94-.03-.04-.06-.05-.08-.05t0,0c.53,0,1.07,0,1.6.01,0,0,0,0,.02.01.03.03.07.12.1.2,0,.03.01.05.01.07,0,0,0,0,0,.01,0,0,0,.02,0,.02-.38.37-.76.74-1.15,1.12t0,0s.02-.03.02-.05Z" style="fill:#6a6a6a;"/><polygon points="229.25 165.39 229.25 165.39 229.25 165.39 229.25 165.39" style="fill:#e4eeed;"/><path d="m230.75,169.02s0,0,0,0c.01-.02.02-.06.03-.09,0-.01,0-.02,0-.04,0-.04,0-.08,0-.12,0-.01,0-.02,0-.04,0-.06-.01-.13-.03-.2,0-.02,0-.04-.01-.05-.01-.06-.03-.13-.04-.2,0-.03-.01-.05-.02-.08-.02-.09-.05-.19-.08-.29-.28-.94-.79-2.01-1.13-2.39-.05-.05-.09-.08-.12-.11-.01,0-.02,0-.03-.01-.02,0-.03-.02-.05-.02,0,0,0,0,0,0,1.06,0,2.11,0,3.17.01h0s.04.02.08.05c.13.15.33.57.45.94.02.08.04.15.05.21,0,.02,0,.03,0,.04,0,.06.01.1.01.14,0,0,0,0,0,0,0,.02,0,.04-.02.05h0c-.76.74-1.52,1.47-2.28,2.21,0,0,0,0-.01,0,.01,0,.02-.01.03-.03Z" style="fill:#efefef; isolation:isolate;"/><path d="m229.25,165.39s0,0,0,0c0,0,0,0,.01,0,.01,0,.03,0,.05.02-.02,0-.04-.01-.06-.01Z" style="fill:url(#b);"/><path d="m230.74,168.48s0,.04.01.05c0-.02,0-.04-.01-.05Z" style="fill:url(#c);"/><path d="m230.68,168.2s.01.05.02.08c0-.03-.01-.05-.02-.08Z" style="fill:url(#d);"/><path d="m229.46,165.51c-.05-.05-.09-.08-.12-.11.04.02.08.06.12.11Z" style="fill:url(#e);"/><path d="m230.75,169.02s0,0,0,0c0,0,0,0,0,0Z" style="fill:url(#f);"/><path d="m230.78,168.73s0,.02,0,.04c0-.01,0-.02,0-.04Z" style="fill:url(#g);"/><path d="m230.78,168.92s0-.02,0-.04c0,.01,0,.02,0,.04Z" style="fill:url(#h);"/><path d="m196.47,182.82s.02-.06.03-.09c0-.01,0-.02,0-.04,0-.03,0-.07,0-.12,0-.01,0-.02,0-.04,0-.06-.01-.13-.03-.2,0-.02,0-.03-.01-.05-.01-.06-.03-.13-.04-.2,0-.02-.01-.05-.02-.08-.02-.09-.05-.19-.08-.29-.28-.94-.79-2.01-1.13-2.39-.05-.05-.09-.08-.12-.11,0,0,0,0,0,0,0,0-.01,0-.02,0-.02,0-.04-.01-.06-.01,0,0,0,0-.01,0,.81-.33,1.65-.66,2.5-1.01l2.42-.97c1.49-.6,3.01-1.21,4.56-1.84l2.7-1.09c.25-.1.49-.2.74-.3l5.57-2.24c.96-.39,1.92-.77,2.87-1.16l.71-.28c.92-.37,1.83-.74,2.73-1.1l4.55-1.83c.83-.33,1.64-.66,2.43-.98l2.49-1s0,0,0,0c0,0,0,0,0,0,.02,0,.04,0,.06.01.01,0,.02,0,.03.01.04.02.08.06.12.11.34.38.85,1.45,1.13,2.39.03.11.06.2.08.29,0,.03.01.05.02.08.02.07.03.14.04.2,0,.02,0,.04.01.05.01.07.02.14.03.2,0,.01,0,.02,0,.04,0,.05,0,.09,0,.12,0,.01,0,.02,0,.04,0,.04-.01.07-.03.09,0,0,0,0,0,0,0,.01-.02.02-.03.03,0,0,0,0,0,0-.81.33-1.65.66-2.49,1l-2.43.98c-1.48.6-3.01,1.21-4.56,1.83l-2.71,1.09c-.24.1-.49.2-.73.29l-2.86,1.15c-1.86.75-3.72,1.5-5.57,2.24l-.73.29c-.91.37-1.82.73-2.71,1.09l-4.56,1.83c-.82.33-1.63.66-2.43.98l-2.49,1s.03-.02.04-.04c0,0,0,0,0,0Z" style="fill:#ffc700;"/><path d="m196.5,182.72s0-.02,0-.04c0,.01,0,.02,0,.04Z" style="fill:#e4eeed;"/><path d="m196.47,182.82s0,0,0,0c0,0,0,0,0,0Z" style="fill:#e4eeed;"/><path d="m196.46,182.28s0,.04.01.05c0-.02,0-.04-.01-.05Z" style="fill:#e4eeed;"/><path d="m195.03,179.2s-.04-.01-.06-.01c.02,0,.04,0,.06.01Z" style="fill:#e4eeed;"/><path d="m195.19,179.31c-.05-.05-.09-.08-.12-.11.04.02.08.06.12.11Z" style="fill:#e4eeed;"/><path d="m196.5,182.53s0,.02,0,.04c0-.01,0-.02,0-.04Z" style="fill:#e4eeed;"/><path d="m196.4,182s.01.05.02.08c0-.02-.01-.05-.02-.08Z" style="fill:#e4eeed;"/><path d="m195.38,183.28s.03-.02.04-.04c0,0,0,0,0,0,.01-.02.02-.04.02-.07,0,0,0-.02,0-.03,0-.01,0-.02,0-.04,0-.03,0-.07,0-.12,0-.01,0-.02,0-.04,0-.06-.01-.13-.03-.2,0-.02,0-.03-.01-.05-.01-.06-.03-.13-.04-.2,0-.02-.01-.05-.02-.08-.02-.09-.05-.19-.08-.3-.28-.94-.79-2.01-1.13-2.39-.05-.05-.09-.09-.12-.11-.01,0-.02,0-.03-.01-.02,0-.04-.01-.06-.01,0,0,0,0-.01,0l.53-.21c.18-.07.37-.15.53-.21,0,0,0,0,.01,0,.02,0,.04,0,.06.01,0,0,.01,0,.02,0,0,0,0,0,0,0,.04.02.08.06.12.11.34.38.85,1.45,1.13,2.39.03.11.06.2.08.29,0,.03.01.05.02.08.02.07.03.14.04.2,0,.02,0,.04.01.05.01.07.02.14.03.2,0,.01,0,.02,0,.04,0,.05,0,.08,0,.12,0,.01,0,.02,0,.04,0,.04-.01.07-.03.09,0,0,0,0,0,0-.01.02-.02.03-.04.04l-.52.21s0,0,0,0l-.53.21Z" style="fill:#efefef; isolation:isolate;"/><path d="m195.42,183.24s0,0,0,0c0,0,0,0,0,0Z" style="fill:#ff7485;"/><path d="m195.45,183.15s0-.02,0-.04c0,.01,0,.02,0,.04Z" style="fill:#ff7485;"/><path d="m195.42,182.75s0-.03-.01-.05c0,.02,0,.04.01.05Z" style="fill:#ff7485;"/><path d="m195.45,182.99s0-.02,0-.04c0,.01,0,.02,0,.04Z" style="fill:#ff7485;"/><path d="m194.13,179.74c-.05-.05-.09-.08-.12-.11.04.02.08.06.12.11Z" style="fill:#ff7485;"/><path d="m193.98,179.62s-.04-.01-.06-.01c.02,0,.04,0,.06.01Z" style="fill:#ff7485;"/><path d="m195.37,182.5s-.01-.05-.02-.08c0,.03.01.05.02.08Z" style="fill:#ff7485;"/><path d="m193.98,179.62s.02,0,.03.01c.04.02.08.06.12.11.34.38.85,1.45,1.13,2.39.03.11.06.2.08.3,0,.03.01.05.02.08.02.07.03.14.04.2,0,.02,0,.04.01.05.01.07.02.14.03.2,0,.01,0,.02,0,.04,0,.05,0,.08,0,.12,0,.01,0,.02,0,.04,0,0,0,.02,0,.03,0,.03-.01.05-.02.07,0,0,0,0,0,0-.01.02-.02.03-.04.04h0l-2.78,1.12c-.17.07-.34.14-.49.2-.12.05-.24.04-.37-.01-.13-.05-.26-.15-.39-.29-.06-.07-.12-.15-.18-.23-.05-.07-.09-.14-.14-.22,0-.02-.02-.03-.03-.05-.05-.09-.1-.19-.15-.28,0,0,0,0,0,0-.05-.1-.09-.2-.14-.3,0-.02-.02-.04-.02-.06-.03-.08-.06-.16-.09-.23,0-.02-.02-.04-.02-.07-.07-.19-.11-.33-.12-.37,0-.03-.02-.06-.02-.09-.01-.05-.03-.1-.04-.15,0-.03-.02-.07-.02-.1,0-.02,0-.04-.01-.05,0-.03,0-.06-.01-.08-.01-.06-.02-.11-.03-.17,0-.04,0-.07,0-.11,0-.05,0-.1,0-.15,0-.03,0-.05,0-.08,0-.05,0-.09.02-.13,0-.02,0-.04.01-.06,0-.03.02-.07.03-.1.01-.03.02-.05.03-.07,0-.02.02-.03.03-.05.07-.11.16-.16.22-.19l.98-.39c.14-.06.28-.11.42-.17l.9-.36c.34-.14.68-.27.98-.39,0,0,0,0,.01,0,.02,0,.04,0,.06.01Z" style="fill:#f66;"/></g><path d="m99.3,116.29s1.08-10.5-1.25-17.17c0,0,5.42-8.92-2.92-15.25-8.33-6.33-15.25-5.33-11.42-.5,0,0-14.92-3.67-18.67-1.83-3.75,1.83,2.83,3.58,2.83,3.58,0,0-14.75,2.5-18.84,10.83-4.08,8.33,1.5,14.17,1.5,14.17,0,0,1.67,24.59,14.92,35.75,0,0-4.17-6.25-4.17-10.5s7-7.83,8.17-15.59c1.17-7.75-2.08-7.75-1.92-11.42s4.42-2.83,4.42-2.83c0,0,13.92,4.08,22-1.5,0,0,5.33,4.83,5.33,12.25Z" style="fill:#394547;"/><path d="m86.55,181.3l-7.83-12.25-13.5-4.5s1.25-11.42-1.42-20.09l1.67,1.42s-2.75-3-3.92-9.17c0,0-9.67-1.75-10.92-10.08-1.25-8.33,12-9.42,14.67,0,0,0,3.25-5.25,3.08-10.83s-3.42-8.42.83-11.5c0,0,17.59,2.67,25-2.17,0,0,8.75,12,6.92,28.92s-11.67,21.84-19.5,22.17c0,0-2.92,13.08,8.83,15l-1.08.92-2.83,12.17Z" style="fill:#d19c5e;"/><path d="m77.63,131.04s4.33,4.42,12.17,5l-2.25,6.33s-12.42-.25-9.92-11.33Z" style="fill:#1d1d1b;"/><path d="m86.3,142.27c-1.22-4.04-5.53-5.03-8.38-5.23,1.65,3.86,6.17,4.94,8.38,5.23Z" style="fill:#f66;"/><path d="m90.14,120.46l6.25,9.92s-1.25,2-5.75,1.58l-.5-11.5Z" style="fill:#a37c58;"/><ellipse cx="81.77" cy="120.96" rx="1.46" ry="2.42" style="fill:#1d1d1b;"/><ellipse cx="95.54" cy="119.7" rx="1.46" ry="2.42" style="fill:#1d1d1b;"/><path d="m74.38,114.36c-.1,0-.2-.02-.3-.07-.35-.16-.5-.58-.34-.93.08-.16,1.91-3.99,6.8-3.99.39,0,.7.31.7.7s-.31.7-.7.7c-3.98,0-5.47,3.05-5.53,3.18-.12.25-.37.4-.64.4Z" style="fill:#1d1d1b;"/><path d="m99.67,112.72c-.26.07-.54-.01-.72-.24-2.14-2.63-5.94-2.23-5.98-2.23-.38.04-.73-.23-.78-.61-.04-.38.23-.73.61-.78.19-.02,4.59-.51,7.23,2.73.24.3.2.74-.1.99-.08.07-.17.11-.26.13Z" style="fill:#1d1d1b;"/><path d="m71.38,150.96s4.25,3.25,10.25,2.25c0,0-.75,1.75-.33,3.67,0,0-6.25-.83-9.92-5.92Z" style="fill:#a37c58;"/><path d="m115.39,273.73H44.3l-1.5-102.51s9.42-1.92,11-1.92,23.59,2.67,23.59,2.67l9.45,9.97,13.55-12.31s9.83.58,12.25,2.83c0,0,6.83,18.84,7.08,40.67.25,21.84-4.33,60.59-4.33,60.59Z" style="fill:#9f9ef2;"/><path d="m77.38,208.72l-18.34,21s-28.42-21.84-27.92-40.09c.5-18.25,13.67-21.59,21.92-16.17,8.25,5.42,23.42,33,24.34,35.25Z" style="fill:#5254cf;"/><path d="m119.72,215.3s11.08,3.58,13.75,4.25l8.67-26.67s-25.25-18.59-29.5-20.42c0,0,7.75,28.5,7.08,42.84Z" style="fill:#5254cf;"/><path d="m130.04,218.59s-9.82-11.48-11.73-19.98l1.37,17.48,10.37,2.5Z" style="fill:#393a8f;"/><polygon points="94.47 174.97 88.22 184.88 74.38 176.8 70.38 180.47 74.3 172.63 86.8 182.22 90.97 170.72 99.72 177.13 94.47 174.97" style="fill:#393a8f;"/><path d="m215.65,169.55s-4.42.25-5.17.92-5.58,4.5-6.33,6.75c-.75,2.25-.83,8.42-.67,9.33,0,0-24.75,21.17-31.17,22.92-6.42,1.75-31.1-13.65-31.1-13.65l-6.08,18.61s28.01,14.03,37.43,11.95c9.42-2.08,30.92-21.67,37.92-33.5l.98-7s2.13-2.5,2.06-4.06-4.5-5.38-4.5-5.38c0,0,1.75-3.25,2.81-3.56s4.25-.92,3.81-3.33Z" style="fill:#d19c5e;"/><path d="m97.19,113.09c-3.78,0-6.85,3.07-6.85,6.85,0,.24.01.48.04.72l-2.07.25c-.26-3.71-3.36-6.65-7.13-6.65s-7.11,3.17-7.16,7.08l-6.32-1.03-.16,1.04,6.55,1.06c.49,3.48,3.47,6.17,7.08,6.17s6.85-2.92,7.13-6.61l2.27-.27c.78,2.93,3.44,5.09,6.61,5.09,3.78,0,6.85-3.07,6.85-6.85s-3.07-6.85-6.85-6.85Zm-16.02,14.08c-3.17,0-5.76-2.58-5.76-5.76s2.58-5.76,5.76-5.76,5.76,2.58,5.76,5.76c0,3.17-2.58,5.76-5.76,5.76Zm16.02-1.73c-3.04,0-5.51-2.47-5.51-5.51s2.47-5.51,5.51-5.51,5.51,2.47,5.51,5.51-2.47,5.51-5.51,5.51Z" style="fill:#1d1d1b;"/><path d="m87.39,137.71l.94-1.83c-6.9-.98-10.69-4.84-10.69-4.84-.2.87-.29,1.67-.32,2.41,1.55,1.39,5.15,4.07,10.07,4.25Z" style="fill:#fff;"/><polygon points="60.47 162.71 78.72 169.05 86.55 181.3 89.39 169.13 93.72 165.3 100.39 169.63 99.72 177.13 91.72 172.22 88.22 184.88 74.97 174.22 70.38 180.47 53.8 169.3 60.47 162.71" style="fill:#5254cf;"/><path d="m158.43,195.79l1.04-2.8s7.43,3.66,12.22,3.89c5.96.28,9.32,2.52,10.28,3.88,0,0,.57-2,3.2-2.64,2.64-.64,5.05-1.24,6.01-2.04l1.6,1-5.04,5.79-12.22.56-17.1-7.63Z" style="fill:#ffe092;"/><polygon points="193.48 196.31 184.23 202.31 180.16 202.01 158.18 193.5 142.49 234.42 163.88 244.27 168.24 244.12 177.79 237.31 193.48 196.31" style="fill:#f66;"/><path d="m75.26,211.26s19.69,24.75,24.38,24.94,36.75-6.75,36.75-6.75c0,0,3.83-7.56,11.88-10.06l-1.58,4.38s10.08-5.5,10.75-5.29,6.38,3.5,5.71,7.42-4.21,7.29-4.21,7.29c0,0-9.21,10.04-20.17,5.25,0,0-28.17,16.71-41.5,14.46-16.55-2.79-34.63-27.04-34.63-27.04l12.63-14.59Z" style="fill:#d19c5e;"/><polygon points="184.3 202.31 180.29 202.04 163.95 244.32 168.28 244.11 184.3 202.31" style="fill:#e84343;"/><path d="m210.03,177.35l1.87-.72s3.15,2.24,3.1,4-1.74,5.34-2.72,6.22c-.99.88-1.12,1.28-1.12,1.28l.31-2.25s1.8-2.26,1.93-3.28,0-1.98-3.36-5.26Z" style="fill:#a37c58;"/></g></svg>