<?xml version="1.0" encoding="UTF-8"?><svg id="a" xmlns="http://www.w3.org/2000/svg" viewBox="0 0 300 300"><g><rect x="180.01" y="17.1" width="88.44" height="128.19" style="fill:#e1e1e1;"/><rect x="175.58" y="17.1" width="88.44" height="128.19" style="fill:#f5f5f5;"/><g><rect x="186.57" y="30.98" width="66.46" height="100.42" style="fill:#fff;"/><path d="m253.03,131.4s0-.17-.01-.49c0-.33,0-.8-.01-1.42,0-1.26-.01-3.11-.03-5.51-.01-4.81-.03-11.83-.06-20.69-.03-17.71-.06-42.78-.11-72.31l.22.22c-20.31,0-42.81.01-66.45.02h0l.24-.24c-.02,37.88-.04,72.81-.05,100.42l-.19-.19c20.24.04,36.83.08,48.38.1,5.77.02,10.28.04,13.37.05,1.53,0,2.7.02,3.51.02.79,0,1.21.02,1.21.02,0,0-.39.01-1.17.02-.8,0-1.96.01-3.47.02-3.07.01-7.57.03-13.32.05-11.57.02-28.2.06-48.49.1h-.19s0-.19,0-.19c-.01-27.61-.03-62.54-.05-100.42v-.24s.24,0,.24,0h0c23.65,0,46.15.01,66.45.02h.22v.22c-.04,29.59-.08,54.71-.11,72.46-.03,8.84-.05,15.83-.06,20.64-.01,2.38-.02,4.21-.03,5.46,0,.61,0,1.07-.01,1.4,0,.31-.01.47-.01.47Z" style="fill:#e1e1e1;"/></g><path d="m264.27,17.1c.05.04-.55.92-1.58,2.29-1.03,1.37-2.49,3.24-4.15,5.26-1.66,2.02-3.22,3.81-4.37,5.08-1.15,1.27-1.9,2.03-1.95,1.99-.05-.04.6-.88,1.69-2.21,1.19-1.44,2.64-3.21,4.26-5.17,1.61-1.96,3.07-3.73,4.25-5.17,1.09-1.32,1.79-2.12,1.84-2.08Z" style="fill:#e1e1e1;"/><g><path d="m253.37,131.08c3.3,5.25,7.2,10.12,11.59,14.5" style="fill:#fff;"/><path d="m264.96,145.57s-.83-.64-2.02-1.84c-1.19-1.2-2.76-2.92-4.37-4.93-1.61-2.01-2.94-3.93-3.85-5.35-.91-1.42-1.4-2.34-1.35-2.38.06-.04.66.82,1.63,2.19.97,1.37,2.34,3.24,3.94,5.24,1.6,2,3.12,3.75,4.24,5,1.12,1.25,1.82,2.02,1.77,2.07Z" style="fill:#e1e1e1;"/></g><g><path d="m175.57,145.18c3.86-4.76,7.72-9.53,11.58-14.29" style="fill:#fff;"/><path d="m187.15,130.89c.1.08-2.41,3.35-5.6,7.3-3.2,3.95-5.88,7.08-5.98,6.99-.1-.08,2.41-3.35,5.61-7.3,3.2-3.95,5.88-7.08,5.98-6.99Z" style="fill:#e1e1e1;"/></g><path d="m175.58,17.1c.1-.08,2.62,2.93,5.62,6.72,3,3.8,5.35,6.94,5.25,7.02-.1.08-2.62-2.93-5.62-6.72-3-3.79-5.35-6.94-5.25-7.02Z" style="fill:#e1e1e1;"/><rect x="210.07" y="51.37" width="22.25" height="63.19" style="fill:#e1e1e1;"/></g><g><rect x="81.33" y="66.15" width="193.55" height="146.83" style="fill:#fff;"/><g><path d="m277.93,216.03H79.75V64.33h198.18v151.71Zm-195.13-3.05h192.07V67.38H82.8v145.6Z" style="fill:#e1e1e1;"/><g><path d="m277.93,216.03H79.75V64.33h198.18v151.71Zm-195.13-3.05h192.07V67.38H82.8v145.6Z" style="fill:none;"/><path d="m82.8,212.98c0-.83-.04-57.54-.1-145.6v-.1s.1,0,.1,0c54.33,0,120.6-.01,192.06-.02h.14v.12c0,52.38,0,101.97-.01,145.6v.11h-.11c-113.88-.06-191.11-.11-192.07-.11.96,0,78.19-.04,192.07-.11l-.11.11c0-43.63,0-93.22-.01-145.6l.12.12h-.02c-71.45,0-137.73-.02-192.06-.02l.1-.1c-.06,88.06-.1,144.77-.1,145.6Z" style="fill:#1a2e35;"/><path d="m277.93,216.03c0-.83-.04-60.01-.1-151.71l.1.1c-56.18,0-124.52.01-198.17.02h-.02l.12-.12c0,54.62,0,106.31-.01,151.71l-.11-.11c117.56.06,197.22.11,198.18.11-.96,0-80.62.04-198.18.11h-.11s0-.11,0-.11c0-45.4,0-97.09-.01-151.71v-.12h.14c73.65,0,141.98.02,198.17.02h.1v.1c-.06,91.7-.1,150.88-.1,151.71Z" style="fill:#1a2e35;"/></g></g><g><path d="m224.95,185.81c-3.47,3.63-4.98,8.88-4,13.8.12.58,1,.34.89-.25-.91-4.59.54-9.52,3.76-12.9.41-.43-.24-1.08-.65-.65h0Z" style="fill:#1a2e35;"/><path d="m228.33,191.8c-.1,0-.25-.09-.46-.28-.19.09-.36.16-.51.21-.15.05-.27.07-.37.07-.5,0-.88-.13-1.13-.4-.25-.27-.38-.67-.38-1.21,0-.5.19-.93.56-1.29.37-.36.82-.54,1.33-.54.2,0,.43.06.69.17.32.13.47.29.47.47,0,.07-.02.14-.07.2-.02.08-.04.19-.05.31-.01.13-.02.27-.02.44,0,.39.03.68.08.85,0,.02.05.13.14.32.08.18.12.28.12.3,0,.11-.04.2-.13.27-.08.07-.18.11-.29.11Zm-.78-2.11c0-.07,0-.14.01-.23,0-.09.02-.18.04-.29-.04-.02-.08-.04-.11-.05-.03,0-.06-.01-.08-.01-.28,0-.53.11-.74.33-.21.22-.32.48-.32.77s.05.49.15.63c.1.14.25.21.45.21.13,0,.25-.02.37-.06s.22-.11.33-.19c-.06-.5-.09-.87-.09-1.11Z" style="fill:#1a2e35;"/><path d="m238.16,189.26c-.26,0-.4-.13-.43-.38-.03-.21-.06-.43-.09-.65-.03-.23-.05-.45-.05-.65,0-.05,0-.15.01-.28,0-.13.01-.22.01-.28,0-.01,0-.05,0-.11,0-.06,0-.11,0-.15,0-.17-.04-.26-.13-.26-.18,0-.35.11-.53.34-.17.23-.31.52-.4.87,0,.07-.01.16-.03.28-.01.1-.02.19-.02.28,0,.06,0,.15-.02.27-.01.12-.02.21-.02.27,0,.12-.04.22-.12.3-.08.08-.19.12-.31.12s-.23-.04-.31-.12-.12-.18-.12-.3c0-.06,0-.15-.02-.27-.01-.12-.02-.21-.02-.27,0-.2.02-.49.04-.85.03-.36.04-.65.04-.85,0-.06,0-.16-.01-.29,0-.13-.01-.22-.01-.28,0-.12.04-.22.13-.29.08-.08.19-.12.31-.12.27,0,.42.16.44.49v.03c.31-.31.63-.46.97-.46.39,0,.67.16.82.49.1.22.15.55.15.99v.22c0,.1,0,.16,0,.2,0,.16.02.37.07.63.04.26.07.47.07.63,0,.12-.04.21-.13.29-.08.08-.19.12-.31.12Z" style="fill:#1a2e35;"/><path d="m253.21,189.26c-.26,0-.4-.13-.43-.38-.03-.21-.06-.43-.09-.65-.03-.23-.05-.45-.05-.65,0-.05,0-.15.01-.28,0-.13.01-.22.01-.28,0-.01,0-.05,0-.11,0-.06,0-.11,0-.15,0-.17-.04-.26-.13-.26-.18,0-.35.11-.53.34-.17.23-.31.52-.4.87,0,.07-.01.16-.03.28-.01.1-.02.19-.02.28,0,.06,0,.15-.02.27-.01.12-.02.21-.02.27,0,.12-.04.22-.12.3-.08.08-.19.12-.31.12s-.23-.04-.31-.12c-.08-.08-.12-.18-.12-.3,0-.06,0-.15-.02-.27-.01-.12-.02-.21-.02-.27,0-.2.01-.49.04-.85.03-.36.04-.65.04-.85,0-.06,0-.16-.01-.29,0-.13-.01-.22-.01-.28,0-.12.04-.22.13-.29.08-.08.19-.12.31-.12.27,0,.42.16.44.49v.03c.31-.31.63-.46.97-.46.39,0,.67.16.82.49.1.22.15.55.15.99v.22c0,.1,0,.16,0,.2,0,.16.02.37.07.63.04.26.07.47.07.63,0,.12-.04.21-.13.29s-.19.12-.31.12Z" style="fill:#1a2e35;"/><path d="m253.21,198.26c-.26,0-.4-.13-.43-.38-.03-.21-.06-.43-.09-.65-.03-.23-.05-.45-.05-.65,0-.05,0-.15.01-.28,0-.13.01-.22.01-.28,0-.01,0-.05,0-.11,0-.06,0-.11,0-.15,0-.17-.04-.26-.13-.26-.18,0-.35.11-.53.34-.17.23-.31.52-.4.87,0,.07-.01.16-.03.28-.01.1-.02.19-.02.28,0,.06,0,.15-.02.27-.01.12-.02.21-.02.27,0,.12-.04.22-.12.3-.08.08-.19.12-.31.12s-.23-.04-.31-.12c-.08-.08-.12-.18-.12-.3,0-.06,0-.15-.02-.27-.01-.12-.02-.21-.02-.27,0-.2.01-.49.04-.85.03-.36.04-.65.04-.85,0-.06,0-.16-.01-.29,0-.13-.01-.22-.01-.28,0-.12.04-.22.13-.29.08-.08.19-.12.31-.12.27,0,.42.16.44.49v.03c.31-.31.63-.46.97-.46.39,0,.67.16.82.49.1.22.15.55.15.99v.22c0,.1,0,.16,0,.2,0,.16.02.37.07.63.04.26.07.47.07.63,0,.12-.04.21-.13.29s-.19.12-.31.12Z" style="fill:#1a2e35;"/><path d="m227.5,200.8c-.29,0-.57-.05-.83-.15-.08.08-.17.12-.28.12s-.21-.04-.29-.11c-.08-.08-.12-.17-.12-.28,0-.05,0-.13,0-.23,0-.1,0-.18,0-.23v-3.55c0-.15.03-.28.1-.4.08-.15.2-.22.36-.22.22,0,.33.12.33.36,0,.03,0,.07-.01.13,0,.06-.01.1-.01.13v1.2c.15-.09.3-.15.44-.19.14-.04.28-.06.41-.06.49,0,.89.18,1.19.54.28.33.42.74.42,1.21s-.16.89-.49,1.23c-.33.34-.75.52-1.24.52Zm.12-2.69c-.11,0-.23.03-.38.09-.14.06-.3.16-.48.28,0,.2,0,.64,0,1.33.29.12.53.18.74.18.26,0,.48-.09.65-.27.17-.18.26-.4.26-.67s-.07-.5-.21-.67c-.15-.18-.34-.28-.58-.28Z" style="fill:#1a2e35;"/><path d="m224.1,194.13h6.81c.59,0,.59-.92,0-.92h-6.81c-.59,0-.59.92,0,.92h0Z" style="fill:#1a2e35;"/><path d="m248.32,191.8c-.1,0-.25-.09-.46-.28-.19.09-.36.16-.51.21-.15.05-.27.07-.37.07-.5,0-.88-.13-1.13-.4-.25-.27-.38-.67-.38-1.21,0-.5.19-.93.56-1.29.37-.36.82-.54,1.33-.54.2,0,.43.06.69.17.32.13.47.29.47.47,0,.07-.02.14-.07.2-.02.08-.04.19-.05.31-.01.13-.02.27-.02.44,0,.39.03.68.08.85,0,.02.05.13.14.32.08.18.12.28.12.3,0,.11-.04.2-.13.27-.08.07-.18.11-.29.11Zm-.78-2.11c0-.07,0-.14.01-.23,0-.09.02-.18.04-.29-.04-.02-.08-.04-.11-.05-.03,0-.06-.01-.08-.01-.28,0-.53.11-.74.33-.21.22-.32.48-.32.77s.05.49.15.63c.1.14.25.21.45.21.13,0,.25-.02.37-.06.12-.04.22-.11.33-.19-.06-.5-.09-.87-.09-1.11Z" style="fill:#1a2e35;"/><path d="m247.48,200.8c-.29,0-.57-.05-.83-.15-.08.08-.17.12-.28.12s-.21-.04-.29-.11c-.08-.08-.12-.17-.12-.28,0-.05,0-.13,0-.23,0-.1,0-.18,0-.23v-3.55c0-.15.03-.28.1-.4.08-.15.2-.22.36-.22.22,0,.33.12.33.36,0,.03,0,.07-.01.13,0,.06-.01.1-.01.13v1.2c.15-.09.3-.15.44-.19.14-.04.28-.06.41-.06.49,0,.89.18,1.19.54.28.33.42.74.42,1.21s-.16.89-.49,1.23c-.33.34-.75.52-1.24.52Zm.12-2.69c-.11,0-.23.03-.38.09-.14.06-.3.16-.48.28,0,.2,0,.64,0,1.33.29.12.53.18.74.18.26,0,.48-.09.65-.27.17-.18.26-.4.26-.67s-.07-.5-.21-.67c-.15-.18-.34-.28-.58-.28Z" style="fill:#1a2e35;"/><path d="m244.09,194.13h6.81c.59,0,.59-.92,0-.92h-6.81c-.59,0-.59.92,0,.92h0Z" style="fill:#1a2e35;"/><path d="m231.77,200.72c2.53-4.13,3.06-9.36,1.39-13.9-.2-.55-1.09-.31-.89.25,1.59,4.33,1.11,9.26-1.3,13.19-.31.51.49.97.8.47h0Z" style="fill:#1a2e35;"/><path d="m237.34,193.45h3.17c.25,0,.46-.21.46-.46s-.21-.46-.46-.46h-3.17c-.25,0-.46.21-.46.46s.21.46.46.46h0Z" style="fill:#1a2e35;"/><path d="m237.34,195.2h3.17c.25,0,.46-.21.46-.46s-.21-.46-.46-.46h-3.17c-.25,0-.46.21-.46.46s.21.46.46.46h0Z" style="fill:#1a2e35;"/><path d="m228.33,191.8c-.1,0-.25-.09-.46-.28-.19.09-.36.16-.51.21-.15.05-.27.07-.37.07-.5,0-.88-.13-1.13-.4-.25-.27-.38-.67-.38-1.21,0-.5.19-.93.56-1.29.37-.36.82-.54,1.33-.54.2,0,.43.06.69.17.32.13.47.29.47.47,0,.07-.02.14-.07.2-.02.08-.04.19-.05.31-.01.13-.02.27-.02.44,0,.39.03.68.08.85,0,.02.05.13.14.32.08.18.12.28.12.3,0,.11-.04.2-.13.27-.08.07-.18.11-.29.11Zm-.78-2.11c0-.07,0-.14.01-.23,0-.09.02-.18.04-.29-.04-.02-.08-.04-.11-.05-.03,0-.06-.01-.08-.01-.28,0-.53.11-.74.33-.21.22-.32.48-.32.77s.05.49.15.63c.1.14.25.21.45.21.13,0,.25-.02.37-.06s.22-.11.33-.19c-.06-.5-.09-.87-.09-1.11Z" style="fill:#1a2e35;"/></g><g><path d="m186.25,84.65v29.88c0,.29.24.53.53.53h55.87c2.56,0,5.14.08,7.71,0,.04,0,.07,0,.11,0,.68,0,.68-1.06,0-1.06h-61.11c-.8,0-1.67-.1-2.46,0-.04,0-.08,0-.11,0,.18.18.35.35.53.53v-29.88c0-.68-1.06-.68-1.06,0h0Z" style="fill:#1a2e35;"/><path d="m185.63,86.66c.47-.65.93-1.3,1.4-1.95.07-.1.14-.19.2-.29h-.92c.51.68,1.02,1.36,1.52,2.04.17.22.47.36.73.19.22-.14.37-.49.19-.73-.51-.68-1.02-1.36-1.52-2.04-.25-.33-.67-.34-.92,0-.47.65-.93,1.3-1.4,1.95-.07.1-.14.19-.2.29-.16.23-.05.6.19.73.27.15.55.05.73-.19h0Z" style="fill:#1a2e35;"/><path d="m249.08,113.43c.65.47,1.3.93,1.95,1.4.1.07.19.14.29.2v-.92c-.68.51-1.36,1.02-2.04,1.52-.22.17-.36.47-.19.73.14.22.49.37.73.19.68-.51,1.36-1.02,2.04-1.52.33-.25.34-.67,0-.92-.65-.47-1.3-.93-1.95-1.4-.1-.07-.19-.14-.29-.2-.23-.16-.6-.05-.73.19-.15.27-.05.55.19.73h0Z" style="fill:#1a2e35;"/><path d="m189.08,111.78c2.28-5.41,3.69-11.3,7.26-16.07,2.96-3.96,7.65-6.88,12.74-5.74,2.44.55,4.37,2.01,5.56,4.21,1.27,2.35,1.83,5.04,3.47,7.2.74.98,1.67,1.81,2.82,2.28,1.26.52,2.65.51,3.97.21,2.89-.66,5.18-2.67,7.97-3.56,1.51-.49,3.05-.5,4.54.06,1.34.51,2.52,1.42,3.48,2.48,2.17,2.42,3.09,5.68,3.99,8.73.19.65,1.22.38,1.02-.28-.83-2.84-1.69-5.78-3.45-8.2-1.54-2.11-3.8-3.83-6.44-4.17-3.03-.39-5.64,1.33-8.2,2.67-1.38.72-2.9,1.37-4.48,1.42-1.4.04-2.65-.48-3.65-1.46-2-1.96-2.61-4.83-3.79-7.28-1.13-2.35-2.91-4.13-5.39-5-2.28-.8-4.85-.79-7.15-.1-2.5.75-4.7,2.34-6.46,4.24-4.68,5.05-6.22,11.92-8.83,18.09-.27.63.76.9,1.02.28h0Z" style="fill:#1a2e35;"/><g><path d="m227.34,93.31c-.11,0-.3-.11-.54-.33-.23.11-.43.19-.6.25-.17.06-.32.08-.44.08-.6,0-1.05-.16-1.35-.48-.3-.32-.45-.8-.45-1.44,0-.6.22-1.11.66-1.54.44-.43.97-.64,1.59-.64.24,0,.51.07.82.2.38.16.56.35.56.56,0,.09-.03.17-.09.23-.03.1-.04.22-.06.37-.01.15-.02.32-.02.52,0,.47.03.81.1,1.01,0,.02.06.15.17.38.1.21.15.33.15.36,0,.13-.05.24-.15.32-.1.09-.22.13-.35.13Zm-.92-2.52c0-.08,0-.17.02-.27.01-.1.03-.22.05-.34-.05-.02-.09-.04-.13-.05-.04-.01-.07-.02-.1-.02-.34,0-.63.13-.89.4-.25.26-.38.57-.38.92s.06.58.18.75c.12.17.3.25.54.25.15,0,.3-.03.44-.08.14-.05.27-.13.39-.23-.07-.59-.11-1.03-.11-1.33Z" style="fill:#1a2e35;"/><path d="m230.7,89.7s-.12,0-.22-.02c-.1-.02-.17-.02-.21-.02h-.82c-.07,0-.18,0-.32.02-.14.02-.25.03-.32.03-.02,0-.05,0-.09-.01-.04,0-.07-.01-.09-.01-.17,0-.28-.07-.34-.2-.04-.09-.06-.22-.06-.4,0-.35.08-.64.23-.87.12-.18.31-.36.58-.54.25-.17.5-.33.75-.49.29-.21.44-.46.44-.73,0-.07-.06-.14-.18-.21-.12-.07-.23-.1-.34-.1-.2,0-.41.09-.63.26-.22.18-.37.26-.45.26-.1,0-.18-.02-.26-.07-.09-.06-.14-.14-.14-.25,0-.11.05-.21.14-.29.22-.2.42-.34.59-.43.24-.13.49-.2.75-.2.32,0,.61.08.87.25.3.19.44.45.44.76s-.07.58-.22.81c-.11.18-.29.35-.54.52-.23.15-.46.29-.7.44-.35.23-.54.49-.57.79.1-.01.25-.03.45-.04.4-.02.68-.03.85-.03.16,0,.32.03.47.1.19.09.29.2.29.33,0,.1-.03.18-.1.25-.07.08-.16.12-.27.12Z" style="fill:#1a2e35;"/><path d="m234.69,93.26c-.35,0-.68-.06-.99-.18-.09.09-.2.14-.34.14s-.25-.04-.34-.13c-.1-.09-.14-.2-.14-.34,0-.06,0-.15.01-.27s.01-.21.01-.27v-4.22c0-.18.04-.34.12-.48.1-.18.24-.26.42-.26.27,0,.4.14.4.43,0,.03,0,.08-.01.15,0,.07-.01.12-.01.15v1.43c.18-.1.36-.18.53-.23.17-.05.33-.08.49-.08.58,0,1.06.21,1.42.64.34.4.5.88.5,1.45s-.2,1.06-.59,1.46c-.4.41-.89.61-1.48.61Zm.14-3.21c-.13,0-.28.04-.45.11-.17.07-.36.19-.57.34,0,.24,0,.76,0,1.58.34.15.63.22.88.22.32,0,.58-.11.78-.32.2-.21.31-.48.31-.8s-.08-.59-.25-.8c-.17-.22-.41-.33-.69-.33Z" style="fill:#1a2e35;"/><path d="m242.99,93.34c-.55,0-1-.16-1.38-.47-.39-.33-.59-.76-.59-1.3,0-.49.18-1,.53-1.53.4-.6.86-.9,1.39-.9.26,0,.56.07.91.21.42.17.63.37.63.59,0,.12-.04.23-.13.32-.09.1-.21.15-.35.15-.11,0-.24-.06-.39-.17-.15-.12-.38-.17-.68-.17-.19,0-.4.19-.62.56-.21.36-.32.68-.32.94s.09.47.28.61c.18.14.41.21.71.21.17,0,.37-.06.61-.19.24-.13.39-.19.46-.19.13,0,.25.05.34.15.1.1.14.21.14.33,0,.19-.21.39-.63.58-.38.17-.69.26-.92.26Z" style="fill:#1a2e35;"/><path d="m239.39,89.58s-.12,0-.22-.02c-.1-.02-.17-.02-.21-.02h-.82c-.07,0-.18,0-.32.02-.14.02-.25.03-.32.03-.02,0-.05,0-.09-.01-.04,0-.07-.01-.09-.01-.17,0-.28-.07-.34-.2-.04-.09-.06-.22-.06-.4,0-.35.08-.64.23-.87.12-.18.31-.36.58-.54.25-.17.5-.33.75-.49.29-.21.44-.46.44-.73,0-.07-.06-.14-.18-.21-.12-.07-.23-.1-.34-.1-.2,0-.41.09-.63.26-.22.18-.37.26-.45.26-.1,0-.18-.02-.26-.07-.09-.06-.14-.14-.14-.25,0-.11.05-.21.14-.29.22-.2.42-.34.59-.43.24-.13.49-.2.75-.2.32,0,.61.08.87.25.3.19.44.45.44.76s-.07.58-.22.81c-.11.18-.29.35-.54.52-.23.15-.46.29-.7.44-.35.23-.54.49-.57.79.1-.01.25-.03.45-.04.4-.02.68-.03.85-.03.16,0,.32.03.47.1.19.09.29.2.29.33,0,.1-.03.18-.1.25-.07.08-.16.12-.27.12Z" style="fill:#1a2e35;"/><path d="m248.01,89.82s-.12,0-.22-.02c-.1-.02-.17-.02-.21-.02h-.82c-.07,0-.18,0-.32.02-.14.02-.25.03-.32.03-.02,0-.05,0-.09-.01-.04,0-.07-.01-.09-.01-.17,0-.28-.07-.34-.2-.04-.09-.06-.22-.06-.4,0-.35.08-.64.23-.87.12-.18.31-.36.58-.54.25-.17.5-.33.75-.49.29-.21.44-.46.44-.73,0-.07-.06-.14-.18-.21-.12-.07-.23-.1-.34-.1-.2,0-.41.09-.63.26-.22.18-.37.26-.45.26-.1,0-.18-.02-.26-.07-.09-.06-.14-.14-.14-.25,0-.11.05-.21.14-.29.22-.2.42-.34.59-.43.24-.13.49-.2.75-.2.32,0,.61.08.87.25.3.19.44.45.44.76s-.07.58-.22.81c-.11.18-.29.35-.54.52-.23.15-.46.29-.7.44-.35.23-.54.49-.57.79.1-.01.25-.03.45-.04.4-.02.68-.03.85-.03.16,0,.32.03.47.1.19.09.29.2.29.33,0,.1-.03.18-.1.25-.07.08-.16.12-.27.12Z" style="fill:#1a2e35;"/><path d="m237.94,91.34h1.9c.14,0,.27-.12.27-.27s-.12-.27-.27-.27h-1.9c-.14,0-.27.12-.27.27s.12.27.27.27h0Z" style="fill:#1a2e35;"/><path d="m237.94,92.37h1.9c.14,0,.27-.12.27-.27s-.12-.27-.27-.27h-1.9c-.14,0-.27.12-.27.27s.12.27.27.27h0Z" style="fill:#1a2e35;"/><path d="m230.59,90.67v1.88c0,.14.12.27.27.27s.27-.12.27-.27v-1.88c0-.14-.12-.27-.27-.27s-.27.12-.27.27h0Z" style="fill:#1a2e35;"/><path d="m229.83,91.79h2.06c.34,0,.34-.53,0-.53h-2.06c-.34,0-.34.53,0,.53h0Z" style="fill:#1a2e35;"/></g></g><g><g><g><path d="m143.3,115.61h-31.87v-22.31h31.87v22.31Zm-31.46-.41h31.05v-21.48h-31.05v21.48Z" style="fill:#1a2e35;"/><path d="m143.3,115.79h-31.87c-.1,0-.17-.08-.17-.17v-22.31c0-.1.08-.17.17-.17h31.87c.1,0,.17.08.17.17v22.31c0,.1-.08.17-.17.17Zm-31.7-.35h31.53v-21.96h-31.53v21.96Zm31.29-.06h-31.05c-.1,0-.17-.08-.17-.17v-21.49c0-.1.08-.17.17-.17h31.05c.1,0,.17.08.17.17v21.49c0,.1-.08.17-.17.17Zm-30.88-.35h30.7v-21.14h-30.7v21.14Z" style="fill:#1a2e35;"/></g><g><path d="m143.09,115.61s-.07,0-.1-.03c-.07-.04-.11-.11-.11-.18v-21.9c0-.07.04-.14.1-.17l13.58-8.5c.06-.04.14-.04.21,0,.07.04.11.11.11.18v21.9c0,.07-.04.14-.1.17l-13.58,8.5s-.07.03-.11.03Zm.21-21.99v21.41l13.16-8.24v-21.41l-13.16,8.24Z" style="fill:#1a2e35;"/><path d="m143.09,115.79c-.06,0-.13-.02-.18-.05-.12-.07-.2-.2-.2-.33v-21.9c0-.13.07-.25.18-.32l13.58-8.5c.12-.07.27-.08.39,0,.12.07.19.19.19.33v21.9c0,.13-.07.25-.18.32l-13.58,8.5c-.06.04-.13.06-.2.06Zm13.56-30.8h0l-13.58,8.5v21.92s.02.03.02.03c0,0,.01,0,.02,0l13.57-8.5v-21.92h.01s-.05-.03-.05-.03Zm-13.35,30.22s-.06,0-.08-.02c-.06-.03-.09-.09-.09-.15v-21.41c0-.06.03-.12.08-.15l13.16-8.24c.05-.03.12-.04.18,0,.06.03.09.09.09.15v21.41c0,.06-.03.12-.08.15l-13.16,8.24s-.06.03-.09.03Zm.17-21.49v21l12.81-8.02v-21l-12.81,8.02Z" style="fill:#1a2e35;"/></g><g><path d="m111.74,115.58l-.22-.35,2.09-1.31.22.35-2.09,1.31Zm2.79-1.75l-.22-.35,2.09-1.31.22.35-2.09,1.31Zm2.79-1.75l-.22-.35,2.09-1.31.22.35-2.09,1.31Zm2.79-1.75l-.22-.35,2.09-1.31.22.35-2.09,1.31Zm2.79-1.75l-.22-.35,2.09-1.31.22.35-2.09,1.31Zm2.51-2.13h-.41v-2.47h.41v2.47Zm0-3.29h-.41v-2.47h.41v2.47Zm0-3.29h-.41v-2.47h.41v2.47Zm0-3.29h-.41v-2.47h.41v2.47Zm0-3.29h-.41v-2.47h.41v2.47Zm0-3.29h-.41v-2.47h.41v2.47Zm0-3.29h-.41v-1.7h.41v1.7Z" style="fill:#1a2e35;"/><path d="m111.74,115.75c-.06,0-.11-.03-.15-.08l-.22-.35s-.03-.09-.02-.13c.01-.05.04-.08.08-.11l2.09-1.31c.08-.05.19-.03.24.06l.22.35s.03.09.02.13c-.01.05-.04.08-.08.11l-2.09,1.31s-.06.03-.09.03Zm.02-.47l.03.05,1.8-1.13-.03-.05-1.8,1.13Zm2.77-1.28s-.03,0-.04,0c-.05-.01-.08-.04-.11-.08l-.22-.35s-.03-.09-.02-.13c.01-.05.04-.08.08-.11l2.09-1.31c.08-.05.19-.03.24.06l.22.35s.03.09.02.13c-.01.05-.04.08-.08.11l-2.09,1.31s-.06.03-.09.03Zm.02-.47l.03.05,1.8-1.13-.03-.05-1.8,1.13Zm2.77-1.28c-.06,0-.11-.03-.15-.08l-.22-.35s-.03-.09-.02-.13c.01-.04.04-.08.08-.11l2.09-1.31c.08-.05.19-.03.24.06l.22.35s.03.09.02.13c-.01.04-.04.08-.08.11l-2.09,1.31s-.06.03-.09.03Zm.02-.47l.03.05,1.8-1.13-.03-.05-1.8,1.13Zm2.77-1.28c-.06,0-.11-.03-.15-.08l-.22-.35s-.03-.09-.02-.13c.01-.05.04-.08.08-.11l2.09-1.31c.08-.05.19-.03.24.06l.22.35s.03.09.02.13c-.01.05-.04.08-.08.11l-2.09,1.31s-.06.03-.09.03Zm.02-.47l.03.05,1.8-1.13-.03-.05-1.8,1.13Zm2.77-1.28c-.06,0-.11-.03-.15-.08l-.22-.35s-.03-.09-.02-.13c.01-.05.04-.08.08-.11l2.09-1.31c.08-.05.19-.03.24.06l.22.35s.03.09.02.13c-.01.05-.04.08-.08.11l-2.09,1.31s-.06.03-.09.03Zm.02-.47l.03.05,1.8-1.13-.03-.05-1.8,1.13Zm2.49-1.66h-.41c-.1,0-.17-.08-.17-.17v-2.47c0-.1.08-.17.17-.17h.41c.1,0,.17.08.17.17v2.47c0,.1-.08.17-.17.17Zm-.24-.35h.06v-2.12h-.06v2.12Zm.24-2.94h-.41c-.1,0-.17-.08-.17-.17v-2.47c0-.1.08-.17.17-.17h.41c.1,0,.17.08.17.17v2.47c0,.1-.08.17-.17.17Zm-.24-.35h.06v-2.12h-.06v2.12Zm.24-2.94h-.41c-.1,0-.17-.08-.17-.17v-2.47c0-.1.08-.17.17-.17h.41c.1,0,.17.08.17.17v2.47c0,.1-.08.17-.17.17Zm-.24-.35h.06v-2.12h-.06v2.12Zm.24-2.94h-.41c-.1,0-.17-.08-.17-.17v-2.47c0-.1.08-.17.17-.17h.41c.1,0,.17.08.17.17v2.47c0,.1-.08.17-.17.17Zm-.24-.35h.06v-2.12h-.06v2.12Zm.24-2.94h-.41c-.1,0-.17-.08-.17-.17v-2.47c0-.1.08-.17.17-.17h.41c.1,0,.17.08.17.17v2.47c0,.1-.08.17-.17.17Zm-.24-.35h.06v-2.12h-.06v2.12Zm.24-2.94h-.41c-.1,0-.17-.08-.17-.17v-2.47c0-.1.08-.17.17-.17h.41c.1,0,.17.08.17.17v2.47c0,.1-.08.17-.17.17Zm-.24-.35h.06v-2.12h-.06v2.12Zm.24-2.94h-.41c-.1,0-.17-.08-.17-.17v-1.7c0-.1.08-.17.17-.17h.41c.1,0,.17.08.17.17v1.7c0,.1-.08.17-.17.17Zm-.24-.35h.06v-1.35h-.06v1.35Z" style="fill:#1a2e35;"/></g><g><path d="m111.63,115.61c-.11,0-.21-.09-.21-.21v-21.9c0-.07.04-.14.1-.17l13.58-8.5s.07-.03.11-.03h31.46c.11,0,.21.09.21.21s-.09.21-.21.21h-31.4l-13.43,8.41v21.78c0,.11-.09.21-.21.21Z" style="fill:#1a2e35;"/><path d="m111.63,115.79c-.21,0-.38-.17-.38-.38v-21.9c0-.13.07-.25.18-.32l13.58-8.5c.06-.04.13-.06.2-.06h31.46c.21,0,.38.17.38.38s-.17.38-.38.38h-31.35l-13.3,8.33v21.69c0,.21-.17.38-.38.38Zm13.58-30.81l-13.59,8.5v21.92s.05.03.05,0v-21.78c0-.06.03-.12.08-.15l13.43-8.41s.06-.03.09-.03h31.4s.03-.01.03-.03-.01-.03-.03-.03h-31.46Z" style="fill:#1a2e35;"/></g><g><path d="m156.67,107.11h-1.83v-.41h1.83v.41Zm-2.65,0h-2.47v-.41h2.47v.41Zm-3.29,0h-2.47v-.41h2.47v.41Zm-3.29,0h-2.47v-.41h2.47v.41Zm-3.29,0h-2.47v-.41h2.47v.41Zm-3.29,0h-2.47v-.41h2.47v.41Zm-3.29,0h-2.47v-.41h2.47v.41Zm-3.29,0h-2.47v-.41h2.47v.41Zm-3.29,0h-2.47v-.41h2.47v.41Zm-3.29,0h-2.47v-.41h2.47v.41Z" style="fill:#1a2e35;"/><path d="m156.67,107.29h-1.83c-.1,0-.17-.08-.17-.17v-.41c0-.1.08-.17.17-.17h1.83c.1,0,.17.08.17.17v.41c0,.1-.08.17-.17.17Zm-1.66-.35h1.48v-.06h-1.48v.06Zm-1,.35h-2.47c-.1,0-.17-.08-.17-.17v-.41c0-.1.08-.17.17-.17h2.47c.1,0,.17.08.17.17v.41c0,.1-.08.17-.17.17Zm-2.29-.35h2.12v-.06h-2.12v.06Zm-1,.35h-2.47c-.1,0-.17-.08-.17-.17v-.41c0-.1.08-.17.17-.17h2.47c.1,0,.17.08.17.17v.41c0,.1-.08.17-.17.17Zm-2.29-.35h2.12v-.06h-2.12v.06Zm-1,.35h-2.47c-.1,0-.17-.08-.17-.17v-.41c0-.1.08-.17.17-.17h2.47c.1,0,.17.08.17.17v.41c0,.1-.08.17-.17.17Zm-2.29-.35h2.12v-.06h-2.12v.06Zm-1,.35h-2.47c-.1,0-.17-.08-.17-.17v-.41c0-.1.08-.17.17-.17h2.47c.1,0,.17.08.17.17v.41c0,.1-.08.17-.17.17Zm-2.29-.35h2.12v-.06h-2.12v.06Zm-1,.35h-2.47c-.1,0-.17-.08-.17-.17v-.41c0-.1.08-.17.17-.17h2.47c.1,0,.17.08.17.17v.41c0,.1-.08.17-.17.17Zm-2.3-.35h2.12v-.06h-2.12v.06Zm-1,.35h-2.47c-.1,0-.17-.08-.17-.17v-.41c0-.1.08-.17.17-.17h2.47c.1,0,.17.08.17.17v.41c0,.1-.08.17-.17.17Zm-2.3-.35h2.12v-.06h-2.12v.06Zm-1,.35h-2.47c-.1,0-.17-.08-.17-.17v-.41c0-.1.08-.17.17-.17h2.47c.1,0,.17.08.17.17v.41c0,.1-.08.17-.17.17Zm-2.3-.35h2.12v-.06h-2.12v.06Zm-1,.35h-2.47c-.1,0-.17-.08-.17-.17v-.41c0-.1.08-.17.17-.17h2.47c.1,0,.17.08.17.17v.41c0,.1-.08.17-.17.17Zm-2.29-.35h2.12v-.06h-2.12v.06Zm-1,.35h-2.47c-.1,0-.17-.08-.17-.17v-.41c0-.1.08-.17.17-.17h2.47c.1,0,.17.08.17.17v.41c0,.1-.08.17-.17.17Zm-2.29-.35h2.12v-.06h-2.12v.06Z" style="fill:#1a2e35;"/></g></g><path d="m107.99,125.82c-.59,0-1.06-.13-1.4-.39-.29-.22-.43-.47-.43-.76,0-.15.04-.27.13-.37.09-.1.21-.14.37-.14.21,0,.36.11.46.32.13.29.43.43.9.43.4,0,.79-.09,1.16-.26.39-.18.58-.38.58-.59,0-.29-.12-.49-.36-.58-.17-.07-.52-.11-1.04-.12-.4,0-.76-.08-1.08-.23-.43-.19-.64-.47-.64-.83,0-.45.25-.87.73-1.25.48-.38,1-.57,1.58-.57.23,0,.51.05.85.16.42.13.63.28.63.45,0,.12-.04.23-.13.32-.09.1-.21.16-.36.16-.11,0-.27-.02-.49-.07-.22-.05-.38-.07-.49-.07-.3,0-.59.07-.86.22-.28.14-.42.3-.42.47,0,.09.04.16.13.22.08.06.21.1.38.12.3.02.59.03.89.05.52.04.93.19,1.23.44.33.28.5.67.5,1.16,0,.6-.34,1.06-1.03,1.37-.52.24-1.12.35-1.79.35Z" style="fill:#1a2e35;"/><g><path d="m120.36,125.61c-.06,0-.15-.01-.27-.03-.12-.02-.21-.03-.26-.03h-1.03c-.09,0-.22,0-.4.03-.18.02-.31.03-.41.03-.03,0-.06,0-.11-.01-.05,0-.09-.01-.11-.01-.21,0-.35-.08-.43-.26-.05-.11-.07-.27-.07-.5,0-.44.1-.8.29-1.09.15-.23.39-.45.72-.68.31-.21.63-.41.94-.62.37-.27.55-.57.55-.91,0-.09-.07-.18-.22-.26-.15-.09-.29-.13-.43-.13-.25,0-.51.11-.78.33-.28.22-.47.33-.57.33-.12,0-.23-.03-.33-.09-.12-.07-.17-.18-.17-.31,0-.14.06-.26.17-.37.28-.25.53-.43.74-.54.3-.17.62-.25.94-.25.4,0,.77.11,1.09.32.37.24.56.56.56.95s-.09.73-.27,1.01c-.14.22-.37.44-.67.65-.29.18-.58.37-.87.55-.44.29-.68.62-.71.99.13-.02.32-.03.57-.06.5-.03.85-.04,1.07-.04.2,0,.4.04.59.13.24.11.36.24.36.41,0,.12-.04.23-.13.32-.09.1-.2.15-.34.15Z" style="fill:#1a2e35;"/><path d="m124.58,125.8c-.11,0-.28-.1-.51-.31-.21.1-.4.18-.57.23s-.3.08-.42.08c-.56,0-.98-.15-1.26-.45-.28-.3-.42-.75-.42-1.35,0-.56.21-1.04.62-1.44.41-.4.91-.6,1.49-.6.22,0,.48.06.77.19.35.15.53.32.53.52,0,.08-.03.16-.08.22-.02.09-.04.21-.05.35-.01.14-.02.3-.02.49,0,.44.03.76.09.95,0,.02.06.14.16.36.09.2.14.31.14.34,0,.12-.05.22-.14.3-.09.08-.2.12-.33.12Zm-.87-2.36c0-.07,0-.16.02-.26.01-.1.03-.2.05-.32-.05-.02-.09-.04-.12-.05-.04-.01-.07-.02-.09-.02-.32,0-.59.12-.83.37-.24.25-.36.53-.36.86s.06.55.17.7c.11.16.28.24.5.24.14,0,.28-.02.41-.07.13-.05.25-.12.37-.21-.07-.55-.1-.97-.1-1.24Z" style="fill:#1a2e35;"/><path d="m127.2,125.75c-.33,0-.64-.06-.93-.17-.09.09-.19.13-.31.13s-.23-.04-.32-.13c-.09-.08-.13-.19-.13-.31,0-.06,0-.14.01-.26,0-.12.01-.2.01-.26v-3.96c0-.17.04-.32.11-.45.09-.17.23-.25.4-.25.25,0,.37.13.37.41,0,.03,0,.08-.01.14,0,.07-.01.11-.01.14v1.34c.17-.1.34-.17.5-.21.16-.05.31-.07.46-.07.55,0,.99.2,1.33.6.31.37.47.82.47,1.36s-.18,1-.55,1.37c-.37.38-.83.58-1.38.58Zm.13-3.01c-.12,0-.26.03-.42.1-.16.07-.34.17-.53.31,0,.22,0,.72,0,1.48.32.14.59.21.82.21.3,0,.54-.1.73-.3.19-.2.29-.45.29-.75s-.08-.55-.23-.75c-.16-.2-.38-.31-.65-.31Z" style="fill:#1a2e35;"/><path d="m132.87,123.79s-.07,0-.12-.01c-.06,0-.1-.01-.13-.01-.06,0-.16,0-.28,0-.12,0-.22,0-.28,0,0,.08,0,.18,0,.31,0,.16,0,.26,0,.3,0,.12-.04.21-.13.29-.09.08-.19.11-.32.11s-.23-.04-.32-.12c-.08-.08-.13-.18-.13-.3,0,.03,0-.17,0-.6-.17,0-.33.01-.46.01-.17,0-.31-.03-.44-.09-.16-.08-.24-.19-.24-.33,0-.18.07-.3.22-.36.08-.03.23-.05.46-.05.13,0,.29,0,.46-.01,0-.02,0-.07,0-.14,0-.07,0-.13,0-.17,0-.47.16-.7.47-.7.12,0,.23.04.32.11.09.08.14.17.14.29,0,.04,0,.09-.01.17,0,.08-.01.14-.01.18v.24c.06,0,.1,0,.13,0,.05,0,.12,0,.21,0,.09,0,.17,0,.21,0,.48,0,.71.14.71.43,0,.11-.04.21-.12.3-.09.09-.2.13-.32.13Z" style="fill:#1a2e35;"/><path d="m137.32,125.61c-.06,0-.15-.01-.27-.03-.12-.02-.21-.03-.26-.03h-1.03c-.09,0-.22,0-.4.03-.18.02-.31.03-.41.03-.03,0-.06,0-.11-.01-.05,0-.09-.01-.11-.01-.21,0-.35-.08-.43-.26-.05-.11-.07-.27-.07-.5,0-.44.1-.8.29-1.09.15-.23.39-.45.72-.68.31-.21.63-.41.94-.62.37-.27.55-.57.55-.91,0-.09-.07-.18-.22-.26-.15-.09-.29-.13-.43-.13-.25,0-.51.11-.78.33-.28.22-.47.33-.57.33-.12,0-.23-.03-.32-.09-.12-.07-.17-.18-.17-.31,0-.14.06-.26.17-.37.28-.25.53-.43.74-.54.3-.17.62-.25.94-.25.4,0,.77.11,1.09.32.37.24.56.56.56.95s-.09.73-.27,1.01c-.14.22-.37.44-.67.65-.29.18-.58.37-.87.55-.44.29-.68.62-.71.99.13-.02.32-.03.57-.06.5-.03.85-.04,1.07-.04.2,0,.4.04.59.13.24.11.36.24.36.41,0,.12-.04.23-.13.32-.09.1-.2.15-.34.15Z" style="fill:#1a2e35;"/><path d="m140.18,125.75c-.33,0-.64-.06-.93-.17-.09.09-.19.13-.31.13s-.23-.04-.32-.13c-.09-.08-.13-.19-.13-.31,0-.06,0-.14.01-.26,0-.12.01-.2.01-.26v-3.96c0-.17.04-.32.11-.45.09-.17.23-.25.4-.25.25,0,.37.13.37.41,0,.03,0,.08-.01.14,0,.07-.01.11-.01.14v1.34c.17-.1.34-.17.5-.21.16-.05.31-.07.46-.07.55,0,.99.2,1.33.6.31.37.47.82.47,1.36s-.18,1-.55,1.37c-.37.38-.83.58-1.38.58Zm.13-3.01c-.12,0-.26.03-.42.1-.16.07-.34.17-.53.31,0,.22,0,.72,0,1.48.32.14.59.21.82.21.3,0,.54-.1.73-.3.19-.2.29-.45.29-.75s-.08-.55-.23-.75c-.16-.2-.38-.31-.65-.31Z" style="fill:#1a2e35;"/><path d="m144.37,125.82c-.51,0-.94-.15-1.29-.44-.37-.31-.55-.71-.55-1.22,0-.46.16-.94.49-1.44.37-.56.81-.85,1.3-.85.24,0,.53.07.85.2.39.16.59.35.59.56,0,.11-.04.22-.12.3-.08.1-.19.14-.32.14-.1,0-.22-.05-.36-.16s-.35-.16-.63-.16c-.18,0-.37.18-.58.53-.2.34-.3.63-.3.88s.09.44.27.58c.17.13.39.2.66.2.16,0,.35-.06.57-.18.23-.12.37-.18.43-.18.13,0,.23.05.32.14.09.09.13.19.13.31,0,.18-.2.36-.59.54-.35.16-.64.24-.87.24Z" style="fill:#1a2e35;"/><path d="m149.53,123.79s-.07,0-.12-.01c-.06,0-.1-.01-.13-.01-.06,0-.16,0-.28,0-.12,0-.22,0-.28,0,0,.08,0,.18,0,.31,0,.16,0,.26,0,.3,0,.12-.04.21-.13.29-.08.08-.19.11-.32.11s-.23-.04-.32-.12c-.08-.08-.13-.18-.13-.3,0,.03,0-.17,0-.6-.17,0-.33.01-.46.01-.17,0-.31-.03-.44-.09-.16-.08-.24-.19-.24-.33,0-.18.07-.3.22-.36.08-.03.23-.05.46-.05.13,0,.29,0,.46-.01,0-.02,0-.07,0-.14,0-.07,0-.13,0-.17,0-.47.16-.7.47-.7.12,0,.23.04.32.11.09.08.14.17.14.29,0,.04,0,.09-.01.17,0,.08-.01.14-.01.18v.24c.06,0,.1,0,.13,0,.05,0,.12,0,.21,0,.09,0,.17,0,.21,0,.48,0,.71.14.71.43,0,.11-.04.21-.12.3-.09.09-.19.13-.32.13Z" style="fill:#1a2e35;"/><path d="m153.97,125.61c-.06,0-.15-.01-.27-.03s-.21-.03-.26-.03h-1.03c-.09,0-.22,0-.4.03-.18.02-.31.03-.41.03-.03,0-.06,0-.11-.01-.05,0-.09-.01-.11-.01-.21,0-.35-.08-.43-.26-.05-.11-.07-.27-.07-.5,0-.44.1-.8.29-1.09.15-.23.39-.45.72-.68.31-.21.63-.41.94-.62.37-.27.55-.57.55-.91,0-.09-.07-.18-.22-.26-.15-.09-.29-.13-.43-.13-.25,0-.51.11-.78.33-.28.22-.47.33-.57.33-.12,0-.23-.03-.32-.09-.12-.07-.17-.18-.17-.31,0-.14.06-.26.17-.37.28-.25.53-.43.74-.54.3-.17.62-.25.94-.25.4,0,.77.11,1.09.32.37.24.56.56.56.95s-.09.73-.27,1.01c-.14.22-.37.44-.67.65-.29.18-.58.37-.87.55-.44.29-.68.62-.71.99.13-.02.32-.03.57-.06.5-.03.85-.04,1.07-.04.2,0,.4.04.59.13.24.11.36.24.36.41,0,.12-.04.23-.13.32-.09.1-.2.15-.34.15Z" style="fill:#1a2e35;"/><path d="m158.19,125.8c-.11,0-.28-.1-.51-.31-.21.1-.4.18-.57.23s-.3.08-.42.08c-.56,0-.98-.15-1.26-.45s-.42-.75-.42-1.35c0-.56.21-1.04.62-1.44.41-.4.91-.6,1.49-.6.22,0,.48.06.77.19.35.15.53.32.53.52,0,.08-.03.16-.08.22-.02.09-.04.21-.05.35-.01.14-.02.3-.02.49,0,.44.03.76.09.95,0,.02.06.14.16.36.09.2.14.31.14.34,0,.12-.05.22-.14.3-.09.08-.2.12-.33.12Zm-.87-2.36c0-.07,0-.16.02-.26.01-.1.03-.2.05-.32-.05-.02-.09-.04-.12-.05-.04-.01-.07-.02-.09-.02-.32,0-.59.12-.83.37-.24.25-.36.53-.36.86s.06.55.17.7c.11.16.28.24.5.24.14,0,.28-.02.41-.07.13-.05.25-.12.36-.21-.07-.55-.1-.97-.1-1.24Z" style="fill:#1a2e35;"/><path d="m160.76,125.82c-.51,0-.94-.15-1.29-.44-.37-.31-.55-.71-.55-1.22,0-.46.16-.94.49-1.44.37-.56.81-.85,1.3-.85.24,0,.53.07.85.2.39.16.59.35.59.56,0,.11-.04.22-.12.3-.08.1-.19.14-.32.14-.1,0-.22-.05-.36-.16-.14-.11-.35-.16-.63-.16-.18,0-.37.18-.58.53-.2.34-.3.63-.3.88s.09.44.27.58c.17.13.39.2.66.2.16,0,.35-.06.57-.18.23-.12.37-.18.43-.18.13,0,.23.05.32.14.09.09.13.19.13.31,0,.18-.2.36-.59.54-.35.16-.64.24-.87.24Z" style="fill:#1a2e35;"/></g><path d="m112.21,123.28h2.41c.32,0,.32-.5,0-.5h-2.41c-.32,0-.32.5,0,.5h0Z" style="fill:#1a2e35;"/><path d="m112.21,124.61h2.41c.32,0,.32-.5,0-.5h-2.41c-.32,0-.32.5,0,.5h0Z" style="fill:#1a2e35;"/><g><g><path d="m128.83,80.33c-.01.12-.06.21-.14.29-.08.07-.19.11-.31.11-.24,0-.4-.12-.5-.36-.25-.63-.64-1.57-1.16-2.82-.03-.07-.05-.14-.05-.2,0-.13.05-.23.15-.32.1-.09.22-.13.35-.13.2,0,.34.09.43.28.13.28.39.94.78,1.98.12-.26.29-.66.51-1.2.07-.18.17-.43.3-.75.1-.19.24-.28.43-.28.13,0,.25.04.35.13.1.09.15.19.15.32,0,.08-.19.54-.57,1.38-.31.68-.55,1.21-.73,1.58Z" style="fill:#1a2e35;"/><g><path d="m138.7,80.78c-.11,0-.28-.1-.51-.31-.21.1-.4.18-.57.23-.16.05-.3.08-.42.08-.56,0-.98-.15-1.26-.45s-.42-.75-.42-1.35c0-.56.21-1.04.62-1.44.41-.4.91-.6,1.49-.6.22,0,.48.06.77.19.35.15.53.32.53.52,0,.08-.03.16-.08.22-.02.09-.04.21-.05.35-.01.14-.02.3-.02.49,0,.44.03.76.09.95,0,.02.06.14.16.36.09.2.14.31.14.34,0,.12-.05.22-.14.3-.09.08-.2.12-.33.12Zm-.87-2.36c0-.07,0-.16.02-.26.01-.1.03-.2.05-.32-.05-.02-.09-.04-.12-.05-.04-.01-.07-.02-.09-.02-.32,0-.59.12-.83.37-.24.25-.36.53-.36.86s.06.55.17.7c.11.16.28.24.5.24.14,0,.28-.02.41-.07.13-.05.25-.12.36-.21-.07-.55-.1-.97-.1-1.24Z" style="fill:#1a2e35;"/><path d="m141.32,80.73c-.33,0-.64-.06-.93-.17-.09.09-.19.13-.31.13s-.23-.04-.32-.13c-.09-.08-.13-.19-.13-.31,0-.06,0-.14.01-.26,0-.12.01-.2.01-.26v-3.96c0-.17.04-.32.11-.45.09-.17.23-.25.4-.25.25,0,.37.13.37.41,0,.03,0,.08-.01.14,0,.07-.01.11-.01.14v1.34c.17-.1.34-.17.5-.21.16-.05.31-.07.46-.07.55,0,.99.2,1.33.6.31.37.47.82.47,1.36s-.18,1-.55,1.37c-.37.38-.83.58-1.38.58Zm.13-3.01c-.12,0-.26.03-.42.1-.16.07-.34.17-.53.31,0,.22,0,.72,0,1.48.32.14.59.21.82.21.3,0,.54-.1.73-.3.19-.2.29-.45.29-.75s-.08-.55-.23-.75c-.16-.2-.38-.31-.65-.31Z" style="fill:#1a2e35;"/><path d="m145.51,80.81c-.51,0-.94-.15-1.29-.44-.37-.31-.55-.71-.55-1.22,0-.46.16-.94.49-1.44.37-.56.81-.85,1.3-.85.24,0,.53.07.85.2.39.16.59.35.59.56,0,.11-.04.22-.12.3-.08.1-.19.14-.32.14-.1,0-.22-.05-.36-.16-.14-.11-.35-.16-.63-.16-.18,0-.37.18-.58.53-.2.34-.3.63-.3.88s.09.44.27.58c.17.13.39.2.66.2.16,0,.35-.06.57-.18.23-.12.37-.18.43-.18.13,0,.23.05.32.14.09.09.13.19.13.31,0,.18-.2.36-.59.54-.35.16-.64.24-.87.24Z" style="fill:#1a2e35;"/></g></g><path d="m131.93,78.26h2.41c.32,0,.32-.5,0-.5h-2.41c-.32,0-.32.5,0,.5h0Z" style="fill:#1a2e35;"/><path d="m131.93,79.59h2.41c.32,0,.32-.5,0-.5h-2.41c-.32,0-.32.5,0,.5h0Z" style="fill:#1a2e35;"/></g></g><g><path d="m120,150.91c-.13.11-.29.26-.5.44l-.52.48,1.03,1.26c.07.09.11.18.11.27,0,.12-.05.22-.14.31-.09.09-.2.13-.32.13s-.24-.05-.34-.16c-.2-.22-.54-.62-1-1.19-.18.18-.47.45-.85.8-.12.1-.21.19-.28.25-.1.1-.21.16-.33.16s-.23-.04-.32-.13c-.09-.09-.14-.19-.14-.31,0-.13.09-.28.28-.45.15-.13.3-.26.45-.38.14-.14.35-.35.64-.63-.13-.18-.25-.35-.38-.53-.16-.21-.3-.37-.44-.48-.12-.1-.18-.21-.18-.33s.04-.22.13-.31c.09-.09.2-.14.32-.14.16,0,.38.16.66.48l.54.7c.19-.16.39-.32.58-.49.24-.21.41-.38.51-.53.1-.14.22-.21.37-.21.12,0,.23.04.33.13.1.09.14.19.14.3,0,.15-.12.33-.35.56Z" style="fill:#1a2e35;"/><path d="m143.35,148.15c-.32,0-.61-.06-.9-.17-.08.08-.18.12-.3.12s-.23-.04-.31-.12c-.09-.08-.13-.18-.13-.3,0-.05,0-.14.01-.25,0-.11.01-.19.01-.25v-3.83c0-.16.04-.31.11-.43.09-.16.22-.24.39-.24.24,0,.36.13.36.39,0,.03,0,.08-.01.14,0,.06-.01.11-.01.14v1.29c.17-.09.33-.16.48-.21.15-.05.3-.07.44-.07.53,0,.96.19,1.28.58.3.36.46.8.46,1.31s-.18.97-.53,1.33c-.36.37-.81.56-1.34.56Zm.13-2.91c-.12,0-.25.03-.41.1-.15.07-.33.17-.52.3,0,.21,0,.69,0,1.44.31.13.57.2.79.2.29,0,.52-.1.71-.29.18-.19.28-.44.28-.73s-.08-.53-.23-.73c-.16-.2-.37-.3-.63-.3Z" style="fill:#1a2e35;"/><path d="m167.16,148.15c-.32,0-.61-.06-.9-.17-.08.08-.18.12-.3.12s-.23-.04-.31-.12c-.09-.08-.13-.18-.13-.3,0-.05,0-.14.01-.25,0-.11,0-.19,0-.25v-3.83c0-.16.04-.31.11-.43.09-.16.22-.24.39-.24.24,0,.36.13.36.39,0,.03,0,.08-.01.14,0,.06-.01.11-.01.14v1.29c.17-.09.33-.16.48-.21.15-.05.3-.07.44-.07.53,0,.96.19,1.28.58.3.36.46.8.46,1.31s-.18.97-.53,1.33c-.36.37-.81.56-1.34.56Zm.13-2.91c-.12,0-.25.03-.41.1-.15.07-.33.17-.52.3,0,.21,0,.69,0,1.44.31.13.57.2.79.2.29,0,.52-.1.71-.29.18-.19.28-.44.28-.73s-.08-.53-.23-.73c-.16-.2-.37-.3-.63-.3Z" style="fill:#1a2e35;"/><g><path d="m186.35,146.61h-1.35c-.72,0-1.08-.15-1.08-.44,0-.12.06-.26.19-.42.1-.12.21-.24.31-.35.36-.52.92-1.29,1.66-2.31.18-.23.4-.35.69-.35.13,0,.25.03.34.1.11.08.17.19.17.34v2.54c.3,0,.5.04.59.09.11.06.17.18.17.36,0,.19-.08.32-.26.39-.12.05-.29.07-.5.06,0,.32,0,.68,0,1.05,0,.12-.04.23-.12.31-.08.08-.19.12-.32.12-.34,0-.51-.23-.49-.68v-.81Zm0-2.41c-.22.34-.56.85-1.01,1.52h1.01v-1.52Z" style="fill:#1a2e35;"/><path d="m191.38,148.2c-.1,0-.27-.1-.49-.3-.21.1-.39.17-.55.22-.16.05-.29.08-.4.08-.54,0-.95-.15-1.22-.44-.27-.29-.41-.73-.41-1.3,0-.54.2-1.01.6-1.39.4-.39.88-.58,1.44-.58.21,0,.46.06.74.18.34.14.51.31.51.51,0,.08-.03.15-.08.21-.02.09-.04.2-.05.34-.01.13-.02.29-.02.47,0,.43.03.73.09.92,0,.02.06.14.16.35.09.19.13.3.13.33,0,.12-.05.22-.14.29-.09.08-.2.12-.32.12Zm-.84-2.28c0-.07,0-.15.01-.25.01-.09.03-.2.05-.31-.05-.02-.09-.04-.12-.05-.03-.01-.06-.02-.09-.02-.31,0-.57.12-.8.36-.23.24-.34.52-.34.83s.05.53.16.68c.11.15.27.23.49.23.14,0,.27-.02.4-.07.12-.05.24-.11.35-.2-.07-.54-.1-.94-.1-1.2Z" style="fill:#1a2e35;"/><path d="m193.86,148.22c-.5,0-.91-.14-1.25-.42-.35-.3-.53-.69-.53-1.18,0-.45.16-.91.48-1.39.36-.55.78-.82,1.26-.82.23,0,.51.06.82.19.38.16.57.33.57.54,0,.11-.04.21-.11.29-.08.09-.19.14-.31.14-.1,0-.21-.05-.35-.16s-.34-.16-.61-.16c-.17,0-.36.17-.56.51-.19.33-.29.61-.29.85s.09.42.26.56c.16.13.38.19.64.19.15,0,.34-.06.55-.17.22-.11.36-.17.42-.17.12,0,.23.04.31.13.09.09.13.19.13.3,0,.18-.19.35-.57.53-.34.16-.62.23-.84.23Z" style="fill:#1a2e35;"/></g><g><path d="m162.71,160.31c-.06,0-.14,0-.26-.03-.12-.02-.2-.03-.26-.03h-.99c-.09,0-.21,0-.39.03-.17.02-.3.03-.39.03-.02,0-.06,0-.11-.01-.05,0-.08-.01-.11-.01-.2,0-.34-.08-.41-.25-.04-.1-.07-.26-.07-.48,0-.42.09-.77.28-1.06.14-.22.38-.44.7-.66.3-.2.61-.4.91-.6.36-.26.53-.55.53-.88,0-.09-.07-.17-.21-.26-.14-.08-.28-.13-.42-.13-.24,0-.49.11-.76.32-.27.21-.45.32-.55.32-.12,0-.22-.03-.31-.09-.11-.07-.17-.17-.17-.3,0-.14.06-.26.17-.35.27-.24.51-.42.71-.53.29-.16.6-.24.91-.24.39,0,.74.1,1.05.31.36.23.54.54.54.92s-.09.71-.26.98c-.14.21-.35.42-.65.63-.28.18-.56.35-.84.53-.43.28-.66.6-.69.96.12-.02.31-.03.55-.05.48-.02.82-.04,1.03-.04.19,0,.39.04.57.12.23.1.35.24.35.4,0,.12-.04.22-.13.31-.09.09-.2.14-.33.14Z" style="fill:#1a2e35;"/><path d="m166.79,160.49c-.1,0-.27-.1-.49-.3-.21.1-.39.17-.55.22-.16.05-.29.08-.4.08-.54,0-.95-.15-1.22-.44-.27-.29-.41-.73-.41-1.3,0-.54.2-1.01.6-1.39.4-.39.88-.58,1.44-.58.21,0,.46.06.74.18.34.14.51.31.51.51,0,.08-.03.15-.08.21-.02.09-.04.2-.05.34-.01.13-.02.29-.02.47,0,.43.03.73.09.92,0,.02.06.14.16.35.09.19.13.3.13.33,0,.12-.05.22-.14.29-.09.08-.2.12-.32.12Zm-.84-2.28c0-.07,0-.15.01-.25.01-.09.03-.2.05-.31-.05-.02-.09-.04-.12-.05-.03-.01-.06-.02-.09-.02-.31,0-.57.12-.8.36-.23.24-.34.52-.34.83s.05.53.16.68c.11.15.27.23.49.23.14,0,.27-.02.4-.07.12-.05.24-.11.35-.2-.07-.54-.1-.94-.1-1.2Z" style="fill:#1a2e35;"/></g><path d="m123.58,155.49h-1.34c-.43,0-.64-.14-.64-.41,0-.3.24-.45.71-.45.04,0,.09,0,.15,0v-3c-.2.14-.32.2-.38.2-.13,0-.24-.04-.33-.14-.09-.09-.14-.19-.14-.31s.08-.25.23-.38l.38-.28.41-.33c.17-.12.33-.18.49-.18.2,0,.3.12.3.36,0,.27-.01.65-.03,1.13-.02.49-.03,1.18-.03,2.08v.82h.22c.13,0,.24.04.33.12.09.08.13.19.13.31s-.04.23-.13.31c-.09.08-.2.13-.33.13Z" style="fill:#1a2e35;"/><path d="m172.44,145.69c-.06,0-.14,0-.26-.03-.12-.02-.2-.03-.26-.03h-.99c-.09,0-.21,0-.39.03-.17.02-.3.03-.39.03-.02,0-.06,0-.11-.01-.05,0-.08-.01-.11-.01-.2,0-.34-.08-.41-.25-.04-.1-.07-.26-.07-.48,0-.42.09-.77.28-1.06.14-.22.38-.44.7-.66.3-.2.61-.4.91-.6.36-.26.53-.55.53-.88,0-.09-.07-.17-.21-.26-.14-.08-.28-.13-.42-.13-.24,0-.49.11-.76.32-.27.21-.45.32-.55.32-.12,0-.22-.03-.31-.09-.11-.07-.17-.17-.17-.3,0-.14.06-.26.17-.35.27-.24.51-.42.71-.53.29-.16.6-.24.91-.24.39,0,.74.1,1.05.31.36.23.54.54.54.92s-.09.71-.26.98c-.14.21-.35.42-.65.63-.28.18-.56.35-.84.53-.43.28-.66.6-.69.96.12-.02.31-.03.55-.05.48-.02.82-.04,1.03-.04.19,0,.39.04.57.12.23.1.35.24.35.4,0,.12-.04.22-.13.31-.09.09-.2.14-.33.14Z" style="fill:#1a2e35;"/><path d="m125.76,151.14h3.84c.58,0,.58-.89,0-.89h-3.84c-.58,0-.58.89,0,.89h0Z" style="fill:#1a2e35;"/><path d="m136,145.91h3.84c.58,0,.58-.89,0-.89h-3.84c-.58,0-.58.89,0,.89h0Z" style="fill:#1a2e35;"/><path d="m134.78,152h68.74c.58,0,.58-.89,0-.89h-68.74c-.58,0-.58.89,0,.89h0Z" style="fill:#1a2e35;"/><path d="m175.56,145.91h3.84c.58,0,.58-.89,0-.89h-3.84c-.58,0-.58.89,0,.89h0Z" style="fill:#1a2e35;"/><path d="m149.23,145.91h3.84c.58,0,.58-.89,0-.89h-3.84c-.58,0-.58.89,0,.89h0Z" style="fill:#1a2e35;"/><path d="m151.59,147.38v-3.84c0-.58-.89-.58-.89,0v3.84c0,.58.89.58.89,0h0Z" style="fill:#1a2e35;"/><path d="m125.84,153.37h3.9c.58,0,.58-.89,0-.89h-3.9c-.58,0-.58.89,0,.89h0Z" style="fill:#1a2e35;"/><path d="m156.99,142.87l2.82,5.37c.19.36.7.24.82-.11,1.04-3.15,2.07-6.31,3.11-9.46.15-.45.29-.89.44-1.34-.14.11-.29.22-.43.33h32.06c1.48,0,2.97.07,4.44,0,.02,0,.04,0,.06,0,.58,0,.58-.89,0-.89h-32.06c-1.48,0-2.97-.07-4.44,0-.02,0-.04,0-.06,0-.2,0-.37.14-.43.33-1.04,3.15-2.07,6.31-3.11,9.46-.15.45-.29.89-.44,1.34.27-.04.55-.07.82-.11-.94-1.79-1.88-3.58-2.82-5.37-.27-.51-1.04-.06-.77.45h0Z" style="fill:#1a2e35;"/></g><g><path d="m120,184.16c-.13.11-.29.26-.5.44l-.52.48,1.03,1.26c.07.09.11.18.11.27,0,.12-.05.22-.14.31-.09.09-.2.13-.32.13s-.24-.05-.34-.16c-.2-.22-.54-.62-1-1.19-.18.18-.47.45-.85.8-.12.1-.21.19-.28.25-.1.1-.21.16-.33.16s-.23-.04-.32-.13c-.09-.09-.14-.19-.14-.31,0-.13.09-.28.28-.45.15-.13.3-.26.45-.38.14-.14.35-.35.64-.63-.13-.18-.25-.35-.38-.53-.16-.21-.3-.37-.44-.48-.12-.1-.18-.21-.18-.33s.04-.22.13-.31c.09-.09.2-.14.32-.14.16,0,.38.16.66.48l.54.7c.19-.16.39-.32.58-.49.24-.21.41-.38.51-.53.1-.14.22-.21.37-.21.12,0,.23.04.33.13.1.09.14.19.14.3,0,.15-.12.33-.35.56Z" style="fill:#1a2e35;"/><path d="m143.35,181.4c-.32,0-.61-.05-.9-.17-.08.08-.18.12-.3.12s-.23-.04-.31-.12c-.09-.08-.13-.18-.13-.3,0-.05,0-.14.01-.25,0-.11.01-.19.01-.25v-3.83c0-.16.04-.31.11-.43.09-.16.22-.24.39-.24.24,0,.36.13.36.39,0,.03,0,.08-.01.14,0,.06-.01.11-.01.14v1.29c.17-.09.33-.16.48-.21.15-.05.3-.07.44-.07.53,0,.96.19,1.28.58.3.36.46.8.46,1.31s-.18.97-.53,1.33c-.36.37-.81.56-1.34.56Zm.13-2.91c-.12,0-.25.03-.41.1-.15.07-.33.17-.52.3,0,.21,0,.69,0,1.44.31.13.57.2.79.2.29,0,.52-.1.71-.29.18-.19.28-.44.28-.73s-.08-.53-.23-.73c-.16-.2-.37-.3-.63-.3Z" style="fill:#1a2e35;"/><path d="m167.16,181.4c-.32,0-.61-.05-.9-.17-.08.08-.18.12-.3.12s-.23-.04-.31-.12c-.09-.08-.13-.18-.13-.3,0-.05,0-.14.01-.25,0-.11,0-.19,0-.25v-3.83c0-.16.04-.31.11-.43.09-.16.22-.24.39-.24.24,0,.36.13.36.39,0,.03,0,.08-.01.14,0,.06-.01.11-.01.14v1.29c.17-.09.33-.16.48-.21.15-.05.3-.07.44-.07.53,0,.96.19,1.28.58.3.36.46.8.46,1.31s-.18.97-.53,1.33c-.36.37-.81.56-1.34.56Zm.13-2.91c-.12,0-.25.03-.41.1-.15.07-.33.17-.52.3,0,.21,0,.69,0,1.44.31.13.57.2.79.2.29,0,.52-.1.71-.29.18-.19.28-.44.28-.73s-.08-.53-.23-.73c-.16-.2-.37-.3-.63-.3Z" style="fill:#1a2e35;"/><g><path d="m186.35,179.86h-1.35c-.72,0-1.08-.15-1.08-.44,0-.12.06-.26.19-.42.1-.12.21-.24.31-.35.36-.52.92-1.29,1.66-2.31.18-.23.4-.35.69-.35.13,0,.25.03.34.1.11.08.17.19.17.34v2.54c.3,0,.5.04.59.09.11.06.17.18.17.36,0,.19-.08.32-.26.39-.12.05-.29.07-.5.06,0,.32,0,.68,0,1.05,0,.12-.04.23-.12.31-.08.08-.19.12-.32.12-.34,0-.51-.22-.49-.68v-.81Zm0-2.41c-.22.34-.56.85-1.01,1.52h1.01v-1.52Z" style="fill:#1a2e35;"/><path d="m191.38,181.45c-.1,0-.27-.1-.49-.3-.21.1-.39.17-.55.22-.16.05-.29.08-.4.08-.54,0-.95-.15-1.22-.44-.27-.29-.41-.73-.41-1.3,0-.54.2-1.01.6-1.39.4-.39.88-.58,1.44-.58.21,0,.46.06.74.18.34.14.51.31.51.51,0,.08-.03.15-.08.21-.02.09-.04.2-.05.34-.01.13-.02.29-.02.47,0,.43.03.73.09.92,0,.02.06.14.16.35.09.19.13.3.13.33,0,.12-.05.22-.14.29-.09.08-.2.12-.32.12Zm-.84-2.28c0-.07,0-.15.01-.25s.03-.2.05-.31c-.05-.02-.09-.04-.12-.05-.03,0-.06-.01-.09-.01-.31,0-.57.12-.8.36-.23.24-.34.52-.34.83s.05.53.16.68c.11.15.27.23.49.23.14,0,.27-.02.4-.07.12-.05.24-.11.35-.2-.07-.54-.1-.94-.1-1.2Z" style="fill:#1a2e35;"/><path d="m193.86,181.47c-.5,0-.91-.14-1.25-.42-.35-.3-.53-.69-.53-1.18,0-.45.16-.91.48-1.39.36-.55.78-.82,1.26-.82.23,0,.51.06.82.19.38.16.57.33.57.54,0,.11-.04.21-.11.29-.08.09-.19.14-.31.14-.1,0-.21-.05-.35-.16-.14-.1-.34-.16-.61-.16-.17,0-.36.17-.56.51-.19.33-.29.61-.29.85s.09.42.26.56c.16.13.38.19.64.19.15,0,.34-.06.55-.17.22-.11.36-.17.42-.17.12,0,.23.04.31.13.09.09.13.19.13.3,0,.18-.19.35-.57.53-.34.16-.62.23-.84.23Z" style="fill:#1a2e35;"/></g><g><path d="m162.71,193.56c-.06,0-.14,0-.26-.03-.12-.02-.2-.03-.26-.03h-.99c-.09,0-.21,0-.39.03-.17.02-.3.03-.39.03-.02,0-.06,0-.11-.01-.05,0-.08-.01-.11-.01-.2,0-.34-.08-.41-.25-.04-.1-.07-.26-.07-.48,0-.42.09-.77.28-1.06.14-.22.38-.44.7-.66.3-.2.61-.4.91-.6.36-.26.53-.55.53-.88,0-.09-.07-.17-.21-.25-.14-.08-.28-.13-.42-.13-.24,0-.49.11-.76.32-.27.21-.45.32-.55.32-.12,0-.22-.03-.31-.09-.11-.07-.17-.17-.17-.3,0-.14.06-.26.17-.35.27-.24.51-.42.71-.53.29-.16.6-.24.91-.24.39,0,.74.1,1.05.31.36.23.54.54.54.92s-.09.71-.26.98c-.14.21-.35.42-.65.63-.28.18-.56.35-.84.53-.43.28-.66.6-.69.96.12-.02.31-.03.55-.05.48-.02.82-.04,1.03-.04.19,0,.39.04.57.12.23.1.35.24.35.4,0,.12-.04.22-.13.31-.09.09-.2.14-.33.14Z" style="fill:#1a2e35;"/><path d="m166.79,193.74c-.1,0-.27-.1-.49-.3-.21.1-.39.17-.55.22-.16.05-.29.08-.4.08-.54,0-.95-.15-1.22-.44-.27-.29-.41-.73-.41-1.3,0-.54.2-1.01.6-1.39.4-.39.88-.58,1.44-.58.21,0,.46.06.74.18.34.14.51.31.51.51,0,.08-.03.15-.08.21-.02.09-.04.2-.05.34-.01.13-.02.29-.02.47,0,.43.03.73.09.92,0,.02.06.14.16.35.09.19.13.3.13.33,0,.12-.05.22-.14.29-.09.08-.2.12-.32.12Zm-.84-2.28c0-.07,0-.15.01-.25.01-.09.03-.2.05-.31-.05-.02-.09-.04-.12-.05-.03-.01-.06-.01-.09-.01-.31,0-.57.12-.8.36-.23.24-.34.52-.34.83s.05.53.16.68c.11.15.27.23.49.23.14,0,.27-.02.4-.07.12-.05.24-.11.35-.2-.07-.54-.1-.94-.1-1.2Z" style="fill:#1a2e35;"/></g><path d="m124.21,188.74c-.06,0-.14,0-.26-.03-.12-.02-.2-.03-.26-.03h-.99c-.09,0-.22,0-.39.03-.17.02-.3.03-.39.03-.02,0-.06,0-.11-.01-.05,0-.08-.01-.11-.01-.2,0-.34-.08-.41-.25-.04-.1-.07-.26-.07-.48,0-.42.09-.77.28-1.06.14-.22.38-.44.7-.66.3-.2.61-.4.91-.6.36-.26.53-.55.53-.88,0-.09-.07-.17-.21-.25-.14-.08-.28-.13-.42-.13-.24,0-.49.11-.76.32-.27.21-.45.32-.55.32-.12,0-.22-.03-.31-.09-.11-.07-.17-.17-.17-.3,0-.14.06-.26.17-.35.27-.24.51-.42.71-.53.29-.16.6-.24.91-.24.39,0,.74.1,1.05.31.36.23.54.54.54.92s-.09.71-.26.98c-.14.21-.35.42-.65.63-.28.18-.56.35-.84.53-.43.28-.66.6-.69.96.12-.02.31-.03.55-.05.48-.02.82-.04,1.03-.04.19,0,.39.04.57.12.23.1.35.24.35.4,0,.12-.04.22-.12.31-.09.09-.2.14-.33.14Z" style="fill:#1a2e35;"/><path d="m172.44,178.94c-.06,0-.14,0-.26-.03-.12-.02-.2-.03-.26-.03h-.99c-.09,0-.21,0-.39.03-.17.02-.3.03-.39.03-.02,0-.06,0-.11-.01-.05,0-.08-.01-.11-.01-.2,0-.34-.08-.41-.25-.04-.1-.07-.26-.07-.48,0-.42.09-.77.28-1.06.14-.22.38-.44.7-.66.3-.2.61-.4.91-.6.36-.26.53-.55.53-.88,0-.09-.07-.17-.21-.25-.14-.08-.28-.13-.42-.13-.24,0-.49.11-.76.32-.27.21-.45.32-.55.32-.12,0-.22-.03-.31-.09-.11-.07-.17-.17-.17-.3,0-.14.06-.26.17-.35.27-.24.51-.42.71-.53.29-.16.6-.24.91-.24.39,0,.74.1,1.05.31.36.23.54.54.54.92s-.09.71-.26.98c-.14.21-.35.42-.65.63-.28.18-.56.35-.84.53-.43.28-.66.6-.69.96.12-.02.31-.03.55-.05.48-.02.82-.04,1.03-.04.19,0,.39.04.57.12.23.1.35.24.35.4,0,.12-.04.22-.13.31-.09.09-.2.14-.33.14Z" style="fill:#1a2e35;"/><path d="m125.76,184.39h3.84c.58,0,.58-.89,0-.89h-3.84c-.58,0-.58.89,0,.89h0Z" style="fill:#1a2e35;"/><path d="m136,179.16h3.84c.58,0,.58-.89,0-.89h-3.84c-.58,0-.58.89,0,.89h0Z" style="fill:#1a2e35;"/><path d="m134.78,185.25h68.74c.58,0,.58-.89,0-.89h-68.74c-.58,0-.58.89,0,.89h0Z" style="fill:#1a2e35;"/><path d="m175.56,179.16h3.84c.58,0,.58-.89,0-.89h-3.84c-.58,0-.58.89,0,.89h0Z" style="fill:#1a2e35;"/><path d="m149.23,179.16h3.84c.58,0,.58-.89,0-.89h-3.84c-.58,0-.58.89,0,.89h0Z" style="fill:#1a2e35;"/><path d="m151.59,180.63v-3.84c0-.58-.89-.58-.89,0v3.84c0,.58.89.58.89,0h0Z" style="fill:#1a2e35;"/><path d="m125.84,186.62h3.9c.58,0,.58-.89,0-.89h-3.9c-.58,0-.58.89,0,.89h0Z" style="fill:#1a2e35;"/><path d="m156.99,176.12l2.82,5.37c.19.36.7.24.82-.11,1.04-3.15,2.07-6.31,3.11-9.46.15-.45.29-.89.44-1.34-.14.11-.29.22-.43.33h32.06c1.48,0,2.97.07,4.44,0,.02,0,.04,0,.06,0,.58,0,.58-.89,0-.89h-32.06c-1.48,0-2.97-.07-4.44,0-.02,0-.04,0-.06,0-.2,0-.37.14-.43.33-1.04,3.15-2.07,6.31-3.11,9.46-.15.45-.29.89-.44,1.34.27-.04.55-.07.82-.11-.94-1.79-1.88-3.58-2.82-5.37-.27-.51-1.04-.06-.77.45h0Z" style="fill:#1a2e35;"/></g><g><g><g><g><path d="m236.9,170.02c-5.76,0-11.39-2.88-14.64-8.12-1.94-3.13-2.55-6.83-1.71-10.42.84-3.59,3.03-6.64,6.16-8.58,5.18-3.22,12.02-1.62,15.24,3.56,2.59,4.16,1.3,9.66-2.86,12.24-3.35,2.08-7.76,1.05-9.84-2.3-.81-1.3-1.06-2.85-.71-4.34.35-1.5,1.26-2.76,2.56-3.57,2.17-1.35,5.03-.68,6.38,1.49,1.09,1.75.55,4.06-1.2,5.15-.08.05-.18.02-.22-.05-.05-.08-.02-.18.05-.22,1.6-.99,2.09-3.1,1.1-4.7-1.25-2.02-3.91-2.64-5.93-1.39-1.23.76-2.09,1.96-2.42,3.37-.33,1.41-.09,2.86.67,4.09,1.98,3.19,6.19,4.18,9.39,2.2,4.01-2.49,5.25-7.78,2.76-11.79-3.13-5.03-9.76-6.58-14.8-3.46-3.06,1.9-5.19,4.87-6.01,8.38-.82,3.5-.22,7.12,1.67,10.17,4.91,7.91,15.34,10.34,23.24,5.43,4.8-2.98,8.15-7.65,9.43-13.15,1.29-5.5.35-11.17-2.63-15.97-.05-.08-.02-.18.05-.22.08-.05.18-.02.22.05,3.02,4.87,3.97,10.63,2.67,16.21-1.31,5.58-4.71,10.32-9.58,13.35-2.82,1.75-5.95,2.58-9.05,2.58Z" style="fill:#1a2e35;"/><path d="m236.9,170.25c-6.09,0-11.64-3.08-14.84-8.23-1.98-3.18-2.6-6.95-1.74-10.6.85-3.65,3.08-6.75,6.26-8.72,2.56-1.59,5.59-2.09,8.53-1.4,2.94.69,5.44,2.48,7.03,5.04,1.28,2.07,1.68,4.51,1.13,6.89-.56,2.38-2,4.39-4.07,5.67-3.45,2.15-8.01,1.08-10.16-2.38-.84-1.36-1.11-2.96-.74-4.52.36-1.56,1.31-2.88,2.67-3.72,2.28-1.42,5.28-.71,6.7,1.57.56.9.73,1.96.49,3-.24,1.03-.87,1.91-1.77,2.47-.08.05-.19.07-.29.05-.1-.02-.19-.09-.25-.18-.06-.09-.07-.2-.05-.3.02-.1.09-.19.18-.25,1.49-.92,1.95-2.89,1.02-4.38-1.18-1.91-3.7-2.49-5.61-1.31-1.18.73-2,1.88-2.32,3.23-.32,1.35-.09,2.74.64,3.92,1.91,3.08,5.98,4.03,9.07,2.12,3.9-2.42,5.11-7.57,2.68-11.47-3.06-4.92-9.55-6.44-14.48-3.38-3,1.87-5.1,4.79-5.91,8.23-.81,3.44-.22,6.99,1.64,10,4.84,7.8,15.13,10.2,22.92,5.36,4.74-2.95,8.06-7.56,9.33-13,1.27-5.44.35-11.05-2.6-15.79-.06-.09-.07-.2-.05-.3.02-.1.09-.19.18-.25.09-.06.19-.07.3-.05.1.02.19.09.25.18,3.06,4.92,4.01,10.74,2.7,16.39-1.32,5.64-4.76,10.44-9.68,13.49-2.76,1.71-5.93,2.62-9.17,2.62Zm-.76-15.33s0,0,0,0c0,0,0,0,0,0Z" style="fill:#1a2e35;"/></g><g><path d="m234.25,176.74c-.09,0-.16-.07-.16-.16v-50.87c0-.09.07-.16.16-.16s.16.07.16.16v50.87c0,.09-.07.16-.16.16Z" style="fill:#1a2e35;"/><path d="m234.25,176.97c-.22,0-.4-.18-.4-.4v-50.87c0-.22.18-.4.4-.4s.4.18.4.4v50.87c0,.22-.18.4-.4.4Z" style="fill:#1a2e35;"/></g><g><path d="m260.6,152.21h-46.61c-.09,0-.16-.07-.16-.16s.07-.16.16-.16h46.61c.09,0,.16.07.16.16s-.07.16-.16.16Z" style="fill:#1a2e35;"/><path d="m260.6,152.44h-46.61c-.22,0-.4-.18-.4-.4s.18-.4.4-.4h46.61c.22,0,.4.18.4.4s-.18.4-.4.4Z" style="fill:#1a2e35;"/></g><g><path d="m259.44,152.88c-.06,0-.11-.03-.14-.08-.04-.08-.02-.18.06-.22l.85-.49-.93-.33c-.08-.03-.13-.12-.1-.21.03-.08.12-.13.21-.1l1.27.45c.06.02.1.08.11.14,0,.06-.03.12-.08.16l-1.16.66s-.05.02-.08.02Z" style="fill:#1a2e35;"/><path d="m259.44,153.12c-.14,0-.27-.08-.34-.2-.05-.09-.07-.2-.04-.3.03-.1.09-.19.19-.24l.41-.24-.46-.16c-.1-.04-.18-.11-.22-.2-.05-.1-.05-.2-.01-.3.07-.2.3-.31.5-.24l1.27.45c.14.05.25.18.26.34.01.15-.06.3-.2.38l-1.16.67c-.06.03-.13.05-.2.05Zm-.03-.46h0s0,0,0,0Z" style="fill:#1a2e35;"/></g><g><path d="m235.04,127.79c-.07,0-.13-.04-.15-.1l-.6-1.56-.68,1.56c-.04.08-.13.12-.21.08-.08-.04-.12-.13-.08-.21l.83-1.93c.03-.06.09-.1.15-.1.07,0,.12.04.15.1l.75,1.93c.03.08,0,.18-.09.21-.02,0-.04.01-.06.01Z" style="fill:#1a2e35;"/><path d="m235.04,128.02c-.16,0-.31-.1-.37-.25l-.4-1.03-.45,1.04c-.09.2-.32.29-.52.21-.2-.09-.3-.32-.21-.52l.84-1.93c.06-.14.2-.23.36-.24.17,0,.32.1.38.25l.75,1.93c.04.1.04.21,0,.3-.04.1-.12.17-.22.21-.05.02-.1.03-.14.03Z" style="fill:#1a2e35;"/></g></g><path d="m230.26,126.74c-.21.44-.54,1.12-.99,2.05-.25.5-.43.92-.56,1.25-.04.12-.1.3-.19.53-.07.18-.19.27-.37.27-.11,0-.21-.04-.29-.11-.08-.07-.12-.16-.12-.27,0-.18.2-.71.61-1.59-.21-.42-.55-1.03-1-1.84-.05-.07-.09-.15-.14-.22-.05-.09-.08-.17-.08-.24,0-.1.04-.19.12-.27.08-.08.18-.12.28-.12.13,0,.23.05.3.14.27.36.59.91.95,1.64.21-.46.33-.73.37-.82.14-.29.27-.54.4-.75.08-.14.2-.21.34-.21.11,0,.2.04.29.11s.13.16.13.27c0,.06-.02.12-.05.18Z" style="fill:#1a2e35;"/></g><path d="m262.3,145.25c-.11.09-.25.22-.42.37l-.44.41.88,1.07c.06.08.09.16.09.23,0,.1-.04.19-.12.26-.08.07-.17.11-.28.11s-.2-.05-.29-.14c-.17-.19-.46-.53-.86-1.02-.16.16-.4.38-.72.68-.1.09-.18.16-.24.22-.08.09-.18.13-.29.13s-.2-.04-.27-.11c-.08-.07-.12-.16-.12-.26,0-.11.08-.24.24-.38.13-.11.25-.22.38-.33.12-.12.3-.3.55-.54-.11-.15-.22-.3-.33-.45-.13-.18-.26-.31-.37-.41-.1-.08-.15-.18-.15-.28s.04-.19.11-.27c.08-.08.17-.12.27-.12.14,0,.32.14.56.41l.46.59c.17-.14.33-.28.49-.41.2-.18.35-.33.44-.45.08-.12.19-.18.31-.18.1,0,.2.04.28.11.08.07.12.16.12.26,0,.12-.1.28-.3.48Z" style="fill:#1a2e35;"/></g></g><g><g><path d="m102.53,187.44l-5.04-28.63c-2.58-22.38-3.02-49.66-6.59-56.67-6.58-12.95-25.24-12.68-25.24-12.68-24.78.27-27.62,19.56-28.69,37.01-.18,2.96-.99,8.26-2.08,14.4-2.61,12.81-6.14,26.04-14.55,35.29-3.21,3.53-5.17,8.29-5.57,13.05-.4,4.76,2.56,10.2,7.31,10.6-2.21,2.48-3.19,6-2.59,9.26s2.78,6.2,5.73,7.73c4.15,2.15,9.15,1.44,13.74.53,4.56-.91,9.31-2.09,12.7-5.27,3.39-3.19,4.87-7.88,5.92-12.42,1.26-5.46,2.08-11.03,2.47-16.62l42.48,4.43Z" style="fill:#1d1d1b;"/><path d="m69.51,96.16l-1.66-1.34-16.1,8.09c-2.4.33-4.14,2.44-4.02,4.86l7.02,55.55c.28,3.68-1.12,5.52,1.35,8.27l16.9,18.3c5.91,6.6,4.14-8.86,7.73-16.97.25-.57-1.19-2.48-1.14-2.87.05-.49.15-.82.15-1.23.14-4.41-.15-8.2-.15-8.2-.1-4.82-.16-6.79-.16-6.75,0,0,10.1-2.01,11.78-15.34.83-6.63-.16-15.56-1.27-24.35-1.54-12.16-10.61-18.83-20.42-18.01Z" style="fill:#d19c5e;"/><path d="m71.07,125.19c.06.9-.65,1.69-1.58,1.77-.93.08-1.74-.58-1.8-1.48-.06-.9.65-1.69,1.58-1.77.94-.08,1.74.58,1.8,1.48Z" style="fill:#1d1d1b;"/><path d="m87.42,124.21c.06.9-.65,1.69-1.58,1.77-.93.08-1.74-.58-1.8-1.48-.06-.9.65-1.69,1.58-1.77.94-.08,1.74.58,1.8,1.48Z" style="fill:#1d1d1b;"/><path d="m88.48,117.81c-.2.23-1.52-.68-3.35-.62-1.83.04-3.14,1.02-3.35.8-.1-.1.1-.5.67-.95.56-.44,1.53-.89,2.67-.92,1.14-.03,2.11.36,2.68.77.58.41.78.81.68.91Z" style="fill:#1d1d1b;"/><path d="m70.01,119.52c-.23.21-1.45-.84-3.27-.96-1.82-.15-3.23.69-3.41.46-.09-.11.15-.49.77-.87.6-.38,1.61-.72,2.75-.64,1.14.09,2.06.57,2.58,1.04.53.47.69.88.58.98Z" style="fill:#1d1d1b;"/><path d="m77.46,132.25c-.01-.1,1.12-.34,2.95-.63.47-.06.9-.17.97-.49.1-.34-.11-.84-.36-1.37-.48-1.12-.97-2.29-1.5-3.51-2.08-5-3.6-9.12-3.4-9.2.2-.08,2.05,3.91,4.13,8.91.5,1.23.98,2.41,1.44,3.54.19.53.52,1.12.3,1.83-.11.35-.45.62-.75.71-.3.1-.56.11-.79.14-1.85.16-3,.2-3.01.1Z" style="fill:#1d1d1b;"/><g style="isolation:isolate; opacity:.3;"><path d="m79.42,153.86s-8.9.86-17.9-4.16c0,0,4.76,9.03,17.98,7.36l-.08-3.2Z" style="fill:#1d1d1b;"/></g><path d="m76.83,136.69c-.69-.85-1.85-1.29-2.99-1.13-.79.11-1.58.52-2.04,1.18-.46.66-.53,1.58-.07,2.18.52.68,1.55.81,2.42.53.87-.28,1.6-.87,2.29-1.47.19-.16.39-.34.5-.56.12-.22.13-.51-.02-.68" style="fill:#e84343;"/><path d="m72.12,133.69c.3-.03.36,1.96,2.11,3.31,1.74,1.36,3.85,1.07,3.88,1.35.03.12-.46.4-1.35.45-.88.06-2.16-.18-3.23-1.01-1.06-.83-1.55-1.97-1.64-2.78-.1-.83.1-1.33.24-1.32Z" style="fill:#1d1d1b;"/><path d="m71.16,112.27c-.21.48-2.02.12-4.18.23-2.16.06-3.93.57-4.19.11-.11-.22.22-.67.95-1.1.73-.43,1.86-.81,3.16-.86,1.3-.05,2.46.24,3.22.61.76.37,1.13.79,1.04,1.02Z" style="fill:#1d1d1b;"/><path d="m87.57,110c-.31.43-1.58.04-3.1.06-1.52-.02-2.79.37-3.1-.06-.14-.21.05-.63.6-1.04.54-.41,1.45-.76,2.5-.76,1.04,0,1.96.35,2.5.76.55.41.74.83.6,1.04Z" style="fill:#1d1d1b;"/><path d="m49.97,130.9s9.57,2.13,12.95-21.33c1.16-8.02,7.93-15,7.93-15l-3.03-.65s-17.97,6.7-18.26,6.96c-.29.26-3.86,9.9-3.86,9.9l4.27,20.12Z" style="fill:#1d1d1b;"/><path d="m52.2,129.85c-.03-.99-1.25-3.28-2.23-3.4-2.62-.32-7.3.04-7.13,6.65.23,9.04,9.26,6.94,9.27,6.68,0-.2.21-6.53.09-9.93Z" style="fill:#d19c5e;"/><path d="m49.25,136.43s-.15.11-.42.24c-.26.13-.7.22-1.18.05-.96-.33-1.81-1.82-1.89-3.45-.04-.82.11-1.61.38-2.27.26-.67.67-1.14,1.15-1.24.48-.12.82.16.94.41.13.25.07.43.12.45.03.02.19-.16.11-.53-.04-.18-.15-.39-.37-.56-.22-.17-.54-.25-.88-.21-.7.07-1.31.72-1.61,1.44-.34.72-.53,1.61-.48,2.53.1,1.82,1.08,3.5,2.4,3.84.64.15,1.17-.06,1.43-.28.27-.23.32-.43.28-.45Z" style="fill:#1d1d1b; isolation:isolate; opacity:.3;"/><path d="m55.93,125.97s.49-.07,1.33-.38c.83-.31,1.97-.96,3.05-2.12.54-.58,1.05-1.28,1.51-2.09.45-.82.83-1.74,1.14-2.74.64-2,.96-4.3,1.4-6.7.44-2.4.94-4.67,1.53-6.7.58-2.03,1.26-3.82,1.93-5.28.67-1.45,1.32-2.58,1.8-3.33.24-.38.45-.66.58-.85.14-.19.21-.29.22-.29,0,0-.05.11-.18.31-.12.2-.32.49-.54.87-.46.76-1.08,1.9-1.72,3.35-.64,1.46-1.3,3.24-1.87,5.27-.58,2.03-1.07,4.29-1.51,6.69-.44,2.39-.77,4.7-1.42,6.73-.32,1.01-.72,1.94-1.18,2.77-.47.82-1.01,1.53-1.56,2.11-1.11,1.17-2.29,1.81-3.14,2.09-.85.29-1.36.3-1.36.3Z" style="fill:#1a2e35;"/></g><g><path d="m32.34,200.16l17.74,43.07-5.59,20.34h70.39s-4.64-21.25-4.93-26.02c-.28-4.78,0-32.04-2.28-41.39-2.28-9.36-8.79-29.41-8.79-29.41l-19.16-3.04c-8.78,4.72-15.68,3.93-25.13-1.54l-17.37,8.53-4.89,29.46Z" style="fill:#ffc700;"/><g style="opacity:.3;"><path d="m110.44,240.67l-53.99,5.35c3.89-.08,6.89,3.21,10.26,5.16,6.24,3.61,14.01,2.6,21.13,1.48,5.9-.93,11.8-1.86,17.7-2.78,1.49-.23,3.07-.51,4.17-1.55,1.97-1.85,1.43-5.05.74-7.66Z"/></g><path d="m69.21,236.23l-9.04-8.73c-.88-.85-2.08-1.27-3.29-1.15-2.58.24-6.95.7-7.85,1.05-1.29.5-2.51,1.22-2.87,1.87s-1.58,4.53-1.65,5.1c-.03.28.05,1.08.14,1.84.11.89,1.09,1.42,1.88.98.35-.2.67-.46.85-.8.57-1.08.5-1.51.5-1.51,0,0-.29,3.88,2.87,3.95,0,0-1.46,3.3,2.61,4.67,0,0-.15,2.16,3.25,2.44,3.4.29,6.49,0,6.49,0,0,0,6.22,4.47,10.6,4.76,4.38.29,14.19-1.63,14.19-1.63l1.18-18.07-19.87,5.25Z" style="fill:#d19c5e;"/><path d="m56.96,230.69s-.54.26-1.45.61c-.91.34-2.17.79-3.61,1.17-.71.2-1.43.32-2.02.48-.6.16-.97.61-1.23,1.01-.26.4-.47.74-.65.95-.18.21-.3.3-.31.29-.01-.01.09-.12.24-.35.15-.22.33-.56.58-.98.13-.21.28-.44.49-.65.21-.21.5-.38.81-.48.64-.19,1.32-.3,2.03-.5,1.42-.38,2.69-.8,3.61-1.1.92-.3,1.49-.48,1.51-.44Z" style="fill:#1d1d1b; isolation:isolate; opacity:.3;"/><path d="m58.12,236.23s-.37.21-1.01.46c-.63.26-1.52.58-2.51.91-.99.33-1.89.6-2.55.78-.66.18-1.07.27-1.08.23,0-.03.39-.18,1.03-.4.73-.25,1.59-.53,2.53-.84.94-.32,1.79-.6,2.53-.85.65-.21,1.05-.34,1.06-.3Z" style="fill:#1d1d1b; isolation:isolate; opacity:.3;"/><path d="m60.36,241.39c0,.07-1.57.24-3.46.75-1.88.5-3.33,1.16-3.36,1.09-.01-.03.33-.23.92-.49.59-.26,1.43-.58,2.38-.83.95-.26,1.83-.4,2.47-.47.64-.07,1.04-.07,1.04-.04Z" style="fill:#1d1d1b; isolation:isolate; opacity:.3;"/><path d="m81.3,250.2l40-6.95s-4.71-19.57-11.74-19.57c-1.03,0-35.85,13.01-35.85,13.01l7.59,13.51Z" style="fill:#d19c5e;"/><path d="m98.42,166.71s5.81,1.24,9.96,9.7c4.09,8.36,19.93,45.21,20.55,51.39.62,6.18-4.4,14.5-8.77,15.65l-13.48-19.77.41-2.88-11.29-37.64,2.62-16.44Z" style="fill:#ffc700;"/><path d="m74.28,241.45s-.38-.31-.94-.86c-.62-.61-1.37-1.34-2.19-2.15-.85-.85-1.61-1.63-2.14-2.21-.53-.58-.84-.96-.82-.98.03-.02.38.31.94.86.62.61,1.37,1.34,2.19,2.15.85.85,1.61,1.62,2.14,2.21.53.58.84.96.82.98Z" style="fill:#1d1d1b; isolation:isolate; opacity:.3;"/><path d="m101.35,180.72s.03.03.08.08c.06.07.13.15.22.26.18.23.48.56.81,1.02.69.9,1.59,2.28,2.5,4.08.92,1.8,1.8,4.07,2.47,6.66.68,2.59,1.13,5.51,1.3,8.6.3,6.18-.45,11.76-1.04,15.75-.3,2-.57,3.61-.77,4.72-.1.54-.17.97-.23,1.28-.03.13-.05.24-.07.33-.02.07-.03.11-.03.11,0,0,0-.04,0-.12.01-.09.03-.2.04-.34.05-.31.11-.74.19-1.29.17-1.14.4-2.75.69-4.73.54-3.99,1.27-9.56.96-15.71-.17-3.07-.61-5.98-1.27-8.56-.66-2.58-1.52-4.83-2.41-6.64-.89-1.81-1.77-3.19-2.42-4.1-.31-.47-.6-.8-.77-1.05-.08-.11-.15-.2-.2-.27-.04-.06-.06-.1-.06-.1Z" style="fill:#1a2e35;"/><path d="m121.61,222.19s-.2-.04-.55-.14c-.4-.12-.89-.28-1.48-.46-1.25-.38-2.99-.9-4.97-1.09-1.98-.19-3.78.11-4.99.57-1.22.45-1.86.98-1.89.93,0-.01.14-.15.45-.36.3-.21.77-.48,1.38-.73,1.22-.52,3.07-.85,5.08-.66,2.01.19,3.76.75,5,1.17.62.21,1.12.4,1.46.53.34.13.53.22.52.23Z" style="fill:#1a2e35;"/><path d="m119.97,213.43s-.19.09-.55.21c-.36.11-.87.3-1.5.54-1.25.48-2.95,1.28-4.66,2.4-1.71,1.13-3.11,2.37-4.06,3.33-.47.48-.84.88-1.09,1.16-.25.28-.4.43-.41.42s.11-.18.34-.48c.23-.3.58-.72,1.04-1.22.92-1,2.31-2.27,4.05-3.41,1.74-1.14,3.46-1.91,4.74-2.36.64-.22,1.17-.38,1.53-.47.37-.09.57-.13.58-.12Z" style="fill:#1a2e35;"/><g style="opacity:.3;"><path d="m106.19,189.44c3.2,8.3,4.1,17.47,2.59,26.23,2.41-.9,4.83-1.8,7.24-2.71-1.97,2.73-4.57,5-7.53,6.6,1.95-.56,3.95-1.14,5.98-1,2.03.13,4.12,1.11,5.04,2.93-2.37-.43-4.78-.87-7.17-.59-2.39.28-4.8,1.38-6.09,3.42,1.79-7.71,2.47-15.67,2.03-23.57"/></g></g><path d="m59.21,169.25c-3.38-7.19-7.16-14.68-6.58-22.6-3.75,1.21-6.12,5.63-5.06,9.42l-2.72,7.27c1.7,11.74,8.84,22.59,18.96,28.78,1.91-7.71-1.23-15.69-4.61-22.88Z" style="fill:#1d1d1b;"/><g><g><path d="m38.05,170.17s-13.43,7.84-9.95,22.26c3.92,16.25,40.09,40.52,40.09,40.52-1.7-10.04-.38-19.65,5.12-28.65l-18.73-17.35" style="fill:#ffc700;"/><path d="m54.58,186.94s.12.1.34.3c.23.21.56.51.99.9.87.8,2.14,1.96,3.77,3.46,3.26,3.01,7.95,7.33,13.69,12.63l.06.05-.04.07c-2.17,3.59-4.06,7.9-5.02,12.79-.98,4.89-1,10.3-.07,15.79l.05.27-.23-.16c-3.81-2.6-7.67-5.44-11.55-8.46-7.57-5.92-14.5-11.98-20.03-18.23-.7-.77-1.34-1.58-2-2.35-.62-.81-1.26-1.58-1.83-2.39-1.18-1.59-2.19-3.23-3.04-4.88-1.76-3.29-2.36-6.84-2.2-9.99.17-3.17,1.17-5.93,2.39-8.11,1.23-2.19,2.65-3.85,3.9-5.09,1.25-1.24,2.34-2.08,3.09-2.62.38-.27.68-.46.88-.59.2-.13.31-.18.31-.18,0,0-.1.07-.3.2-.2.13-.49.33-.86.61-.74.55-1.82,1.4-3.06,2.65-1.24,1.25-2.64,2.9-3.85,5.09-1.21,2.17-2.19,4.92-2.34,8.06-.15,3.12.46,6.62,2.2,9.89.85,1.64,1.86,3.27,3.03,4.84.56.81,1.21,1.57,1.82,2.38.66.77,1.3,1.57,2,2.34,5.53,6.22,12.46,12.26,20.02,18.18,3.87,3.01,7.73,5.85,11.53,8.45l-.18.12c-.93-5.52-.91-10.96.09-15.87.97-4.92,2.89-9.25,5.07-12.85l.02.12c-5.71-5.32-10.38-9.66-13.63-12.69-1.61-1.51-2.87-2.69-3.73-3.49-.42-.4-.75-.71-.97-.92-.22-.21-.33-.32-.33-.32Z" style="fill:#1a2e35;"/></g><path d="m68.19,232.41s8.46,6.91,17.13,2.79c1.39-.66,3.13-2.38,4.18-5.26,5.52-15.13,6.17-55.06,6.17-55.06l-15.12-1.02-7.23,30.44c-5.2,7.46-6.83,16.87-5.12,28.12Z" style="fill:#d19c5e;"/><path d="m91.51,222.8s0,.1-.03.29c-.03.19-.07.46-.14.82-.13.71-.34,1.73-.68,2.98-.34,1.24-.83,2.71-1.62,4.24-.78,1.51-1.92,3.11-3.64,4.17-1.73,1.01-3.65,1.38-5.36,1.37-1.72,0-3.25-.29-4.48-.67-1.24-.37-2.2-.79-2.84-1.13-.33-.15-.56-.31-.73-.4-.16-.1-.25-.15-.24-.16.01-.02.36.17,1.01.48.65.31,1.61.7,2.84,1.05,1.23.35,2.74.63,4.44.61,1.68,0,3.56-.37,5.24-1.36,1.66-1.02,2.79-2.58,3.56-4.06.79-1.5,1.29-2.95,1.65-4.18.36-1.23.6-2.25.75-2.95.07-.33.13-.6.18-.81.04-.18.07-.28.08-.28Z" style="fill:#1d1d1b; isolation:isolate; opacity:.3;"/><path d="m72.83,204.51c0,.05-.97.09-2.41.66-1.44.55-3.28,1.72-4.87,3.46-1.59,1.74-2.7,3.59-3.5,4.92-.38.64-.69,1.17-.93,1.59-.22.37-.35.58-.37.57-.01,0,.09-.23.28-.61.2-.39.49-.95.87-1.63.76-1.35,1.85-3.23,3.47-5,1.62-1.77,3.51-2.94,4.99-3.46.74-.26,1.36-.4,1.8-.45.22-.04.39-.04.5-.05.11,0,.18,0,.18,0Z" style="fill:#1a2e35;"/><g><path d="m81.09,169.89c-.33-1.12-2.22-11.42-2.99-13.82-1.08-3.38-9.87-9.43-9.87-9.43,0,0,1.38-3.17,5.12-1.52,4.43,1.95,6.62,5.24,7.73,4.57,1.12-.67,8.07-7.75,9.97-7.53,1.9.22,2.31,2.17,1.64,2.95s-1.42,2.07-1.42,2.07c0,0,4.02-1.21,3.24,3.19,0,0,4.57-2.85,4.13,3.17,0,0,3.01-1.23,3.68.89.67,2.12-1.32,4.57-2.32,6.25-1,1.67-4.26,11.38-4.26,11.38l-.38,5.94-15.66-.67,1.38-7.44Z" style="fill:#d19c5e;"/><path d="m95.58,178.57s0-.14,0-.43c0-.29.01-.71.02-1.25.02-1.11.06-2.73.1-4.83h0s0-.02,0-.02c.82-2.43,1.87-5.59,3.29-9.27.37-.9.73-1.89,1.34-2.77.57-.89,1.18-1.8,1.61-2.83.21-.51.38-1.06.42-1.62.03-.56-.06-1.15-.39-1.61-.07-.13-.19-.2-.29-.3-.12-.07-.23-.16-.37-.2-.26-.11-.56-.15-.85-.15-.59,0-1.2.13-1.77.34l-.16.06v-.17c.05-.57.06-1.14-.02-1.71-.08-.56-.25-1.15-.65-1.55-.39-.41-1.01-.52-1.59-.43-.58.09-1.16.32-1.69.63l-.2.12.03-.23c.03-.22.05-.45.08-.68.01-.23,0-.46,0-.69-.06-.45-.18-.91-.49-1.25-.31-.34-.77-.51-1.24-.56-.47-.05-.97,0-1.44.13l-.28.08.15-.25c.28-.47.57-.92.88-1.37.16-.22.32-.45.5-.66.17-.2.27-.42.3-.68.06-.51-.11-1.06-.46-1.45-.34-.4-.87-.63-1.4-.68-.24,0-.51.08-.76.2-.25.11-.5.25-.74.4-.48.3-.95.63-1.41.98-.92.7-1.8,1.45-2.69,2.22-.69.62-1.38,1.23-2.06,1.84-.69.61-1.34,1.23-2.07,1.79-.18.15-.49.25-.73.17-.25-.06-.45-.2-.64-.33-.37-.27-.7-.58-1.03-.87-.66-.6-1.32-1.18-2.01-1.7-.7-.52-1.42-.98-2.18-1.38-.75-.41-1.53-.73-2.34-.87-.81-.14-1.65-.05-2.36.31-.7.37-1.3.96-1.65,1.65l-.04-.14c2.45,1.7,4.72,3.46,6.69,5.31.98.93,1.9,1.89,2.6,2.96.17.27.35.54.45.84.06.15.13.29.18.44l.13.45c.15.6.29,1.18.42,1.76,1.02,4.61,1.7,8.57,2.39,11.55v.02s0,.01,0,.01c-.46,2.4-.81,4.26-1.05,5.52-.12.62-.22,1.1-.28,1.43-.06.32-.11.48-.11.48,0,0,.02-.17.07-.49.06-.33.14-.81.25-1.43.23-1.27.56-3.13,1-5.53v.03c-.71-3-1.41-6.94-2.45-11.55-.29-1.14-.45-2.39-1.16-3.43-.69-1.05-1.6-2-2.57-2.92-1.96-1.84-4.23-3.59-6.67-5.28l-.08-.06.04-.08c.38-.75,1-1.36,1.75-1.76.76-.39,1.66-.48,2.5-.34.85.14,1.66.48,2.42.89.76.4,1.5.88,2.21,1.4.71.53,1.37,1.11,2.03,1.71.33.3.66.6,1.01.86.35.26.76.45,1.09.16.7-.54,1.37-1.17,2.05-1.78.68-.61,1.37-1.22,2.06-1.84.89-.77,1.78-1.53,2.7-2.23.46-.35.93-.69,1.43-.99.25-.15.5-.29.77-.41.27-.12.55-.22.88-.22.59.05,1.18.3,1.57.76.4.44.59,1.05.52,1.64-.03.29-.16.59-.35.81-.17.21-.34.42-.49.64-.31.44-.6.9-.87,1.35l-.14-.17c.51-.14,1.02-.18,1.53-.13.51.05,1.03.24,1.38.64.36.39.49.9.55,1.39,0,.24.01.49,0,.73-.03.24-.06.47-.09.7l-.17-.12c.56-.32,1.14-.56,1.77-.66.31-.04.64-.05.95.03.31.08.61.24.83.47.45.46.62,1.09.71,1.68.08.59.07,1.18.03,1.76l-.15-.11c.6-.22,1.22-.36,1.85-.36.31,0,.63.04.93.17.15.05.28.15.42.23.11.11.25.2.33.34.37.52.45,1.16.42,1.75-.04.6-.22,1.16-.44,1.68-.45,1.05-1.07,1.96-1.64,2.85-.61.87-.96,1.82-1.34,2.73-1.43,3.66-2.5,6.82-3.34,9.24v-.02c-.06,2.09-.11,3.71-.15,4.82-.02.54-.04.96-.05,1.25-.01.28-.03.43-.03.43Z" style="fill:#1d1d1b; isolation:isolate; opacity:.3;"/><path d="m91.27,147.3c.04.05-.86.83-1.94,1.81-1.08.98-1.94,1.81-1.99,1.76-.05-.04.73-.95,1.82-1.94,1.09-.99,2.06-1.68,2.1-1.63Z" style="fill:#6a6a6a;"/><path d="m94.85,150.14c.06.02-.29.89-.99,1.79-.7.9-1.45,1.45-1.49,1.4-.05-.05.62-.67,1.29-1.55.68-.87,1.11-1.67,1.18-1.64Z" style="fill:#6a6a6a;"/><path d="m98.58,153.33c.05.04-.32.65-.84,1.37-.52.72-.98,1.27-1.04,1.23-.05-.04.32-.65.84-1.37.52-.72.98-1.27,1.04-1.23Z" style="fill:#6a6a6a;"/></g></g></g></svg>