<?xml version="1.0" encoding="UTF-8"?><svg xmlns="http://www.w3.org/2000/svg" viewBox="0 0 300 300"><g style="isolation:isolate;"><g id="a"><g><g><g><path d="M60.06,184.49c6.15,3.12,10.48,8.58,7.35,14.74-3.12,6.15-9.24,4.69-15.4,1.57-6.15-3.12-12.64-15.8-12.64-15.8,0,0,14.52-3.63,20.68-.5Z" style="fill:#d0d0fc;"/><path d="M87.77,189.19c.66,6.02-1.06,11.79-6.55,12.39-5.49,.6-7.24-4.61-7.89-10.63-.66-6.02,9.4-17.67,9.4-17.67,0,0,4.38,9.89,5.04,15.91Z" style="fill:#d0d0fc;"/><path d="M65.11,212.04c3.53-3.18,7.98-4.74,10.89-1.53,2.9,3.22,.39,6.72-3.14,9.9-3.53,3.18-12.93,4.59-12.93,4.59,0,0,1.65-9.79,5.18-12.97Z" style="fill:#d0d0fc;"/><path d="M45.48,188.41s24.68,12.86,29.21,16.55l4.54,3.69s-5.17,3.09-9.71,7.05c-4.53,3.97-6.3,5.25-6.3,5.25,0,0,14.14-9.77,17.45-10.32,3.31-.55,6.14-.85,6.14-.85,0,0-4.47-7.06-5.55-12.96-1.08-5.89,0-13.7,0-13.7,0,0-2.28,11.06-.73,17.59l1.55,6.53s-20.52-11.78-26.49-14.66c-5.97-2.88-10.11-4.18-10.11-4.18Z" style="fill:#9f9ef2;"/></g><g><path d="M32.37,34.76c.89-4.51,7.57-5.97,17.35,4.03,9.78,10,15.72,25.37,21.7,25.86,5.98,.48,12.71,1.02,16.24,12.68,3.53,11.65,3.67,17.75,11.79,22.99,12.02,7.75,11.33,15.54,10.17,24.12-1.17,8.57,4.07,10.84,6.32,17.35,2.25,6.51-7.4,25.7-7.4,25.7,0,0-15.43-13.02-23.9-26.83-8.47-13.81,5.47-14.36-6.69-20.47-12.16-6.11-2.65-16.69-9.61-27.98-6.96-11.29-26.44-23.79-22.31-30.5,4.13-6.71-14.96-20.38-13.66-26.92Z" style="fill:#efefef; isolation:isolate;"/><path d="M117.24,195.9c-.13-.59-7.74-45-26.26-83.74-18.52-38.74-47.07-69.11-47.07-69.11,0,0,29.86,34.99,44.31,68.38,15.24,35.22,26.85,87.31,26.85,87.31,0,0,3.83,5.04,2.17-2.84Z" style="fill:#9f9ef2;"/><path d="M92.24,120.05s-9.83-5.85-12-8.56c-2.17-2.71-6.71-6.2-6.71-6.2,0,0,6.21,7.93,11.87,12.11,5.66,4.18,8.32,5.89,8.32,5.89l-1.48-3.23Z" style="fill:#9f9ef2;"/><path d="M74.64,83.19s-6.6-3.5-12.39-7.44c-5.79-3.94-12.83-9.94-12.83-9.94,0,0,5.85,6.1,12.01,11.25,6.17,5.15,14.1,8.08,14.1,8.08l-.9-1.96Z" style="fill:#9f9ef2;"/><path d="M75.68,68.51s4.65,11.36,4.92,14.73c.27,3.37,1.62,12.64,1.62,12.64l2.8,6.13s-2.54-14.37-2.81-18.39c-.38-5.81-6.53-15.11-6.53-15.11Z" style="fill:#9f9ef2;"/><path d="M97.74,105.72l.41,26.7s2.02,4.42,2.28,4.99c.26,.57-1.95-11.81-1.39-15.69s-1.3-16.01-1.3-16.01Z" style="fill:#9f9ef2;"/></g><g><path d="M203.76,178.44c-2.61-16.72-4.77-18.01,2.17-27.79,6.95-9.78,8.01-11.16,8.01-11.16,0,0,4.31,7.4,2.27,21.12-2.04,13.72-12.46,17.82-12.46,17.82Z" style="fill:#efefef; isolation:isolate;"/><path d="M181.95,189.24c-2.61-16.72-4.77-18.01,2.17-27.79,6.95-9.78,8.01-11.16,8.01-11.16,0,0,4.31,7.4,2.27,21.12-2.04,13.72-12.46,17.82-12.46,17.82Z" style="fill:#efefef; isolation:isolate;"/><path d="M212.16,176.62c12.02-10.61,10.95-9.48,20.6-8.98,9.65,.5,12.43-2.86,12.43-2.86,0,0-3.67,14.49-16.04,13.94-6.4-.29-16.99-2.1-16.99-2.1Z" style="fill:#efefef; isolation:isolate;"/><path d="M226.33,158.01c2-13.61,.77-15.01,7.95-21.44,7.18-6.43,8.26-7.32,8.26-7.32,0,0,1.35,6.59-3.26,17.01-4.61,10.41-12.95,11.76-12.95,11.76Z" style="fill:#efefef; isolation:isolate;"/><path d="M191.74,187.65s16.08-3,26.17,1.11c10.09,4.12,24.96-.91,24.96-.91,0,0-10.19,6.42-19.16,8.93-20.28,5.69-31.97-9.14-31.97-9.14Z" style="fill:#efefef; isolation:isolate;"/><path d="M173,194.27s19.57,5.58,28.22,16.54c8.66,10.96,28.11,13.33,28.11,13.33,0,0-15.11,2.08-26.53,.01-25.82-4.68-29.8-29.89-29.8-29.89Z" style="fill:#efefef; isolation:isolate;"/><path d="M241.4,132.16s-16.11,41.32-44.39,54.4c-19.42,8.98-33.23,12.53-33.23,12.53l-.97-4.56s31.21-11.51,42.89-17.52c16.44-8.46,35.69-44.85,35.69-44.85Z" style="fill:#9f9ef2;"/></g></g><g><g><g><path d="M248.34,114.92s.17,.4,.24,1.13c.02,.23,.03,.5,.03,.79-.03,1.06,.87,6.19-1.54,8.12-.37,.3-.83,.52-1.37,.64-4.09,.89-14.3-2.85-14.54-6.01-.17-2.31,3.56-5.41,5.56-6.89,.59-.44,1.04-.74,1.17-.83-.28,.14-1.86,1-3.81,1.82-2.38,1.01-5.34,1.98-7.14,1.57-3.44-.77-7.81-6.25-10.02-6.65s-5.42-3.08-5.73-5.39c-.2-1.48,1.57-1.62,4.83-1.4,1.85,.13,4.18,.37,6.9,.54,6.71,.43,17.21,4.63,19.38,5.53,.27,.11,.4,.17,.4,.17l5.64,6.84Z" style="fill:#a1ec3c;"/><path d="M243.02,106.85s-.51-.12-2.47-1.37c-1.96-1.26-4.81-3.85-5.85-3.73-1.04,.13-.97,.05-.58,.26,.4,.21,1.06,.07,1.06,.07,0,0,6.35,4.55,7.83,4.77Z" style="fill:#6a6a6a;"/></g><g><path d="M260.66,92.58c-.78,1.5,3.23,7.12,2.19,9.53-.55,1.26-3.36,2.41-5.9,3.21-2.08,.65-3.98,1.08-4.31,1.16,.19-.03,.79-.11,1.65-.2,2.88-.31,8.65-.7,11.29,.71,3.6,1.92,2.24,9.91-1.13,11.76-.45,.24-.97,.38-1.54,.42-3.65,.29-9.2-3.13-10.47-3.72-.35-.16-.66-.32-.92-.46-.82-.46-1.21-.78-1.21-.78l-4.89-7.12s0-.11,.03-.33c.17-1.76,1.15-10.17,4.44-14.27,1.33-1.66,2.37-3.14,3.27-4.27,1.59-1.99,2.76-2.93,4.39-1.98,2.56,1.49,3.9,4.85,3.13,6.35Z" style="fill:#a1ec3c;"/><path d="M248.34,114.92s.17,.4,.24,1.13c.02,.23,.03,.5,.03,.79-.03,1.06,.87,6.19-1.54,8.12-.37,.3-.83,.52-1.37,.64-4.09,.89-14.3-2.85-14.54-6.01-.17-2.31,3.56-5.41,5.56-6.89,.59-.44,1.04-.74,1.17-.83-.28,.14-1.86,1-3.81,1.82-2.38,1.01-5.34,1.98-7.14,1.57-3.44-.77-7.81-6.25-10.02-6.65s-5.42-3.08-5.73-5.39c-.2-1.48,1.57-1.62,4.83-1.4,1.85,.13,4.18,.37,6.9,.54,6.71,.43,17.21,4.63,19.38,5.53,.27,.11,.4,.17,.4,.17l5.64,6.84Z" style="fill:#ffc700;"/><path d="M260.66,92.58c-.78,1.5,3.23,7.12,2.19,9.53-.55,1.26-3.36,2.41-5.9,3.21-2.08,.65-3.98,1.08-4.31,1.16,.19-.03,.79-.11,1.65-.2,2.88-.31,8.65-.7,11.29,.71,3.6,1.92,2.24,9.91-1.13,11.76-.45,.24-.97,.38-1.54,.42-3.65,.29-9.2-3.13-10.47-3.72-.35-.16-.66-.32-.92-.46-.82-.46-1.21-.78-1.21-.78l-4.89-7.12s0-.11,.03-.33c.17-1.76,1.15-10.17,4.44-14.27,1.33-1.66,2.37-3.14,3.27-4.27,1.59-1.99,2.76-2.93,4.39-1.98,2.56,1.49,3.9,4.85,3.13,6.35Z" style="fill:#ffc700;"/><path d="M248.54,114.85s.29,.6,.43,1.62c-.13-.13-.26-.28-.39-.42,.02,.23,.03,.5,.03,.79-.03,1.06,.87,6.19-1.54,8.12-3.67,.14-11.84-3.78-12.39-6.66-.55-2.91,4.37-6.71,4.73-6.99-.17,.1-1.26,.75-2.69,1.39-.81,.36-1.73,.73-2.64,.99-1.26,.36-2.51,.53-3.47,.23-2.98-.93-7.32-6.43-9.22-6.95-1.81-.49-4.63-2.99-5.37-5.16,1.85,.13,4.18,.37,6.9,.54,6.71,.43,17.21,4.63,19.38,5.53,.01-.1,.02-.18,.02-.27,.42,.22,.65,.34,.65,.34l5.56,6.87Z" style="fill:#a1ec3c;"/><path d="M248.54,114.85s.29,.6,.43,1.62c-.13-.13-.26-.28-.39-.42,.02,.23,.03,.5,.03,.79-.03,1.06,.87,6.19-1.54,8.12-3.67,.14-11.84-3.78-12.39-6.66-.55-2.91,4.37-6.71,4.73-6.99-.17,.1-1.26,.75-2.69,1.39-.81,.36-1.73,.73-2.64,.99-1.26,.36-2.51,.53-3.47,.23-2.98-.93-7.32-6.43-9.22-6.95-1.81-.49-4.63-2.99-5.37-5.16,1.85,.13,4.18,.37,6.9,.54,6.71,.43,17.21,4.63,19.38,5.53,.01-.1,.02-.18,.02-.27,.42,.22,.65,.34,.65,.34l5.56,6.87Z" style="fill:#ffe092;"/><path d="M256.19,94.22c-.47,1.39,3.57,6.99,2.99,9.23-.19,.72-1.09,1.35-2.24,1.87-.82,.37-1.77,.69-2.66,.95-1.47,.42-2.78,.68-3.11,.75,.88-.08,7.84-.67,10.89,1.25,3.09,1.95,3.08,8.86,.84,10.89-3.65,.29-9.2-3.13-10.47-3.72-.35-.16-.66-.32-.92-.46,.1,.16,.19,.31,.28,.47-1.14-.67-1.69-1.17-1.69-1.17l-4.97-7.09s-.01-.2-.02-.57c.1,.05,.21,.09,.33,.14,.17-1.76,1.15-10.17,4.44-14.27,1.33-1.66,2.37-3.14,3.27-4.27,2.14,1.65,3.5,4.69,3.05,6.01Z" style="fill:#ffe092;"/><g><path d="M248.83,110.99s1.49,2.05,2.67,3.99c.1,.16,.19,.31,.28,.47,.41,.69,.76,1.34,.97,1.85,.82,2.03,.51,2.5,.51,2.5l-10.44-13.84s-.15-.35,0-.41c.14-.05,.93,.37,.93,.37,.03,.01,.08,.05,.12,.08,.19,.1,.6,.33,1.23,.62,.1,.05,.21,.09,.33,.14,.32,.13,.69,.28,1.11,.42,1.93,.66,2.29,3.82,2.29,3.82Z" style="fill:#6a6a6a;"/><path d="M243.77,106.58s.15-.36-.23-2.19c-.37-1.84-1.83-4.95-1.09-5.47,.74-.52,.61-.53,.64-.18,.02,.35-.52,.65-.52,.65,0,0,1.78,6.23,1.21,7.2Z" style="fill:#6a6a6a;"/></g></g></g><path d="M242.82,105.96l10.44,13.84s-.72-.09-2.66-1.71c-.49-.41-1.06-.98-1.65-1.61-.13-.13-.26-.28-.39-.42-1.62-1.78-3.2-3.8-3.2-3.8,0,0-3.53-1.99-3.21-3.47,.07-.32,.11-.62,.13-.88,.01-.1,.02-.18,.02-.27,.03-.52-.02-.88-.04-1.05-.02-.12-.07-.81,.07-.86s.47,.23,.47,.23Z" style="fill:#6a6a6a;"/></g><g><g><path d="M86.53,255.33c0,7.31-5.92,13.23-13.23,13.23-4.25,0-8.03-2-10.44-5.11-1.75-2.24-2.79-5.06-2.79-8.12,0-7.31,5.92-13.23,13.23-13.23,3.05,0,5.87,1.04,8.11,2.78,3.12,2.41,5.12,6.19,5.12,10.45Z" style="fill:#ffde42;"/><path d="M84.19,252.99c0,7.31-5.92,13.23-13.23,13.23-3.06,0-5.87-1.03-8.1-2.77-1.75-2.24-2.79-5.06-2.79-8.12,0-7.31,5.92-13.23,13.23-13.23,3.05,0,5.87,1.04,8.11,2.78,1.74,2.24,2.78,5.06,2.78,8.11Z" style="fill:#ffde42; mix-blend-mode:screen; opacity:.27;"/><path d="M73.74,252c0,2.35-1.9,4.25-4.25,4.25s-4.25-1.9-4.25-4.25,1.9-4.25,4.25-4.25,4.25,1.9,4.25,4.25Z" style="fill:#ffde42; mix-blend-mode:screen; opacity:.19;"/><g><path d="M69.9,242.74q-.57,.11-.61,.11c.2-.14,1.41-.36,1.64-.31-.04,.02-.11,.04-.38,.08-.24,.04-.38,.07-.65,.12Z" style="fill:#ffb300;"/><path d="M64.01,246.76c-.38,.37-.64,.53-.62,.39,0-.07-.87-.83-.38-1.3,.36-.34,1.65-.04,1.69,.05,0,.15-.44,.61-.62,.8-.02,.02-.05,.05-.07,.07Z" style="fill:#ffc317;"/><path d="M60.58,243.43l-.74,.87s.24,.27,.87,.38c.64,.11,1.27,.93,1.45,1.23,.18,.31,1.23,1.29,1.23,1.29l1.31-1.31s-.86-.92-1.24-1.21c-.38-.29-1.43-1.07-1.47-1.29-.07-.42-.41-.87-.41-.87l-1.01,.9Z" style="fill:#ffc317;"/><path d="M60.74,252.26c-.14,.44-.26,.75-.31,.68-.01-.03-.89-.35-1.86-.7-.11-.04-1.23-.29-1.75-.15-.51,.13-1-.03-1-.03l.7-2.45s.41,.02,.68,.27c.27,.24,.67,.62,1.43,.8,.14,.03,.3,.07,.45,.1,1.01,.15,1.87,.34,1.87,.34,.02,.18-.06,.61-.22,1.14Z" style="fill:#ffc317;"/><path d="M56.22,250.71l-.07,.22s-.03-.09-.02-.13c.01-.04,.04-.07,.08-.1Z" style="fill:#ffb300;"/><path d="M72.11,252.16c-.45,.73-1.03,1.06-1.39,.48-.17-.27-.99-.87-.98-.99,.09-.51,1.04-1.64,1.47-1.64,.42,.05,.91,1.54,.9,2.06,0,.03,0,.06,0,.09Z" style="fill:#ffc62b;"/></g><g><path d="M60.66,243.71c-.51,.5-.86,.72-.84,.53,0-.09,.18-.46,.84-1.11,.49-.46,.87-.71,.92-.6,0,.21-.58,.83-.83,1.09-.03,.03-.06,.06-.09,.09Z" style="fill:#ffda0b;"/><path d="M56.2,251.27c-.15,.47-.32,.9-.37,.79-.05-.09,.03-.69,.29-1.58,.26-.83,.38-.93,.41-.87,.03,.24-.08,.82-.29,1.54-.01,.04-.03,.09-.04,.12Z" style="fill:#ffda0b;"/><path d="M71.61,251.01c-.16,1.05-1.31,1.44-1.87,.64-.25-.35-.22-.72-.2-.88,.12-.69,.58-1.14,1.16-1.14,.57,.07,.94,.56,.92,1.25,0,.04,0,.09-.01,.12Z" style="fill:#ffc84a;"/></g><g><path d="M71.1,242.84c.04,.16-.88,.4-.88,.4-.52,.14-.78,.15-.87,.07-.11-.66-.51-3.47-.78-3.63-.3-.19-.44-.57-.44-.57,0,0,.84-.3,1.42-.4,.58-.1,1.01-.18,1.01-.18,0,0,.02,.41-.18,.7-.21,.3,.71,3.62,.71,3.62Z" style="fill:#ffc317;"/><path d="M69.39,239.07c-.89,.23-1.36,.17-1.23-.03,.24-.39,2.16-.79,2.41-.5,.05,.21-1.18,.54-1.18,.54Z" style="fill:#ffda0b;"/></g><g><path d="M69.32,246.02c-.44,.54-.85,.64-.96,.34-2.75-7.21,.78-1.14,1.18-1.09,.25,.09-.08,.59-.22,.75Z" style="fill:#ffc317;"/><path d="M67.9,242.11l.32-.36s.23,.24,.32,.58c.09,.34,.06,.38,.19,.78,.13,.4,.85,2.19,.85,2.19l-1.13,1.23s-.96-2.06-1.01-2.21-.31-.42-.38-.55c-.07-.14-.42-.4-.42-.4l1.25-1.24Z" style="fill:#ffc317;"/><path d="M67.84,242.71c-.59,.72-1.28,.89-1.3,.45-.03-.54,1.06-1.55,1.59-1.47,.34,.12-.11,.79-.29,1.02Z" style="fill:#ffda0b;"/></g><g><path d="M69.96,248.83c-.27,.78-.98,.94-1.19,.5-.14-.04-.78-1.02-.95-1.24-.17-.22-.49-.65-.72-.91-.24-.26,.78-1.9,1.27-1.73,.43,.14,1.23,2.09,1.42,2.58,.2,.12,.27,.41,.17,.8Z" style="fill:#ffc62b;"/><path d="M68.68,246.61c-.35,.93-1.29,1.15-1.57,.56-.16-.35-.01-.75,.03-.88,.27-.6,.73-.97,1.17-.94,.41,.09,.57,.53,.4,1.15-.01,.03-.03,.08-.04,.11Z" style="fill:#ffc84a;"/></g></g><g><g><path d="M69.9,267.91q-.57-.11-.61-.11c.2,.14,1.41,.36,1.64,.31-.04-.02-.11-.04-.38-.08-.24-.04-.38-.07-.65-.12Z" style="fill:#ffb300;"/><path d="M62.85,260.55c-.25-.45-.49-.66-.64-.64-.26,.15-.75,.46-1.25,.75-.22,.12-.44,.24-.65,.36-.23,.12-.37,.19-.48,.24-.6,.24-1.43,.22-1.54,.27l-.11,.06,.44,.68c-.06,.09-.08,.17-.04,.24,.03,.06,.12,.08,.25,.09l.39,.61,.11,.61s.54-.09,.85-.64c.24-.43,1.54-1.08,2.07-1.33,.46-.14,.77-.25,.81-.27,.13-.14,.05-.53-.2-1.01Z" style="fill:#ffc317;"/><path d="M60.74,258.39c-.14-.44-.26-.75-.31-.68-.01,.03-.89,.35-1.86,.7-.11,.04-1.23,.29-1.75,.15-.51-.13-1,.03-1,.03l.7,2.45s.41-.02,.68-.27c.27-.24,.67-.62,1.43-.8,.14-.03,.3-.07,.45-.1,1.01-.15,1.87-.34,1.87-.34,.02-.18-.06-.61-.22-1.14Z" style="fill:#ffc317;"/><path d="M56.22,259.94l-.07-.22s-.03,.09-.02,.13,.04,.07,.08,.1Z" style="fill:#ffb300;"/><path d="M72.11,258.49c-.45-.73-1.03-1.06-1.39-.48-.17,.27-.99,.87-.98,.99,.09,.51,1.04,1.64,1.47,1.64,.42-.05,.91-1.54,.9-2.06,0-.03,0-.06,0-.09Z" style="fill:#ffc317;"/><path d="M66.56,259.12c-.28-.69-.99-.9-1.2-.36-.12,.3-2.54,1.68-2.5,1.79,.21,.49,3.1-.29,3.45-.34,.33-.11,.44-.49,.29-1,0-.03-.02-.06-.03-.09Z" style="fill:#ffc317;"/><path d="M63.65,261.14l.23,.76s.27-.11,.42-.35c.15-.24,.32-.67,.5-.75,.18-.08,1.51-.59,1.51-.59l-.76-1.67s-1.79,.98-2.08,1c-.29,.02-.56,.07-.56,.07l.75,1.53Z" style="fill:#ffc317;"/><path d="M65.95,262.58c-.44-.58-.93-.69-.99-.35-.01,.07-.82,1.51-1.75,1.78-.69,.2-1.08,.45-1.08,.45l1.54,1.93s.37-.54,.49-.94c.33-1.05,1.91-1.91,2.01-1.93,.22-.12,.06-.53-.17-.87-.02-.02-.04-.05-.06-.08Z" style="fill:#ffc317;"/></g><g><path d="M59.04,262.31c-.4-.69-.88-.97-.99-.57-.03,.1-.08,.5,.35,1.27,.37,.61,.74,.92,.96,.79,.18-.19,.08-.72-.26-1.37-.02-.03-.04-.08-.06-.11Z" style="fill:#ffda0b;"/><path d="M56.2,259.38c-.15-.47-.32-.9-.37-.79-.05,.09,.03,.69,.29,1.58,.26,.83,.38,.93,.41,.87,.03-.24-.08-.82-.29-1.54-.01-.04-.03-.09-.04-.12Z" style="fill:#ffda0b;"/><path d="M71.61,259.64c-.16-1.05-1.31-1.44-1.87-.64-.25,.35-.22,.72-.2,.88,.12,.69,.58,1.14,1.16,1.14,.57-.07,.94-.56,.92-1.25,0-.04,0-.09-.01-.12Z" style="fill:#ffda0b;"/><path d="M64.11,260.49c-.38-.94-1.34-1.22-1.63-.48-.16,.41,0,.85,.04,.99,.28,.66,.77,1.04,1.24,.96,.44-.14,.59-.66,.39-1.35-.01-.04-.03-.09-.04-.12Z" style="fill:#ffda0b;"/><path d="M63.29,265.17c-.6-.79-1.26-.93-1.34-.47-.03,.18,.01,.49,.39,1,.44,.54,.95,.84,1.25,.75,.3-.17,.08-.71-.23-1.17-.02-.03-.05-.07-.07-.1Z" style="fill:#ffda0b;"/></g><g><path d="M71.1,267.81c.04-.16-.88-.4-.88-.4-.52-.14-.78-.15-.87-.07-.11,.66-.51,3.47-.78,3.63-.3,.19-.44,.57-.44,.57,0,0,.84,.3,1.42,.4,.58,.1,1.01,.18,1.01,.18,0,0,.02-.41-.18-.7-.21-.3,.71-3.62,.71-3.62Z" style="fill:#f2b50d;"/><path d="M69.39,271.58c-.89-.23-1.36-.17-1.23,.03,.24,.39,2.16,.79,2.41,.5,.05-.21-1.18-.54-1.18-.54Z" style="fill:#ffda0b;"/></g><g><path d="M69.32,264.63c-.44-.54-.85-.64-.96-.34-2.75,7.21,.78,1.14,1.18,1.09,.25-.09-.08-.59-.22-.75Z" style="fill:#ffc317;"/><path d="M67.9,268.54l.32,.36s.23-.25,.32-.58c.09-.34,.06-.38,.19-.78,.13-.4,.85-2.19,.85-2.19l-1.13-1.23s-.96,2.06-1.01,2.21c-.05,.15-.31,.42-.38,.55-.07,.14-.42,.4-.42,.4l1.25,1.24Z" style="fill:#f2b50d;"/><path d="M67.84,267.95c-.59-.72-1.28-.89-1.3-.45-.03,.54,1.06,1.55,1.59,1.47,.34-.12-.11-.79-.29-1.02Z" style="fill:#ffda0b;"/></g><g><path d="M69.96,261.82c-.27-.78-.98-.94-1.19-.5-.14,.04-.78,1.02-.95,1.24-.17,.22-.49,.65-.72,.91-.24,.26,.78,1.9,1.27,1.73,.43-.14,1.23-2.09,1.42-2.58,.2-.12,.27-.41,.17-.8Z" style="fill:#ffc317;"/><path d="M68.68,264.04c-.35-.93-1.29-1.15-1.57-.56-.16,.35-.01,.75,.03,.88,.27,.6,.73,.97,1.17,.94,.41-.09,.57-.53,.4-1.15-.01-.03-.03-.08-.04-.11Z" style="fill:#ffda0b;"/></g></g><g><g><path d="M76.7,242.74q.57,.11,.61,.11c-.2-.14-1.41-.36-1.64-.31,.04,.02,.11,.04,.38,.08,.24,.04,.38,.07,.65,.12Z" style="fill:#ffb300;"/><path d="M85.86,252.26c.14,.44,.26,.75,.3,.68,.01-.03,.89-.35,1.86-.7,.11-.04,1.23-.29,1.75-.15,.51,.13,1-.03,1-.03l-.7-2.45s-.41,.02-.68,.27c-.27,.24-.67,.62-1.43,.8-.14,.03-.3,.07-.45,.1-1.01,.15-1.87,.34-1.87,.34-.02,.18,.06,.61,.22,1.14Z" style="fill:#f2b50d;"/><path d="M90.39,250.71l.07,.22s.03-.09,.02-.13c-.01-.04-.04-.07-.08-.1Z" style="fill:#ffb300;"/><path d="M74.49,252.16c.45,.73,1.03,1.06,1.39,.48,.17-.27,.99-.87,.98-.99-.09-.51-1.04-1.64-1.47-1.64-.42,.05-.91,1.54-.9,2.06,0,.03,0,.06,0,.09Z" style="fill:#ffc317;"/><path d="M80.04,251.53c.28,.69,.99,.9,1.2,.36,.12-.3,2.55-1.69,2.51-1.79-.21-.49-3.11,.29-3.46,.35-.33,.11-.44,.49-.29,1,0,.03,.02,.06,.03,.09Z" style="fill:#ffc317;"/><path d="M82.95,249.51l-.23-.76s-.27,.11-.42,.35c-.15,.25-.32,.67-.5,.75-.18,.08-1.51,.59-1.51,.59l.76,1.66s1.79-.98,2.08-1c.29-.02,.56-.07,.56-.07l-.75-1.53Z" style="fill:#ffc317;"/><path d="M80.65,248.07c.44,.58,.93,.69,.99,.35,.01-.07,.82-1.51,1.75-1.78,.69-.2,1.08-.45,1.08-.45l-1.54-1.93s-.37,.54-.49,.94c-.33,1.05-1.91,1.91-2.01,1.93-.22,.12-.06,.53,.17,.87,.02,.02,.04,.05,.05,.08Z" style="fill:#ffc317;"/></g><g><path d="M90.4,251.27c.15,.47,.32,.9,.37,.79,.05-.09-.03-.69-.29-1.58-.26-.83-.38-.93-.41-.87-.03,.24,.08,.82,.29,1.54,.01,.04,.03,.09,.04,.12Z" style="fill:#ffda0b;"/><path d="M74.99,251.01c.16,1.05,1.31,1.44,1.87,.64,.25-.35,.22-.72,.2-.88-.12-.69-.58-1.14-1.16-1.14-.57,.07-.94,.56-.92,1.25,0,.04,0,.09,.01,.12Z" style="fill:#ffc84a;"/><path d="M82.49,250.16c.38,.94,1.34,1.22,1.63,.48,.16-.41,0-.85-.04-.99-.28-.66-.77-1.04-1.24-.96-.44,.14-.59,.66-.39,1.35,.01,.04,.03,.09,.04,.12Z" style="fill:#ffda0b;"/><path d="M83.31,245.48c.6,.79,1.26,.93,1.34,.47,.03-.18-.01-.49-.39-1-.44-.54-.95-.84-1.25-.75-.3,.17-.08,.71,.23,1.17,.02,.03,.05,.07,.07,.1Z" style="fill:#ffda0b;"/></g><g><path d="M78.86,244.52c-.1,.14,.68,.69,.68,.69,.44,.31,.67,.42,.79,.37,.34-.58,1.72-3.05,2.03-3.11,.35-.07,.61-.37,.61-.37,0,0-.68-.58-1.18-.88-.51-.3-.88-.54-.88-.54,0,0-.17,.37-.09,.71,.09,.35-1.96,3.12-1.96,3.12Z" style="fill:#ffc317;"/><path d="M81.81,241.61c.75,.53,1.21,.64,1.16,.41-.09-.45-1.73-1.51-2.07-1.34-.13,.18,.91,.93,.91,.93Z" style="fill:#ffda0b;"/></g><g><path d="M78.86,244.52c-.1,.14,.68,.69,.68,.69,.44,.31,.67,.42,.79,.37,.34-.58,1.72-3.05,2.03-3.11,.35-.07,.61-.37,.61-.37,0,0-.68-.58-1.18-.88-.51-.3-.88-.54-.88-.54,0,0-.17,.37-.09,.71,.09,.35-1.96,3.12-1.96,3.12Z" style="fill:#ffc317;"/><path d="M81.81,241.61c.75,.53,1.21,.64,1.16,.41-.09-.45-1.73-1.51-2.07-1.34-.13,.18,.91,.93,.91,.93Z" style="fill:#ffda0b;"/></g><g><path d="M75.5,242.84c-.04,.16,.88,.4,.88,.4,.52,.14,.78,.15,.87,.07,.11-.66,.51-3.47,.78-3.63,.3-.19,.44-.57,.44-.57,0,0-.84-.3-1.42-.4-.58-.1-1.01-.18-1.01-.18,0,0-.02,.41,.18,.7,.21,.3-.71,3.62-.71,3.62Z" style="fill:#ffc317;"/><path d="M77.22,239.07c.89,.23,1.36,.17,1.23-.03-.24-.39-2.16-.79-2.41-.5-.05,.21,1.18,.54,1.18,.54Z" style="fill:#ffda0b;"/></g><g><path d="M77.29,246.02c.44,.54,.85,.64,.96,.34,2.75-7.21-.78-1.14-1.18-1.09-.25,.09,.08,.59,.22,.75Z" style="fill:#ffc317;"/><path d="M78.7,242.11l-.32-.36s-.23,.24-.32,.58c-.09,.34-.06,.38-.19,.78-.13,.4-.85,2.19-.85,2.19l1.13,1.23s.96-2.06,1.01-2.21,.31-.42,.38-.55,.42-.4,.42-.4l-1.25-1.24Z" style="fill:#ffc317;"/><path d="M78.77,242.71c.59,.72,1.28,.89,1.3,.45,.03-.54-1.06-1.55-1.59-1.47-.34,.12,.11,.79,.29,1.02Z" style="fill:#ffda0b;"/></g><g><path d="M76.64,248.83c.27,.78,.98,.94,1.19,.5,.14-.04,.78-1.02,.95-1.24,.17-.22,.49-.65,.72-.91,.24-.26-.78-1.9-1.27-1.73-.43,.14-1.23,2.09-1.42,2.58-.2,.12-.27,.41-.17,.8Z" style="fill:#ffc317;"/><path d="M77.92,246.61c.35,.93,1.29,1.15,1.57,.56,.16-.35,.01-.75-.03-.88-.27-.6-.73-.97-1.17-.94-.41,.09-.57,.53-.4,1.15,.01,.03,.03,.08,.04,.11Z" style="fill:#ffda0b;"/></g></g><g><g><path d="M76.7,267.91q.57-.11,.61-.11c-.2,.14-1.41,.36-1.64,.31,.04-.02,.11-.04,.38-.08,.24-.04,.38-.07,.65-.12Z" style="fill:#ffb300;"/><path d="M83.75,260.55c.25-.45,.49-.66,.64-.64,.26,.15,.75,.46,1.25,.75,.22,.12,.44,.24,.65,.36,.23,.12,.37,.19,.48,.24,.6,.24,1.43,.22,1.54,.27l.11,.06-.44,.68c.06,.09,.08,.17,.04,.24-.03,.06-.12,.08-.25,.09l-.39,.61-.11,.61s-.54-.09-.85-.64c-.24-.43-1.54-1.08-2.07-1.33-.46-.14-.77-.25-.81-.27-.13-.14-.05-.53,.2-1.01Z" style="fill:#f2b50d;"/><path d="M85.86,258.39c.14-.44,.26-.75,.3-.68,.01,.03,.89,.35,1.86,.7,.11,.04,1.23,.29,1.75,.15,.51-.13,1,.03,1,.03l-.7,2.45s-.41-.02-.68-.27c-.27-.24-.67-.62-1.43-.8-.14-.03-.3-.07-.45-.1-1.01-.15-1.87-.34-1.87-.34-.02-.18,.06-.61,.22-1.14Z" style="fill:#f2b50d;"/><path d="M90.39,259.94l.07-.22s.03,.09,.02,.13c-.01,.04-.04,.07-.08,.1Z" style="fill:#ffb300;"/><path d="M74.49,258.49c.45-.73,1.03-1.06,1.39-.48,.17,.27,.99,.87,.98,.99-.09,.51-1.04,1.64-1.47,1.64-.42-.05-.91-1.54-.9-2.06,0-.03,0-.06,0-.09Z" style="fill:#ffc317;"/><path d="M80.04,259.12c.28-.69,.99-.9,1.2-.36,.12,.3,2.54,1.68,2.5,1.79-.21,.49-3.1-.29-3.45-.34-.33-.11-.44-.49-.29-1,0-.03,.02-.06,.03-.09Z" style="fill:#ffc317;"/><path d="M82.95,261.14l-.23,.76s-.27-.11-.42-.35c-.15-.24-.32-.67-.5-.75-.18-.08-1.51-.59-1.51-.59l.76-1.67s1.79,.98,2.08,1c.29,.02,.56,.07,.56,.07l-.75,1.53Z" style="fill:#ffc317;"/><path d="M80.65,262.58c.44-.58,.93-.69,.99-.35,.01,.07,.82,1.51,1.75,1.78,.69,.2,1.08,.45,1.08,.45l-1.54,1.93s-.37-.54-.49-.94c-.33-1.05-1.91-1.91-2.01-1.93-.22-.12-.06-.53,.17-.87,.02-.02,.04-.05,.05-.08Z" style="fill:#f2b50d;"/></g><g><path d="M87.56,262.31c.4-.69,.88-.97,.99-.57,.03,.1,.08,.5-.35,1.27-.37,.61-.74,.92-.96,.79-.18-.19-.08-.72,.26-1.37,.02-.03,.04-.08,.06-.11Z" style="fill:#ffda0b;"/><path d="M90.4,259.38c.15-.47,.32-.9,.37-.79,.05,.09-.03,.69-.29,1.58-.26,.83-.38,.93-.41,.87-.03-.24,.08-.82,.29-1.54,.01-.04,.03-.09,.04-.12Z" style="fill:#ffda0b;"/><path d="M74.99,259.64c.16-1.05,1.31-1.44,1.87-.64,.25,.35,.22,.72,.2,.88-.12,.69-.58,1.14-1.16,1.14-.57-.07-.94-.56-.92-1.25,0-.04,0-.09,.01-.12Z" style="fill:#ffda0b;"/><path d="M82.49,260.49c.38-.94,1.34-1.22,1.63-.48,.16,.41,0,.85-.04,.99-.28,.66-.77,1.04-1.24,.96-.44-.14-.59-.66-.39-1.35,.01-.04,.03-.09,.04-.12Z" style="fill:#ffda0b;"/><path d="M83.31,265.17c.6-.79,1.26-.93,1.34-.47,.03,.18-.01,.49-.39,1-.44,.54-.95,.84-1.25,.75-.3-.17-.08-.71,.23-1.17,.02-.03,.05-.07,.07-.1Z" style="fill:#ffda0b;"/></g><g><path d="M75.5,267.81c-.04-.16,.88-.4,.88-.4,.52-.14,.78-.15,.87-.07,.11,.66,.51,3.47,.78,3.63,.3,.19,.44,.57,.44,.57,0,0-.84,.3-1.42,.4-.58,.1-1.01,.18-1.01,.18,0,0-.02-.41,.18-.7,.21-.3-.71-3.62-.71-3.62Z" style="fill:#f2b50d;"/><path d="M77.22,271.58c.89-.23,1.36-.17,1.23,.03-.24,.39-2.16,.79-2.41,.5-.05-.21,1.18-.54,1.18-.54Z" style="fill:#ffda0b;"/></g><g><path d="M77.29,264.63c.44-.54,.85-.64,.96-.34,2.75,7.21-.78,1.14-1.18,1.09-.25-.09,.08-.59,.22-.75Z" style="fill:#ffc317;"/><path d="M78.7,268.54l-.32,.36s-.23-.25-.32-.58c-.09-.34-.06-.38-.19-.78-.13-.4-.85-2.19-.85-2.19l1.13-1.23s.96,2.06,1.01,2.21c.05,.15,.31,.42,.38,.55s.42,.4,.42,.4l-1.25,1.24Z" style="fill:#f2b50d;"/><path d="M78.77,267.95c.59-.72,1.28-.89,1.3-.45,.03,.54-1.06,1.55-1.59,1.47-.34-.12,.11-.79,.29-1.02Z" style="fill:#ffda0b;"/></g><g><path d="M76.64,261.82c.27-.78,.98-.94,1.19-.5,.14,.04,.78,1.02,.95,1.24,.17,.22,.49,.65,.72,.91,.24,.26-.78,1.9-1.27,1.73-.43-.14-1.23-2.09-1.42-2.58-.2-.12-.27-.41-.17-.8Z" style="fill:#ffc317;"/><path d="M77.92,264.04c.35-.93,1.29-1.15,1.57-.56,.16,.35,.01,.75-.03,.88-.27,.6-.73,.97-1.17,.94-.41-.09-.57-.53-.4-1.15,.01-.03,.03-.08,.04-.11Z" style="fill:#ffda0b;"/></g></g><g><path d="M66.59,251.44c-.27,.69-.84,.93-1.13,.62-.34-.19-1.75-.94-2-.95-.29-.02-.57-.07-.57-.07l.75-1.53,.23-.76s.27,.11,.42,.35c.15,.25,.32,.67,.5,.75s1.51,.6,1.51,.6c.33,.1,.45,.49,.29,1Z" style="fill:#ffc62b;"/><path d="M64.11,250.16c-.38,.94-1.34,1.22-1.63,.48-.16-.41,0-.85,.04-.99,.28-.66,.77-1.04,1.24-.96,.44,.14,.59,.66,.39,1.35-.01,.04-.03,.09-.04,.12Z" style="fill:#ffc84a;"/></g><g><path d="M68.48,254.83c.12,.73-.25,1.22-.65,1.11-.39,.01-1.98,.08-2.21,.2-.26,.13-.53,.22-.53,.22l-.13-1.7-.19-.77s.29-.05,.54,.09c.25,.14,.61,.42,.81,.39,.2-.02,1.6-.25,1.6-.25,.33-.08,.63,.2,.76,.71Z" style="fill:#ffc62b;"/><path d="M65.69,254.99c.15,1-.53,1.73-1.16,1.24-.34-.27-.44-.73-.47-.88-.09-.71,.14-1.28,.58-1.46,.45-.1,.84,.27,1.02,.97,0,.04,.02,.09,.02,.13Z" style="fill:#ffc84a;"/></g><g><path d="M77.99,254.83c-.12,.73,.25,1.22,.65,1.11,.39,.01,1.98,.08,2.21,.2,.26,.13,.53,.22,.53,.22l.13-1.7,.19-.77s-.29-.05-.54,.09c-.25,.14-.61,.42-.81,.39-.2-.02-1.6-.25-1.6-.25-.33-.08-.63,.2-.75,.71Z" style="fill:#ffc317;"/><path d="M80.78,254.99c-.15,1,.53,1.73,1.16,1.24,.34-.27,.44-.73,.47-.88,.09-.71-.14-1.28-.58-1.46-.45-.1-.84,.27-1.02,.97,0,.04-.02,.09-.02,.13Z" style="fill:#ffda0b;"/></g><path d="M74.57,255.09c0,.72-.59,1.31-1.31,1.31s-1.31-.59-1.31-1.31,.58-1.31,1.31-1.31,1.31,.59,1.31,1.31Z" style="fill:#ffc84a;"/><g><path d="M57.95,254.75l.49-.81s.46-.04,.61,.17c.15,.22,1.53,.55,2.15,.48s1.06-.22,1.16-.15c.1,.07,.34,.32,.25,1.03-.09,.72-.34,.87-.6,.83s-.68-.34-1.31-.34c-.63,0-1.39,.22-1.63,.33-.25,.11-.83,.21-.83,.21l-.3-1.75Z" style="fill:#ffc62b;"/><path d="M58.98,255.53c-.15,.91-.77,1.28-1.18,.7-.15-.21-.31-.59-.24-1.24,.12-.72,.46-1.13,.88-1.05,.41,.15,.62,.71,.56,1.46,0,.04-.01,.09-.02,.13Z" style="fill:#ffda0b;"/></g><g><path d="M88.74,254.75l-.49-.81s-.46-.04-.61,.17c-.15,.22-1.53,.55-2.15,.48-.62-.07-1.06-.22-1.16-.15-.1,.07-.34,.32-.25,1.03,.09,.72,.34,.87,.6,.83,.25-.04,.68-.34,1.31-.34,.63,0,1.39,.22,1.63,.33,.25,.11,.83,.21,.83,.21l.3-1.75Z" style="fill:#f2b50d;"/><path d="M87.71,255.53c.15,.91,.77,1.28,1.18,.7,.15-.21,.31-.59,.24-1.24-.12-.72-.46-1.13-.88-1.05-.41,.15-.62,.71-.56,1.46,0,.04,.01,.09,.02,.13Z" style="fill:#ffda0b;"/></g><path d="M73.55,262.53c-.72-.1-1.15,.17-.95,.45,.04,.06,.49,1.64,.02,2.5-.35,.64-.44,1.08-.44,1.08l2.45,.28s-.12-.65-.32-1.01c-.51-.97,0-2.7,.06-2.79,.07-.24-.33-.41-.73-.49-.03,0-.06-.01-.09-.01Z" style="fill:#ffc317;"/><path d="M73.49,266.24c-.98-.13-1.55,.23-1.28,.61,.1,.15,.36,.34,.99,.43,.69,.07,1.26-.08,1.41-.35,.09-.33-.45-.56-.99-.67-.04,0-.09-.01-.12-.02Z" style="fill:#ffda0b;"/><path d="M73.32,248.22c.72,.09,1.14-.19,.94-.46-.04-.06-.51-1.64-.06-2.5,.34-.64,.43-1.08,.43-1.08l-2.46-.25s.13,.64,.33,1.01c.52,.96,.03,2.7-.02,2.79-.07,.24,.34,.41,.74,.48,.03,0,.06,0,.09,.01Z" style="fill:#ffc317;"/><path d="M73.32,244.5c.98,.12,1.55-.25,1.27-.63-.11-.14-.36-.33-.99-.42-.69-.06-1.26,.09-1.41,.37-.09,.33,.46,.55,1,.65,.04,0,.09,.01,.13,.02Z" style="fill:#ffda0b;"/></g><g><path d="M96.62,232.55c.11,7.75,29.72,30.55,43.15,30.36,13.42-.19,21.32-3.48,21.21-11.22-.11-7.75-26.83-33.69-40.25-33.5-13.42,.19-24.21,6.62-24.1,14.37Z" style="fill:#e1e2ef;"/><g><path d="M165.22,138.04c7.07,3.91,17.53,9.4,24.54,13.06-.52,.82-1.11,1.69-1.24,1.88-.03-.01-4.16-2.48-5.18-3.09-9.12-5.44-19.05-11.15-19.12-11.15-.43-.25-.16-.7,.34-.81,.41-.08,.67,.1,.67,.1Z" style="fill:#e84343;"/><path d="M173.08,138.13c7.21,1.79,13.19,3.25,20.65,5.07-.31,.84-.77,1.91-.85,2.09,0,0-21.8-6.36-21.84-6.32-4.85-1.38-9.83-2.77-9.83-2.77-.43-.12-.07-1.03,.4-.96,.04,0,6,1.54,11.47,2.89Z" style="fill:#e84343;"/><path d="M161.7,134.12c.14-.1,.77-.52,1.49-.99,13.46,.62,32.54,1.29,32.54,1.33-.08,1.01-.23,2.08-.26,2.2-4.52-.34-19.03-1.51-33.77-2.54Z" style="fill:#e84343;"/><path d="M195.69,127.68l-29.4,3.44c.77-.49,1.51-.99,2.28-1.51,7.69-1.15,26.09-4.03,26.75-4.13,.1-.01,.39,1.04,.4,1.9,0,.04,0,.3-.04,.31Z" style="fill:#fc5552;"/><path d="M193.99,118.54c.01,.09,.04,.29-.04,.32-.81,.26-6.79,2.27-7.76,2.59-12.62,4.22-11.92,4.03-11.85,3.98,.02-.01,.68-.53,1.03-.82,.74-.6,1.55-1.28,2.25-1.89,0,0,6.17-2.37,15.38-5.93,.21-.08,.88,1,.99,1.76Z" style="fill:#fc9f9c;"/><path d="M190.46,110.52c.23-.13-.2-.96-.8-1.52-.02-.02,.87-1.3,2.06-3.51,4.7,8.17,6.59,16.91,5.77,25.77-.04,.45-.26,2.67-.38,3.11-.64,2.35-3.65,9.6-3.65,9.6,.1-.25,.2-.51,.29-.76,.14-.36,.61-1.73,.78-2.32,1.27-4.4,1.62-8.8,.98-13.17,.07,0,.13-.01,.19-.02,0,0,.04,.03,.04-.31-.01-.85-.31-1.91-.4-1.9-.3,.05-.2,.03-.23,.04-.49-2.2-1.2-4.3-2.09-6.35l.95-.32c.08-.03,.06-.23,.04-.32-.12-.76-.79-1.84-.99-1.76-.31,.12-.95,.37-.95,.37-.95-1.9-2.07-3.74-3.28-5.51,.02-.02,1.68-1.11,1.7-1.12Z" style="fill:#ffc700;"/><path d="M175.37,124.6c-.2,.16-1.03,.83-1.06,.84-5.49,4.29-10.85,7.42-13.17,9.07-.62,.44-1.58,1.15-2.06,1.74-.09,.13-.36,.73-.45,1.02-.39,1.25,.22,2.06,.35,2.21-1.54-1.54-.79-2.29-.58-5.8,.35-5.92-1.63-6.24,1.76-9.04,3.42-2.82,14.45-8.51,23.44-18.83,4.94-5.63,9.06-12.34,10.71-19.64,0-.09,2.21-4.75,2.24-7.1,0,.15,0,.36-.02,.52,.05-.48,.1-1.44,.1-1.36,.69,4.92,.63,8.93-.09,13.3-2.18,13.39-10.6,24.51-21.18,33.07Z" style="fill:#ffe092;"/><path d="M195.06,78.42c0-.05,0-.84-.1-1.8-.02-.21-.05-.38-.05-.41-.05,0-.14-2.68-1.46-6.61,.35-.08,.34-.08,.34-.08,.07-.06-.05-.57-.08-.66-.1-.39-.25-.79-.41-1.09-.19-.37-.25-.38-.28-.38-.12,.03-.23,.06-.35,.09-.06,0-.82-2.31-3.04-5.94l1.06-.5c.07-.04,.03-.22,0-.3-.11-.37-.43-.92-.82-1.32-.09-.09-.37-.36-.48-.3l-.98,.53c-.44-.64-.83-1.2-1.26-1.78,1.28-1.79,2.33-3.48,3.33-5.29,4.47,7.67,6.68,15.9,6.2,24.83-.03,.47-.1,1.7-.14,2.16,0-.16,.01-.36,.02-.52-.03,2.34-2.24,7.01-2.24,7.1,.56-2.52,.82-5.01,.75-7.74Z" style="fill:#ffc700;"/><path d="M191.53,148.08c.79-1.47,1.35-2.77,1.37-2.81,.62-1.33,3.55-8.53,4.2-10.9,.08-.3,.27-1.89,.3-2.2,.33,3.27,.35,6.44-.06,9.84-.95,7.85-4.01,13.55-4.1,13.85-.1,.21-1.04,.68-1.2,.76-3.32,1.66-9.61,3.75-8.91,3,.24-.26,1.31-1.42,2.13-2.39,.63-.74,1.47-1.79,2.1-2.63,.22-.29,1.15-1.57,1.19-1.64,1.19-1.7,2.36-3.66,3-4.88Z" style="fill:#fcd561;"/><path d="M188.42,45.15c.82-1.28,3.2-3.26,4.35-4.14,0,0,1.18-.93,2.01-1.32,.11-.05,.41-.19,.49-.1,.04,.06,.01,.13,.01,.13,0,0-.05,.12-.06,.14-.79,1.47-6.35,5.99-6.84,5.55-.05-.04-.03-.13,.04-.27Z" style="fill:#fcd561;"/><path d="M175.62,59.58c.06-.05,1.15-1,1.15-1,3.79-3.32,7.31-7.1,10.2-11.25l1.31-1.96c.5,.41,4.61-2.74,6.39-4.77,.14-.16,.54-.63,.6-.83-.6,2.96-1.53,5.82-2.7,8.55-.03,.1-.74,1.68-1.22,2.62-3.18,6.27-7.59,11.81-12.76,16.65-5.14,4.8-9.87,7.78-15.17,11.47-.31,.21-3.11,1.97-4.42,3.21-.47,.45-.56,.62-.58,.64-1.01,1.1-.35,2.73-.35,2.73-.22-.29-.4-.6-.49-.93-.3-1.05,.2-2.64,.11-5.54-.13-4.23-1.18-5.07,.24-6.74,1.81-2.13,8.22-5.33,15.49-11.06,0-.04,.43-.33,2.21-1.81Z" style="fill:#ffe092;"/><path d="M194.68,42.25c.03-.13,.07-.25,.1-.38-.03,.13-.07,.25-.1,.38Z" style="fill:#fcd561;"/><path d="M194.91,76.21c0-.07,.14,.89,.15,2.09,0,.07,0,.12,0,.12-8.27,.12-31.65,.65-31.65,.65,.58-.38,1.19-.79,1.84-1.21,13.66-.7,29.64-1.68,29.65-1.65Z" style="fill:#e84343;"/><path d="M194.32,43.5c.11-.36,.21-.72,.31-1.09-.1,.36-.2,.73-.31,1.09Z" style="fill:#fcd561;"/><path d="M194.07,44.33c.09-.28,.17-.55,.26-.83-.08,.28-.17,.55-.26,.83Z" style="fill:#fcd561;"/><path d="M193.93,44.74c.04-.14,.09-.27,.14-.41-.04,.14-.09,.27-.14,.41Z" style="fill:#fcd561;"/><path d="M187.81,84.22c.69,.1,5.96,.81,6.71,.92-.14,.75-.3,1.43-.5,2.17-9.31-1.67-24.45-4.36-33.93-5.95,.36-.27,.75-.56,1.19-.86,1.78,.26,22.1,3.14,26.53,3.72Z" style="fill:#e84343;"/><path d="M193.5,45.97c.15-.41,.29-.82,.43-1.23-.14,.41-.28,.82-.43,1.23Z" style="fill:#fcd561;"/><path d="M192.57,48.32c.33-.77,.64-1.56,.93-2.35-.29,.78-.6,1.57-.93,2.35Z" style="fill:#fcd561;"/><path d="M169.7,74.81s.98-.68,2.74-2.03c0,0,13.21-3.43,20.58-5.39,.04,0,.12,.07,.28,.38,.15,.3,.31,.7,.41,1.09,.02,.09,.15,.6,.08,.66-.03,.02-12.98,2.81-24.09,5.29Z" style="fill:#fc5552;"/><path d="M192.41,48.69c.04-.1,.09-.21,.14-.31-.04,.1-.09,.21-.14,.31Z" style="fill:#fcd561;"/><path d="M191.75,93.56c.41-.89,.79-1.79,1.14-2.7-1.2,3.17-2.83,6.2-4.76,9.07-.02-.02,1.24-1.76,2.62-4.37,0,0,0,0-.85-.36-23.89-10.18-27.06-11.24-27.33-11.45-.1-.08-.16-.2-.15-.34,.03-.37,.49-.64,.89-.48,0,0,7.22,2.84,28.44,10.63Z" style="fill:#e84343;"/><path d="M180.19,66.04c2.12-2.1,3.99-4.24,5.64-6.38-.62,.81-1.29,1.63-2,2.47,1.53-.83,5.57-3.01,5.57-3.01,.11-.06,.4,.21,.48,.3,.57,.58,1,1.52,.81,1.62,0,0-10.23,4.85-10.5,4.99Z" style="fill:#fc9f9c;"/><path d="M186.98,112.81c1.87-2.45,2.65-3.83,2.68-3.81,.6,.56,1.03,1.39,.8,1.52-2.3,1.51-3.48,2.29-3.48,2.29Z" style="fill:#fc9f9c;"/><path d="M167.32,35.63c-.18-.11-4.56-2.62-4.59-2.62-.43-.25-.16-.7,.34-.81,.25-.05,.5,0,.67,.1,.14,0,1.54,1,19.28,10.31,.62,.32,3.28,1.72,5.26,2.75-.41,.66-1.25,1.87-1.25,1.87-.94-.57-12.64-7.56-19.71-11.61Z" style="fill:#e84343;"/><path d="M173.21,90.3c-5.37-4.1-5.06-3.99-5.4-4.13l.09-.23c6.68,2.75,12.05,5.03,12.05,5.03,.07,.06,3.77,3.31,7.29,7.79,.09,.11,.89,1.16,.89,1.16l-.67,.98c-4.64-3.41-9.61-7.07-14.25-10.61Z" style="fill:#feb30f;"/><path d="M178.57,45.35c-.12,.41-.24,.81-.36,1.22-.02-.02-3.12-3.4-3.12-3.4-.09-.46-.48-2.42-.48-2.45-.02-.13-.15-.26-.25-.35-.26-.22-.65-.39-1-.46-.21-.04-.59-.07-.73,.09-.04,.05-.06,.11-.04,.18l.07,.28c-1.06-1.2-1.84-2.09-3.06-3.51,10.47,6.08,17.16,10.17,17.21,10.17,.02,.02,.12,.15,.17,.23-1.16,1.66-2.39,3.23-3.66,4.7-.07-.07-2.79-2.98-3.46-3.7,.24-.61,.73-1.84,.73-1.84,.02-.04,.02-.1,0-.17-.03-.1-.11-.22-.24-.35-.57-.61-1.68-.98-1.77-.63Z" style="fill:#ffc700;"/><path d="M166.74,86.8c-.27-.23-.18-.51,.13-.64,.27-.12,.63-.1,.93,.01,.56,.22,.48,.66,19.65,14.74-.42,.6-.86,1.19-1.3,1.78-.02,.02-11.38-9.65-19.4-15.89Z" style="fill:#e84343;"/><path d="M185.61,102.67c.04,.09,.07,.21,0,.29l-2.02,2.84c-.31,.35-.61,.7-.92,1.04-.02-.02-1.04-1.78-1.04-1.78l2.12-3.53c.05-.08,.17-.1,.33-.07,.54,.11,1.32,.73,1.52,1.22Z" style="fill:#fc9f9c;"/><path d="M185.62,102.96c.06-.08,.03-.2,0-.29-.2-.49-.98-1.1-1.52-1.22-.16-.03-.28,0-.33,.07l-1.43,2.38c-1.83-1.87-2.88-2.74-2.88-2.78,.11-1.24,.23-2.5,.36-3.75,2.14,1.77,4.26,3.55,6.35,5.31-.83,1.08-1.69,2.12-2.55,3.11,.03-.04,2.02-2.84,2.02-2.84Z" style="fill:#feb30f;"/><path d="M181.83,53.68c-11.34-14.04-14.74-17.49-14.7-17.53-.2-.22-.07-.42,.2-.52,.75,.43,1.51,.87,2.27,1.31,1.45,1.69,3.07,3.55,5.5,6.22,0,.08,8.07,8.72,8.22,8.87-1.43,1.65-2.92,3.19-4.42,4.62,1.04-.99,2.02-1.98,2.94-2.98Z" style="fill:#e84343;"/><path d="M183.02,42.62s-11.54-6.03-19.28-10.31c-.17-.11-.42-.16-.67-.1-.5,.1-.76,.56-.34,.81,.02,0,4.21,2.4,4.59,2.62-.27,.1-.4,.3-.2,.52-.02,.02,2.04,2.22,6.31,7.3,0,.03,.29,1.13,.3,1.17-7.6-5.74-14.23-8.74-16.35-10.98,.83,.03,4.62-2.93,6.29-4.82,.15-.17,.67-.76,.62-.97,6.83,4.23,12.88,8.78,18.72,14.77Z" style="fill:#ffc700;"/><path d="M182.67,106.84c-.49,.54-.99,1.07-1.49,1.58-.05-.05-1.8-3.9-4.91-9.84-1.1-2.11-2.01-3.85-3.97-7.34,1.01,.81,2.01,1.63,3.02,2.46,3.16,6.09,7.33,13.13,7.35,13.15Z" style="fill:#fc5552;"/><path d="M180.58,46.5s-.49,1.22-.73,1.84c-.55-.59-1.09-1.18-1.64-1.77,.12-.4,.24-.81,.36-1.22,.06-.23,.54-.1,.77-.02,.36,.14,.75,.38,1,.65,.12,.13,.2,.25,.24,.35,.02,.07,.02,.12,0,.17Z" style="fill:#fc9f9c;"/><path d="M181.18,108.42c-.78,.8-1.56,1.56-2.35,2.29,.01-.37,.03-.75,.04-1.12,0-.04-.12,.2,1.6-2.63,.04,.08,.71,1.45,.71,1.45Z" style="fill:#fc9f9c;"/><path d="M179.05,50.25c.06,.07,.12-.3-1.44,3.84-.16-.61-.47-1.85-.77-3.02,0-.04-.05,.16,.78-2.57,.47,.58,.97,1.15,1.43,1.75Z" style="fill:#fc9f9c;"/><path d="M179.43,101.23c-.05-.08-1.28-2.29-1.64-2.94,.02-.85,.03-1.7,.05-2.54,.66,.54,1.31,1.08,1.96,1.62-.28,2.75-.32,3.39-.36,3.85Z" style="fill:#fc9f9c;"/><path d="M177.09,112.29c.3-3.58,.5-7.1,.62-10.91,.06,.11,1.34,2.67,1.47,2.94,.03,.03-.14,1.4-.3,5.28,0,0-.03,.75-.04,1.12-1.31,1.22-2.62,2.36-3.92,3.41,.71-.58,1.44-1.19,2.17-1.84Z" style="fill:#fc9f9c;"/><path d="M178.42,57.1c-.07,.07-1.1,1.01-1.64,1.49-1.27-6.69-2.28-11-3.34-15.13,.49,.59,2.22,2.66,2.26,2.71,.05,.06-.04-.18,.55,2.39,.93,4.01,2.15,8.53,2.17,8.54Z" style="fill:#fc5552;"/><path d="M175.33,93.69c.84,.69,1.67,1.37,2.51,2.06-.01,.85-.03,1.69-.05,2.54-.83-1.5-1.65-3.03-2.46-4.6Z" style="fill:#feb30f;"/><path d="M176.49,57.12s-.87,2.43-.87,2.46c-.74,.63-1.48,1.23-2.21,1.81,.88-2.46,1.68-4.82,2.48-7.3,0,.05,.25,1.21,.61,3.04Z" style="fill:#fc9f9c;"/><path d="M158.42,82.92s.26-.48,1.68-1.56c2.9,.49,6.1,1.11,9.45,1.62,.15,.11,3.06,1.93,6.71,4.85-12.28-4.58-12.87-4.9-12.95-4.9-.4-.15-.86,.12-.89,.48-.01,.14,.04,.26,.15,.34,.11,.09-.23-.09,5.33,2.2l-.09,.23c-.3-.12-.66-.13-.93-.01-.31,.14-.4,.41-.13,.64,.67,.52,3.1,2.44,5.56,4.43,1.47,2.63,2.94,5.35,3.84,7.09-8.57-6.91-16.16-10.15-18.08-12.67,0,0-.66-1.63,.35-2.73Z" style="fill:#ffc700;"/><path d="M175.09,43.16c-.82-.91-1.64-1.81-2.44-2.71,0,0-.01-.04-.07-.28-.01-.04-.02-.11,.04-.18,.15-.16,.52-.13,.73-.09,.35,.07,.74,.24,1,.46,.1,.09,.23,.22,.25,.35,0,.04,.38,1.96,.48,2.45Z" style="fill:#fc5552;"/><path d="M172.53,137.99c-3.89-.97-7.62-1.9-10.89-2.75-.5-.08-.86,.83-.43,.95,0,0,5.04,1.4,9.83,2.77-1.02,.48-1.86,.83-2.29,1-.03,0-3.61-1.97-3.61-1.97-.16-.08-.38-.11-.59-.07-.5,.1-.76,.56-.34,.81l3.14,1.78c-1,.38-2.18,.8-3.19,1.1-.23,.07-1.56,.46-1.76,.33-1.2-.74-2.45-1.54-3.43-2.49-.12-.15-.73-.96-.35-2.21,.09-.29,.36-.89,.39-.95,.64-.77,1.92-1.69,2.68-2.2,0,0,3.67,.26,5.63,.4,1.8,1.14,3.5,2.27,5.2,3.47Z" style="fill:#feb30f;"/><path d="M163.38,79.09c.22,.14,1.75,1.05,3.64,2.24-2.04-.33-3.95-.57-5.73-.83,.63-.44,1.33-.91,2.09-1.41Z" style="fill:#feb30f;"/><path d="M164.29,27.85c.12,.52-3.09,3.54-5.45,5.12-.23,.16-1.13,.75-1.41,.7-.11-.1-.05-.23,0-.3,.38-.71,1.88-2.07,1.91-2.1,1.03-.95,3.23-2.77,4.44-3.36,.08-.04,.2-.09,.29-.11,.04,0,.12-.03,.16-.01,.05,.03,.07,.06,.07,.06Z" style="fill:#fcd561;"/><path d="M164.22,27.79c-.22-.03-.78,.3-.98,.42,.46-.29,.82-.45,.98-.42Z" style="fill:#fcd561;"/><path d="M165.26,133.23s-1.84-.08-2.08-.09c.36-.24,.94-.61,.94-.61,.06,.04,1.07,.67,1.14,.71Z" style="fill:#feb30f;"/><path d="M159.44,31.18c.48-.44,.99-.88,1.5-1.29-.55,.45-1.08,.91-1.5,1.29Z" style="fill:#fcd561;"/><path d="M157.48,33.27c-.05,.08-.16,.29-.1,.37-.04-.05-.02-.18,.1-.37Z" style="fill:#fcd561;"/></g></g><g><path d="M183.71,145.84s-3.23,4.71-4.45,5.62c-1.22,.9-2.95,2.74-2.61,3.87,.34,1.13,2.31,1.95,4.86,.67,2.55-1.28,2.52-2.31,4.26-2.79s3.44-1.37,4.05-2.46c.61-1.09-2.02-6.59-2.02-6.59l-4.09,1.68Z" style="fill:#e5ffff;"/><g><g><path d="M170.25,147.83c-1.02,.75-1.94,1.55-3,2.81,0-.12-.06-.39-.11-.59-.01-1.73,.01-1.28,0-2.99,.59-.4,1.15-.92,1.66-1.52,1.44-1.68,2.31-3.79,2.52-5.47,.12-.97,0-1.84-.14-2.3-.13-.41-.37-.91-.66-1.2-.35-.35-.13-.19-3.49-2.09-.02-3.6,.02-2.51,0-6.1l-2.47-1.39c4.92-2.31,11.42-4.64,16.32-2.23,1.77,1,2.31,1.49,4.89,3.81,12.69,11.42,13.25,37.34,1.37,63.66-2.44,5.41-4.88,10.81-7.32,16.22l-.89,.52c-.05-.1-.76-1.36-1.45-2.54v-17.16l-.12-.04,1.1-.64c.63-1.41,1.25-2.82,1.88-4.23,7.3-16.42,6.11-32.16-2.66-37.71-2.28-1.44-5.24-.39-7.42,1.21Z" style="fill:#9f9ef2;"/><path d="M185.77,128.54c-.75-.62-1.48-1.25-2.23-1.86-.75-.61-1.53-1.16-2.37-1.63l-.31-.17c-.11-.05-.22-.09-.33-.14l-.66-.27c-.46-.13-.91-.29-1.38-.36-.93-.2-1.89-.23-2.85-.2l-.72,.03c-.24,.02-.48,.05-.71,.08-.48,.04-.95,.14-1.42,.22-.94,.19-1.87,.43-2.8,.71-.92,.28-1.83,.6-2.74,.94-.9,.34-1.8,.72-2.69,1.08,1.72-.88,3.5-1.67,5.35-2.28,1.84-.61,3.76-1.06,5.72-1.13,.98-.03,1.96,.02,2.92,.24,.49,.08,.95,.25,1.42,.39,.23,.09,.46,.19,.68,.29,.11,.05,.23,.1,.33,.16l.32,.19c1.71,.98,3.07,2.39,4.47,3.72Z" style="fill:#fff;"/><path d="M184.63,221.85v4.02c-5.15,10.9-19.43,21.69-37.66,28.45v-4.02c18.23-6.76,32.51-17.55,37.66-28.45Z" style="fill:#5254cf;"/><path d="M184.63,221.85l-21.74,12.74c-.11-17.19,.73-25.05,2.05-28.96l8.11-4.76c1.23,.79,2.63,2.45,4.42,5.53,.43,.74,.92,1.56,1.41,2.46,.28,.58,1.01,2.02,1.11,2.22,.24,.49,.91,1.95,1,2.15,.4,.9,3.5,8.26,3.64,8.62Zm-9.3-12.79c0-.06,0-.12,0-.18-.01-.37-.07-.7-.18-1.02-.02-.06-.05-.13-.08-.19-.17-.38-.4-.68-.7-.89-.07-.05-.11-.07-.14-.09,0,0-.82-.47-1.19-.67-.46-.26-1.06-.27-1.59-.15-.71,.17-1.32,.58-1.85,1.06-1.36,1.21-2.28,2.83-2.63,4.62-.14,.71-.18,1.44,.04,2.14,.17,.52,.48,1.03,.94,1.29,.38,.22,1.21,.69,1.21,.69,.35,.2,.77,.27,1.25,.22,.06,0,.12-.02,.18-.03,.28-.06,.47-.13,.67-.21,.06-.03,.12-.05,.17-.08,.56-.29,1.12-.7,1.62-1.23,.1-.1,.19-.21,.29-.31,.64-.74,1.15-1.61,1.5-2.49,.05-.13,.1-.27,.15-.4,.02-.07,.04-.13,.06-.2,.03-.09,.06-.19,.08-.29,.01-.05,.03-.1,.04-.16,.03-.14,.06-.28,.09-.42,0-.04,.02-.09,.02-.13,0-.05,.01-.1,.02-.14,0-.06,.02-.13,.02-.19,0-.05,.01-.11,.01-.16,0-.06,0-.13,.01-.19,0-.07,0-.14,0-.21Z" style="fill:#d0d0fc;"/><path d="M162.89,234.59l21.74-12.74c-5.15,10.9-19.43,21.69-37.66,28.45-2.88,1.07-5.78,2.14-8.66,3.21-1.04,.38-2.1,.59-3.06,.61-.96,.03-1.81-.13-2.41-.47-.44-.25-.71-.58-.81-.95-.04-.23-.05-.29-.05-.34,0-.55,.31-1.16,.89-1.74,.07-.07,.13-.13,.21-.19,.11-.09,.22-.19,.34-.28,.08-.06,.17-.12,.25-.19,.09-.06,.18-.12,.27-.18,.09-.06,.19-.12,.29-.18,.15-.09,.31-.17,.47-.25,4.99-2.48,9.98-4.98,14.96-7.48,1.87-.93,3.57-1.98,5.03-3.12,.2-.16,.41-.31,.61-.47,2.25-1.73,3.84-3.55,4.73-5.31l2.85,1.62Z" style="fill:#d0d0fc;"/><path d="M167.8,117.27c4.57,2.6,9.14,5.19,13.7,7.79-.06-.03-.12-.07-.18-.1-.15-.08-.21-.11-.28-.14-.05-.03-.11-.06-.17-.08-.13-.06-.23-.11-.33-.15-4.45-1.86-9.92-.46-15.98,2.38l-.4-.23-11.55,6.77-5.11-2.9c-.02-3.26-.04-6.52-.07-9.79,1-.53,1.99-1.03,2.96-1.5,6.7-3.2,12.71-4.73,17.41-2.06Z" style="fill:#d0d0fc;"/><path d="M177.67,146.62c8.77,5.55,9.96,21.29,2.66,37.71-.63,1.41-1.25,2.82-1.88,4.23l-13.77-7.83c.63-1.41,2.38-5.38,2.51-5.71,.23-.56,.46-1.13,.67-1.69,.08-.22,.16-.43,.24-.64,.21-.57,.41-1.13,.59-1.69,.08-.24,.49-1.51,.56-1.78,.82-2.73,1.39-5.41,1.72-7.97,.14-.06,.28-.15,.42-.25,.04-.03,.08-.06,.13-.09,.15-.11,.2-.16,.25-.2,.04-.03,.07-.06,.1-.09,.06-.05,.1-.09,.13-.13,.08-.08,.15-.16,.23-.25,.04-.04,.08-.09,.11-.13,.07-.08,.13-.17,.19-.25,.05-.07,.08-.11,.11-.16,.03-.04,.06-.08,.08-.12,.05-.07,.08-.12,.1-.17,.32-.55,.56-1.16,.66-1.77,.02-.1,.03-.21,.04-.32,0-.05,0-.11,.01-.16,0-.05,0-.11,0-.16,0-.34-.05-.62-.14-.83-.12-.28-.23-.44-.37-.55-.03-.03-.06-.06-.09-.07-.03-.02-.07-.05-.1-.07,0,0-1.52-.87-1.55-.88,0,0-.02-.34-.02-.51-.01-.28-.04-.56-.06-.84-.01-.14-.09-.88-.1-.97-.02-.22-.05-.43-.08-.64-.03-.2-.05-.39-.09-.59-.04-.26-.09-.52-.14-.78-.16-.83-.35-1.64-.58-2.42,2.02-1.44,4.06-2.11,5.8-1.83,.04,0,.08,.01,.13,.02,.42,.09,.83,.23,1.21,.43,.09,.05,.19,.1,.28,.16Z" style="fill:#5254cf;"/><polygon points="178.45 188.56 177.36 189.21 177.48 189.24 167.87 194.84 154.04 186.98 164.69 180.74 178.45 188.56" style="fill:#d0d0fc;"/><path d="M177.48,189.24v17.16c-1.8-3.08-3.19-4.73-4.42-5.53l.17-.1v-2.89l-5.36-3.04,9.61-5.6Z" style="fill:#5254cf;"/><path d="M175.33,208.89c0,.06,0,.12,0,.18,0,.07,0,.14,0,.21,0,.06,0,.12-.01,.19,0,.05,0,.11-.01,.16,0,.06-.01,.13-.02,.19,0,.05-.01,.1-.02,.14,0,.04-.01,.08-.02,.13-.03,.14-.05,.28-.09,.42-.01,.05-.03,.1-.04,.16-.03,.09-.05,.19-.08,.29-.02,.07-.04,.13-.06,.2-.05,.13-.09,.27-.15,.4-.36,.9-.87,1.77-1.5,2.49-.09,.11-.19,.21-.29,.31-.33,.34-.69,.65-1.07,.91-.18,.12-.36,.22-.55,.32-.06,.03-.12,.06-.17,.08-.21,.09-.4,.16-.6,.2-.13,.03-.19,.04-.25,.04-.43,.05-.88,0-1.25-.22-.7-.44-1.08-1.26-1.08-2.36-.01-2.61,1.97-5.67,4.09-6.58,.77-.33,1.45-.34,1.98-.09,.14,.08,.17,.09,.2,.11,.17,.11,.28,.23,.39,.36,.15,.18,.26,.36,.35,.56,.03,.06,.05,.13,.08,.19,.1,.3,.16,.64,.18,1.02Z" style="fill:#fff;"/><path d="M173.04,206.02c.37,.21,.73,.42,1.1,.63-.53-.25-1.21-.24-1.98,.09-2.12,.91-4.1,3.97-4.09,6.58,0,1.1,.38,1.92,1.02,2.32-.38-.22-.77-.43-1.15-.65-.46-.26-.78-.77-.94-1.29-.22-.7-.17-1.43-.04-2.14,.35-1.79,1.27-3.41,2.63-4.62,.54-.48,1.14-.89,1.85-1.06,.53-.13,1.13-.12,1.59,.15Z" style="fill:#5254cf;"/><path d="M171.08,159.99c.18,.06,.4,0,.61-.11,.21-.11,.38-.27,.52-.45,.18-.24,.33-.49,.42-.77,.05-.16,.06-.19,.06-.22,.02-.09,.04-.18,.04-.28,0-.29-.02-.4-.07-.49-.04-.09-.07-.12-.09-.14-.05-.07-.1-.1-.14-.13,0,0-.35-.2-.51-.29-.26-.15-.61-.01-.87,.17-.27,.19-.44,.43-.59,.69-.15,.26-.26,.53-.29,.85-.02,.32,.04,.69,.3,.84,.17,.1,.35,.19,.51,.29,.03,.02,.06,.03,.1,.04Zm2.48-3c0,.05,0,.11,0,.16,0,.05,0,.11-.01,.16,0,.1-.02,.21-.04,.32-.1,.6-.33,1.22-.66,1.77-.03,.05-.1,.17-.1,.17-.03,.04-.19,.29-.19,.29-.06,.09-.13,.17-.19,.25-.04,.04-.07,.09-.11,.13-.07,.08-.15,.17-.23,.25-.04,.04-.07,.08-.11,.12-.05,.05-.09,.08-.12,.11-.05,.04-.1,.09-.15,.13-.14,.11-.18,.14-.22,.16-.12,.08-.25,.16-.37,.22-.14,.07-.24,.11-.33,.14-.11,.04-.23,.07-.34,.08-.25,.02-.4,.01-.54-.02-.32-.08-.61-.34-.78-.63-.18-.31-.23-.67-.22-1.02,0-1.78,1.32-3.72,2.67-4.3,.5-.21,.94-.22,1.29-.06,.13,.07,.16,.09,.19,.11,.03,.02,.06,.05,.09,.07,.03,.03,.05,.06,.08,.09,.1,.11,.19,.24,.25,.38,.13,.34,.18,.61,.18,.92Z" style="fill:#d0d0fc;"/><path d="M154.04,186.98l19.19,10.9-57.05,33.44-30.02-17.07,44.45-26.07-.41,2.99c.16,.07,.24,.08,.32,.1,.15,.03,.39,.08,.89,.17,0,0,.53,.09,.84,.14-.19,1.38-.38,2.76-.57,4.13,.29,1.15,.59,2.3,.88,3.44,.33,.1,.97,.21,1.72,.32,.41,.06,1.67,.24,1.74,.25,.54,.07,1.04,.13,1.42,.17,.13,.01,.24,.02,.33,.03,.17,.01,.21,0,.18,0,.59-1.02,1.79-3.08,1.79-3.08,.19-1.38,.38-2.75,.57-4.13,.47,.05,1.19,.12,1.66,.16,.08,0,.13,.02,.19,.02,.09,0,.12,0,.15,0,.1-.24,.15-.48,.18-.71,.17,0,.36-.02,.55-.05,.11-.02,.23-.03,.34-.06,.43-.1,.85-.26,1.17-.5,.05-.04,.09-.07,.13-.11,.04-.04,.08-.08,.11-.12,.04-.04,.07-.08,.1-.13,.03-.05,.06-.09,.09-.14,.42-.81,.83-1.63,1.26-2.44,.09-.18,.16-.36,.19-.56,0-.05,.01-.1,.01-.14,0-.3,0-.6,0-.9,.56-.27,1.06-.62,1.42-1.04,.39-.45,.67-1.02,.67-1.59,0-.15,0-.51,0-.54l5.49,3.12Z" style="fill:#d0d0fc;"/><path d="M164.6,158.51s-.07-.04-.11-.07c-.04-.03-.07-.06-.1-.09-.13-.13-.24-.28-.32-.45-.03-.07-.06-.15-.09-.23-.08-.25-.11-.57-.09-.93,0-.15,.03-.31,.06-.47,.02-.1,.04-.19,.07-.29,.09-.35,.22-.72,.4-1.08,.04-.08,.09-.16,.13-.25,.09-.16,.19-.33,.31-.49,.23-.32,.49-.62,.81-.9,.04-.04,.1-.08,.14-.12,.08-.06,.15-.12,.24-.18,.08-.05,.13-.09,.18-.12,.05-.03,.1-.06,.15-.09,.05-.03,.11-.05,.16-.08,.11-.05,.23-.09,.34-.12,.07-.02,.13-.03,.2-.04,.17-.02,.24-.02,.3-.01,.04,0,.09,0,.13,.01,.06,0,.12,.02,.18,.04,1.36,.74,4.61,2.59,5.08,2.85-.36-.16-.79-.15-1.29,.06-1.35,.58-2.66,2.53-2.67,4.3,0,.35,.04,.71,.22,1.02,.17,.3,.46,.54,.78,.63-.13-.04-.18-.06-.23-.08-.07-.04-3.35-1.91-4.99-2.84Z" style="fill:#393a8f;"/><path d="M172.74,157.97c0,.28-.02,.38-.04,.47-.04,.15-.05,.19-.06,.22-.06,.19-.16,.38-.27,.55-.04,.07-.09,.14-.14,.2-.17,.22-.35,.38-.53,.47-.19,.1-.42,.16-.61,.11-.18-.09-.25-.17-.31-.27-.1-.18-.11-.39-.09-.6,.06-.52,.31-1,.66-1.36,.23-.24,.62-.5,.95-.42,.11,.03,.21,.1,.29,.18,.13,.22,.15,.32,.16,.44Z" style="fill:#393a8f;"/><path d="M172.56,157.51c-.06-.07-.16-.14-.27-.16-.32-.08-.71,.18-.95,.42-.35,.36-.6,.84-.66,1.36-.02,.21-.02,.42,.09,.6,.06,.1,.13,.18,.21,.23-.17-.1-.34-.19-.51-.29-.26-.15-.32-.52-.3-.84,.03-.33,.14-.6,.29-.85,.15-.26,.32-.5,.59-.69,.26-.18,.61-.31,.87-.17,.16,.09,.51,.29,.51,.29,.05,.03,.09,.06,.13,.11Z" style="fill:#5254cf;"/><path d="M165.25,147.89c-.05,0-.11,.02-.16,.02-.61,.05-1.13,0-1.57-.23-.05-.03-.1-.05-.15-.08-.17-.11-.32-.23-.46-.37-.55-.58-.86-1.48-.86-2.61-.01-3.35,2.52-7.28,5.25-8.45,1.01-.44,1.89-.43,2.58-.09,.13,.07,.26,.15,.37,.23,.05,.04,.1,.08,.14,.12,.18,.18,.22,.23,.27,.29,.03,.04,.06,.07,.08,.11,.03,.04,.05,.08,.08,.12,.12,.2,.18,.32,.23,.45,.02,.04,.04,.09,.06,.14,.04,.1,.06,.16,.08,.23,.07,.24,.11,.47,.15,.7,.01,.08,.02,.16,.03,.23,0,.05,0,.09,.01,.14,0,.16,.01,.22,.01,.29,0,.25-.01,.46-.03,.69,0,.08-.02,.17-.03,.26-.02,.14-.03,.21-.04,.29-.03,.18-.06,.37-.11,.56-.01,.05-.02,.1-.03,.14-.03,.11-.05,.21-.08,.32-.01,.05-.08,.26-.1,.33-.04,.11-.07,.21-.11,.32-.46,1.26-1.16,2.49-2.02,3.5-.55,.64-1.15,1.18-1.81,1.62-.15,.1-.31,.2-.47,.29-.06,.03-.11,.06-.17,.09-.08,.04-.16,.08-.24,.11-.26,.11-.5,.19-.74,.25,0,0-.1,.02-.14,.03Zm4.3-6.97c0-.07,0-.14,0-.21-.02-.28-.08-.5-.17-.69-.08-.16-.17-.3-.29-.4-.17-.13-.59-.37-.79-.49-.29-.16-.65-.17-.98-.09-.44,.1-.81,.36-1.14,.66-1.47,1.31-1.89,3.23-1.6,4.16,.1,.32,.29,.63,.58,.79,.19,.11,.6,.34,.6,.34,.07,.04,.1,.05,.12,.06,.05,.02,.1,.04,.15,.05,.14,.04,.3,.04,.47,.03,.53-.11,.9-.32,1.26-.6,.04-.03,.08-.06,.11-.1,.03-.03,.07-.06,.1-.09,.05-.04,.09-.09,.14-.13,.07-.07,.13-.14,.2-.22,.05-.06,.08-.09,.11-.13,.04-.04,.07-.08,.1-.13,.13-.17,.25-.35,.37-.54,.06-.09,.11-.19,.16-.29,.07-.15,.15-.3,.2-.45,.02-.05,.04-.1,.06-.15,.05-.15,.1-.31,.14-.46,.05-.19,.06-.28,.07-.36,.01-.09,.02-.12,.02-.14,.02-.17,.02-.22,.02-.26,0-.05,0-.1,0-.15Z" style="fill:#5254cf;"/><path d="M160.42,145.92s-.07-.04-.1-.06c-.08-.05-.12-.07-.15-.09-.06-.04-.09-.06-.12-.09-.18-.14-.34-.32-.48-.53-.03-.04-.06-.09-.09-.13-.05-.09-.1-.18-.14-.27-.03-.07-.05-.1-.06-.13-.02-.05-.04-.11-.06-.16-.03-.07-.05-.15-.07-.22-.04-.15-.08-.3-.11-.45-.09-.5-.1-1.02-.06-1.52,.02-.23,.05-.45,.08-.67,.28-1.63,1.06-3.29,2.1-4.66,.05-.06,.09-.12,.14-.18,.65-.79,1.37-1.45,2.09-1.92,.15-.09,.21-.13,.28-.17,.27-.15,.55-.27,.83-.38,.05-.02,.11-.04,.16-.05,.05-.02,.11-.03,.16-.05,.09-.02,.15-.03,.21-.05,.56-.11,1.15-.08,1.66,.13,.11,.05,.15,.07,.19,.1,.05,.03,2.08,1.18,3.04,1.73-.74-.37-1.62-.37-2.63,.06-2.73,1.17-5.26,5.1-5.25,8.45,0,1.13,.32,2.03,.86,2.61-.05,0-.1,.02-.15,.03-.8-.45-1.59-.91-2.39-1.36l.04,.02Z" style="fill:#393a8f;"/><path d="M167.85,141.02c-.08-.02-.16-.02-.25,0-.11,.02-.21,.07-.31,.13-.04,.02-.08,.05-.11,.08-.25,.2-.34,.32-.42,.44-.03,.04-.05,.08-.08,.12-.21,.39-.29,.61-.3,.86-.02,.22,0,.4,.08,.54,.12,.16,.22,.23,.32,.25,.29,.07,.65-.16,.86-.38,.53-.54,.75-1.39,.52-1.79-.07-.11-.19-.21-.31-.25Zm1.69-.31c0,.07,0,.14,0,.21,0,.05,0,.1,0,.15,0,.04,0,.09,0,.14,0,.06,0,.09-.01,.13-.03,.23-.05,.31-.07,.39-.06,.27-.11,.42-.17,.57-.02,.05-.04,.1-.06,.15-.06,.15-.13,.3-.2,.45-.05,.1-.1,.19-.16,.29-.11,.19-.24,.37-.37,.54-.03,.04-.07,.08-.1,.13-.03,.04-.07,.09-.11,.13-.07,.09-.13,.15-.2,.22-.04,.04-.09,.09-.14,.13-.03,.03-.07,.06-.1,.09-.04,.03-.08,.07-.11,.1-.23,.19-.47,.34-.72,.45-.12,.05-.25,.09-.37,.12-.33,.05-.5,.04-.65,0-.05-.01-.1-.03-.15-.05-.52-.26-.79-.78-.79-1.51,0-1.6,1.2-3.49,2.52-4.05,.48-.21,.9-.21,1.22-.05,.42,.36,.5,.46,.55,.58,.09,.19,.15,.43,.17,.69Z" style="fill:#393a8f;"/><path d="M169.37,140.02c-.06-.12-.13-.22-.21-.32,.04,.02,.14,.16,.21,.32Z" style="fill:#76b7c6;"/><path d="M168.88,139.47c-.39-.19-.81-.19-1.29,.02-1.31,.56-2.52,2.45-2.52,4.05,0,.73,.27,1.25,.72,1.48-.05-.02-.46-.25-.65-.36-.28-.16-.48-.47-.58-.79-.29-.93,.13-2.85,1.6-4.16,.33-.3,.7-.55,1.14-.66,.33-.08,.69-.07,.98,.09,.2,.11,.4,.23,.6,.34Z" style="fill:#d0d0fc;"/><path d="M168.16,141.28c.23,.39,0,1.25-.52,1.79-.21,.22-.57,.45-.86,.38-.1-.02-.2-.09-.27-.17-.04-.05-.07-.11-.09-.17,.18-.04,.34-.12,.49-.25,.42-.38,.74-.94,.74-1.51,0-.1-.02-.22-.05-.31,.08-.02,.17-.02,.25,0,.13,.04,.25,.14,.31,.25Z" style="fill:#6a6a6a;"/><path d="M167.17,152.34v.16c.23-.02,.43,0,.61,.08-.14-.04-.2-.06-.26-.06-.04,0-.09,0-.13-.01-.06,0-.13,0-.19,0-.18,.02-.25,.04-.31,.05-.12,.03-.23,.07-.34,.12-.05,.02-.11,.05-.16,.08-.05,.03-.1,.06-.15,.09-.05,.03-.1,.06-.15,.1-.71-.36-1.39-.74-2.06-1.13-.07-.03-.09-.04-.11-.05-.32-.06-.47-.03-.62,.02-.12,.04-.24,.09-.35,.15-.04,.02-.07,.04-.11,.06-.17,.12-.22,.16-.26,.19-.04,.04-.09,.07-.13,.12-.12,.11-.23,.24-.32,.37-.04,.06-.07,.1-.1,.14-.06,.09-.12,.19-.17,.28-.13,.23-.25,.48-.32,.74-.01,.04-.02,.08-.03,.12-.03,.12-.04,.17-.04,.23,0,.06-.02,.12-.02,.18-.01,.17-.01,.35,.02,.52,.04,.21,.07,.29,.11,.37,.13,.2,.16,.23,.19,.26,.05,.04,.08,.06,.12,.08,.68,.38,1.36,.77,2.03,1.15-.03,.36,0,.68,.09,.93,.02,.08,.05,.16,.09,.23-.1,.09-.21,.18-.32,.27-.56,.44-1.22,.85-1.9,1.04-.07,.02-.14,.04-.21,.05-.05,.01-.1,.02-.15,.03-.04,0-.08,.01-.12,.02-.08,0-.16,.02-.24,.02-.08,0-.16,0-.24,0-.07,0-.15,0-.22-.02-.05,0-.1-.01-.15-.02-.08-.02-.17-.04-.25-.06-.26-.09-.33-.13-.39-.17-.71-.41-1.17-1.21-1.28-2.27-.3-2.78,1.64-6.66,4.41-8.22,1.12-.63,2.15-.69,2.91-.29,.09,.05,.13,.07,.17,.1,.12,.09,.18,.13,.23,.18,.03,.03,.06,.06,.09,.09,.06,.06,.11,.12,.17,.19,.03,.03,.05,.07,.08,.1,.03,.04,.05,.07,.07,.11,.12,.19,.14,.25,.17,.3,.05,.11,.1,.22,.14,.34,.02,.05,.04,.11,.05,.16,.02,.05,.03,.11,.05,.17,.01,.09,.03,.16,.05,.22,.02,.08,.03,.16,.04,.24,.02,.16,.03,.25,.03,.35,0,.1,.01,.2,.01,.3,0,.13,0,.26,0,.39,0,.1-.01,.2-.02,.3-.02,.18-.04,.36-.07,.53Z" style="fill:#d0d0fc;"/><path d="M167.6,141.03c.03,.1,.05,.21,.05,.31,0,.56-.31,1.12-.74,1.51-.14,.13-.31,.21-.49,.25-.04-.12-.06-.27-.06-.4,.03-.29,.1-.52,.2-.73,.13-.22,.15-.26,.18-.3,.07-.09,.14-.18,.22-.27,.24-.2,.27-.23,.31-.25,.1-.06,.2-.1,.31-.13Z" style="fill:#d0d0fc;"/><path d="M167.15,147.05v2.99c-.01-.09-.03-.14-.04-.2-.02-.06-.03-.11-.05-.16-.04-.12-.09-.24-.14-.34-.03-.05-.05-.11-.08-.15-.05-.08-.07-.12-.09-.15-.02-.04-.05-.07-.07-.11-.02-.03-.05-.07-.08-.1-.05-.07-.1-.13-.17-.19-.03-.03-.06-.06-.09-.09-.05-.05-.11-.09-.16-.13-.11-.08-.15-.1-.19-.12-.25-.13-.49-.28-.73-.42,.04,0,.08-.02,.12-.02,.36-.09,.69-.21,1.01-.36,.06-.03,.11-.06,.17-.09,.2-.11,.41-.23,.6-.36Z" style="fill:#9bcfde;"/><path d="M159.84,159.04c.1,.06,.17,.09,.24,.12,.27,.1,.36,.12,.44,.13,.05,0,.1,.02,.15,.02,.07,.01,.15,.02,.22,.02,.13,0,.19,0,.24,0,.08,0,.16,0,.24-.02,.04,0,.08-.01,.12-.02,.05,0,.1-.02,.15-.03,.07-.02,.14-.03,.21-.05,.05-.01,.11-.03,.16-.05,.65-.2,1.22-.57,1.74-.99,.11-.09,.22-.18,.32-.27,.08,.17,.19,.33,.32,.45,.04,.04-8.84,5.19-8.84,5.19v-28.41l11.48-6.77v6.1c-.05-.03-.09-.06-.14-.09-.04-.02-.09-.05-.13-.07-.51-.22-1.06-.29-1.73-.16-.06,.01-.11,.02-.17,.04-.09,.02-.14,.03-.2,.05-.32,.09-.65,.24-.99,.43-.07,.04-.14,.08-.2,.12-.83,.53-1.54,1.19-2.17,1.96-.05,.06-.1,.12-.14,.18-1,1.3-1.82,2.92-2.1,4.62-.13,.81-.14,1.55-.03,2.23,.01,.09,.03,.17,.05,.25,.02,.07,.03,.13,.06,.2,.02,.08,.05,.15,.07,.22,.02,.05,.04,.11,.06,.16,.1,.22,.15,.31,.2,.4,.02,.04,.05,.09,.09,.13,.13,.2,.29,.38,.48,.53,.03,.03,.07,.05,.1,.08,.05,.04,.08,.06,.12,.08,.07,.04,.09,.06,.11,.07,.8,.45,1.59,.91,2.39,1.36-2.04,.42-3.9,2.63-4.78,4.55-.67,1.45-1.2,3.57-.63,5.06,.21,.55,.56,1.07,1.06,1.35,.48,.27,.96,.55,1.44,.82Z" style="fill:#5254cf;"/><polygon points="167.03 128.37 155.55 135.14 152.61 133.52 164.16 126.74 167.03 128.37" style="fill:#e1edff;"/><path d="M166.06,152.95c-.08,.06-.16,.12-.24,.18-.05,.04-.09,.08-.14,.12-.31,.28-.58,.59-.81,.9-.11,.16-.21,.33-.31,.49-.05,.08-.09,.16-.13,.25-.18,.37-.31,.73-.4,1.08-.03,.1-.05,.2-.07,.29-.03,.16-.05,.32-.06,.47-.68-.39-1.35-.77-2.03-1.15-.15-.11-.18-.15-.21-.18-.14-.24-.17-.32-.19-.42-.05-.29-.06-.46-.05-.64,0-.06,.01-.12,.02-.18,0-.05,.02-.11,.03-.16,.02-.11,.04-.15,.05-.19,.08-.26,.19-.51,.32-.74,.05-.09,.11-.19,.17-.28,.03-.05,.07-.1,.1-.14,.11-.15,.21-.26,.32-.37,.04-.04,.08-.08,.13-.12,.04-.04,.09-.07,.14-.11,.07-.05,.1-.07,.12-.08,.04-.02,.07-.05,.11-.06,.11-.06,.23-.11,.35-.15,.15-.05,.31-.07,.45-.05,.95,.48,1.63,.86,2.31,1.24Z" style="fill:#5254cf;"/><path d="M165.93,148.28c-.76-.41-1.79-.34-2.91,.29-2.77,1.55-4.71,5.43-4.41,8.22,.11,1.06,.56,1.87,1.28,2.27-.52-.29-1-.57-1.48-.84-.5-.28-.86-.8-1.06-1.35-.57-1.49-.04-3.61,.63-5.06,.89-1.92,2.74-4.13,4.78-4.55,.2,.11,.66,.37,.68,.39,.52,.29,1.05,.36,1.65,.27,.05,0,.11-.01,.16-.02,.24,.14,.49,.28,.73,.42-.02-.01-.05-.03-.05-.03Z" style="fill:#393a8f;"/><path d="M160.04,232.97c0-.56,0-1.67,0-1.67-.04-11.83,.41-19,1.16-23.46l3.76-2.2c-1.32,3.91-2.17,11.77-2.05,28.96l-2.85-1.62Z" style="fill:#5254cf;"/><path d="M155.66,211.07l5.52-3.24c-.75,4.46-1.17,11.63-1.16,23.46,0,.03-7.14,4.17-7.14,4.17v-22.72l2.77-1.67Z" style="fill:#9f9ef2;"/><path d="M157.99,170.97c0,.34-.07,.69-.22,1.01-.08,.16-.13,.25-.18,.33-.46,.69-1.28,1.11-2.08,1.41-1.16,.43-2.29,.61-3.45,.72-8.16,.71-20.03-2.52-27.53-6.4-2.17-1.12-4.75-2.69-6.43-4.46-.7-.73-1.45-1.72-1.63-2.72-.04-.24-.05-.46-.04-.68,0-.12,.03-.23,.05-.33,.19-.6,.5-1.02,.89-1.33,.33-.27,.69-.48,1.08-.65,.09-.04,.15-.07,.21-.09,.18-.07,.22-.08,.25-.1,.1-.04,.2-.07,.3-.11,.05-.02,.1-.03,.16-.05,.56-.18,1.15-.31,1.7-.4,.05,0,.1-.02,.15-.02,.31-.05,.51-.07,.71-.09,1.84-.21,3.83-.16,5.66-.02,0,0,.03,4.1,.04,6.14,0,.77,.75,1.52,1.34,2.01,3.29,2.7,11.16,4.88,15.85,4.35,1.19-.13,2.94-.55,2.93-1.75-.01-1.79-.04-5.43-.04-5.43,.1,.04,.9,.42,.93,.43,1.82,.85,4.07,2.09,5.91,3.51,.02,.02,.23,.18,.31,.25l.37,.31c.2,.17,.4,.34,.59,.53,.05,.05,.26,.25,.31,.3,.1,.1,.2,.21,.3,.31,.05,.05,.1,.11,.14,.16,.12,.14,.17,.19,.21,.25,.07,.09,.15,.18,.22,.27,.04,.05,.07,.09,.1,.14,.04,.05,.08,.11,.12,.17,.07,.09,.13,.19,.19,.29,.02,.03,.04,.07,.06,.1,.05,.09,.11,.19,.15,.28,.11,.22,.19,.44,.26,.67,.02,.06,.03,.12,.05,.17s.02,.12,.03,.17c0,.05,.01,.1,.02,.15,0,.09,.01,.15,.01,.2Z" style="fill:#5254cf;"/><path d="M148.55,182.39c-1.58,.06-3.19,0-4.66-.17-.06,0-.12-.01-.17-.02-.07,0-.72-.07-.97-.11-1.82-.26-3.64-.53-5.46-.92-1.21-.26-2.43-.56-3.64-.89-.61-.17-2.56-.77-2.56-.77-.15-.05-.97-.32-1.04-.34-1.19-.4-2.37-.85-3.53-1.32-.36-.15-1.5-.64-1.72-.73-.35-.16-1.11-.51-1.13-.52-.56-.27-1.15-.55-1.75-.87-.17-.09-.91-.49-1.1-.6-.2-.11-.39-.22-.59-.34-1.16-.68-2.29-1.46-3.28-2.29-.08-.07-.17-.14-.25-.21-.08-.07-.16-.14-.24-.22-.08-.07-.16-.15-.23-.22-.26-.25-.51-.51-.74-.78-.05-.06-.1-.11-.14-.17-.06-.08-.13-.15-.19-.23-.05-.07-.1-.13-.15-.2-.38-.54-.6-.98-.73-1.43l-.03-.12c-.04-.16-.06-.32-.07-.48-.02-.27,0-.54,.07-.79,.76-2.64,1.49-5.22,2.24-7.79-.03,.1-.04,.21-.05,.33-.02,.21,0,.44,.04,.68,.18,1,.93,1.99,1.63,2.72,1.68,1.76,4.26,3.33,6.43,4.46,7.49,3.87,19.37,7.1,27.53,6.4,1.16-.1,2.29-.29,3.45-.72,.81-.3,1.62-.72,2.08-1.41,.05-.08,.1-.17,.14-.25,.07-.14,.1-.2,.12-.26-.72,2.52-1.43,5.13-2.21,7.72-.02,.06-.04,.12-.06,.18-.16,.4-.44,.76-.77,1.04-.06,.05-.12,.1-.18,.14-.05,.04-.11,.08-.17,.12-.3,.19-.64,.36-1,.52-.04,.02-.08,.03-.11,.05-.08,.03-.11,.04-.13,.05-.04,.01-.08,.03-.13,.05-.06,.02-.1,.03-.13,.04-.06,.02-.12,.04-.19,.06-.04,.01-.09,.03-.14,.04-.06,.02-.37,.1-.47,.13-.06,.01-.11,.02-.15,.03-.04,.01-.08,.02-.12,.03-.04,0-.23,.05-.28,.06-1.08,.21-2.19,.31-3.07,.34Z" style="fill:#393a8f;"/><path d="M155.55,135.14v28.41l-7.86-4.52c-.01-2.01-.14-20.95-.19-28.41l8.05,4.52Z" style="fill:#9f9ef2;"/><path d="M152.89,226.59v8.87l-2.21-1.3c1.21-2.44,1.79-5.02,1.78-7.57h.43Z" style="fill:#5254cf;"/><path d="M152.89,212.74v13.85h-.43c-.03-4.03-1.55-7.96-4.5-11l4.94-2.85Z" style="fill:#5254cf;"/><path d="M123.27,240.49c-.4-.32-.8-.64-1.2-.96,.07,.05,.13,.1,.2,.15,.31,.23,.45,.34,.6,.44,2.74,1.88,6.03,2.96,9.55,3.04,6.55,.16,12.62-3.25,15.96-8.44,3.86-6.02,3.59-13.54-.68-18.97l.27-.16c2.95,3.04,4.48,6.98,4.5,11,.02,2.55-.57,5.13-1.77,7.55-.29,.59-.61,1.14-.95,1.68-5.8,9.04-18.41,11.17-26.48,4.67Z" style="fill:#393a8f;"/><path d="M150.39,119.33l-2.96,1.73c0-1.08-.02-3.28-.02-3.28l.13-.08,2.85,1.63Z" style="fill:#e1edff;"/><path d="M148.55,182.39c0,.49,0,1.85,0,2,0,.57-.29,1.14-.67,1.59-.36,.42-.86,.76-1.42,1.04-1.05,.51-2.33,.78-3.37,.84,.26-1.88,.52-3.76,.78-5.64,1.5,.15,3.11,.23,4.69,.17Z" style="fill:#9f9ef2;"/><path d="M147.69,215.75c4.27,5.43,4.55,12.95,.68,18.97-3.33,5.19-9.4,8.59-15.96,8.44-3.53-.09-6.81-1.17-9.51-3.02-.18-.13-.33-.23-.47-.34-.25-.19-.42-.32-.42-.32-.06-.05-.08-.06-.1-.08-.13-.1-.21-.17-.31-.25-.18-.15-.29-.25-.4-.35-.14-.13-.21-.19-.27-.25-.04-.04-.08-.07-.12-.11-.26-.26-.35-.34-.43-.43-.1-.11-.21-.22-.31-.33-.11-.12-.21-.24-.32-.36-.15-.18-.24-.29-.34-.41-.1-.13-.21-.26-.31-.4-.2-.26-.4-.55-.58-.82,0,0-.28-.44-.34-.54-.03-.04-.05-.09-.07-.13-.06-.09-.11-.19-.16-.28-.06-.1-.11-.2-.17-.3-.07-.12-.13-.25-.19-.37-.09-.18-.17-.35-.25-.53l.98-.57c.06,.13,.11,.26,.18,.38,.08,.16,.14,.28,.2,.4,.02,.04,.19,.35,.25,.46,.07,.12,.26,.44,.28,.48,.05,.08,.1,.17,.16,.25,.02,.03,.04,.07,.06,.1,.08,.13,.17,.25,.25,.37,.06,.09,.13,.18,.19,.27,.03,.04,.06,.09,.1,.13,.09,.12,.18,.24,.28,.36,.08,.1,.16,.19,.24,.29,.16,.19,.25,.29,.34,.39,.27,.3,.49,.53,.72,.75,.1,.1,.21,.2,.31,.3,.14,.13,.29,.26,.44,.39,.11,.09,.22,.18,.33,.27,0,0,.09,.08,.12,.1,.1,.08,.2,.15,.3,.23,2.88,2.15,6.49,3.3,10.28,3.2,5.72-.16,11.05-3.15,14.11-7.9,3.65-5.68,3.35-12.79-.72-17.87l.97-.57Z" style="fill:#393a8f;"/><path d="M147.69,159.02s.05,6.92,.06,8.71c0,1.2-1.75,1.61-2.93,1.75-4.69,.53-12.56-1.65-15.85-4.35-.59-.48-1.33-1.24-1.34-2.01-.01-2.04-.06-8.69-.07-9.96,.06,.89,.38,1.65,.86,2.28,.67,.9,1.61,1.53,2.62,2.02,4.34,2.12,10.22,1.69,13.7-.35,1.61-.94,3-2.43,2.91-4.27,0,.05,0,.1,0,.15,0,0,.03,4.03,.04,6.04Z" style="fill:#393a8f;"/><path d="M147.65,152.98c.01,1.77-1.35,3.21-2.92,4.12-2.88,1.69-7.38,2.27-11.31,1.23-.65-.17-1.28-.38-1.89-.65-.17-.07-.34-.15-.5-.23-1-.49-1.94-1.12-2.62-2.02-.47-.63-.79-1.39-.85-2.16,0-.06,0-.09,0-.12,0,0-.17-26.41-.26-39.6,.05,.84,.39,1.6,.85,2.23,.58,.77,1.35,1.35,2.2,1.8,.14,.07,.28,.14,.42,.21,.6,.29,1.23,.54,1.87,.73,4.03,1.23,8.81,.68,11.82-1.09,1.42-.83,2.68-2.09,2.89-3.65,0-.05,.01-.11,.01-.16,0-.04,0-.08,0-.13,.01,1.17,.22,32.01,.27,39.47Z" style="fill:#d0d0fc;"/><path d="M133.42,158.33c-.65-.17-1.28-.38-1.89-.65l-1.18-40.09c.14,.07,.28,.14,.42,.21,.6,.29,1.23,.54,1.87,.73l.78,39.79Z" style="fill:#fff;"/><path d="M147.37,110.46c0,.96,.01,1.93,.02,2.89,0-.05,0-.1,0-.15,0,.1,0,.21,0,.31,0,.04,0,.09,0,.13,0,.06,0,.11-.01,.16-.2,1.56-1.46,2.82-2.89,3.65-3.5,2.06-9.38,2.46-13.7,.35-1-.49-1.95-1.12-2.62-2.02-.47-.63-.79-1.39-.85-2.16,0-.13-.02-1.98-.02-2.89,.05,1.06,.61,2.13,1.77,3.11,3.5,2.94,10.94,3.35,15.4,.73,1.77-1.04,2.71-2.37,2.89-3.71,.01-.09,.02-.17,.02-.26,0-.08,0-.12,0-.15Z" style="fill:#393a8f;"/><path d="M127.37,109.79s.02-.09,.03-.13c.2-.73,.64-1.42,1.28-2.05,.05-.05,.09-.09,.14-.13,.21-.19,.23-.2,.25-.22,.07-.06,.14-.11,.21-.17,.04-.03,.07-.06,.11-.09,.03-.02,.07-.05,.1-.07,.04-.03,.08-.06,.12-.09,.05-.04,.1-.07,.16-.11,.04-.03,.08-.05,.12-.08,.15-.09,.21-.13,.27-.17,.14-.08,.24-.14,.34-.19,.12-.07,.19-.1,.26-.14,0,0,.02,2.95,.03,4.4,0,.53,.23,1.07,.56,1.51,.44,.59,1.05,1,1.7,1.31,2.81,1.37,6.64,1.11,8.91-.23,1.01-.59,1.9-1.52,1.9-2.68,0-1.44-.03-4.38-.03-4.41,.07,.03,.15,.07,.22,.11,.04,.02,.08,.04,.12,.06,.11,.06,.22,.12,.34,.19,.05,.03,.2,.12,.2,.12,.04,.03,.09,.06,.13,.09,.1,.07,.21,.14,.31,.21,.05,.04,.11,.07,.16,.11,.05,.04,.1,.08,.15,.12,.05,.04,.1,.08,.15,.12,.06,.05,.12,.1,.18,.15,.08,.07,.16,.15,.24,.23,.05,.05,.1,.1,.15,.16,.39,.41,.7,.87,.91,1.36,.05,.12,.09,.24,.13,.36,.02,.08,.04,.12,.05,.17,.04,.16,.06,.27,.07,.36,0,.05,.01,.1,.02,.15,0,.04,0,.09,.01,.13,0,.13,0,.21,0,.28,0,.13-.01,.22-.02,.3-.17,1.34-1.12,2.67-2.89,3.71-4.47,2.62-11.9,2.21-15.4-.73-1.16-.98-1.74-2.05-1.77-3.11,0-.04,0-.15,0-.15,0-.13,0-.25,.02-.37,0-.06,.01-.11,.02-.17,.02-.13,.03-.18,.05-.23v-.03Z" style="fill:#5254cf;"/><g><path d="M146.72,216.32c4.07,5.08,4.37,12.19,.72,17.87-3.05,4.75-8.39,7.74-14.11,7.9-3.79,.11-7.4-1.05-10.26-3.18-.15-.11-.28-.21-.4-.31-.15-.12-.26-.21-.37-.3-.15-.13-.29-.25-.44-.39-.11-.1-.21-.2-.31-.3-.23-.23-.46-.46-.67-.69-.14-.16-.23-.26-.32-.37-.15-.18-.23-.28-.3-.37-.09-.12-.19-.24-.28-.36-.03-.04-.06-.09-.1-.13-.07-.09-.13-.18-.19-.27-.09-.12-.17-.25-.25-.37-.02-.03-.17-.26-.22-.35-.02-.04-.05-.07-.07-.11-.07-.12-.14-.24-.21-.37-.06-.11-.12-.22-.18-.33-.02-.04-.05-.09-.07-.13-.06-.12-.12-.24-.18-.37-.08-.16-.14-.29-.2-.42l28.4-16.65Z" style="fill:#effffc;"/><path d="M132.87,242.76c-3.7,0-7.3-1.17-10.18-3.32-.16-.12-.29-.22-.42-.32l-.38-.31c-.16-.13-.31-.27-.45-.4l-.33-.31c-.24-.24-.47-.48-.7-.72l-1.25-1.57c-.09-.13-.18-.26-.26-.39l-.78-1.34c-.07-.13-.13-.26-.2-.4-.08-.16-.14-.29-.2-.43l-.24-.54,29.4-17.24,.36,.45c4.23,5.28,4.53,12.77,.76,18.64-3.19,4.97-8.67,8.04-14.65,8.2-.16,0-.32,0-.48,0Z" style="fill:#f1f0ef;"/></g><path d="M146.97,250.3v4.02c-2.78,1.03-8.53,3.17-8.64,3.21-1.04,.39-2.1,.59-3.06,.61-.65,.02-1.26-.05-1.77-.2-.12-.04-.21-.07-.31-.11-.04-.02-.08-.04-.13-.06-.05-.02-.11-.05-.16-.08-.04-.02-.08-.04-.12-.07-.04-.02-.08-.05-.11-.07-.06-.04-.1-.07-.13-.1-.21-.19-.23-.22-.26-.26-.1-.13-.15-.22-.19-.31-.11-.62-.11-.65-.1-.68-.01-1.23-.02-2.55-.03-3.86,0,.06,0,.12,.01,.17,.14,.54,.4,.87,.85,1.12,.6,.34,1.45,.5,2.41,.47,.96-.03,2.03-.23,3.06-.61,2.88-1.07,5.78-2.14,8.66-3.21Z" style="fill:#5254cf;"/><path d="M146.45,187.02c0,.3,0,.6,0,.9,0,.05,0,.1-.01,.14-.03,.19-.09,.38-.19,.56-.07,.13-.16,.26-.26,.37-.7,.8-2.16,1.18-3.23,1.23,.11-.78,.22-1.57,.33-2.36,1.04-.07,2.31-.33,3.37-.84Z" style="fill:#5254cf;"/><path d="M146.25,188.62c-.42,.81-1.26,2.44-1.26,2.44-.03,.05-.06,.1-.09,.14-.03,.04-.07,.09-.1,.13-.04,.04-.07,.08-.11,.12-.04,.04-.08,.07-.13,.11-.32,.24-.74,.41-1.17,.5-.12,.03-.23,.05-.34,.06-.19,.03-.38,.04-.55,.05,.09-.65,.18-1.3,.27-1.95,1.07-.05,2.53-.43,3.23-1.23,.1-.11,.19-.24,.26-.37Z" style="fill:#393a8f;"/><path d="M130.64,86.9c.04,.47,.26,.93,.55,1.31,.44,.59,1.05,1,1.7,1.31,2.83,1.37,6.65,1.1,8.91-.23,.92-.54,1.74-1.36,1.88-2.37,.02-.17,.02-.24,.02-.31,.04,6.49,.15,22.43,.16,23.87,0,1.16-.89,2.09-1.9,2.68-2.28,1.34-6.1,1.6-8.91,.23-.65-.32-1.26-.73-1.7-1.31-.33-.44-.55-.97-.56-1.51,0-1.45-.12-17.38-.16-23.87,0,.07,0,.14,.01,.2Z" style="fill:#d0d0fc;"/><path d="M143.65,83.78c.01-.06,.02-.12,.02-.18,0-.05,0-.09,0-.14,0,1.05,.01,2.1,.02,3.15,0,.07,0,.14,0,.2-.15,1.14-.97,1.94-1.89,2.48-2.27,1.33-6.09,1.6-8.91,.23-.65-.32-1.26-.73-1.7-1.31-.28-.38-.5-.84-.55-1.31,0-.07-.01-.13-.01-.2,0-1.03-.01-2.07-.02-3.1,0,.04,0,.09,.01,.13,.07,.72,.51,1.44,1.34,2.07,2.42,1.81,7.07,1.93,9.82,.31,1.09-.64,1.72-1.47,1.87-2.32Z" style="fill:#393a8f;"/><path d="M141.31,83.44c-.04-.57-.32-1.05-.86-1.45-1.49-1.11-4.43-1.26-6.26-.2-.77,.45-1.19,1.05-1.21,1.66,0,.05,0,.1,0,.14,.02,.28,.13,.57,.33,.83,.1,.13,.13,.16,.15,.19,.27,.3,.64,.54,1.07,.74,.06,.03,.13,.06,.19,.08,.08,.03,.14,.05,.2,.07,.33,.11,.69,.21,1.06,.27,.1,.02,.2,.03,.29,.04,.15,.02,.3,.03,.45,.04,1.05,.06,2.15-.1,3.05-.54,.11-.05,.22-.11,.32-.17,.06-.04,.12-.07,.17-.11,.33-.22,.56-.44,.72-.67,.2-.29,.29-.55,.31-.82,0-.04,0-.08,0-.11Zm-10.69,.29c0-.07-.01-.14-.01-.21,0-.17,.02-.34,.06-.51,.01-.05,.02-.09,.03-.12,.06-.18,.07-.21,.08-.24,.07-.16,.09-.19,.11-.23,.05-.1,.1-.18,.12-.22,.11-.17,.14-.2,.17-.24,.03-.03,.05-.07,.08-.1,.08-.1,.16-.18,.23-.25,.04-.04,.09-.09,.14-.13,.04-.04,.08-.07,.12-.11,.08-.07,.16-.13,.24-.19,.07-.05,.09-.07,.12-.09,.05-.04,.09-.07,.14-.1,.03-.02,.13-.08,.16-.1,.15-.09,.18-.11,.21-.12,.05-.03,.1-.05,.15-.08,.08-.05,.17-.09,.26-.13,.19-.09,.35-.16,.51-.22,.11-.04,.2-.08,.3-.11,.04-.01,.08-.03,.12-.04,.19-.06,.4-.12,.45-.14,.14-.04,.2-.05,.26-.07,.15-.03,.23-.05,.31-.07,.11-.02,.19-.04,.27-.05,.05,0,.1-.02,.14-.02,.07-.01,.13-.02,.19-.03,.07,0,.13-.02,.2-.03,.13-.02,.26-.03,.39-.05,.07,0,.13-.01,.2-.02,.12,0,.24-.02,.37-.02,.26-.01,.52-.01,.77,0,.12,0,.25,0,.37,.01,.25,.01,.49,.04,.73,.07,.12,.01,.24,.03,.36,.05,.1,.02,.21,.03,.31,.05,.28,.05,.51,.11,.73,.17,.08,.02,.16,.04,.24,.07,.07,.02,.13,.04,.2,.06,.14,.04,.2,.07,.27,.09,.19,.07,.38,.14,.56,.23,.12,.06,.21,.1,.29,.14,.11,.06,.19,.11,.28,.16,.06,.03,.11,.07,.17,.1,.18,.12,.29,.19,.37,.26,.09,.07,.17,.14,.25,.21,.09,.07,.13,.12,.18,.16,.03,.03,.06,.06,.09,.09,.06,.06,.09,.1,.12,.13,.04,.04,.07,.08,.1,.13,.13,.18,.17,.24,.21,.3,.04,.07,.08,.14,.12,.22,.08,.17,.09,.21,.11,.25,.04,.12,.07,.21,.07,.24,.04,.21,.05,.24,.05,.27,0,.05,.01,.09,.01,.12,0,.04,0,.08,0,.12,0,.08,0,.14,0,.2,0,.06-.01,.12-.02,.18-.13,.86-.78,1.68-1.87,2.32-2.74,1.61-7.4,1.49-9.82-.31-.84-.62-1.28-1.34-1.34-2.07Z" style="fill:#5254cf;"/><path d="M143.86,182.22c-.26,1.88-1.48,10.64-1.48,10.64-.11-.04-.13-.05-.13-.05-.51-.22-8.98-1.46-11.29-1.62-.1,0-.21-.01-.31-.02-.07,0-.13-.01-.19-.01-.05,0-.09,0-.14,0,.02-.96,1.07-8.6,1.47-11.42,0,0,1.26,.38,1.86,.55,1.21,.34,2.42,.63,3.64,.89,1.82,.39,3.64,.67,5.42,.92,.28,.04,1.11,.13,1.15,.13Z" style="fill:#d0d0fc;"/><path d="M141.3,83.35c0,.32-.04,.44-.08,.56-.05,.15-.12,.29-.2,.42-.2,.29-.44,.51-.75,.72-1.32-.85-3.21-.96-4.76-.59-.54,.13-1.03,.34-1.48,.63-.07-.04-.13-.08-.19-.13-.15-.11-.27-.22-.38-.34-.03-.03-.05-.06-.08-.09-.04-.05-.06-.08-.08-.1-.19-.27-.33-.6-.33-.93,0-.66,.44-1.26,1.21-1.71,1.82-1.06,4.76-.91,6.26,.2,.55,.41,.82,.88,.86,1.36Z" style="fill:#9f9ef2;"/><path d="M140.27,85.04c-.05,.04-.11,.07-.17,.11-.1,.06-.21,.12-.32,.17-.87,.42-1.98,.6-3.05,.54-.15,0-.3-.02-.45-.04-.1-.01-.2-.02-.29-.04-.37-.06-.73-.16-1.06-.27-.06-.02-.11-.04-.17-.06-.09-.04-.16-.07-.22-.09-.18-.08-.34-.17-.5-.27,.45-.29,.94-.51,1.48-.63,1.55-.36,3.44-.26,4.76,.59Z" style="fill:#b1d0fe;"/><path d="M140.2,192.53c.05,0,.12,0,.12,.04,0,.04-.01,.09-.02,.13-.2,1.37-.38,2.75-.57,4.13,0-.04-.07-.04-.12-.04-.07,0-.11-.03-.16-.04-.06-.02-.14-.03-.21-.04-.09-.01-.17-.03-.25-.05-2.07-.4-6.72-.96-7.02-.95-.05,0-.09,0-.16,0-.05,0-.12-.03-.13,.01,.19-1.38,.59-4.22,.59-4.26,0-.04,.07-.02,.12-.01,.07,.01,.11,0,.16,0,.31,0,4.95,.59,7.03,.95,.08,.01,.16,.03,.25,.05,.07,.01,.15,.02,.21,.04,.05,.01,.09,.04,.16,.04Z" style="fill:#5254cf;"/><path d="M139.73,196.84l-1.79,3.08c-.29-.11-4.02-.67-5.2-.75-.1,0-.19,0-.19,0-.29-1.15-.58-2.3-.88-3.44,0-.04,.07-.02,.13-.01,.07,.01,.11,0,.16,0,.31,0,4.95,.56,7.02,.95,.08,.02,.16,.03,.25,.05,.07,.01,.15,.02,.21,.04,.05,.01,.09,.03,.16,.04,.05,0,.12,0,.12,.04Z" style="fill:#393a8f;"/><path d="M138.66,257.41c0,.53,.01,1.61,.01,1.61-.02,.18-.05,.29-.1,.4-.02,.05-.05,.11-.09,.16-.04,.05-.08,.11-.12,.16-.09,.1-.19,.18-.29,.26-.2,.12-.24,.14-.28,.16-.08,.04-.17,.07-.26,.11-.18,.07-.36,.13-.55,.16-.05,.01-.1,.02-.15,.03-.07,.01-.14,.02-.21,.03-.06,0-.12,.01-.18,.02-.12,.01-.23,.02-.35,.02-.44,0-.85-.06-1.21-.17-.09-.03-.18-.06-.27-.09-.34-.13-.61-.3-.78-.48-.13-.16-.19-.24-.24-.33-.08-.2-.1-.3-.1-.4,0-.37,0-.74,0-1.11,.53,.16,1.12,.22,1.77,.2,.96-.02,2.03-.23,3.06-.61,.11-.04,.21-.08,.32-.12Z" style="fill:#121e51;"/><path d="M130.27,179.24c.09,.03,.18,.06,.27,.09-.09-.03-.18-.06-.27-.09Z" style="fill:#97ac7c;"/><path d="M125.95,177.62c-1.77,2.21-3.55,4.42-5.32,6.62-.24,.23-.49,.3-.73,.32-.3,.03-.64-.02-.96-.11-.07-.02-.13-.04-.2-.06-1.57-.49-2.92-1.35-4.2-2.38-1.09-.88-2.08-1.82-2.84-2.96-.14-.21-.27-.42-.4-.64-.22-.45-.36-.77-.41-1.07-.04-.26-.02-.5,.07-.69,.02-.05,.05-.09,.08-.13,1.48-1.83,2.95-3.66,4.42-5.5-.14-.17-.28-.34-.41-.53,.04,.05,.08,.1,.12,.16,.08,.1,.13,.17,.19,.23,.05,.06,.09,.11,.14,.17,.23,.26,.48,.52,.74,.78,.08,.07,.15,.15,.23,.22,.08,.07,.16,.14,.24,.22,.08,.07,.16,.14,.25,.21,.99,.84,2.12,1.61,3.28,2.29,.2,.12,.39,.23,.59,.34,.2,.11,.93,.51,1.1,.6,.6,.31,1.19,.6,1.75,.87,.42,.2,.77,.36,1.13,.52,.22,.09,1.36,.59,1.72,.73,1.16,.47,2.34,.91,3.53,1.32-1.37-.46-2.74-.98-4.1-1.55Z" style="fill:#9f9ef2;"/><path d="M122.68,238.6c.12,.1,.25,.2,.38,.29-.1-.07-.2-.15-.3-.23-.03-.02-.05-.04-.08-.07Z" style="fill:#f8ffe1;"/><path d="M122.31,238.3c.11,.09,.22,.18,.33,.27-.11-.09-.22-.18-.33-.27Z" style="fill:#f8ffe1;"/><path d="M122.01,239.48c.08,.07,.17,.13,.25,.2-.07-.05-.13-.1-.2-.15-.03-.02-.05-.04-.05-.04Z" style="fill:#121e51;"/><path d="M121.57,237.61c.1,.1,.21,.2,.31,.3-.11-.1-.21-.2-.31-.3Z" style="fill:#f8ffe1;"/><path d="M120.89,236.92c.22,.24,.44,.47,.67,.69-.23-.22-.46-.46-.67-.69Z" style="fill:#f8ffe1;"/><path d="M120.57,236.55c.09,.1,.18,.21,.27,.31-.09-.1-.18-.21-.27-.31Z" style="fill:#f8ffe1;"/><path d="M108.29,243.58s-.08-.03-.12-.04c-.11-.04-.14-.05-.18-.06-.1-.04-.2-.08-.29-.13-.04-.02-.09-.04-.13-.07-.08-.04-.15-.09-.22-.14-.09-.06-.17-.13-.24-.2-.12-.13-.16-.18-.19-.24-.11-.21-.13-.25-.14-.29-.05-.19-.06-.24-.06-.28,0-.05,0-.1-.01-.15,0-1.33-.02-2.65-.03-3.97,.01,.13,.01,.16,.02,.18,.1,.46,.36,.8,.84,1.07,1.68,.95,5.16,.42,7.43-1.14,1.19-.82,2.38-1.63,3.56-2.44,.19,.3,.38,.56,.58,.82,.1,.13,.21,.26,.31,.4,.09,.12,.19,.23,.28,.34,.16,.18,.26,.3,.37,.42,.1,.11,.2,.22,.31,.33,.09,.09,.17,.18,.26,.27-1.88,1.3-6.14,4.2-6.27,4.27-.08,.05-.16,.09-.25,.14-.22,.11-.45,.22-.68,.32-1.8,.74-3.79,.99-5.16,.6Z" style="fill:#5254cf;"/><path d="M120.27,236.18c.08,.1,.15,.19,.24,.29-.08-.09-.16-.19-.24-.29Z" style="fill:#f8ffe1;"/><path d="M119.99,235.82c.09,.12,.18,.24,.28,.36-.09-.12-.19-.24-.28-.36Z" style="fill:#f8ffe1;"/><path d="M119.7,235.41c.06,.09,.13,.18,.19,.27-.07-.09-.13-.18-.19-.27Z" style="fill:#f8ffe1;"/><path d="M119.45,235.04c.08,.13,.16,.25,.25,.37-.09-.12-.17-.25-.25-.37Z" style="fill:#f8ffe1;"/><path d="M119.23,234.69c.05,.08,.1,.17,.16,.25-.05-.08-.11-.17-.16-.25Z" style="fill:#f8ffe1;"/><path d="M111.68,179.05c.77,1.14,1.75,2.09,2.84,2.96,1.28,1.03,2.64,1.89,4.2,2.38,.07,.02,.13,.04,.2,.06-.33-.08-.66-.2-.92-.3-.52,.64-1.57,1.95-1.57,1.95-.06,.06-.08,.07-.1,.09-.15,.08-.28,.11-.4,.12-.26,.02-.5-.04-.74-.11-1.04-.32-1.93-.89-2.78-1.57-.85-.68-1.6-1.43-2.14-2.38-.12-.22-.23-.44-.27-.7-.02-.17-.01-.28,.01-.37,.04-.11,.06-.15,.09-.18,.51-.65,1.04-1.29,1.56-1.94Z" style="fill:#5254cf;"/><path d="M118.95,234.21c.07,.12,.14,.24,.21,.37-.07-.12-.15-.24-.21-.37Z" style="fill:#f8ffe1;"/><path d="M118.77,233.89c.06,.11,.12,.22,.18,.33-.06-.11-.12-.22-.18-.33Z" style="fill:#f8ffe1;"/><path d="M118.52,233.39c.06,.12,.12,.24,.18,.37-.06-.12-.12-.24-.18-.37Z" style="fill:#f8ffe1;"/><path d="M118.53,235.69c-1.18,.82-2.37,1.63-3.56,2.44-2.27,1.56-5.75,2.1-7.43,1.14-.48-.27-.74-.61-.82-1-.02-.48-.02-.5-.02-.53,0-.04,.01-.08,.02-.12,0,0,.02-.09,.03-.12,.01-.04,.03-.08,.04-.12,.01-.04,.03-.08,.05-.12,.02-.04,.04-.08,.06-.12,.02-.04,.04-.08,.06-.12,.02-.04,.04-.08,.07-.12,.02-.04,.05-.08,.08-.12,.03-.04,.05-.08,.08-.12,.03-.04,.06-.08,.09-.12,.26-.29,.28-.32,.31-.34,.04-.03,.07-.07,.11-.11,1.51-1.37,2.99-2.78,4.48-4.17l3.99,2.28,1.17-.68c.08,.18,.17,.36,.25,.53,.06,.12,.13,.24,.19,.37,.05,.1,.27,.49,.33,.58,.02,.04,.05,.08,.07,.13,.06,.1,.29,.46,.34,.54Z" style="fill:#d0d0fc;"/><path d="M118.32,232.97c.06,.13,.12,.26,.18,.38-.06-.13-.12-.25-.18-.38Z" style="fill:#f8ffe1;"/><path d="M109.17,184.34c.28-1.04,.56-2.08,.85-3.12-.01,.07-.02,.15,0,.24,.05,.34,.15,.56,.28,.78,.54,.95,1.29,1.7,2.14,2.38,.85,.68,1.74,1.26,2.78,1.57,.24,.07,.48,.13,.74,.11,.12,0,.25-.04,.35-.09,0,0-1.97,1.03-2.93,1.53-.19,.1-.52,.07-.93-.07-.5-.18-1.12-.55-1.67-.99-.56-.45-1.05-.97-1.33-1.42-.07-.12-.14-.23-.18-.33-.1-.31-.11-.35-.11-.35-.01-.09,0-.17,.02-.24Z" style="fill:#393a8f;"/><polygon points="116.18 231.33 116.18 234.22 86.16 217.15 86.16 214.26 116.18 231.33" style="fill:#5254cf;"/><path d="M113.45,242.99c0,.57,0,1.13,.01,1.7,0,.27-.14,.53-.32,.73-.25,.27-.58,.43-.92,.55-1.52,.52-3.05,.06-3.59-.52-.19-.2-.33-.46-.33-.73,0-.38,0-.76,0-1.13,1.38,.38,3.36,.13,5.11-.58,.03-.01,.05-.02,.05-.02Z" style="fill:#121e51;"/><path d="M107.7,236.11s-.08,.07-.11,.11c.04-.04,.08-.07,.11-.11Z" style="fill:#dae8bd;"/><path d="M107.27,236.56s-.06,.08-.09,.12c.05-.07,.09-.12,.09-.12Z" style="fill:#81b2fc;"/><path d="M107.36,243.16c-.09-.06-.17-.13-.24-.2,.07,.07,.15,.14,.24,.2Z" style="fill:#81b2fc;"/><path d="M107.18,236.68s-.06,.08-.08,.12c.05-.07,.08-.12,.08-.12Z" style="fill:#81b2fc;"/><path d="M107.15,236.73c-.07,.11-.1,.15-.12,.19,.01-.03,.07-.11,.12-.19Z" style="fill:#81b2fc;"/><path d="M107.02,236.92s-.05,.08-.07,.12c.04-.07,.07-.12,.07-.12Z" style="fill:#81b2fc;"/><path d="M106.99,236.97c-.06,.11-.08,.15-.1,.19-.02,.04-.04,.08-.06,.12,.03-.08,.09-.2,.15-.31Z" style="fill:#81b2fc;"/><path d="M107.05,242.88s-.09-.1-.12-.16c.04,.05,.08,.11,.12,.16Z" style="fill:#81b2fc;"/><path d="M106.95,237.04s-.04,.08-.06,.12c.02-.04,.04-.08,.06-.12Z" style="fill:#81b2fc;"/><path d="M106.83,237.28s-.03,.08-.05,.12c.03-.09,.05-.12,.05-.12Z" style="fill:#dae8bd;"/><path d="M106.79,237.39s-.03,.08-.04,.12c.02-.08,.04-.12,.04-.12Z" style="fill:#dae8bd;"/><path d="M106.72,237.63s-.02,.08-.02,.12c0-.04,.01-.08,.02-.12Z" style="fill:#81b2fc;"/><polygon points="173.23 197.88 173.23 200.77 116.18 234.22 116.18 231.33 173.23 197.88" style="fill:#5254cf;"/></g><rect x="86.09" y="214.26" width=".13" height="2.89"/></g></g></g></g></g></svg>