<?xml version="1.0" encoding="UTF-8"?><svg id="a" xmlns="http://www.w3.org/2000/svg" viewBox="0 0 300 300"><g><path d="M200.82,231.49l-44.96,15.27c-.68,.23-1.42-.13-1.65-.82l-15.27-44.96c-.37-1.1,.77-2.1,1.81-1.59l60.23,29.7c1.04,.51,.94,2.03-.16,2.4Zm-39.43,4.05l16.38-5.56c1.1-.37,1.2-1.89,.16-2.4l-21.94-10.82c-1.04-.51-2.18,.49-1.81,1.59l5.56,16.38c.23,.68,.97,1.05,1.65,.82Z" style="fill:#d0d0fc;"/><g><rect x="195.38" y="228.01" width="2.54" height=".71" transform="translate(-95.14 303.75) rotate(-63.75)" style="fill:#7f9bb5;"/><rect x="191.2" y="225.95" width="2.54" height=".71" transform="translate(-95.62 298.85) rotate(-63.75)" style="fill:#7f9bb5;"/><rect x="187.29" y="224.02" width="2.54" height=".71" transform="translate(-96.07 294.27) rotate(-63.75)" style="fill:#7f9bb5;"/><rect x="183.11" y="221.96" width="2.54" height=".71" transform="translate(-96.55 289.38) rotate(-63.75)" style="fill:#7f9bb5;"/><rect x="179.2" y="220.04" width="2.54" height=".71" transform="translate(-97.01 284.8) rotate(-63.75)" style="fill:#7f9bb5;"/><rect x="175.03" y="217.98" width="2.54" height=".71" transform="translate(-97.49 279.9) rotate(-63.75)" style="fill:#7f9bb5;"/><rect x="171.12" y="216.05" width="2.54" height=".71" transform="translate(-97.94 275.33) rotate(-63.75)" style="fill:#7f9bb5;"/><rect x="166.94" y="213.99" width="2.54" height=".71" transform="translate(-98.42 270.42) rotate(-63.75)" style="fill:#7f9bb5;"/><rect x="163.03" y="212.06" width="2.54" height=".71" transform="translate(-98.87 265.86) rotate(-63.76)" style="fill:#7f9bb5;"/><rect x="158.85" y="210" width="2.54" height=".71" transform="translate(-99.36 260.94) rotate(-63.75)" style="fill:#7f9bb5;"/><rect x="154.95" y="208.07" width="2.54" height=".71" transform="translate(-99.81 256.36) rotate(-63.75)" style="fill:#7f9bb5;"/><rect x="150.77" y="206.01" width="2.54" height=".71" transform="translate(-100.29 251.47) rotate(-63.75)" style="fill:#7f9bb5;"/><rect x="146.86" y="204.09" width="2.54" height=".71" transform="translate(-100.74 246.89) rotate(-63.75)" style="fill:#7f9bb5;"/><rect x="142.68" y="202.03" width="2.54" height=".71" transform="translate(-101.23 241.99) rotate(-63.75)" style="fill:#7f9bb5;"/></g><path d="M158.62,234.6l-5.58-17.44c-.36-1.14,.8-2.16,1.88-1.66l5.02,2.32-4.77-2.62c-1.58-.87-3.39,.69-2.77,2.38l6.23,17.02Z" style="fill:#1d1d1b; isolation:isolate; opacity:.3;"/></g><g><rect x="-1.54" y="126.09" width="81.66" height="13.29" rx="1.91" ry="1.91" transform="translate(140.92 38.74) rotate(63.72)" style="fill:#d0d0fc;"/><line x1="29.02" y1="126.94" x2="32.9" y2="134.8" style="fill:#deecf9;"/><line x1="40.36" y1="119.88" x2="38.25" y2="115.61" style="fill:#deecf9;"/><g><path d="M19.39,98.41l6.18-3.05c.62-.31,1.37-.05,1.67,.57l7.99,16.18-8.52-15.12c-.33-.59-1.04-.85-1.68-.62l-5.65,2.04Z" style="fill:#9f9ef2;"/><path d="M59.2,167.07l-6.18,3.05c-.62,.31-1.37,.05-1.67-.57l-7.99-16.18,8.52,15.12c.33,.59,1.04,.85,1.68,.62l5.65-2.04Z" style="fill:#92b0cc;"/></g><g><rect x="18.04" y="103.91" width="3.28" height=".83" transform="translate(-44.15 19.5) rotate(-26.28)" style="fill:#7f9bb5;"/><rect x="20.44" y="108.77" width="3.28" height=".83" transform="translate(-46.06 21.06) rotate(-26.28)" style="fill:#7f9bb5;"/><rect x="22.69" y="113.31" width="3.28" height=".83" transform="translate(-47.84 22.52) rotate(-26.28)" style="fill:#7f9bb5;"/><rect x="25.08" y="118.17" width="3.28" height=".83" transform="translate(-49.74 24.08) rotate(-26.28)" style="fill:#7f9bb5;"/><rect x="27.33" y="122.71" width="3.28" height=".83" transform="translate(-51.52 25.55) rotate(-26.28)" style="fill:#7f9bb5;"/><rect x="29.72" y="127.57" width="3.28" height=".83" transform="translate(-53.42 27.11) rotate(-26.28)" style="fill:#7f9bb5;"/><rect x="31.97" y="132.11" width="3.28" height=".83" transform="translate(-55.2 28.58) rotate(-26.28)" style="fill:#7f9bb5;"/><rect x="34.37" y="136.97" width="3.28" height=".83" transform="translate(-57.1 30.14) rotate(-26.28)" style="fill:#7f9bb5;"/><rect x="36.61" y="141.51" width="3.28" height=".83" transform="translate(-58.88 31.6) rotate(-26.28)" style="fill:#7f9bb5;"/><rect x="39.01" y="146.37" width="3.28" height=".83" transform="translate(-60.78 33.16) rotate(-26.28)" style="fill:#7f9bb5;"/><rect x="41.25" y="150.91" width="3.28" height=".83" transform="translate(-62.57 34.63) rotate(-26.28)" style="fill:#7f9bb5;"/><rect x="43.65" y="155.77" width="3.28" height=".83" transform="translate(-64.47 36.19) rotate(-26.28)" style="fill:#7f9bb5;"/><rect x="45.89" y="160.31" width="3.28" height=".83" transform="translate(-66.25 37.66) rotate(-26.28)" style="fill:#7f9bb5;"/><rect x="48.29" y="165.17" width="3.28" height=".83" transform="translate(-68.16 39.23) rotate(-26.28)" style="fill:#7f9bb5;"/></g></g><g><g><polygon points="53.31 54.31 59.61 194.29 241.31 181.93 245.02 55.66 53.31 54.31" style="fill:#5254cf;"/><polygon points="125.76 190.06 100.34 133.44 57.32 146.79 59.61 194.29 125.76 190.06" style="fill:#1d1d1b; isolation:isolate; opacity:.3;"/><path d="M46.88,49.5l6.21,152.69,194.53-11.09,2.08-141.45-202.81-.14ZM241.31,181.93l-181.7,12.36-6.3-139.98,191.72,1.35-3.71,126.27Z" style="fill:#a37c58;"/><g><polygon points="249.03 49.65 244.09 55.66 245.02 55.66 245 56.48 249.68 50.77 249.69 49.65 249.03 49.65" style="fill:#1d1d1b; isolation:isolate; opacity:.3;"/><polygon points="241.35 180.72 241.31 181.93 240.53 181.98 246.87 191.14 247.62 191.1 247.64 189.77 241.35 180.72" style="fill:#a0653d;"/><polygon points="59.61 194.29 59.55 192.99 53.04 200.9 53.09 202.19 53.88 202.14 60.37 194.24 59.61 194.29" style="fill:#a0653d;"/><polygon points="53.31 54.31 54.42 54.32 48.19 49.5 46.88 49.5 46.9 50.07 53.34 55.06 53.31 54.31" style="fill:#1d1d1b; isolation:isolate; opacity:.3;"/></g><g><path d="M163.39,194.25l-9.39,.65-.25-6.98,8.96-1.63c1.66-.3,3.23,1.04,3.61,3.08h0c.45,2.41-.95,4.74-2.93,4.88Z" style="fill:#fff;"/><path d="M155.82,191.25c.07,1.94-.64,3.58-1.59,3.64-.95,.07-1.78-1.46-1.85-3.4-.06-1.93,.65-3.54,1.6-3.61,.95-.07,1.77,1.44,1.84,3.37Z" style="fill:#eae4df;"/></g><polygon points="97.15 199.66 96.49 194.29 176.94 191.82 97.15 199.66" style="fill:#1d1d1b; isolation:isolate; opacity:.3;"/><g><path d="M131.77,182.7l-16.88,.75c-2.1,.09-3.91,2.22-4.09,4.83l-.37,5.32c-.19,2.74,1.43,4.97,3.63,4.97h17.21c2.2,0,4.05-2.23,4.15-4.97l.21-6.09c.1-2.74-1.66-4.92-3.86-4.82Z" style="fill:#394547;"/><path d="M112.57,194.07l.35-5.16c.11-1.64,1.23-2.97,2.55-3.03,0,0,11.35-1.25,14.97-1.41h0c-3.96,.18-15.61,.7-15.61,.7-1.36,.06-2.52,1.43-2.63,3.12l-.36,5.32c-.12,1.76,.93,3.2,2.34,3.2h.26c-1.37,0-1.98-1.03-1.87-2.73Z" style="fill:#1d1d1b; isolation:isolate; opacity:.3;"/></g><path d="M98.77,196.59l1,16.94s86.89-2.66,86.71-2.61c-.18,.05,1.68-19.79,1.68-19.79l-89.39,5.46Z" style="fill:#d19c5e;"/><path d="M188.15,191.13h0c-7.77,7.22-17.09,11.83-26.99,13.3l-61.4,9.1,86.71-2.61,1.68-19.79Z" style="fill:#1d1d1b; isolation:isolate; opacity:.3;"/></g><path d="M245.02,55.66l-191.72-1.35,.12,2.59,184.6,4.13,2.21,81.08-20.75-3.97c-2.1-.77-4.1,1.02-4.46,3.99l-3.48,41.83,29.77-2.03,1.31-44.52h0l2.4-81.75Z" style="fill:#1d1d1b; isolation:isolate; opacity:.3;"/><g><g><path d="M157.13,94.03c-1.01-1.66-1.11-3.21-.98-5.09,.06-.86,.15-1.92-.57-2.47-1.42-1.09-2.71-.18-3.48,1.01-.17,.26,.22,.51,.39,.26,.5-1,1.65-1.44,2.55-.54,.31,.32,.47,.76,.46,1.21,0,.39-.05,.77-.12,1.16-.03,.33-.06,.65-.07,.97-1.52-1.62-5.18-.39-5.09,2,.1,2.78,4.58,3.69,5.89,1.37,.1,.19,.2,.37,.31,.56,.27,.46,.98,.02,.7-.44Zm-1.38-.71c-.89,.76-1.79,1.44-3.03,1.1-.71-.2-1.4-.71-1.67-1.41-.36-.94,.26-1.79,1.07-2.23,1.16-.62,2.3-.52,3.2,.35,0,.16,.02,.32,.04,.48,.08,.59,.24,1.15,.46,1.68-.03,.01-.05,.03-.08,.05Z" style="fill:#56ba9e;"/><path d="M164.72,90.03c-.74-.14-1.51-.06-2.26-.06-.73,0-1.49-.06-2.21,.07-.15,.03-.14,.2-.01,.25,1.22,.46,3.27,.49,4.51,.09,.19-.06,.17-.3-.03-.34Z" style="fill:#56ba9e;"/><path d="M164.74,92.37c-.79-.15-1.65-.02-2.46,.02-.71,.03-1.42,.01-2.11,.19-.17,.04-.17,.26,0,.3,.74,.17,1.5,.12,2.26,.09,.76-.02,1.57,.02,2.31-.21,.18-.06,.2-.35,0-.39Z" style="fill:#56ba9e;"/><path d="M214.95,79.74c-3-.28-6.12,.2-9.13,.28-3.24,.09-6.49,.08-9.73-.03-6.16-.22-12.28,.34-18.44,0-.16,0-.23,.09-.24,.21-.05,.03-.1,.06-.13,.12-2.88,4.36-5.37,9.36-7.02,14.32-1.77-3.14-3.13-6.4-4.62-9.68-.06-.14-.28-.04-.25,.11,.96,3.51,2.67,6.92,4.47,10.07,.11,.18,.31,.17,.44,.07,.06,0,.13-.02,.16-.09,1.11-2.36,2.12-4.76,3.3-7.09,1.27-2.5,2.72-4.88,4.1-7.31,.03-.06,.04-.12,.05-.18,3.02,.25,6.06,.28,9.08,.12,3.15-.16,6.21-.13,9.36-.02,3.05,.1,6.1,.14,9.14,.09,3.09-.05,6.47,.11,9.48-.63,.19-.05,.21-.35,0-.37Z" style="fill:#56ba9e;"/><path d="M181.55,93.92c-1.51,.35-4.01,1.13-5.09-.48-.52-.77-.53-1.83-.13-2.64,.33-.66,1.27-1.8,2-2.07,.65-.24,2.76-.04,3.38,.27,.14,.07,.28-.13,.16-.23-2.41-1.95-5.88-.17-6.49,2.65-.28,1.27,.19,2.47,1.28,3.19,1.54,1,3.54,.71,5.13,0,.44-.19,.23-.81-.24-.7Z" style="fill:#56ba9e;"/><path d="M186.62,88.77c-.65-.01-1.3-.02-1.94-.02-.22,0-.43,0-.65,0,.04-.04,.08-.09,.13-.13-.03-.08,.08-.51,0-.52,.24-.16,1.09-.27,1.33-.4,.42-.21,.78-.5,1.02-.92,.38-.66,.31-1.51-.31-1.99-.76-.6-1.73-.32-2.55-.04-.23,.08-.12,.48,.12,.42,.47-.13,1.52-.46,1.95-.05,.59,.51,.51,1.05,.18,1.43-.1,.14-.23,.25-.39,.32-.31,.22-.63,.33-.99,.43-.53,.14-.98,.13-1.08,.73-.08,.45-.13,1.16,.35,1.39,.29,.14,.75,.05,1.07,.06,.6,.01,1.2,.03,1.8,.03,.48,0,.44-.73-.03-.74Z" style="fill:#56ba9e;"/><path d="M206.4,88.77c-.65-.01-1.3-.02-1.94-.02-.22,0-.43,0-.65,0,.04-.04,.08-.09,.13-.13-.03-.08,.08-.51,0-.52,.24-.16,1.09-.27,1.33-.4,.42-.21,.78-.5,1.02-.92,.38-.66,.31-1.51-.31-1.99-.76-.6-1.73-.32-2.55-.04-.23,.08-.12,.48,.12,.42,.47-.13,1.52-.46,1.95-.05,.59,.51,.51,1.05,.18,1.43-.1,.14-.23,.25-.39,.32-.31,.22-.63,.33-.99,.43-.53,.14-.98,.13-1.08,.73-.08,.45-.13,1.16,.35,1.39,.29,.14,.75,.05,1.07,.06,.6,.01,1.2,.03,1.8,.03,.48,0,.44-.73-.03-.74Z" style="fill:#56ba9e;"/><path d="M194.11,90.81c-1.37-.06-2.74,.08-4.1,.1-.1,0-.14,.15-.06,.21,.54,.38,1.26,.31,1.9,.33,.76,.02,1.53,.05,2.29,0,.36-.02,.32-.62-.03-.63Z" style="fill:#56ba9e;"/><path d="M203.72,92.2c-.33-1.19-.95-2.18-2.32-2.08-1,.07-2.08,.49-2.81,1.21,.02-.39,.05-.78,.04-1.17,0-1.03-.08-2.07-.49-3.02-.06-.15-.27-.11-.28,.05-.01,1.53,.07,2.99-.04,4.52-.08,1.14-.11,2.39,.42,3.43,.13,.26,.48,.1,.5-.15,.01-.25,0-.49-.03-.74,.83,.74,2.03,1.05,3.14,.74,1.41-.39,2.26-1.36,1.86-2.8Zm-2.63,2.17c-1.73,0-2.47-1.09-2.53-1.11-.02-.32,0-1.1,0-1.42,1.19-1.09,3.75-1.93,4.42-.05,.51,1.44-.05,2.58-1.89,2.58Z" style="fill:#56ba9e;"/><path d="M204.69,117.9c-1.01-1.66-1.11-3.21-.98-5.09,.06-.86,.15-1.92-.57-2.47-1.42-1.09-2.71-.18-3.48,1.01-.17,.26,.22,.51,.39,.26,.5-1,1.65-1.44,2.55-.54,.31,.32,.47,.76,.46,1.21,0,.39-.05,.77-.12,1.16-.03,.33-.06,.65-.07,.97-1.52-1.62-5.18-.39-5.09,2,.1,2.78,4.58,3.69,5.89,1.37,.1,.19,.2,.37,.31,.56,.27,.46,.98,.02,.7-.44Zm-1.38-.71c-.89,.76-1.79,1.44-3.03,1.1-.71-.2-1.4-.71-1.67-1.41-.36-.94,.26-1.79,1.07-2.23,1.16-.62,2.3-.52,3.2,.35,0,.16,.02,.32,.04,.48,.08,.59,.24,1.15,.46,1.68-.03,.01-.05,.03-.08,.05Z" style="fill:#56ba9e;"/><path d="M164.72,113.9c-.74-.14-1.51-.06-2.26-.06-.73,0-1.49-.06-2.21,.07-.15,.03-.14,.2-.01,.25,1.22,.46,3.27,.49,4.51,.09,.19-.06,.17-.3-.03-.34Z" style="fill:#56ba9e;"/><path d="M164.74,116.24c-.79-.15-1.65-.02-2.46,.02-.71,.03-1.42,.01-2.11,.19-.17,.04-.17,.26,0,.3,.74,.17,1.5,.12,2.26,.09,.76-.02,1.57,.02,2.31-.21,.18-.06,.2-.35,0-.39Z" style="fill:#56ba9e;"/><path d="M214.95,103.61c-3-.28-6.12,.2-9.13,.28-3.24,.09-6.49,.08-9.73-.03-6.16-.22-12.28,.34-18.44,0-.16,0-.23,.09-.24,.21-.05,.03-.1,.06-.13,.12-2.88,4.36-5.37,9.36-7.02,14.32-1.77-3.14-3.13-6.4-4.62-9.68-.06-.14-.28-.04-.25,.11,.96,3.51,2.67,6.92,4.47,10.07,.11,.18,.31,.17,.44,.07,.06,0,.13-.02,.16-.09,1.11-2.36,2.12-4.76,3.3-7.09,1.27-2.5,2.72-4.88,4.1-7.31,.03-.06,.04-.12,.05-.18,3.02,.25,6.06,.28,9.08,.12,3.15-.16,6.21-.13,9.36-.02,3.05,.1,6.1,.14,9.14,.09,3.09-.05,6.47,.11,9.48-.63,.19-.05,.21-.35,0-.37Z" style="fill:#56ba9e;"/><path d="M181.55,117.79c-1.51,.35-4.01,1.13-5.09-.48-.52-.77-.53-1.83-.13-2.64,.33-.66,1.27-1.8,2-2.07,.65-.24,2.76-.04,3.38,.27,.14,.07,.28-.13,.16-.23-2.41-1.95-5.88-.17-6.49,2.65-.28,1.27,.19,2.47,1.28,3.19,1.54,1,3.54,.71,5.13,0,.44-.19,.23-.81-.24-.7Z" style="fill:#56ba9e;"/><path d="M186.62,112.64c-.65-.01-1.3-.02-1.94-.02-.22,0-.43,0-.65,0,.04-.04,.08-.09,.13-.13-.03-.08,.08-.51,0-.52,.24-.16,1.09-.27,1.33-.4,.42-.21,.78-.5,1.02-.92,.38-.66,.31-1.51-.31-1.99-.76-.6-1.73-.32-2.55-.04-.23,.08-.12,.48,.12,.42,.47-.13,1.52-.46,1.95-.05,.59,.51,.51,1.05,.18,1.43-.1,.14-.23,.25-.39,.32-.31,.22-.63,.33-.99,.43-.53,.14-.98,.13-1.08,.73-.08,.45-.13,1.16,.35,1.39,.29,.14,.75,.05,1.07,.06,.6,.01,1.2,.03,1.8,.03,.48,0,.44-.73-.03-.74Z" style="fill:#56ba9e;"/><path d="M208.2,112.64c-.65-.01-1.3-.02-1.94-.02-.22,0-.43,0-.65,0,.04-.04,.08-.09,.13-.13-.03-.08,.08-.51,0-.52,.24-.16,1.09-.27,1.33-.4,.42-.21,.78-.5,1.02-.92,.38-.66,.31-1.51-.31-1.99-.76-.6-1.73-.32-2.55-.04-.23,.08-.12,.48,.12,.42,.47-.13,1.52-.46,1.95-.05,.59,.51,.51,1.05,.18,1.43-.1,.14-.23,.25-.39,.32-.31,.22-.63,.33-.99,.43-.53,.14-.98,.13-1.08,.73-.08,.45-.13,1.16,.35,1.39,.29,.14,.75,.05,1.07,.06,.6,.01,1.2,.03,1.8,.03,.48,0,.44-.73-.03-.74Z" style="fill:#56ba9e;"/><path d="M194.11,114.68c-1.37-.06-2.74,.08-4.1,.1-.1,0-.14,.15-.06,.21,.54,.38,1.26,.31,1.9,.33,.76,.02,1.53,.05,2.29,0,.36-.02,.32-.62-.03-.63Z" style="fill:#56ba9e;"/><path d="M156.16,116.07c-.33-1.19-.95-2.18-2.32-2.08-1,.07-2.08,.49-2.81,1.21,.02-.39,.05-.78,.04-1.17,0-1.03-.08-2.07-.49-3.02-.06-.15-.27-.11-.28,.05-.01,1.53,.07,2.99-.04,4.52-.08,1.14-.11,2.39,.42,3.43,.13,.26,.48,.1,.5-.15,.01-.25,0-.49-.03-.74,.83,.74,2.03,1.05,3.14,.74,1.41-.39,2.26-1.36,1.86-2.8Zm-2.63,2.17c-1.73,0-2.47-1.09-2.53-1.11-.02-.32,0-1.1,0-1.42,1.19-1.09,3.75-1.93,4.42-.05,.51,1.44-.05,2.58-1.89,2.58Z" style="fill:#56ba9e;"/><path d="M183.32,141.77c-1.01-1.66-1.11-3.21-.98-5.09,.06-.86,.15-1.92-.57-2.47-1.42-1.09-2.71-.18-3.48,1.01-.17,.26,.22,.51,.39,.26,.5-1,1.65-1.44,2.55-.54,.31,.32,.47,.76,.46,1.21,0,.39-.05,.77-.12,1.16-.03,.33-.06,.65-.07,.97-1.52-1.62-5.18-.39-5.09,2,.1,2.78,4.58,3.69,5.89,1.37,.1,.19,.2,.37,.31,.56,.27,.46,.98,.02,.7-.44Zm-1.38-.71c-.89,.76-1.79,1.44-3.03,1.1-.71-.2-1.4-.71-1.67-1.41-.36-.94,.26-1.79,1.07-2.23,1.16-.62,2.3-.52,3.2,.35,0,.16,.02,.32,.04,.48,.08,.59,.24,1.15,.46,1.68-.03,.01-.05,.03-.08,.05Z" style="fill:#56ba9e;"/><path d="M164.72,137.77c-.74-.14-1.51-.06-2.26-.06-.73,0-1.49-.06-2.21,.07-.15,.03-.14,.2-.01,.25,1.22,.46,3.27,.49,4.51,.09,.19-.06,.17-.3-.03-.34Z" style="fill:#56ba9e;"/><path d="M164.74,140.11c-.79-.15-1.65-.02-2.46,.02-.71,.03-1.42,.01-2.11,.19-.17,.04-.17,.26,0,.3,.74,.17,1.5,.12,2.26,.09,.76-.02,1.57,.02,2.31-.21,.18-.06,.2-.35,0-.39Z" style="fill:#56ba9e;"/><path d="M214.95,127.48c-3-.28-6.12,.2-9.13,.28-3.24,.09-6.49,.08-9.73-.03-6.16-.22-12.28,.34-18.44,0-.16,0-.23,.09-.24,.21-.05,.03-.1,.06-.13,.12-2.88,4.36-5.37,9.36-7.02,14.32-1.77-3.14-3.13-6.4-4.62-9.68-.06-.14-.28-.04-.25,.11,.96,3.51,2.67,6.92,4.47,10.07,.11,.18,.31,.17,.44,.07,.06,0,.13-.02,.16-.09,1.11-2.36,2.12-4.76,3.3-7.09,1.27-2.5,2.72-4.88,4.1-7.31,.03-.06,.04-.12,.05-.18,3.02,.25,6.06,.28,9.08,.12,3.15-.16,6.21-.13,9.36-.02,3.05,.1,6.1,.14,9.14,.09,3.09-.05,6.47,.11,9.48-.63,.19-.05,.21-.35,0-.37Z" style="fill:#56ba9e;"/><path d="M156.48,141.66c-1.51,.35-4.01,1.13-5.09-.48-.52-.77-.53-1.83-.13-2.64,.33-.66,1.27-1.8,2-2.07,.65-.24,2.76-.04,3.38,.27,.14,.07,.28-.13,.16-.23-2.41-1.95-5.88-.17-6.49,2.65-.28,1.27,.19,2.47,1.28,3.19,1.54,1,3.54,.71,5.13,0,.44-.19,.23-.81-.24-.7Z" style="fill:#56ba9e;"/><path d="M186.62,136.51c-.65-.01-1.3-.02-1.94-.02-.22,0-.43,0-.65,0,.04-.04,.08-.09,.13-.13-.03-.08,.08-.51,0-.52,.24-.16,1.09-.27,1.33-.4,.42-.21,.78-.5,1.02-.92,.38-.66,.31-1.51-.31-1.99-.76-.6-1.73-.32-2.55-.04-.23,.08-.12,.48,.12,.42,.47-.13,1.52-.46,1.95-.05,.59,.51,.51,1.05,.18,1.43-.1,.14-.23,.25-.39,.32-.31,.22-.63,.33-.99,.43-.53,.14-.98,.13-1.08,.73-.08,.45-.13,1.16,.35,1.39,.29,.14,.75,.05,1.07,.06,.6,.01,1.2,.03,1.8,.03,.48,0,.44-.73-.03-.74Z" style="fill:#56ba9e;"/><path d="M206.4,136.51c-.65-.01-1.3-.02-1.94-.02-.22,0-.43,0-.65,0,.04-.04,.08-.09,.13-.13-.03-.08,.08-.51,0-.52,.24-.16,1.09-.27,1.33-.4,.42-.21,.78-.5,1.02-.92,.38-.66,.31-1.51-.31-1.99-.76-.6-1.73-.32-2.55-.04-.23,.08-.12,.48,.12,.42,.47-.13,1.52-.46,1.95-.05,.59,.51,.51,1.05,.18,1.43-.1,.14-.23,.25-.39,.32-.31,.22-.63,.33-.99,.43-.53,.14-.98,.13-1.08,.73-.08,.45-.13,1.16,.35,1.39,.29,.14,.75,.05,1.07,.06,.6,.01,1.2,.03,1.8,.03,.48,0,.44-.73-.03-.74Z" style="fill:#56ba9e;"/><path d="M194.11,138.55c-1.37-.06-2.74,.08-4.1,.1-.1,0-.14,.15-.06,.21,.54,.38,1.26,.31,1.9,.33,.76,.02,1.53,.05,2.29,0,.36-.02,.32-.62-.03-.63Z" style="fill:#56ba9e;"/><path d="M203.72,139.94c-.33-1.19-.95-2.18-2.32-2.08-1,.07-2.08,.49-2.81,1.21,.02-.39,.05-.78,.04-1.17,0-1.03-.08-2.07-.49-3.02-.06-.15-.27-.11-.28,.05-.01,1.53,.07,2.99-.04,4.52-.08,1.14-.11,2.39,.42,3.43,.13,.26,.48,.1,.5-.15,.01-.25,0-.49-.03-.74,.83,.74,2.03,1.05,3.14,.74,1.41-.39,2.26-1.36,1.86-2.8Zm-2.63,2.17c-1.73,0-2.47-1.09-2.53-1.11-.02-.32,0-1.1,0-1.42,1.19-1.09,3.75-1.93,4.42-.05,.51,1.44-.05,2.58-1.89,2.58Z" style="fill:#56ba9e;"/></g><g><path d="M101.3,89.46c-1.01-1.66-1.11-3.21-.98-5.09,.06-.86,.15-1.92-.57-2.47-1.42-1.09-2.71-.18-3.48,1.01-.17,.26,.22,.51,.39,.26,.5-1,1.65-1.44,2.55-.54,.31,.32,.47,.76,.46,1.21,0,.39-.05,.77-.12,1.16-.03,.33-.06,.65-.07,.97-1.52-1.62-5.18-.39-5.09,2,.1,2.78,4.58,3.69,5.89,1.37,.1,.19,.2,.37,.31,.56,.27,.46,.98,.02,.7-.44Zm-1.38-.71c-.89,.76-1.79,1.44-3.03,1.1-.71-.2-1.4-.71-1.67-1.41-.36-.94,.26-1.79,1.07-2.23,1.16-.62,2.3-.52,3.2,.35,0,.16,.02,.32,.04,.48,.08,.59,.24,1.15,.46,1.68-.03,.01-.05,.03-.08,.05Z" style="fill:#56ba9e;"/><path d="M129.86,82.2c-1.51,.35-4.01,1.13-5.09-.48-.52-.77-.53-1.83-.13-2.64,.33-.66,1.27-1.8,2-2.07,.65-.24,2.76-.04,3.38,.27,.14,.07,.28-.13,.16-.23-2.41-1.95-5.88-.17-6.49,2.65-.28,1.27,.19,2.47,1.28,3.19,1.54,1,3.54,.71,5.13,0,.44-.19,.23-.81-.24-.7Z" style="fill:#56ba9e;"/><path d="M131.92,106.18c-.33-1.19-.95-2.18-2.32-2.08-1,.07-2.08,.49-2.81,1.21,.02-.39,.05-.78,.04-1.17,0-1.03-.08-2.07-.49-3.02-.06-.15-.27-.11-.28,.05-.01,1.53,.07,2.99-.04,4.52-.08,1.14-.11,2.39,.42,3.43,.13,.26,.48,.1,.5-.15,.01-.25,0-.49-.03-.74,.83,.74,2.03,1.05,3.14,.74,1.41-.39,2.26-1.36,1.86-2.8Zm-2.63,2.17c-1.73,0-2.47-1.09-2.53-1.11-.02-.32,0-1.1,0-1.42,1.19-1.09,3.75-1.93,4.42-.05,.51,1.44-.05,2.58-1.89,2.58Z" style="fill:#56ba9e;"/><path d="M140.21,97.27s-.04-.04-.06-.05h0s0,0,0,0c-.02-.02-.04-.03-.07-.04-6.05-4.01-13.43-8.93-19.48-12.91-2.95-1.95-5.91-3.89-8.86-5.84-1.79-1.18-4.13-3.28-6.46-2.99,0-.07-.01-.15-.03-.22-.02-.12-.21-.16-.23-.02-.01,.09-.02,.19-.03,.28-.16,.04-.33,.08-.49,.14-.15,.06-.14,.3,.04,.29,.13,0,.27,0,.4,.02-.41,3.68-.14,7.53-.28,11.22-.07,1.79-.14,3.58-.23,5.37-.09,1.73-.4,3.57-.17,5.3,.03,.24,.38,.31,.45,.05,.02-.07,14.43,.43,17.54,.53,5.87,.19,11.85-.14,17.71-.56,.23-.02,.33-.21,.3-.39,.01-.05,0-.11-.07-.17Zm-35.39-.39c.3-1.53,.26-2.8,.31-4.28,1.55,.26,3.19,.21,4.76,.27-.21,1.35-.2,2.78-.21,4.15-1.64-.1-3.34-.17-4.85-.13Zm16.84,.76c-2.98-.13-5.83-.21-8.81-.42-.79-.06-1.66-.12-2.55-.18,.05-1.44,.18-2.92,.06-4.35,.11-.18,.06-.46-.21-.47-1.64-.08-3.36-.29-5.01-.18,.07-1.83,.13-3.66,.17-5.49,.08-3.46,.42-7.15,.03-10.61,3.31,.39,6.68,3.45,9.32,5.21,2.58,1.72,5.16,3.44,7.75,5.16,5.16,3.43,11.5,7.39,16.74,10.84-5.83,.15-11.65,.73-17.49,.47Z" style="fill:#56ba9e;"/></g><g><path d="M110.63,134.32c-1.01-1.66-1.11-3.21-.98-5.09,.06-.86,.15-1.92-.57-2.47-1.42-1.09-2.71-.18-3.48,1.01-.17,.26,.22,.51,.39,.26,.5-1,1.65-1.44,2.55-.54,.31,.32,.47,.76,.46,1.21,0,.39-.05,.77-.12,1.16-.03,.33-.06,.65-.07,.97-1.52-1.62-5.18-.39-5.09,2,.1,2.78,4.58,3.69,5.89,1.37,.1,.19,.2,.37,.31,.56,.27,.46,.98,.02,.7-.44Zm-1.38-.71c-.89,.76-1.79,1.44-3.03,1.1-.71-.2-1.4-.71-1.67-1.41-.36-.94,.26-1.79,1.07-2.23,1.16-.62,2.3-.52,3.2,.35,0,.16,.02,.32,.04,.48,.08,.59,.24,1.15,.46,1.68-.03,.01-.05,.03-.08,.05Z" style="fill:#56ba9e;"/><path d="M134.91,132.16c-1.51,.35-4.01,1.13-5.09-.48-.52-.77-.53-1.83-.13-2.64,.33-.66,1.27-1.8,2-2.07,.65-.24,2.76-.04,3.38,.27,.14,.07,.28-.13,.16-.23-2.41-1.95-5.88-.17-6.49,2.65-.28,1.27,.19,2.47,1.28,3.19,1.54,1,3.54,.71,5.13,0,.44-.19,.23-.81-.24-.7Z" style="fill:#56ba9e;"/><path d="M129.92,160.25c-.33-1.19-.95-2.18-2.32-2.08-1,.07-2.08,.49-2.81,1.21,.02-.39,.05-.78,.04-1.17,0-1.03-.08-2.07-.49-3.02-.06-.15-.27-.11-.28,.05-.01,1.53,.07,2.99-.04,4.52-.08,1.14-.11,2.39,.42,3.43,.13,.26,.48,.1,.5-.15,.01-.25,0-.49-.03-.74,.83,.74,2.03,1.05,3.14,.74,1.41-.39,2.26-1.36,1.86-2.8Zm-2.63,2.17c-1.73,0-2.47-1.09-2.53-1.11-.02-.32,0-1.1,0-1.42,1.19-1.09,3.75-1.93,4.42-.05,.51,1.44-.05,2.58-1.89,2.58Z" style="fill:#56ba9e;"/><path d="M114.46,115.4c-.18-.03-.37,.07-.39,.3-.42,5.86-.76,11.84-.56,17.71,.1,3.11,.6,17.52,.53,17.54-.26,.07-.2,.41,.05,.45,1.73,.23,3.57-.08,5.3-.17,1.79-.09,3.58-.16,5.37-.23,3.69-.13,7.54,.14,11.22-.28,0,.13,.02,.27,.02,.4,0,.18,.24,.19,.29,.04,.06-.16,.11-.33,.14-.49,.09-.01,.19-.02,.28-.03,.14-.02,.09-.21-.02-.23-.07-.01-.15-.02-.22-.03,.3-2.33-1.8-4.67-2.99-6.46-1.95-2.95-3.89-5.9-5.84-8.86-3.99-6.05-8.91-13.43-12.91-19.48-.01-.03-.03-.04-.04-.07,0,0,0,0,0,0,0,0,0,0,0,0-.02-.02-.03-.04-.05-.06-.06-.06-.12-.09-.17-.07Zm.43,30.61c1.37-.01,2.8,0,4.15-.21,.06,1.57,0,3.21,.27,4.76-1.49,.04-2.76,.01-4.28,.31,.04-1.52-.03-3.22-.13-4.85Zm-.16-29.47c3.46,5.24,7.41,11.57,10.84,16.74,1.72,2.58,3.44,5.16,5.16,7.75,1.76,2.65,4.82,6.01,5.21,9.32-3.46-.39-7.15-.05-10.61,.03-1.83,.04-3.66,.1-5.49,.18,.11-1.65-.1-3.36-.18-5.01-.01-.27-.29-.32-.47-.21-1.42-.12-2.91,0-4.35,.06-.06-.89-.12-1.76-.18-2.55-.21-2.98-.28-5.83-.42-8.81-.26-5.84,.32-11.66,.47-17.49Z" style="fill:#56ba9e;"/></g></g></g><g><path d="M281.59,161.97l-55.4-18.42c-2.29-.76-4.73,1.01-5.42,3.93l-16.59,69.36c-.46,1.9,.66,3.92,2.48,4.53l43.97,14.62c1.82,.61,3.92-.34,4.69-2.14l28.26-65.48c1.19-2.75,.3-5.63-1.99-6.39Z" style="fill:#394547;"/><path d="M227.12,187.26l2.16-7.52c.24-.83-.15-1.7-.86-1.94l-6.62-2.2c-.71-.24-1.47,.25-1.68,1.09l-1.95,7.59c-.21,.8,.19,1.63,.88,1.86l6.42,2.14c.69,.23,1.44-.22,1.66-1.01Z" style="fill:#1d1d1b; isolation:isolate; opacity:.3;"/><path d="M239.29,191.3l2.43-7.43c.27-.82-.09-1.68-.8-1.92l-6.62-2.2c-.71-.24-1.49,.25-1.74,1.07l-2.23,7.5c-.23,.79,.14,1.61,.83,1.84l6.42,2.14c.69,.23,1.46-.21,1.71-1Z" style="fill:#1d1d1b; isolation:isolate; opacity:.3;"/><path d="M251.47,195.35l2.71-7.34c.3-.81-.04-1.66-.75-1.9l-6.62-2.2c-.71-.24-1.52,.24-1.79,1.06l-2.5,7.41c-.26,.78,.08,1.59,.78,1.82l6.42,2.14c.69,.23,1.48-.21,1.77-.98Z" style="fill:#1d1d1b; isolation:isolate; opacity:.3;"/><path d="M263.64,199.4l2.98-7.25c.33-.8,.02-1.65-.69-1.88l-6.62-2.2c-.71-.24-1.54,.23-1.85,1.04l-2.78,7.32c-.29,.77,.03,1.58,.72,1.81l6.42,2.14c.69,.23,1.51-.2,1.82-.96Z" style="fill:#2c303a;"/><path d="M223.91,168.27c-1.66-.55-2.59-2.64-2.08-4.67l2.47-9.77c.55-2.17,2.42-3.49,4.15-2.91l46.91,15.6c1.74,.58,2.44,2.75,1.58,4.82l-3.87,9.3c-.81,1.94-2.8,3.05-4.46,2.5l-44.71-14.87Z" style="fill:#6a6a6a;"/><path d="M271.56,180.13l3.83-9.31c.43-1.03,.07-2.11-.8-2.4l-46.66-15.52c-.87-.29-1.8,.36-2.07,1.45l-2.51,9.75c-.26,1.02,.2,2.07,1.04,2.35l44.94,14.94c.83,.28,1.83-.28,2.23-1.26Z" style="fill:#efefef; isolation:isolate;"/><path d="M227.58,185.66l2.18-7.6c.24-.84-.14-1.72-.86-1.95l-6.66-2.21c-.72-.24-1.48,.26-1.69,1.11l-1.97,7.66c-.21,.81,.19,1.64,.88,1.88l6.45,2.15c.69,.23,1.44-.23,1.67-1.03Z" style="fill:#d0d0fc;"/><path d="M239.81,189.72l2.45-7.5c.27-.83-.09-1.7-.81-1.94l-6.66-2.21c-.72-.24-1.5,.25-1.75,1.09l-2.25,7.57c-.24,.8,.14,1.63,.83,1.86l6.45,2.15c.69,.23,1.47-.22,1.72-1.01Z" style="fill:#d0d0fc;"/><path d="M252.04,193.79l2.73-7.41c.3-.82-.03-1.68-.75-1.92l-6.66-2.21c-.72-.24-1.53,.24-1.81,1.07l-2.53,7.48c-.27,.79,.08,1.61,.78,1.84l6.45,2.15c.7,.23,1.49-.21,1.78-.99Z" style="fill:#d0d0fc;"/><path d="M222.91,201.95l1.97-6.87c.22-.76-.16-1.56-.84-1.79l-6.33-2.1c-.68-.23-1.39,.21-1.59,.98l-1.78,6.93c-.19,.73,.2,1.5,.86,1.72l6.14,2.04c.66,.22,1.36-.19,1.57-.91Z" style="fill:#1d1d1b; isolation:isolate; opacity:.3;"/><path d="M234.55,205.82l2.22-6.78c.25-.75-.11-1.54-.79-1.77l-6.33-2.1c-.68-.23-1.42,.21-1.64,.96l-2.03,6.85c-.21,.72,.15,1.48,.81,1.7l6.14,2.04c.66,.22,1.39-.18,1.62-.89Z" style="fill:#1d1d1b; isolation:isolate; opacity:.3;"/><path d="M246.18,209.69l2.47-6.7c.27-.74-.06-1.53-.74-1.75l-6.33-2.1c-.68-.23-1.44,.2-1.69,.94l-2.29,6.76c-.24,.71,.1,1.47,.76,1.69l6.14,2.04c.66,.22,1.41-.17,1.67-.88Z" style="fill:#1d1d1b; isolation:isolate; opacity:.3;"/><path d="M257.82,213.56l2.72-6.62c.3-.73,0-1.51-.69-1.74l-6.33-2.1c-.68-.23-1.46,.19-1.74,.93l-2.54,6.68c-.27,.7,.05,1.45,.71,1.67l6.14,2.04c.66,.22,1.43-.16,1.72-.86Z" style="fill:#1d1d1b; isolation:isolate; opacity:.3;"/><path d="M223.33,200.49l1.99-6.93c.22-.77-.16-1.57-.84-1.8l-6.35-2.11c-.68-.23-1.4,.22-1.6,.99l-1.8,6.99c-.19,.74,.2,1.51,.86,1.73l6.17,2.05c.66,.22,1.37-.19,1.58-.92Z" style="fill:#d0d0fc;"/><path d="M235.02,204.37l2.24-6.85c.25-.76-.11-1.56-.79-1.78l-6.35-2.11c-.68-.23-1.42,.21-1.65,.97l-2.05,6.91c-.22,.73,.15,1.49,.81,1.71l6.17,2.05c.66,.22,1.39-.18,1.63-.9Z" style="fill:#d0d0fc;"/><path d="M246.71,208.26l2.49-6.76c.28-.75-.06-1.54-.74-1.77l-6.35-2.11c-.68-.23-1.45,.2-1.7,.95l-2.31,6.82c-.24,.72,.1,1.48,.76,1.7l6.17,2.05c.66,.22,1.41-.17,1.68-.89Z" style="fill:#d0d0fc;"/><path d="M266.59,188.64l-6.66-2.21c-.72-.24-1.55,.23-1.86,1.05l-8.28,21.81c-.27,.71,.05,1.46,.72,1.68l6.17,2.05c.66,.22,1.44-.17,1.73-.87l8.88-21.61c.33-.81,.02-1.66-.69-1.9Z" style="fill:#f66;"/><path d="M219.05,215.4l1.8-6.29c.2-.69-.17-1.43-.82-1.65l-6.05-2.01c-.65-.22-1.33,.18-1.51,.88l-1.64,6.35c-.17,.67,.2,1.38,.84,1.59l5.88,1.96c.63,.21,1.3-.15,1.49-.82Z" style="fill:#1d1d1b; isolation:isolate; opacity:.3;"/><path d="M230.2,219.11l2.03-6.22c.22-.69-.12-1.42-.77-1.64l-6.05-2.01c-.65-.22-1.35,.17-1.55,.86l-1.86,6.27c-.2,.66,.16,1.37,.79,1.58l5.88,1.96c.63,.21,1.32-.15,1.53-.8Z" style="fill:#1d1d1b; isolation:isolate; opacity:.3;"/><path d="M241.34,222.81l2.26-6.14c.25-.68-.08-1.4-.73-1.62l-6.05-2.01c-.65-.22-1.37,.16-1.6,.85l-2.09,6.2c-.22,.65,.11,1.35,.75,1.56l5.88,1.96c.63,.21,1.34-.14,1.58-.79Z" style="fill:#1d1d1b; isolation:isolate; opacity:.3;"/><path d="M252.49,226.52l2.49-6.06c.28-.67-.03-1.39-.68-1.61l-6.05-2.01c-.65-.22-1.39,.16-1.65,.83l-2.32,6.12c-.25,.65,.07,1.34,.7,1.55l5.88,1.96c.63,.21,1.36-.13,1.62-.77Z" style="fill:#1d1d1b; isolation:isolate; opacity:.3;"/><path d="M219.44,214.06l1.82-6.35c.2-.7-.17-1.45-.82-1.66l-6.08-2.02c-.65-.22-1.33,.18-1.52,.89l-1.65,6.41c-.17,.68,.2,1.39,.84,1.6l5.91,1.96c.64,.21,1.31-.16,1.5-.83Z" style="fill:#d0d0fc;"/><path d="M230.63,217.78l2.05-6.27c.23-.69-.12-1.43-.77-1.65l-6.08-2.02c-.65-.22-1.35,.17-1.56,.87l-1.88,6.33c-.2,.67,.16,1.38,.79,1.59l5.91,1.96c.64,.21,1.33-.15,1.54-.81Z" style="fill:#d0d0fc;"/><path d="M241.83,221.5l2.28-6.2c.25-.68-.07-1.42-.73-1.63l-6.08-2.02c-.65-.22-1.38,.17-1.61,.86l-2.11,6.25c-.22,.66,.11,1.36,.75,1.57l5.91,1.96c.64,.21,1.35-.14,1.59-.8Z" style="fill:#d0d0fc;"/><path d="M253.02,225.23l2.52-6.12c.28-.67-.03-1.4-.68-1.62l-6.08-2.02c-.65-.22-1.4,.16-1.65,.84l-2.34,6.18c-.25,.65,.07,1.35,.71,1.56l5.91,1.96c.64,.21,1.37-.14,1.63-.78Z" style="fill:#d0d0fc;"/></g><g><path d="M33.18,159.44c-7.56,2.29-10.99,9.99-7.65,17.06l31.63,67.06c2.72,5.76,10.2,8.43,16.72,6.08l52.34-18.91c.88-.32,1.35-1.23,1.06-2.03h0c-.29-.81-1.24-1.21-2.12-.89l-1.6,.57-51.01,18.33c-4.67,1.68-10.01-.26-11.93-4.38h0c-1.94-4.17,.37-8.95,5.16-10.62l52.3-18.27,1.83-.64c.79-.28,1.22-1.11,.95-1.86l-.62-1.73-10.54-29.17-14.26-39.48-62.27,18.87Z" style="fill:#f66;"/><path d="M125.16,227.81l-52.6,18.9c-4.67,1.68-10.01-.26-11.93-4.38h0c-1.57-3.36-.36-7.12,2.69-9.33L30.35,160.65c-5.54,3.16-7.71,9.74-4.83,15.85l31.63,67.06c2.72,5.76,10.2,8.43,16.72,6.08l52.34-18.91c.88-.32,1.35-1.23,1.06-2.03h0c-.29-.81-1.24-1.21-2.12-.89Z" style="fill:#e84343;"/><path d="M60.63,242.33h0c1.92,4.12,7.26,6.05,11.93,4.38l51.01-18.33-5.48-14.94-52.3,18.27c-4.79,1.67-7.1,6.45-5.16,10.62Z" style="fill:#efefef; isolation:isolate;"/><path d="M65.69,228l49.1-17.05c1.17-.41,1.79-1.63,1.39-2.73l-23.35-63.74h0l15.71,48.77c4.13,11.44,1.69,17.46-10.87,22l-31.98,12.75Z" style="fill:#1d1d1b; isolation:isolate; opacity:.3;"/><path d="M91.59,170.67l-34.91,11.16c-1.12,.36-2.41-.21-2.87-1.27l-4.42-10.12c-.48-1.1,.06-2.28,1.21-2.63l35.68-11.08c1.1-.34,2.33,.27,2.74,1.36l3.8,10.06c.4,1.06-.15,2.19-1.23,2.54Z" style="fill:#fff;"/><polygon points="63.31 240.38 121.86 219.66 122.66 221.84 63.31 240.38" style="fill:#1d1d1b; isolation:isolate; opacity:.3;"/><polygon points="63.2 238.39 121.01 217.32 120.4 215.65 63.2 238.39" style="fill:#1d1d1b; isolation:isolate; opacity:.3;"/><polygon points="66.05 242.74 123.25 223.47 123.8 224.98 66.05 242.74" style="fill:#1d1d1b; isolation:isolate; opacity:.3;"/></g><g><path d="M123.39,228.44l-11.19,4.02,3.97,1.9,10.06-3.63c.22-.08,.41-.2,.58-.34,.08-.07,.15-.14,.21-.22l-3.62-1.74Z" style="fill:#1d1d1b; isolation:isolate; opacity:.3;"/><g><path d="M145.87,247.03l-6.21-7.68-72.73-34.91c-2-.96-4.47-.32-5.58,1.6-.06,.11-.12,.22-.18,.34-.06,.12-.11,.23-.15,.35-.8,2.07,.25,4.4,2.25,5.35l72.73,34.91,9.88,.05Z" style="fill:#ffc700;"/><path d="M142.84,247.01l-82.05-39.39c-.24,1.8,.77,3.62,2.47,4.44l72.73,34.91,6.85,.03Z" style="fill:#ffc700;"/><path d="M62.73,204.62c-.38,.23-.72,.53-1.01,.89l76.54,36.75,.54-1.11-76.07-36.52Z" style="fill:#ffe092;"/><path d="M60.84,207.33c-.09,.45-.11,.9-.06,1.34l76.07,36.52,.54-1.11-76.54-36.75Z" style="fill:#ffe092;"/><path d="M145.87,247.03l-9.88-.05s-1.17-2.4-.06-4.72c1.12-2.32,3.72-2.91,3.72-2.91l6.21,7.68Z" style="fill:#d19c5e;"/><path d="M135.99,246.98l9.88,.05-10.27-3.82c-.48,1.99,.39,3.78,.39,3.78Z" style="fill:#a37c58;"/><path d="M145.87,247.03l-4.94-.02s-.59-1.2-.03-2.36,1.86-1.46,1.86-1.46l3.11,3.84Z" style="fill:#6a6a6a;"/></g></g></svg>