<?xml version="1.0" encoding="UTF-8"?><svg id="a" xmlns="http://www.w3.org/2000/svg" viewBox="0 0 300 300"><g><g id="b"><path d="M118.12,220.63c1.17-.68,1.17-2.87,0-4.89s-3.07-3.12-4.24-2.45l6.24-1.09c1.44-.26,1.95,.8,2.1,1.08,.33,.63,.5,1.64-.1,2.32l-3.99,5.03Z" style="fill:#d0d0fc;"/><path d="M118.12,220.63c-1.17,.68-3.07-.42-4.24-2.45s-1.17-4.22,0-4.89,3.07,.42,4.24,2.45,1.17,4.22,0,4.89Z" style="fill:#5254cf;"/></g><path d="M105.88,215.76c-.36,0-.71-.2-.88-.55-.24-.48-.04-1.07,.45-1.31,3.63-1.77,6.59-6.57,6.59-10.7,0-1.84-.6-3.23-1.68-3.91-1.05-.65-2.48-.59-4.05,.17-.49,.24-1.07,.04-1.31-.45-.24-.48-.04-1.07,.45-1.31,2.19-1.07,4.3-1.1,5.94-.07,1.68,1.05,2.6,3.02,2.6,5.57,0,4.88-3.37,10.35-7.68,12.46-.14,.07-.28,.1-.43,.1Z" style="fill:#121e51;"/><g id="c"><path d="M75.5,243.4c0,7.71,10.83,13.97,24.19,13.97s24.19-6.25,24.19-13.97v1.61c0,7.71-10.83,13.97-24.19,13.97s-24.19-6.25-24.19-13.97v-1.61Z" style="fill:#5254cf;"/><ellipse cx="99.69" cy="243.4" rx="24.19" ry="13.97" style="fill:#d0d0fc;"/><g id="d"><path d="M77.83,235.98c0,6.97,9.79,12.62,21.86,12.62s21.86-5.65,21.86-12.62v7.43c0,6.97-9.79,12.62-21.86,12.62s-21.86-5.65-21.86-12.62v-7.43Z" style="fill:#5254cf;"/><g id="e"><path d="M77.83,235.98c0-6.97,9.79-12.62,21.86-12.62s21.86,5.65,21.86,12.62-9.79,12.62-21.86,12.62-21.86-5.65-21.86-12.62Z" style="fill:#d0d0fc;"/><g id="f"><path d="M113.44,223.33c1.17-.68,1.17-2.87,0-4.89-1.17-2.03-3.07-3.12-4.24-2.45l4.52-1.47c1.17-.68,2.65,.42,3.41,1.79,.68,1.22,.84,3.31-.32,3.99l-3.36,3.03Z" style="fill:#d0d0fc;"/><path d="M113.44,223.33c-1.17,.68-3.07-.42-4.24-2.45s-1.17-4.22,0-4.89,3.07,.42,4.24,2.45c1.17,2.03,1.17,4.22,0,4.89Z" style="fill:#5254cf;"/></g><g id="g"><path d="M109.13,226.05c1.17-.68,1.17-2.87,0-4.89-1.17-2.03-3.07-3.12-4.24-2.45l4.52-1.47c1.17-.68,2.65,.42,3.41,1.79,.68,1.22,.84,3.31-.32,3.99l-3.36,3.03Z" style="fill:#d0d0fc;"/><path d="M109.13,226.05c-1.17,.68-3.07-.42-4.24-2.45-1.17-2.03-1.17-4.22,0-4.89,1.17-.68,3.07,.42,4.24,2.45,1.17,2.03,1.17,4.22,0,4.89Z" style="fill:#5254cf;"/></g><g id="h"><path d="M104.31,228.83c1.17-.68,1.17-2.87,0-4.89s-3.07-3.12-4.24-2.45l4.52-1.47c1.17-.68,2.65,.42,3.41,1.79,.68,1.22,.84,3.31-.33,3.99l-3.36,3.03Z" style="fill:#121e51;"/><path d="M104.31,228.83c-1.17,.68-3.07-.42-4.24-2.45s-1.17-4.22,0-4.89,3.07,.42,4.24,2.45,1.17,4.22,0,4.89Z" style="fill:#006272;"/></g></g><g id="i"><path d="M94.08,219.24c0,1.79,2.51,3.24,5.61,3.24s5.61-1.45,5.61-3.24v13.58c0,1.79-2.51,3.24-5.61,3.24s-5.61-1.45-5.61-3.24v-13.58Z" style="fill:#5254cf;"/><g id="j"><path d="M94.08,214.85c0,1.79,2.51,3.24,5.61,3.24s5.61-1.45,5.61-3.24v4.39c0,1.79-2.51,3.24-5.61,3.24s-5.61-1.45-5.61-3.24v-4.39Z" style="fill:#3c94a3;"/><path d="M94.08,214.85c0-1.79,2.51-3.24,5.61-3.24s5.61,1.45,5.61,3.24-2.51,3.24-5.61,3.24-5.61-1.45-5.61-3.24Z" style="fill:#2b6c81;"/></g><g id="k"><path d="M96.26,211.3c0,1.1,1.54,1.98,3.44,1.98s3.44-.89,3.44-1.98v2.69c0,1.1-1.54,1.98-3.44,1.98s-3.44-.89-3.44-1.98v-2.69Z" style="fill:#3c94a3;"/><path d="M96.26,211.3c0-1.1,1.54-1.98,3.44-1.98s3.44,.89,3.44,1.98-1.54,1.98-3.44,1.98-3.44-.89-3.44-1.98Z" style="fill:#2b6c81;"/></g><g id="l"><path d="M92.61,214.27c0,2.26,3.17,4.09,7.08,4.09s7.08-1.83,7.08-4.09v5.54c0,2.26-3.17,4.09-7.08,4.09s-7.08-1.83-7.08-4.09v-5.54Z" style="fill:#9f9ef2;"/><path d="M92.61,214.27c0-2.26,3.17-4.09,7.08-4.09s7.08,1.83,7.08,4.09-3.17,4.09-7.08,4.09-7.08-1.83-7.08-4.09Z" style="fill:#d0d0fc;"/></g><g id="m"><path d="M96.26,211.3c0,1.1,1.54,1.98,3.44,1.98s3.44-.89,3.44-1.98v2.69c0,1.1-1.54,1.98-3.44,1.98s-3.44-.89-3.44-1.98v-2.69Z" style="fill:#5254cf;"/><path d="M96.26,211.3c0-1.1,1.54-1.98,3.44-1.98s3.44,.89,3.44,1.98-1.54,1.98-3.44,1.98-3.44-.89-3.44-1.98Z" style="fill:#2b6c81;"/></g><g id="n"><path d="M94.08,207.21c0,1.79,2.51,3.24,5.61,3.24s5.61-1.45,5.61-3.24v4.39c0,1.79-2.51,3.24-5.61,3.24s-5.61-1.45-5.61-3.24v-4.39Z" style="fill:#9f9ef2;"/><path d="M94.08,207.21c0-1.79,2.51-3.24,5.61-3.24s5.61,1.45,5.61,3.24-2.51,3.24-5.61,3.24-5.61-1.45-5.61-3.24Z" style="fill:#5254cf;"/></g><g id="o"><path d="M96.26,203.67c0,1.1,1.54,1.98,3.44,1.98s3.44-.89,3.44-1.98v2.69c0,1.1-1.54,1.98-3.44,1.98s-3.44-.89-3.44-1.98v-2.69Z" style="fill:#3c94a3;"/><path d="M96.26,203.67c0-1.1,1.54-1.98,3.44-1.98s3.44,.89,3.44,1.98-1.54,1.98-3.44,1.98-3.44-.89-3.44-1.98Z" style="fill:#2b6c81;"/><g id="p"><path d="M91.39,198.91c0,2.65,3.72,4.79,8.3,4.79s8.3-2.15,8.3-4.79v4.75c0,2.65-3.72,4.79-8.3,4.79s-8.3-2.15-8.3-4.79v-4.75Z" style="fill:#9f9ef2;"/><path d="M91.39,198.91c0-2.65,3.72-4.79,8.3-4.79s8.3,2.15,8.3,4.79-3.72,4.79-8.3,4.79-8.3-2.15-8.3-4.79Z" style="fill:#d0d0fc;"/></g></g></g></g></g><g id="q"><path d="M103.49,200.4c-.97,.56-2.31,.91-3.8,.91-2.97,0-5.37-1.39-5.37-3.1v-4.79c0,1.71,2.4,3.1,5.37,3.1,1.48,0,2.83-.35,3.8-.91,.97-.56,1.57-1.34,1.57-2.19v4.79c0,.86-.6,1.63-1.57,2.19Z" style="fill:#5254cf;"/><path d="M103.49,195.61c-.97,.56-2.31,.91-3.8,.91-2.97,0-5.37-1.39-5.37-3.1,0-.86,.6-1.63,1.57-2.19,.97-.56,2.31-.91,3.8-.91,2.97,0,5.37,1.39,5.37,3.1,0,.86-.6,1.63-1.57,2.19Z" style="fill:#2b6c81;"/></g><g id="r"><path d="M92.66,177.68c0,2.24,3.15,4.06,7.03,4.06s7.03-1.82,7.03-4.06v15.74c0,2.24-3.15,4.06-7.03,4.06s-7.03-1.82-7.03-4.06v-15.74Z" style="fill:#9f9ef2;"/><path d="M92.66,177.68c0-2.24,3.15-4.06,7.03-4.06s7.03,1.82,7.03,4.06-3.15,4.06-7.03,4.06-7.03-1.82-7.03-4.06Z" style="fill:#d0d0fc;"/><path d="M99.69,180.53c-2.66,0-4.83-1.28-4.83-2.86s2.17-2.86,4.83-2.86,4.83,1.28,4.83,2.86-2.17,2.86-4.83,2.86Zm0-5.39c-2.48,0-4.5,1.14-4.5,2.53s2.02,2.53,4.5,2.53,4.5-1.14,4.5-2.53-2.02-2.53-4.5-2.53Z" style="fill:#5254cf;"/></g><path d="M90.68,222.53c-.98,0-1.89-.25-2.69-.75-1.68-1.05-2.6-3.02-2.6-5.57,0-4.88,3.37-10.35,7.68-12.46,.48-.24,1.07-.04,1.31,.45,.24,.48,.04,1.07-.45,1.31-3.63,1.77-6.59,6.57-6.59,10.7,0,1.84,.6,3.23,1.68,3.91,1.05,.65,2.48,.59,4.05-.17,.48-.24,1.07-.04,1.31,.45s.04,1.07-.45,1.31c-1.12,.55-2.22,.82-3.25,.82Z" style="fill:#121e51;"/><g id="s"><path d="M95.16,233.19c1.08-.62,1.08-2.64,0-4.51s-2.83-2.88-3.91-2.25l2.58-1.49c1.08-.62,2.83,.39,3.91,2.26,1.08,1.87,1.08,3.89,0,4.51l-2.58,1.49Z" style="fill:#121e51;"/><path d="M95.16,233.19c-1.08,.62-2.83-.39-3.91-2.25-1.08-1.87-1.08-3.89,0-4.51,1.08-.62,2.83,.39,3.91,2.25s1.08,3.89,0,4.51Z" style="fill:#202a5f;"/></g><g id="t"><path d="M91.89,232.54c.47-.27,.47-1.16,0-1.97-.47-.82-1.24-1.26-1.71-.99l1.89-1.09c.47-.27,1.24,.17,1.71,.99,.47,.82,.47,1.7,0,1.97l-1.89,1.09Z" style="fill:#121e51;"/><path d="M91.89,232.54c-.47,.27-1.24-.17-1.71-.99-.47-.82-.47-1.7,0-1.97s1.24,.17,1.71,.99c.47,.82,.47,1.7,0,1.97Z" style="fill:#b8c8f4;"/></g><g id="u"><path d="M90.26,234.32c.67-.39,.67-1.65,0-2.81-.67-1.16-1.76-1.79-2.43-1.4l1.14-.66c.67-.39,1.76,.24,2.43,1.4,.67,1.16,.67,2.42,0,2.81l-1.14,.66Z" style="fill:#5254cf;"/><path d="M90.26,234.32c-.67,.39-1.76-.24-2.43-1.4-.67-1.16-.67-2.42,0-2.81,.67-.39,1.76,.24,2.43,1.4,.67,1.16,.67,2.42,0,2.81Z" style="fill:#00abac;"/></g><g id="v"><path d="M88.31,241.02c2-1.16,2-4.91,0-8.38s-5.25-5.35-7.26-4.19l2.23-1.29c2-1.16,5.25,.72,7.26,4.19s2,7.22,0,8.38l-2.23,1.29Z" style="fill:#ffc700;"/><path d="M88.31,241.02c-2,1.16-5.25-.72-7.26-4.19-2-3.47-2-7.22,0-8.38,2-1.16,5.25,.72,7.26,4.19s2,7.22,0,8.38Z" style="fill:#5254cf;"/></g><path d="M99.69,177.68s-7.81-.95-4.67-9.82c1.38-3.89,4.67-8.95,4.67-8.95,0,0,4.09,5.67,4.67,10.42,.58,4.75,0,7.1-4.67,8.35Z" style="fill:#ffc700;"/><path d="M99.62,177.53s-4.09-1.41-2.7-5.86c1.5-4.79,2.66-6.33,2.21-5.61,0,0,2.84,3.05,3,5.74,.16,2.69-.15,5.26-2.51,5.74Z" style="fill:#fff; isolation:isolate; opacity:.5;"/><path d="M99.79,177.05s-1.88-.65-1.24-2.69c.69-2.2,1.22-2.91,1.01-2.58,0,0,1.3,1.4,1.38,2.63,.07,1.23-.07,2.41-1.15,2.63Z" style="fill:#ffc700;"/></g><g><g id="w"><g id="x"><polygon id="y" points="146.89 131.62 129.85 141.46 129.85 181.45 146.89 171.61 146.89 131.62" style="fill:#9f9ef2;"/><polygon id="z" points="129.85 141.46 127.71 140.23 127.71 180.21 129.85 181.45 129.85 141.46" style="fill:#5254cf;"/></g><polygon id="aa" points="146.89 131.62 144.75 130.39 127.71 140.23 129.85 141.46 146.89 131.62" style="fill:#d0d0fc;"/></g><g id="ab"><g id="ac"><path id="ad" d="M140.23,175.04c0-.82,.54-1.65,1.63-2.28,2.18-1.26,5.71-1.26,7.89,0,1.09,.63,1.63,1.45,1.63,2.28v1.57c0-.82-.54-1.65-1.63-2.28-2.18-1.26-5.71-1.26-7.89,0-1.09,.63-1.63,1.45-1.63,2.28v-1.57Z" style="fill:#5254cf;"/><path id="ae" d="M145.75,182.1l12.27-7.08-12.12-7-12.27,7.08,12.12,7Zm-3.9-4.78c-2.18-1.26-2.18-3.3,0-4.55,2.18-1.26,5.71-1.26,7.89,0,2.18,1.26,2.18,3.3,0,4.55-2.18,1.26-5.71,1.26-7.89,0Z" style="fill:#d0d0fc;"/></g><g id="af"><path id="ag" d="M152.3,182.01c0-.82,.54-1.65,1.63-2.28,2.18-1.26,5.71-1.26,7.89,0,1.09,.63,1.63,1.45,1.63,2.28v1.57c0-.82-.54-1.65-1.63-2.28-2.18-1.26-5.71-1.26-7.89,0-1.09,.63-1.63,1.45-1.63,2.28v-1.57Z" style="fill:#5254cf;"/><path id="ah" d="M157.9,189.11l12.27-7.08-12.15-7.01-12.27,7.08,12.15,7.01Zm-3.97-4.82c-2.18-1.26-2.18-3.3,0-4.55,2.18-1.26,5.71-1.26,7.89,0,2.18,1.26,2.18,3.3,0,4.55-2.18,1.26-5.71,1.26-7.89,0Z" style="fill:#d0d0fc;"/></g><g id="ai"><path id="aj" d="M164.38,188.98c0-.82,.54-1.65,1.63-2.28,2.18-1.26,5.71-1.26,7.89,0,1.09,.63,1.63,1.45,1.63,2.28v1.57c0-.82-.54-1.65-1.63-2.28-2.18-1.26-5.71-1.26-7.89,0-1.09,.63-1.63,1.45-1.63,2.28v-1.57Z" style="fill:#5254cf;"/><path id="ak" d="M157.9,189.11l12.15,7.01,12.27-7.08-12.15-7.01-12.27,7.08Zm8.11,2.15c-2.18-1.26-2.18-3.3,0-4.55,2.18-1.26,5.71-1.26,7.89,0,2.18,1.26,2.18,3.3,0,4.55-2.18,1.26-5.71,1.26-7.89,0Z" style="fill:#d0d0fc;"/></g><g id="al"><path id="am" d="M176.45,195.95c0-.82,.54-1.65,1.63-2.28,2.18-1.26,5.71-1.26,7.89,0,1.09,.63,1.63,1.45,1.63,2.28v1.57c0-.82-.54-1.65-1.63-2.28-2.18-1.26-5.71-1.26-7.89,0-1.09,.63-1.63,1.45-1.63,2.28v-1.57Z" style="fill:#5254cf;"/><path id="an" d="M182.32,189.04l-12.27,7.08,12.15,7.01,12.27-7.08-12.15-7.01Zm3.65,4.64c2.18,1.26,2.18,3.3,0,4.55-2.18,1.26-5.71,1.26-7.89,0-2.18-1.26-2.18-3.3,0-4.55,2.18-1.26,5.71-1.26,7.89,0Z" style="fill:#d0d0fc;"/></g><g id="ao"><g id="ap"><path id="aq" d="M188.53,202.93c0-.82,.54-1.65,1.63-2.28,2.18-1.26,5.71-1.26,7.89,0,1.09,.63,1.63,1.45,1.63,2.28v1.57c0-.82-.54-1.65-1.63-2.28-2.18-1.26-5.71-1.26-7.89,0-1.09,.63-1.63,1.45-1.63,2.28v-1.57Z" style="fill:#5254cf;"/><g id="ar"><polygon id="as" points="206.96 203.26 194.69 210.35 194.69 211.92 206.96 204.83 206.96 203.26" style="fill:#c9defe;"/><polygon points="182.2 203.14 170.05 196.12 157.9 189.11 145.75 182.1 133.63 175.1 133.63 176.67 145.75 183.67 157.9 190.68 170.05 197.69 182.2 204.71 194.69 211.92 194.69 210.35 182.2 203.14" style="fill:#5254cf;"/></g></g><path id="at" d="M194.47,196.05l-12.27,7.08,12.49,7.21,12.27-7.08-12.49-7.21Zm3.58,4.6c2.18,1.26,2.18,3.3,0,4.55-2.18,1.26-5.71,1.26-7.89,0-2.18-1.26-2.18-3.3,0-4.55,2.18-1.26,5.71-1.26,7.89,0Z" style="fill:#d0d0fc;"/></g></g><g id="au"><g><path id="av" d="M138.48,155.93c0-.82,.54-1.65,1.63-2.28,2.18-1.26,5.71-1.26,7.89,0,1.09,.63,1.63,1.45,1.63,2.28v1.57c0-.82-.54-1.65-1.63-2.28-2.18-1.26-5.71-1.26-7.89,0-1.09,.63-1.63,1.45-1.63,2.28v-1.57Z" style="fill:#5254cf;"/><path d="M148,153.65c-2.18-1.26-5.71-1.26-7.89,0-1.5,.87-1.97,2.11-1.39,3.21l-6.57-.72,12.27-7.08,12.49,7.21-7.62,.76c.71-1.14,.28-2.46-1.29-3.37Z" style="fill:#d0d0fc;"/></g><g><g id="aw"><g id="ax"><path d="M148.43,173.27s0-.06,0-.09v-30.36c0,1.47-2.07,2.66-4.61,2.66s-4.61-1.19-4.61-2.66v30.36s.01,.05,.01,.07c0,.04-.01,.08-.01,.12,0,2.55,2.07,3.92,4.61,3.92s4.61-1.37,4.61-3.92c0-.03,0-.07-.01-.1Z" style="fill:#ffc700;"/><path d="M139.21,142.82v30.36c0,1.47,2.06,2.66,4.61,2.66,2.35,0,4.3-1.02,4.58-2.33-.16,.15-.35,.3-.56,.44-1.44,.96-3.56,0-4.9-4.52-1.35-4.52-1.35-21.91-1.35-21.91l4.04-.96c1.34-.32,2.22-.96,2.81-1.7v-2.04c0,1.47-2.07,2.66-4.61,2.66s-4.61-1.19-4.61-2.66Z" style="fill:#ffc700;"/></g><path d="M148.44,142.82c0-1.47-2.06-2.66-4.61-2.66s-4.61,1.19-4.61,2.66,2.06,2.66,4.61,2.66,4.61-1.19,4.61-2.66Z" style="fill:#ffc700;"/><path d="M138.44,142.82c0-1.92,2.36-3.43,5.38-3.43s5.38,1.51,5.38,3.43-2.36,3.43-5.38,3.43-5.38-1.51-5.38-3.43Zm1.54,0c0,.89,1.64,1.89,3.84,1.89s3.84-1,3.84-1.89-1.64-1.89-3.84-1.89-3.84,1-3.84,1.89Z" style="fill:#ffe092;"/></g><path d="M147.29,147.3v12.37s-.06,4.23-.7,3.72c-.64-.51-.52-4.16-.52-4.16v-11.34s.69,.06,1.22-.58Z" style="fill:#fff; isolation:isolate; opacity:.5;"/></g><g><polygon id="ay" points="156.91 156.27 144.64 163.35 144.64 164.92 156.91 157.84 156.91 156.27" style="fill:#c9defe;"/><path d="M138.72,156.86c.26,.49,.72,.96,1.39,1.34,2.18,1.26,5.71,1.26,7.89,0,.6-.35,1.03-.75,1.29-1.18l7.62-.76-12.27,7.08-12.49-7.21,6.57,.72Z" style="fill:#d0d0fc;"/></g></g><g id="az"><g><path id="ba" d="M150.99,163.16c0-.82,.54-1.65,1.63-2.28,2.18-1.26,5.71-1.26,7.89,0,1.09,.63,1.63,1.45,1.63,2.28v1.57c0-.82-.54-1.65-1.63-2.28-2.18-1.26-5.71-1.26-7.89,0-1.09,.63-1.63,1.45-1.63,2.28v-1.57Z" style="fill:#5254cf;"/><path d="M160.51,160.88c-2.18-1.26-5.71-1.26-7.89,0-1.5,.87-1.97,2.11-1.39,3.21l-6.57-.72,12.27-7.08,12.49,7.21-7.62,.76c.71-1.14,.28-2.46-1.29-3.37Z" style="fill:#d0d0fc;"/></g><g><g id="bb"><path d="M156.33,152.71c-2.55,0-4.61-1.19-4.61-2.66v30.36s.01,.05,.01,.07c0,.04-.01,.08-.01,.12,0,2.55,2.07,3.92,4.61,3.92s4.61-1.37,4.61-3.92c0-.03,0-.07-.01-.1,0-.03,.01-.06,.01-.09v-30.36c0,1.47-2.07,2.66-4.61,2.66Z" style="fill:#ffc700;"/><path d="M160.95,150.05c0-1.47-2.07-2.66-4.61-2.66s-4.61,1.19-4.61,2.66,2.06,2.66,4.61,2.66,4.61-1.19,4.61-2.66Z" style="fill:#ffc700;"/><path d="M150.95,150.05c0-1.92,2.36-3.43,5.38-3.43s5.38,1.51,5.38,3.43-2.36,3.43-5.38,3.43-5.38-1.51-5.38-3.43Zm1.54,0c0,.89,1.64,1.89,3.84,1.89s3.84-1,3.84-1.89-1.64-1.89-3.84-1.89-3.84,1-3.84,1.89Z" style="fill:#ffe092;"/></g><path d="M159.8,154.52v12.37s-.06,4.23-.7,3.72-.52-4.16-.52-4.16v-11.34s.69,.06,1.22-.58Z" style="fill:#fff; isolation:isolate; opacity:.5;"/></g><g><polygon id="bc" points="169.42 163.49 157.15 170.58 157.15 172.15 169.42 165.06 169.42 163.49" style="fill:#c9defe;"/><path d="M151.23,164.09c.26,.49,.72,.96,1.39,1.34,2.18,1.26,5.71,1.26,7.89,0,.6-.35,1.03-.75,1.29-1.18l7.62-.76-12.27,7.08-12.49-7.21,6.57,.72Z" style="fill:#d0d0fc;"/></g></g><g id="bd"><g><path id="be" d="M163.5,170.38c0-.82,.54-1.65,1.63-2.28,2.18-1.26,5.71-1.26,7.89,0,1.09,.63,1.63,1.45,1.63,2.28v1.57c0-.82-.54-1.65-1.63-2.28-2.18-1.26-5.71-1.26-7.89,0-1.09,.63-1.63,1.45-1.63,2.28v-1.57Z" style="fill:#5254cf;"/><path d="M173.02,168.1c-2.18-1.26-5.71-1.26-7.89,0-1.5,.87-1.97,2.11-1.39,3.21l-6.57-.72,12.27-7.08,12.49,7.21-7.62,.76c.71-1.14,.28-2.46-1.29-3.37Z" style="fill:#d0d0fc;"/></g><g><g id="bf"><path d="M168.85,159.94c-2.55,0-4.61-1.19-4.61-2.66v30.36s.01,.05,.01,.07c0,.04-.01,.08-.01,.12,0,2.55,2.07,3.92,4.61,3.92s4.61-1.37,4.61-3.92c0-.03,0-.07-.01-.1,0-.03,.01-.06,.01-.09v-30.36c0,1.47-2.07,2.66-4.61,2.66Z" style="fill:#ffc700;"/><path d="M173.46,157.27c0-1.47-2.07-2.66-4.61-2.66s-4.61,1.19-4.61,2.66,2.06,2.66,4.61,2.66,4.61-1.19,4.61-2.66Z" style="fill:#ffc700;"/><path d="M163.47,157.27c0-1.92,2.36-3.43,5.38-3.43s5.38,1.51,5.38,3.43-2.36,3.43-5.38,3.43-5.38-1.51-5.38-3.43Zm1.54,0c0,.89,1.64,1.89,3.84,1.89s3.84-1,3.84-1.89-1.64-1.89-3.84-1.89-3.84,1-3.84,1.89Z" style="fill:#ffe092;"/></g><path d="M172.31,161.75v12.37s-.06,4.23-.7,3.72c-.64-.51-.52-4.16-.52-4.16v-11.34s.69,.06,1.22-.58Z" style="fill:#fff; isolation:isolate; opacity:.5;"/></g><g><polygon id="bg" points="181.93 170.72 169.66 177.8 169.66 179.37 181.93 172.29 181.93 170.72" style="fill:#c9defe;"/><path d="M163.74,171.31c.26,.49,.72,.96,1.39,1.34,2.18,1.26,5.71,1.26,7.89,0,.6-.35,1.03-.75,1.29-1.18l7.62-.76-12.27,7.08-12.49-7.21,6.57,.72Z" style="fill:#d0d0fc;"/></g></g><g id="bh"><g><path id="bi" d="M176.01,177.6c0-.82,.54-1.65,1.63-2.28,2.18-1.26,5.71-1.26,7.89,0,1.09,.63,1.63,1.45,1.63,2.28v1.57c0-.82-.54-1.65-1.63-2.28-2.18-1.26-5.71-1.26-7.89,0-1.09,.63-1.63,1.45-1.63,2.28v-1.57Z" style="fill:#5254cf;"/><path d="M185.54,175.33c-2.18-1.26-5.71-1.26-7.89,0-1.5,.87-1.97,2.11-1.39,3.21l-6.57-.72,12.27-7.08,12.49,7.21-7.62,.76c.71-1.14,.28-2.46-1.29-3.37Z" style="fill:#d0d0fc;"/></g><g><g id="bj"><path d="M181.36,167.16c-2.55,0-4.61-1.19-4.61-2.66v30.36s.01,.05,.01,.07c0,.04-.01,.08-.01,.12,0,2.55,2.07,3.92,4.61,3.92s4.61-1.37,4.61-3.92c0-.03,0-.07-.01-.1,0-.03,.01-.06,.01-.09v-30.36c0,1.47-2.07,2.66-4.61,2.66Z" style="fill:#ffc700;"/><path d="M185.97,164.5c0-1.47-2.07-2.66-4.61-2.66s-4.61,1.19-4.61,2.66,2.06,2.66,4.61,2.66,4.61-1.19,4.61-2.66Z" style="fill:#ffc700;"/><path d="M175.98,164.5c0-1.92,2.36-3.43,5.38-3.43s5.38,1.51,5.38,3.43-2.36,3.43-5.38,3.43-5.38-1.51-5.38-3.43Zm1.54,0c0,.89,1.64,1.89,3.84,1.89s3.84-1,3.84-1.89-1.64-1.89-3.84-1.89-3.84,1-3.84,1.89Z" style="fill:#ffe092;"/></g><path d="M184.83,168.97v12.37s-.06,4.23-.7,3.72c-.64-.51-.52-4.16-.52-4.16v-11.34s.69,.06,1.22-.58Z" style="fill:#fff; isolation:isolate; opacity:.5;"/></g><g><polygon id="bk" points="194.45 177.94 182.18 185.02 182.18 186.59 194.45 179.51 194.45 177.94" style="fill:#c9defe;"/><path d="M176.25,178.53c.26,.49,.72,.96,1.39,1.34,2.18,1.26,5.71,1.26,7.89,0,.6-.35,1.03-.75,1.29-1.18l7.62-.76-12.27,7.08-12.49-7.21,6.57,.72Z" style="fill:#d0d0fc;"/></g></g><g id="bl"><g><path id="bm" d="M188.53,184.83c0-.82,.54-1.65,1.63-2.28,2.18-1.26,5.71-1.26,7.89,0,1.09,.63,1.63,1.45,1.63,2.28v1.57c0-.82-.54-1.65-1.63-2.28-2.18-1.26-5.71-1.26-7.89,0-1.09,.63-1.63,1.45-1.63,2.28v-1.57Z" style="fill:#5254cf;"/><path d="M198.05,182.55c-2.18-1.26-5.71-1.26-7.89,0-1.5,.87-1.97,2.11-1.39,3.21l-6.57-.72,12.27-7.08,12.49,7.21-7.62,.76c.71-1.14,.28-2.46-1.29-3.37Z" style="fill:#d0d0fc;"/></g><g><g id="bn"><g id="bo"><path d="M189.26,171.72v30.36c0,1.47,2.06,2.66,4.61,2.66,2.35,0,4.3-1.02,4.58-2.33,.02-.11,.04-.22,.04-.33v-30.36c0,1.47-2.07,2.66-4.61,2.66s-4.61-1.19-4.61-2.66Z" style="fill:#b1d0fe;"/><path d="M195.68,175.46c1.34-.32,2.22-.96,2.81-1.7v-2.04c0,1.47-2.07,2.66-4.61,2.66s-4.61-1.19-4.61-2.66v30.36s.01,.05,.01,.07c0,.04-.01,.08-.01,.12,0,2.55,2.07,3.92,4.61,3.92s4.61-1.37,4.61-3.92-2.07-4.61-4.61-4.61c-.35,0-.69,.05-1.03,.12-1.2-5.22-1.2-21.36-1.2-21.36l4.04-.96Z" style="fill:#ffc700;"/></g><path d="M198.48,171.72c0-1.47-2.07-2.66-4.61-2.66s-4.61,1.19-4.61,2.66,2.06,2.66,4.61,2.66,4.61-1.19,4.61-2.66Z" style="fill:#ffc700;"/><path d="M188.49,171.72c0-1.92,2.36-3.43,5.38-3.43s5.38,1.51,5.38,3.43-2.36,3.43-5.38,3.43-5.38-1.51-5.38-3.43Zm1.54,0c0,.89,1.64,1.89,3.84,1.89s3.84-1,3.84-1.89-1.64-1.89-3.84-1.89-3.84,1-3.84,1.89Z" style="fill:#ffe092;"/></g><path d="M197.34,176.19v12.37s-.06,4.23-.7,3.72-.52-4.16-.52-4.16v-11.34s.69,.06,1.22-.58Z" style="fill:#fff;"/></g><g><g id="bp"><polygon id="bq" points="206.96 185.16 194.69 192.25 194.69 193.82 206.96 186.73 206.96 185.16" style="fill:#c9defe;"/><g><polygon points="132.15 157.71 144.64 164.92 144.64 163.35 132.15 156.14 132.15 157.71" style="fill:#5254cf;"/><polygon points="144.66 164.94 157.15 172.15 157.15 170.58 144.66 163.37 144.66 164.94" style="fill:#5254cf;"/><polygon points="157.17 172.16 169.66 179.37 169.66 177.8 157.17 170.59 157.17 172.16" style="fill:#5254cf;"/><polygon points="169.69 179.38 182.18 186.59 182.18 185.02 169.69 177.81 169.69 179.38" style="fill:#5254cf;"/><polygon points="182.2 185.04 182.2 186.61 194.69 193.82 194.69 192.25 182.2 185.04" style="fill:#5254cf;"/></g></g><path d="M188.77,185.76c.26,.49,.72,.96,1.39,1.34,2.18,1.26,5.71,1.26,7.89,0,.6-.35,1.03-.75,1.29-1.18l7.62-.76-12.27,7.08-12.49-7.21,6.57,.72Z" style="fill:#d0d0fc;"/></g></g><g id="br"><g id="bs"><polygon id="bt" points="209.94 168.03 192.9 177.86 192.9 217.85 209.94 208.01 209.94 168.03" style="fill:#9f9ef2;"/><polygon id="bu" points="192.9 177.86 190.75 176.63 190.75 216.61 192.9 217.85 192.9 177.86" style="fill:#5254cf;"/></g><polygon id="bv" points="209.94 168.03 207.8 166.79 190.75 176.63 192.9 177.86 209.94 168.03" style="fill:#d0d0fc;"/></g></g><g><g><path d="M99.09,119.51v.15s0-.1,0-.15Z" style="fill:#1e55af;"/><g><path d="M119.26,135.39c0,11.15-9.03,20.17-20.16,20.17-6.11,0-11.58-2.71-15.27-7-3.05-3.53-4.9-8.14-4.9-13.18,0-11.14,9.03-20.16,20.17-20.16,3.01,0,5.87,.67,8.44,1.85,6.92,3.19,11.73,10.19,11.73,18.32Z" style="fill:#d0d0fc;"/><g><path d="M86.23,123.82c7.09-4.09,18.63-4.09,25.71,0,1.76,1.02,3.08,2.19,3.96,3.44-3.03-6.25-9.42-10.58-16.82-10.58s-13.79,4.33-16.82,10.58c.89-1.25,2.21-2.43,3.96-3.44Z" style="fill:#9f9ef2;"/><path d="M117.24,130.94c.14,2.79-1.62,5.6-5.29,7.72-7.09,4.09-18.62,4.09-25.71,0-3.68-2.12-5.43-4.94-5.29-7.72-.35,1.43-.56,2.91-.56,4.45,0,10.32,8.39,18.71,18.71,18.71s18.71-8.39,18.71-18.71c0-1.54-.21-3.02-.56-4.45Z" style="fill:#fc7464;"/><path d="M80.94,130.94c.31-1.29,.76-2.52,1.33-3.68l-1.33,3.68Z" style="fill:#195161;"/><path d="M86.23,138.67c7.09,4.09,18.63,4.09,25.71,0,3.68-2.12,5.43-4.94,5.29-7.72-.32-1.28-.76-2.51-1.33-3.68-.89-1.25-2.21-2.43-3.96-3.44-7.09-4.09-18.63-4.09-25.71,0-1.76,1.02-3.08,2.19-3.96,3.44-.57,1.17-1.01,2.4-1.33,3.68-.14,2.79,1.61,5.6,5.29,7.72Z" style="fill:#f66;"/></g><path d="M89.25,126.34s1.64,1.08,2.42,1.63c.94,.67,1.94,.79,1.94,.79,0,0-.53,1.91-1.02,3.5-.49,1.59-.61,2.56-.61,2.56,0,0-3.74-.84-5.08-2.07-1.78-1.63-2.23-2.87-1.92-2.74,0,0,.93-1.28,2.32-2.38,1.07-.85,1.95-1.28,1.95-1.28Z" style="fill:#fff; isolation:isolate; opacity:.5;"/></g><g><path d="M103.73,90.99c-.14,.24-.31,.47-.55,.69-.19,.18-.41,.34-.67,.5-.23,.14-.48,.26-.74,.37-.06,.03-.13,.05-.19,.07-.22,.08-.45,.15-.68,.22-.06,.01-.11,.03-.16,.04-.28,.07-.58,.12-.87,.16-.06,0-.11,0-.17,.02-.25,.03-.5,.04-.75,.04-.08,0-.15,0-.23,0-.15,0-.29-.01-.44-.02-.39-.02-.78-.06-1.16-.14-.04,0-.08-.03-.12-.04-.2-.04-.39-.1-.57-.16-.15-.05-.3-.08-.44-.14-.18-.07-.34-.16-.51-.24-.12-.06-.25-.11-.36-.17-.12-.07-.22-.15-.33-.22-.07-.05-.12-.11-.18-.16-.08-.07-.16-.14-.23-.21-.1-.1-.19-.21-.28-.32-.05-.07-.11-.14-.16-.21-.08-.12-.13-.24-.18-.37-.03-.06-.06-.13-.08-.19-.05-.17-.08-.34-.08-.51,0-.06,0,30.16,0,30.16,0,.09,0,.18,.02,.25,.08,.62,.48,1.25,1.18,1.76,.1,.08,.2,.16,.33,.22,.59,.35,1.26,.61,2,.76,.38,.08,.77,.12,1.16,.15,1.51,.09,3.07-.2,4.23-.91,.92-.55,1.42-1.26,1.51-1.98,.02-.08,.03-.17,.03-.25v-30.22c0,.35-.12,.71-.32,1.05Z" style="fill:#5254cf;"/><path d="M99.09,87.54c1.31,0,2.59,.3,3.5,.82,.79,.45,1.22,1.01,1.22,1.58s-.43,1.11-1.22,1.57c-.91,.52-2.18,.82-3.5,.82-.19,0-.38-.02-.56-.03v.77c.15,0,.31,.02,.46,.02,.08,0,.16,0,.24,0,.26,0,.52-.02,.78-.04,.06,0,.12,0,.18-.02,.31-.04,.62-.09,.92-.16,.06-.01,.11-.03,.17-.04,.24-.06,.48-.13,.71-.22,.07-.02,.14-.05,.2-.07,.27-.11,.54-.23,.78-.37,.27-.15,.5-.32,.7-.5,.25-.22,.43-.45,.57-.69,.21-.34,.33-.69,.33-1.05,0-.81-.53-1.63-1.61-2.24-1.22-.7-2.86-.99-4.44-.9v.77c.19-.01,.37-.03,.56-.03Z" style="fill:#99c1fd;"/><path d="M93.61,90.01c0,.17,.03,.34,.08,.51,.02,.06,.06,.13,.09,.19,.05,.12,.11,.25,.19,.37,.05,.07,.11,.14,.16,.21,.09,.11,.18,.21,.29,.32,.07,.07,.16,.14,.25,.21,.17,.13,.33,.26,.53,.38,.12,.07,.25,.11,.37,.17,.18,.08,.35,.17,.53,.24,.15,.05,.3,.09,.46,.14,.2,.06,.4,.12,.6,.16,.44,.09,.89,.15,1.35,.18v-.77c-1.11-.07-2.16-.34-2.93-.79-.77-.45-1.22-1.02-1.22-1.57s.44-1.13,1.22-1.58c.78-.45,1.83-.72,2.93-.79v-.77c-1.21,.07-2.39,.36-3.32,.9-1.07,.61-1.6,1.43-1.6,2.25v.06Z" style="fill:#99c1fd;"/><path d="M102.18,92.55c-.07,.03-.13,.05-.2,.07,.07-.02,.14-.05,.2-.07Z" style="fill:#99c1fd;"/><path d="M100.18,93.04c-.06,0-.12,0-.18,.02,.06,0,.12,0,.18-.02Z" style="fill:#99c1fd;"/><path d="M104.24,90.99c-.15,.24-.33,.47-.57,.69,.25-.22,.43-.45,.57-.69Z" style="fill:#99c1fd;"/><path d="M101.27,92.84c-.06,.01-.11,.03-.17,.04,.06-.01,.11-.03,.17-.04Z" style="fill:#99c1fd;"/><path d="M97.17,92.9c-.21-.04-.41-.1-.6-.16,.2,.06,.4,.12,.6,.16Z" style="fill:#99c1fd;"/><path d="M94.67,91.8c-.09-.07-.17-.14-.25-.21,.07,.07,.16,.14,.25,.21Z" style="fill:#99c1fd;"/><path d="M94.13,91.27c-.06-.07-.12-.14-.16-.21,.05,.07,.11,.14,.16,.21Z" style="fill:#99c1fd;"/><path d="M93.78,90.7c-.03-.06-.07-.13-.09-.19,.02,.06,.06,.13,.09,.19Z" style="fill:#99c1fd;"/><path d="M99.22,93.1c-.08,0-.16,0-.24,0,.08,0,.16,0,.24,0Z" style="fill:#99c1fd;"/><path d="M96.11,92.6c-.19-.07-.36-.16-.53-.24,.18,.08,.35,.17,.53,.24Z" style="fill:#99c1fd;"/><path d="M95.59,88.37c-.78,.45-1.22,1.02-1.22,1.58s.45,1.12,1.22,1.57c.78,.45,1.82,.72,2.93,.79v-4.73c-1.11,.07-2.16,.34-2.93,.79Z" style="fill:#8aacea;"/><path d="M102.58,91.51c.79-.46,1.22-1.01,1.22-1.57s-.43-1.13-1.22-1.58c-.91-.52-2.18-.82-3.5-.82-.19,0-.38,.02-.56,.03v4.73c.19,.01,.37,.03,.56,.03,1.31,0,2.59-.3,3.5-.82Z" style="fill:#8aacea;"/></g><path d="M106.41,88.65c0,1.08-.48,2.59-1.91,3.42-2.86,1.65-7.51,1.65-10.37,0-1.43-.83-2.37-2.35-2.37-3.42s.72-2.17,2.14-2.99c2.86-1.65,7.51-1.65,10.37,0,1.44,.82,2.14,1.91,2.14,2.99Z" style="fill:#d0d0fc;"/><path d="M104.27,88.56c-.22,.39-.61,.76-1.18,1.08-1.02,.58-2.45,.92-3.93,.92s-2.91-.34-3.94-.93c-.55-.32-.95-.69-1.16-1.08,.22-.39,.62-.76,1.16-1.08,1.02-.59,2.45-.93,3.94-.93s2.91,.34,3.93,.93c.56,.32,.96,.69,1.18,1.08Z" style="fill:#5254cf;"/></g><g><g id="bw"><path id="bx" d="M35.98,267.58c0,7,14.15,10.45,22.32,5.55,2.55-1.53,3.83-3.54,3.83-5.54v3.27c0,6.98-14.14,10.45-22.32,5.54-2.55-1.53-3.83-3.54-3.83-5.55v-3.27Z" style="fill:#9f9ef2;"/><path id="by" d="M35.98,267.58c0-7,14.15-10.45,22.32-5.55,5.1,3.06,5.11,8.03,0,11.09-8.17,4.9-22.32,1.43-22.32-5.55Z" style="fill:#d0d0fc;"/></g><g><path d="M46.45,74.46c-3.52-3.1-3.52-12.47,0-11.35,3.52,3.1,3.52,12.47,0,11.35Z" style="fill:#195161;"/><g><g><path d="M88.81,102.02v11.19c.28,1.32,1.23,2.59,2.91,3.6,5.81,3.49,16.06,1.42,16.92-3.6,.06,0,.06-11.19,.06-11.19h-4.7c-.04,.35-.18,.69-.41,.98-2.54,3.14-9.73,1.98-10.09-.98h-4.7Z" style="fill:#9f9ef2;"/><path d="M88.81,102.02c.11,2.36,2.52,4.01,4.67,4.82,4.54,1.69,11.12,1,14.09-2.28,1.43-1.52,1.47-4,0-5.59-.76-.84-1.89-1.64-3.54-2.26,0,4.28,.03,5.07-.03,5.31-.36,2.95-7.56,4.12-10.09,.98-.65-.85-.44-1.47-.44-6.31-1.56,.59-2.89,1.46-3.82,2.6-.62,.78-.9,1.75-.85,2.72Z" style="fill:#d0d0fc;"/></g><g><path d="M55.23,139.26l36.5-22.96c2.24-1.96,3.12-8.03,1.59-10.31-.44-.66-1.01-.84-1.59-.62,0-.03-36.5,22.93-36.5,22.93v10.96Z" style="fill:#5254cf;"/><path d="M55.12,139.52c3.52-3.1,3.52-12.47,0-11.35-3.52,3.1-3.52,12.47,0,11.35Z" style="fill:#195161;"/></g></g><g><g><g><path d="M43.75,58.9h10.55c-.01,.41-.16,.82-.43,1.16-2.59,3.21-10.01,1.91-10.11-1.16Z" style="fill:#195161;"/><path d="M54.29,65.62v201.48c-.15,.69-.66,1.37-1.55,1.9-3.1,1.86-8.48,.76-8.97-1.9-.03,0-.03-201.48-.03-201.48,0,3.34,7.58,4.44,10.11,1.29,.28-.36,.43-.78,.43-1.29Z" style="fill:#5254cf;"/><path d="M54.29,58.9c-.08,2.19-3.78,3.39-6.64,2.91-.86-.13-1.68-.4-2.36-.81-.8-.48-1.51-1.16-1.54-2.1v6.72c0,1.02,.66,1.7,1.54,2.24,.69,.43,1.61,.71,2.36,.82,2.31,.37,4.97-.22,6.21-1.76,.23-.29,.37-.63,.41-.98,.06-.23,.02-1.85,.02-7.03Z" style="fill:#5254cf;"/><path d="M47.65,56.53v5.28c-.86-.13-1.68-.4-2.36-.81v-4.47h2.36Z" style="fill:#99c1fd;"/></g><path d="M54.29,58.9c-.19,3.24-7.62,4.24-10.11,1.16-.61-.76-.56-1.9,0-2.59,2.56-3.17,10.31-2.01,10.11,1.43Z" style="fill:#d0d0fc;"/></g><g><path d="M58.97,65.93v11.19c-.28,1.32-1.23,2.59-2.91,3.6-5.75,3.45-16.05,1.47-16.92-3.6-.06,0-.06-11.19-.06-11.19h4.7c.04,.35,.18,.69,.41,.98,2.54,3.14,9.73,1.98,10.09-.98h4.7Z" style="fill:#9f9ef2;"/><path d="M58.97,65.93c-.11,2.36-2.52,4.01-4.67,4.82-4.59,1.71-11.15,.96-14.09-2.28-1.43-1.52-1.46-4.01,0-5.59,.96-1.05,2.21-1.76,3.54-2.26,0,4.26-.04,5.07,.03,5.31,.36,2.95,7.56,4.12,10.09,.98,.66-.85,.43-1.49,.43-6.31,1.56,.59,2.89,1.46,3.83,2.6,.62,.78,.89,1.75,.85,2.72Z" style="fill:#d0d0fc;"/></g><g><path d="M58.97,129.7v11.19c-.28,1.32-1.23,2.59-2.91,3.6-5.75,3.45-16.05,1.47-16.92-3.6-.06,0-.06-11.19-.06-11.19h4.7c.04,.35,.18,.69,.41,.98,2.54,3.14,9.73,1.98,10.09-.98h4.7Z" style="fill:#9f9ef2;"/><path d="M58.97,129.7c-.11,2.36-2.53,4.01-4.67,4.82-4.59,1.71-11.15,.96-14.09-2.28-1.43-1.52-1.46-4.01,0-5.59,.96-1.06,2.23-1.77,3.54-2.26,0,4.28-.04,5.07,.03,5.31,.36,2.95,7.56,4.12,10.09,.98,.65-.84,.44-1.46,.44-6.31,1.56,.59,2.89,1.46,3.82,2.6,.62,.78,.89,1.75,.85,2.72Z" style="fill:#d0d0fc;"/></g></g></g></g></g><g><rect x="230.22" y="104.3" width="2.39" height="35.31" transform="translate(16.51 271.1) rotate(-62.55)" style="fill:#dd6c2d;"/><g><path d="M197.52,78.05c-.2,0-.41-.05-.6-.16l-24.53-14.16c-.57-.33-.77-1.06-.44-1.63,.33-.57,1.06-.76,1.63-.44l24.53,14.16c.57,.33,.77,1.06,.44,1.63-.22,.38-.62,.6-1.03,.6Z" style="fill:#dd6c2d;"/><path d="M168.56,114.05c-.48,0-.93-.29-1.11-.76l-12.05-31.05c-.24-.61,.07-1.31,.68-1.55,.61-.23,1.31,.07,1.54,.68l12.05,31.05c.24,.61-.07,1.31-.68,1.54-.14,.05-.29,.08-.43,.08Z" style="fill:#dd6c2d;"/><g><path d="M163.66,115.33c0,3.13,2.53,5.65,5.65,5.65,1.88,0,3.56-.92,4.58-2.34,.67-.93,1.07-2.07,1.07-3.31,0-3.12-2.53-5.65-5.65-5.65-1.12,0-2.16,.32-3.04,.89-1.57,1-2.61,2.76-2.61,4.76Z" style="fill:#e8b100;"/><path d="M165.19,113.88c0,3.12,2.53,5.65,5.65,5.65,1.12,0,2.17-.32,3.05-.89,.67-.93,1.07-2.07,1.07-3.31,0-3.12-2.53-5.65-5.65-5.65-1.12,0-2.16,.32-3.04,.89-.68,.93-1.08,2.08-1.08,3.31Z" style="fill:#ffc700;"/><path d="M169.83,113.53c0,.59,.48,1.07,1.07,1.07s1.07-.48,1.07-1.07-.48-1.07-1.07-1.07-1.07,.48-1.07,1.07Z" style="fill:#ffefca;"/></g><path d="M196.41,132.53c-.2,0-.41-.05-.6-.16l-24.53-14.16c-.57-.33-.77-1.06-.44-1.63,.33-.57,1.06-.76,1.63-.44l24.53,14.16c.57,.33,.77,1.06,.44,1.63-.22,.38-.62,.6-1.03,.6Z" style="fill:#dd6c2d;"/><g><path d="M193.48,132.38c0,3.13,2.53,5.65,5.65,5.65,1.88,0,3.56-.92,4.58-2.34,.67-.93,1.07-2.07,1.07-3.31,0-3.12-2.53-5.65-5.65-5.65-1.12,0-2.16,.32-3.04,.89-1.57,1-2.61,2.76-2.61,4.76Z" style="fill:#e8b100;"/><path d="M195.01,130.94c0,3.12,2.53,5.65,5.65,5.65,1.12,0,2.17-.32,3.05-.89,.67-.93,1.07-2.07,1.07-3.31,0-3.12-2.53-5.65-5.65-5.65-1.12,0-2.16,.32-3.04,.89-.68,.93-1.08,2.08-1.08,3.31Z" style="fill:#ffc700;"/></g><path d="M200.4,133.59c-.24,0-.48-.07-.69-.22-.54-.38-.67-1.12-.29-1.66l12.26-17.45c.38-.54,1.13-.67,1.66-.29,.54,.38,.67,1.12,.29,1.66l-12.26,17.45c-.23,.33-.6,.51-.98,.51Z" style="fill:#dd6c2d;"/><rect x="153.04" y="70.23" width="21.33" height="2.39" transform="translate(11.13 164.28) rotate(-54.9)" style="fill:#dd6c2d;"/><g><path d="M150.21,80.18c0,3.13,2.53,5.65,5.65,5.65,1.88,0,3.56-.92,4.58-2.34,.67-.93,1.07-2.07,1.07-3.31,0-3.12-2.53-5.65-5.65-5.65-1.12,0-2.16,.32-3.04,.89-1.57,1-2.61,2.76-2.61,4.76Z" style="fill:#e8b100;"/><path d="M151.75,78.74c0,3.12,2.53,5.65,5.65,5.65,1.12,0,2.17-.32,3.05-.89,.67-.93,1.07-2.07,1.07-3.31,0-3.12-2.53-5.65-5.65-5.65-1.12,0-2.16,.32-3.04,.89-.68,.93-1.08,2.08-1.08,3.31Z" style="fill:#ffc700;"/><path d="M156.71,78.39c0,.42,.34,.76,.76,.76s.76-.34,.76-.76-.34-.76-.76-.76-.76,.34-.76,.76Z" style="fill:#ffefca;"/></g><g><path d="M164.45,61.56c0,3.13,2.53,5.65,5.65,5.65,1.88,0,3.56-.92,4.58-2.34,.67-.93,1.07-2.07,1.07-3.31,0-3.12-2.53-5.65-5.65-5.65-1.12,0-2.16,.32-3.04,.89-1.57,1-2.61,2.76-2.61,4.76Z" style="fill:#e8b100;"/><path d="M165.99,60.11c0,3.12,2.53,5.65,5.65,5.65,1.12,0,2.17-.32,3.05-.89,.67-.93,1.07-2.07,1.07-3.31,0-3.12-2.53-5.65-5.65-5.65-1.12,0-2.16,.32-3.04,.89-.68,.93-1.08,2.08-1.08,3.31Z" style="fill:#ffc700;"/><path d="M170.94,59.77c0,.42,.34,.76,.76,.76s.76-.34,.76-.76-.34-.76-.76-.76-.76,.34-.76,.76Z" style="fill:#ffefca;"/></g><path d="M212.56,112.43c-.48,0-.93-.29-1.11-.76l-12.05-31.05c-.24-.61,.07-1.31,.68-1.55,.62-.24,1.31,.07,1.54,.68l12.05,31.05c.24,.61-.07,1.31-.68,1.55-.14,.05-.29,.08-.43,.08Z" style="fill:#dd6c2d;"/><g><path d="M208.12,114.3c0,3.13,2.53,5.65,5.65,5.65,1.88,0,3.56-.92,4.58-2.34,.67-.93,1.07-2.07,1.07-3.31,0-3.12-2.53-5.65-5.65-5.65-1.12,0-2.16,.32-3.04,.89-1.57,1-2.61,2.76-2.61,4.76Z" style="fill:#e8b100;"/><path d="M209.66,112.85c0,3.12,2.53,5.65,5.65,5.65,1.12,0,2.17-.32,3.05-.89,.67-.93,1.07-2.07,1.07-3.31,0-3.12-2.53-5.65-5.65-5.65-1.12,0-2.16,.32-3.04,.89-.68,.93-1.08,2.08-1.08,3.31Z" style="fill:#ffc700;"/><path d="M214.87,112.51c0,.28,.23,.5,.5,.5s.5-.23,.5-.5-.23-.5-.5-.5-.5,.23-.5,.5Z" style="fill:#ffefca;"/></g><g><path d="M193.04,77.38c0,3.13,2.53,5.65,5.65,5.65,1.88,0,3.56-.92,4.58-2.34,.67-.93,1.07-2.07,1.07-3.31,0-3.12-2.53-5.65-5.65-5.65-1.12,0-2.16,.32-3.04,.89-1.57,1-2.61,2.76-2.61,4.76Z" style="fill:#e8b100;"/><path d="M194.58,75.94c0,3.12,2.53,5.65,5.65,5.65,1.12,0,2.17-.32,3.05-.89,.67-.93,1.07-2.07,1.07-3.31,0-3.12-2.53-5.65-5.65-5.65-1.12,0-2.16,.32-3.04,.89-.68,.93-1.08,2.08-1.08,3.31Z" style="fill:#ffc700;"/><path d="M199.22,75.59c0,.59,.48,1.07,1.07,1.07s1.07-.48,1.07-1.07-.48-1.07-1.07-1.07-1.07,.48-1.07,1.07Z" style="fill:#ffefca;"/></g></g><g><path d="M168.89,59.9c-.48,0-.93-.29-1.11-.76l-12.05-31.05c-.24-.61,.07-1.31,.68-1.55,.62-.24,1.31,.07,1.54,.68l12.05,31.05c.24,.61-.07,1.31-.68,1.54-.14,.05-.29,.08-.43,.08Z" style="fill:#dd6c2d;"/><g><path d="M120.93,62.79c0,2.6,2.11,4.71,4.71,4.71,1.57,0,2.96-.77,3.82-1.95,.56-.78,.89-1.73,.89-2.76,0-2.6-2.11-4.71-4.71-4.71-.93,0-1.8,.27-2.53,.74-1.31,.83-2.18,2.3-2.18,3.97Z" style="fill:#e8b100;"/><path d="M122.21,61.59c0,2.6,2.11,4.71,4.71,4.71,.94,0,1.81-.27,2.54-.75,.56-.78,.89-1.73,.89-2.76,0-2.6-2.11-4.71-4.71-4.71-.93,0-1.8,.27-2.53,.74-.56,.78-.9,1.73-.9,2.76Z" style="fill:#ffc700;"/><path d="M126.08,61.3c0,.49,.4,.89,.89,.89s.89-.4,.89-.89-.4-.89-.89-.89-.89,.4-.89,.89Z" style="fill:#ffefca;"/></g><path d="M152.73,80c-.2,0-.41-.05-.6-.16l-24.53-14.16c-.57-.33-.77-1.06-.44-1.63,.33-.57,1.06-.77,1.63-.44l24.53,14.16c.57,.33,.77,1.06,.44,1.63-.22,.38-.62,.6-1.03,.6Z" style="fill:#dd6c2d;"/><g><path d="M150.31,24.85c0,2.6,2.11,4.71,4.71,4.71,1.57,0,2.96-.77,3.82-1.95,.56-.78,.89-1.73,.89-2.76,0-2.6-2.11-4.71-4.71-4.71-.93,0-1.8,.27-2.53,.74-1.31,.83-2.18,2.3-2.18,3.97Z" style="fill:#e8b100;"/><path d="M151.59,23.64c0,2.6,2.11,4.71,4.71,4.71,.94,0,1.81-.27,2.54-.75,.56-.78,.89-1.73,.89-2.76,0-2.6-2.11-4.71-4.71-4.71-.93,0-1.8,.27-2.53,.74-.56,.78-.9,1.73-.9,2.76Z" style="fill:#ffc700;"/><path d="M155.46,23.36c0,.49,.4,.89,.89,.89s.89-.4,.89-.89-.4-.89-.89-.89-.89,.4-.89,.89Z" style="fill:#ffefca;"/></g></g><g><path d="M242.64,128.97c0,2.6,2.11,4.71,4.71,4.71,1.57,0,2.96-.77,3.82-1.95,.56-.78,.89-1.73,.89-2.76,0-2.6-2.11-4.71-4.71-4.71-.93,0-1.8,.27-2.53,.74-1.31,.83-2.18,2.3-2.18,3.97Z" style="fill:#e8b100;"/><path d="M243.92,127.76c0,2.6,2.11,4.71,4.71,4.71,.94,0,1.81-.27,2.54-.75,.56-.78,.89-1.73,.89-2.76,0-2.6-2.11-4.71-4.71-4.71-.93,0-1.8,.27-2.53,.74-.56,.78-.9,1.73-.9,2.76Z" style="fill:#ffc700;"/><path d="M248.05,127.47c0,.35,.28,.63,.63,.63s.63-.28,.63-.63-.28-.63-.63-.63-.63,.28-.63,.63Z" style="fill:#ffefca;"/></g></g><g><g><g style="isolation:isolate;"><path d="M249.3,173.24c-4.79-2.69-12.45-2.61-17.11,.17-4.66,2.78-4.55,7.22,.24,9.91,4.79,2.69,12.45,2.61,17.11-.17,4.66-2.78,4.55-7.22-.24-9.91Z" style="fill:#69a4fc;"/><path d="M243.22,174.98l-2.36,3.3,2.36-3.3c-1.4-.79-3.54-.77-4.91,.05-1.37,.82-1.33,2.12,.07,2.91,1.4,.79,3.65,.77,5.02-.05,1.37-.82,1.22-2.12-.18-2.91Z" style="fill:#69a4fc;"/><path d="M245.93,157.1c-.28-.36-.7-.69-1.21-.98l7.23,10.07c1.46,.82,2.58,1.75,3.38,2.76-.28-.36-7.83-9.88-9.4-11.86Z" style="fill:#69a4fc;"/><path d="M226.34,169.04c.74-.94,1.77-1.83,3.08-2.62,6.13-3.67,16.22-3.77,22.53-.23l-7.23-10.07c-2.23-1.25-5.79-1.22-7.96,.08-.47,.28-.83,.6-1.09,.93-1.56,1.99-9.05,11.55-9.33,11.91Z" style="fill:#69a4fc;"/><path d="M255.33,168.95c-.79-1.01-1.93-1.95-3.38-2.76,1.21,1.69-.27,5.62-2.66,7.05,4.79,2.69,4.9,7.12,.24,9.91-4.66,2.78-12.32,2.86-17.11,.17-4.79-2.69-4.9-7.12-.24-9.91,4.66-2.78,12.32-2.86,17.11-.17,2.39-1.43,3.87-5.35,2.66-7.05-6.31-3.54-16.4-3.44-22.53,.23-1.32,.79-2.34,1.67-3.08,2.62-1.95,2.51-2.16,4.92-1.99,6.51,.1,.91,.27,1.44,.49,2.1,.15,.46,.45,1.04,.68,1.46,.19,.35,.48,.79,.73,1.09,.7,.85,.74,.91,1.43,1.54,.26,.24,.82,.73,1.7,1.3,.82,.53,1.43,.83,1.93,1.08,.33,.16,1.04,.48,2.06,.83,.75,.25,.88,.29,2.14,.59,.2,.05,1.99,.47,4.44,.56,1.04,.04,2.65,.02,4.49-.25,.28-.04,1.16-.17,2.21-.43,.86-.21,.93-.24,2.15-.65,.34-.12,.79-.29,1.12-.45,.58-.27,1.33-.66,1.89-.97,.32-.18,1.51-.95,2.27-1.67,1.01-.97,1.33-1.37,1.98-2.38,.22-.33,.83-1.46,1.11-2.64,.11-.46,.2-1.08,.23-1.55,.03-.43-.01-1-.04-1.43-.04-.52-.3-1.6-.51-2.1-.15-.35-.34-.82-.53-1.15-.26-.46-.65-1.04-.97-1.46Z" style="fill:#69a4fc;"/><g><path d="M251.8,183.35c.61-.38,2.23-1.38,3.5-2.99,1.37-1.73,1.73-3.2,1.88-3.83,.1-.42,.16-1,.2-1.43,.02-.23,0-.55,0-.79,0-.43-.07-1.01-.18-1.43-.16-.67-.29-1.2-.72-2.08-.11-.23-.27-.54-.41-.76-.21-.34-.52-.78-.76-1.09,2.66,3.36,1.66,7.47-3.06,10.29-6.13,3.67-16.22,3.77-22.53,.23-4.96-2.78-6.11-6.98-3.4-10.43-.31,.43-.71,1-.96,1.47-.37,.71-.58,1.28-.69,1.64-.49,1.64-.39,2.77-.33,3.51,.07,.86,.45,2.11,.87,2.91,.28,.53,.92,1.76,2.2,2.95,1.2,1.12,2.28,1.77,2.82,2.06,.57,.3,1.33,.69,1.93,.93,1.25,.51,2.22,.76,2.22,.76,.64,.16,1.51,.37,2.16,.49,1.23,.21,2.25,.28,2.25,.28q1.65,.1,3.37,.04s1.02-.04,2.24-.22c3.92-.57,6.46-1.94,7.37-2.51Z" style="fill:#9f9ef2;"/><path d="M252.55,179.7c-6.27,3.75-16.62,3.85-23.07,.24-2.26-1.27-3.86-2.91-4.61-4.7,0,.14,.02,.26,.03,.38,.07,.78,.43,1.97,.81,2.72,.26,.5,.88,1.68,2.09,2.8,1.16,1.08,2.19,1.7,2.71,1.98,.68,.37,1.39,.7,1.88,.9,1.2,.49,2.16,.74,2.16,.74,.61,.15,1.47,.36,2.12,.48,1.19,.21,2.19,.28,2.19,.28q1.63,.1,3.32,.04s1.01-.04,2.18-.22c3.82-.56,6.29-1.89,7.17-2.43,.59-.36,2.15-1.33,3.36-2.86,1.3-1.64,1.64-3.03,1.78-3.62,.09-.37,.14-.89,.18-1.25-.7,1.72-2.16,3.27-4.3,4.55Z" style="fill:#b1d0fe;"/></g><path d="M235.15,158.48c0-.82,.55-1.65,1.61-2.29,2.17-1.3,5.72-1.33,7.96-.08v-12.66c-2.23-1.25-5.82-1.22-7.99,.08-1.07,.64-1.58,1.46-1.58,2.29,.01,3.8-.01,8.86,0,12.66Z" style="fill:#9f9ef2;"/><path d="M237.42,146.23c-.04,10.08-.07,20.16-.11,30.23,0-.51,.34-1.03,1-1.43,1.37-.82,3.5-.84,4.91-.05v-30.15c-1.33-.75-3.56-.72-4.86,.05-.63,.38-.95,.87-.95,1.35Z" style="fill:#5254cf;"/><path d="M244.41,176.44l-.28-30.23c0-.5-.23-1-.91-1.38v30.15c.71,.4,1.18,.93,1.18,1.46Z" style="fill:#5254cf;"/><path d="M244.13,146.21c0,.49-.31,.99-.95,1.37-1.29,.77-3.42,.79-4.75,.05-.68-.38-1.02-.89-1.02-1.4-.04,10.08-.07,20.16-.11,30.23,0,.54,.36,1.07,1.08,1.48,1.4,.79,3.65,.77,5.02-.05,.67-.4,1.01-.93,1-1.44-.08-9.07-.19-21.16-.28-30.23Z" style="fill:#69a4fc;"/><path d="M229.74,179.47c6.31,3.54,16.4,3.44,22.53-.23,4.72-2.82,5.72-6.93,3.06-10.29-.28-.36-7.83-9.88-9.4-11.86,.94,1.19,.59,2.64-1.08,3.64-2.17,1.3-5.74,1.33-7.98,.08-1.14-.64-1.71-1.49-1.73-2.33,0-.23,.02-.47,.02-.71-1.39,1.77-8.55,10.91-8.83,11.27-2.7,3.45-1.55,7.65,3.4,10.43Z" style="fill:#d0d0fc;"/><path d="M246.43,145.79c0-.85-.57-1.7-1.71-2.33v12.66c1.14,.64,1.71,1.48,1.71,2.33-.01-3.8,.01-8.86,0-12.66Z" style="fill:#69a4fc;"/><g><path d="M246.43,158.45v-12.66c0,.82-.55,1.65-1.61,2.29-2.17,1.3-5.74,1.33-7.98,.08-1.14-.64-1.69-1.48-1.69-2.33v12.66c0,.85,.59,1.7,1.73,2.33,2.23,1.25,5.8,1.22,7.98-.08,1.07-.64,1.58-1.46,1.58-2.29Z" style="fill:#9f9ef2;"/><path d="M236.61,161.28c-1.29-.72-2-1.72-2-2.8v-12.66h1.07c0,.69,.51,1.36,1.42,1.87,2.08,1.17,5.42,1.13,7.44-.07,.86-.51,1.35-1.17,1.35-1.81h1.07s0,12.64,0,12.64c0,1.06-.65,2.04-1.84,2.75-1.2,.72-2.77,1.08-4.34,1.08-1.5,0-2.99-.33-4.18-.99Zm8.48-12.75c-2.35,1.41-6.09,1.45-8.51,.09-.34-.19-.64-.4-.89-.63v10.48c0,.67,.53,1.35,1.45,1.87,2.08,1.16,5.42,1.13,7.44-.07,.85-.51,1.32-1.16,1.32-1.82v-10.5c-.23,.21-.5,.41-.8,.59Z" style="fill:#d0d0fc;"/></g><path d="M245.56,148.5c-2.57,1.54-6.8,1.58-9.45,.1-2.65-1.49-2.71-3.94-.13-5.47,2.57-1.54,6.8-1.58,9.45-.1,2.65,1.49,2.71,3.94,.13,5.47Zm-8.84-4.96c-2.17,1.3-2.12,3.37,.11,4.62,2.23,1.25,5.8,1.22,7.98-.08,2.17-1.3,2.14-3.37-.1-4.62-2.23-1.25-5.82-1.22-7.99,.08Z" style="fill:#9f9ef2;"/><path d="M249.12,144.42c0-.78-.26-1.62-.72-2.3-.71-1.05-1.51-1.53-2.16-1.91,.21,.12,.35,.38,.35,.76,0,.75-.52,1.68-1.16,2.06,2.65,1.49,2.71,3.94,.13,5.47-2.57,1.54-6.8,1.58-9.45,.1-2.65-1.49-2.71-3.94-.13-5.47,2.57-1.54,6.8-1.58,9.45-.1,.64-.38,1.16-1.31,1.16-2.06,0-.38-.13-.64-.35-.76-1.81-1-3.69-1.21-4.41-1.26-1.26-.08-1.89-.04-2.93,.1-.67,.09-1.69,.34-2.26,.56-.53,.21-1.25,.49-2.05,1.07-.58,.42-1.06,.9-1.42,1.42-.73,1.08-.93,2.25-.6,3.48,.45,1.66,2,2.68,2.3,2.86,.43,.26,.55,.33,.97,.53,.54,.26,1.04,.42,1.04,.42,.39,.12,.75,.24,1.1,.3,.35,.07,1.09,.22,1.72,.26,1.16,.07,1.77,.05,2.93-.1,.58-.07,1.56-.3,2.26-.56,.36-.14,1.3-.5,2.12-1.12,.25-.19,1-.75,1.5-1.61,.41-.69,.6-1.37,.6-2.14Z" style="fill:#9f9ef2;"/><path d="M244.13,146.29c.12-1.85,.92-3.12,3.2-3.07,.07-1.04-.59-2.09-1.99-2.87-1.59,.95-2.04,2.57-2.12,4.48,.71,.4,.94,.94,.9,1.47Z" style="fill:#9f9ef2;"/><path d="M243.91,145.5c-.13,.08-.6,.35-1.35,.53-.94,.23-1.74,.21-1.74,.21-.22,0-.51-.01-.72-.02-.11,0-.25-.02-.35-.04-.55-.07-.94-.18-1.01-.2-.76-.22-1.29-.5-1.59-.83,.19,.34,.25,.9,.27,1.17,.03,.48,.37,.95,1.01,1.31,1.33,.75,3.45,.72,4.75-.05,.6-.36,.92-.82,.95-1.28,.03-.36,.08-.83,.26-1.16-.11,.12-.2,.2-.47,.37Z" style="fill:#69a4fc;"/><path d="M244.13,146.29c.02-.29,.07-.82,.26-1.16-.61,.65-2.08,1.1-3.55,1.11-2.11,0-3.31-.68-3.68-1.09,.2,.37,.25,.93,.27,1.17-.13-1.85-.94-3.12-3.22-3.06,.07,.94,.73,1.86,1.99,2.56,2.6,1.46,6.76,1.42,9.29-.09,1.18-.7,1.79-1.6,1.85-2.51-2.28-.05-3.08,1.22-3.2,3.07Z" style="fill:#9f9ef2;"/><path d="M245.56,145.77c-2.57,1.54-6.8,1.58-9.45,.1-2.65-1.49-2.71-3.94-.13-5.47,2.57-1.54,6.8-1.58,9.45-.1,2.65,1.49,2.71,3.94,.13,5.47Zm-9.5-5.33c-2.53,1.51-2.47,3.92,.13,5.38,2.6,1.46,6.76,1.42,9.29-.09,2.53-1.51,2.47-3.92-.13-5.38-2.6-1.46-6.76-1.42-9.29,.09Z" style="fill:#fff;"/><path d="M246.41,148.57c.33-.2,1.33-.81,1.98-1.82,.62-.95,.74-1.79,.72-2.33-.04-1.72-1-3.14-2.88-4.22-.21-.12-.5-.1-.82,.09,2.65,1.49,2.71,3.94,.13,5.47-2.57,1.54-6.8,1.58-9.45,.1-2.65-1.49-2.71-3.94-.13-5.47,2.57-1.54,6.8-1.58,9.45-.1,.32-.19,.61-.21,.82-.09-.15-.05-.32-.17-.46-.24-.17-.09-.4-.19-.57-.25-.49-.18-.92-.34-1.64-.51-1.33-.3-2.4-.3-2.91-.3-.24,0-1.53,.02-2.88,.35-1.24,.31-2.02,.7-2.57,1.01-1.46,.83-2.48,2.1-2.72,3.41-.16,.91-.04,1.54,.19,2.2,.07,.22,.38,.98,1.19,1.76,1.31,1.27,3.5,2.13,5.84,2.3,3.7,.27,6.07-.99,6.71-1.38Z" style="fill:#d0d0fc;"/></g><path d="M226.02,176.84c.75,1.6,5.5,8.39,14.77,7.71,9.27-.68,13.3-3.77,14.6-7.96,1.53-4.96-2.67-9.04-2.78-9.15,.23,.54,.36,1.1,.36,1.68,0,3.81-5.35,6.89-11.94,6.89s-11.94-3.09-11.94-6.89c0-.72,.19-1.41,.55-2.07-.15,.14-5.68,5.35-3.6,9.79Z" style="fill:#e84343; opacity:.67;"/><g id="bz" style="opacity:.67;"><path d="M229.07,169.12c0,3.81,5.35,6.89,11.94,6.89s11.94-3.09,11.94-6.89c0-.58-.12-1.14-.36-1.68-1.3-3-5.99-5.22-11.58-5.22s-9.88,2.03-11.4,4.83c-.36,.65-.55,1.35-.55,2.07Z" style="fill:#f66;"/></g></g><path d="M248.04,164.84s6.34,8.38,6.08,9.52c-.26,1.14,.35,2.11-1.16,.93-1.51-1.18-4.92-10.44-4.92-10.44Z" style="fill:#fff; isolation:isolate; opacity:.5;"/></g><g><path id="ca" d="M167.41,265.75c0,7.79,10.94,14.11,24.44,14.11s24.44-6.32,24.44-14.11-10.94-14.11-24.44-14.11-24.44,6.32-24.44,14.11Z" style="fill:#5254cf;"/><g><g><circle cx="191.21" cy="244.94" r="29.98" transform="translate(-54.1 54.21) rotate(-14.16)" style="fill:#e1edff;"/><g><circle cx="191.21" cy="244.94" r="29.02" style="fill:#9f9ef2;"/><path d="M161.43,244.95c0-16.42,13.36-29.78,29.78-29.78s29.78,13.36,29.78,29.78-13.36,29.78-29.78,29.78-29.78-13.36-29.78-29.78Zm1.53,0c0,15.58,12.67,28.25,28.25,28.25s28.25-12.67,28.25-28.25-12.67-28.25-28.25-28.25-28.25,12.68-28.25,28.25Z" style="fill:#d0d0fc;"/></g><g><path d="M166.85,254.95c3.94,9.58,13.36,16.32,24.36,16.32s20.81-7.02,24.6-16.92c1.12-2.92-50.23-2.49-48.96,.59Z" style="fill:#ffe092;"/><path d="M167.7,254.99c4.03,9.44,13.23,15.53,23.52,15.53s19.89-6.44,23.74-16.07c-4.25-2.11-43.3-1.66-47.26,.54Z" style="fill:#ffe092;"/></g><path id="cb" d="M166.06,251.23c0,3.72,2.45,7.43,7.37,10.27,9.82,5.67,25.75,5.67,35.57,0,4.91-2.84,7.37-6.55,7.37-10.27s-2.45-7.43-7.37-10.27c-9.82-5.67-25.75-5.67-35.57,0-4.91,2.84-7.37,6.55-7.37,10.27Z" style="fill:#ffc700;"/><g><path d="M167.44,227.65s-.24-.03-.34-.03c-.95-.08-2.23,.29-3.27,1.09-.3,.23-.48,.39-.7,.62-.59,.6-.89,1.06-1.23,1.75-1.25,2.54-.65,4.9,.58,6.14,.18,.2,.6,.53,.91,.69,2.29,1.19,5.18-.09,6.63-2.63,1.47-2.58,1.08-5.84-1.18-7.14-.23-.13-.29-.16-.55-.26-.29-.12-.68-.2-.84-.21Z" style="fill:#d0d0fc;"/><path d="M163.39,237.9s1.8,1,1.92,1.05c.95,.44,2.12,.53,3.33,.08,.74-.28,1.47-.78,2.01-1.31,2.73-2.69,2.65-7.15-.12-8.66-1.86-1.02-1.72-.96-1.7-.94,.56,.33,1.04,.8,1.4,1.41,1,1.69,.79,3.96-.22,5.74-1.45,2.55-4.37,3.85-6.63,2.63Z" style="fill:#5254cf;"/><path d="M166.65,239.32s-.21-.02-.21-.02c2.53,1.52,5.75-.09,6.99-2.9,1.07-2.44,.43-5.33-1.81-6.46,1.63,1.92,1.41,5.49-.96,7.79-1.12,1.09-2.46,1.74-4,1.6Z" style="fill:#d0d0fc;"/><path d="M174.98,237.29c-.91,2.08-2.85,3.44-4.79,3.49,1.29,.71,2.58,1.42,3.88,2.14-.06-.03,.01,0,.11,.06,.33,.17,.69,.27,1.05,.31,2.77,.3,5.48-2.91,5.08-6.08-.14-1.14-.72-2.19-1.71-2.75-.49-.27,1.37,.76-3.78-2.08,.82,1.37,.9,3.23,.16,4.92Z" style="fill:#d0d0fc;"/><path d="M173.43,236.4c-.91,2.08-2.85,3.44-4.79,3.49,1.29,.71,2.58,1.42,3.88,2.14-.06-.04,.01,0,.11,.06,.33,.17,.69,.27,1.05,.31,2.77,.3,5.48-2.91,5.08-6.08-.14-1.14-.72-2.19-1.71-2.75-.49-.27,1.37,.76-3.78-2.08,.82,1.37,.9,3.23,.16,4.92Z" style="fill:#5254cf;"/><path d="M263.28,191.56c-1.5,0-13.14,.23-14.25,.27-1.12,.04-9.31,.49-10.45,.58-10.12,.75-22.39,2.28-31.76,6.04-6.4,2.57-11.51,6.13-15.35,11.73-2.49,3.64-4.17,7.77-4.57,8.62-.32,.67,.01,1.34,.54,1.86,.69,.69,1.77,1.18,2.69,1.5,2.1,.72,4.73,.98,6.91,.69,.86-.12,1.85-.35,2.61-.79,.51-.29,.99-.72,1.1-1.28,.7-4.83,1.71-8.33,5.07-11.71,9.11-9.18,31.03-12.56,43.93-13.99,1.08-.12,11.6-1.06,11.73-1.06,1.1-.08,2.42-1.09,2.54-1.83,.04-.23-.04-.42-.25-.53-.14-.06-.25-.09-.48-.09Z" style="fill:#d0d0fc;"/></g></g><path d="M235.69,195.28s-19.33,2.33-26.5,7.73c-8.53,6.42-7.94,9.07-9.19,9.22-1.25,.15-3.97-5.67,10.8-11.78,10.89-4.51,24.89-5.17,24.89-5.17Z" style="fill:#fff; isolation:isolate; opacity:.5;"/></g></g></svg>