<?xml version="1.0" encoding="UTF-8"?><svg id="a" xmlns="http://www.w3.org/2000/svg" viewBox="0 0 300 300"><path id="b" d="M57.59,248.22c51.17,29.45,134.13,29.46,185.29,0,51.17-29.46,51.17-77.21,0-106.66-51.17-29.45-134.13-29.45-185.29,0-51.17,29.45-51.17,77.21,0,106.66Z" style="fill:#efefef; isolation:isolate;"/><path id="c" d="M49.36,216.35l79.4,45.84c1.42,.82,3.73,.82,5.15,0l120.46-69.55c1.42-.82,1.42-2.15,0-2.97l-79.39-45.84c-1.42-.82-3.73-.82-5.15,0L49.36,213.38c-1.42,.82-1.42,2.15,0,2.97Z" style="fill:#e1e1e1;"/><path id="d" d="M69.51,187.56c-7.5,3.58-19.67,3.58-27.17,0-7.5-3.58-7.5-9.37,0-12.95,7.5-3.58,19.67-3.58,27.17,0,7.5,3.58,7.5,9.37,0,12.95Z" style="fill:#1d1d1b; isolation:isolate; opacity:.08;"/><g id="e"><g><path d="M44.2,164.49c-.29-3.63-3.09-9.82-7.23-14.22-4.14-4.41-10.77-6.53-14.86-4.75-3.81,1.65-2.97,6.76,2.05,9.78,5.02,3.02,12.51,6.72,15.07,12.44l4.96,6.87v-10.11Z" style="fill:#00dfbf;"/><path d="M44.2,164.49c-.29-3.63-3.09-9.82-7.23-14.22-4.14-4.41-10.77-6.53-14.86-4.75-3.81,1.65-2.97,6.76,2.05,9.78,5.02,3.02,12.51,6.72,15.07,12.44l4.96,6.87v-10.11Z" style="fill:#d0d0fc;"/><path d="M44.72,169.24s.05,0,.08-.01c.13-.04,.2-.19,.16-.32-4.08-12.31-15.64-20.55-20.44-21.34-.13-.02-.27,.07-.29,.21-.02,.14,.07,.27,.21,.29,4.7,.77,16.03,8.88,20.05,21,.03,.11,.13,.17,.24,.17Z" style="fill:#fff;"/></g><path d="M43.66,179.47c-.75-1.99-3.51-5.16-7.76-7.61-4.7-2.72-10.46-3.68-11.95-5.97-1.79-2.75,.41-5.66,5.04-5.46,4.62,.2,13.17,5.8,15.22,15.1l-.54,3.94Z" style="fill:#d0d0fc;"/><path d="M43.87,175.69s.08,0,.11-.03c.12-.06,.17-.21,.11-.34-3.98-7.92-12.38-11.63-16.72-12.57-.14-.03-.27,.06-.3,.19-.03,.14,.06,.27,.19,.3,4.25,.92,12.48,4.55,16.37,12.3,.04,.09,.13,.14,.22,.14Z" style="fill:#fff;"/></g><g id="f"><g><path d="M115.57,168.07v-1.72l65.32-35.99c.86-.49,2.24-.49,3.1,0l90.58,51.11s0,1.39,0,1.71c0,.32-.21,.65-.64,.9l-65.32,37.71-93.03-53.71Z" style="fill:#00dfbf;"/><path d="M274.57,183.17c0-.32,0-1.71,0-1.71l-1.11-.62-64.85,39.22v1.72l65.32-37.71c.43-.25,.64-.57,.64-.9Z" style="fill:#d19c5e;"/><path d="M115.57,166.35l65.32-37.71c.86-.49,2.24-.49,3.1,0l89.94,51.92c.86,.49,.86,1.3,0,1.79l-65.32,37.71-93.03-53.71Z" style="fill:#ffc700;"/><polygon points="208.61 221.78 208.61 220.06 115.57 166.35 115.57 168.07 208.61 221.78" style="fill:#a37c58;"/></g><g><path d="M117.06,168.89l-66.03,34.77-1.36,2.13v1.72c0,.86,.49,1.64,1.36,2.13l87.03,50.25c.63,.36,1.43,.56,2.27,.56s1.64-.2,2.27-.56l64.56-37.27v-1.72l-90.08-52.01Z" style="fill:#00dfbf;"/><path d="M117.06,168.89l-66.03,34.77-1.36,2.13v1.72c0,.86,.49,1.64,1.36,2.13l87.03,50.25c.63,.36,1.43,.56,2.27,.56s1.64-.2,2.27-.56l64.56-37.27v-1.72l-90.08-52.01Z" style="fill:#d19c5e;"/><path d="M140.32,258.74c-.83,0-1.64-.2-2.27-.56l-87.03-50.25c-.86-.5-1.36-1.28-1.36-2.13s.49-1.64,1.36-2.13l63.13-36.45,92.99,53.69-64.56,37.27c-.63,.36-1.43,.56-2.27,.56Z" style="fill:#ffc700;"/></g><g><path d="M114.16,162.17l-62.41,36.03-.64,.89v6.7h0c0,.32,.21,.65,.64,.89l87.03,50.25c.86,.49,2.24,.49,3.1,0l62.41-36.03v-6.7l-90.13-52.04Z" style="fill:#ececec;"/><path d="M204.29,214.21l-.78,.45-10.16,5.86-1.89,1.1-49.59,28.62c-.86,.49-2.25,.49-3.1,0l-87.03-50.25c-.85-.49-.85-1.3,0-1.79l.83-.48,61.58-35.55,89.36,51.59,.19,.11,.59,.34Z" style="fill:#f0f0f0;"/><path d="M140.32,250.61v6.7c-.56,0-1.12-.12-1.55-.37l-87.03-50.25c-.42-.24-.64-.57-.64-.89v-6.7c0,.32,.21,.64,.64,.89l87.03,50.25c.42,.25,.99,.37,1.55,.37Z" style="fill:#e1e1e1;"/></g><path d="M204.29,213.31l-11.24,6.48-1.76,1.02-49.41,28.53c-.86,.49-2.25,.49-3.1,0l-77.93-45c-.7-.39-1.35-.77-1.96-1.13-3.17-1.93-5.08-3.66-6.31-5.5-.05-.08-.1-.15-.15-.23-.1-.15-.16-.31-.19-.47-.14-.69,.31-1.35,1.09-1.57,1.51-.45,3.79-1.25,5.88-2.45,.03-.01,.05-.03,.08-.04l54.88-31.69,90.13,52.04Z" style="fill:#fafafa;"/><g><g><path d="M192.65,212.53c-.8,.46-.8,1.22,0,1.68,.8,.46,2.09,.46,2.89,0s.8-1.22,0-1.68c-.8-.46-2.1-.46-2.89,0Z" style="opacity:.1;"/><path d="M201.95,207.1c-1.1-.64-2.48-.54-3.89,.27-2.18,1.27-4.07,4.09-4.9,7.04,.33,.11,.7,.15,1.07,.13,.76-2.63,2.43-5.12,4.37-6.24,.63-.36,1.23-.54,1.78-.54,.38,0,.73,.09,1.04,.27,.93,.54,1.47,1.85,1.47,3.59,0,.29-.01,.57-.05,.86l1.02,.59c.07-.49,.11-.97,.11-1.45,0-2.13-.73-3.78-2-4.52Z" style="fill:#394547;"/><path d="M203.75,213.62c0,.08-.03,.16-.05,.25l-.19-.11,.24-.14Z" style="fill:#1a2e35;"/></g><g><path d="M183.93,207.49c-.8,.46-.8,1.21,0,1.68,.8,.46,2.09,.46,2.89,0,.8-.46,.8-1.22,0-1.68-.8-.46-2.1-.46-2.89,0Z" style="opacity:.1;"/><path d="M193.23,202.07c-1.1-.64-2.48-.54-3.89,.27-2.18,1.27-4.07,4.09-4.9,7.04,.33,.11,.7,.15,1.07,.13,.76-2.63,2.43-5.12,4.37-6.24,.63-.36,1.23-.54,1.78-.54,.38,0,.73,.09,1.04,.27,.93,.54,1.47,1.85,1.47,3.59,0,.29-.01,.57-.05,.86l1.02,.59c.07-.49,.11-.97,.11-1.45,0-2.13-.73-3.78-2-4.52Z" style="fill:#394547;"/></g><g><path d="M175.21,202.46c-.8,.46-.8,1.21,0,1.68,.8,.46,2.09,.46,2.89,0s.8-1.22,0-1.68-2.1-.46-2.89,0Z" style="opacity:.1;"/><path d="M184.51,197.03c-1.1-.64-2.48-.54-3.89,.27-2.18,1.27-4.07,4.09-4.9,7.04,.33,.11,.7,.15,1.07,.13,.76-2.63,2.43-5.12,4.37-6.24,.63-.36,1.23-.54,1.78-.54,.38,0,.73,.09,1.04,.27,.93,.54,1.47,1.85,1.47,3.59,0,.29-.01,.57-.05,.86l1.02,.59c.07-.49,.11-.97,.11-1.45,0-2.13-.73-3.78-2-4.52Z" style="fill:#394547;"/></g><g><path d="M166.49,197.42c-.8,.46-.8,1.21,0,1.68,.8,.46,2.09,.46,2.89,0,.8-.46,.8-1.22,0-1.68-.8-.46-2.1-.46-2.89,0Z" style="opacity:.1;"/><path d="M175.79,191.99c-1.1-.64-2.48-.54-3.89,.27-2.18,1.27-4.07,4.09-4.9,7.04,.33,.11,.7,.15,1.07,.13,.76-2.63,2.43-5.12,4.37-6.24,.63-.36,1.23-.54,1.78-.54,.38,0,.73,.09,1.04,.27,.93,.54,1.47,1.85,1.47,3.59,0,.29-.01,.57-.05,.86l1.02,.59c.07-.49,.11-.97,.11-1.45,0-2.13-.73-3.78-2-4.52Z" style="fill:#394547;"/></g><g><path d="M157.77,192.39c-.8,.46-.8,1.21,0,1.68,.8,.46,2.09,.46,2.89,0,.8-.46,.8-1.22,0-1.68-.8-.46-2.1-.46-2.89,0Z" style="opacity:.1;"/><path d="M167.07,186.96c-1.1-.64-2.48-.54-3.89,.27-2.18,1.27-4.07,4.09-4.9,7.04,.33,.11,.7,.15,1.07,.13,.76-2.63,2.43-5.12,4.37-6.24,.63-.36,1.23-.54,1.78-.54,.38,0,.73,.09,1.04,.27,.93,.54,1.47,1.85,1.47,3.59,0,.29-.01,.57-.05,.86l1.02,.59c.07-.49,.11-.97,.11-1.45,0-2.13-.73-3.78-2-4.52Z" style="fill:#394547;"/></g><g><path d="M149.04,187.35c-.8,.46-.8,1.22,0,1.68,.8,.46,2.09,.46,2.89,0,.8-.46,.8-1.22,0-1.68-.8-.46-2.1-.46-2.89,0Z" style="opacity:.1;"/><path d="M158.34,181.92c-1.1-.64-2.48-.54-3.89,.27-2.18,1.27-4.07,4.09-4.9,7.04,.33,.11,.7,.15,1.07,.13,.76-2.63,2.43-5.12,4.37-6.24,.63-.36,1.23-.54,1.77-.54,.38,0,.73,.09,1.04,.27,.93,.54,1.47,1.85,1.47,3.59,0,.29-.01,.57-.05,.86l1.02,.59c.07-.49,.11-.97,.11-1.45,0-2.13-.73-3.78-2-4.52Z" style="fill:#394547;"/></g><g><path d="M140.32,182.31c-.8,.46-.8,1.21,0,1.68,.8,.46,2.09,.46,2.89,0,.8-.46,.8-1.22,0-1.68-.8-.46-2.1-.46-2.89,0Z" style="opacity:.1;"/><path d="M149.62,176.89c-1.1-.64-2.48-.54-3.89,.27-2.18,1.27-4.07,4.09-4.9,7.04,.33,.11,.7,.15,1.07,.13,.76-2.63,2.43-5.12,4.37-6.24,.63-.36,1.23-.54,1.78-.54,.38,0,.73,.09,1.04,.27,.93,.54,1.47,1.85,1.47,3.59,0,.29-.01,.57-.05,.86l1.02,.59c.07-.49,.11-.97,.11-1.45,0-2.13-.73-3.78-2-4.52Z" style="fill:#394547;"/></g><g><path d="M131.6,177.28c-.8,.46-.8,1.21,0,1.68,.8,.46,2.09,.46,2.89,0,.8-.46,.8-1.22,0-1.68s-2.1-.46-2.89,0Z" style="opacity:.1;"/><path d="M140.9,171.85c-1.1-.64-2.48-.54-3.89,.27-2.18,1.27-4.07,4.09-4.9,7.04,.33,.11,.7,.15,1.07,.13,.76-2.63,2.43-5.12,4.37-6.24,.63-.36,1.23-.54,1.78-.54,.38,0,.73,.09,1.04,.27,.93,.54,1.47,1.85,1.47,3.59,0,.29-.01,.57-.05,.86l1.02,.59c.07-.49,.11-.97,.11-1.45,0-2.13-.73-3.78-2-4.52Z" style="fill:#394547;"/></g><g><path d="M122.88,172.24c-.8,.46-.8,1.21,0,1.68,.8,.46,2.09,.46,2.89,0,.8-.46,.8-1.22,0-1.68-.8-.46-2.1-.46-2.89,0Z" style="opacity:.1;"/><path d="M132.18,166.81c-1.1-.64-2.48-.54-3.89,.27-2.18,1.27-4.07,4.09-4.9,7.04,.33,.11,.7,.15,1.07,.13,.76-2.63,2.43-5.12,4.37-6.24,.63-.36,1.23-.54,1.78-.54,.38,0,.73,.09,1.04,.27,.93,.54,1.47,1.85,1.47,3.59,0,.29-.01,.57-.05,.86l1.02,.59c.07-.49,.11-.97,.11-1.45,0-2.13-.73-3.78-2-4.52Z" style="fill:#394547;"/></g><g><path d="M114.15,167.21c-.8,.46-.8,1.21,0,1.68s2.09,.46,2.89,0c.8-.46,.8-1.22,0-1.68-.8-.46-2.1-.46-2.89,0Z" style="opacity:.1;"/><path d="M123.45,161.78c-1.1-.64-2.48-.54-3.89,.27-2.18,1.27-4.07,4.09-4.9,7.04,.33,.11,.7,.15,1.07,.13,.76-2.63,2.43-5.12,4.37-6.24,.63-.36,1.23-.54,1.78-.54,.38,0,.73,.09,1.04,.27,.93,.54,1.47,1.85,1.47,3.59,0,.29-.01,.57-.05,.86l1.02,.59c.07-.49,.11-.97,.11-1.45,0-2.13-.73-3.78-2-4.52Z" style="fill:#394547;"/></g></g><g><line x1="179.62" y1="211.66" x2="131.6" y2="239.38" style="fill:none; stroke:#ececec; stroke-linecap:round; stroke-miterlimit:10; stroke-width:.57px;"/><line x1="173.8" y1="208.3" x2="125.79" y2="236.03" style="fill:none; stroke:#ececec; stroke-linecap:round; stroke-miterlimit:10; stroke-width:.57px;"/><line x1="167.98" y1="204.95" x2="119.97" y2="232.67" style="fill:none; stroke:#ececec; stroke-linecap:round; stroke-miterlimit:10; stroke-width:.57px;"/><line x1="162.17" y1="201.59" x2="114.15" y2="229.31" style="fill:none; stroke:#ececec; stroke-linecap:round; stroke-miterlimit:10; stroke-width:.57px;"/><line x1="156.35" y1="198.23" x2="108.34" y2="225.95" style="fill:none; stroke:#ececec; stroke-linecap:round; stroke-miterlimit:10; stroke-width:.57px;"/><line x1="150.54" y1="194.87" x2="102.52" y2="222.6" style="fill:none; stroke:#ececec; stroke-linecap:round; stroke-miterlimit:10; stroke-width:.57px;"/><line x1="144.72" y1="191.52" x2="96.71" y2="219.24" style="fill:none; stroke:#ececec; stroke-linecap:round; stroke-miterlimit:10; stroke-width:.57px;"/><line x1="138.91" y1="188.16" x2="90.89" y2="215.88" style="fill:none; stroke:#ececec; stroke-linecap:round; stroke-miterlimit:10; stroke-width:.57px;"/><line x1="133.09" y1="184.8" x2="85.08" y2="212.52" style="fill:none; stroke:#ececec; stroke-linecap:round; stroke-miterlimit:10; stroke-width:.57px;"/><line x1="127.28" y1="181.44" x2="79.26" y2="209.17" style="fill:none; stroke:#ececec; stroke-linecap:round; stroke-miterlimit:10; stroke-width:.57px;"/><line x1="121.46" y1="178.09" x2="73.45" y2="205.81" style="fill:none; stroke:#ececec; stroke-linecap:round; stroke-miterlimit:10; stroke-width:.57px;"/><line x1="115.65" y1="174.73" x2="67.63" y2="202.45" style="fill:none; stroke:#ececec; stroke-linecap:round; stroke-miterlimit:10; stroke-width:.57px;"/><line x1="109.83" y1="171.37" x2="61.82" y2="199.09" style="fill:none; stroke:#ececec; stroke-linecap:round; stroke-miterlimit:10; stroke-width:.57px;"/></g><g><path d="M191.25,218.69c-.05,0-.11-.01-.16-.04l-84.33-48.67c-.15-.09-.2-.28-.12-.43,.09-.15,.28-.2,.43-.11l84.33,48.67c.15,.09,.2,.28,.12,.43-.06,.1-.16,.16-.27,.16Z" style="fill:#ffc700;"/><path d="M137.51,243.05c-.11,0-.21-.06-.27-.16-.09-.15-.03-.34,.11-.43l50.79-29.37c.15-.09,.34-.03,.43,.11,.09,.15,.03,.34-.11,.43l-50.79,29.37s-.1,.04-.16,.04Z" style="fill:#ffc700;"/></g><g style="opacity:.25;"><g><path d="M162.89,207.23c-.44-.67-1.26-.94-1.96-1.26-.29-.13-.61-.31-.95-.48-.44-.71-1.03-1.87-.25-2.01,.46-.09,1.36,.4,1.87,.55,.28,.08,.22-.33,.02-.41-.86-.34-2.49-1.4-2.84,.06-.1,.39,0,.86,.2,1.34-.43-.17-.86-.27-1.26-.23-.4,.04-.75,.05-.89,.52-.08,.26,.03,.37,.05,.57,.03,.3,.32,.39,.41,.41-.05,0-.18-.02-.46-.03-.61-.02-2.26-.42-2.64,.33-.16,.31,.2,.74,.15,.86-.02,.05-1.2,.45-1.41,.58-.09,.06-.03,.38-.08,.41-.18,.1-1.39-.02-1.75,.01-.96,.08-3.34-.28-3.03,1.2,.03,.16,.16,.14,.19,.4,.02,.21,.05,.31,.07,.36-.03,0-.1,.02-.23,.2-.08,.11-.41,.08-.53,.23-.46,.57,.24,.77-.33,1.13-.8,.5-2.47-.51-3.28,.05-.72,.5,.22,1.94-1.06,1.96-.28,0-.12,.42,.1,.44,1.2,.1,1.07-.12,1.3-1.1,.37-1.59,2.75-.5,4.09-.86,.15-.04,.17-.23,.1-.35-.35-.57,.06-.88,.59-1.12,.15-.07,.17-.21,.1-.35-.14-.26-.65-1.05-.34-1.43,.07-.09,1.25-.16,1.42-.17,1.03-.06,2.07-.11,3.11-.05,.14,0,.26-.16,.2-.29-.15-.33,1.19-.55,1.49-.61,.12-.03,.17-.18,.13-.28-.64-1.59,1.72-1.01,2.7-.85,.19,.03,.33-.12,.27-.3-.15-.54-1.34-1.08,.07-1.27,.28-.04,.66,.08,1.08,.26,.65,1.09,1.73,2.15,2.46,2.53,.93,.49,1.87,.16,1.16-.92Zm-.43,.29c.29,.39-.63,.07-.74,.02-.54-.24-.91-.84-1.23-1.31,.29,.16,.54,.3,.73,.39,.51,.23,.9,.44,1.25,.9Z" style="fill:#375a64;"/><path d="M138.87,217.34c-.18-.69-.2-1.45,.45-1.54,.31-.04,.09-.46-.14-.47-.87-.03-1.14,.73-1.03,1.63-.4-.18-.78-.31-1.08-.37-.56-.11-.93-.12-1.12,.45-.11,.34,.16,.57,.14,.88-.03,.45,.42,.27-.26,.45-.17,.05-.59-.07-.79-.08-.69-.03-.75,.01-1.17,.36-.43,.36,.63,.53-.62,.33-.32-.05-.65-.21-.98-.14-.46,.1-.7,.24-.63,.75,.03,.23,.53,.53,.53,.68-.03,1.1-1.2,.17-1.65,0-.13-.05-.28,.03-.28,.17-.02,.55,.36,.74-.43,.79-.1,0-.64-.3-.82-.3-.51-.01-.98,.67-1.65,.61-.18-.02-.24,.15-.19,.3,.18,.5,.45,.8-.55,1.23-.02,0-1.18-.15-1.16-.15-.29,0-.1,.47,.12,.48,.46,.03,2.01,.69,2.47,.07,.34-.46-.33-.99-.16-1.28-.11,.19,.88-.27,.99-.31,.16-.06,.57-.22,.78-.21,.14,0,.26,.23,.4,.22,.19,0,.4,.09,.58-.01,.13-.08,.22-.32,.29-.37,.18-.12-.23-.26,.12-.38,.25-.09,.47,.17,.71,.24,.37,.12,.94,.4,1.26,0,.42-.52-.35-.89-.28-1.24,.16-.79,1.28-.19,1.8-.54,.08-.05,.1-.15,.07-.24-.32-1.09,1.65-.24,2.28-.35,.11-.02,.23-.09,.21-.23-.01-.1-.25-.67-.24-.68,.16-.65,1.05-.58,1.47-.47,.4,1.32,1.45,2.66,2.59,2.3,.08-.03,.15-.11,.14-.2-.08-.88-1.1-1.78-2.16-2.4Zm.41,1.09c-.04-.07-.09-.18-.15-.31,.38,.28,.74,.62,.8,.79,.22,.66-.55-.3-.65-.48Z" style="fill:#375a64;"/></g><g><path d="M156.32,224.43c-.44-.67-1.26-.94-1.96-1.26-.29-.13-.61-.31-.95-.48-.44-.71-1.03-1.87-.25-2.01,.46-.09,1.36,.4,1.87,.55,.28,.08,.22-.33,.02-.41-.86-.34-2.49-1.4-2.84,.06-.1,.39,0,.86,.2,1.34-.43-.17-.86-.27-1.26-.23-.4,.04-.75,.05-.89,.52-.08,.26,.03,.37,.05,.57,.03,.3,.32,.39,.41,.41-.05,0-.18-.02-.46-.03-.61-.02-2.26-.42-2.64,.33-.16,.31,.2,.74,.15,.86-.02,.05-1.2,.45-1.41,.58-.09,.06-.03,.38-.08,.41-.18,.1-1.39-.02-1.75,.01-.96,.08-3.34-.28-3.03,1.2,.03,.16,.16,.14,.19,.4,.02,.21,.05,.31,.07,.36-.03,0-.1,.02-.23,.2-.08,.11-.41,.08-.53,.23-.46,.57,.24,.77-.33,1.13-.8,.5-2.47-.51-3.28,.05-.72,.5,.22,1.94-1.06,1.96-.28,0-.12,.42,.1,.44,1.2,.1,1.07-.12,1.3-1.1,.37-1.59,2.75-.5,4.09-.86,.15-.04,.17-.23,.1-.35-.35-.57,.06-.88,.59-1.12,.15-.07,.17-.21,.1-.35-.14-.26-.65-1.05-.34-1.43,.07-.09,1.25-.16,1.42-.17,1.03-.06,2.07-.11,3.11-.05,.14,0,.26-.16,.2-.29-.15-.33,1.19-.55,1.49-.61,.12-.03,.17-.18,.13-.28-.64-1.59,1.72-1.01,2.7-.85,.19,.03,.33-.12,.27-.3-.15-.54-1.34-1.08,.07-1.27,.28-.04,.66,.08,1.08,.26,.65,1.09,1.73,2.15,2.46,2.53,.93,.49,1.87,.16,1.16-.92Zm-.43,.29c.29,.39-.63,.07-.74,.02-.54-.24-.91-.84-1.23-1.31,.29,.16,.54,.3,.73,.39,.51,.23,.9,.44,1.25,.9Z" style="fill:#375a64;"/><path d="M171.08,212.23c-.18-.69-.2-1.45,.45-1.54,.31-.04,.09-.46-.14-.47-.87-.03-1.14,.73-1.03,1.63-.4-.18-.78-.31-1.08-.37-.56-.11-.93-.12-1.12,.45-.11,.34,.16,.57,.14,.88-.03,.45,.42,.27-.26,.45-.17,.05-.59-.07-.79-.08-.69-.03-.75,.01-1.17,.36-.43,.36,.63,.53-.62,.33-.32-.05-.65-.21-.98-.14-.46,.1-.7,.24-.63,.75,.03,.23,.53,.53,.53,.68-.03,1.1-1.2,.17-1.65,0-.13-.05-.28,.03-.28,.17-.02,.55,.36,.74-.43,.79-.1,0-.64-.3-.82-.3-.51-.01-.98,.67-1.64,.61-.18-.02-.24,.15-.19,.3,.18,.5,.45,.8-.55,1.23-.02,0-1.18-.15-1.16-.15-.29,0-.1,.47,.12,.48,.46,.03,2.01,.69,2.47,.07,.34-.46-.33-.99-.16-1.28-.11,.19,.88-.27,.99-.31,.16-.06,.57-.22,.78-.21,.14,0,.26,.23,.4,.22,.19,0,.4,.09,.58-.01,.13-.08,.22-.32,.29-.37,.18-.12-.23-.26,.12-.38,.25-.09,.47,.17,.71,.24,.37,.12,.94,.4,1.26,0,.42-.52-.35-.89-.28-1.24,.16-.79,1.28-.19,1.8-.54,.08-.05,.1-.15,.07-.24-.32-1.09,1.65-.24,2.28-.35,.11-.02,.23-.09,.21-.23-.01-.1-.25-.67-.24-.68,.16-.65,1.05-.58,1.47-.47,.4,1.32,1.45,2.66,2.59,2.3,.08-.03,.15-.11,.14-.2-.08-.88-1.1-1.78-2.16-2.4Zm.41,1.09c-.04-.07-.09-.18-.15-.31,.38,.28,.74,.62,.8,.79,.22,.66-.55-.3-.65-.48Z" style="fill:#375a64;"/></g><g><path d="M127.42,187.62c-.44-.67-1.26-.94-1.96-1.26-.29-.13-.61-.31-.95-.48-.44-.71-1.03-1.87-.25-2.01,.46-.09,1.36,.4,1.87,.55,.28,.08,.22-.33,.02-.41-.86-.34-2.49-1.4-2.84,.06-.1,.39,0,.86,.2,1.34-.43-.17-.86-.27-1.26-.23-.4,.04-.75,.05-.89,.52-.08,.26,.03,.37,.05,.57,.03,.3,.32,.39,.41,.41-.05,0-.18-.02-.46-.03-.61-.02-2.26-.42-2.64,.33-.16,.31,.2,.74,.15,.86-.02,.05-1.2,.45-1.41,.58-.09,.06-.03,.38-.08,.41-.18,.1-1.39-.02-1.75,.01-.96,.08-3.34-.28-3.03,1.2,.03,.16,.16,.14,.19,.4,.02,.21,.05,.31,.07,.36-.03,0-.1,.02-.23,.2-.08,.11-.41,.08-.53,.23-.46,.57,.24,.77-.33,1.13-.8,.5-2.47-.51-3.28,.05-.72,.5,.22,1.94-1.06,1.96-.28,0-.12,.42,.1,.44,1.2,.1,1.07-.12,1.3-1.1,.37-1.59,2.75-.5,4.09-.86,.15-.04,.17-.23,.1-.35-.35-.57,.06-.88,.59-1.12,.15-.07,.17-.21,.1-.35-.14-.26-.65-1.05-.34-1.43,.07-.09,1.25-.16,1.42-.17,1.03-.06,2.07-.11,3.11-.05,.14,0,.26-.16,.2-.29-.15-.33,1.19-.55,1.49-.61,.12-.03,.17-.18,.13-.28-.64-1.59,1.72-1.01,2.7-.85,.19,.03,.33-.12,.27-.3-.15-.54-1.34-1.08,.07-1.27,.28-.04,.66,.08,1.08,.26,.65,1.09,1.73,2.15,2.46,2.53,.93,.49,1.87,.16,1.16-.92Zm-.43,.29c.29,.39-.63,.07-.74,.02-.54-.24-.91-.84-1.23-1.31,.29,.16,.54,.3,.73,.39,.51,.23,.9,.44,1.25,.9Z" style="fill:#375a64;"/><path d="M103.41,197.74c-.18-.69-.2-1.45,.45-1.54,.31-.04,.09-.46-.14-.47-.87-.03-1.14,.73-1.03,1.63-.4-.18-.78-.31-1.08-.37-.56-.11-.93-.12-1.12,.45-.11,.34,.16,.57,.14,.88-.03,.45,.42,.27-.26,.45-.17,.05-.59-.07-.79-.08-.69-.03-.75,.01-1.17,.36-.43,.36,.63,.53-.62,.33-.32-.05-.65-.21-.98-.14-.46,.1-.7,.24-.63,.75,.03,.23,.53,.53,.53,.68-.03,1.1-1.2,.17-1.65,0-.13-.05-.28,.03-.28,.17-.02,.55,.36,.74-.43,.79-.1,0-.64-.3-.82-.3-.51-.01-.98,.67-1.64,.61-.18-.02-.24,.15-.19,.3,.18,.5,.45,.8-.55,1.23-.02,0-1.18-.15-1.16-.15-.29,0-.1,.47,.12,.48,.46,.03,2.01,.69,2.47,.07,.34-.46-.33-.99-.16-1.28-.11,.19,.88-.27,.99-.31,.16-.06,.57-.22,.78-.21,.14,0,.26,.23,.4,.22,.19,0,.4,.09,.58-.01,.13-.08,.22-.32,.29-.37,.18-.12-.23-.26,.12-.38,.25-.09,.47,.17,.71,.24,.37,.12,.94,.4,1.26,0,.42-.52-.35-.89-.28-1.24,.16-.79,1.28-.19,1.8-.54,.08-.05,.1-.15,.07-.24-.32-1.09,1.65-.24,2.28-.35,.11-.02,.23-.09,.21-.23-.01-.1-.25-.67-.24-.68,.16-.65,1.05-.58,1.47-.47,.4,1.32,1.45,2.66,2.59,2.3,.08-.03,.15-.11,.14-.2-.08-.88-1.1-1.78-2.16-2.4Zm.41,1.09c-.04-.07-.09-.18-.15-.31,.38,.28,.74,.62,.8,.79,.22,.66-.55-.3-.65-.48Z" style="fill:#375a64;"/></g><g><path d="M120.85,204.83c-.44-.67-1.26-.94-1.96-1.26-.29-.13-.61-.31-.95-.48-.44-.71-1.03-1.87-.25-2.01,.46-.09,1.36,.4,1.87,.55,.28,.08,.22-.33,.02-.41-.86-.34-2.49-1.4-2.84,.06-.1,.39,0,.86,.2,1.34-.43-.17-.86-.27-1.26-.23-.4,.04-.75,.05-.89,.52-.08,.26,.03,.37,.05,.57,.03,.3,.32,.39,.41,.41-.05,0-.18-.02-.46-.03-.61-.02-2.26-.42-2.64,.33-.16,.31,.2,.74,.15,.86-.02,.05-1.2,.45-1.41,.58-.09,.06-.03,.38-.08,.41-.18,.1-1.39-.02-1.75,.01-.96,.08-3.34-.28-3.03,1.2,.03,.16,.16,.14,.19,.4,.02,.21,.05,.31,.07,.36-.03,0-.1,.02-.23,.2-.08,.11-.41,.08-.53,.23-.46,.57,.24,.77-.33,1.13-.8,.5-2.47-.51-3.28,.05-.72,.5,.22,1.94-1.06,1.96-.28,0-.12,.42,.1,.44,1.2,.1,1.07-.12,1.3-1.1,.37-1.59,2.75-.5,4.09-.86,.15-.04,.17-.23,.1-.35-.35-.57,.06-.88,.59-1.12,.15-.07,.17-.21,.1-.35-.14-.26-.65-1.05-.34-1.43,.07-.09,1.25-.16,1.42-.17,1.03-.06,2.07-.11,3.11-.05,.14,0,.26-.16,.2-.29-.15-.33,1.19-.55,1.49-.61,.12-.03,.17-.18,.13-.28-.64-1.59,1.72-1.01,2.7-.85,.19,.03,.33-.12,.27-.3-.15-.54-1.34-1.08,.07-1.27,.28-.04,.66,.08,1.08,.26,.65,1.09,1.73,2.15,2.46,2.53,.93,.49,1.87,.16,1.16-.92Zm-.43,.29c.29,.39-.63,.07-.74,.02-.54-.24-.91-.84-1.23-1.31,.29,.16,.54,.3,.73,.39,.51,.23,.9,.44,1.25,.9Z" style="fill:#375a64;"/><path d="M135.61,192.63c-.18-.69-.2-1.45,.45-1.54,.31-.04,.09-.46-.14-.47-.87-.03-1.14,.73-1.03,1.63-.4-.18-.78-.31-1.08-.37-.56-.11-.93-.12-1.12,.45-.11,.34,.16,.57,.14,.88-.03,.45,.42,.27-.26,.45-.17,.05-.59-.07-.79-.08-.69-.03-.75,.01-1.17,.36-.43,.36,.63,.53-.62,.33-.32-.05-.65-.21-.98-.14-.46,.1-.7,.24-.63,.75,.03,.23,.53,.53,.53,.68-.03,1.1-1.2,.17-1.65,0-.13-.05-.28,.03-.28,.17-.02,.55,.36,.74-.43,.79-.1,0-.64-.3-.82-.3-.51-.01-.98,.67-1.64,.61-.18-.02-.24,.15-.19,.3,.18,.5,.45,.8-.55,1.23-.02,0-1.18-.15-1.16-.15-.29,0-.1,.47,.12,.48,.46,.03,2.01,.69,2.47,.07,.34-.46-.33-.99-.16-1.28-.11,.19,.88-.27,.99-.31,.16-.06,.57-.22,.78-.21,.14,0,.26,.23,.4,.22,.19,0,.4,.09,.58-.01,.13-.08,.22-.32,.29-.37,.18-.12-.23-.26,.12-.38,.25-.09,.47,.17,.7,.24,.37,.12,.94,.4,1.26,0,.42-.52-.35-.89-.28-1.24,.16-.79,1.28-.19,1.8-.54,.08-.05,.1-.15,.07-.24-.32-1.09,1.65-.24,2.28-.35,.11-.02,.23-.09,.21-.23-.01-.1-.25-.67-.24-.68,.16-.65,1.05-.58,1.47-.47,.4,1.32,1.45,2.66,2.59,2.3,.08-.03,.15-.11,.14-.2-.08-.88-1.1-1.78-2.16-2.4Zm.41,1.09c-.04-.07-.09-.18-.15-.31,.38,.28,.74,.62,.8,.79,.22,.66-.55-.3-.65-.48Z" style="fill:#375a64;"/></g><g><path d="M124.5,216.67c-.44-.67-1.26-.94-1.96-1.26-.29-.13-.61-.31-.95-.48-.44-.71-1.03-1.87-.25-2.01,.46-.09,1.36,.4,1.87,.55,.28,.08,.22-.33,.02-.41-.86-.34-2.49-1.4-2.84,.06-.1,.39,0,.86,.2,1.34-.43-.17-.86-.27-1.26-.23-.4,.04-.75,.05-.89,.52-.08,.26,.03,.37,.05,.57,.03,.3,.32,.39,.41,.41-.05,0-.18-.02-.46-.03-.61-.02-2.26-.42-2.64,.33-.16,.31,.2,.74,.15,.86-.02,.05-1.2,.45-1.41,.58-.09,.06-.03,.38-.08,.41-.18,.1-1.39-.02-1.75,.01-.96,.08-3.34-.28-3.03,1.2,.03,.16,.16,.14,.19,.4,.02,.21,.05,.31,.07,.36-.03,0-.1,.02-.23,.2-.08,.11-.41,.08-.53,.23-.46,.57,.24,.77-.33,1.13-.8,.5-2.47-.51-3.28,.05-.72,.5,.22,1.94-1.06,1.96-.28,0-.12,.42,.1,.44,1.2,.1,1.07-.12,1.3-1.1,.37-1.59,2.75-.5,4.09-.86,.15-.04,.17-.23,.1-.35-.35-.57,.06-.88,.59-1.12,.15-.07,.17-.21,.1-.35-.14-.26-.65-1.05-.34-1.43,.07-.09,1.25-.16,1.42-.17,1.03-.06,2.07-.11,3.11-.05,.14,0,.26-.16,.2-.29-.15-.33,1.19-.55,1.49-.61,.12-.03,.17-.18,.13-.28-.64-1.59,1.72-1.01,2.7-.85,.19,.03,.33-.12,.27-.3-.15-.54-1.34-1.08,.07-1.27,.28-.04,.66,.08,1.08,.26,.65,1.09,1.73,2.15,2.46,2.53,.93,.49,1.87,.16,1.16-.92Zm-.43,.29c.29,.39-.63,.07-.74,.02-.54-.24-.91-.84-1.23-1.31,.29,.16,.54,.3,.73,.39,.51,.23,.9,.44,1.25,.9Z" style="fill:#375a64;"/><path d="M136.19,205.55c-.18-.69-.2-1.45,.45-1.54,.31-.04,.09-.46-.14-.47-.87-.03-1.14,.73-1.03,1.63-.4-.18-.78-.31-1.08-.37-.56-.11-.93-.12-1.12,.45-.11,.34,.16,.57,.14,.88-.03,.45,.42,.27-.26,.45-.17,.05-.59-.07-.79-.08-.69-.03-.75,.01-1.17,.36-.43,.36,.63,.53-.62,.33-.32-.05-.65-.21-.98-.14-.46,.1-.7,.24-.63,.75,.03,.23,.53,.53,.53,.68-.03,1.1-1.2,.17-1.65,0-.13-.05-.28,.03-.28,.17-.02,.55,.36,.74-.43,.79-.1,0-.64-.3-.82-.3-.51-.01-.98,.67-1.64,.61-.18-.02-.24,.15-.19,.3,.18,.5,.45,.8-.55,1.23-.02,0-1.18-.15-1.16-.15-.29,0-.1,.47,.12,.48,.46,.03,2.01,.69,2.47,.07,.34-.46-.33-.99-.16-1.28-.11,.19,.88-.27,.99-.31,.16-.06,.57-.22,.78-.21,.14,0,.26,.23,.4,.22,.19,0,.4,.09,.58-.01,.13-.08,.22-.32,.29-.37,.18-.12-.23-.26,.12-.38,.25-.09,.47,.17,.71,.24,.37,.12,.94,.4,1.26,0,.42-.52-.35-.89-.28-1.24,.16-.79,1.28-.19,1.8-.54,.08-.05,.1-.15,.07-.24-.32-1.09,1.65-.24,2.28-.35,.11-.02,.23-.09,.21-.23-.01-.1-.25-.67-.24-.68,.16-.65,1.05-.58,1.47-.47,.4,1.32,1.45,2.66,2.59,2.3,.08-.03,.15-.11,.14-.2-.08-.88-1.1-1.78-2.16-2.4Zm.41,1.09c-.04-.07-.09-.18-.15-.31,.38,.28,.74,.62,.8,.79,.22,.66-.55-.3-.65-.48Z" style="fill:#375a64;"/><path d="M149.58,196.54c.01-.09,.02-.18,0-.26-.19-.68-.97-.17-1.1,.24-.11,.34,.16,.57,.14,.88-.03,.45,.42,.27-.26,.45-.17,.05-.59-.07-.79-.08-.69-.03-.75,.01-1.17,.36-.43,.36,.63,.53-.62,.33-.32-.05-.65-.21-.98-.14-.46,.1-.7,.24-.63,.75,.03,.23,.53,.53,.53,.68-.03,1.1-1.2,.17-1.65,0-.13-.05-.28,.03-.28,.17-.02,.55,.36,.74-.43,.79-.1,0-.64-.3-.82-.3-.51-.01-.98,.67-1.65,.61-.18-.02-.24,.15-.19,.3,.18,.5,.45,.8-.55,1.23-.02,0-1.18-.15-1.16-.15-.29,0-.1,.47,.12,.48,.46,.03,2.01,.69,2.47,.07,.34-.46-.33-.99-.16-1.28-.11,.19,.88-.27,.99-.31,.16-.06,.57-.22,.78-.21,.14,0,.26,.23,.4,.22,.19,0,.4,.09,.58-.01,.13-.08,.22-.32,.29-.37,.18-.12-.23-.26,.12-.38,.25-.09,.47,.17,.7,.24,.37,.12,.94,.4,1.26,0,.42-.52-.35-.89-.28-1.24,.16-.79,1.28-.19,1.8-.54,.08-.05,.1-.15,.07-.24-.32-1.09,1.65-.24,2.28-.35,.11-.02,.23-.09,.21-.23-.06-.51-.23-.86-.09-1.4,.03-.1,.06-.21,.08-.32Z" style="fill:#375a64;"/></g></g></g><g id="g"><path d="M75.47,64.53c3.23,3.86,8.56,9.07,11.59,12.87,1.59,1.99,2.49,4.47,2.45,7.02-.03,1.89-.54,3.47-2.39,2.67-1.34-.58-2.19-1.28-4.14-3.2-1.75-1.73-10.24-9.68-10.24-9.68,0,0-1.59-9.77-4.21-10.57-2.62-.8-4.85-4.98-4.85-4.98,4.28-.43,7.69,.97,11.78,5.87Z" style="fill:#d19c5e;"/><g><path d="M104.99,165.42l15.16,22.19c.44,.65,1.45,.36,1.49-.42l1.48-26.98-18.12,5.21Z" style="fill:#a37c58;"/><path d="M121.64,187.19c-.04,.78-1.05,1.06-1.49,.42l-2.96-4.33h0c1.65,.38,3.38-.2,4.47-1.5l.3-.35-.32,5.77Z" style="fill:#1a2e35;"/><path d="M92.66,51.03l.67,2.4,.82,2.89,28.97,103.89c-1.31,2.73-3.85,4.63-6.66,5.71-4.27,1.67-9.18,1.47-11.45-.5l-28.76-103.12-1.54-5.53c1.2,3.52,19.11-2.19,17.96-5.74Z" style="fill:#ffc700;"/><path d="M95.23,60.14l1.48,5.35c.48,1.54-2.55,3.45-6.27,4.85-4.94,1.88-11.09,2.85-11.73,.82l-1.1-3.94-.37-1.42c.64,2.04,6.79,1.06,11.73-.81,3.56-1.35,6.5-3.18,6.28-4.68v-.02c0-.05-.01-.1-.03-.16Z" style="fill:#efefef; isolation:isolate;"/><path d="M95.59,61.48c1.12,3.57-16.86,9.24-17.98,5.67l-1.5-5.35c1.12,3.57,19.11-2.1,17.98-5.67l1.5,5.35Z" style="fill:#5254cf;"/><path d="M92.66,51.03l1.48,5.28c1.13,3.5-16.18,9.14-17.9,5.98-.04-.05-.06-.12-.09-.19l-1.45-5.33c1.2,3.52,19.11-2.19,17.96-5.74Z" style="fill:#efefef; isolation:isolate;"/><path d="M75.83,62.45l-1.58-5.51c.55,1.59,4.5,1.26,8.56,.11h0s30.54,109.69,30.54,109.69l7.25,20.71-15.31-22.08h.01s0,0,0,0l-29.48-102.92Z" style="fill:#1d1d1b; isolation:isolate; opacity:.1;"/><path d="M86.38,28.61l6.28,22.42c.49,1.52-2.49,3.43-6.18,4.84-4.93,1.89-11.1,2.91-11.78,.89t-.01-.02l-6.03-21.57c-1.82-4.91,7.09-9.75,13.03-9.38,2.22,.12,4.01,.97,4.7,2.81Z" style="fill:#f66;"/></g><g><path d="M60.07,55.1h0c-7,0-12.68-5.67-12.68-12.68v-.7c0-5.93,4.81-10.74,10.74-10.74h3.87c5.93,0,10.74,4.81,10.74,10.74v.7c0,7-5.67,12.68-12.68,12.68Z" style="fill:#1d1d1b;"/><path d="M42.25,56.39h0c3.18,0,5.76-2.58,5.76-5.76v-11.45h0c-3.18,0-5.76,2.58-5.76,5.76v11.45Z" style="fill:#1d1d1b;"/><path d="M73.12,180.49c1.47,1.61,3.09,2.9,4.84,4.21,.26,.2,.53,.4,.67,.69,.23,.47,.58,1.65-1.58,2.4-2.11,.74-4.75,.56-6.67-.64-1.78-1.11-1.86-3.42-3.53-4.74-1.24-.98-2.79-1.23-3.8-2.5-.7-.89-.52-2.07-.15-3.54,.4-1.6,.58-2.81,1.11-2.69l-.09,.74c.66,1.05,4.08,1.36,5.61,.64,0,0,2.64,4.38,3.6,5.43Z" style="fill:#1a2e35;"/><path d="M74.62,181.98s0,0,0-.01c-.51-.47-1.02-.96-1.5-1.49-.62-.68-1.93-2.74-2.79-4.12-.52-.84-1.17-1.9-1.19-3.01-.04-1.41,.1-3.93,.1-3.93l-5.07-.33-.25,5.32h0c-.13,1.2,.86,2.27,2.63,3.79,1.76,1.52,4.01,5.07,5.6,5.96s2.74,.86,3.42,.4c.7-.47,.77-.83-.95-2.59Z" style="fill:#ffaaa8;"/><path d="M56.24,185.55c1.47,1.61,3.09,2.9,4.84,4.21,.26,.2,.53,.4,.67,.69,.23,.47,.58,1.65-1.58,2.4-2.11,.74-4.75,.56-6.67-.64-1.78-1.11-1.86-3.42-3.53-4.74-1.24-.98-2.79-1.23-3.8-2.5-.7-.89-.52-2.07-.15-3.54,.4-1.6,.58-2.81,1.11-2.69l-.09,.74c.66,1.05,4.08,1.36,5.61,.64,0,0,2.64,4.38,3.6,5.43Z" style="fill:#1a2e35;"/><path d="M57.74,187.05s0,0,0-.01c-.51-.47-1.02-.96-1.5-1.49-.62-.68-1.93-2.74-2.79-4.12-.52-.84-1.11-1.95-1.19-3.06-.09-1.24-.03-3.82-.03-3.82l-5.07,.03-.13,4.9h0c-.13,1.2,.86,2.27,2.63,3.79,1.76,1.52,4.01,5.07,5.6,5.96s2.74,.86,3.42,.4c.7-.47,.77-.83-.95-2.59Z" style="fill:#ffaaa8;"/><path d="M47.11,92.45c-4.42,9.65,.61,46.23,.61,46.23-.13,1.57-1.51,4-1.68,8.78-.21,6.14,.88,28.81,.88,28.81,0,0,2.66,1.61,5.78,.12,0,0,5.23-30.77,6.25-38.87,.89-7.07,2.6-23.67,2.6-23.67l3.52,23.63s-1.81,3.95-1.9,7.51c-.13,4.78,.58,26.98,.58,26.98,0,0,2.14,.75,5.87,.2,0,0,5.32-30.04,5.82-35.77,.3-3.42-2.26-45.4-2.26-45.4l-26.08,1.45Z" style="fill:#9f9ef2;"/><path d="M61.55,113.84l1.43-7.89s6.07-1.26,8.82-3.84c0,0-2.89,3.59-7.18,4.77l-1.61,6.9,1.59,20.62-3.06-20.55Z" style="fill:#5254cf; opacity:.4;"/><path d="M55.73,58.89h0c-3.88,.54-5.95,1.39-7.21,5.03-.82,2.38-.6,5.89,.23,8.27l3.39,9.9s-3.34,5.21-5.03,10.35c9.9,5.53,23.1,2.59,26.08-1.45,.13-.86-.68-4.99-.44-9.38,.26-4.68,1.01-10.05,.27-12.95-1.37-5.37-5.11-8.88-9.33-10.01l-7.96,.22Z" style="fill:#ffe092;"/><path d="M68.59,36.11c1.34,.79,2.99,4.16,2.83,11.22-.14,5.98-2.08,7.46-3.05,7.89s-2.85,.17-4.68-.14v3.59s2.52,2.93,2.36,4.58c-.16,1.65-3.64,2.04-6,.43-2.36-1.61-3.88-4.06-3.88-4.06v-8.68s-1.23,1.65-3.25,.31c-2.02-1.34-2.09-4.65-.92-5.84,1.17-1.19,3.7-.81,4.17,.83,0,0,2.91,.11,6.79-2.02,3.88-2.13,5.37-5.78,5.62-8.1Z" style="fill:#d19c5e;"/><path d="M64.74,45.82c.02,.43-.3,.8-.71,.82-.42,.02-.77-.31-.79-.75-.02-.43,.3-.8,.71-.82,.42-.02,.77,.31,.79,.75Z" style="fill:#1d1d1b;"/><path d="M64.94,50.9l1.75,.56c-.15,.5-.65,.78-1.14,.63-.48-.15-.76-.68-.61-1.18Z" style="fill:#a37c58;"/><path d="M70.9,43.51l-1.52-1.06c.28-.43,.84-.55,1.26-.26,.42,.29,.54,.88,.26,1.31Z" style="fill:#1d1d1b;"/><path d="M70.55,45.28c.02,.43-.3,.8-.71,.82-.42,.02-.77-.31-.79-.74-.02-.43,.3-.8,.71-.82,.42-.02,.77,.31,.79,.75Z" style="fill:#1d1d1b;"/><polygon points="67 44.85 67.12 49.38 69.51 48.64 67 44.85" style="fill:#a37c58;"/><path d="M63.69,55.08c-1.92-.25-5.88-1.39-6.5-2.95,0,0,.21,.98,1.39,2,1.18,1.01,5.11,2.16,5.11,2.16v-1.2Z" style="fill:#a37c58;"/></g><path d="M94.14,88.05c-1.18,.44-2.36,.47-3.96,1.23-1.41,.67-2.01,.92-3.46,.99-1.58,.08-5.99-1.8-9.87-3.61-4.58-2.13-9.44-5.98-11.32-8.1-3.8-4.29-7.05-9.67-8.72-12.54-1.38-2.36-2.8-5.8-4.98-6.23-3.81,.4-5.36,7.04-2.89,11.14,2.47,4.1,6.87,9.47,11.56,14.02,2.27,2.2,6.44,4.59,12.4,7.14,4.5,1.93,8.11,3.12,12.04,4.15,1.19,.31,2.04,.75,4.28,1.52,.9,.31,1.89,.68,2.84,.7,1.21,.03,2.43-.07,3.61-.39,1.48-.4,2.88-1.13,3.95-2.23,.59-.6,1.07-1.32,1.32-2.13,.25-.8,.25-1.7-.08-2.47-.07-.16-.15-.31-.29-.42-.25-.18-.59-.15-.89-.11-1.7,.25-3.51,.77-5.22,.83-1.45,.06-2.48-.11-2.3-.33,.18-.23,1.04-.2,2.14-.82,1.05-.6,1.73-1.81,1.35-2.37-.38-.56-.32-.45-1.5,0Z" style="fill:#d19c5e;"/><path d="M97.35,72.04s-1.58-1.25-4.57-.76c-1.45,.24-.9,5.73,3.77,7.26,3.04,.99,3.65,.48,4.63,2.98,0,0,1.83-.38,1.39-3.17-.45-2.79-1.66-5.34-3.7-7.74-1.34-1.58-1.43-2.91-2.08-2.46-.74,.51-.29,1.81-.29,1.81l.86,2.08Z" style="fill:#d19c5e;"/></g><g><path id="h" d="M243.61,127.13c-9.37-3.75-24.31-3.75-33.37,0-9.06,3.75-9.06,9.83,0,13.59,9.06,3.75,24,3.75,33.37,0,9.37-3.75,9.37-9.83,0-13.59Z" style="fill:#e1e1e1;"/><g id="i"><path d="M243.28,91.28c-9.18-3.38-23.82-3.38-32.7,0-8.88,3.38-8.88,8.86,0,12.24,8.88,3.38,23.51,3.38,32.7,0,9.18-3.38,9.18-8.86,0-12.24Z" style="fill:#1a2e35;"/><path d="M250.9,76.42l-47.7,.05,3.61,56.19h.05c.23,2.05,2.14,4.07,5.78,5.63,7.77,3.33,20.58,3.33,28.61,0,3.77-1.56,5.75-3.58,5.98-5.63h.05l3.62-56.25Z" style="fill:#d0d0fc;"/><path d="M203.2,76.47l.73,11.41c1.1,.76,2.4,1.48,3.98,2.14,10.31,4.27,27.32,4.27,37.99,0,.46-.18,.85-.39,1.26-.58,1.7-.8,2.99-1.68,2.99-1.68l.73-11.34-47.7,.05Z" style="fill:#1d1d1b; isolation:isolate; opacity:.3;"/><g><path d="M253.91,78.08v-8.59h-5.56c-.74-.39-1.55-.77-2.44-1.12-10.67-4.27-27.68-4.27-37.99,0-.86,.36-1.62,.74-2.33,1.12h-5.4v8.59h0c0,2.8,2.58,5.6,7.74,7.73,10.31,4.27,27.32,4.27,37.99,0,5.33-2.14,8-4.94,8-7.73Z" style="fill:#5254cf;"/><path d="M245.91,61.75c-10.67-4.27-27.68-4.27-37.99,0-10.31,4.27-10.31,11.2,0,15.47,10.31,4.27,27.32,4.27,37.99,0,10.67-4.27,10.67-11.2,0-15.47Z" style="fill:#00dfbf;"/><path d="M245.91,61.75c-10.67-4.27-27.68-4.27-37.99,0-10.31,4.27-10.31,11.2,0,15.47,10.31,4.27,27.32,4.27,37.99,0,10.67-4.27,10.67-11.2,0-15.47Z" style="fill:#9f9ef2;"/><path d="M247.06,67.07h0l-2.15-7.85h-35.73l-2.15,7.85h0c-.8,2.23,1.08,4.57,5.63,6.29,7.76,2.92,20.55,2.92,28.57,0,4.72-1.71,6.66-4.06,5.83-6.29Z" style="fill:#5254cf;"/><path d="M239.66,55.22c-7.13-2.59-18.51-2.59-25.41,0-6.9,2.59-6.9,6.8,0,9.4,6.9,2.59,18.27,2.59,25.41,0,7.13-2.59,7.13-6.8,0-9.4Z" style="fill:#9f9ef2;"/><path d="M242.54,59.92c-.01,.1-.2,.43-.79,.89-.56,.42-1.48,.95-2.93,1.48-3.15,1.14-7.51,1.8-11.95,1.8s-8.73-.65-11.75-1.79c-1.42-.53-2.31-1.07-2.83-1.49-.58-.47-.74-.81-.74-.9,0-.17,.62-1.27,3.57-2.38,3.03-1.14,7.31-1.79,11.75-1.79s8.8,.65,11.95,1.8c2.96,1.07,3.7,2.16,3.72,2.38Z" style="fill:#5254cf;"/><g style="opacity:.1;"><path d="M241.75,60.81c-.56,.42-1.48,.95-2.93,1.48-3.15,1.14-7.51,1.8-11.95,1.8s-8.73-.65-11.75-1.79c-1.42-.53-2.31-1.07-2.83-1.49,.52-.42,1.41-.96,2.83-1.49,3.03-1.14,7.31-1.79,11.75-1.79s8.8,.65,11.95,1.8c1.44,.53,2.37,1.05,2.93,1.48Z"/></g><path d="M234.6,60.97c1.04-.59,2.3-.83,2.82-.54,.52,.29,.1,1.01-.94,1.61-1.04,.6-2.3,.84-2.82,.54-.52-.3-.1-1.02,.94-1.61Z" style="fill:#394547;"/></g><path d="M205.27,117.76c0,2.09,2.09,4.17,6.27,5.77,8.36,3.19,22.15,3.18,30.8,0,4.32-1.59,6.48-3.67,6.49-5.76l1.34-20.37c0,2.22-2.3,4.43-6.89,6.12-9.18,3.38-23.82,3.38-32.7,0-4.44-1.69-6.66-3.91-6.66-6.12l1.34,20.36Z" style="fill:#393a8f;"/><g><path d="M224.16,118.97c-.78-1.04-1.21-2.33-1.83-3.46-1.25-2.25-3.04-3.78-5.33-4.69-.31-.12-.68,0-.83,.3-1.16,2.36-.45,5.66,1.95,8.06,2.37,2.37,5.64,3.11,8,2,.13-.06,.17-.32,.06-.39-.76-.44-1.43-1.04-2.02-1.82Z" style="fill:#ffc700;"/><path d="M218.27,110.17c1.24,.47,2.39,1.21,3.36,2.07,1.04,.91,1.84,2.08,2.43,3.33,.89,1.9,1.75,3.07,3.06,4.05,.29,.21,.72,.16,.92-.14,1.57-2.37,.94-6-1.64-8.58-2.45-2.45-5.85-3.15-8.21-1.89-.48,.25-.42,.98,.09,1.17Z" style="fill:#ffc700;"/></g></g></g></svg>