<?xml version="1.0" encoding="UTF-8"?><svg id="a" xmlns="http://www.w3.org/2000/svg" xmlns:xlink="http://www.w3.org/1999/xlink" viewBox="0 0 300 300"><defs><radialGradient id="b" cx="97.83" cy="85.78" fx="97.83" fy="85.78" r="113.11" gradientUnits="userSpaceOnUse"><stop offset="0" stop-color="#a6ce39"/><stop offset="1" stop-color="#00a651"/></radialGradient><radialGradient id="c" cx="97.82" cy="85.79" fx="97.82" fy="85.79" r="113.11" xlink:href="#b"/><radialGradient id="d" cx="97.81" cy="85.78" fx="97.81" fy="85.78" r="113.11" xlink:href="#b"/><radialGradient id="e" cx="97.83" cy="85.78" fx="97.83" fy="85.78" r="113.1" xlink:href="#b"/><radialGradient id="f" cx="97.83" cy="85.78" fx="97.83" fy="85.78" r="113.11" xlink:href="#b"/><radialGradient id="g" cx="97.83" cy="85.78" fx="97.83" fy="85.78" r="113.11" xlink:href="#b"/><radialGradient id="h" cx="97.86" cy="85.75" fx="97.86" fy="85.75" r="113.1" xlink:href="#b"/><radialGradient id="i" cx="97.85" cy="85.78" fx="97.85" fy="85.78" r="113.08" xlink:href="#b"/></defs><g><path d="M156.63,243.37c57.83,0,105-47.17,105-105s-47.17-105-105-105S51.63,80.54,51.63,138.37s47.17,105,105,105Z" style="fill:#d0d0fc; fill-rule:evenodd;"/><g><path d="M211.57,54.45c.15,.35,.34,.64,.64,.9,.34,.51,.97,.13,1.12-.68,.23-1.39,.47-2.8,.72-4.21-1.41-.92-2.85-1.81-4.3-2.67,.24,1.15,.47,2.28,.73,3.41,.26,1.16,.56,2.28,1.09,3.25Z" style="fill:url(#b);"/><path d="M177.61,162.2c-.19,.48-.64,2.09-.56,2.64,.03,.57,.53,1.09,.99,.25,.03-.06,.06-.12,.09-.19,1.69-3.73,.52-3.41,.52-3.41-.09-.02-.36,.05-.62,.22-.17,.12-.34,.28-.43,.49Z" style="fill:url(#c);"/><path d="M245.42,88.48c-.48-1.73-.25-3.68,.36-5.6-.69-1.11-1.4-2.21-2.13-3.29-2.23,6.78-2.13,9.43-.32,11.21,1.8,1.77,3.71,3.79,2.1-2.32Z" style="fill:url(#d);"/><path d="M161.81,103.72c-.26,.42,1.5,.26,2.06,.48,.49,.22,.97,1.06,1.5,1.48,.27,.18,.94-.2,1.72-.75,.97-.68,2.12-1.61,2.93-2.04,.05-.03,.1-.05,.15-.07,.54-.26,.93-.58,1.24-.94,.54-.63,.81-1.39,1.12-2.15,0,0,0-2.41-.19-3.12-.17-.73-.65-1.09-.93-1.53-.03-.05-.06-.09-.08-.14-.34-.51-1.09,.64-1.31,1.48h0c-.26,.81-.56,.1-.86-.42-.41-.48-.79-.45-1.65,.61-.21,.25-.34,.41-.41,.49-.18,.2-.07,0,0-.35,.02-.12,.04-.26,.04-.4,0-.12-.02-.2-.04-.25-.14-.24-.6,.52-1.05,1.6-.56,1.22-.67-.87-.49-1.8,.15-.93-.64-1.25-.93-1.09-.34,.16-1.16,1.13-2.06,2.44-.97,1.35-.19,1.09,.08,1.19,.34,0,1.38-.22,1.42,.32,.15,.48-.94,.8-1.98,.9-1.09,.1,.19,.87,.9,.93,.82,.06,.26,1.16,.15,1.74-.15,.55-1.09,.93-1.31,1.38Z" style="fill:url(#e);"/><path d="M165.11,137.82c.66-.02,1.37-.36,1.98-.69,.64-.34,1.18-.68,1.46-.63,.39,.05,1.04-.73,1.46-1.79,.14-.36,.26-.74,.33-1.14,.19-.98,.78-1.73,1.05-2.41,.17-.41,.22-.8,0-1.21h0c-.32-.56-.89-.66-1.38-.59-.15,.02-.29,.05-.41,.1-.37,.06-.64,.48-.64,.93-.04,.42-.15,.77-.86,.74-.38-.02-.73-.07-1.01-.11-.55-.07-.88-.08-.86,.3,.04,.61,.15,2.35-.15,3.15-.26,.8-2.21,3.38-.97,3.34Z" style="fill:url(#f);"/><path d="M176.75,138.59c.52-.61,1.53-2.48,.79-2.54-.79-.1-1.16-1.41-1.01-1.93,.19-.55-.49-2.15-.34-3.18,.11-1.06,.37-1.8-.15-2.51-.49-.77-.08-1.29,.56-2.38,.71-1.19,1.27-2.25,0-2.41-1.27-.16-.97-.74-.19-1.64,.75-.84,.78-1.61-.19-1.51-.97,.03-2.13,1.41-2.4,1.96-.23,.55-.34,.9-.64,1.19-.34,.19-1.05,1.25-.71,1.29,.41,.06,.37,.55,0,.96-.41,.42-.49,1.09-.37,1.09,.22,.03,.67,.93,.08,.87-.32-.05-.63,.03-.78,.17-.11,.1-.13,.23,0,.35,.04,.04,.1,.08,.18,.12,.56,.42,1.16,.45,1.16,.45,0,0,.64,.26,.11,.67-.52,.42-1.27,1.8-.56,1.83,.64,0,1.16,.61,.94,1.03-.22,.29-.41,.74-.3,1.22,.19,.52-.04,.23-.71,.48-.68,.31-.43,.95-.82,1.89l-.04,.1c-.41,1-.71,.58-1.09,1.16-.1,.17-.19,.3-.26,.4-.14,.21-.19,.32,0,.47,.08,.06,.2,.13,.37,.22,.39,.19,.85,.16,1.01,.23,.08,.03,.1,.09,0,.2-.11,.12-.35,.32-.79,.64-.21,.15-.41,.29-.6,.43-1.24,.91-1.78,1.49-1.43,1.86,.37,.46,.89-.34,1.43-.45,.06-.01,.12-.02,.19,0,.41,.04,.78-.53,1.2-.82,.2-.14,.41-.22,.63-.14,.71,.19,2.51,.61,3.11,.42,.6-.26,1.95-1.32,1.31-1.38-.6-.06-.22-.23,.3-.8Z" style="fill:url(#g);"/><path d="M171.44,163.97c.56,.06,.67-1.06,.34-1.22-.1-.05-.24-.02-.37,.04-.21,.09-.42,.25-.42,.25-.29,.25-.12,.82,.42,.93h.03Z" style="fill:url(#h);"/><path d="M179.15,160.59c.27-.42,.57-1.08,.67-1.32,.11-.35-.3-.71-.3-.71-.13,.03-.25,.09-.37,.17-.34,.24-.62,.66-.68,1.21-.04,.77,.08,1.03,.34,1,.1-.02,.22-.16,.34-.35Z" style="fill:url(#i);"/><g><path d="M94.46,70.18c-.7,.51-1.45,1.07-2.09,1.58-1.04,.81-1.84,1.47-1.84,1.47-.52,.54-1.04,1.12-1.51,1.69-1.22,1.48-2.12,2.84-1.82,2.91,.56,.16-.94,1.74-1.5,2.7-.45,.93,1.09,.45,2.51,.16,.29-.04,.57-.04,.81-.01,.73,.09,1.08,.5,0,1.13-.24,.14-.56,.29-.96,.46-1.33,.58-2.4,.99-3.14,1.43-.79,.47-1.19,.99-1.09,1.78,.22,1.4-1.61,5.11,1.09,3.86,.08-.04,.17-.08,.26-.13,1.28-.62,2.63-1.36,3.84-2.01,1.38-.74,2.59-1.38,3.35-1.64,.19-.07,.35-.11,.49-.12,1.05-.16,3.44,1.22,4.46-2.44,.97-3.55,.21-3.99,1.35-6.49,.05-.1,.1-.21,.15-.32,.78-1.5,3.01-4.93,4.38-7.34,1.19-2.09,1.73-3.42,.11-2.05l-.11,.1c-1.81,1.6-3.4,3.38-4.53,4.48-.97,.94-1.61,1.38-1.76,.79-.3-1.32-.6-3.28-2.43-1.99Z" style="fill:#9f9ef2;"/><path d="M83.34,79.92c.56-.51,1.08-1.03,1.58-1.54,1.63-1.7,2.96-3.39,4.1-4.53,.43-.43,.83-.78,1.21-1.03,.47-.26,1.27-.74,2.14-1.31,2.32-1.54,5.17-3.83,3.67-4.76-1-.57-2.45-.47-3.67-.24-.29,.05-.57,.12-.83,.18-.69,.24-1.64,1.03-2.52,2.04-.07,.08-.14,.16-.21,.25-1.08,1.34-2.61,3.22-3.89,4.9-1.17,1.54-2.13,2.91-2.33,3.55-.6,1.77-2.32,5.31,.75,2.51Z" style="fill:#9f9ef2;"/><path d="M79.45,192.69c.34-.26,.64-.61,.94-.93,.11-1.25-2.4-2.73-3.07-2.35-1.69,1.09-4.16-2.25-3.29-3.86,.9-1.67,1.5-3.89-.71-4.37-2.1-.52-4.19-.71-3.44-2.22,.82-1.54,4.15-4.15,2.47-4.53-1.61-.35-2.29-.35-4.16,.84-1.95,1.09-6.63,1.45-6.74-2.6,.04-4.02,1.31-8.56,2.92-8.56,1.53-.06,3.18-1.06,5.39-.13,2.1,.9,2.02-.45,3.03-.58,1.01-.13,4.76-.42,5.17,1.8,.49,2.22,.15,5.95,1.01,6.11,.79,.13,2.88-2.25,1.69-5.95-.27-.91,.02-1.73,.63-2.47,.83-1.01,2.25-1.87,3.64-2.62,1.77-.95,3.48-1.72,3.82-2.34,.11-.17,.2-.35,.29-.54,.62-1.35,.75-2.98,2.6-4.74,.24-.22,.49-.43,.75-.61,2.12-1.55,4.58-1.99,4.98-2.8,.17-.33,.68-1.01,1.31-1.74,1.14-1.34,2.68-2.87,3.26-2.83,.81,.11,.63,2.55,1.27,2.79,.09,.03,.2,.02,.34-.05,.5-.25,2.3-1.15,4.01-2.13,1.09-.62,2.13-1.28,2.78-1.81,.46-.38,.71-.69,.63-.89-.1-.27-.33-.43-.63-.54-.69-.24-1.76-.18-2.59-.49-.07-.03-.13-.06-.19-.09-.98-.59-.61-2.37,0-3.41l.04-.06c.54-1.01,1.82-2.45,2.74-2.83,.16-.07,.31-.1,.45-.1,.46,.07,1.1,.04,1.75-.09,.62-.12,1.24-.34,1.69-.65,.39-.24,1.36-.67,2.36-1.25,.69-.41,1.39-.88,1.91-1.42,.47-.49,.8-1.03,.82-1.6,.04-2.16,.49-2.8-.6-4.28-.08-.1-.15-.22-.23-.36-1.03-1.93-1.88-7.24-1.46-10.51,.39-2.79,.37-4.5-.45-3.63-.2,.21-.45,.58-.75,1.12-.99,1.78-2.46,3.32-3.3,3.32-.46,0-.74-.48-.63-1.65,.3-3.35,.79-5.73-.15-6.82-.72-.79-.7-1.43-1.42-1.81-.18-.1-.41-.18-.72-.25-.85-.21-1.46-.86-2.06-.8-.43,.04-.85,.45-1.35,1.64-.94,2.34-2.02,5.2-3,6.84-.23,.39-.46,.71-.67,.94-1.16,1.16,.48,4.57-1.24,6.53-.78,.8-1.74,1.47-2.62,2.07-1.24,.85-2.33,1.6-2.54,2.46-.34,1.45-.26,6.63-2.62,5.37-2.28-1.29,.94-5.44,.68-6.43-.1-.46-.91-.66-1.8-.89-1.05-.27-2.21-.56-2.47-1.33-.14-.55-.47-1.21-.87-1.91-.72-1.23-1.67-2.58-2.19-3.63-.6-1.25-.2-3.4,2.19-6.48,.62-.79,1.36-1.65,2.26-2.56,.35-.37,.71-.73,1.09-1.1,2-1.95,4.27-3.83,6.29-5.5,1.9-1.59,3.57-2.99,4.53-4.1,.21-.24,.39-.47,.52-.68,.79-1.22,2.36-2,3.82-2.72,1.15-.57,2.23-1.1,2.78-1.77,.13-.16,.23-.33,.29-.5,.35-.91,1.17-2.53,1.9-4.03,.82-1.68,1.55-3.22,1.43-3.49-.15-.38-.09-2.92-1.43-2.09-.35,.22-.8,.67-1.38,1.45-.27,.36-.55,.74-.82,1.11-1,1.38-1.97,2.79-2.78,3.87-1.21,1.63-2.04,2.52-1.98,1.42,.16-1.61,1.86-5.28,1.98-6.99v-.34c-.02-.21-.08-.36-.19-.46-.57-.47-.39-2.23,.19-4.06,.32-1.04,.77-2.11,1.28-2.98,.41-.76,.93-1.46,1.5-2.13,.69-.8,1.45-1.57,2.2-2.36,.64-.68,1.28-1.38,1.84-2.14,.93-1.29,1.82-2.32,2.21-3.1,.25-.49,.29-.89,0-1.18-.09-.09-.21-.18-.38-.26-1.09-.43-2.29,.58-3.68,2.48-.46,.64-.95,1.37-1.45,2.19-.26,.39-.51,.77-.74,1.14-1.08,1.7-1.88,3.14-2.78,4.57-.48,.76-.98,1.51-1.57,2.3-1.03,1.3-1.91,3.5-2.77,5.58-.76,1.84-1.51,3.57-2.36,4.49-.79,.9-1.45,1.72-2.17,2.31-.85,.71-1.79,1.11-3.11,.97-1.36-.11-2.24-1.16-3.18-1.77-.77-.49-1.58-.69-2.73,.16-.18,.13-.39,.28-.61,.44-1.09,.76-2.63,1.76-4.1,2.59-1.48,.84-2.89,1.52-3.64,1.58-.5,.05-.72-.17-.48-.79,.21-.56,.37-1.12,.48-1.67,.2-1.01,.22-1.95,0-2.65-.23-.74-.72-1.21-1.53-1.19-2.06,.16-4.64,1.35-4.68,.58,0-.8,1.61-3.22-.6-1.74-2.21,1.45-8.31,6.24-9.58,6.56-.53,.12-1.07-.14-1.74-.49-7.36,14.35-11.51,30.61-11.51,47.84,0,14.1,2.79,27.55,7.83,39.84,.65,.47,1.27,.82,1.82,1,3.03,1,9.47,4.37,9.62,5.5,.11,1.13,4.34,6.4,5.39,6.85,1.01,.45,1.2-1,1.95-.9,.79,.13,1.05,1.67,1.2,2.03Z" style="fill:#9f9ef2;"/><path d="M99.37,61.56c1.91-.26,1.5,.77,.97,1.77-.5,.84,1.08-.05,2.85-1.02,.46-.25,.93-.51,1.39-.75,1.1-.64,2.03-.96,2.96-1.54,.8-.5,1.61-1.19,2.55-2.45l.23-.34c1.46-2.17,1.88-3.38,2.2-4.84,.05-.25,.1-.5,.16-.77,.08-.47,.02-.7-.16-.76-.36-.13-1.18,.48-2.2,1.42-.56,.51-1.17,1.12-1.8,1.76-.37,.37-.7,.66-.97,.87-1.53,1.15-1.76,.1-1.38-.74,.41-.96-1.24,.06-1.24,.06-.56,.62-1.15,1.25-1.72,1.86-2.85,3.05-5.41,5.77-3.82,5.47Z" style="fill:#9f9ef2;"/><path d="M147.51,98.42c3.03-2.64,7.15-8.81,11.3-9.87,2.57-.66,5.6-1.51,8.27-4.05,1.05-1,2.04-2.26,2.93-3.87,.5-.91,.97-1.94,1.39-3.09l.03-.08c1.55-4.4,4.15-11.22,6.61-18.58,.37-1.12,.74-2.25,1.11-3.38,1.92-5.98,3.64-12.11,4.56-17.41,.07-.37,.14-.74,.23-1.11-1.58-.43-3.18-.81-4.79-1.17-.37-.08-.74-.16-1.11-.24-2.19-.45-4.4-.84-6.64-1.16-.46-.07-.93-.13-1.39-.19-.97-.12-1.95-.24-2.93-.33-3.44-.34-6.93-.52-10.46-.52s-6.69,.16-9.98,.48c-1.86,1.74-2.94,3.28-2.32,4.62,1.08,2.28,.07,4.28-1.05,5.95-1.09,1.7-2.36,5.05-1.5,5.79,.82,.77,1.42,.48,1.42,.48,3.41-.64,6.03-4.89,3.44,6.46-2.28,11.39-1.27,13.8-3.41,19.07-.92,2.3-2.5,5.05-4.05,7.82-1.98,3.54-3.93,7.11-4.41,9.84-.82,4.89-.97,20.97,1.76,19.52,.73-.39,1.65-1.48,2.65-2.92,2.71-3.86,6.08-10.19,8.32-12.07Z" style="fill:#9f9ef2;"/><path d="M230.85,209.93c-.13,.69-.23,1.77-.3,2.99,19.19-19.03,31.07-45.4,31.07-74.55,0-12.47-2.18-24.43-6.17-35.52-.42-.42-1.09-1.72-1.85-3.37-.9-1.96-2.69-2.61-3.93-3.7-1.24-1.09-2.02-.42-1.46,.16,.6,.61,.82,2.86-.37,3.18-1.09,.39-2.32,.19-3.48,.13-1.23-.1-1.53,.48-2.92-.9-.68-.68-1.72-.45-2.85,.22-1.12,.68-2.36,1.83-3.45,2.96-2.06,2.32-1.69,2.25-2.4,1.54-.67-.67,.22-2.22,1.16-2.7,.9-.48-.49-2.77-.79-3.18-.34-.45-1.42,1.16-1.91,2.8-.52,1.67-.15,3.44-.37,4.41-.23,1.03-.79,.71-1.61-.19-.79-.87-2.88,1.83-3.59,2.38-.71,.61-.26,1.03,0,2.44,.15,.68-.35,.71-.97,.44-.55-.24-1.2-.7-1.59-1.15-.04-.04-.07-.09-.1-.13-.32-.42-.6-.48-.79-.33-.23,.18-.33,.67-.22,1.2,.06,.26,.14,.49,.22,.71,.23,.57,.48,1,.45,1.51,.02,.4-.17,.54-.45,.56-.22,.02-.49-.04-.75-.11-.52-.16-1.31-1.64-1.31-2.54-.04-.93,.45-3.51,.6-4.57v-.1c-.11-.71-1.87-3.76-1.42-4.21,.19-.16,.97,.87,1.91,1.93,.31,.37,.64,.74,.97,1.08,.29,.29,.59,.56,.89,.79,.27,.2,.54,.37,.8,.48,.27,.09,.53,.15,.79,.18,.58,.07,1.15-.03,1.72-.34,1.76-1.06,1.99-3.35,1.54-4.98-.34-1.13-.97-2.06-1.5-2.9-.57-.85-1.13-1.69-1.75-2.44-.23-.27-.46-.54-.72-.78-.3-.19-.56-.39-.79-.58l-.08-.06c-.29-.21-.59-.41-.89-.61-1.19-.79-2.4-1.55-3.11-2.96v-.03c0-.19,.08-.4,.11-.55,.26-.29,.52-.58,.86-.74,.23-.1,.34-.55,.23-.77-.28-.69-.7-1.26-1.2-1.69-.7-.61-1.56-.96-2.4-1.01-1.61-.19-3.33,.48-5.02,1.09-1.09,.39-2.25,.8-3.22,1.7-.45,.34-.87,.73-1.27,1.16-.86,.93-1.62,2.03-2.36,3.15-1.76,2.8-3.46,5.82-5.26,8.68-.5,.79-1,1.56-1.52,2.32-1.42,2.04-2.94,4.06-4.65,5.7-.36,.35-.73,.68-1.11,.99-.86,.71-4.57,2.57-4.53,4.25,.04,.8-1.08,4.44-1.91,7.56-.86,3.18,1.69,3.22,2.36,2.8,.67-.39,1.65-1.29,2.96-2.51,1.31-1.16,.41,1.29,.41,2.19s.26,3.25,0,4.92c-.26,1.8-.41,3.25,.41,3.41,.49,.04,.87-.48,1.41-.95,.28-.24,.61-.47,1.02-.59,1.27-.42,1.95-3.57,2.21-4.63,.3-1.03,1.35-2.06,2.62-2.67,.12-.06,.22-.13,.32-.23,.86-.85,.77-3.03,.43-3.73-.15-.36-.33-.72-.43-1.14-.1-.4-.13-.86,0-1.44,.03-.15,.08-.31,.13-.47,.45-1.51,2.55-4.37,4.01-5.56,1.46-1.19,2.25-2.7,2.69-3.8,.16-.5,.44-1.14,.79-1.76,.38-.69,.84-1.36,1.27-1.78,.75-.87,1.69,.48,2.4,1.61,.71,1.25-.82,2.25-1.5,2.86-.4,.31-1.29,1.3-2.17,2.24-.66,.71-1.32,1.39-1.76,1.72-1.01,.77-.82,1.8-.9,2.89-.04,1.03-.67,3.15-1.05,4.6-.26,1.48,.64,2.28,1.16,2.86,.47,.45,1.36-.24,2.55-.85,.43-.22,.91-.43,1.42-.57,1.84-.48,1.91,.42,1.99,.71,.11,.29,.93,.58,1.09,.9,.15,.42-.49,.29-.97,.22-.45-.1-1.16,1.29-2.13,.97-.41-.14-.91-.23-1.39-.28-.75-.08-1.47-.06-1.83,.02-.71,.1-1.16,.93-1.35,1.96-.19,1.06,.64,1.19,.56,1.64-.08,.35-.75,2.41-1.05,2.51-.34,.1-.56-.23-.79-1.13-.26-.87-1.12-.51-1.5-.16-.33,.41-1.21,1.7-1.67,3.77l-.02,.09c-.52,2.12-.22,2.03-.75,2.03-.49,0-.94,.45-1.35,1.19-.37,.74-.97,.35-1.38-.45-.34-.84-.26-.77-1.16-.39-.38,.1-.94,.35-1.51,.59-.76,.33-1.55,.66-1.98,.63-.79,0-.64-.87-1.05-1.25-.45-.42-1.31,.67-1.84,.87-.64,.22-.15-.42,.11-.8,.37-.42-.22-.39-.71-.39s-.49-.48-.26-1.41c.23-.9,.71-.19,1.05-.23,.3-.03-.23-.74-.15-1.45,.08-.68,.37,.13,.6,.77,.26,.71,.41,1.19,.86,1.51,.41,.35,.52-1.74,.86-2.22,.41-.58,.38-1.51-.3-1.38-.67,.19-.94-.52-.94-.52,0,0-.41-.74,.04-2.19,.45-1.61-.19-1.06-.48-.68-.34,.42-.86,.51-2.17,1.8-1.31,1.38-1.2,2.19-.82,3.02,.49,.84-.15,2.38-.19,3.51-.07,1.13-1.46,.9-2.54,.87-1.12-.13-1.01,.26-1.27,.68-.34,.39-.75,.61-.75,.42,0-.26-.49,.13-.68,.74-.15,.63-.94,1.76-1.64,2.44l-.04,.04c-.3,.32-.68,.48-1.07,.62-.44,.16-.9,.31-1.29,.63-.68,.61-1.2,1.48-1.87,1.96-.71,.48-.71,1-1.83,.93-1.09-.06-.49-.71-.86-.71-.34,.03-.3,.74-.41,1.64-.05,.29-.19,.44-.37,.49-.38,.11-.95-.19-1.28-.43-.04-.02-.07-.04-.11-.06-.55-.24-1.27,.12-1.76,.48-.48,.32-.11,1.35,.6,1.77,.47,.33,.83,.64,1.16,1.6,.09,.25,.17,.55,.26,.91,.41,1.7,.08,2.28,.08,2.28-.07,.25-.19,.6-.33,.98-.49,1.28-1.32,2.97-1.84,3.07-.31,.02-.59-.05-1.09-.19-.52-.14-1.3-.37-2.62-.64-1.95-.39-2.36-.45-3.11-.23-.75,.26-.97,1.13-.79,1.9,.26,.74-.41,2.6-.9,3.99-.41,1.45-1.42,1.96-1.72,3.76-.19,1.8-.26,1.9,.75,1.99,1.09,.1,1.84,.51,1.76,1.7,0,1.16,1.09,.42,2.21-.13,1.16-.55,2.02,.26,3.26-.71,.5-.34,.87-.75,1.16-1.18,.47-.69,.72-1.44,.98-2.04,.45-.9,1.05-1.8,1.95-2.8h0c.39-.46,.9-.71,1.39-.92,.58-.25,1.13-.43,1.42-.82,.56-.71,.79-2.48,1.57-2.64,.79-.16,1.84,.9,2.55,.71,.25-.05,.65-.27,1.1-.52,.36-.2,.74-.43,1.11-.62,.56-.3,1.08-.53,1.38-.49,.75,.1,.86,3.28,1.09,4.41,.23,1.06,2.92,3.76,3,5.44,.19,1.77-1.12,2.22-1.46,2.48-.34,.26-1.72-.13-2.02-.42-.37-.35-.97,.29-.82,.71,.11,.48,1.01,.87,1.53,1.9,.56,.97,1.12-.35,1.31-1.19,.15-.84,.56-.19,1.01-.29,.41-.13,.86-1.09,1.35-1.87,.49-.8,.04-1.38,.45-2.09,.41-.74,.64-.51,1.16,.16,.56,.64,.6-.16,.67-.55,.08-.42-1.69-2.22-1.72-2.89-.04-.64-.6-.51-.9-.55-.22-.03-.64-1.38-.71-2.19-.11-.77-1.09-2.86-.34-4.31,.67-1.48,1.84-.64,2.06,.29,.19,.87,.86,3.15,1.31,3.96,.45,.77,2.73,1.06,1.72,4.31-1.09,3.22-.82,4.31,.04,4.44,.82,.1-.15,1.54,.34,3.83,.45,2.28,1.53-.42,1.8-1.41,.26-.93,.6,.26,1.12,.16,.6,0,.04-2.25-.08-3.63-.14-1.01,.19-1.42,.96-1.71,.28-.1,.62-.19,1.02-.29,1.53-.45,1.46,1.38,1.31,2.03-.15,.61-.48,1.99-.64,3.79-.19,1.74,1.95,3.47,2.96,3.12,.72-.3,1.1-.31,1.52,.08,.12,.12,.25,.27,.39,.47,.67,.8,.93,.51,1.69,0,.3-.23,.71-.29,1.01-.29,.52-.03,.9,.23,1.16,.67,.34,.77-2.4,4.95-2.85,5.95-.11,.29-.26,.58-.45,.9-.27,.42-.59,.84-.95,1.07-.35,.22-.74,.27-1.14-.01-1.2-.8-2.88-.19-3.74,.1-.29,.11-.73,0-1.28-.31-1.09-.59-2.65-1.87-4.48-3.49-2.85-2.48-3.59,1.54-3.59,1.54-.34,1.41-.97,1.87-1.57,1.51-.6-.29-.41-.96-1.38-1.12-1.01-.29-1.46-1.09-1.46-2.16,0-.57-.86-1.05-1.75-1.5-.38-.19-.77-.37-1.11-.55-.33-.18-.61-.35-.77-.53-.79-.77,.08-2.12,.71-4.38l.06-.2c.36-1.34,.26-1.94,0-2.23-.14-.15-.32-.22-.5-.27-.63-.09-3.37-.17-6.14,0-.34,.02-.68,.04-1.01,.07-.13,0-.25,.02-.37,.03-1.04,.09-2.02,.35-2.93,.63-1.62,.5-2.99,1.08-4,.98-1.65-.22-1.95-1.64-2.51-1.64-.52,0-.45,2.54-2.25,3.18-3,1.13-3.59,4.63-4.04,5.82-.41,1.29-4.27,2.86-4.72,3.6-.56,.77-4.15,5.11-4.9,6.17-.75,1.06-.79,1.42-.71,5.31,.08,3.86-2.02,5.4-2.13,5.76,0,.26-.34,3.34,1.2,5.24,1.5,1.96,1.38,3.57,1.46,4.38,.08,.84,3.67,7.56,5.43,6.46,1.87-1.06,5.5,.8,5.5,.8,3.11-1.38,5.39-.8,6.22,.06,.79,.84-.49,2.48,1.95,2.51,3.56,.03,1.31,5.37,1.31,5.37-.64,1.77-1.38,1.9-.86,3.34,1.95,5.11,2.17,7.91,2.29,11.71,.04,1.91-.37,3.3-.9,4.67,.56-.05,1.12-.1,1.68-.15,.98-.1,1.95-.21,2.93-.33,.46-.06,.93-.12,1.39-.19,2.24-.31,4.45-.7,6.64-1.15,.37-.08,.74-.16,1.11-.24,2.41-.53,4.78-1.14,7.13-1.82,1.39-.41,2.78-.84,4.15-1.31,.1-.56,.23-1.11,.37-1.67,.23-.86,1.26-2.17,2.61-3.61,1.86-1.98,4.34-4.2,6.17-5.8,.72-.62,1.33-1.15,1.78-1.53,1.87-1.61,4.08-5.44,5.43-8.07,.14-.33,.28-.62,.41-.88,.17-.35,.31-.65,.37-.89,.3-.74,.3-1.13,.04-1.19-.1-.04-.24-.03-.41,0-.68,.15-1.88,.8-3.07,1.18-2.29,.68-3.71,.23-3.93-2.61-.08-1.11-.32-1.96-.62-2.69-.47-1.16-1.06-2.04-1.29-3.22-.37-1.96-.6-4.54-.34-7.43,.26-2.48-.15-5.37-.45-7.37-.04-.39-.11-.74-.15-1.03-.3-1.93-.6-2.54-.6-4.76-.08-2.25,.6-.16,.64,.68,.04,.67,.41,.93,1.23,.9,.08,.03,.15,.03,.26,.06,.33,0,.54,.51,.69,1.38,.37,2.09,.38,6.19,.8,9.69,.52,4.92,1.38,7.65,.67,11.61-.6,3.05,3.1,1.53,6.14,.07,.59-.28,1.15-.56,1.65-.8,.3-.13,.56-.23,.75-.32,2.89-1.32,6.78-4.61,9.51-7.43l.19-.19c2.73-2.93,1.87-3.64,.86-3.96-.58-.19-.9-.7-1.05-1.3-.1-.41-.13-.86-.11-1.3,0-1.03,0-1.22-.41-1.09-.3,.19-2.13,2.16-3.82,2.12-.9,0-1.16-.84-1.31-1.96-.08-.87-.15-2.12-.26-3.22-.22-2.41-.97-3.89,.79-4.79,1.46-.71,1.31,1.35,1.12,2.38-.04,.19-.04,.35-.08,.51-.11,.71,1.61,2.54,1.76,2.83,.08,.2,1.47,.34,2.32,.87,.38,.24,.65,.56,.64,.99,.02,.77,1.12,1.21,2.47,1.45,.29,.05,.59,.09,.89,.12,.53,.06,1.07,.09,1.59,.1,.36,0,.7,0,1.01,0,1.87,.03,3.89-.9,3.78,2.86-.19,5.4,1.76,4.63,2.4,4.44,.68-.26,1.16-1.29,.97-.61-.22,.58-1.5,4.99-1.98,7.59Zm-23.25-44.03c-.15-.03-.29-.07-.41-.11-1.08-.35-1.41-1.06-1.95-1.66-.34-.32-.71-.64-1.42-.74-1.85-.26-2.64,1.38-4.25,.87-.18-.06-.38-.14-.58-.26-1.28-.71-.43-2.44,.58-3.98,.56-.85,1.16-1.64,1.48-2.17,.9-1.45,2.32-3.67,3.71-3.51,1.46,.22-.15,3.41,1.2,4.18,.23,.13,.56,.06,.9-.19,.11-.07,.23-.15,.34-.24,.38-.32,.74-.81,.82-1.43,.49-1.35,1.69-1.19,2.55-.61,.86,.51-.64,2.89,1.35,6.43,2.09,3.54-2.02,3.86-4.31,3.41Zm17.48-6.5c-.1,.02-.24,.1-.41,.23-.39,.3-.91,.85-1.28,1.41-.11,.16-.21,.32-.31,.47-.12,.21-.23,.4-.29,.59-.04,.16,0,.45,.04,.77,.06,.24,.15,.5,.25,.78,.43,1.14,1.12,2.55,1.06,3.27,.03,.97-.46,3.77-1.06,6.2-.1,.39-.19,.77-.29,1.14-.13,.51-.34,.84-.6,1.04-.73,.56-1.89,.09-2.88-.43-.08-.04-.15-.09-.22-.13-.45-.28-.8-.57-1.12-.77-1.03-.71,.25-2.25,1.12-3.82,.23-.43,.44-.85,.56-1.26,.56-1.9,.07-3.25,.34-7.2,.23-2.69,1.02-3.43,2.21-4,.28-.13,.57-.26,.89-.39,.3-.13,.61-.27,.95-.44,0,0,.22-.19,.64-.32h0c.48-.16,1.08-.22,1.68,.06,1.35,.58-.86,2.7-1.27,2.8Z" style="fill:#9f9ef2;"/><g><path d="M103.18,76.3c.19,.07,.53-.14,1.12-.72,.97-.94,2.22-2.19,3.22-3.36,1.02-1.2,1.76-2.32,1.65-2.97-.03-.48,.51-1.43,1.13-2.45,1.05-1.72,2.33-3.6,1.45-3.6-.38,.03-.91,.35-1.45,.77-.85,.65-1.76,1.54-2.21,1.87-.19,.09-.39,.26-.56,.45-.25,.27-.46,.58-.52,.81-.41,1.03-.45,1.61-1.8,2.44-1.65,1.06-1.24,1.03-1.72,3.38-.1,.56-.21,1.1-.3,1.57-.19,.99-.28,1.71,0,1.81Z" style="fill:#9f9ef2;"/><path d="M117.15,134.89c-.16-.18-.36-.29-.6-.35-.79-.2-1.89,.24-2.44,1.25v.03c-.64,.6-1.19,1.33-1.62,2.09-.22,.39-.4,.78-.55,1.16-.08,.35-.23,.61-.23,.9,.04,.45,.37,.61,.78,.68,.33,.06,.7,.07,1.02,.12,.86,.16,1.42,.93,2.06,1.58,.25,.28,.59,.54,.98,.69,.42,.16,.9,.17,1.38-.08,.34-1.03,.26-1.99,.22-2.93,0-.58-.08-1.19-.08-1.8-.07-1.29-.19-2.64-.93-3.34Z" style="fill:#9f9ef2;"/><path d="M102.28,103.21c.32-.42,.62-.65,.9-.77,.59-.25,1.09-.04,1.5-.06,.6-.03,1.8-.29,1.72-2.86,.04-1.74-1.46-.55-1.2-3.8,.08-.48-.26-.55-.71-.39-.08,.03-.19,.06-.26,.1-.3,.13-.64,.45-.86,.77-.06,.1-.12,.2-.19,.3-1.24,1.92-3.04,3.48-3.22,5.04-.15,1.7,1.31,2.93,2.32,1.67Z" style="fill:#9f9ef2;"/><path d="M118.46,55.22c-.07,.06-.11,.1-.11,.1-.7,.66-1.31,1.32-1.8,1.93-.84,1.05-1.28,1.92-1.09,2.29,.19,.41,.43,1.27,1.09,.73,.36-.3,.85-1.02,1.53-2.47,.15-.32,.27-.6,.37-.85,1.03-2.45,.3-1.98,0-1.73Z" style="fill:#9f9ef2;"/><path d="M112.06,47.44c.11-.03,.26-.12,.44-.24,1.07-.72,3.25-2.79,4.05-3.93,.27-.38,.39-.65,.26-.75-.08-.05-.16-.08-.26-.1-.9-.12-2.58,1.35-2.58,1.35-.34,.23-.97,1.05-1.47,1.86-.61,.99-1.02,1.96-.44,1.8Z" style="fill:#9f9ef2;"/><path d="M127.05,37.6c-.41,.77-.84,1.59-1.11,2.24-.3,.74-.39,1.25,0,1.2h0c.91-.16,2.78-2.43,3.3-4.05-.74,.2-1.47,.4-2.19,.62Z" style="fill:#9f9ef2;"/><path d="M123.48,42.23c.7-1.02,1.71-2.54,2.47-3.9,.09-.16,.18-.32,.26-.48l-.26,.08c-1.33,.41-2.65,.84-3.96,1.3-.07,.28-.04,.54,.14,.78,.94,1.03,.08,3.89,1.35,2.22Z" style="fill:#9f9ef2;"/><path d="M92.37,183.17c.16,.04,.33,.05,.49,0,.49-.16,.82-.9,.45-1.25-.04,.16,0,.29-.08,.39-.27-.17-.56-.27-.86-.29-.27-.02-.56,0-.86,.1-.08,.03-.11,.1-.22,.13-.04,.23,.15,.39,.26,.51,.24,.17,.53,.35,.83,.42Z" style="fill:#9f9ef2;"/><path d="M115.5,51.49c.11-.45-.49-.48-.49-.48-.48,1.19-2,3.61-2.52,4.87-.21,.51-.25,.82,0,.79h0c.97-.16,.71,.32,.56,1.35-.11,.94,1.2,1.36,3.48-2.42,.06-.1,.12-.2,.19-.31,.71-1.14,1.28-2.13,1.72-2.96,1.14-2.16,1.32-3.14,.45-2.61-.14,.08-.29,.17-.45,.27-.61,.37-1.33,.83-1.91,1.16-.65,.37-1.12,.59-1.05,.34Z" style="fill:#9f9ef2;"/><path d="M86.22,180.79c-.3,0-.6-.19-.93-.22-.13-.03-.26,0-.37,.08-.14,.09-.25,.25-.27,.44,.09,.03,.18,.06,.27,.09,1.35,.45,2.72,.73,4.1,.84,.6,.05,1.21,.07,1.81,.06,.04-.06,.15-.1,.22-.13-.04-.06-.11-.22-.11-.39-.59-.52-1.24-1-1.92-1.39-.87-.5-1.79-.88-2.76-1.08,.08-.03,.08-.1,.15-.13-.23-.19-.52-.03-.64,.23-.11,.22,.04,.55,.26,.68,.19,.13,.45,.19,.68,.26,.19,.32-.22,.61-.49,.68Z" style="fill:#9f9ef2;"/><path d="M79.78,176.25c.53,.24,1.25,.29,1.49,.82,.02,.04,.03,.07,.04,.11,.15,.26,.11,.68,.19,.9,.19,.26,.41,.35,.67,.45,.64,.22,1.35,.42,2.06,.55,.19,.06,.52,.1,.64,0l.04-.02c.2-.1,.29-.29,.26-.53-.07-.1-.07-.16-.15-.23l-.11-.11c-.74-.76-1.39-1.51-2.1-2.3-.46-.49-.95-1.05-1.54-1.37-.22-.12-.45-.2-.71-.24-.37-.1-.79-.03-1.05-.22-.49-.23-.75-1.06-1.35-1.16-.52-.13-.94,.39-1.5,.52-.34,.1-.71-.06-1.05-.03-.37,.06-.67,.39-.56,.68,.11,.48,.82,.29,1.27,.19,.6-.13,1.27,.29,1.8,.77,.45,.42,.97,1,1.65,1.22Z" style="fill:#9f9ef2;"/><path d="M81.28,179.58c-.29-.05-.6,.05-.82,.28-.08,.06-.08,.1-.04,.16,.18,.34,.5,.59,.85,.73,.29,.12,.6,.17,.87,.14,.08-.45-.11-.93-.56-1.19-.09-.06-.2-.1-.31-.12Z" style="fill:#9f9ef2;"/><path d="M118.27,86.26c-.18-.52-1.03-.22-1.72,.39-.16,.14-.32,.3-.45,.47-.67,.84-1.01,1.8-1.31,2.73,.04,.32,.15,.55,.19,.77,.08,.22,.34,.29,.56,.16,.35-.19,.69-.52,1.01-.92,.39-.48,.76-1.06,1.09-1.59,.37-.71,.82-1.61,.64-2.03Z" style="fill:#9f9ef2;"/><path d="M119.92,216.43c-.29-.24-.81-.59-1.46-1-.56-.35-1.21-.76-1.91-1.18-1.36-.83-2.87-1.74-4.05-2.52-.43-.29-.83-.56-1.15-.8-.42-.31-.76-.63-1.04-.97-1.13-1.36-1.32-2.98-1.76-4.78-.11-.56-.49-1.2-1.01-1.85-1.15-1.45-3-2.98-4.34-3.88-.45-.3-.84-.53-1.12-.66-.84-.42-2.05-2.1-3.41-3.54-1.13-1.2-2.37-2.24-3.59-2.25-1.26-.04-2.07-.38-2.69-.81-.72-.49-1.2-1.12-1.84-1.6,0,0-.55-.4-1.51-.77-.33-.13-.7-.25-1.11-.35-1.14-.36-2.22,.28-2.99,.85-.27,.2-.5,.39-.68,.53-.71,.58-2.88,1.67-2.69,3.76,.03,.64-.07,1.24-.27,1.78-.44,1.22-1.34,2.1-2.09,2.37-1.05,.32-1.35,2.89-1.27,3.7-.04,.8-.04,3.38,.9,4.5,.4,.49,1.1,2.12,2.15,4.21l.31,.33c1.18,1.22,2.4,2.41,3.64,3.57,1.34,1.25,2.7,2.46,4.1,3.64,1.1,.92,2.21,1.83,3.35,2.71,2.04,1.58,4.13,3.08,6.29,4.51,1.48,.98,3,1.93,4.53,2.84,1.43,.84,2.87,1.66,4.34,2.44,.92,.49,1.84,.96,2.78,1.42,.73,.36,1.46,.71,2.2,1.05,1.34,.62,2.69,1.21,4.05,1.78,.63,.26,1.27,.52,1.91,.77,.25,.1,.51,.2,.76,.29,.09-.77,.15-1.66,.25-2.7,.6-4.31,1.16-4.73,3.63-8.75,2.62-4.12-1.98-7.59-3.18-8.62Z" style="fill:#9f9ef2;"/></g><path d="M139.19,39.65c.16-.17,.33-.33,.49-.47,.98-.91,2.79-2.94,4.44-5.06-1.66,.2-3.3,.43-4.94,.71-2.88,.48-5.71,1.07-8.5,1.78,0,.43,.15,.76,.5,.93,1.53,.74,1.98,2.41,0,4.76-1.45,1.75-3.69,4.55-5.25,5.74-.54,.41-.99,.63-1.31,.56-1.16-.29-1.2-3.51-2.28-1.61-1.12,1.96-.86,2.41-1.05,4.86,.03,1.67-1.88,4.11-2.85,5.78-.45,.78-.7,1.39-.45,1.68,.09,.09,.24,.18,.45,.28,1.42,.67,5.33,1.45,7.48,.94,.61-.14,1.09-.39,1.31-.78,1.16-1.93,5.47-7.53,2.32-7.04-1.21,.27-2.53,.8-3.64,1.22-1.8,.68-3.02,1.07-2.28-.45,.54-1.11,1.38-2.39,2.28-3.35,1.03-1.11,2.13-1.8,2.93-1.38,1.5,.84,4.75,.45,5.88-1.51,1.03-1.77,2.63-5.66,4.45-7.6Z" style="fill:#9f9ef2;"/><path d="M127.86,77.42c-.64-2.16-1.57-6.56-1.87-8.68l-.04-.5c-.12-1.48-.02-1.05-1.04-3.33-1.01-2.51-2.96-1.8-3.82-.42-.97,1.38-.9-.16-1.24-.39-.3-.23-.79-.16-.79-.16-.18,.21-.38,.45-.6,.72-.55,.67-1.21,1.52-1.91,2.45-1.42,1.89-3,4.13-4.05,5.9-.75,1.27-1.24,2.3-1.23,2.83,.03,1.48-.4,3.54,1.23,4.16,.28,.11,.63,.17,1.05,.18,1.13,.01,2.15-.17,3-.29,.82-.12,1.48-.17,1.91,.06,.23,.12,.39,.32,.49,.64,.39,1.45,2.82,6.59-.49,10.46-.21,.25-.45,.49-.71,.73-.37,.35-.78,.71-1.2,1.08-1.29,1.14-2.74,2.35-4.05,3.47-.81,.69-1.57,1.35-2.2,1.94-1.9,1.77-2.65,2.88-.31,2.26,.1-.03,.21-.05,.31-.07,.88-.19,1.6-.16,2.2,.04,3.07,.99,2.81,6.21,4.05,6.56,.11,.03,.23,.02,.37-.03,.53-.19,1.05-.55,1.53-1.06,1.46-1.51,2.62-4.24,2.73-7.02,.15-3.7,2.25-7.98,2.58-5.53,.22,1.06,1.23,1.7,2.17,1.51,1.18-.24,2.23-1.79,1.47-5.5-1.16-6.69,1.16-9.94,.45-12.03Z" style="fill:#9f9ef2;"/></g></g><path d="M261.63,138.37c-19.59,38.28-103.45,41.16-142.74,34.33-7.07-32.08-8.91-122.06,37.67-139.32h.07c35.31,0,66.55,17.44,85.59,44.17,.15,.22,.31,.44,.46,.66,.23,.33,.46,.66,.69,.99,11.4,16.83,18.15,37.2,18.27,59.18Z" style="fill:#6a6a6a; fill-rule:evenodd;"/><path d="M156.6,33.37h.03c35.31,0,66.55,17.44,85.59,44.17,.15,.22,.31,.44,.46,.66,.23,.33,.46,.66,.69,.99,11.25,16.61,17.98,36.67,18.26,58.33h-105.02V33.37Z" style="fill:#1d1d1b; fill-rule:evenodd; isolation:isolate; opacity:.3;"/><path d="M260.53,140.37c-23.22,37.3-96.56,39.78-141.64,32.33l37.72-35.18h105.01c-.22,1.24-.48,1.86-1.09,2.85Z" style="fill:#6d6e71; fill-rule:evenodd;"/><path d="M254.55,143.7c-23.58,31.71-97.29,33.01-133.26,26.75-4.97-30.95-7-117.17,35.26-133.41h.07c34.06,0,64.2,16.82,82.56,42.6,.15,.21,.29,.42,.44,.63,.22,.32,.44,.64,.66,.96,10.85,16.02,17.34,35.36,17.61,56.25-.44,1.84-2.15,4.6-3.34,6.21Z" style="fill:#e84343; fill-rule:evenodd;"/><path d="M156.6,37.04h.03c34.06,0,64.2,16.82,82.56,42.6,.15,.21,.29,.42,.44,.63,.22,.32,.44,.64,.66,.96,10.85,16.03,17.34,35.37,17.61,56.26h-101.3V37.04Z" style="fill:#fc7464; fill-rule:evenodd;"/><path d="M254.24,144.11c-23.9,31.31-97.13,32.57-132.95,26.35l35.31-32.95h101.29c-.32,1.82-2.39,4.95-3.65,6.61Z" style="fill:#a37c58; fill-rule:evenodd;"/><path d="M218.47,137.94c-11.55,22.56-60.29,23.65-83.45,19.63-3.04-18.9-4.28-71.58,21.54-81.5h.04c20.81,0,39.21,10.27,50.43,26.03,.09,.13,.18,.26,.27,.39,.14,.19,.27,.39,.41,.59,6.72,9.92,10.7,21.92,10.76,34.87Z" style="fill:#d19c5e; fill-rule:evenodd;"/><path d="M156.58,76.08h.02c20.81,0,39.21,10.27,50.43,26.03,.09,.13,.18,.26,.27,.39,.14,.19,.27,.39,.41,.59,6.63,9.79,10.59,21.61,10.76,34.37h-61.88v-61.37Z" style="fill:#ffc700; fill-rule:evenodd;"/><path d="M218.47,137.94c-11.55,22.56-60.29,23.65-83.45,19.63l21.57-20.13h61.87c0,.17,0,.33,0,.5Z" style="fill:#f5c61a; fill-rule:evenodd;"/><path d="M187.15,137.72c-5.7,11.14-29.78,11.68-41.21,9.69-1.5-9.34-2.11-35.35,10.64-40.25h.02c10.27,0,19.37,5.07,24.91,12.85,.04,.06,.09,.13,.13,.19,.07,.1,.13,.19,.2,.29,3.31,4.9,5.28,10.82,5.31,17.22Z" style="fill:#ffe092; fill-rule:evenodd;"/></g><g><g id="j"><g id="k"><path id="l" d="M119.22,202.89c-1.62-3.66-5.02-6.1-10.14-6.66-13.3-1.44-34.01,10.3-45.22,25.63-6.89,9.42-8.88,18.41-6.3,24.27l.43,.96c-2.59-5.86-.59-14.85,6.3-24.27,11.21-15.33,31.91-27.06,45.21-25.63,5.12,.55,8.53,2.99,10.15,6.65l-.43-.96Z" style="fill:#feb30f;"/><path id="m" d="M40.02,253.83c2.79,6.31,9.02,10.58,18.47,11.6,22.12,2.39,53.46-13.99,69.98-36.59,9.48-12.98,12.01-25.17,8.26-33.66l.43,.96c3.75,8.49,1.22,20.69-8.27,33.66-16.52,22.6-47.86,38.98-69.98,36.59-9.44-1.02-15.68-5.3-18.46-11.61l-.43-.96Z" style="fill:#feb30f;"/></g><g id="n"><path id="o" d="M77.51,196.94c-11.22,4.95-17.35,16.61-15.81,28.15,.66-1.07,1.37-2.13,2.16-3.23,8.78-11.98,23.36-21.78,35.68-24.79-6.73-3.06-14.72-3.36-22.02-.14Z" style="fill:#fcd561;"/><path d="M118.3,183.62c-22.13-2.41-53.46,13.98-69.99,36.58-16.53,22.57-11.99,42.85,10.18,45.23,22.11,2.41,53.46-13.99,69.98-36.59,16.5-22.6,11.94-42.85-10.17-45.23Zm-3.06,40.08c-.68,1.15-1.48,2.3-2.33,3.47-6.57,8.97-16.39,16.74-26.07,21.34-6.84,3.23-13.63,4.9-19.12,4.3-12.37-1.31-14.75-13.68-6.02-27.72-1.53-11.55,4.6-23.2,15.81-28.15,7.31-3.23,15.29-2.93,22.02,.14,3.42-.85,6.64-1.14,9.54-.84,12.28,1.34,14.72,13.51,6.16,27.47Z" style="fill:#ffc700;"/><path d="M88.71,191.91c4.38-2.04,8.95-3.71,13.68-4.84,4.72-1.12,9.6-1.75,14.52-1.46,4.86,.28,9.94,1.51,13.93,4.76,4.03,3.27,5.92,8.59,5.86,13.6-.06,5.07-1.55,9.95-3.69,14.39-2.15,4.45-4.86,8.59-7.94,12.41-6.16,7.64-13.53,14.25-21.72,19.62-8.18,5.36-17.18,9.59-26.73,11.94-4.77,1.17-9.7,1.83-14.67,1.73-4.93-.1-10.07-1.07-14.38-3.91-2.14-1.41-3.97-3.34-5.21-5.6-1.24-2.26-1.88-4.8-2.03-7.3-.3-5.04,1.02-9.96,3.03-14.41,4.05-8.95,10.51-16.49,17.75-22.86-6.8,6.81-12.9,14.53-16.51,23.39-1.79,4.39-2.9,9.12-2.54,13.75,.36,4.62,2.77,8.89,6.67,11.27,3.89,2.37,8.63,3.25,13.29,3.31,4.69,.07,9.42-.61,14-1.78,9.2-2.34,17.88-6.6,25.84-11.81,7.96-5.22,15.24-11.54,21.28-18.89,3.01-3.67,5.67-7.64,7.75-11.88,2.07-4.22,3.55-8.78,3.72-13.39,.17-4.58-1.39-9.25-4.88-12.26-3.49-3-8.23-4.32-12.92-4.74-9.52-.84-19.13,1.52-28.09,4.97Z" style="fill:#ffe092;"/><path d="M58.87,224.47c-3.05,5.41-5.33,11.59-4.71,17.79,.31,3.05,1.46,6.04,3.54,8.27,2.08,2.23,4.93,3.63,7.92,4.18,6.05,1.12,12.34-.34,18.08-2.56,5.79-2.24,11.18-5.45,16.16-9.17,4.98-3.72,9.62-7.95,13.45-12.84,3.8-4.86,7.08-10.31,8.55-16.32,.73-2.98,.96-6.11,.35-9.11-.61-2.99-2.2-5.77-4.59-7.69-2.39-1.92-5.42-3.01-8.5-3.35-3.1-.35-6.26-.08-9.33,.54,3.05-.73,6.2-1.12,9.36-.88,3.14,.24,6.3,1.21,8.88,3.16,2.57,1.95,4.32,4.9,5.02,8.03,.71,3.15,.51,6.43-.17,9.54-1.39,6.29-4.75,11.85-8.6,16.85-3.87,5.02-8.54,9.38-13.61,13.17-5.07,3.78-10.59,7-16.53,9.24-5.88,2.22-12.36,3.76-18.74,2.43-3.14-.66-6.18-2.2-8.35-4.63-2.17-2.43-3.34-5.62-3.56-8.79-.44-6.44,2.14-12.54,5.37-17.85Z" style="fill:#ffe092;"/></g></g><path d="M115.24,223.7c-.68,1.15-1.48,2.3-2.33,3.47-6.57,8.97-16.39,16.74-26.07,21.34-5.31-.3-10.42-2.19-14.66-5.42-3.56-2.65-6.51-6.21-8.43-10.59-1.07-2.44-1.75-4.92-2.05-7.41-1.53-11.55,4.6-23.2,15.81-28.15,6.24-2.76,13-2.93,19.04-1.01,1.01,.33,2.02,.71,2.98,1.15,5.83,2.63,10.73,7.33,13.52,13.65,1.86,4.21,2.57,8.67,2.19,12.97Z" style="fill:#e84343;"/><path d="M105.44,227.15c-2.87,7.47-8.73,12.89-15.65,15.49-5.5,2.08-11.66,2.38-17.62,.47-3.56-2.65-6.51-6.21-8.43-10.59-1.07-2.44-1.75-4.92-2.05-7.41-1.53-11.55,4.6-23.2,15.81-28.15,6.24-2.76,13-2.93,19.04-1.01,.05,.05,.11,.08,.16,.14,9.25,7.09,13.16,19.64,8.73,31.08Z" style="fill:#fc7464;"/><path d="M68.67,218.06c-.55,2.02-1.92,3.47-3.12,3.45-.11,0-.22-.03-.33-.05-1.29-.36-1.81-2.46-1.2-4.68,.63-2.24,2.16-3.78,3.45-3.42,.22,.05,.41,.16,.57,.3,.85,.74,1.15,2.52,.63,4.4Z" style="fill:#fc5552;"/><path d="M79.61,205.53c-.71,1.09-1.7,1.79-2.52,1.81-.25,0-.49-.05-.68-.16-.83-.5-.74-2.13,.16-3.58,.93-1.45,2.35-2.19,3.2-1.64,.08,.05,.14,.11,.19,.16,.62,.64,.47,2.11-.36,3.42Z" style="fill:#fc5552;"/><path d="M74.47,238.09c-.19,.05-.41,.08-.63,.03-1.15-.14-2.33-1.48-2.87-3.36-.66-2.22-.16-4.32,1.12-4.71,.47-.14,.98-.02,1.51,.33,.81,.53,1.59,1.61,2,3.01,.66,2.22,.16,4.32-1.12,4.71Z" style="fill:#fc5552;"/><path d="M87.93,221.18c-.6,2.71-2.89,4.53-5.16,4.02-2.22-.5-3.57-3.06-3-5.77,.57-2.68,2.86-4.43,5.12-3.99,.33,.06,.63,.16,.9,.36,1.72,.93,2.63,3.15,2.13,5.39Z" style="fill:#fc5552;"/><path d="M68.67,218.06c-.55,2.02-1.92,3.47-3.12,3.45-.85-.74-1.15-2.52-.63-4.38,.57-2.05,1.92-3.5,3.12-3.47,.85,.74,1.15,2.52,.63,4.4Z" style="fill:#f66;"/><path d="M79.61,205.53c-.71,1.09-1.7,1.78-2.52,1.81-.57-.66-.44-2.11,.38-3.39,.68-1.09,1.7-1.81,2.49-1.83,.6,.66,.47,2.11-.36,3.42Z" style="fill:#f66;"/><path d="M74.47,238.09c-.19,.05-.41,.08-.63,.03-.82-.55-1.56-1.64-1.97-3.01-.68-2.22-.16-4.32,1.09-4.71,.19-.05,.41-.08,.63-.03,.82,.52,1.59,1.61,2,3.01,.66,2.22,.16,4.32-1.12,4.71Z" style="fill:#f66;"/><path d="M87.93,221.18c-.6,2.71-2.89,4.51-5.16,4.02-1.67-.9-2.59-3.12-2.09-5.42,.57-2.68,2.87-4.49,5.12-3.99,1.72,.93,2.63,3.15,2.13,5.39Z" style="fill:#f66;"/></g></svg>