<?xml version="1.0" encoding="UTF-8"?><svg id="a" xmlns="http://www.w3.org/2000/svg" viewBox="0 0 300 300"><path d="M164.87,32.44c2.63,2.59,3.94,5.51,3.94,8.75s-1.44,5.58-4.33,7.03v.39c.37,.19,.92,.58,1.64,1.19,.72,.61,1.31,1.21,1.75,1.81,1.22,1.56,1.83,3.33,1.83,5.33,0,3.96-1.48,7.23-4.45,9.81-2.96,2.58-6.69,3.86-11.17,3.86s-8.15-1.3-11.11-3.89c-1.11-1-2.09-2.31-2.94-3.95-.3-.59-.5-1.07-.61-1.44l-.11-.56c-.41-1.22-.61-2.22-.61-3,0-2.15,1.81-3.22,5.44-3.22,1.48,0,2.46,.19,2.94,.56,.63,.48,1.19,1.44,1.67,2.89,.37,1.19,1.39,2.08,3.06,2.67,.7,.22,1.48,.33,2.33,.33,1.96,0,3.41-.4,4.33-1.2,.93-.8,1.39-1.69,1.39-2.69s-.45-1.88-1.36-2.64c-.91-.76-1.98-1.14-3.22-1.14s-2.08-.04-2.53-.11c-.44-.07-.93-.26-1.44-.56-1-.48-1.5-1.91-1.5-4.28,0-2.59,.69-4.13,2.06-4.61,.63-.19,1.59-.28,2.89-.28,2.81,0,4.22-.72,4.22-2.17,0-.78-.37-1.52-1.11-2.22-.74-.7-1.77-1.06-3.08-1.06s-2.36,.22-3.14,.67-1.26,.89-1.44,1.33l-.33,.67c-.85,1.85-2.07,2.78-3.67,2.78-.93,0-1.94-.33-3.06-1-1.85-1.07-2.78-2.31-2.78-3.72,0-.59,.43-1.85,1.28-3.78,.15-.33,.56-.92,1.22-1.75,.67-.83,1.44-1.56,2.31-2.19,.87-.63,2.09-1.2,3.67-1.72,1.57-.52,3.32-.78,5.25-.78,4.56,0,8.15,1.3,10.78,3.89Z" style="fill:#e84343;"/><path d="M161.62,30.14c2.63,2.59,3.94,5.51,3.94,8.75s-1.44,5.58-4.33,7.03v.39c.37,.19,.92,.58,1.64,1.19,.72,.61,1.31,1.21,1.75,1.81,1.22,1.56,1.83,3.33,1.83,5.33,0,3.96-1.48,7.23-4.45,9.81-2.96,2.58-6.69,3.86-11.17,3.86s-8.15-1.3-11.11-3.89c-1.11-1-2.09-2.31-2.94-3.95-.3-.59-.5-1.07-.61-1.44l-.11-.56c-.41-1.22-.61-2.22-.61-3,0-2.15,1.81-3.22,5.44-3.22,1.48,0,2.46,.19,2.94,.56,.63,.48,1.19,1.44,1.67,2.89,.37,1.19,1.39,2.08,3.06,2.67,.7,.22,1.48,.33,2.33,.33,1.96,0,3.41-.4,4.33-1.2,.93-.8,1.39-1.69,1.39-2.69s-.45-1.88-1.36-2.64c-.91-.76-1.98-1.14-3.22-1.14s-2.08-.04-2.53-.11c-.44-.07-.93-.26-1.44-.56-1-.48-1.5-1.91-1.5-4.28,0-2.59,.69-4.13,2.06-4.61,.63-.19,1.59-.28,2.89-.28,2.81,0,4.22-.72,4.22-2.17,0-.78-.37-1.52-1.11-2.22-.74-.7-1.77-1.06-3.08-1.06s-2.36,.22-3.14,.67-1.26,.89-1.44,1.33l-.33,.67c-.85,1.85-2.07,2.78-3.67,2.78-.93,0-1.94-.33-3.06-1-1.85-1.07-2.78-2.31-2.78-3.72,0-.59,.43-1.85,1.28-3.78,.15-.33,.56-.92,1.22-1.75,.67-.83,1.44-1.56,2.31-2.19,.87-.63,2.09-1.2,3.67-1.72,1.57-.52,3.32-.78,5.25-.78,4.56,0,8.15,1.3,10.78,3.89Z" style="fill:#f66;"/><g><g><path d="M211.39,110.67c1.27-.72,2.48-.93,3.65-.61,1.17,.32,2.05,.66,2.65,1.03,.6,.37,1.04,.72,1.31,1.07,.28,.34,.43,.83,.47,1.45,.01,.7-.17,1.74-.54,3.12l-8.7,31.97c-.24,.88-.45,1.53-.63,1.96-.18,.42-.5,.88-.96,1.37-.82,.89-2.45,1-4.9,.33-2.37-.65-3.71-1.54-4.01-2.7-.15-.66-.19-1.23-.12-1.73s.23-1.2,.48-2.12l5.58-20.49-.93,.48c-1.89,.76-3.39,.99-4.5,.69-1.11-.3-2.09-1.29-2.93-2.95s-1.12-3.02-.84-4.05c.28-1.03,1.28-1.97,2.99-2.82l11.72-5.93,.2-.07Z" style="fill:#5254cf;"/><path d="M208.25,108.94c1.27-.72,2.48-.93,3.65-.61,1.17,.32,2.05,.66,2.65,1.03,.6,.37,1.04,.72,1.31,1.07,.28,.34,.43,.83,.47,1.45,.01,.7-.17,1.74-.54,3.12l-8.7,31.97c-.24,.88-.45,1.53-.63,1.96-.18,.42-.5,.88-.96,1.37-.82,.89-2.45,1-4.9,.33-2.37-.65-3.71-1.54-4.01-2.7-.15-.66-.19-1.23-.12-1.73s.23-1.2,.48-2.12l5.58-20.49-.93,.48c-1.89,.76-3.39,.99-4.5,.69-1.11-.3-2.09-1.29-2.93-2.95s-1.12-3.02-.84-4.05c.28-1.03,1.28-1.97,2.99-2.82l11.72-5.93,.2-.07Z" style="fill:#9f9ef2;"/></g><g><path d="M75.61,136.69c1.52-.59,2.67-.83,3.45-.73,.78,.1,1.43,.47,1.93,1.1,.5,.64,.98,1.53,1.43,2.7,.45,1.16,.69,2.15,.73,2.94,.03,.8-.18,1.43-.63,1.9-.64,.76-1.7,1.43-3.18,2l-21.68,8.41c-1.33,.52-2.67,.46-4.02-.16s-2.28-1.6-2.8-2.93c-.77-2-.79-4.1-.06-6.33,.73-2.22,1.85-4.31,3.34-6.27,1.49-1.96,2.99-3.91,4.5-5.83,1.51-1.93,2.67-3.9,3.48-5.91,.81-2.02,.9-3.86,.25-5.52-.13-.33-.44-.75-.94-1.26-.5-.51-.98-.9-1.44-1.16-.47-.27-1.09-.44-1.89-.51-.79-.07-1.78,.12-2.97,.58-1.18,.46-2.04,1.29-2.57,2.5-.53,1.21-.69,2.26-.47,3.15l.27,1.36,.13,.33c.32,.81,.52,1.43,.63,1.86,.1,.43,.11,.96,.01,1.59-.21,1.1-1.48,2.1-3.81,3.01-2.59,1-4.4,.9-5.42-.32-.41-.52-.87-1.43-1.37-2.72-1.49-3.84-1.45-7.83,.12-11.95,1.57-4.12,4.58-7.04,9.04-8.77s8.67-1.58,12.64,.43c3.97,2.01,6.72,5,8.26,8.95,.82,2.11,1.13,4.28,.94,6.53-.19,2.24-.71,4.19-1.56,5.84-1.79,3.5-3.59,6.09-5.41,7.77l-1.17,1.09,.11,.28,10.15-3.94Z" style="fill:#e84343;"/><path d="M72.57,137.13c1.52-.59,2.67-.83,3.45-.73,.78,.1,1.43,.47,1.93,1.1,.5,.64,.98,1.53,1.43,2.7,.45,1.16,.69,2.15,.73,2.94,.03,.8-.18,1.43-.63,1.9-.64,.76-1.7,1.43-3.18,2l-21.68,8.41c-1.33,.52-2.67,.46-4.02-.16s-2.28-1.6-2.8-2.93c-.77-2-.79-4.1-.06-6.33,.73-2.22,1.85-4.31,3.34-6.27,1.49-1.96,2.99-3.91,4.5-5.83,1.51-1.93,2.67-3.9,3.48-5.91,.81-2.02,.9-3.86,.25-5.52-.13-.33-.44-.75-.94-1.26-.5-.51-.98-.9-1.44-1.16-.47-.27-1.09-.44-1.89-.51-.79-.07-1.78,.12-2.97,.58-1.18,.46-2.04,1.29-2.57,2.5-.53,1.21-.69,2.26-.47,3.15l.27,1.36,.13,.33c.32,.81,.52,1.43,.63,1.86,.1,.43,.11,.96,.01,1.59-.21,1.1-1.48,2.1-3.81,3.01-2.59,1-4.4,.9-5.42-.32-.41-.52-.87-1.43-1.37-2.72-1.49-3.84-1.45-7.83,.12-11.95,1.57-4.12,4.58-7.04,9.04-8.77s8.67-1.58,12.64,.43c3.97,2.01,6.72,5,8.26,8.95,.82,2.11,1.13,4.28,.94,6.53-.19,2.24-.71,4.19-1.56,5.84-1.79,3.5-3.59,6.09-5.41,7.77l-1.17,1.09,.11,.28,10.15-3.94Z" style="fill:#fc7464;"/></g><g><path d="M66.28,169.97l8.66-2.58,5.35-1.63c.91-.28,1.58-.45,2.02-.52,.43-.07,.98-.04,1.64,.09,1.19,.22,2.16,1.58,2.93,4.08,.7,2.28,.64,3.81-.15,4.59-.44,.47-.85,.79-1.23,.97-.38,.18-.99,.39-1.82,.65l-9.96,3.04c.06,.48,.31,1.98,.75,4.5,.39-.2,1.05-.44,1.96-.72,3.6-1.1,7.26-.74,10.97,1.09,3.71,1.83,6.17,4.71,7.37,8.63,1.2,3.93,.87,7.72-1,11.38-1.87,3.66-4.83,6.11-8.89,7.35-3.53,1.08-6.99,1.16-10.37,.25-.77-.22-1.36-.43-1.75-.65l-.58-.26c-1.82-.81-2.89-1.73-3.2-2.75-.31-1.02,.01-2.47,.98-4.34,.75-1.6,1.66-2.56,2.73-2.89,1.06-.32,2.52-.11,4.37,.66,.93,.59,2.23,.62,3.92,.11,1.69-.52,2.83-1.26,3.42-2.23,.59-.97,.7-2.09,.31-3.36-.39-1.27-1.14-2.14-2.26-2.61-1.12-.47-2.25-.53-3.38-.18-1.14,.35-1.94,.97-2.42,1.86-.76,1.19-1.66,1.94-2.7,2.26-1.04,.32-2.35,.32-3.91,.01-1.57-.31-2.63-.62-3.18-.93-.55-.31-.9-.71-1.05-1.2-.15-.49-.7-3.66-1.66-9.51-.96-5.84-1.45-8.89-1.48-9.13-.03-.24-.02-.68,.03-1.32,.05-.64,.17-1.24,.35-1.79s.55-1.11,1.11-1.67c.55-.56,1.27-.98,2.14-1.25Z" style="fill:#5254cf;"/><path d="M62.16,168.99l8.66-2.58,5.35-1.63c.91-.28,1.58-.45,2.02-.52,.43-.07,.98-.04,1.64,.09,1.19,.22,2.16,1.58,2.93,4.08,.7,2.28,.64,3.81-.15,4.59-.44,.47-.85,.79-1.23,.97-.38,.18-.99,.39-1.82,.65l-9.96,3.04c.06,.48,.31,1.98,.75,4.5,.39-.2,1.05-.44,1.96-.72,3.6-1.1,7.26-.74,10.97,1.09,3.71,1.83,6.17,4.71,7.37,8.63,1.2,3.93,.87,7.72-1,11.38-1.87,3.66-4.83,6.11-8.89,7.35-3.53,1.08-6.99,1.16-10.37,.25-.77-.22-1.36-.43-1.75-.65l-.58-.26c-1.82-.81-2.89-1.73-3.2-2.75-.31-1.02,.01-2.47,.98-4.34,.75-1.6,1.66-2.56,2.73-2.89,1.06-.32,2.52-.11,4.37,.66,.93,.59,2.23,.62,3.92,.11,1.69-.52,2.83-1.26,3.42-2.23,.59-.97,.7-2.09,.31-3.36-.39-1.27-1.14-2.14-2.26-2.61-1.12-.47-2.25-.53-3.38-.18-1.14,.35-1.94,.97-2.42,1.86-.76,1.19-1.66,1.94-2.7,2.26-1.04,.32-2.35,.32-3.91,.01-1.57-.31-2.63-.62-3.18-.93-.55-.31-.9-.71-1.05-1.2-.15-.49-.7-3.66-1.66-9.51-.96-5.84-1.45-8.89-1.48-9.13-.03-.24-.02-.68,.03-1.32,.05-.64,.17-1.24,.35-1.79s.55-1.11,1.11-1.67c.55-.56,1.27-.98,2.14-1.25Z" style="fill:#9f9ef2;"/></g><g><path d="M217.96,89.76c-1.07,3.86-3.36,6.7-6.85,8.53-3.49,1.83-7.21,2.2-11.14,1.1-4.97-1.38-8.27-4.02-9.9-7.91-1.63-3.89-1.75-8.36-.35-13.4,2.03-7.3,5.8-12.81,11.3-16.55,5.5-3.74,11.85-4.61,19.03-2.61,1.45,.4,2.46,.88,3.03,1.43,.57,.55,.86,1.22,.89,2.01s-.11,1.74-.42,2.85-.65,1.96-1.02,2.56c-.37,.6-.74,1.03-1.1,1.3-.36,.27-.82,.41-1.35,.42-.71,.05-1.85-.14-3.42-.58-1.57-.44-3.16-.59-4.78-.47-1.62,.13-2.96,.45-4.01,.99-2.12,1.1-3.54,2.22-4.27,3.38l-.51,.72c1.59-.26,3.1-.19,4.51,.2,3.78,1.05,6.67,3.2,8.67,6.45,2,3.25,2.56,6.44,1.69,9.58Zm-15.61,.17c2.94,.82,4.77-.05,5.48-2.61,.24-.88,.14-1.79-.32-2.74-.46-.95-1.42-1.63-2.89-2.04s-2.7-.37-3.68,.12c-.98,.49-1.57,1.1-1.77,1.82-.2,.73-.31,1.29-.32,1.7-.01,.41,.05,.88,.19,1.41,.29,1.03,1.39,1.81,3.3,2.34Z" style="fill:#d19c5e;"/><path d="M215.02,87.81c-1.07,3.86-3.36,6.7-6.85,8.53-3.49,1.83-7.21,2.2-11.14,1.1-4.97-1.38-8.27-4.02-9.9-7.91-1.63-3.89-1.75-8.36-.35-13.4,2.03-7.3,5.8-12.81,11.3-16.55,5.5-3.74,11.85-4.61,19.03-2.61,1.45,.4,2.46,.88,3.03,1.43,.57,.55,.86,1.22,.89,2.01s-.11,1.74-.42,2.85-.65,1.96-1.02,2.56c-.37,.6-.74,1.03-1.1,1.3-.36,.27-.82,.41-1.35,.42-.71,.05-1.85-.14-3.42-.58-1.57-.44-3.16-.59-4.78-.47-1.62,.13-2.96,.45-4.01,.99-2.12,1.1-3.54,2.22-4.27,3.38l-.51,.72c1.59-.26,3.1-.19,4.51,.2,3.78,1.05,6.67,3.2,8.67,6.45,2,3.25,2.56,6.44,1.69,9.58Zm-15.61,.17c2.94,.82,4.77-.05,5.48-2.61,.24-.88,.14-1.79-.32-2.74-.46-.95-1.42-1.63-2.89-2.04s-2.7-.37-3.68,.12c-.98,.49-1.57,1.1-1.77,1.82-.2,.73-.31,1.29-.32,1.7-.01,.41,.05,.88,.19,1.41,.29,1.03,1.39,1.81,3.3,2.34Z" style="fill:#ffc700;"/></g><g><path d="M206,232.04c2.78,0,4.4,.75,4.88,2.26,.24,.64,.36,1.74,.36,3.33s-.52,3.56-1.55,5.92c-1.03,2.36-2.27,4.69-3.72,6.99-1.45,2.3-2.91,4.62-4.37,6.96-3.49,5.67-5.23,10.23-5.23,13.68,0,.87-.04,1.52-.12,1.93-.08,.42-.28,.85-.59,1.31-.32,.46-.84,.76-1.58,.92-.73,.16-1.74,.24-3,.24s-2.27-.08-3-.24c-.73-.16-1.26-.48-1.58-.95-.32-.48-.51-.92-.57-1.34-.06-.42-.09-1.08-.09-1.99,0-2.58,.44-5.22,1.31-7.94,.87-2.72,1.92-5.14,3.15-7.29,1.23-2.14,2.46-4.11,3.69-5.92,1.23-1.8,2.28-3.35,3.15-4.64,.87-1.29,1.31-2.19,1.31-2.71h-13.56c-1.59,0-2.74-.2-3.45-.59-.71-.4-1.19-.97-1.43-1.72-.24-.75-.36-1.74-.36-2.97s.12-2.22,.36-2.97c.24-.75,.61-1.27,1.13-1.55,.83-.48,1.98-.71,3.45-.71h21.41Z" style="fill:#5254cf;"/><path d="M204.27,229.33c2.78,0,4.4,.75,4.88,2.26,.24,.64,.36,1.74,.36,3.33s-.52,3.56-1.55,5.92c-1.03,2.36-2.27,4.69-3.72,6.99-1.45,2.3-2.91,4.62-4.37,6.96-3.49,5.67-5.23,10.23-5.23,13.68,0,.87-.04,1.52-.12,1.93-.08,.42-.28,.85-.59,1.31-.32,.46-.84,.76-1.58,.92-.73,.16-1.74,.24-3,.24s-2.27-.08-3-.24c-.73-.16-1.26-.48-1.58-.95-.32-.48-.51-.92-.57-1.34-.06-.42-.09-1.08-.09-1.99,0-2.58,.44-5.22,1.31-7.94,.87-2.72,1.92-5.14,3.15-7.29,1.23-2.14,2.46-4.11,3.69-5.92,1.23-1.8,2.28-3.35,3.15-4.64,.87-1.29,1.31-2.19,1.31-2.71h-13.56c-1.59,0-2.74-.2-3.45-.59-.71-.4-1.19-.97-1.43-1.72-.24-.75-.36-1.74-.36-2.97s.12-2.22,.36-2.97c.24-.75,.61-1.27,1.13-1.55,.83-.48,1.98-.71,3.45-.71h21.41Z" style="fill:#9f9ef2;"/></g><g><path d="M234.15,218.15c-1.39,4.22-4.05,7.11-7.97,8.67-3.92,1.56-7.82,1.7-11.7,.42-3.88-1.28-6.93-3.71-9.15-7.28-2.22-3.58-2.63-7.49-1.22-11.74,.52-1.58,1.42-2.99,2.68-4.22,1.26-1.23,2.38-2.06,3.36-2.49l1.54-.68c-.19-.31-.41-.72-.66-1.22-.25-.5-.48-1.48-.68-2.95-.2-1.47-.08-2.88,.37-4.23,1.22-3.69,3.62-6.28,7.2-7.77,3.58-1.49,7.22-1.62,10.91-.4,3.69,1.22,6.49,3.5,8.39,6.85,1.9,3.34,2.22,6.92,.97,10.72-.37,1.13-1.03,2.19-1.96,3.17-.93,.99-1.78,1.69-2.54,2.1l-1.15,.62c.25,.38,.55,.9,.89,1.58,.34,.68,.68,1.93,1.02,3.75,.34,1.82,.24,3.53-.28,5.11Zm-19.8-3.04c.57,1.19,1.68,2.06,3.34,2.61,1.66,.55,3.05,.51,4.18-.12,1.13-.63,1.86-1.46,2.2-2.5,.34-1.04,.24-2.15-.31-3.33-.55-1.18-1.64-2.05-3.28-2.59-1.64-.54-3.04-.51-4.2,.08-1.16,.6-1.91,1.42-2.26,2.48s-.24,2.18,.33,3.37Zm13.94-16.94c.25-.75,.16-1.56-.26-2.44-.42-.87-1.26-1.51-2.53-1.93-1.26-.42-2.3-.4-3.11,.03-.81,.44-1.35,1.05-1.6,1.82-.25,.77-.17,1.61,.27,2.5,.43,.9,1.26,1.55,2.49,1.95,1.22,.4,2.26,.37,3.1-.1,.85-.47,1.39-1.08,1.64-1.84Z" style="fill:#394547;"/><path d="M231.99,215.55c-1.39,4.22-4.05,7.11-7.97,8.67-3.92,1.56-7.82,1.7-11.7,.42-3.88-1.28-6.93-3.71-9.15-7.28-2.22-3.58-2.63-7.49-1.22-11.74,.52-1.58,1.42-2.99,2.68-4.22,1.26-1.23,2.38-2.06,3.36-2.49l1.54-.68c-.19-.31-.41-.72-.66-1.22-.25-.5-.48-1.48-.68-2.95-.2-1.47-.08-2.88,.37-4.23,1.22-3.69,3.62-6.28,7.2-7.77,3.58-1.49,7.22-1.62,10.91-.4,3.69,1.22,6.49,3.5,8.39,6.85,1.9,3.34,2.22,6.92,.97,10.72-.37,1.13-1.03,2.19-1.96,3.17-.93,.99-1.78,1.69-2.54,2.1l-1.15,.62c.25,.38,.55,.9,.89,1.58,.34,.68,.68,1.93,1.02,3.75,.34,1.82,.24,3.53-.28,5.11Zm-19.8-3.04c.57,1.19,1.68,2.06,3.34,2.61,1.66,.55,3.05,.51,4.18-.12,1.13-.63,1.86-1.46,2.2-2.5,.34-1.04,.24-2.15-.31-3.33-.55-1.18-1.64-2.05-3.28-2.59-1.64-.54-3.04-.51-4.2,.08-1.16,.6-1.91,1.42-2.26,2.48s-.24,2.18,.33,3.37Zm13.94-16.94c.25-.75,.16-1.56-.26-2.44-.42-.87-1.26-1.51-2.53-1.93-1.26-.42-2.3-.4-3.11,.03-.81,.44-1.35,1.05-1.6,1.82-.25,.77-.17,1.61,.27,2.5,.43,.9,1.26,1.55,2.49,1.95,1.22,.4,2.26,.37,3.1-.1,.85-.47,1.39-1.08,1.64-1.84Z" style="fill:#6a6a6a;"/></g><g><path d="M229.07,152.08c-2.11-3.4-2.66-7-1.65-10.8,1.01-3.8,3.25-6.77,6.72-8.92,4.42-2.74,8.61-3.38,12.58-1.95,3.97,1.44,7.33,4.38,10.09,8.83,3.99,6.44,5.5,12.94,4.53,19.52-.97,6.57-4.6,11.81-10.91,15.71l-.3,.19c-1.28,.79-2.3,1.19-3.04,1.19-1.3,.01-2.6-1.03-3.89-3.12-1.46-2.36-1.68-4.14-.65-5.34,.45-.56,1.36-1.26,2.74-2.12,1.38-.86,2.57-1.92,3.58-3.2s1.65-2.47,1.94-3.58c.59-2.28,.75-4.1,.46-5.46l-.19-.87c-.93,1.37-2.01,2.44-3.26,3.21-3.3,2.05-6.83,2.7-10.57,1.97-3.75-.74-6.47-2.49-8.19-5.25Zm10.41-11.55c-2.6,1.61-3.19,3.54-1.8,5.8,.48,.78,1.22,1.32,2.23,1.63,1.01,.31,2.17,.06,3.48-.76,1.32-.81,2.12-1.75,2.43-2.8s.26-1.89-.12-2.51-.73-1.09-1.04-1.39-.72-.57-1.24-.81c-.98-.46-2.3-.18-3.96,.84Z" style="fill:#e84343;"/><path d="M226.47,151.97c-2.11-3.4-2.66-7-1.65-10.8,1.01-3.8,3.25-6.77,6.72-8.92,4.42-2.74,8.61-3.38,12.58-1.95,3.97,1.44,7.33,4.38,10.09,8.83,3.99,6.44,5.5,12.94,4.53,19.52-.97,6.57-4.6,11.81-10.91,15.71l-.3,.19c-1.28,.79-2.3,1.19-3.04,1.19-1.3,.01-2.6-1.03-3.89-3.12-1.46-2.36-1.68-4.14-.65-5.34,.45-.56,1.36-1.26,2.74-2.12,1.38-.86,2.57-1.92,3.58-3.2s1.65-2.47,1.94-3.58c.59-2.28,.75-4.1,.46-5.46l-.19-.87c-.93,1.37-2.01,2.44-3.26,3.21-3.3,2.05-6.83,2.7-10.57,1.97-3.75-.74-6.47-2.49-8.19-5.25Zm10.41-11.55c-2.6,1.61-3.19,3.54-1.8,5.8,.48,.78,1.22,1.32,2.23,1.63,1.01,.31,2.17,.06,3.48-.76,1.32-.81,2.12-1.75,2.43-2.8s.26-1.89-.12-2.51-.73-1.09-1.04-1.39-.72-.57-1.24-.81c-.98-.46-2.3-.18-3.96,.84Z" style="fill:#f66;"/></g><g><path d="M48.75,235.57c.62-1.87,1.77-3.64,3.44-5.3,1.67-1.66,3.81-2.89,6.42-3.7,2.61-.81,5.05-1,7.32-.58,2.27,.42,4.19,1.22,5.78,2.39,1.59,1.17,3.04,2.67,4.35,4.51,2.19,3.06,3.88,6.5,5.06,10.33,2.12,6.86,2.32,12.75,.61,17.68-.63,1.85-1.77,3.58-3.42,5.16-1.65,1.59-3.76,2.78-6.34,3.57-2.58,.8-5.01,1-7.31,.61-2.3-.39-4.24-1.15-5.81-2.28-1.57-1.13-3.04-2.61-4.39-4.44-2.1-2.92-3.8-6.44-5.07-10.57-1.17-3.79-1.73-7.17-1.67-10.13,.06-2.96,.4-5.38,1.03-7.26Zm19.99,23.99c3.9-1.21,4.71-5.52,2.41-12.95l-.11-.34c-2.35-7.62-5.46-10.83-9.33-9.63-3.87,1.19-4.62,5.61-2.26,13.24,2.36,7.64,5.45,10.86,9.28,9.68Z" style="fill:#a37c58;"/><path d="M45.28,235.57c.62-1.87,1.77-3.64,3.44-5.3,1.67-1.66,3.81-2.89,6.42-3.7,2.61-.81,5.05-1,7.32-.58,2.27,.42,4.19,1.22,5.78,2.39,1.59,1.17,3.04,2.67,4.35,4.51,2.19,3.06,3.88,6.5,5.06,10.33,2.12,6.86,2.32,12.75,.61,17.68-.63,1.85-1.77,3.58-3.42,5.16-1.65,1.59-3.76,2.78-6.34,3.57-2.58,.8-5.01,1-7.31,.61-2.3-.39-4.24-1.15-5.81-2.28-1.57-1.13-3.04-2.61-4.39-4.44-2.1-2.92-3.8-6.44-5.07-10.57-1.17-3.79-1.73-7.17-1.67-10.13,.06-2.96,.4-5.38,1.03-7.26Zm19.99,23.99c3.9-1.21,4.71-5.52,2.41-12.95l-.11-.34c-2.35-7.62-5.46-10.83-9.33-9.63-3.87,1.19-4.62,5.61-2.26,13.24,2.36,7.64,5.45,10.86,9.28,9.68Z" style="fill:#d19c5e;"/></g><g><path d="M80.68,57.16c.08-.63,.43-1.2,1.06-1.7,.63-.5,1.52-.99,2.67-1.48s2.12-.75,2.92-.81c.79-.05,1.45,.12,1.96,.53,.52,.41,.89,.82,1.13,1.23,.24,.42,.54,1.04,.89,1.89l12.82,30.49c.6,1.43,.87,2.55,.81,3.37-.06,.82-.4,1.49-1.03,2.01s-1.46,1-2.52,1.45c-1.06,.45-1.94,.71-2.64,.79-.7,.08-1.27,.06-1.7-.06s-.83-.38-1.17-.8c-.48-.53-.99-1.43-1.53-2.71l-2.81-6.69-14.86,6.25c-2.56,1.08-4.37,1.02-5.43-.17-.43-.51-.85-1.26-1.27-2.24s-.67-1.74-.76-2.26l-3.17-20.28c-.13-.93-.21-1.65-.23-2.16-.02-.51,.13-1.07,.46-1.68,.32-.61,.87-1.08,1.64-1.4,.77-.32,1.66-.55,2.68-.68,2.85-.38,4.62,.25,5.31,1.89,.25,.58,.44,1.41,.58,2.46,0,.09,0,.15,.01,.19l2.28,14.78,8.94-3.76-6.3-14.97c-.35-.84-.59-1.47-.7-1.9-.11-.43-.13-.96-.06-1.59Z" style="fill:#5254cf;"/><path d="M76.77,55.74c.08-.63,.43-1.2,1.06-1.7,.63-.5,1.52-.99,2.67-1.48s2.12-.75,2.92-.81c.79-.05,1.45,.12,1.96,.53,.52,.41,.89,.82,1.13,1.23,.24,.42,.54,1.04,.89,1.89l12.82,30.49c.6,1.43,.87,2.55,.81,3.37-.06,.82-.4,1.49-1.03,2.01s-1.46,1-2.52,1.45c-1.06,.45-1.94,.71-2.64,.79-.7,.08-1.27,.06-1.7-.06s-.83-.38-1.17-.8c-.48-.53-.99-1.43-1.53-2.71l-2.81-6.69-14.86,6.25c-2.56,1.08-4.37,1.02-5.43-.17-.43-.51-.85-1.26-1.27-2.24s-.67-1.74-.76-2.26l-3.17-20.28c-.13-.93-.21-1.65-.23-2.16-.02-.51,.13-1.07,.46-1.68,.32-.61,.87-1.08,1.64-1.4,.77-.32,1.66-.55,2.68-.68,2.85-.38,4.62,.25,5.31,1.89,.25,.58,.44,1.41,.58,2.46,0,.09,0,.15,.01,.19l2.28,14.78,8.94-3.76-6.3-14.97c-.35-.84-.59-1.47-.7-1.9-.11-.43-.13-.96-.06-1.59Z" style="fill:#9f9ef2;"/></g><g><path d="M172.94,111.48s2.2-15.54,2.2-18.76-.38-9.94-9.82-12.55c-9.44-2.61-23.19-3.61-30.29-2.62-7.21,1.01-11.69,3.13-12.1,9.95s-.72,20.15,.4,21.88c4.82,7.43,49.6,2.09,49.6,2.09Z" style="fill:#d19c5e;"/><path d="M126.81,92.98c-.99-.99-.53-7.08,1.52-9.28,2.81-3.01,9.39-4.25,15.9-1.87,4.52,1.66,3.64,4.22-3.01,3.39-4.54-.57-7.63,.69-8.73,4.3s-3.39,5.75-5.68,3.46Z" style="fill:#1d1d1b; isolation:isolate; opacity:.3;"/><g><path d="M147.1,149.59c-21.98-.45-22.4,5.75-23.31,6.16-.03,.01-.05,0-.08,0l4.36,67.98,.2,3.12h39.85l2.51-69.18c-.11,.52-.2,.82-.2,.82,0,0-.37-8.41-23.34-8.88Z" style="fill:#ffc700;"/><path d="M172.4,124.75s1.37-9.75,.9-12.65c-.54-3.36-13.27-5.92-29.33-6.53-10.83-.41-22.02,.05-22.03,4.6,0,2.45,.06,9.59,.06,9.59,0,0-3.51,1.07-3.93,8.1-.35,5.9,3.97,8.97,3.97,8.97-.24,2.47,.79,18.4,1.68,18.92,.03,.02,.05,.02,.08,0,.91-.41,1.32-6.61,23.31-6.16,22.97,.47,23.34,8.88,23.34,8.88,0,0,.09-.3,.2-.82,.14-.67,.33-1.73,.42-3.08,.15-2.26,.44-15.38,.44-15.38,0,0,3.39-.79,3.92-6.17,.6-6.17-3.01-8.28-3.01-8.28Z" style="fill:#6a6a6a;"/></g><path d="M169.71,182.92s14.58,3.97,21.31-3.36c0,0,2.28-2.79,2.46-7.93,.18-5.14,3.12-1.81,2.66,2.81,0,0,4.12-2.36,4.67-.65,.46,1.41-1.71,2.41-1.71,2.41,0,0,1.94-.58,2.36,1.1,.35,1.41-1.96,2.26-1.96,2.26,0,0,1.54-.43,1.81,1.1s-.85,2.66-5.47,3.76c-2,.48-4.72-.3-4.72-.3,0,0-10.94,5.52-21.57,3.03,0,0,.16-4.14,.16-4.24Z" style="fill:#394547;"/><path d="M125.37,182.77s-10.94,.7-12.25,11.24c-1.31,10.54,8.43,12.05,8.43,12.05,0,0,1.54-2.72,3.11-3.11,2.01-.5,3.71,0,3.71,1.61,0,.8-.4,1.51-1.71,1.61,0,0,2.2,.51,1.81,2.01s-2.11,1.31-2.11,1.31c0,0,1.88,.31,1.61,1.71-.2,1-2.21,3.21-7.83-1.61,0,0-13.25-4.12-9.64-18.77,2.7-10.97,14.66-12.05,14.66-12.05l.2,4.02Z" style="fill:#394547;"/><g><circle cx="131.62" cy="170.53" r="7.78" style="fill:#394547;"/><path d="M126.58,159.16c3.13-1.93,5.41-2.6,6.6-1.95s1.16,1.89-.25,2.76c-1.41,.87-3.13,1.16-5.55,2.57-2.1,1.22-2.32,2.21-4.05,1.69s.35-3.29,3.25-5.07Z" style="fill:#394547;"/><circle cx="132.91" cy="172.86" r="8.26" style="fill:#fff;"/><circle cx="132.57" cy="173.84" r="5.47" style="fill:#394547;"/><path d="M131.72,173.13c-2.21,2.11-5.1,1.28-2.31-1.61s4.59-.57,2.31,1.61Z" style="fill:#fff;"/></g><g><circle cx="157.72" cy="170.53" r="7.78" style="fill:#394547;"/><path d="M165.1,158.86c-3.1-1.93-5.36-2.6-6.53-1.95-1.18,.65-1.15,1.89,.24,2.76s3.1,1.16,5.5,2.57c2.08,1.22,2.3,2.21,4.01,1.69s-.35-3.29-3.22-5.07Z" style="fill:#394547;"/><circle cx="156.6" cy="172.56" r="8.26" style="fill:#fff;"/><circle cx="156.27" cy="173.53" r="5.47" style="fill:#394547;"/><path d="M155.41,172.83c-2.21,2.11-5.1,1.28-2.31-1.61s4.59-.57,2.31,1.61Z" style="fill:#fff;"/></g><g><path d="M145.63,199.46s4.94-5.54,10.45-.31c3.49-5.92,3.81-13.87,3.81-13.87-1.22,2.19-8.51,5.73-14.93,6.07-7.53,.4-14.16-7-14.16-7,.12,2.95,1.22,10.82,5.27,16.08,1.39-1.94,4.16-3.56,9.56-.97Z" style="fill:#394547;"/><path d="M146.35,205.46c4.66-.15,7.73-2.89,9.74-6.31-5.51-5.23-10.45,.31-10.45,.31-5.4-2.59-8.16-.97-9.56,.97,2.32,3.02,5.62,5.18,10.27,5.03Z" style="fill:#f66;"/></g><g><path d="M150.7,226.89h-22.39l10.31,30.37s0,.02,0,.05h11.92c.18-7.91,.17-22.25,.15-30.42Z" style="fill:#efefef; isolation:isolate;"/><path d="M150.27,262.74c.12-.61,.21-2.62,.27-5.43h-11.92c.04,.54,.47,5.49,2.06,10.24,7.11,4.64,9-1.72,9.59-4.81Z" style="fill:#6a6a6a;"/><path d="M150.54,257.31h8.7c.03-.29,.05-.45,.05-.45l8.66-29.97h-17.26c.02,8.16,.03,22.51-.15,30.42Z" style="fill:#1d1d1b; isolation:isolate; opacity:.3;"/><path d="M148.66,276.53c7.97,.82,10.25-16.23,10.59-19.22h-8.7c-.06,2.82-.15,4.82-.27,5.43-.6,3.09-2.49,9.44-9.59,4.81,1.46,4.37,3.92,8.56,7.98,8.98Z" style="fill:#394547;"/></g><path d="M122.06,122.44c-.94,1.87,.68,2.41,5.02,1.41,13.05-3.01,19.07-.2,20.88-1.41,3.74-2.49-22.89-6.02-25.9,0Z" style="fill:#fff; isolation:isolate; opacity:.5;"/></g></g></svg>