<?xml version="1.0" encoding="UTF-8"?><svg id="a" xmlns="http://www.w3.org/2000/svg" viewBox="0 0 300 300"><g><g><g style="isolation:isolate;"><path d="M149.37,163.1v6.56c-.01,4.46-2.95,8.91-8.8,12.31-11.78,6.85-30.94,6.85-42.8,0-5.97-3.45-8.94-7.97-8.93-12.48v-6.56c-.01,4.51,2.98,9.04,8.94,12.48,11.86,6.85,31.02,6.85,42.8,0,5.85-3.4,8.77-7.85,8.79-12.31Z" style="fill:#1d1d1b;"/><path d="M140.44,150.62c11.86,6.85,11.92,17.94,.14,24.79-11.78,6.85-30.94,6.85-42.8,0-11.86-6.85-11.92-17.95-.14-24.79,11.78-6.85,30.94-6.85,42.8,0Z" style="fill:#6a6a6a;"/></g><g style="isolation:isolate;"><path d="M77.57,47.42c-.24,.19-.47,.38-.7,.57,.24-.2,.47-.39,.7-.57Z" style="fill:#9deff1;"/><path d="M157.89,54.98c2.04-1.66,6.29-5.13-5.85-13.32-.69-.39-1.4-.78-2.16-1.18-5.65-2.98-13.13-5.42-17.95-6.26-2.2-.38-4.29-.68-6.33-.89-2.34,.21-7.49,.94-12.29,3.28,3.36,1.26,6.78,2.88,10.2,4.86l-8.42,7.57c-3.5-2.02-6.93-3.62-10.25-4.81-4.84,8.56-13.45,7.12-12.97,5.67,.48-1.45-1.93-5.8-11.59-2.41-1.42,.5-2.61,.69-3.61,.66-2.86,2.33-5.55,4.93-8.05,7.81-2.28,2.62-4.4,5.48-6.35,8.57-.42,.66-.83,1.33-1.23,2.01-.8,1.37-2.08,3.86-3.3,6.66-1.15,2.61-2.26,5.48-2.92,7.95-3,11.2-3.24,18.69-1.86,29.27,.28,2.14,.93,4.95,1.49,7.02,.93,3.4,2.11,6.73,3.56,9.95-1.3-3.02-1.52-4.58-1.49-4.95,.03-.31,.04-.74,.18-1.01,.57-1.14,2-1.37,2.62-2.46,.47-.82-.08-1.74,.25-2.58,.23-.07,.45-.09,.65-.07-1.75-2.11-2.38-6.19-.18-9.22,.94-.02,1.6,.48,2.22,1.03,.62,.55,1.22,1.15,2.06,1.32,.03-2.48-3.01-3.94-2.21-6.67,.37,0,.72,0,1.07-.01,3.38-.03,5.75-.07,7.46-.28,3.93-.48,4.48-1.84,6.19-6.03-.86-.06-1.6-.12-1.65-1,0-.05,.6-4.24,2.14-5.58l16.73-10.77c1.83-.46,11.36,6.27,13.23,8.21,1.87,1.94,.99,2.83,.53,3.13q-.48,.31-5.3-.1c.4,4.41,.83,5.14,1.54,6.33,5.3-2.46,9.3-6.93,14.57-9.43,2.47-1.17,5.3,.04,7.76-1.17,.17-.08,.22-.39,.32-.55-2.51-.17-5.01,2.41-7.52,.02-2.22-2.11,3.66-15.68,9.94-15.58,.19,.2,.46,.47,.65,.67q-.09,.39-8.56,8.89c.02,.36,.04,.84,.05,1.2q9.42,4.99,10.13,5.16c.36-5.51,.49-5.99,.84-7.28,.22-.07,.51-.17,.72-.25,.55,.81,.71,1.81,1.24,2.63,.14-.11,12.42-12.84,8.61-19.14-.03-.04-.07-.1-.1-.14,3.11,1.03,6.25-1.34,9.35,.1q.27,.12,1.31,4.87c2.23-3.04,6.93-3.11,8.44-7.03,1.04-2.69-3.2-2.64-3.92-4.69Zm-61.93,10.56c-1.89,.57-5.4,1.62-11.44,5.24-5.09,3.04-9.56,6.95-14.45,10.26-2.82,1.91-3.41,1.34-3.72-.77-.01-.09-.03-.18-.04-.27-.26-1.7-.53-2.91-2.41-2.86-1.63,.04-2.62,1.14-3.69,2.1-.56,.5-1.15,.97-1.86,1.23-.04-.07-.09-.17-.12-.24,.33-.74,1.07-1.89,2.06-3.24,1.53-2.09,3.68-4.68,5.91-7.01,1.95-2.03,3.98-3.87,5.74-5.02,3.08-2.01,6.53-3.33,9.72-5.14,2.83-1.62,5.22-3.88,8.02-5.55,.17-.1,.41-.23,.6-.3,.9-.34,4.54,2.05,4.61,2.3,.4,1.55-1.23,2.07-1.63,3.21,1.96,2.39,5.57-1.7,6.99,1.34-.4,1.06-2.74,4.27-4.28,4.73Z" style="fill:#d0d0fc;"/><path d="M113.31,36.62c3.36,1.26,6.78,2.88,10.2,4.86l-8.42,7.57c-3.5-2.02-6.93-3.62-10.25-4.81-4.84,8.56-13.45,7.12-12.97,5.67,.48-1.45-1.93-5.8-11.59-2.41-1.42,.5-2.61,.69-3.61,.66,.13-.11,.53-.43,.57-.46,.12-.09,.85-.67,.97-.75,1.41-1.09,2.86-2.11,4.34-3.08,.4-.26,.81-.52,1.22-.77,.66-.41,1.31-.79,1.95-1.16,.14-.08,1.79-1,1.91-1.06,.09-.05,2.29-1.17,2.41-1.23,.19-.1,1.19-.56,1.53-.72,.12-.05,1.28-.57,1.53-.67,.51-.21,2.37-.94,2.4-.95,.79-.3,1.57-.58,2.35-.84,2.2-.74,4.28-1.33,6.09-1.73,.12-.03,1.45-.3,1.78-.37,2.77-.54,5.34-.92,7.82-1.14,3.25-.29,6.33-.31,9.46-.11,.92,.06,1.77,.13,2.63,.22-2.34,.21-7.49,.94-12.29,3.28Z" style="fill:#196c89;"/><path d="M77.43,96.42c.43-.07,1.03-.16,1.96-.47,0,0,.34,2.83-.46,5.76-.23,.83-.15,1.19,.32,1.49,.09,.03,2.29,.79,3.69-.76,.03-.03,2.9-3.62,2.08-5.62-.52-1.27,6.26-5.74,6.6-5.89,2.8-1.22,3.94,.61,3.51,1.47-.54,1.08-2.92,2.07-4.06,2.54-1.46,.61-1.69,.7-1.84,1.02-.68,1.39,.17,3.31,.57,4.07,.11,.21,.12,.23-.32,1.26-.85,2-1.68,2.06-2.4,2.12-.61,.05-1.1,.08-1.42,.96-.18,.48-.44,1.2-.46,2.53-.96-.62-2.96-1.73-5.61-2.09-.7-.1-1.19-.34-1.48-.72-1.79-2.41,.67-5.2-.67-7.66Z" style="fill:#d0d0fc;"/><path d="M153.25,42.36l-.97-.56c.33,.19,.66,.38,.97,.56Z" style="fill:#196c89;"/><path d="M165.41,51.57c-1.61-1.44-3.19-2.84-4.95-4.25,.5,.39,1.02,.8,1.57,1.23,4.41,3.5,9.78,9.58,12.5,13.78-3.37-4.59-4.28-5.82-9.11-10.75Z" style="fill:#196c89;"/><path d="M63.41,117.64c-1.2,.28-2.33-.27-3.19-1.3,1.16,.13,1.92,1.56,3.19,1.3Z" style="fill:#196c89;"/><path d="M92.56,161.46c-.21-.09-.44-.19-.66-.28-15.32-6.77-26.7-18.51-33.3-32.43,1.33,2.56,3.16,5.81,4.63,8.22,1.48,2.1,3.57,4.82,5.18,6.82,.03,.03,3.32,3.31,8.09,7.1,1.6,.46,4.18,3.47,4.21,3.5,1.02,1.23,5.19,3.78,7.69,5.12,1.22,.62,2.89,1.38,4.15,1.96Z" style="fill:#d0d0fc;"/><path d="M95.88,162.79c.86,.31,1.98,.68,3.87,1.3-.73-.2-2.13-.65-3.87-1.3Z" style="fill:#196c89;"/><path d="M66.36,119.37c-.95-.67-1.73-1.15-2.82-1.76,.7-.2,1.32-.38,1.88-.54,.3,.77,.61,1.53,.94,2.3Z" style="fill:#d0d0fc;"/><path d="M71.89,126.12c-.51-1.03-1-2.07-1.47-3.11,.72,.93,1.22,1.93,1.47,3.11Z" style="fill:#196c89;"/><path d="M76.01,133.86s-.08-.05-.12-.08c-2.81-2.01-3.49-5.24-3.99-7.6,1.27,2.56,2.65,5.14,4.11,7.68Z" style="fill:#196c89;"/><path d="M77.29,119.67c-.83-1.15-1.57-2.34-1.89-3.73,.17,.29,.36,.55,.56,.81,.43,.97,.87,1.95,1.33,2.92Z" style="fill:#196c89;"/><path d="M80.66,126.36c-1.19-2.22-2.32-4.45-3.37-6.7,1.49,2.06,3.25,3.98,3.37,6.7Z" style="fill:#196c89;"/><path d="M110.08,166.32c.19,.02,.4,.03,.56,.04-2.81-1.32-3.56-1.68-3.02-2.3,.22-.25,.67-.57,2.12-.84,1.45,1.24,2.92,2.43,4.41,3.56-1.33-.1-2.69-.26-4.07-.46Z" style="fill:#d0d0fc;"/><path d="M178.78,69.52c-.79-1.42-1.78-3.14-2.74-4.74,1.37,2.18,2.31,3.92,2.74,4.74Z" style="fill:#196c89;"/><g><path d="M117.45,158.43c-.12,.17-.27,.41-.4,.57-.66,.83-3.09,3.57-6.71,4.12-.22,.03-.41,.07-.59,.1-1.45,.27-1.9,.59-2.12,.84-.54,.62,.21,.98,3.02,2.3-.17-.01-.37-.02-.56-.04-3.08-.36-6.29-1.13-9.78-2.08-.18-.05-.37-.1-.55-.15-1.9-.58-3-.99-3.87-1.3-.33-.13-.65-.25-.98-.38-.74-.29-1.53-.6-2.34-.95-1.28-.57-2.93-1.34-4.15-1.96-2.5-1.34-6.67-3.89-7.69-5.12-.02-.03-2.61-3.04-4.21-3.5-4.78-3.79-8.07-7.07-8.09-7.1-1.61-2-3.7-4.72-5.18-6.82-1.47-2.41-3.35-5.64-4.63-8.22-.22-.44-.41-.89-.61-1.33-1.3-3.02-1.52-4.58-1.49-4.95,.03-.31,.04-.74,.18-1.01,.57-1.14,2-1.37,2.62-2.46,.47-.82-.08-1.74,.25-2.58,.23-.07,.45-.09,.65-.07,.86,1.03,1.98,1.56,3.19,1.3,.04,0,.09-.02,.13-.03,1.09,.61,1.86,1.09,2.82,1.76,.17,.11,.34,.24,.52,.37,1.49,1.13,2.67,2.16,3.53,3.28,.48,1.04,.97,2.08,1.47,3.11,.51,2.42,1.2,5.65,4.01,7.66,.04,.03,.08,.06,.12,.08,2.08,1.46,2.75,1.09,3.25,.82,1-.54,4.06,.43,7.4,1.8,5.09,2.09,10.83,5.13,10.91,5.18,.13,.1,.16,.34,.22,.48,2.52,5.48,5.89,10.52,7.12,11.58,.4,.35,1.47,1.28,7.29,2.76,4.49,1.14,4.86,1.23,5.25,1.94Z" style="fill:#5254cf;"/><path d="M58.61,128.74c-.04-.08-.09-.16-.13-.24-.18-.38-.34-.74-.49-1.09,.2,.45,.4,.89,.61,1.33Z" style="fill:#7ac3d3;"/><path d="M63.41,117.64c-1.2,.28-2.33-.27-3.19-1.3,1.16,.13,1.92,1.56,3.19,1.3Z" style="fill:#7ac3d3;"/><path d="M71.89,126.12c-.51-1.03-1-2.07-1.47-3.11,.72,.93,1.22,1.93,1.47,3.11Z" style="fill:#7ac3d3;"/><path d="M60.21,116.34c.86,1.03,1.99,1.59,3.19,1.3-1.27,.26-2.03-1.17-3.19-1.3Zm17.07,3.33c1.05,2.24,2.18,4.48,3.37,6.7-.12-2.72-1.89-4.64-3.37-6.7ZM151.84,41.55l.19,.12c.09,.05,.16,.09,.24,.13l-.43-.25Zm1.62,.94l-.19-.11c2.55,1.5,4.63,2.97,7.12,4.9-1.96-1.56-4.16-3.13-6.93-4.79Zm22.58,22.29c.96,1.6,1.95,3.32,2.74,4.74-.43-.82-1.37-2.56-2.74-4.74Z" style="fill:#9f9ef2;"/><path d="M180.52,76.75q-.48,.66-.43,4.08c-4.23-15.93-4.58-17.23-10.69-24.94,2.7,2.99,4.95,6.22,6.6,8.83-.47-.77-.92-1.52-1.35-2.19-.04-.07-.09-.13-.13-.2-3.37-4.59-4.28-5.82-9.11-10.75-1.61-1.44-3.18-2.85-4.95-4.25-2.53-1.99-4.62-3.45-7.17-4.94-.03-.02-1.16-.67-1.24-.71,12.14,8.19,7.89,11.65,5.85,13.32,.72,2.05,4.96,2,3.92,4.69-1.51,3.91-6.21,3.98-8.44,7.03q-1.04-4.74-1.31-4.87c-3.1-1.45-6.24,.93-9.35-.1,.03,.04,.07,.1,.1,.14,3.81,6.3-8.48,19.03-8.61,19.14-.53-.82-.69-1.82-1.24-2.63-.22,.07-.5,.17-.72,.25-.35,1.29-.48,1.77-.84,7.28q-.72-.17-10.13-5.16c-.02-.36-.04-.84-.05-1.2q8.47-8.5,8.56-8.89c-.19-.2-.45-.47-.65-.67-6.28-.09-12.16,13.47-9.94,15.58,2.51,2.39,5.01-.19,7.52-.02-.1,.17-.14,.47-.32,.55-2.46,1.21-5.29,0-7.76,1.17-5.27,2.5-9.27,6.97-14.57,9.43-.71-1.2-1.13-1.92-1.54-6.33q4.81,.4,5.3,.1c.46-.29,1.34-1.19-.53-3.13-1.86-1.93-11.4-8.67-13.23-8.21l-16.73,10.77c-1.54,1.33-2.14,5.53-2.14,5.58,.05,.88,.79,.94,1.65,1-1.7,4.19-2.26,5.55-6.19,6.03-1.72,.21-4.08,.25-7.46,.28-.34,0-.7,0-1.07,.01-.8,2.73,2.23,4.2,2.21,6.67-.83-.17-1.43-.77-2.06-1.32-.63-.55-1.28-1.05-2.22-1.03-2.2,3.03-1.57,7.12,.18,9.22,1.16,.13,1.92,1.56,3.19,1.3,.04,0,.09-.02,.13-.03,.7-.2,3.48-1,4.08-1.17,2.8-.79,2.87-.76,3.13-.63,3.58,1.75,4.17,5.79,6.51,8.48l.42,4.22,3-1.69c0-.15,0-.31,0-.46-1.19-2.22-2.32-4.45-3.37-6.7-.83-1.15-1.57-2.34-1.89-3.73,.17,.29,.36,.55,.56,.81,1.67,2.16,4.23,3.51,5.55,5.99,.95,1.78,1.43,3.69,2.25,8.89,.2,.13,.47,.29,.68,.42,.7-.45,1.12-.72,1.18-3.03,.03-1.36,.61-3.14,5.19-2.79,.43-.42,1-.97,1.42-1.39,2.26,.11,5.28,.24,7.55,.27,1.13,1.43,2.62,3.35,3.79,4.75-5.29-.7-10.31-3.04-15.78-2.72-1.22,1.8,2.66,10.69,9.69,9.61,.2-.03,.46-.09,.65-.13-.07,1.27-.16,2.97-.23,4.25,4.99,10.03,7.27,14.61,19.52,15.68,11.77-1.97,8.3-4.62,7.49-5.13-1.16-.73-2.6-.76-3.61-.67-.95,.09-3.83,.37-7.56-5.94,6.18,4.25,20.5,2.57,20.63,2.55,2.54-.45,4.55-.81,6.1,3.21,.97,2.51,5.01,5.79,5.04,5.79,.33-.02,.83-.01,1.07-.23,1.34-1.22,1.2-3.24,2.46-4.5,1.5-1.5,3.83-1.67,5.28-3.25,0,0,2.28-2.78,4.85-6.51q2.3,1.81,3.93,3.66c-.57,2.91-.75,3.61-2.33,6.24,1.64-.83,2.26-1.33,3.31-2.4-.13-.14-.31-.33-.44-.48,.21-1.4,1.28-3.25,1.33-3.33,.49,.06,1.14,.26,1.57,.49,1.95-1.14,4.98-5.28,5.01-5.32,.14-.21,7-12.14,7.04-12.21,2.38-4.74,4.68-12.34,3.99-14.46-.33,.01-.76,.03-1.09,.04-.02-.03-1.43-3.38,1.97-6.79,.85,1.91,.19,3.91,.35,5.86,2.21-4.45,2.91-25.42-3.29-36.44Zm-85.4,15.65c-.54,1.08-2.92,2.07-4.06,2.54-1.46,.61-1.69,.7-1.84,1.02-.68,1.39,.17,3.31,.57,4.07,.11,.21,.12,.23-.32,1.26-.85,2-1.68,2.06-2.4,2.12-.61,.05-1.1,.08-1.42,.96-.18,.48-.44,1.2-.46,2.53-.96-.62-2.96-1.73-5.61-2.09-.7-.1-1.19-.34-1.48-.72-1.79-2.41,.67-5.2-.67-7.66,.43-.07,1.03-.16,1.96-.47,0,0,.34,2.83-.46,5.76-.23,.83-.15,1.19,.32,1.49,.09,.03,2.29,.79,3.69-.76,.03-.03,2.9-3.62,2.08-5.62-.52-1.27,6.26-5.74,6.6-5.89,2.8-1.22,3.94,.61,3.51,1.47Z" style="fill:#9f9ef2;"/><path d="M100.23,60.81c-.4,1.06-2.74,4.27-4.28,4.73-1.89,.57-5.4,1.62-11.44,5.24-5.09,3.04-9.56,6.95-14.45,10.26-2.82,1.91-3.41,1.34-3.72-.77-.01-.09-.03-.18-.04-.27-.26-1.7-.53-2.91-2.41-2.86-1.63,.04-2.62,1.14-3.69,2.1-.56,.5-1.15,.97-1.86,1.23-.04-.07-.09-.17-.12-.24,.33-.74,1.07-1.89,2.06-3.24,1.53-2.09,3.68-4.68,5.91-7.01,1.95-2.03,3.98-3.87,5.74-5.02,3.08-2.01,6.53-3.33,9.72-5.14,2.83-1.62,5.22-3.88,8.02-5.55,.17-.1,.41-.23,.6-.3,.9-.34,4.54,2.05,4.61,2.3,.4,1.55-1.23,2.07-1.63,3.21,1.96,2.39,5.57-1.7,6.99,1.34Z" style="fill:#ebefff;"/></g><path d="M125.76,33.33c-.05,0-.11,0-.16,.01-2.34,.21-7.49,.94-12.29,3.28-2.5,1.22-4.91,2.88-6.77,5.12-.44,.53-.86,1.1-1.23,1.7-.14,.22-.27,.44-.4,.67-.02,.04-.05,.08-.07,.12-4.84,8.56-13.45,7.12-12.97,5.67,.48-1.45-1.93-5.8-11.59-2.41-1.42,.5-2.61,.69-3.61,.66,.13-.11,.53-.43,.57-.46,.12-.09,.85-.67,.97-.75,1.32-1,3.01-2.19,4.34-3.08,.04-.03,.08-.05,.11-.08,.34-.22,.71-.46,1.11-.7,.67-.4,2.52-1.49,2.58-1.53,.29-.17,2.64-1.4,2.84-1.5,.09-.04,1.23-.61,1.41-.69,.3-.14,1.62-.74,1.77-.81,.24-.11,.48-.21,.72-.31,.48-.2,.95-.4,1.37-.56,.06-.02,1-.38,1.03-.4,.79-.3,1.64-.62,2.35-.84,1.04-.32,2.36-.75,3.36-1.03,.8-.22,1.83-.49,2.73-.7,.12-.03,1.41-.3,1.75-.37,.7-.15,1.43-.29,2.04-.39,.92-.14,2.14-.34,3.06-.45,.81-.1,1.87-.23,2.74-.29,.1,0,.2-.01,.3-.02,.9-.05,2.09-.14,2.99-.17,.9-.03,2.09-.05,2.99-.04,.95,0,2.08,.05,3.19,.12,1.03,.06,1.97,.13,2.79,.21Z" style="fill:#5254cf;"/></g><path d="M103.01,47.81s4.99-8.21,11.91-7.08c6.92,1.13,13.36,.16,20.44,2.09,7.08,1.93,9.01,5.63,6.12,9.66-2.9,4.02,1.29,5.63-4.99,7.89-6.28,2.25-10.62,4.35-15.29,5.47-4.67,1.13-16.58-6.92-19.8-10.3-3.22-3.38,1.61-7.73,1.61-7.73Z" style="fill:#ebefff;"/><g style="isolation:isolate;"><g><path d="M83.03,36.86c-1.52,.87-2.94,1.87-4.27,2.99-.5,.43-.99,.88-1.47,1.34-2.11,2.06-3.94,4.49-5.47,7.24-1.28,2.29-2.35,4.81-3.21,7.54-2.28,2.62-4.4,5.48-6.35,8.57-.42,.66-.83,1.33-1.23,2.01-.8,1.37-2.08,3.86-3.3,6.66,1.18-14.81,7.02-25.85,16.72-31.37l8.58-4.99Z" style="fill:#1d1d1b;"/><path d="M77.29,119.67c-.83-1.15-1.57-2.34-1.89-3.73,.17,.29,.36,.55,.56,.81,.43,.97,.87,1.95,1.33,2.92Z" style="fill:#9f9ef2;"/><path d="M71.89,126.12c-.51-1.03-1-2.07-1.47-3.11,.72,.93,1.22,1.93,1.47,3.11Z" style="fill:#5254cf;"/><path d="M76.01,133.86s-.08-.05-.12-.08c-2.81-2.01-3.49-5.24-3.99-7.6,1.27,2.56,2.65,5.14,4.11,7.68Z" style="fill:#9deff1;"/></g><g><path d="M71.29,43.95c.42-.28,.85-.54,1.3-.79l-1.3,.79Z" style="fill:#9deff1;"/><path d="M123.5,41.48l-8.42,7.57c-3.11-2.33-6.42-4.19-9.78-5.61-5.23-2.21-10.61-3.36-15.65-3.62-4.51-.23-8.74,.27-12.36,1.37-1.71,.52-3.29,1.18-4.69,1.96l10.61-6.45c5.98-3.48,13.84-4.22,22.46-2.35,2.51,.54,5.06,1.3,7.64,2.27,3.36,1.26,6.78,2.88,10.2,4.86Z" style="fill:#6a6a6a;"/></g><g><path d="M185.26,89.5c-.66-4.88-2.43-10.49-3.29-12.68-3.01-7.7-4.87-10.52-7.32-14.29,.43,.67,.89,1.42,1.35,2.19-1.65-2.62-3.9-5.84-6.6-8.83,6.11,7.71,6.46,9.01,10.69,24.94q-.05-3.42,.43-4.08c6.2,11.01,5.5,31.98,3.29,36.44-.15-1.95,.51-3.95-.35-5.86-3.4,3.41-1.99,6.76-1.97,6.79,.33-.01,.76-.03,1.09-.04,.7,2.11-1.61,9.72-3.99,14.46-.04,.07-6.89,12-7.04,12.21-.03,.04-3.06,4.18-5.01,5.32-.43-.23-1.08-.43-1.57-.49-.05,.08-1.12,1.93-1.33,3.33,.13,.14,.31,.33,.44,.48-1.05,1.08-1.68,1.58-3.31,2.4,1.58-2.63,1.75-3.34,2.33-6.24q-1.63-1.86-3.93-3.66c-2.57,3.73-4.85,6.51-4.85,6.51-1.44,1.58-3.78,1.75-5.28,3.25-1.26,1.26-1.12,3.28-2.46,4.5-.24,.22-.74,.21-1.07,.23-.03,0-4.07-3.28-5.04-5.79-1.55-4.02-3.56-3.66-6.1-3.21-.13,.02-14.45,1.71-20.63-2.55,3.74,6.31,6.62,6.03,7.56,5.94,1.01-.1,2.45-.06,3.61,.67,.81,.51,4.28,3.16-7.49,5.13-12.25-1.08-14.53-5.65-19.52-15.68,.07-1.27,.16-2.97,.23-4.25-.19,.04-.46,.1-.65,.13-7.02,1.08-10.9-7.81-9.69-9.61,5.47-.32,10.48,2.02,15.78,2.72-1.17-1.4-2.66-3.32-3.79-4.75-2.27-.03-5.29-.16-7.55-.27-.43,.42-1,.97-1.42,1.39-4.59-.35-5.16,1.43-5.19,2.79-.05,2.31-.48,2.58-1.18,3.03-.2-.13-.47-.29-.68-.42-.82-5.2-1.3-7.11-2.25-8.89-1.32-2.47-3.88-3.83-5.55-5.99,.43,.97,.87,1.95,1.33,2.92,1.49,2.06,3.25,3.98,3.37,6.7,0,.15,0,.3,0,.46l-3,1.69-.42-4.22c-2.34-2.7-2.93-6.74-6.51-8.48-.26-.13-.32-.16-3.13,.63-.6,.17-1.32,.38-2.2,.63,.3,.77,.61,1.53,.94,2.3,.17,.11,.34,.24,.52,.37,1.49,1.13,2.67,2.16,3.53,3.28,.72,.93,1.19,1.94,1.47,3.11,.85,3.49,2.66,5.2,4.12,7.74,2.08,1.46,2.75,1.09,3.25,.82,1-.54,4.06,.43,7.4,1.8,5.09,2.09,10.83,5.13,10.91,5.18,.13,.1,.16,.34,.22,.48,2.52,5.48,5.89,10.52,7.12,11.58,.4,.35,1.47,1.28,7.29,2.76,4.49,1.14,4.86,1.23,5.25,1.94-.12,.17-.27,.41-.4,.57-.66,.83-3.09,3.57-6.71,4.12-.22,.03-.41,.07-.59,.1,1.45,1.24,2.92,2.43,4.41,3.56,6.53,.52,12.61-.06,19.55-1.44,3.07-.62,7.12-2.01,10.06-3.1,8.72-3.25,18.94-10.28,25.27-17.6,1.91-2.21,4.4-5.23,5.95-7.7,9.7-15.42,12.61-30.29,10.28-47.43Zm-9.21-24.72c1.37,2.18,2.31,3.92,2.74,4.74-.79-1.42-1.78-3.14-2.74-4.74Z" style="fill:#d0d0fc;"/><path d="M76.01,133.86s-.08-.05-.12-.08c-2.81-2.01-3.49-5.24-3.99-7.6,1.27,2.56,2.65,5.14,4.11,7.68Z" style="fill:#d0d0fc;"/><path d="M115.09,45.96v3.09c-3.5-2.02-6.93-3.62-10.25-4.81-6.91-2.48-13.39-3.2-19.13-2.3-5.33,.83-10.02,3.03-13.88,6.5-4.32,3.86-7.6,9.29-9.56,16.11-.42,.66-.83,1.33-1.23,2.01-.8,1.37-2.08,3.86-3.3,6.66,1.18-14.81,7.02-25.85,16.72-31.37,.66-.38,1.33-.72,2.01-1.04,.75-.35,1.52-.67,2.3-.95,4.37-1.58,9.19-2.11,14.32-1.6,4.3,.43,8.81,1.6,13.46,3.49,2.81,1.14,5.66,2.55,8.55,4.22Z" style="fill:#1d1d1b;"/></g></g><polygon points="115.09 46.12 123.45 41.53 123.67 44.22 115.09 49.21 115.09 46.12" style="fill:#1d1d1b;"/><circle cx="115.88" cy="39.44" r="3.22" style="fill:#1d1d1b;"/></g><g><g style="isolation:isolate;"><path d="M257.73,147.94c-5.3-2.93-9.52-.29-9.43,5.9,.09,6.19,4.46,13.59,9.76,16.52,5.3,2.93,9.52,.29,9.43-5.9-.09-6.19-4.46-13.59-9.76-16.52Z" style="fill:#fcd561;"/><path d="M265.92,169.85c-1.68,2-4.56,2.33-7.86,.51-5.3-2.93-9.67-10.33-9.76-16.52-.06-4.03,1.71-6.56,4.41-7.02-1.31,.23-2.55,.66-3.22,.95-.29,.13-.82,.37-1.41,.75-.45,.29-.95,.7-1.14,.9-.27,.28-.64,.65-.85,.98-.45,.69-.56,.85-.89,1.66-.18,.43-.34,1.04-.43,1.5-.1,.5-.16,1.18-.2,1.68,0,.24-.01,.48,0,.73,.09,6.19,4.46,13.59,9.76,16.52,.07,.04,.13,.07,.2,.11,.38,.19,.9,.44,1.3,.59,.45,.16,1.06,.35,1.53,.44,.44,.08,1.02,.14,1.47,.14,.66,0,1.26-.11,1.35-.13,.19-.05,.44-.1,.63-.15,.23-.07,.55-.18,.77-.27,.24-.1,.79-.34,1.51-.81,.56-.37,1.67-1.2,2.83-2.56Z" style="fill:#fcd561;"/><path d="M254.36,172.52c-.13-.07-.4-.22-.4-.22,.27,.15,.99,.5,1.77,.6,.86,.11,1.28-.11,1.39-.18,1.43-1.05,2.72-.43,4.22,.07-1.68,1.23-4.09,1.26-6.8-.18-.07-.04-.13-.07-.2-.11-5.3-2.93-9.67-10.33-9.76-16.52,0-.25,0-.49,0-.73-.04,1.03,.13,1.93-1.55,2.73,0,.2-.01,.4,0,.61,.08,5.2,3.75,11.42,8.2,13.88,.06,.03,.11,.06,.17,.09,1.53-1.04,2.22-.44,3.13,.04-.05-.03-.12-.06-.17-.09Z" style="fill:#e84343;"/><path d="M254.53,172.61c-.91-.48-1.6-1.09-3.13-.04,2.28,1.21,4.31,1.18,5.72,.15-.36,.24-1.47,.46-3.16-.42,0,0,.38,.21,.57,.31Z" style="fill:#fcd561;"/><path d="M244.58,155.25c0,.09,.02,.17,0,.26,.08-.63,.17-1.08,.44-1.64,.19-.41,.52-.79,.77-.9,1.63-.71,1.74-2.13,2.07-3.68-1.91,.83-3.23,2.91-3.28,5.96Z" style="fill:#e84343;"/><path d="M252.72,146.82c-1.76,.31-3.03,.85-3.64,1.15-.78,.38-1.26,.74-1.46,.89-.2,.15-.45,.36-.63,.53-.14,.13-.32,.33-.45,.47-.07,.07-.47,.53-.8,1.1-.22,.38-.47,.92-.62,1.33-.16,.45-.31,1.06-.39,1.53-.08,.42-.12,1-.15,1.43,.13-3.05,1.37-5.12,3.28-5.96,1.64-.72,3.78-.51,6.13,.79,.87-1.48,3.59-2.11,3.74-2.14-1.85-1.02-3.57-1.37-5.02-1.12Z" style="fill:#f66;"/><path d="M254.53,172.61c.46,.22,1.08,.52,1.56,.68,.44,.15,1.05,.32,1.52,.39,.85,.12,1.07,.11,1.87,.07,.39-.02,.9-.15,1.27-.24,.28-.07,.89-.3,1.35-.53,.63-.32,1.11-.66,1.36-.84,.59-.42,1.59-1.27,2.45-2.29,1.02-1.22,1.6-3.05,1.57-5.39-.09-6.19-4.46-13.59-9.76-16.52-.14,.03-2.87,.66-3.74,2.14,5.3,2.93,9.67,10.33,9.76,16.52,.04,2.93-.88,5.06-2.42,6.19-1.68,1.23-4.09,1.26-6.8-.18Z" style="fill:#f66;"/><path d="M257.12,172.72c-1.41,1.03-3.44,1.06-5.72-.15-.06-.03-.11-.06-.17-.09-4.45-2.46-8.13-8.68-8.2-13.88,0-.21,0-.41,0-.61,.11-2.56,1.15-4.31,2.76-5.01-1.18,.53-1.79,1.09-2.15,1.43-.19,.18-.52,.55-.64,.71-.31,.42-.41,.56-.72,1.13-.11,.21-.33,.71-.42,1-.2,.61-.25,.89-.33,1.35-.18,1.03-.11,2.02-.08,2.49,.36,4.18,3.07,8.88,6.47,11.28,.66,.45,2.41,1.64,4.72,1.73,1.05,.04,1.87-.16,2.26-.28,.56-.17,.79-.28,1.32-.54,.26-.13,.47-.27,.89-.56Z" style="fill:#fcd561;"/><path d="M245.79,152.97c-1.61,.7-2.65,2.45-2.76,5.01,1.68-.8,1.5-1.7,1.55-2.73,0,.09,.01,.17,0,.26,.22-2,1.1-2.49,1.2-2.54Z" style="fill:#fcd561;"/><path d="M247.86,149.3c-.33,1.55-.44,2.97-2.07,3.68,1.38-.6,3.18-.43,5.15,.66,1.54-.72,2.19-2.07,3.05-3.55-2.35-1.3-4.49-1.5-6.13-.79Z" style="fill:#e84343;"/><path d="M241.42,160.29c0,.24,.02,.56,.04,.79-.02-.26-.04-.51-.04-.77-.07-4.74,3.16-6.77,7.22-4.52,.04-.07,.76-1.44,2.3-2.16-1.98-1.09-3.78-1.29-5.15-.66-.55,.25-.61,.29-.93,.48-.46,.28-.81,.58-.81,.58-.33,.28-.56,.51-.7,.67-.26,.3-.52,.61-.81,1.08-.25,.42-.61,1.09-.86,2.09-.19,.75-.28,1.57-.26,2.42Z" style="fill:#fc5552;"/><path d="M257.12,172.72c1.43-1.05,2.72-.43,4.22,.07,1.54-1.13,2.46-3.26,2.42-6.19-.09-6.19-4.46-13.59-9.76-16.52-.86,1.48-1.51,2.83-3.05,3.55,4.45,2.46,8.13,8.68,8.2,13.88,.04,2.46-.74,4.25-2.03,5.2Z" style="fill:#e84343;"/><path d="M248.95,173c2.12,1.17,3.71,1.11,4.38,1.09,.29,0,1.06-.07,1.99-.41,.92-.33,1.56-.79,1.8-.96,1.3-.95,2.07-2.74,2.03-5.2-.08-5.2-3.75-11.42-8.2-13.88-1.54,.72-2.26,2.09-2.3,2.16,4.06,2.25,7.41,7.91,7.48,12.66,.07,4.74-3.16,6.77-7.22,4.52-.33-.18-.65-.39-.97-.61,.38,.26,.61,.42,1.02,.64Z" style="fill:#fc5552;"/><path d="M254.04,173.35c-1.31,.8-3.12,.74-5.13-.38-4.06-2.25-7.41-7.91-7.48-12.66-.04-2.5,.84-4.24,2.27-5l-23.98,12.82c-1.54,.82-2.49,2.7-2.45,5.39,.08,5.11,3.69,11.22,8.06,13.65,2.17,1.2,4.13,1.27,5.54,.41,7.72-4.74,15.44-9.48,23.17-14.22Z" style="fill:#fcd561;"/><path d="M234,193.26c-2.21,1.27-5.23,1.12-8.59-.73-6.91-3.82-12.61-13.47-12.73-21.55-.06-4.16,1.37-7.09,3.71-8.43l-5.28,3.03c-2.34,1.34-3.77,4.27-3.71,8.43,.12,8.08,5.82,17.72,12.73,21.55,3.35,1.86,6.38,2,8.59,.73,1.58-.91,3.7-2.12,5.28-3.03Z" style="fill:#fcd561;"/><g><path d="M256.56,168.14c.04,2.46-.81,4.19-2.19,4.99l-25.66,15.86c1.39-.8,2.32-3.72,2.28-6.18-.01-.94-.16-1.92-.41-2.91-1.02-3.99-3.84-8.02-7.12-9.84-1.98-1.1-4.88-1.53-6.18-.78l26.67-14.32c1.31-.75,3.1-.67,5.08,.43,2.41,1.34,4.58,3.87,5.96,6.71,.96,1.97,1.54,4.08,1.57,6.04Z" style="fill:#ffe092;"/><path d="M225.71,169.85l22.72-12.5s2.08-.71,1.52,1.23c-.55,1.94-22.44,13.04-22.44,13.04l-1.8-1.77Z" style="fill:#fff; isolation:isolate; opacity:.5;"/><path d="M256.56,168.14c.04,2.46-.81,4.19-2.19,4.99l-25.66,15.86c1.39-.8,2.32-3.72,2.28-6.18-.01-.94-.16-1.92-.41-2.91,8.59-4.35,21.13-11.19,23.12-13.1,1.2-1.14,1.43-2.95,1.29-4.7,.96,1.97,1.54,4.08,1.57,6.04Z" style="fill:#ffc700;"/></g><path d="M237.71,184.84c.12,8.08-5.38,11.52-12.3,7.7s-12.61-13.47-12.73-21.55c-.12-8.08,5.38-11.52,12.3-7.7,6.91,3.82,12.61,13.47,12.73,21.55Zm-12.65-16.19c-4.38-2.42-7.86-.24-7.79,4.88,.08,5.11,3.69,11.22,8.06,13.65,4.38,2.42,7.86,.24,7.79-4.88-.08-5.11-3.69-11.22-8.06-13.65Z" style="fill:#fcd561;"/><path d="M216.39,162.56l-5.28,3.03c2.21-1.27,5.23-1.12,8.59,.73l5.28-3.03c-3.35-1.86-6.38-2-8.59-.73Z" style="fill:#f66;"/><path d="M228.72,196.3l5.28-3.03c2.34-1.34,3.77-4.27,3.71-8.43-.12-8.08-5.82-17.72-12.73-21.55l-5.28,3.03c6.91,3.82,12.61,13.47,12.73,21.55,.06,4.16-1.37,7.09-3.71,8.43Z" style="fill:#f66;"/><path d="M232.43,187.87c.12,8.08-5.38,11.52-12.3,7.7-6.91-3.82-12.61-13.47-12.73-21.55s5.38-11.52,12.3-7.7c6.91,3.82,12.61,13.47,12.73,21.55Zm-12.7-19.43c-5.91-3.27-10.62-.32-10.52,6.58,.1,6.91,4.98,15.16,10.89,18.43,5.91,3.27,10.62,.32,10.52-6.58-.1-6.91-4.98-15.16-10.89-18.43Z" style="fill:#e84343;"/><path d="M227.44,194.08c-1.89,1.08-4.48,.96-7.35-.63-5.91-3.27-10.79-11.52-10.89-18.43-.05-3.56,1.17-6.06,3.17-7.21l-41.35,23.72c-2,1.15-3.23,3.66-3.17,7.21,.1,6.91,4.98,15.16,10.89,18.43,2.87,1.59,5.46,1.71,7.35,.63,12.4-7.12,28.94-16.6,41.35-23.72Z" style="fill:#fcd561;"/><path d="M189.81,224.28c-2.82,1.62-6.69,1.44-10.97-.93-8.83-4.89-16.11-17.21-16.27-27.53-.08-5.31,1.75-9.05,4.74-10.77l-4.93,2.83c-2.99,1.72-4.82,5.46-4.74,10.77,.15,10.32,7.44,22.65,16.27,27.53,4.29,2.37,8.15,2.55,10.97,.94,1.48-.85,3.45-1.98,4.93-2.83Z" style="fill:#fcd561;"/><g><path d="M230.62,186.75c.05,3.52-1.15,6-3.14,7.13l-45.59,26.06c1.98-1.14,3.19-3.62,3.14-7.13-.02-1.35-.23-2.75-.59-4.16-1.47-5.71-5.5-11.48-10.19-14.07-2.84-1.57-5.4-1.69-7.27-.62l45.59-26.06c1.87-1.07,4.43-.95,7.27,.62,3.45,1.91,6.54,5.54,8.52,9.59,1.37,2.81,2.21,5.84,2.25,8.64Z" style="fill:#ffe092;"/><path d="M177.48,194.28l41.52-22.97s2.97-1.01,2.18,1.76c-.79,2.77-41.12,23.74-41.12,23.74l-2.58-2.53Z" style="fill:#fff; isolation:isolate; opacity:.5;"/><path d="M230.62,186.75c.05,3.52-1.15,6-3.14,7.13l-45.59,26.06c1.98-1.14,3.19-3.62,3.14-7.13-.02-1.35-.23-2.75-.59-4.16,12.28-6.21,39.24-21.1,42.09-23.82,1.71-1.63,2.05-4.21,1.84-6.72,1.37,2.81,2.21,5.84,2.25,8.64Z" style="fill:#ffc700;"/></g><path d="M194.55,213.51c.15,10.32-6.88,14.72-15.71,9.84-8.83-4.89-16.11-17.21-16.27-27.53-.15-10.32,6.88-14.72,15.71-9.84,8.83,4.89,16.11,17.21,16.27,27.53Zm-16.18-21.36c-5.91-3.27-10.62-.32-10.52,6.58,.1,6.91,4.98,15.16,10.89,18.43,5.91,3.27,10.62,.32,10.52-6.58-.1-6.91-4.98-15.16-10.89-18.43Z" style="fill:#fcd561;"/><path d="M194.55,213.51c.08,5.31-1.74,9.06-4.74,10.77l-4.93,2.83c3-1.71,4.82-5.46,4.74-10.77-.15-10.32-7.44-22.64-16.27-27.53-4.28-2.37-8.15-2.56-10.97-.94l4.93-2.83c2.82-1.62,6.69-1.43,10.97,.94,8.83,4.89,16.11,17.21,16.27,27.53Z" style="fill:#f66;"/><path d="M173.36,188.8l.03,2.28c7.76,4.29,14.15,15.12,14.29,24.18,.14,9.06-6.04,12.93-13.8,8.64-7.76-4.29-14.15-15.12-14.29-24.18-.14-9.06,6.04-12.93,13.8-8.64l-.03-2.28c-8.83-4.89-15.86-.48-15.71,9.84,.15,10.32,7.44,22.65,16.27,27.53,8.83,4.89,15.86,.48,15.71-9.84-.15-10.32-7.44-22.65-16.27-27.53Z" style="fill:#e84343;"/><path d="M183.51,224.72c-2.48,1.42-5.87,1.26-9.64-.82-7.76-4.29-14.15-15.12-14.29-24.18-.07-4.66,1.53-7.95,4.16-9.46l-48.5,27.82c-2.63,1.51-4.23,4.8-4.16,9.46,.14,9.06,6.53,19.89,14.29,24.18,3.76,2.08,7.16,2.24,9.64,.82,14.55-8.35,33.95-19.48,48.5-27.82Z" style="fill:#fcd561;"/><path d="M139.9,261.07c-3.71,2.13-8.78,1.89-14.41-1.23-11.59-6.42-21.16-22.6-21.36-36.15-.1-6.97,2.29-11.89,6.22-14.14l-7.95,4.56c-3.93,2.25-6.33,7.17-6.22,14.14,.2,13.55,9.77,29.73,21.36,36.15,5.63,3.11,10.7,3.35,14.41,1.23,2.39-1.37,5.57-3.19,7.95-4.56Z" style="fill:#fcd561;"/><g><path d="M187.67,215.26c.07,4.66-1.53,7.95-4.16,9.46l-48.5,27.82c2.63-1.51,4.23-4.8,4.16-9.46-.03-1.79-.3-3.65-.78-5.52-1.94-7.57-7.29-15.22-13.51-18.66-3.76-2.09-7.16-2.25-9.64-.82l48.5-27.82c2.48-1.42,5.87-1.26,9.64,.82,4.58,2.53,8.68,7.34,11.31,12.72,1.82,3.73,2.93,7.75,2.98,11.46Z" style="fill:#ffe092;"/><path d="M129.16,218.5l43.1-23.72s3.94-1.34,2.89,2.34c-1.05,3.68-42.57,24.74-42.57,24.74l-3.42-3.36Z" style="fill:#fff; isolation:isolate; opacity:.5;"/><path d="M187.67,215.26c.07,4.66-1.53,7.95-4.16,9.46l-48.5,27.82c2.63-1.51,4.23-4.8,4.16-9.46-.03-1.79-.3-3.65-.78-5.52,16.29-8.24,40.07-21.23,43.85-24.84,2.27-2.16,2.72-5.59,2.44-8.92,1.82,3.73,2.93,7.75,2.98,11.46Z" style="fill:#ffc700;"/></g><path d="M146.12,246.92c.2,13.55-9.03,19.33-20.63,12.91-11.59-6.42-21.16-22.6-21.36-36.15-.2-13.55,9.03-19.33,20.63-12.91,11.59,6.42,21.16,22.6,21.36,36.15Zm-21.24-28.03c-7.76-4.29-13.93-.43-13.8,8.64,.14,9.06,6.53,19.89,14.29,24.18,7.76,4.29,13.93,.42,13.8-8.64-.14-9.06-6.53-19.89-14.29-24.18Z" style="fill:#fcd561;"/><path d="M110.36,209.55l-7.95,4.56c3.71-2.13,8.78-1.89,14.41,1.23l7.95-4.56c-5.63-3.11-10.7-3.35-14.41-1.23Z" style="fill:#f66;"/><path d="M116.81,215.34c-11.59-6.42-20.83-.63-20.63,12.91,.2,13.55,9.77,29.73,21.36,36.15,11.59,6.42,20.83,.63,20.63-12.91-.2-13.55-9.77-29.73-21.36-36.15Z" style="fill:#e84343;"/><path d="M130.84,247.43c.04,2.83-.55,5.15-1.62,6.84-2.27,3.57-6.68,4.39-11.8,1.56-7.54-4.17-13.77-14.71-13.9-23.52-.09-6.22,2.87-9.92,7.27-10.1,1.84-.08,3.93,.47,6.16,1.69,7.55,4.18,13.77,14.71,13.9,23.53Z" style="fill:#fc5552;"/><path d="M130.84,247.43c.04,2.83-.55,5.15-1.62,6.84-1.84,.08-3.93-.46-6.16-1.69-4.21-2.33-8.01-6.64-10.56-11.52-2.03-3.87-3.28-8.11-3.34-12.01-.04-2.84,.55-5.15,1.62-6.84,1.84-.08,3.93,.47,6.16,1.69,2.06,1.14,4.01,2.75,5.77,4.66,4.71,5.12,8.03,12.45,8.13,18.87Z" style="fill:#9f9ef2;"/><path d="M131.95,265.63l7.95-4.56c3.93-2.25,6.33-7.17,6.22-14.14-.2-13.55-9.77-29.73-21.36-36.15l-7.95,4.56c11.59,6.42,21.16,22.6,21.36,36.15,.1,6.97-2.29,11.89-6.22,14.14Z" style="fill:#f66;"/></g><path d="M130.84,247.43c.04,2.83-.55,5.15-1.62,6.84-1.84,.08-3.93-.46-6.16-1.69-4.21-2.33-8.01-6.64-10.56-11.52-.13-.91-.21-1.8-.22-2.68-.11-7.65,4.34-11.54,10.43-9.82,4.71,5.12,8.03,12.45,8.13,18.87Z" style="fill:#d0d0fc;"/><path d="M124.53,243.72c.82,1.43,.82,2.97,0,3.45-.83,.48-2.17-.29-2.99-1.72-.83-1.43-.82-2.97,0-3.45,.83-.48,2.17,.29,2.99,1.72Z" style="fill:#f1f0ef;"/></g><g><path d="M190.87,258.85l-2.72,3.39c.36-.99,1.31-2.14,2.72-3.39Z" style="fill:#747db4;"/><g id="b"><g><path d="M206.87,240.1c8.91-11.02,24.41-24.75,47.57-27.58l32.05-6.71-9.23,25.23c-.74,2.02-1.83,4.02-3.25,5.93-7.14,9.66-22.1,16.74-40.02,18.92l-44.08,5.37,16.96-21.16Z" style="fill:#d0d0fc;"/><path d="M285.3,206.83l-8.76,23.95c-.72,1.96-1.77,3.89-3.14,5.74-7.02,9.5-21.79,16.46-39.5,18.62l-42.23,5.15,15.79-19.7c8.83-10.91,24.16-24.51,47.07-27.3l30.77-6.44Zm2.37-2.05l-33.33,6.99c-22.03,2.69-37.78,15.14-48.07,27.86l-18.13,22.62,45.93-5.6c18.35-2.24,33.35-9.5,40.54-19.22,1.44-1.95,2.57-3.99,3.35-6.12l9.7-26.52Z" style="fill:#9f9ef2;"/></g><polygon points="263.15 237.43 264.58 232.62 283.38 208.62 273.94 229.34 263.15 237.43" style="fill:#fff; opacity:.26;"/></g><polygon points="237.91 209.58 221.47 238.47 215.08 257.48 237.91 209.58" style="fill:#fff;"/><path d="M252.09,250.88l-14.18-41.3-22.83,47.91s16.11-1.81,21.44-2.73c9.88-1.71,15.58-3.87,15.58-3.87Z" style="fill:#9f9ef2;"/><path d="M263.15,233.39l-25.24-23.81,14.27,41.57s6.84-4.65,8.27-6.94c1.48-2.36,2.69-10.82,2.69-10.82Z" style="fill:#5254cf;"/><path d="M274.62,237.43c-2.77,7.5-26.01,24.71-38.96,26.29l-27.03,3.29-20.48-4.76,45.93-5.6c18.35-2.24,33.36-9.5,40.54-19.22Z" style="fill:#5254cf;"/></g><g><g><path d="M16.17,175.95s12.75-28.01,27.41-24.59c14.67,3.42,4.94,25.97,.97,33.66-3.98,7.69-19.47,15.98-23.78,12.43-4.31-3.55-7.41-13.89-4.6-21.5Z" style="fill:#d19c5e;"/><g id="c"><g id="d"><path id="e" d="M23.72,197.25c6.79,3.92,17.81-2.44,24.6-14.2,6.79-11.77,6.79-24.49,0-28.41l-4.65-2.69c6.79,3.92,6.79,16.64,0,28.41-6.79,11.77-17.81,18.13-24.6,14.2l4.65,2.69Z" style="fill:#ffc700;"/><path id="f" d="M49.49,152.62c-7.44-4.29-19.49,2.67-26.93,15.55-7.44,12.88-7.44,26.8,0,31.1l-4.66-2.69c-7.44-4.29-7.44-18.21,0-31.1,7.44-12.88,19.49-19.84,26.93-15.55l4.65,2.69Z" style="fill:#ffc700;"/></g><path id="g" d="M49.49,152.62c-7.44-4.29-19.49,2.67-26.93,15.55-7.44,12.88-7.44,26.8,0,31.1,7.44,4.29,19.49-2.67,26.93-15.55,7.44-12.88,7.44-26.8,0-31.1Zm-25.77,44.63c-6.79-3.92-6.79-16.64,0-28.41,6.79-11.77,17.81-18.13,24.6-14.2,6.79,3.92,6.79,16.64,0,28.41-6.79,11.77-17.81,18.13-24.6,14.2Z" style="fill:#ffe092;"/></g></g><g id="h"><path id="i" d="M22.66,211.24c0,9.29,13.04,16.82,29.13,16.82s29.13-7.53,29.13-16.82v6.41c0,9.29-13.04,16.82-29.13,16.82s-29.13-7.53-29.13-16.82v-6.41Z" style="fill:#ffc700;"/><path id="j" d="M22.66,211.24c0-9.29,13.04-16.82,29.13-16.82s29.13,7.53,29.13,16.82-13.04,16.82-29.13,16.82-29.13-7.53-29.13-16.82Z" style="fill:#ffe092;"/><g id="k"><path id="l" d="M27.42,208.37c0,7.77,10.91,14.07,24.37,14.07s24.37-6.3,24.37-14.07v2.87c0,7.77-10.91,14.07-24.37,14.07s-24.37-6.3-24.37-14.07v-2.87Z" style="fill:#ffc700;"/><path id="m" d="M27.42,208.37c0-7.77,10.91-14.07,24.37-14.07s24.37,6.3,24.37,14.07-10.91,14.07-24.37,14.07-24.37-6.3-24.37-14.07Z" style="fill:#feb30f;"/><path id="n" d="M27.42,208.37c0-7.77,10.91-14.07,24.37-14.07s24.37,6.3,24.37,14.07-10.91,14.07-24.37,14.07-24.37-6.3-24.37-14.07Z" style="fill:#fceab2;"/><path d="M73.68,208.37c0,.82-.14,1.62-.4,2.4-1.93,5.83-10.82,10.23-21.5,10.23s-19.56-4.41-21.49-10.23c-.26-.78-.4-1.58-.4-2.4,0-6.99,9.8-12.64,21.89-12.64s21.9,5.65,21.9,12.64Z" style="fill:#fcd561;"/><path d="M73.28,210.77c-1.93,5.83-10.82,10.23-21.5,10.23s-19.56-4.41-21.49-10.23c1.93-5.83,10.82-10.23,21.49-10.23s19.57,4.41,21.5,10.23Z" style="fill:#d19c5e;"/></g></g><polygon id="o" points="32.3 211.94 51.79 210.27 72.31 210.92 50.81 213.96 32.3 211.94" style="fill:#5254cf;"/><g id="p"><path id="q" d="M47.25,210.27c0,1.45,2.03,2.62,4.54,2.62s4.54-1.17,4.54-2.62v1.39c0,1.45-2.03,2.62-4.54,2.62s-4.54-1.17-4.54-2.62v-1.39Z" style="fill:#1d1d1b;"/><path id="r" d="M47.25,210.27c0-1.45,2.03-2.62,4.54-2.62s4.54,1.17,4.54,2.62-2.03,2.62-4.54,2.62-4.54-1.17-4.54-2.62Z" style="fill:#6a6a6a;"/></g></g></g><g><g id="s"><g id="t"><path id="u" d="M261.01,92.72c-1.28-2.9-3.98-4.83-8.03-5.27-10.53-1.14-26.93,8.16-35.8,20.29-5.45,7.46-7.03,14.58-4.99,19.22l.34,.76c-2.05-4.64-.47-11.76,4.99-19.22,8.87-12.14,25.27-21.43,35.8-20.29,4.05,.44,6.75,2.37,8.03,5.27l-.34-.76Z" style="fill:#feb30f;"/><path id="v" d="M198.3,133.05c2.21,5,7.14,8.38,14.62,9.19,17.52,1.89,42.33-11.08,55.41-28.97,7.51-10.27,9.51-19.93,6.54-26.65l.34,.76c2.97,6.72,.96,16.38-6.55,26.65-13.08,17.89-37.89,30.87-55.41,28.97-7.48-.81-12.41-4.2-14.62-9.19l-.34-.76Z" style="fill:#feb30f;"/></g><g id="w"><path id="x" d="M227.98,88.01c-8.88,3.92-13.73,13.15-12.52,22.29,.52-.84,1.08-1.69,1.71-2.56,6.95-9.49,18.5-17.24,28.25-19.63-5.33-2.43-11.66-2.66-17.44-.11Z" style="fill:#fcd561;"/><path d="M260.28,77.46c-17.53-1.91-42.33,11.07-55.42,28.96-13.08,17.87-9.49,33.93,8.06,35.81,17.5,1.91,42.33-11.07,55.41-28.97,13.06-17.89,9.45-33.93-8.05-35.81Zm-2.43,31.74c-.54,.91-1.17,1.82-1.84,2.75-5.2,7.11-12.98,13.26-20.65,16.9-5.42,2.56-10.79,3.88-15.14,3.4-9.79-1.04-11.68-10.83-4.77-21.95-1.21-9.14,3.64-18.37,12.52-22.29,5.78-2.56,12.11-2.32,17.44,.11,2.71-.67,5.26-.91,7.56-.67,9.73,1.06,11.66,10.7,4.88,21.75Z" style="fill:#ffc700;"/><path d="M236.86,84.03c3.47-1.61,7.09-2.94,10.83-3.83,3.74-.89,7.6-1.39,11.5-1.16,3.85,.22,7.87,1.2,11.03,3.77,3.19,2.59,4.69,6.8,4.64,10.77-.05,4.01-1.22,7.88-2.92,11.39-1.7,3.53-3.85,6.8-6.28,9.83-4.88,6.05-10.72,11.29-17.19,15.54-6.48,4.25-13.6,7.59-21.17,9.45-3.78,.93-7.68,1.45-11.61,1.37-3.91-.08-7.97-.85-11.39-3.1-1.69-1.11-3.15-2.65-4.13-4.43-.98-1.79-1.49-3.8-1.61-5.78-.24-3.99,.81-7.89,2.4-11.41,3.21-7.08,8.32-13.06,14.05-18.1-5.39,5.39-10.22,11.5-13.07,18.52-1.42,3.47-2.3,7.22-2.02,10.89,.28,3.66,2.19,7.04,5.28,8.92,3.08,1.88,6.83,2.57,10.53,2.62,3.72,.05,7.45-.48,11.09-1.41,7.28-1.86,14.16-5.22,20.46-9.35,6.31-4.13,12.07-9.14,16.85-14.96,2.39-2.91,4.49-6.05,6.13-9.41,1.64-3.34,2.81-6.95,2.95-10.6,.13-3.63-1.1-7.33-3.87-9.71-2.76-2.38-6.52-3.42-10.23-3.75-7.54-.67-15.15,1.2-22.24,3.94Z" style="fill:#ffe092;"/><path d="M213.22,109.81c-2.41,4.29-4.22,9.18-3.73,14.09,.24,2.42,1.16,4.78,2.8,6.55,1.64,1.77,3.91,2.87,6.27,3.31,4.79,.89,9.77-.27,14.31-2.03,4.58-1.77,8.85-4.32,12.8-7.26,3.94-2.94,7.62-6.3,10.65-10.17,3.01-3.85,5.61-8.16,6.77-12.92,.58-2.36,.76-4.84,.28-7.21-.48-2.37-1.75-4.57-3.64-6.09-1.89-1.52-4.29-2.38-6.73-2.65-2.46-.28-4.96-.06-7.39,.43,2.41-.58,4.91-.89,7.41-.69,2.48,.19,4.99,.96,7.03,2.5,2.04,1.54,3.42,3.88,3.98,6.36,.56,2.5,.41,5.09-.14,7.55-1.1,4.98-3.76,9.39-6.81,13.34-3.06,3.98-6.76,7.43-10.77,10.42-4.01,2.99-8.39,5.54-13.09,7.31-4.65,1.75-9.79,2.98-14.83,1.92-2.49-.52-4.89-1.74-6.61-3.67-1.72-1.92-2.65-4.45-2.82-6.96-.35-5.1,1.7-9.93,4.25-14.13Z" style="fill:#ffe092;"/></g></g><path d="M257.86,109.2c-.54,.91-1.17,1.82-1.84,2.75-5.2,7.11-12.98,13.26-20.65,16.9-4.2-.24-8.25-1.73-11.61-4.29-2.82-2.1-5.16-4.92-6.67-8.38-.85-1.93-1.39-3.9-1.62-5.87-1.21-9.14,3.64-18.37,12.52-22.29,4.94-2.19,10.29-2.32,15.08-.8,.8,.26,1.6,.56,2.36,.91,4.61,2.08,8.49,5.81,10.7,10.81,1.47,3.34,2.04,6.87,1.73,10.27Z" style="fill:#e84343;"/><path d="M250.1,111.92c-2.27,5.91-6.91,10.2-12.39,12.26-4.35,1.65-9.23,1.88-13.95,.37-2.82-2.1-5.16-4.92-6.67-8.38-.85-1.93-1.39-3.9-1.62-5.87-1.21-9.14,3.64-18.37,12.52-22.29,4.94-2.19,10.29-2.32,15.08-.8,.04,.04,.09,.06,.13,.11,7.32,5.61,10.42,15.55,6.91,24.61Z" style="fill:#fc7464;"/><path d="M220.99,104.73c-.43,1.6-1.52,2.75-2.47,2.73-.09,0-.17-.02-.26-.04-1.02-.28-1.43-1.95-.95-3.7,.5-1.78,1.71-2.99,2.73-2.71,.17,.04,.33,.13,.45,.24,.67,.58,.91,1.99,.5,3.49Z" style="fill:#fc5552;"/><path d="M229.65,94.81c-.56,.87-1.34,1.42-1.99,1.43-.19,0-.39-.04-.54-.13-.66-.4-.58-1.69,.13-2.84,.74-1.15,1.86-1.73,2.53-1.3,.07,.04,.11,.09,.15,.13,.49,.51,.37,1.67-.28,2.71Z" style="fill:#fc5552;"/><path d="M225.58,120.59c-.15,.04-.32,.07-.5,.02-.91-.11-1.84-1.17-2.27-2.66-.52-1.75-.13-3.42,.89-3.73,.37-.11,.78-.01,1.19,.26,.64,.42,1.26,1.28,1.58,2.38,.52,1.75,.13,3.42-.89,3.73Z" style="fill:#fc5552;"/><path d="M236.24,107.2c-.48,2.14-2.29,3.59-4.08,3.18-1.76-.4-2.83-2.43-2.37-4.57,.45-2.12,2.27-3.51,4.05-3.16,.26,.05,.5,.13,.71,.28,1.36,.74,2.08,2.49,1.69,4.27Z" style="fill:#fc5552;"/><path d="M220.99,104.73c-.43,1.6-1.52,2.75-2.47,2.73-.67-.58-.91-1.99-.5-3.47,.45-1.62,1.52-2.77,2.47-2.75,.67,.58,.91,1.99,.5,3.49Z" style="fill:#f66;"/><path d="M229.65,94.81c-.56,.87-1.34,1.41-1.99,1.43-.45-.52-.35-1.67,.3-2.69,.54-.87,1.34-1.43,1.97-1.45,.48,.52,.37,1.67-.28,2.71Z" style="fill:#f66;"/><path d="M225.58,120.59c-.15,.04-.32,.07-.5,.02-.65-.43-1.23-1.3-1.56-2.38-.54-1.75-.13-3.42,.87-3.73,.15-.04,.33-.07,.5-.02,.65,.41,1.26,1.28,1.58,2.38,.52,1.75,.13,3.42-.89,3.73Z" style="fill:#f66;"/><path d="M236.24,107.2c-.48,2.14-2.29,3.57-4.08,3.18-1.32-.71-2.05-2.47-1.66-4.29,.45-2.12,2.27-3.55,4.05-3.16,1.36,.74,2.08,2.49,1.69,4.27Z" style="fill:#f66;"/></g></svg>