<?xml version="1.0" encoding="UTF-8"?><svg id="a" xmlns="http://www.w3.org/2000/svg" viewBox="0 0 300 300"><g><rect x="245.45" y="174.68" width="9.93" height="17.29" style="fill:#d19c5e;"/><path d="M265.79,250.27h-31.3c-3.52,0-6.6-1.94-8.22-5.2-1.63-3.26-1.39-7,.63-10l15.74-23.38v-21.43c-2.05-.42-3.6-2.31-3.6-4.57,0-2.57,2.01-4.66,4.47-4.66h13.26c2.46,0,4.47,2.09,4.47,4.66,0,2.26-1.55,4.15-3.6,4.57v21.43l15.74,23.38h0c2.02,3.01,2.26,6.74,.63,10-1.63,3.26-4.7,5.2-8.22,5.2Z" style="fill:#ffe092;"/><path d="M260.52,219.99h-20.76l-11.04,16.4c-1.54,2.29-1.72,5.13-.48,7.61,1.24,2.48,3.58,3.96,6.26,3.96h31.3c2.68,0,5.02-1.48,6.26-3.96,1.24-2.48,1.06-5.32-.48-7.61l-11.04-16.4Z" style="fill:#ffc700;"/><path d="M252.71,232.11c0,1.03-.8,1.87-1.79,1.87s-1.79-.84-1.79-1.87,.8-1.87,1.79-1.87,1.79,.84,1.79,1.87Z" style="fill:#fff;"/><path d="M262.24,242.03c0,1.03-.8,1.87-1.79,1.87s-1.79-.84-1.79-1.87,.8-1.87,1.79-1.87,1.79,.84,1.79,1.87Z" style="fill:#fff;"/><path d="M260.06,228c0,.81-.63,1.46-1.4,1.46s-1.4-.65-1.4-1.46,.63-1.46,1.4-1.46,1.4,.65,1.4,1.46Z" style="fill:#fff;"/><path d="M261.07,234.61c0,.69-.54,1.26-1.21,1.26s-1.21-.56-1.21-1.26,.54-1.26,1.21-1.26,1.21,.56,1.21,1.26Z" style="fill:#fff;"/></g><g><g><path d="M193.75,147.04l-9.29,37.14s-11.78-31.28-19.53-45.47c-4.33-7.92-13.4-14.44-21.34-18.96v-1.13c0-1.79-.73-3.51-2.04-4.67-10.49-9.3-22.74-8.53-26.99-7.91-.96,.14-1.86,.52-2.64,1.11l-4.94,3.73c-3.46,.23-7.34,.66-11.67,1.38-40.72,6.75-67.49,59.66-70.17,88.57-3.18,34.24,32.26,38.1,32.26,38.1v11.83h103.06l-.85-24.92s10.32,18.51,32.52,15.96c33.46-3.85,35.6-77.3,35.6-77.3l-33.97-17.46Z" style="fill:#d0d0fc;"/><path d="M117.46,172.93c-.15,0-.3-.05-.43-.15-.94-.73-22.93-17.99-23.19-28.13-.11-4.29,3.73-7.32,6.11-8.77-2.78-.77-7.61-2.7-8.8-6.91-1.61-5.7,3.3-16.56,3.51-17.02,.17-.37,.6-.53,.96-.35,.36,.18,.51,.62,.34,1-.05,.11-4.88,10.8-3.43,15.95,1.4,4.96,9.54,6.29,9.62,6.3,.32,.05,.57,.31,.61,.65,.04,.33-.13,.65-.43,.79-.07,.03-7.18,3.28-7.05,8.34,.25,9.42,22.39,26.79,22.62,26.97,.32,.25,.38,.72,.15,1.05-.14,.2-.36,.3-.58,.3Z" style="fill:#9f9ef2;"/><path d="M98.42,251.53s-.09,0-.13-.01c-.39-.08-.65-.47-.57-.88l12.66-70.06c.82-4.54,3.96-8.24,8.18-9.66,15.45-5.17,25.61-10.19,27.87-13.79,4.19-6.68-2.06-13.81-2.33-14.11-.22-.24-.25-.6-.1-.89,.16-.29,.48-.43,.78-.36,2.07,.49,8.19,1.32,9.06-1.26,1.18-3.46-.64-11.21-5.13-16.79-.25-.32-.21-.79,.09-1.06,.3-.27,.76-.22,1.01,.09,4.87,6.06,6.72,14.33,5.38,18.25-1.1,3.22-6.05,2.99-8.86,2.57,1.85,2.77,4.83,8.71,1.29,14.36-3.17,5.05-17.32,10.62-28.63,14.4-3.72,1.24-6.48,4.5-7.2,8.51l-12.66,70.06c-.07,.36-.37,.61-.71,.61Z" style="fill:#9f9ef2;"/><path d="M159.59,226.6c-.4,0-.72-.34-.72-.75v-50.02c0-.41,.32-.75,.72-.75s.72,.34,.72,.75v50.02c0,.41-.32,.75-.72,.75Z" style="fill:#c0d5f4;"/><path d="M91.05,246.6s-.09,0-.14-.01l-33.67-6.91c-.39-.08-.64-.47-.57-.88,.08-.41,.45-.67,.85-.59l33,6.77,8.77-36.31-36.38-8.44c-.19-.04-.35-.16-.45-.33-.1-.17-.14-.37-.09-.57l7.23-32.81c.09-.4,.48-.65,.86-.56,.39,.09,.63,.5,.54,.9l-7.07,32.07,36.4,8.44c.19,.04,.35,.17,.46,.34,.1,.17,.13,.38,.09,.58l-9.11,37.75c-.08,.34-.37,.57-.7,.57Z" style="fill:#9f9ef2;"/><polygon points="57.38 250.78 84.36 244.59 57.38 238.94 57.38 250.78" style="fill:#9f9ef2;"/><path d="M62.98,199.95s-10.5-3.14-22.63,3.85c0,0,10.5-12.39,23.45-7.63l-.82,3.78Z" style="fill:#9f9ef2;"/><path d="M178.43,208.1l6.03-23.92s-.88-2.35-2.32-6.04c-6.71,8.23-3.7,29.96-3.7,29.96Z" style="fill:#9f9ef2;"/></g><g><path d="M143.59,119.75v-1.13c0-1.79-.73-3.51-2.04-4.67-10.49-9.3-22.74-8.53-26.99-7.91-.96,.14-1.86,.52-2.64,1.11l-4.94,3.73s-5.88,14.68,11.07,53.61c0,0,20.83-9.39,25.55-44.75Z" style="fill:#5254cf;"/><path d="M117.46,119.58c-.27,0-.53-.16-.65-.43-3.29-7.14-1.01-11.06-.92-11.22,.21-.35,.66-.46,.99-.24,.33,.22,.44,.68,.23,1.03-.03,.06-1.92,3.47,.99,9.78,.17,.37,.02,.82-.34,1-.1,.05-.21,.07-.31,.07Z" style="fill:#1a1416;"/><path d="M133.27,146.8c-.99,0-1.95-.25-2.85-.76-3.32-1.86-5.01-6.7-5.66-9.07-1.85,1.92-6.16,6.07-9.57,6.87-4.78,1.12-7.28-6.22-7.38-6.54-.13-.39,.07-.82,.45-.95,.38-.14,.79,.07,.92,.46,.02,.06,2.16,6.39,5.71,5.56,3.95-.92,9.68-7.33,9.74-7.4,.18-.21,.46-.29,.72-.21,.26,.08,.46,.3,.51,.57,.01,.07,1.47,7.26,5.26,9.39,1.32,.74,2.74,.77,4.35,.1,.37-.16,.79,.03,.94,.42,.15,.38-.03,.82-.4,.98-.94,.39-1.85,.59-2.73,.59Z" style="fill:#1a1416;"/><path d="M118.04,165.26c-.08,0-.15-.01-.23-.04-.38-.13-.58-.56-.45-.95,2.37-7.35,6.17-24.83,6.21-25.01,.09-.4,.47-.66,.86-.57,.39,.09,.63,.49,.54,.9-.04,.18-3.85,17.74-6.25,25.16-.1,.31-.38,.51-.68,.51Z" style="fill:#1a1416;"/></g><g><path d="M135.56,126.97l-10.42,8.52-7.68-16.66c-1.11-2.42-1.26-5.2-.4-7.73l7.64-22.54,21.84,7.41-8.56,27.4c-.45,1.42-1.29,2.68-2.42,3.6Z" style="fill:#d19c5e;"/><path d="M116.58,113.24c-.22,1.9,.07,3.84,.88,5.58l7.68,16.66,5.47-4.47c-8.24-4.56-12.41-13.44-14.03-17.77Z" style="fill:#a37c58;"/><path d="M122.94,94.15c-.03,1.44-.35,19.37,15.22,28.6h0l8.37-26.79-21.84-7.41-1.75,5.6Z" style="fill:#a37c58;"/><path d="M125.91,88.49c0,2.27-1.76,4.1-3.94,4.1s-3.94-1.84-3.94-4.1,1.76-4.1,3.94-4.1,3.94,1.84,3.94,4.1Z" style="fill:#d19c5e;"/><path d="M152.24,88.49c0,2.27-1.76,4.1-3.94,4.1s-3.94-1.84-3.94-4.1,1.76-4.1,3.94-4.1,3.94,1.84,3.94,4.1Z" style="fill:#d19c5e;"/><path d="M125.14,91.92s-4.65-2.15-4.13-8.34c.52-6.19-.77-11.56,6.58-11.7,0,0,3.74-7.26,10.45-5.92s15.42,4.95,14.2,14.25c-1.29,9.82-3.1,12.51-9.03,13.04l-18.07-1.34Z" style="fill:#1d1d1b;"/><path d="M141.53,81.17c-6.32,.54-11.53-3.1-11.53-3.1-6.73,0-6.93,11.91-7.05,11.97v8.21c0,7.54,5.92,13.72,13.16,13.72s13.16-6.17,13.16-13.72v-16.1c-1.55-1.45-4.76-1.23-7.74-.98Z" style="fill:#d19c5e;"/><path d="M140.28,97.99c-.88,0-1.7-.14-2-.2-.26-.05-.43-.31-.38-.58,.05-.27,.29-.45,.56-.4,1.37,.27,3.43,.29,3.57-.36,.2-.91-1.3-5.08-2.42-7.76-.11-.25,0-.55,.25-.66,.24-.11,.53,0,.63,.26,.47,1.13,2.82,6.82,2.48,8.38-.23,1.06-1.51,1.32-2.68,1.32Z" style="fill:#1d1d1b;"/><path d="M137.47,88.15c-.27,0-.54-.12-.73-.36-.51-.63-1.2-1-1.95-1.03-.82-.03-1.55,.32-2.13,.99-.35,.41-.96,.45-1.36,.08-.4-.37-.43-1-.08-1.41,.95-1.11,2.28-1.71,3.64-1.66,1.29,.05,2.48,.67,3.34,1.74,.34,.42,.29,1.05-.12,1.41-.18,.16-.4,.24-.62,.24Z" style="fill:#1d1d1b;"/><path d="M147.59,88.92c-.3,0-.6-.15-.79-.43-.41-.62-.97-.98-1.58-1.03-.67-.05-1.3,.27-1.81,.89-.34,.42-.95,.47-1.35,.11-.4-.36-.45-.99-.11-1.41,.91-1.11,2.16-1.69,3.42-1.59,1.2,.09,2.27,.76,3.02,1.88,.3,.45,.2,1.08-.24,1.39-.17,.12-.36,.18-.55,.18Z" style="fill:#1d1d1b;"/><path d="M133.24,95.38c-.13,0-.26,0-.39-.02-1.52-.12-2.9-.91-3.88-2.24-.97-1.31-1.43-2.98-1.31-4.71,.26-3.58,3.01-6.3,6.13-6.05,1.52,.12,2.9,.92,3.88,2.24,.97,1.31,1.43,2.98,1.31,4.71-.25,3.43-2.78,6.07-5.74,6.07Zm.16-12.03c-2.46,0-4.57,2.24-4.78,5.14-.11,1.48,.29,2.91,1.11,4.02,.81,1.1,1.95,1.75,3.19,1.85,2.58,.2,4.88-2.1,5.1-5.13,.11-1.48-.29-2.91-1.11-4.02-.81-1.1-1.94-1.75-3.19-1.85-.11,0-.21-.01-.32-.01Z" style="fill:#eef6f9;"/><path d="M146.96,96.46c-.13,0-.26,0-.4-.02-3.12-.25-5.45-3.36-5.19-6.94,.26-3.58,3.01-6.29,6.13-6.05,1.52,.12,2.9,.92,3.88,2.24,.97,1.31,1.43,2.98,1.31,4.71-.13,1.73-.83,3.31-1.97,4.45-1.06,1.05-2.38,1.62-3.76,1.62Zm.15-12.03c-2.46,0-4.57,2.24-4.78,5.14-.22,3.03,1.71,5.67,4.3,5.87,1.25,.09,2.46-.38,3.42-1.33,.97-.97,1.57-2.32,1.68-3.8h0c.11-1.48-.29-2.91-1.11-4.02-.81-1.1-1.95-1.75-3.19-1.85-.11,0-.21-.01-.32-.01Z" style="fill:#eef6f9;"/><path d="M141.93,89.36c-.15,0-.3-.08-.4-.22-.7-1.08-2.97-.13-2.99-.12-.25,.11-.53-.01-.63-.27-.1-.25,.01-.55,.26-.65,.12-.05,2.99-1.28,4.15,.48,.15,.23,.09,.54-.13,.69-.08,.06-.18,.09-.27,.09Z" style="fill:#eef6f9;"/><path d="M128.36,87.63c-.05,0-.11,0-.16-.03l-7.4-2.74c-.25-.09-.38-.38-.29-.64,.09-.26,.36-.39,.61-.3l7.4,2.74c.25,.09,.38,.38,.29,.64-.07,.21-.25,.33-.45,.33Z" style="fill:#eef6f9;"/><path d="M136.64,89.55c0,.55-.43,.99-.95,.99s-.95-.44-.95-.99,.43-.99,.95-.99,.95,.44,.95,.99Z" style="fill:#1d1d1b;"/><path d="M145.49,90.54c0,.55-.43,.99-.95,.99s-.95-.44-.95-.99,.43-.99,.95-.99,.95,.44,.95,.99Z" style="fill:#1d1d1b;"/><path d="M137.71,102.7c-2.07,0-4.55-1.79-4.67-1.88-.22-.16-.27-.47-.12-.7,.15-.23,.45-.28,.67-.12,.81,.59,3.21,2.02,4.65,1.63,.26-.07,.52,.09,.59,.36,.07,.27-.09,.54-.34,.61-.25,.07-.51,.1-.78,.1Z" style="fill:#1d1d1b;"/></g><path d="M216.76,146.92c8.77,6.1,14.29,13.04,10.84,18.42-3.45,5.38-13.51,5.05-22.12-1.29-5.39-3.97-15.19-11.63-11.74-17.01,3.45-5.38,14.25-6.22,23.02-.12Z" style="fill:#9f9ef2;"/><g><path d="M250.39,111.39c-4.21-2.24-6.27,2.72-6.27,2.72l-1.03-.13c-5.94,.25-5.84,8.78-5.84,8.78l-10.81,7.86,6.45-7.86s7.61-14.43,2.71-16.31c-4.9-1.88-9.55,12.1-9.55,12.1,0,0-12.52,12.24-16.78,12.07-4.26-.17-5.29-10.59-9.81-10.59s-4.13,4.17-4.13,4.17c2.24,2.04,5.81,10.76,5.17,15.35s.38,6.51,.38,6.51l-1.81,12.84c2.18,2,4.56,3.8,6.41,5.16,3.67,2.7,7.6,4.31,11.17,4.85l.62-6.25,15.49-8.47s6.32-6.96,7.94-10.25c1.61-3.29-.32-7.5-.32-7.5,0,0,3.48-2.02,4.65-3.77,1.16-1.75-.13-7.26-.13-7.26,0,0,9.71-11.77,5.5-14.01Z" style="fill:#d19c5e;"/><path d="M217.24,163c-7.8-1.19-13.97-4.51-17.75-7.06l-.42,2.95c2.18,2,4.56,3.8,6.41,5.16,3.67,2.7,7.6,4.31,11.17,4.85l.59-5.9Z" style="fill:#a37c58;"/><g><path d="M230.4,144.67c-.18,0-.35-.07-.49-.2-.29-.28-.31-.76-.04-1.06l3.11-3.49-.45-2.68c-.93-3.76-.12-9.53,1.82-12.81,.81-1.37,1.73-2.17,2.75-2.4,.92-.2,1.68-.08,2.28,.37,.86,.65,.98,1.69,1,1.81l.72,12.19c.02,.41-.28,.77-.67,.79-.4,.02-.74-.29-.76-.7l-.72-12.15h0s-.08-.48-.41-.72c-.25-.19-.63-.23-1.13-.11-.61,.14-1.24,.73-1.82,1.72-1.74,2.93-2.49,8.29-1.64,11.71l.53,3.11c.04,.23-.03,.47-.18,.64l-3.36,3.77c-.14,.16-.33,.24-.53,.24Z" style="fill:#a37c58;"/><path d="M244.9,126.16c-.37,0-.69-.3-.72-.7l-.77-11.3c-.03-.41,.27-.77,.67-.8,.39-.03,.74,.28,.77,.69l.77,11.3c.03,.41-.27,.77-.67,.8-.02,0-.03,0-.05,0Z" style="fill:#a37c58;"/><path d="M227.71,138.12c-.22,0-.43-.1-.57-.3-.24-.33-.18-.8,.14-1.05l5.15-4.08c.32-.25,.77-.19,1.01,.14,.24,.33,.18,.8-.14,1.05l-5.15,4.08c-.13,.1-.28,.15-.43,.15Z" style="fill:#a37c58;"/><path d="M208.96,152.51c-.16,0-.31-.05-.45-.16-.31-.26-.36-.73-.12-1.05,.19-.25,4.54-5.87,9.95-5.87,.13,0,.26,0,.39,0,5.05,.25,9.07-1.47,9.11-1.49,.37-.16,.79,.02,.94,.4,.15,.38-.02,.82-.38,.98-.17,.08-4.34,1.88-9.73,1.6-4.9-.22-9.1,5.24-9.15,5.3-.14,.19-.35,.28-.56,.28Z" style="fill:#a37c58;"/><path d="M215.75,163.72c-1.22,0-3.07-.35-5.75-1.66-2.78-1.36-3.81-3.77-4.45-5.95-.12-.4,.1-.82,.48-.94,.38-.12,.78,.1,.9,.5,.57,1.96,1.41,3.92,3.68,5.03,4.64,2.27,6.26,1.33,6.28,1.32,.33-.2,.77-.11,.98,.23,.21,.34,.14,.78-.18,1.01-.11,.08-.69,.46-1.95,.46Z" style="fill:#a37c58;"/><path d="M203.86,150.97c-.13,0-.27-.04-.39-.12-2.96-1.98-3.28-4.6-3.29-4.71-.04-.41,.24-.78,.63-.83,.41-.04,.75,.25,.8,.65,.01,.08,.28,2.04,2.64,3.62,.33,.22,.43,.69,.22,1.04-.14,.22-.37,.34-.61,.34Z" style="fill:#a37c58;"/><path d="M223.39,133.37c-.24,0-.47-.12-.61-.35-.21-.35-.11-.81,.22-1.03l3.05-2.01c.34-.22,.78-.12,.99,.23,.21,.35,.11,.81-.22,1.03l-3.05,2.01c-.12,.08-.25,.12-.38,.12Z" style="fill:#a37c58;"/><path d="M213.28,132.92s-.02,0-.04,0c-3.83-.19-6.24-2.5-6.35-2.6-.29-.28-.3-.76-.03-1.06,.27-.3,.73-.32,1.02-.04,.03,.03,2.15,2.04,5.43,2.2,.4,.02,.7,.37,.68,.78-.02,.4-.34,.71-.72,.71Z" style="fill:#a37c58;"/><path d="M231.65,143.26c-.22,0-.44-.1-.58-.3-7.46-10.37-10.52-10.59-10.55-10.59-.39,.04-.72-.27-.76-.68-.03-.41,.28-.78,.68-.81,.58-.05,3.9,.23,11.79,11.19,.24,.33,.17,.8-.14,1.05-.13,.1-.28,.15-.43,.15Z" style="fill:#a37c58;"/><path d="M229.54,121.58c-.13,0-.26-.04-.38-.12l-3.48-2.29c-.34-.22-.44-.68-.23-1.03,.21-.35,.66-.46,.99-.24l3.48,2.29c.34,.22,.44,.68,.23,1.03-.14,.23-.37,.35-.61,.35Z" style="fill:#a37c58;"/></g></g><ellipse cx="95.25" cy="226.99" rx="19.81" ry="7.81" transform="translate(-147.62 267.08) rotate(-76.61)" style="fill:#9f9ef2;"/><g><g><polygon points="148.76 228.66 139.3 216.06 144.46 211.85 153.92 224.46 148.76 228.66" style="fill:#393a8f;"/><polygon points="148.76 228.66 146.46 225.6 151.62 221.39 153.92 224.46 148.76 228.66" style="fill:#5254cf;"/><polygon points="145.57 224.41 144.69 223.24 149.85 219.03 150.73 220.2 145.57 224.41" style="fill:#5254cf;"/><polygon points="143.91 222.21 143.04 221.04 148.2 216.83 149.07 218 143.91 222.21" style="fill:#5254cf;"/></g><path d="M119.43,242.41h0c-1.92-2.55-1.48-6.24,.97-8.24l20.16-16.43,6.94,9.25-20.16,16.43c-2.45,2-5.99,1.55-7.91-1.01Z" style="fill:#9f9ef2;"/><polygon points="144.82 229.17 137.88 219.92 140.56 217.74 147.5 226.98 144.82 229.17" style="fill:#5254cf;"/></g><g><path d="M145.14,231.23c-4.65-4.21-10.32,3.05-10.32,3.05,0,0-3.18-1.97-7.31-4.86-4.13-2.89-4.65-7.69-4.65-7.69,1.98-.27,10.3,3.53,12.73,1.7,4.65-3.5,.95-5.56,.95-5.56-4.65-.54-8.78-5.65-11.7-5.74-2.93-.09-7.05-1.88-9.98-2.6-2.93-.72-14.69,4.12-14.69,4.12l-6.93-1.74c-2.22,3.13-4.25,7.73-5.54,13.08-.64,2.65-1.04,5.22-1.22,7.62l4.63,1.48s17.72,15.15,20.48,16.14c2.75,.99,5.87-.72,5.87-.72l6,1.97c5.42,.72,6.37-2.87,6.37-2.87,5.59,2.69,5.94-4.03,5.94-4.03,2.32,.72,3.96-1.61,3.96-1.61,1.03-5.29,10.07-7.53,5.42-11.74Z" style="fill:#d19c5e;"/><path d="M87.7,225c-.64,2.65-1.04,5.22-1.22,7.62l3.69,1.18c1.65-15.54,9.99-20.14,9.99-20.14l-6.93-1.74c-2.22,3.13-4.25,7.73-5.54,13.08Z" style="fill:#a37c58;"/><g><path d="M135.76,245.34c-.1,0-.2-.02-.3-.07l-13.94-6.72c-.36-.17-.52-.62-.35-1,.17-.38,.6-.54,.96-.37l13.94,6.72c.36,.17,.52,.62,.35,1-.12,.27-.38,.43-.65,.43Z" style="fill:#a37c58;"/><path d="M129.82,249.37c-.09,0-.19-.02-.28-.06l-10.02-4.42h-2.07c-.4,0-.72-.34-.72-.75s.32-.75,.72-.75h2.22c.1,0,.19,.02,.28,.06l10.15,4.48c.37,.16,.54,.6,.38,.98-.12,.29-.38,.46-.66,.46Z" style="fill:#a37c58;"/><path d="M117.46,250.27c-.08,0-.17-.01-.25-.05l-4.12-1.57h-1.76c-.4,0-.72-.34-.72-.75s.32-.75,.72-.75h1.89c.08,0,.17,.02,.25,.05l4.24,1.61c.37,.14,.57,.57,.43,.96-.11,.3-.38,.49-.68,.49Z" style="fill:#a37c58;"/><path d="M136.79,237.27c-.35,0-.66-.27-.71-.64-.09-.66-1.12-1.42-1.6-1.68-.35-.19-.49-.65-.3-1.01s.62-.51,.97-.32c.22,.12,2.14,1.21,2.36,2.8,.06,.41-.22,.79-.61,.85-.03,0-.07,0-.1,0Z" style="fill:#a37c58;"/><path d="M122.86,222.48c-.4,0-.72-.34-.72-.75v-3.32c0-.41,.32-.75,.72-.75s.72,.34,.72,.75v3.32c0,.41-.32,.75-.72,.75Z" style="fill:#a37c58;"/></g></g></g><g><rect x="192.53" y="224.62" width="13.67" height="18.62" transform="translate(398.73 467.86) rotate(180)" style="fill:#1d1d1b;"/><rect x="187.7" y="220.48" width="23.39" height="4.14" transform="translate(398.8 445.1) rotate(180)" style="fill:#1d1d1b;"/><rect x="190.87" y="217.61" width="17.07" height="2.87" transform="translate(398.8 438.08) rotate(180)" style="fill:#fff;"/><path d="M149.76,250.24h70.52l-1.86-2.83c-1.71-2.61-4.55-4.17-7.58-4.17h-51.65c-3.03,0-5.87,1.56-7.58,4.17l-1.86,2.83Z" style="fill:#1d1d1b;"/><path d="M182.08,246.05c-17.91,0-32.48-15.18-32.48-33.84,0-10.55,4.6-20.31,12.61-26.77l11.75,15.82c-3.28,2.65-5.17,6.64-5.17,10.96,0,7.63,5.96,13.84,13.28,13.84,3.87,0,7.54-1.76,10.07-4.82l14.55,13.05c-6.18,7.48-15.15,11.77-24.62,11.77Z" style="fill:#6a6a6a;"/><g><polygon points="156.77 182.37 177.92 204.41 186.64 195.32 165.5 173.28 156.77 182.37" style="fill:#1d1d1b;"/><polygon points="156.09 177.99 158.53 180.54 163.74 175.12 161.29 172.57 156.09 177.99" style="fill:#fff;"/><polygon points="151.29 176.66 156.09 177.99 161.29 172.57 160.01 167.57 151.29 176.66" style="fill:#1d1d1b;"/><polygon points="175.91 206.5 177.8 208.46 190.54 195.19 188.65 193.23 175.91 206.5" style="fill:#fff;"/><polygon points="180.68 205.46 186.69 211.71 190.38 207.86 184.38 201.61 180.68 205.46" style="fill:#1d1d1b;"/><polygon points="185.47 200.47 189.38 204.54 191.57 202.25 187.66 198.18 185.47 200.47" style="fill:#1d1d1b;"/></g><g><ellipse cx="167.52" cy="193.57" rx="7.22" ry="7.53" style="fill:#fff;"/><ellipse cx="167.52" cy="193.57" rx="3.77" ry="3.93" style="fill:#1d1d1b;"/></g><g><ellipse cx="199.43" cy="227.23" rx="7.22" ry="7.53" style="fill:#fff;"/><ellipse cx="199.43" cy="227.23" rx="3.77" ry="3.93" style="fill:#1d1d1b;"/></g></g><g><path d="M222.64,128.11c-2.39,0-4.32-2.01-4.32-4.5,0-6.94-2.87-10.21-6.49-14.34-3.9-4.45-8.75-9.98-8.75-20.41s4.85-15.97,8.75-20.41c3.63-4.13,6.49-7.4,6.49-14.34,0-2.49,1.93-4.5,4.32-4.5s4.32,2.01,4.32,4.5c0,10.44-4.85,15.97-8.75,20.41-3.63,4.13-6.49,7.4-6.49,14.34s2.87,10.21,6.49,14.34c3.9,4.45,8.75,9.98,8.75,20.41,0,2.49-1.93,4.5-4.32,4.5Z" style="fill:#ffc700;"/><path d="M222.48,59.04h-15.09c-1.06,0-1.92-.9-1.92-2s.86-2,1.92-2h15.09c1.06,0,1.92,.9,1.92,2s-.86,2-1.92,2Z" style="fill:#5254cf;"/><path d="M220.96,64.95h-11.88c-1.06,0-1.92-.9-1.92-2s.86-2,1.92-2h11.88c1.06,0,1.92,.9,1.92,2s-.86,2-1.92,2Z" style="fill:#fc7464;"/><path d="M222.48,122.51h-15.09c-1.06,0-1.92-.9-1.92-2s.86-2,1.92-2h15.09c1.06,0,1.92,.9,1.92,2s-.86,2-1.92,2Z" style="fill:#5254cf;"/><path d="M220.8,116.6h-11.88c-1.06,0-1.92-.9-1.92-2s.86-2,1.92-2h11.88c1.06,0,1.92,.9,1.92,2s-.86,2-1.92,2Z" style="fill:#fc7464;"/><path d="M221.24,82.7h-12.44c-1.06,0-1.92-.9-1.92-2s.86-2,1.92-2h12.44c1.06,0,1.92,.9,1.92,2s-.86,2-1.92,2Z" style="fill:#5254cf;"/><path d="M221.24,99.31h-12.44c-1.06,0-1.92-.9-1.92-2s.86-2,1.92-2h12.44c1.06,0,1.92,.9,1.92,2s-.86,2-1.92,2Z" style="fill:#5254cf;"/><path d="M222.48,91.58h-15.09c-1.06,0-1.92-.9-1.92-2s.86-2,1.92-2h15.09c1.06,0,1.92,.9,1.92,2s-.86,2-1.92,2Z" style="fill:#fc7464;"/><path d="M207.39,128.11c-2.39,0-4.32-2.01-4.32-4.5,0-10.44,4.85-15.97,8.75-20.41,3.63-4.13,6.49-7.4,6.49-14.34s-2.87-10.21-6.49-14.34c-3.9-4.45-8.75-9.98-8.75-20.41,0-2.49,1.93-4.5,4.32-4.5s4.32,2.01,4.32,4.5c0,6.94,2.87,10.21,6.49,14.34,3.9,4.45,8.75,9.98,8.75,20.41s-4.85,15.97-8.75,20.41c-3.63,4.13-6.49,7.4-6.49,14.34,0,2.49-1.93,4.5-4.32,4.5Z" style="fill:#9f9ef2;"/><path d="M217.77,114.01c-1.26,0-2.51-.57-3.36-1.67-.8-1.03-1.67-2.02-2.59-3.07-1.19-1.36-2.42-2.76-3.58-4.34-1.45-1.98-1.08-4.8,.82-6.31,1.9-1.51,4.61-1.13,6.05,.85,.93,1.26,1.97,2.46,3.09,3.73,.97,1.1,1.96,2.24,2.93,3.48,1.5,1.93,1.21,4.77-.64,6.33-.8,.67-1.76,1-2.71,1Z" style="fill:#ffc700;"/><path d="M211.39,80.42c-.89,0-1.79-.29-2.56-.88-1.92-1.47-2.33-4.29-.92-6.29,1.25-1.77,2.61-3.31,3.91-4.81,1.23-1.41,2.4-2.73,3.39-4.15,1.4-2.01,4.11-2.45,6.03-.99,1.93,1.46,2.35,4.28,.95,6.29-1.28,1.82-2.66,3.4-4,4.93-1.21,1.38-2.35,2.68-3.33,4.07-.85,1.2-2.16,1.83-3.48,1.83Z" style="fill:#ffc700;"/></g><g><rect x="168.64" y="48.41" width="13.86" height="3" style="fill:#9f9ef2;"/><rect x="168.64" y="53.76" width="19.12" height="3" style="fill:#efefef; isolation:isolate;"/><rect x="168.64" y="57.51" width="19.12" height="3" style="fill:#efefef; isolation:isolate;"/><rect x="168.64" y="61.49" width="11.09" height="3" style="fill:#efefef; isolation:isolate;"/></g><g><rect x="254.27" y="76.36" width="13.86" height="3" style="fill:#ffc700;"/><rect x="254.27" y="81.71" width="19.12" height="3" style="fill:#efefef; isolation:isolate;"/><rect x="254.27" y="85.46" width="19.12" height="3" style="fill:#efefef; isolation:isolate;"/><rect x="254.27" y="89.43" width="11.09" height="3" style="fill:#efefef; isolation:isolate;"/></g><g><polygon points="204.34 79.26 182.87 66.13 183.23 65.48 204.71 78.61 204.34 79.26" style="fill:#d0d0fc;"/><ellipse cx="183.05" cy="65.8" rx=".83" ry=".87" style="fill:#eef6f9;"/><ellipse cx="204.53" cy="78.93" rx=".83" ry=".87" style="fill:#eef6f9;"/></g><g><polygon points="226.87 99.59 226.66 98.87 250.52 91.43 250.72 92.15 226.87 99.59" style="fill:#d0d0fc;"/><path d="M250.06,92.42c-.34-.33-.36-.87-.04-1.22,.31-.35,.84-.37,1.17-.04,.34,.33,.36,.87,.04,1.22-.31,.35-.84,.37-1.17,.04Z" style="fill:#eef6f9;"/><path d="M226.2,99.86c-.34-.33-.35-.87-.04-1.22,.31-.35,.84-.37,1.18-.04s.35,.87,.04,1.22c-.31,.35-.84,.37-1.18,.04Z" style="fill:#eef6f9;"/></g></svg>