<?xml version="1.0" encoding="UTF-8"?><svg id="a" xmlns="http://www.w3.org/2000/svg" viewBox="0 0 646.37 123.02"><g><g><path d="M103.28,105.51s1.12-8.75,10.54-9.03c0,0-.72,8.03-10.54,9.03Z" style="fill:#2a2c27;"/><path d="M103.9,107.6s6.37-6.1,13.87-.39c0,0-5.61,5.79-13.87,.39Z" style="fill:#2a2c27;"/><path d="M119.29,98.99s-2.14-8.56,6.54-12.24c0,0,2.24,7.75-6.54,12.24Z" style="fill:#2a2c27;"/><path d="M120.63,100.71s3.73-8,12.79-5.4c0,0-3.13,7.43-12.79,5.4Z" style="fill:#2a2c27;"/><path d="M132.63,87.66s-5.35-7.02,1.16-13.83c0,0,5.12,6.23-1.16,13.83Z" style="fill:#2a2c27;"/><path d="M134.54,88.72s.25-8.82,9.61-10.02c0,0,.06,8.06-9.61,10.02Z" style="fill:#2a2c27;"/><path d="M139.7,74.74s-3.54-8.42,4.39-13.28c0,0,3.5,7.57-4.39,13.28Z" style="fill:#2a2c27;"/></g><g><path d="M57.01,105.51s-1.12-8.75-10.54-9.03c0,0,.72,8.03,10.54,9.03Z" style="fill:#2a2c27;"/><path d="M56.39,107.6s-6.37-6.1-13.87-.39c0,0,5.61,5.79,13.87,.39Z" style="fill:#2a2c27;"/><path d="M41,98.99s2.14-8.56-6.54-12.24c0,0-2.24,7.75,6.54,12.24Z" style="fill:#2a2c27;"/><path d="M39.66,100.71s-3.73-8-12.79-5.4c0,0,3.13,7.43,12.79,5.4Z" style="fill:#2a2c27;"/><path d="M27.65,87.66s5.35-7.02-1.16-13.83c0,0-5.12,6.23,1.16,13.83Z" style="fill:#2a2c27;"/><path d="M25.75,88.72s-.25-8.82-9.61-10.02c0,0-.06,8.06,9.61,10.02Z" style="fill:#2a2c27;"/><path d="M20.59,74.74s3.54-8.42-4.39-13.28c0,0-3.5,7.57,4.39,13.28Z" style="fill:#2a2c27;"/></g><g><path d="M62.9,113.5v-.72c0-.74,.11-1.41,.35-2.01,.23-.59,.53-1.14,.89-1.65,.36-.51,.75-1.01,1.15-1.49,.39-.48,.77-.97,1.12-1.47,.35-.5,.65-1.05,.87-1.64,.22-.59,.34-1.25,.34-1.98,0-.35-.05-.65-.16-.91-.11-.25-.32-.38-.65-.38-.5,0-.75,.45-.75,1.34v1.83h-3.15c0-.13-.01-.28-.02-.44,0-.17-.01-.32-.01-.48,0-1.08,.11-2,.34-2.75,.23-.75,.63-1.33,1.21-1.72,.58-.39,1.39-.59,2.43-.59,1.24,0,2.21,.35,2.9,1.05,.69,.7,1.04,1.7,1.04,2.99,0,.88-.11,1.65-.34,2.31-.23,.66-.53,1.26-.9,1.81-.37,.54-.79,1.08-1.24,1.62-.32,.38-.63,.77-.92,1.17-.3,.4-.56,.82-.79,1.28h4.09v2.83h-7.78Z" style="fill:#2a2c27;"/><path d="M75.31,113.64c-1.27,0-2.25-.35-2.94-1.06s-1.04-1.73-1.04-3.07v-6.77c0-1.41,.33-2.49,.98-3.24,.66-.75,1.65-1.13,2.99-1.13s2.34,.38,2.99,1.13c.65,.75,.98,1.83,.98,3.24v6.77c0,1.33-.34,2.36-1.03,3.07-.69,.71-1.67,1.06-2.94,1.06Zm0-2.76c.23,0,.41-.1,.55-.31,.13-.21,.2-.45,.2-.71v-7.41c0-.35-.04-.66-.12-.92s-.28-.4-.63-.4-.55,.13-.63,.4-.12,.57-.12,.92v7.41c0,.26,.07,.5,.2,.71,.13,.21,.31,.31,.54,.31Z" style="fill:#2a2c27;"/><path d="M83.93,113.64c-1.27,0-2.25-.35-2.94-1.06s-1.04-1.73-1.04-3.07v-6.77c0-1.41,.33-2.49,.98-3.24,.66-.75,1.65-1.13,2.99-1.13s2.34,.38,2.99,1.13c.65,.75,.98,1.83,.98,3.24v6.77c0,1.33-.34,2.36-1.03,3.07-.69,.71-1.67,1.06-2.94,1.06Zm0-2.76c.23,0,.41-.1,.55-.31,.13-.21,.2-.45,.2-.71v-7.41c0-.35-.04-.66-.12-.92s-.28-.4-.63-.4-.55,.13-.63,.4-.12,.57-.12,.92v7.41c0,.26,.07,.5,.2,.71,.13,.21,.31,.31,.54,.31Z" style="fill:#2a2c27;"/><path d="M92.37,113.67c-1.32,0-2.29-.35-2.89-1.05-.6-.7-.9-1.75-.9-3.16v-1.57h3.08v1.58c0,.4,.05,.73,.15,1.01,.1,.28,.32,.41,.67,.41s.58-.15,.67-.45c.1-.3,.14-.79,.14-1.46v-.37c0-.52-.09-.97-.26-1.35s-.51-.58-1.02-.58c-.06,0-.12,0-.17,0-.05,0-.09,0-.12,.01v-2.69c.52,0,.91-.12,1.18-.35,.27-.23,.41-.61,.41-1.15,0-.85-.24-1.27-.73-1.27-.32,0-.53,.12-.64,.37-.11,.25-.17,.56-.17,.94v.45h-3.1c0-.07-.01-.15-.01-.25,0-.1,0-.19,0-.28,0-1.38,.32-2.38,.96-3.03,.64-.64,1.62-.96,2.95-.96,2.56,0,3.83,1.33,3.83,3.99,0,.74-.1,1.35-.3,1.83-.2,.48-.57,.82-1.11,1.01,.43,.2,.74,.47,.95,.78,.2,.32,.34,.71,.4,1.19,.06,.47,.09,1.04,.09,1.71,0,1.5-.31,2.66-.94,3.47s-1.67,1.22-3.12,1.22Z" style="fill:#2a2c27;"/></g><path d="M101.72,48.13c-6.24,.28-6.64,4.63-6.64,4.63,0,0,3.97-.16,4.13,2.29,.17,2.56-5.01,3.47-6.08,9.81-1.23,7.3,2.06,10.59,2.06,10.59,5.02-2.12,6.52-8.53,6.52-8.53,1.28,6.24-3.96,11.26-3.96,11.26,1.41,.51,2.84,.86,4.24,1.05v6.64h1.34v-6.51c1.07,.07,2.11,.03,3.12-.1v6.31h1.34v-6.55c4.4-1,7.95-4.06,9.31-9.43,3.23-12.77-7.17-21.83-15.39-21.47Zm-.44,4.72c-.68,.34-1.51,.07-1.85-.61-.34-.68-.07-1.51,.61-1.85,.68-.34,1.51-.07,1.85,.61s.07,1.51-.61,1.85Z" style="fill:#2a2c27;"/><path d="M98.54,45.68c12.77-3.14,18.67,8.48,18.67,8.48-5.25-25.08-32.18-18.02-33.71-26.77-1.57-8.98,8.63-6.77,8.63-6.77-.18-11.32-25.61-20.07-42.46,4.32-16.24,23.49,.76,40.19,.76,40.19,11.02-5.54,10.91-23.56,10.91-23.56,5.02,16.39-5.25,27.18-5.25,27.18,3.79,1.29,7.2,2.12,10.28,2.57v15.62c-6.74-2.88-13.66-3.19-13.98-3.2l-.11,2.68c.08,0,8.03,.36,14.76,3.8,4.52,2.3,9.23,3.45,14.23,3.45,2.94,0,5.99-.4,9.16-1.19,2.48-.62,4.64-1.69,6.74-2.72,3.66-1.8,7.45-3.66,13.42-3.49l.08-2.68c-6.66-.21-10.91,1.9-14.68,3.76-2.06,1.01-4,1.97-6.2,2.52-4.29,1.07-8.24,1.38-12.02,.91v-19.69c19.24-4.52,16.24-31.05,16.24-31.05,3.3,2.16,4.54,5.63,4.54,5.63Zm-23.46,44.64c-2.06-.47-4.07-1.17-6.06-2.13h.02v-16.57c2.2,.18,4.21,.14,6.04-.07v18.77Zm5.1-73.74c-.54-1.06-.11-2.36,.95-2.9,1.06-.54,2.36-.11,2.9,.95s.11,2.36-.95,2.9c-1.06,.54-2.36,.11-2.9-.95Z" style="fill:#ffc700;"/></g><g><path d="M195.7,27.65l-.31-.81-13.85,.05-.25,.85c2.41,1.55,2.32,3.23,2.31,3.34v43.28c-.01,.1-.38,2.44-3.34,2.44-2.63,0-3.1-1.79-3.12-1.79h0s-.02-3.27-.02-6.38-.03-8.08-.03-8.08l-.72-.38c-.15,.1-3.75,2.51-5.5,4.47-1.96,2.19-3.66,5.01-3.73,5.13l-.07,.22c0,.23-.14,5.67,3.51,9.46,2.21,2.3,5.33,3.47,9.27,3.49h.08c13.19,0,13.87-13.04,13.87-13.19,0-3.96-.05-38.68-.05-38.79-.05-1.55,1.92-3.3,1.94-3.32Z" style="fill:#2a2c27;"/><path d="M531.18,52.96c-.12-1.58-1.66-2.87-3.43-2.87-1.42,0-2.8,.81-3.87,2.27-2.37,3.22-2.25,9.1-2.14,11.11,.24,.03,.54,.05,.88,.05,1.04,0,2.63-.19,4.27-1.09,3.31-1.82,4.64-4.74,4.29-9.48Z" style="fill:none;"/><path d="M486.86,73.2c.42,1.9,2.57,3.38,4.89,3.38,3.2,0,5.4-2.63,5.9-7.03l.04-18.41c-2.12,.97-6.51,3.43-8.97,8.03-3.52,6.58-2.27,12.19-1.86,14.03Z" style="fill:none;"/><path d="M384.86,46.58c.16,0,.32,0,.48,0,4.01,0,7.19,1.78,8.93,3.01,.3-6.1-1.23-11.31-1.98-13.44-4.65,3.22-6.69,8.16-7.42,10.44Z" style="fill:none;"/><polygon points="470.9 82.48 470.9 82.48 470.9 82.48 470.9 82.48 470.9 82.48" style="fill:#2a2c27;"/><path d="M261.83,44.87l-9.33,.03-.28,1.81c.43,.14,1.23,.58,1.23,1.02v23.63c-.03,.32-.45,3.16-4.84,3.16-2.63,0-3.31-1.76-3.43-2.19l-.08-26.52-.93-.92-10.18,.03-.24,1.82s1.19,.36,1.24,1.02c0,.38,0,17.86,.02,27.22,.01,.08,1.65,8.4,10.21,8.42,4.47,0,7.33-1.85,8.96-3.46-.05,.7-.14,1.51-.29,2.38-.78,4.62-3.01,7.39-7.23,8.98l-.6,.87v3.62l.98,.92c.16,0,15.66-1.11,15.66-19.38l.05-31.51-.93-.93Z" style="fill:#2a2c27;"/><path d="M630.02,44.87l-9.33,.03-.28,1.81c.43,.14,1.23,.58,1.23,1.02v23.63c-.03,.32-.45,3.16-4.84,3.16-2.63,0-3.31-1.76-3.43-2.19l-.08-26.52-.93-.92-10.18,.03-.24,1.82s1.19,.36,1.24,1.02c0,.38,0,17.86,.02,27.22,.01,.08,1.65,8.4,10.21,8.42,4.47,0,7.33-1.85,8.96-3.46-.05,.7-.14,1.51-.29,2.38-.78,4.62-3.01,7.39-7.23,8.98l-.6,.87v3.62l.98,.92c.16,0,15.66-1.11,15.66-19.38l.05-31.51-.93-.93Z" style="fill:#2a2c27;"/><path d="M313.63,28.19l-9.23,.11-.91,.9-.11,3.59,.24,.64s3.13,3.71,2.07,14.15l.92,1.02h4.99l.91-.79c.07-.46,1.69-11.28,1.99-14.82l.05-3.86-.94-.94Z" style="fill:#2a2c27;"/><path d="M343.86,66.24c-1.92-3.46-6.69-5.88-11.29-8.21-.65-.33-1.29-.65-1.91-.98-1.96-1.02-2.99-2.62-2.64-4.09,.38-1.56,2.18-2.53,4.69-2.53h.31c1.52,.05,2.7,.55,3.61,1.54,2.19,2.37,2.01,6.67,2.01,6.72l.92,.97h1.9l.83-.52c1.92-3.95,1.79-14.73,1.79-15.18l-.95-.91-1.9,.05-.9,.95,.02,.58c-1.75-.26-5.23-.71-7.9-.71-6.18,0-10.92,2.53-13.01,6.94-1.59,3.36-1.26,7.18,.85,9.75,1.77,2.16,6.38,5.28,10.08,7.78,1.85,1.25,3.94,2.66,4.24,3.04,.56,.78,.74,2.51,.1,3.74-.57,1.1-1.66,1.67-3.25,1.67-5.14,0-6.56-8.52-6.57-8.6l-1.61-.46-5.85,6.67-.21,.81c.07,.33,1.98,8.1,13.71,8.1h.12c7.61-.04,11.01-3.13,12.53-5.72,2.34-3.99,1.57-9.06,.27-11.39Z" style="fill:#2a2c27;"/><path d="M427.48,50.33c2.93,0,5.35,2.07,5.35,3.13,0,2.39,.15,7.21,.15,7.21l.93,.9h1.54l.83-.52,2.1-4.26,.1-.41-.05-12.41-.95-.92-1.74,.05-.9,.96c.03,.77,0,1.68-.06,2.37-1.41-.68-4.11-1.59-8.5-1.59-7.56,0-15.28,3.96-15.49,12.8-.49,20.31,24.54,25.59,24.79,25.64l1.03-.53s.52-1.2,.62-2.8c.07-1.18-.54-2.76-.61-2.94l-.72-.57c-.57-.09-14.08-2.3-14.08-16.77,0-6.02,2.01-9.33,5.67-9.33Z" style="fill:#2a2c27;"/><path d="M595.77,80.44l-.02-25.3c0-.1-.53-10.29-10.18-10.3-5.86,0-9.23,3.37-10.73,5.4-1.18-2.05-3.83-5.36-8.6-5.38-4.39,0-7.55,2.25-9.34,3.98,0-.42,0-.79,0-.98,.24-.57,.89-1.13,1.14-1.31l-.54-1.67h-10.84s-.29,1.79-.29,1.79c1.09,.36,1.2,1.03,1.21,1.03l.08,32.54c-.07,1.02-.74,1.32-.79,1.35l.31,1.8,10.52-.02,.27-1.81c-.92-.29-1-1.09-1-1.23l-.08-23.14c.42-.86,2.54-4.82,6.25-4.87,3.65,0,4.65,2.25,4.82,2.74l.05,24.57c-.09,.84-1.31,1.78-1.74,2.04l.48,1.71,11.83,.02,.12-1.84c-1.09-.13-1.43-1.91-1.44-1.91l.02-24.33c.23-.56,1.43-3.01,5.07-3.01s4.09,3.12,4.13,3.36v24.7c-.27,.89-1,1.21-1.02,1.22l.33,1.79,10.67,.04,.3-1.8c-.98-.33-1.01-.88-.98-1.16Z" style="fill:#2a2c27;"/><path d="M528.2,76.4c-1.71,0-3.05-.52-3.99-1.56-1.48-1.63-1.71-4.15-1.73-5.46,.08,0,.16,0,.24,0,10.19,0,17.24-5.49,17.55-13.67,.11-2.86-.93-5.51-2.99-7.65-2.37-2.46-5.87-3.99-9.12-3.99h-.32c-12.98,.44-15.37,11.43-15.39,11.54l-.02,.19,.09,16.01c.68,4.73,6.73,11.6,14.64,11.6s12.65-5.43,12.85-5.66l.23-.61v-9.04l-1.79-.34c-.03,.09-3.5,8.64-10.25,8.64Zm-.46-26.31c1.78,0,3.32,1.29,3.43,2.87,.35,4.74-.98,7.66-4.29,9.48-1.64,.9-3.22,1.09-4.27,1.09-.34,0-.64-.02-.88-.05-.12-2.01-.23-7.89,2.14-11.11,1.08-1.47,2.45-2.27,3.87-2.27Z" style="fill:#2a2c27;"/><path d="M505.8,79.06V31.11c.25-.75,1.63-1,2.11-1.03l.87-.93v-1.85s-.94-.92-.94-.92l-14.7,.04-.92,.94,.04,1.79,1.11,.9c1.38,0,2.18,.86,2.46,1.24l.04,13.71c-12.57,1.84-18.17,12.96-18.87,20.14-.74,7.59,1.68,12.02,3.83,14.41,2.2,2.43,5.13,3.83,8.05,3.83h.04c4.19,0,7.11-1.86,8.77-3.37v2.45s.94,.92,.94,.92h9.19l.36-1.78c-2.43-1.02-2.39-2.43-2.38-2.57Zm-8.15-9.5c-.5,4.4-2.71,7.03-5.9,7.03-2.32,0-4.46-1.49-4.89-3.38-.41-1.84-1.66-7.45,1.86-14.03,2.46-4.6,6.85-7.06,8.97-8.03l-.04,18.41Z" style="fill:#2a2c27;"/><path d="M403.25,27.3l-.93-.96-9.95,.05-.47,.13c-18.35,10.92-18.19,33.96-18.19,34.17l.02,16.9c-.38,2.04-1.18,2.47-1.17,2.47l.28,1.81,11.02,.05,.28-1.81c-2.16-.67-2.89-2.54-3.04-2.99,0-1.53,.05-15.66,.05-20.12,0-2.78,1.01-4.19,1.44-4.66h3.1c11.42,2.99,12.01,18.73,12.01,18.88l.1,9.74,.93,.92h12.61l.8-1.39c-10.3-17.76-8.91-52.83-8.9-53.18Zm-8.99,22.28c-1.73-1.24-4.92-3.01-8.93-3.01-.16,0-.32,0-.48,0,.73-2.27,2.77-7.21,7.42-10.44,.75,2.13,2.29,7.34,1.98,13.44Z" style="fill:#2a2c27;"/><path d="M229.55,81.47c-.48,0-.93-1.33-1.02-2.17,0,0-.41-22.92-.41-22.99-.4-9.29-7.56-12.59-13.57-12.59-.21,0-.42,0-.62,.01-7.42,.3-11.56,3.16-12.3,8.52-.31,2.24,.06,4.06,1.12,5.41,1.39,1.79,3.46,2.03,3.54,2.04l1.03-.94c-.07-2.69,.75-5.17,2.2-6.65,1.1-1.13,2.57-1.7,4.36-1.7,.2,0,.4,0,.61,.02,3.15,.21,3.74,3.81,3.84,5.32,0,.23-.02,2.57-.03,3.91h-6.54c-.32,.03-7.76,.7-10.56,6.63-2.05,4.35-1.93,9.44,.31,12.97,1.69,2.67,4.36,4.15,7.5,4.15,5.4,0,9.16-3.05,11.16-5.22l.06,4.26,.93,.91,8.4-.03v-1.85Zm-10.46-16.71v3.69s-.97,7.79-7.9,8.31c-8.39,.62-4.82-13.59,7.9-12Z" style="fill:#2a2c27;"/><path d="M299.85,81.47c-.48,0-.93-1.33-1.02-2.17-.07-3.8-.4-22.79-.41-22.99-.4-9.29-7.56-12.59-13.57-12.59-.21,0-.42,0-.62,.01-7.42,.3-11.56,3.16-12.3,8.52-.31,2.24,.06,4.06,1.12,5.41,1.39,1.79,3.46,2.03,3.54,2.04l1.03-.94c-.07-2.69,.75-5.17,2.2-6.65,1.1-1.13,2.57-1.7,4.36-1.7,.2,0,.4,0,.61,.02,3.15,.21,3.74,3.81,3.84,5.32,0,.23-.02,2.57-.03,3.91h-6.54c-.32,.03-7.76,.7-10.56,6.63-2.05,4.35-1.93,9.44,.31,12.97,1.69,2.67,4.36,4.15,7.5,4.15,5.4,0,9.16-3.05,11.16-5.22l.06,4.26,.93,.91,8.4-.03v-1.85Zm-10.46-16.71v3.69s-.97,7.79-7.9,8.31c-8.39,.62-4.82-13.59,7.9-12Z" style="fill:#2a2c27;"/><path d="M471.92,81.47c-.48,0-.93-1.33-1.02-2.17-.07-3.8-.4-22.79-.41-22.99-.4-9.29-7.56-12.59-13.57-12.59-.21,0-.42,0-.62,.01-7.42,.3-11.56,3.16-12.3,8.52-.31,2.24,.06,4.06,1.12,5.41,1.39,1.79,3.46,2.03,3.54,2.04l1.03-.94c-.07-2.69,.75-5.17,2.2-6.65,1.1-1.13,2.57-1.7,4.36-1.7,.2,0,.4,0,.61,.02,3.15,.21,3.74,3.81,3.84,5.32,0,.23-.02,2.57-.03,3.91h-6.54c-.32,.03-7.76,.7-10.56,6.63-2.05,4.35-1.93,9.44,.31,12.97,1.69,2.67,4.36,4.15,7.5,4.15,5.4,0,9.16-3.05,11.16-5.22l.06,4.26,.93,.91,8.4-.03v-1.85Zm-10.46-13.02s-.97,7.79-7.9,8.31c-8.39,.62-4.82-13.59,7.9-12v3.69Z" style="fill:#2a2c27;"/></g></svg>