<svg xmlns="http://www.w3.org/2000/svg" width="44.126" height="40" viewBox="0 0 44.126 40">
  <g id="Group_21" data-name="Group 21" transform="translate(-150.297 -193.114)">
    <g id="Group_17" data-name="Group 17" transform="translate(150.297 193.114)">
      <g id="Group_8" data-name="Group 8" transform="translate(29.949 22.202)">
        <g id="Group_1" data-name="Group 1" transform="translate(0 11.936)">
          <path id="Path_1" data-name="Path 1" d="M281.3,326.1a3.618,3.618,0,0,1,3.592-3.079A3.655,3.655,0,0,1,281.3,326.1Z" transform="translate(-281.297 -323.025)" fill="#fff"/>
        </g>
        <g id="Group_2" data-name="Group 2" transform="translate(0.211 14.763)">
          <path id="Path_2" data-name="Path 2" d="M282.219,336.354a3.618,3.618,0,0,1,4.729-.134A3.655,3.655,0,0,1,282.219,336.354Z" transform="translate(-282.219 -335.388)" fill="#fff"/>
        </g>
        <g id="Group_3" data-name="Group 3" transform="translate(5.379 8.62)">
          <path id="Path_3" data-name="Path 3" d="M304.906,312.692a3.618,3.618,0,0,1,2.231-4.172A3.655,3.655,0,0,1,304.906,312.692Z" transform="translate(-304.827 -308.52)" fill="#fff"/>
        </g>
        <g id="Group_4" data-name="Group 4" transform="translate(5.914 11.363)">
          <path id="Path_4" data-name="Path 4" d="M307.164,322.536a3.618,3.618,0,0,1,4.359-1.84A3.655,3.655,0,0,1,307.164,322.536Z" transform="translate(-307.164 -320.518)" fill="#fff"/>
        </g>
        <g id="Group_5" data-name="Group 5" transform="translate(9.301 4.217)">
          <path id="Path_5" data-name="Path 5" d="M322.686,293.975a3.618,3.618,0,0,1,.4-4.715A3.655,3.655,0,0,1,322.686,293.975Z" transform="translate(-321.982 -289.26)" fill="#fff"/>
        </g>
        <g id="Group_6" data-name="Group 6" transform="translate(10.657 5.876)">
          <path id="Path_6" data-name="Path 6" d="M327.91,299.933a3.618,3.618,0,0,1,3.274-3.415A3.655,3.655,0,0,1,327.91,299.933Z" transform="translate(-327.91 -296.518)" fill="#fff"/>
        </g>
        <g id="Group_7" data-name="Group 7" transform="translate(12.147)">
          <path id="Path_7" data-name="Path 7" d="M334.695,275.343a3.664,3.664,0,0,1,1.5-4.527A3.7,3.7,0,0,1,334.695,275.343Z" transform="translate(-334.426 -270.816)" fill="#fff"/>
        </g>
      </g>
      <g id="Group_15" data-name="Group 15" transform="translate(0 22.202)">
        <g id="Group_9" data-name="Group 9" transform="translate(10.584 11.936)">
          <path id="Path_8" data-name="Path 8" d="M200.185,326.1a3.618,3.618,0,0,0-3.592-3.079A3.655,3.655,0,0,0,200.185,326.1Z" transform="translate(-196.593 -323.025)" fill="#fff"/>
        </g>
        <g id="Group_10" data-name="Group 10" transform="translate(9.236 14.763)">
          <path id="Path_9" data-name="Path 9" d="M195.427,336.354a3.618,3.618,0,0,0-4.729-.134A3.655,3.655,0,0,0,195.427,336.354Z" transform="translate(-190.698 -335.388)" fill="#fff"/>
        </g>
        <g id="Group_11" data-name="Group 11" transform="translate(6.4 8.62)">
          <path id="Path_10" data-name="Path 10" d="M180.609,312.692a3.618,3.618,0,0,0-2.231-4.172A3.655,3.655,0,0,0,180.609,312.692Z" transform="translate(-178.291 -308.52)" fill="#fff"/>
        </g>
        <g id="Group_12" data-name="Group 12" transform="translate(3.904 11.363)">
          <path id="Path_11" data-name="Path 11" d="M171.733,322.536a3.618,3.618,0,0,0-4.359-1.84A3.655,3.655,0,0,0,171.733,322.536Z" transform="translate(-167.374 -320.518)" fill="#fff"/>
        </g>
        <g id="Group_13" data-name="Group 13" transform="translate(3.103 4.217)">
          <path id="Path_12" data-name="Path 12" d="M164.939,293.975a3.618,3.618,0,0,0-.4-4.715A3.655,3.655,0,0,0,164.939,293.975Z" transform="translate(-163.871 -289.26)" fill="#fff"/>
        </g>
        <g id="Group_14" data-name="Group 14" transform="translate(0.246 5.876)">
          <path id="Path_13" data-name="Path 13" d="M154.645,299.933a3.618,3.618,0,0,0-3.274-3.415A3.655,3.655,0,0,0,154.645,299.933Z" transform="translate(-151.371 -296.518)" fill="#fff"/>
        </g>
        <path id="Path_14" data-name="Path 14" d="M152.059,275.343a3.664,3.664,0,0,0-1.5-4.527A3.7,3.7,0,0,0,152.059,275.343Z" transform="translate(-150.297 -270.816)" fill="#fff"/>
      </g>
      <g id="Group_16" data-name="Group 16" transform="translate(16.173 34.783)">
        <path id="Path_15" data-name="Path 15" d="M221.052,331.094v-.244a1.881,1.881,0,0,1,.118-.684,2.553,2.553,0,0,1,.3-.564q.186-.26.392-.51t.382-.5a2.511,2.511,0,0,0,.3-.558,1.881,1.881,0,0,0,.115-.676.807.807,0,0,0-.053-.309.216.216,0,0,0-.222-.129q-.255,0-.256.456V328h-1.075c0-.045,0-.1-.007-.151s0-.111,0-.163a3.275,3.275,0,0,1,.116-.937,1.053,1.053,0,0,1,.411-.587,1.457,1.457,0,0,1,.829-.2,1.328,1.328,0,0,1,.989.357,1.391,1.391,0,0,1,.353,1.02,2.435,2.435,0,0,1-.116.789,2.508,2.508,0,0,1-.308.616q-.191.277-.421.553-.163.195-.315.4a2.861,2.861,0,0,0-.269.436H223.7v.965Z" transform="translate(-221.04 -325.935)" fill="#fff"/>
        <path id="Path_16" data-name="Path 16" d="M235.022,331.053a1.331,1.331,0,0,1-1-.363,1.44,1.44,0,0,1-.353-1.046v-2.306a1.631,1.631,0,0,1,.336-1.105,1.541,1.541,0,0,1,2.038,0,1.638,1.638,0,0,1,.334,1.105v2.306a1.444,1.444,0,0,1-.351,1.046A1.331,1.331,0,0,1,235.022,331.053Zm0-.941a.208.208,0,0,0,.186-.107.448.448,0,0,0,.067-.241v-2.524a1.13,1.13,0,0,0-.039-.315.236.236,0,0,0-.427,0,1.138,1.138,0,0,0-.039.315v2.524a.441.441,0,0,0,.068.241A.209.209,0,0,0,235.022,330.112Z" transform="translate(-230.781 -325.848)" fill="#fff"/>
        <path id="Path_17" data-name="Path 17" d="M247.879,331.053a1.332,1.332,0,0,1-1-.363,1.44,1.44,0,0,1-.353-1.046v-2.306a1.632,1.632,0,0,1,.336-1.105,1.541,1.541,0,0,1,2.038,0,1.636,1.636,0,0,1,.334,1.105v2.306a1.444,1.444,0,0,1-.351,1.046A1.33,1.33,0,0,1,247.879,331.053Zm0-.941a.209.209,0,0,0,.186-.107.45.45,0,0,0,.067-.241v-2.524a1.137,1.137,0,0,0-.039-.315.236.236,0,0,0-.427,0,1.129,1.129,0,0,0-.039.315v2.524a.439.439,0,0,0,.068.241A.209.209,0,0,0,247.879,330.112Z" transform="translate(-240.699 -325.848)" fill="#fff"/>
        <path id="Path_18" data-name="Path 18" d="M260.664,331.191a1.234,1.234,0,0,1-.985-.357,1.616,1.616,0,0,1-.308-1.078v-.535h1.049v.537a1.018,1.018,0,0,0,.051.344.252.252,0,0,0,.457-.012,1.8,1.8,0,0,0,.049-.5v-.128a1.115,1.115,0,0,0-.089-.462.343.343,0,0,0-.347-.2h-.056l-.042,0v-.918a.61.61,0,0,0,.4-.118.489.489,0,0,0,.139-.393q0-.433-.25-.433a.217.217,0,0,0-.219.126.79.79,0,0,0-.057.321v.154H259.4c0-.023,0-.051,0-.084s0-.065,0-.1a1.409,1.409,0,0,1,.329-1.032,1.368,1.368,0,0,1,1-.328q1.307,0,1.307,1.36a1.636,1.636,0,0,1-.1.623.6.6,0,0,1-.378.344.765.765,0,0,1,.323.267.98.98,0,0,1,.136.4,4.534,4.534,0,0,1,.032.584,1.9,1.9,0,0,1-.321,1.182A1.264,1.264,0,0,1,260.664,331.191Z" transform="translate(-250.608 -325.974)" fill="#fff"/>
      </g>
      <path id="Path_19" data-name="Path 19" d="M268.778,250.935c-2.129.095-2.262,1.577-2.262,1.577s1.352-.054,1.406.779c.057.874-1.709,1.184-2.072,3.345-.418,2.49.7,3.611.7,3.611a4.538,4.538,0,0,0,2.224-2.908,4.618,4.618,0,0,1-1.349,3.839,7.1,7.1,0,0,0,1.444.357V263.8h.456v-2.218a5.554,5.554,0,0,0,1.064-.034v2.15h.456v-2.231a4.142,4.142,0,0,0,3.174-3.216A5.721,5.721,0,0,0,268.778,250.935Zm-.15,1.609a.469.469,0,1,1,.207-.63A.469.469,0,0,1,268.628,252.544Z" transform="translate(-239.361 -238.253)" fill="#fff"/>
      <path id="Path_20" data-name="Path 20" d="M209.942,205.5a5.71,5.71,0,0,1,6.366,2.892c-1.789-8.55-10.969-6.142-11.492-9.126-.537-3.062,2.943-2.307,2.943-2.307-.06-3.857-8.729-6.84-14.475,1.471-5.535,8.006.258,13.7.258,13.7,3.758-1.889,3.718-8.033,3.718-8.033a9.724,9.724,0,0,1-1.789,9.265,19.908,19.908,0,0,0,3.5.878v5.326a15.035,15.035,0,0,0-4.764-1.092l-.036.914a13.957,13.957,0,0,1,5.031,1.294,10.505,10.505,0,0,0,4.851,1.176,12.857,12.857,0,0,0,3.121-.405,11.433,11.433,0,0,0,2.3-.927,8.844,8.844,0,0,1,4.573-1.189l.028-.914a9.642,9.642,0,0,0-5,1.282,10.551,10.551,0,0,1-2.114.86,11.108,11.108,0,0,1-4.1.31v-6.713c6.558-1.541,5.535-10.583,5.535-10.583A4.247,4.247,0,0,1,209.942,205.5Zm-8,15.217a9.824,9.824,0,0,1-2.067-.724h.007v-5.647a10.481,10.481,0,0,0,2.06-.025Zm1.74-25.137a.736.736,0,1,1,.989.325A.736.736,0,0,1,203.687,195.579Z" transform="translate(-181.608 -193.114)" fill="#ffc700"/>
    </g>
  </g>
</svg>
