<?xml version="1.0" encoding="UTF-8"?><svg id="a" xmlns="http://www.w3.org/2000/svg" xmlns:xlink="http://www.w3.org/1999/xlink" viewBox="0 0 300 300"><defs><linearGradient id="x" x1="333.59" y1="132.86" x2="347.23" y2="129.13" gradientTransform="translate(-187.17 -56.07) rotate(12.57)" gradientUnits="userSpaceOnUse"><stop offset=".02" stop-color="#999"/><stop offset=".28" stop-color="#bdbebd"/><stop offset=".58" stop-color="#e0e1df"/><stop offset=".83" stop-color="#f6f7f5"/><stop offset=".99" stop-color="#fefffd"/></linearGradient><linearGradient id="y" x1="321.28" y1="122.43" x2="330.49" y2="116.78" gradientTransform="translate(-187.17 -56.07) rotate(12.57)" gradientUnits="userSpaceOnUse"><stop offset="0" stop-color="#e4e4e4"/><stop offset=".58" stop-color="#f6f7f5"/><stop offset=".99" stop-color="#fefffd"/></linearGradient><linearGradient id="z" x1="331.68" y1="119.07" x2="344.84" y2="119.07" xlink:href="#y"/><radialGradient id="aa" cx="317.26" cy="71.97" fx="317.26" fy="71.97" r="3.92" gradientTransform="translate(-187.17 -28.57) rotate(13.07) scale(1 1.04) skewX(1.02)" gradientUnits="userSpaceOnUse"><stop offset="0" stop-color="#fefffd"/><stop offset="1" stop-color="#b3b3b3"/></radialGradient><linearGradient id="ab" x1="332.91" y1="193.76" x2="337.94" y2="192.42" gradientTransform="translate(-187.17 -56.07) rotate(12.57)" gradientUnits="userSpaceOnUse"><stop offset=".02" stop-color="#999"/><stop offset=".04" stop-color="#a1a2a1"/><stop offset=".12" stop-color="#bebebd"/><stop offset=".22" stop-color="#d5d6d5"/><stop offset=".33" stop-color="#e7e8e7"/><stop offset=".46" stop-color="#f4f5f3"/><stop offset=".63" stop-color="#fbfcfa"/><stop offset=".99" stop-color="#fefffd"/></linearGradient><linearGradient id="ac" x1="353.91" y1="188.65" x2="358.94" y2="187.31" xlink:href="#ab"/><linearGradient id="ad" x1="316.92" y1="124.4" x2="325.22" y2="122.13" xlink:href="#x"/><linearGradient id="ae" x1="330.34" y1="123.73" x2="334.77" y2="122.52" xlink:href="#x"/><linearGradient id="af" x1="320.43" y1="134.99" x2="326.96" y2="134.99" xlink:href="#x"/></defs><g style="isolation:isolate;"><path d="m218,202.44h-76.73l-7.59-13.96-10.94.34-13.14-54.9c-.91-3.81,1.98-7.47,5.9-7.47h71.24c2.31,0,4.43,1.32,5.45,3.4l31.27,63.87c1.97,4.03-.96,8.73-5.45,8.73Z" style="fill:#efefef;"/><path d="m122.74,188.83l18.53,13.62-4.87-14.09c-.54-1.57-2.2-2.46-3.81-2.05l-9.85,2.53Z" style="fill:#efefef;"/></g><g><rect x="55.59" y="155.67" width="24.15" height="9.73" style="fill:#e84343;"/><rect x="44.97" y="141.41" width="24.15" height="9.73" style="fill:#f781c4;"/><polygon points="44.97 141.41 45.13 141.62 55.59 155.67 79.75 155.67 69.13 141.41 44.97 141.41" style="fill:#f66;"/><polygon points="44.97 151.14 44.97 141.41 55.59 155.67 55.59 165.4 44.97 151.14" style="fill:#d33333;"/></g><g><path d="m250.18,179.97h-88.69l98.93,63.26-10.25-63.26Zm-51.35,11.57l35.22-.87,2.17,24.71-37.39-23.84Z" style="fill:#ffc700;"/><path d="m250.18,175.35h-88.69l98.93,63.26-10.25-63.26Zm-51.35,11.57l37.68.38,3.1,25.62-40.78-26Z" style="fill:#ffe092;"/><polygon points="161.49 175.35 161.49 179.97 171.75 181.91 161.49 175.35" style="fill:#f9be06;"/><polygon points="257.26 219.05 248.96 219.05 248.37 216.45 256.84 216.45 257.26 219.05" style="fill:#1d1d1b; isolation:isolate; opacity:.3;"/><polygon points="256.09 211.87 247.8 211.87 247.2 209.28 255.67 209.28 256.09 211.87" style="fill:#1d1d1b; isolation:isolate; opacity:.3;"/><polygon points="254.7 203.62 246.41 203.62 245.81 201.03 254.28 201.03 254.7 203.62" style="fill:#1d1d1b; isolation:isolate; opacity:.3;"/><polygon points="253.22 193.9 244.93 193.9 244.33 191.31 252.8 191.31 253.22 193.9" style="fill:#1d1d1b; isolation:isolate; opacity:.3;"/><polygon points="251.65 184.53 243.35 184.53 242.75 181.94 251.23 181.94 251.65 184.53" style="fill:#1d1d1b; isolation:isolate; opacity:.3;"/></g><g><g><g style="isolation:isolate;"><g><polygon points="210.02 158.64 148.41 122.86 165.99 104.14 227.63 139.93 210.02 158.64" style="fill:#9f9ef2;"/><path d="m155.98,118.73l8.43-8.97c1.21-1.29,3.16-1.58,4.69-.69l50.06,29.07c2.12,1.23,2.54,4.12.86,5.91l-8.43,8.97c-1.21,1.29-3.16,1.58-4.69.69l-50.06-29.07c-2.12-1.23-2.54-4.12-.86-5.91Z" style="fill:#393a8f;"/><path d="m208.82,154.23c-1.15,0,2.66,2.01-51.52-29.46-1.63-.95-1.94-3.15-.66-4.52l8.43-8.97c.55-.58,1.32-.92,2.13-.92,1.15,0-2.66-2.01,51.52,29.46,1.62.94,1.94,3.15.66,4.52l-8.43,8.97c-.55.58-1.32.92-2.13.92Z" style="fill:#efefef; isolation:isolate;"/></g><polygon points="146.86 195.11 85.25 159.33 148.41 122.86 210.02 158.64 146.86 195.11" style="fill:#9f9ef2;"/><polygon points="146.86 203.91 85.25 168.13 85.25 159.33 146.86 195.11 146.86 203.91" style="fill:#5254cf;"/><polygon points="227.63 139.93 227.63 157.27 146.86 203.91 146.86 195.11 210.02 158.64 227.63 139.93" style="fill:#393a8f;"/></g><g><g style="isolation:isolate;"><g><path d="m156.4,131.44v2.93c0,.58-.38,1.15-1.14,1.58l-4.85,2.83c-1.52.88-3.98.88-5.51,0l-4.88-2.83c-.77-.44-1.16-1.02-1.16-1.61v-2.93c0,.58.39,1.17,1.16,1.61l4.89,2.82c1.53.89,3.99.89,5.51,0l4.85-2.82c.75-.44,1.13-1.01,1.13-1.58Z" style="fill:#5254cf;"/><path d="m142.74,139.33v2.93c0,.58-.38,1.15-1.14,1.58l-4.85,2.83c-1.52.88-3.98.88-5.51,0l-4.88-2.83c-.77-.44-1.15-1.02-1.15-1.61v-2.93c0,.58.39,1.17,1.15,1.61l4.89,2.82c1.53.89,3.99.89,5.51,0l4.85-2.82c.76-.44,1.13-1.01,1.13-1.58Z" style="fill:#5254cf;"/><path d="m129.16,147.17v2.93c0,.58-.38,1.15-1.14,1.58l-4.85,2.83c-1.52.88-3.98.88-5.51,0l-4.88-2.83c-.77-.44-1.15-1.02-1.15-1.61v-2.93c0,.58.39,1.17,1.15,1.61l4.89,2.82c1.53.89,3.99.89,5.51,0l4.85-2.82c.76-.44,1.13-1.01,1.13-1.58Z" style="fill:#5254cf;"/><path d="m115.71,154.93v2.93c0,.58-.38,1.15-1.14,1.58l-4.85,2.83c-1.52.88-3.98.88-5.51,0l-4.88-2.83c-.77-.44-1.15-1.02-1.15-1.61v-2.93c0,.58.39,1.17,1.15,1.61l4.89,2.82c1.53.89,3.99.89,5.51,0l4.85-2.82c.76-.44,1.13-1.01,1.13-1.58Z" style="fill:#5254cf;"/></g><g><path d="m155.27,133.02l-4.85,2.82c-1.52.89-3.98.89-5.51,0l-4.89-2.82c-1.5-.86-1.58-2.28-.02-3.19l4.85-2.82c1.52-.88,3.98-.87,5.51,0l4.89,2.82c1.48.85,1.57,2.28.02,3.18Z" style="fill:#d0d0fc;"/><path d="m141.61,140.91l-4.85,2.82c-1.52.89-3.98.89-5.51,0l-4.89-2.82c-1.49-.86-1.58-2.28-.02-3.19l4.85-2.82c1.52-.88,3.98-.87,5.51,0l4.89,2.82c1.49.86,1.57,2.28.02,3.18Z" style="fill:#d0d0fc;"/><path d="m128.03,148.75l-4.85,2.82c-1.52.89-3.98.89-5.51,0l-4.89-2.82c-1.49-.86-1.58-2.28-.02-3.19l4.85-2.82c1.52-.88,3.98-.87,5.51,0l4.89,2.82c1.49.86,1.57,2.28.02,3.18Z" style="fill:#d0d0fc;"/><path d="m114.58,156.52l-4.85,2.82c-1.52.89-3.98.89-5.51,0l-4.89-2.82c-1.49-.86-1.58-2.28-.02-3.19l4.85-2.82c1.52-.88,3.98-.87,5.51,0l4.89,2.82c1.48.85,1.57,2.28.02,3.18Z" style="fill:#d0d0fc;"/></g></g><g style="isolation:isolate;"><g><path d="m170.87,139.79v2.93c0,.58-.38,1.15-1.14,1.58l-4.85,2.83c-1.52.88-3.98.88-5.51,0l-4.88-2.83c-.77-.44-1.16-1.02-1.16-1.61v-2.93c0,.58.39,1.17,1.16,1.61l4.89,2.82c1.53.89,3.99.89,5.51,0l4.85-2.82c.76-.44,1.13-1.01,1.13-1.58Z" style="fill:#5254cf;"/><path d="m157.2,147.68v2.93c0,.58-.38,1.15-1.14,1.58l-4.85,2.83c-1.52.88-3.98.88-5.51,0l-4.88-2.83c-.77-.44-1.15-1.02-1.15-1.61v-2.93c0,.58.39,1.17,1.15,1.61l4.89,2.82c1.53.89,3.99.89,5.51,0l4.85-2.82c.76-.44,1.13-1.01,1.13-1.58Z" style="fill:#5254cf;"/><path d="m143.62,155.52v2.93c0,.58-.38,1.15-1.14,1.58l-4.85,2.83c-1.52.88-3.98.88-5.51,0l-4.88-2.83c-.77-.44-1.15-1.02-1.15-1.61v-2.93c0,.58.39,1.17,1.15,1.61l4.89,2.82c1.53.89,3.99.89,5.51,0l4.85-2.82c.76-.44,1.13-1.01,1.13-1.58Z" style="fill:#5254cf;"/><path d="m130.18,163.29v2.93c0,.58-.38,1.15-1.14,1.58l-4.85,2.83c-1.52.88-3.98.88-5.51,0l-4.88-2.83c-.77-.44-1.15-1.02-1.15-1.61v-2.93c0,.58.39,1.17,1.15,1.61l4.89,2.82c1.53.89,3.99.89,5.51,0l4.85-2.82c.76-.44,1.13-1.01,1.13-1.58Z" style="fill:#ffc700;"/></g><g><path d="m169.74,141.38l-4.85,2.82c-1.52.89-3.98.89-5.51,0l-4.89-2.82c-1.5-.86-1.58-2.28-.02-3.19l4.85-2.82c1.52-.88,3.98-.87,5.51,0l4.89,2.82c1.49.86,1.57,2.28.02,3.18Z" style="fill:#d0d0fc;"/><path d="m156.07,149.27l-4.85,2.82c-1.52.89-3.98.89-5.51,0l-4.89-2.82c-1.49-.86-1.58-2.28-.02-3.19l4.85-2.82c1.52-.88,3.98-.87,5.51,0l4.89,2.82c1.48.86,1.57,2.28.02,3.18Z" style="fill:#d0d0fc;"/><path d="m142.49,157.11l-4.85,2.82c-1.52.89-3.98.89-5.51,0l-4.89-2.82c-1.5-.86-1.58-2.28-.02-3.19l4.85-2.82c1.52-.88,3.98-.87,5.51,0l4.89,2.82c1.48.86,1.57,2.28.02,3.18Z" style="fill:#d0d0fc;"/><path d="m129.05,164.87l-4.85,2.82c-1.52.89-3.98.89-5.51,0l-4.89-2.82c-1.5-.86-1.58-2.28-.02-3.19l4.85-2.82c1.52-.88,3.98-.87,5.51,0l4.89,2.82c1.48.86,1.57,2.28.02,3.18Z" style="fill:#ffe092;"/></g></g></g><g><g style="isolation:isolate;"><g><path d="m185.57,148.28v2.93c0,.58-.38,1.15-1.14,1.58l-4.85,2.83c-1.52.88-3.98.88-5.51,0l-4.88-2.83c-.77-.44-1.15-1.02-1.15-1.61v-2.93c0,.58.39,1.17,1.15,1.61l4.89,2.82c1.53.89,3.99.89,5.51,0l4.85-2.82c.76-.44,1.13-1.01,1.13-1.58Z" style="fill:#5254cf;"/><path d="m171.91,156.17v2.93c0,.58-.38,1.15-1.14,1.58l-4.85,2.83c-1.52.88-3.98.88-5.51,0l-4.88-2.83c-.77-.44-1.16-1.02-1.16-1.61v-2.93c0,.58.39,1.17,1.16,1.61l4.89,2.82c1.53.89,3.99.89,5.51,0l4.85-2.82c.76-.44,1.13-1.01,1.13-1.58Z" style="fill:#5254cf;"/><path d="m158.33,164.01v2.93c0,.58-.38,1.15-1.14,1.58l-4.85,2.83c-1.52.88-3.98.88-5.51,0l-4.88-2.83c-.77-.44-1.16-1.03-1.16-1.61v-2.93c0,.58.39,1.17,1.16,1.61l4.89,2.82c1.53.89,3.99.89,5.51,0l4.85-2.82c.76-.44,1.13-1.01,1.13-1.58Z" style="fill:#5254cf;"/><path d="m144.88,171.78v2.93c0,.58-.38,1.15-1.14,1.58l-4.85,2.83c-1.52.88-3.98.88-5.51,0l-4.88-2.83c-.77-.44-1.16-1.02-1.16-1.61v-2.93c0,.58.39,1.17,1.16,1.61l4.89,2.82c1.53.89,3.99.89,5.51,0l4.85-2.82c.76-.44,1.13-1.01,1.13-1.58Z" style="fill:#e84343;"/></g><g><path d="m184.44,149.87l-4.85,2.82c-1.52.89-3.98.89-5.51,0l-4.89-2.82c-1.49-.86-1.58-2.28-.02-3.19l4.85-2.82c1.52-.88,3.98-.87,5.51,0l4.89,2.82c1.48.86,1.56,2.28.02,3.18Z" style="fill:#d0d0fc;"/><path d="m170.78,157.76l-4.85,2.82c-1.52.89-3.98.89-5.51,0l-4.89-2.82c-1.5-.86-1.58-2.28-.02-3.19l4.85-2.82c1.52-.88,3.98-.87,5.51,0l4.89,2.82c1.48.86,1.57,2.28.02,3.18Z" style="fill:#d0d0fc;"/><path d="m157.2,165.6l-4.85,2.82c-1.52.89-3.98.89-5.51,0l-4.89-2.82c-1.5-.86-1.58-2.28-.02-3.19l4.85-2.82c1.52-.88,3.98-.87,5.51,0l4.89,2.82c1.49.86,1.56,2.28.02,3.18Z" style="fill:#d0d0fc;"/><path d="m143.75,173.36l-4.85,2.82c-1.52.89-3.98.89-5.51,0l-4.89-2.82c-1.5-.86-1.58-2.28-.02-3.19l4.85-2.82c1.52-.88,3.98-.87,5.51,0l4.89,2.82c1.48.86,1.57,2.28.02,3.18Z" style="fill:#f66;"/></g></g><g style="isolation:isolate;"><g><path d="m200.04,156.64v2.93c0,.58-.38,1.15-1.14,1.58l-4.85,2.83c-1.52.88-3.98.88-5.51,0l-4.88-2.83c-.77-.44-1.15-1.02-1.15-1.61v-2.93c0,.58.39,1.17,1.15,1.61l4.89,2.82c1.53.89,3.99.89,5.51,0l4.85-2.82c.76-.44,1.13-1.01,1.13-1.58Z" style="fill:#393a8f;"/><path d="m186.37,164.53v2.93c0,.58-.38,1.15-1.14,1.58l-4.85,2.83c-1.52.88-3.98.88-5.51,0l-4.88-2.83c-.77-.44-1.16-1.02-1.16-1.61v-2.93c0,.58.39,1.17,1.16,1.61l4.89,2.82c1.53.89,3.99.89,5.51,0l4.85-2.82c.76-.44,1.13-1.01,1.13-1.58Z" style="fill:#393a8f;"/><path d="m172.79,172.37v2.93c0,.58-.38,1.15-1.14,1.58l-4.85,2.83c-1.52.88-3.98.88-5.51,0l-4.88-2.83c-.77-.44-1.16-1.03-1.16-1.61v-2.93c0,.58.39,1.17,1.16,1.61l4.89,2.82c1.53.89,3.99.89,5.51,0l4.85-2.82c.76-.44,1.13-1.01,1.13-1.58Z" style="fill:#393a8f;"/><path d="m159.35,180.13v2.93c0,.58-.38,1.15-1.14,1.58l-4.85,2.83c-1.52.88-3.98.88-5.51,0l-4.88-2.83c-.77-.44-1.16-1.02-1.16-1.61v-2.93c0,.58.39,1.17,1.16,1.61l4.89,2.82c1.53.89,3.99.89,5.51,0l4.85-2.82c.76-.44,1.13-1.01,1.13-1.58Z" style="fill:#393a8f;"/></g><g><path d="m198.91,158.22l-4.85,2.82c-1.52.89-3.98.89-5.51,0l-4.89-2.82c-1.5-.86-1.58-2.28-.02-3.19l4.85-2.82c1.52-.88,3.98-.87,5.51,0l4.89,2.82c1.48.86,1.56,2.28.02,3.18Z" style="fill:#d0d0fc;"/><path d="m185.25,166.11l-4.85,2.82c-1.52.89-3.98.89-5.51,0l-4.89-2.82c-1.5-.86-1.58-2.28-.02-3.19l4.85-2.82c1.52-.88,3.98-.87,5.51,0l4.89,2.82c1.48.85,1.57,2.28.02,3.18Z" style="fill:#fff;"/><path d="m171.67,173.95l-4.85,2.82c-1.52.89-3.98.89-5.51,0l-4.89-2.82c-1.5-.86-1.58-2.28-.02-3.19l4.85-2.82c1.52-.88,3.98-.87,5.51,0l4.89,2.82c1.48.85,1.57,2.28.02,3.18Z" style="fill:#fff;"/><path d="m158.22,181.71l-4.85,2.82c-1.52.89-3.98.89-5.51,0l-4.89-2.82c-1.5-.86-1.58-2.28-.02-3.19l4.85-2.82c1.52-.88,3.98-.87,5.51,0l4.89,2.82c1.49.86,1.56,2.28.02,3.18Z" style="fill:#fff;"/></g></g></g></g><path d="m85.25,159.33c68.68,39.35,62,35.42,61.39,35.42l63.26-36.32c-.06.04,17.73-18.5,17.73-18.5l-17.45,18.91-63.33,36.77-61.6-36.27Z" style="fill:#9f9ef2;"/></g><g><path d="m90.75,82.9c1.52-.59,2.67-.83,3.45-.73.78.1,1.43.47,1.93,1.1.5.64.98,1.53,1.43,2.7.45,1.16.69,2.15.73,2.94.03.8-.18,1.43-.63,1.9-.64.76-1.7,1.43-3.18,2l-21.68,8.41c-1.33.52-2.67.46-4.02-.16s-2.28-1.6-2.8-2.93c-.77-2-.79-4.1-.06-6.33.73-2.22,1.85-4.31,3.34-6.27,1.49-1.96,2.99-3.91,4.5-5.83,1.51-1.93,2.67-3.9,3.48-5.91.81-2.02.9-3.86.25-5.52-.13-.33-.44-.75-.94-1.26-.5-.51-.98-.9-1.44-1.16-.47-.27-1.09-.44-1.89-.51-.79-.07-1.78.12-2.97.58-1.18.46-2.04,1.29-2.57,2.5-.53,1.21-.69,2.26-.47,3.15l.27,1.36.13.33c.32.81.52,1.43.63,1.86.1.43.11.96.01,1.59-.21,1.1-1.48,2.1-3.81,3.01-2.59,1-4.4.9-5.42-.32-.41-.52-.87-1.43-1.37-2.72-1.49-3.84-1.45-7.83.12-11.95,1.57-4.12,4.58-7.04,9.04-8.77s8.67-1.58,12.64.43c3.97,2.01,6.72,5,8.26,8.95.82,2.11,1.13,4.28.94,6.53-.19,2.24-.71,4.19-1.56,5.84-1.79,3.5-3.59,6.09-5.41,7.77l-1.17,1.09.11.28,10.15-3.94Z" style="fill:#e84343;"/><path d="m87.72,83.34c1.52-.59,2.67-.83,3.45-.73.78.1,1.43.47,1.93,1.1.5.64.98,1.53,1.43,2.7.45,1.16.69,2.15.73,2.94.03.8-.18,1.43-.63,1.9-.64.76-1.7,1.43-3.18,2l-21.68,8.41c-1.33.52-2.67.46-4.02-.16s-2.28-1.6-2.8-2.93c-.77-2-.79-4.1-.06-6.33.73-2.22,1.85-4.31,3.34-6.27,1.49-1.96,2.99-3.91,4.5-5.83,1.51-1.93,2.67-3.9,3.48-5.91.81-2.02.9-3.86.25-5.52-.13-.33-.44-.75-.94-1.26-.5-.51-.98-.9-1.44-1.16-.47-.27-1.09-.44-1.89-.51-.79-.07-1.78.12-2.97.58-1.18.46-2.04,1.29-2.57,2.5-.53,1.21-.69,2.26-.47,3.15l.27,1.36.13.33c.32.81.52,1.43.63,1.86.1.43.11.96.01,1.59-.21,1.1-1.48,2.1-3.81,3.01-2.59,1-4.4.9-5.42-.32-.41-.52-.87-1.43-1.37-2.72-1.49-3.84-1.45-7.83.12-11.95,1.57-4.12,4.58-7.04,9.04-8.77s8.67-1.58,12.64.43c3.97,2.01,6.72,5,8.26,8.95.82,2.11,1.13,4.28.94,6.53-.19,2.24-.71,4.19-1.56,5.84-1.79,3.5-3.59,6.09-5.41,7.77l-1.17,1.09.11.28,10.15-3.94Z" style="fill:#fc7464;"/></g><g><path d="m252.73,108.16c-1.07,3.86-3.36,6.7-6.85,8.53-3.49,1.83-7.21,2.2-11.14,1.1-4.97-1.38-8.27-4.02-9.9-7.91-1.63-3.89-1.75-8.36-.35-13.4,2.03-7.3,5.8-12.81,11.3-16.55,5.5-3.74,11.85-4.61,19.03-2.61,1.45.4,2.46.88,3.03,1.43.57.55.86,1.22.89,2.01s-.11,1.74-.42,2.85-.65,1.96-1.02,2.56c-.37.6-.74,1.03-1.1,1.3-.36.27-.82.41-1.35.42-.71.05-1.85-.14-3.42-.58-1.57-.44-3.16-.59-4.78-.47-1.62.13-2.96.45-4.01.99-2.12,1.1-3.54,2.22-4.27,3.38l-.51.72c1.59-.26,3.1-.19,4.51.2,3.78,1.05,6.67,3.2,8.67,6.45,2,3.25,2.56,6.44,1.69,9.58Zm-15.61.17c2.94.82,4.77-.05,5.48-2.61.24-.88.14-1.79-.32-2.74-.46-.95-1.42-1.63-2.89-2.04s-2.7-.37-3.68.12c-.98.49-1.57,1.1-1.77,1.82-.2.73-.31,1.29-.32,1.7-.01.41.05.88.19,1.41.29,1.03,1.39,1.81,3.3,2.34Z" style="fill:#d19c5e;"/><path d="m249.79,106.21c-1.07,3.86-3.36,6.7-6.85,8.53-3.49,1.83-7.21,2.2-11.14,1.1-4.97-1.38-8.27-4.02-9.9-7.91-1.63-3.89-1.75-8.36-.35-13.4,2.03-7.3,5.8-12.81,11.3-16.55,5.5-3.74,11.85-4.61,19.03-2.61,1.45.4,2.46.88,3.03,1.43.57.55.86,1.22.89,2.01s-.11,1.74-.42,2.85-.65,1.96-1.02,2.56c-.37.6-.74,1.03-1.1,1.3-.36.27-.82.41-1.35.42-.71.05-1.85-.14-3.42-.58-1.57-.44-3.16-.59-4.78-.47-1.62.13-2.96.45-4.01.99-2.12,1.1-3.54,2.22-4.27,3.38l-.51.72c1.59-.26,3.1-.19,4.51.2,3.78,1.05,6.67,3.2,8.67,6.45,2,3.25,2.56,6.44,1.69,9.58Zm-15.61.17c2.94.82,4.77-.05,5.48-2.61.24-.88.14-1.79-.32-2.74-.46-.95-1.42-1.63-2.89-2.04s-2.7-.37-3.68.12c-.98.49-1.57,1.1-1.77,1.82-.2.73-.31,1.29-.32,1.7-.01.41.05.88.19,1.41.29,1.03,1.39,1.81,3.3,2.34Z" style="fill:#ffc700;"/></g><g><path d="m249.11,216.69c2.78,0,4.4.75,4.88,2.26.24.64.36,1.74.36,3.33s-.52,3.56-1.55,5.92c-1.03,2.36-2.27,4.69-3.72,6.99-1.45,2.3-2.91,4.62-4.37,6.96-3.49,5.67-5.23,10.23-5.23,13.68,0,.87-.04,1.52-.12,1.93-.08.42-.28.85-.59,1.31-.32.46-.84.76-1.58.92-.73.16-1.74.24-3,.24s-2.27-.08-3-.24c-.73-.16-1.26-.48-1.58-.95-.32-.48-.51-.92-.57-1.34-.06-.42-.09-1.08-.09-1.99,0-2.58.44-5.22,1.31-7.94.87-2.72,1.92-5.14,3.15-7.29,1.23-2.14,2.46-4.11,3.69-5.92,1.23-1.8,2.28-3.35,3.15-4.64.87-1.29,1.31-2.19,1.31-2.71h-13.56c-1.59,0-2.74-.2-3.45-.59-.71-.4-1.19-.97-1.43-1.72-.24-.75-.36-1.74-.36-2.97s.12-2.22.36-2.97c.24-.75.61-1.27,1.13-1.55.83-.48,1.98-.71,3.45-.71h21.41Z" style="fill:#5254cf;"/><path d="m247.37,213.98c2.78,0,4.4.75,4.88,2.26.24.64.36,1.74.36,3.33s-.52,3.56-1.55,5.92c-1.03,2.36-2.27,4.69-3.72,6.99-1.45,2.3-2.91,4.62-4.37,6.96-3.49,5.67-5.23,10.23-5.23,13.68,0,.87-.04,1.52-.12,1.93-.08.42-.28.85-.59,1.31-.32.46-.84.76-1.58.92-.73.16-1.74.24-3,.24s-2.27-.08-3-.24c-.73-.16-1.26-.48-1.58-.95-.32-.48-.51-.92-.57-1.34-.06-.42-.09-1.08-.09-1.99,0-2.58.44-5.22,1.31-7.94.87-2.72,1.92-5.14,3.15-7.29,1.23-2.14,2.46-4.11,3.69-5.92,1.23-1.8,2.28-3.35,3.15-4.64.87-1.29,1.31-2.19,1.31-2.71h-13.56c-1.59,0-2.74-.2-3.45-.59-.71-.4-1.19-.97-1.43-1.72-.24-.75-.36-1.74-.36-2.97s.12-2.22.36-2.97c.24-.75.61-1.27,1.13-1.55.83-.48,1.98-.71,3.45-.71h21.41Z" style="fill:#9f9ef2;"/></g><g><path d="m44.07,225.9c.62-1.87,1.77-3.64,3.44-5.3,1.67-1.66,3.81-2.89,6.42-3.7,2.61-.81,5.05-1,7.32-.58,2.27.42,4.19,1.22,5.78,2.39,1.59,1.17,3.04,2.67,4.35,4.51,2.19,3.06,3.88,6.5,5.06,10.33,2.12,6.86,2.32,12.75.61,17.68-.63,1.85-1.77,3.58-3.42,5.16-1.65,1.59-3.76,2.78-6.34,3.57-2.58.8-5.01,1-7.31.61-2.3-.39-4.24-1.15-5.81-2.28-1.57-1.13-3.04-2.61-4.39-4.44-2.1-2.92-3.8-6.44-5.07-10.57-1.17-3.79-1.73-7.17-1.67-10.13.06-2.96.4-5.38,1.03-7.26Zm19.99,23.99c3.9-1.21,4.71-5.52,2.41-12.95l-.11-.34c-2.35-7.62-5.46-10.83-9.33-9.63-3.87,1.19-4.62,5.61-2.26,13.24,2.36,7.64,5.45,10.86,9.28,9.68Z" style="fill:#a37c58;"/><path d="m40.61,225.9c.62-1.87,1.77-3.64,3.44-5.3,1.67-1.66,3.81-2.89,6.42-3.7,2.61-.81,5.05-1,7.32-.58,2.27.42,4.19,1.22,5.78,2.39,1.59,1.17,3.04,2.67,4.35,4.51,2.19,3.06,3.88,6.5,5.06,10.33,2.12,6.86,2.32,12.75.61,17.68-.63,1.85-1.77,3.58-3.42,5.16-1.65,1.59-3.76,2.78-6.34,3.57-2.58.8-5.01,1-7.31.61-2.3-.39-4.24-1.15-5.81-2.28-1.57-1.13-3.04-2.61-4.39-4.44-2.1-2.92-3.8-6.44-5.07-10.57-1.17-3.79-1.73-7.17-1.67-10.13.06-2.96.4-5.38,1.03-7.26Zm19.99,23.99c3.9-1.21,4.71-5.52,2.41-12.95l-.11-.34c-2.35-7.62-5.46-10.83-9.33-9.63-3.87,1.19-4.62,5.61-2.26,13.24,2.36,7.64,5.45,10.86,9.28,9.68Z" style="fill:#d19c5e;"/></g><g id="b"><g id="c"><path id="d" d="m179.06,64.8c-.59.34-1.1.63-1.61.93l-4.65-2.68c.51-.29,1.02-.59,1.61-.93l4.65,2.68Z" style="fill:#eaac88;"/><path id="e" d="m177.45,65.73c-.14.73-.23,1.4-.4,2.09-.58,2.4-1.75,4.44-3.63,5.93-1.86,1.49-3.62,1.91-4.83,1.21l-4.65-2.68c1.2.69,2.96.27,4.83-1.21,1.88-1.5,3.05-3.53,3.63-5.93.17-.69.26-1.36.4-2.09l4.65,2.68Z" style="fill:#feb30f;"/></g><path id="f" d="m163.25,46.39c0,5.25-4.71,35.35,1.56,38.97l-4.65-2.68c-.68-.39-1.25-1.03-1.68-1.92-3.68-7.68.11-33.61.11-37.06l4.65,2.68Z" style="fill:#fcd96e;"/><path id="g" d="m147.44,55.51c-.09,1.5-1.04,15.41-1.55,21.03-.42,4.56-1.71,9.27-4.1,14.09-1.27,2.56-3.67,8.27-1.2,9.69l-4.65-2.68c-1.89-1.09-.84-4.54-.14-6.6,1.08-3.17,4.63-8.25,5.44-17.18.51-5.62,1.46-19.53,1.55-21.03l4.65,2.68Z" style="fill:#fcd96e;"/><path id="h" d="m179.01,29.5c-37.78,21.81-26.95,15.54-32.19,18.72-6.91,4.19-10.18,13.67-11.82,21.74.04.07-4.61-2.61-4.61-2.61,1.6-8.11,4.88-17.62,11.78-21.81,5.24-3.18-5.59,3.1,32.19-18.72l4.65,2.68Z" style="fill:#fceab2;"/><path id="i" d="m179.01,29.5v7.73c-3.52,2.03-7.02,4.05-10.61,6.13-.23,2.06-1.46,18.88-1.71,25.23-.07,1.69.19,3.29.63,4.63.93,2.89,3.7,2.46,6.12.54,1.88-1.5,3.05-3.53,3.63-5.93.17-.69.26-1.36.4-2.09.51-.29,1.02-.59,1.61-.93-.47,4.13-1.03,8.22-3.13,12.59-1.29,2.68-2.94,5.06-5.09,6.71-2.29,1.77-4.45,2.16-6.02,1.26-6.27-3.62-1.56-34.28-1.56-38.97-3.57,2.06-7.09,4.09-10.7,6.17-.96,14.43-1.42,26.8-4.09,38.68-.8,3.54-3.07,9.16-6.72,9.33-1.83.09-2.43-1.58-2.19-3.44.28-2.21,1.27-4.59,2.22-6.5,2.39-4.81,3.68-9.53,4.1-14.09.51-5.62,1.46-19.53,1.55-21.03-4.57,2.47-7.09,4.52-10.15,12.07-.58,1.43-1.21,2.19-2.25,2.44,1.6-8.11,4.88-17.62,11.78-21.81,5.24-3.18-5.59,3.1,32.19-18.72Z" style="fill:#ffc700;"/></g><g><g id="j"><g id="k"><path id="l" d="m117.27,219.34c-.93.54-1.59,2.05-1.59,4.94,0,4.63,1.61,7.36,3.7,8.57.94.54,1.77.69,2.43.31l2.99-1.73c-.66.38-1.49.23-2.43-.31-2.08-1.2-3.7-3.94-3.7-8.57,0-2.88.66-4.4,1.59-4.94l-2.99,1.73Z" style="fill:#e84343;"/><path id="m" d="m124.68,237.89c4.53-2.62,3.76-17.55-5.1-22.67-2.05-1.18-3.9-1.35-5.3-.54l2.99-1.73c1.41-.81,3.25-.64,5.3.54,4.53,2.62,7.81,8.72,7.81,15.33,0,3.84-1,6.34-2.71,7.33l-2.99,1.73Z" style="fill:#ff8980;"/></g><path id="n" d="m115.68,224.27c0,4.63,1.61,7.36,3.7,8.57,2.24,1.29,3.91.33,3.91-4.66,0-4.57-1.82-7.55-3.75-8.66-1.93-1.11-3.85-.18-3.85,4.75Zm-4.17-2.4c0-14.88,15.88-6.01,15.88,8.69,0,6.91-3.23,9.5-8.07,6.7-4.69-2.71-7.81-8.78-7.81-15.39Z" style="fill:#f66;"/></g><g id="o"><g id="p"><path id="q" d="m141.74,254.15c-.93.54-1.59,2.05-1.59,4.94,0,4.63,1.61,7.36,3.7,8.57.94.54,1.77.69,2.43.31l2.99-1.73c-.66.38-1.49.23-2.43-.31-2.08-1.2-3.7-3.94-3.7-8.57,0-2.88.66-4.4,1.59-4.94l-2.99,1.73Z" style="fill:#e84343;"/><path id="r" d="m149.15,272.7c4.53-2.62,3.76-17.55-5.1-22.67-2.05-1.18-3.9-1.35-5.3-.54l2.99-1.73c1.41-.81,3.25-.64,5.3.54,4.53,2.62,7.81,8.72,7.81,15.33,0,3.84-1,6.34-2.71,7.34l-2.99,1.73Z" style="fill:#ff8980;"/></g><path id="s" d="m140.15,259.08c0,4.63,1.61,7.36,3.7,8.57,2.24,1.29,3.91.33,3.91-4.66,0-4.57-1.82-7.54-3.75-8.66-1.93-1.11-3.85-.18-3.85,4.75Zm-4.16-2.4c0-14.88,15.88-6.01,15.88,8.69,0,6.91-3.23,9.5-8.07,6.7-4.69-2.71-7.81-8.78-7.81-15.39Z" style="fill:#f66;"/></g><g id="t"><polygon id="u" points="122.81 260.14 144.78 230.02 147.78 228.29 125.8 258.41 122.81 260.14" style="fill:#e84343;"/><polygon id="v" points="144.78 230.02 139.37 226.89 142.36 225.16 147.78 228.29 144.78 230.02" style="fill:#ff8980;"/><polygon id="w" points="122.81 260.14 117.4 257.01 139.37 226.89 144.78 230.02 122.81 260.14" style="fill:#f66;"/></g></g><g><g><path d="m97.64,201.19l-3.63-.11c-.93,0-1.67-.82-1.58-1.79l5.96-71.35,4.27.39-5.01,72.86Z" style="fill:#394547;"/><path d="m115.2,200.92l3.28-.03c1,0,1.78-.91,1.68-1.95l-6.95-71.11-4.26.45,6.25,72.63Z" style="fill:#394547;"/><polygon points="121.15 198.27 119.83 200.17 118.99 199.67 120.58 196.81 121.15 198.27" style="fill:#333;"/><path d="m114.86,118.17c.04,5.33-4.08,9.68-9.19,9.71-5.11.04-9.29-4.25-9.33-9.57-.04-5.33,4.08-9.68,9.19-9.72,5.11-.04,9.29,4.25,9.33,9.57Z" style="fill:#394547;"/><path d="m108.52,119.62l-5.64.04-.17-23.52c-.01-1.62,1.41-2.86,2.96-2.87h0c1.56-.01,2.68,2.83,2.69,4.45l.15,21.9Z" style="fill:#394547;"/><path d="m109.52,118.21c.02,2.25-1.73,4.09-3.89,4.11-2.16.02-3.93-1.8-3.95-4.05-.02-2.25,1.73-4.09,3.89-4.11,2.16-.02,3.93,1.8,3.95,4.05Z" style="fill:#333;"/></g><g><path d="m97.76,199.29l-2.53.02c-.93,0-1.67-.82-1.58-1.79l5.96-71.35,4.27.39-6.11,72.73Z" style="fill:#6a6a6a;"/><path d="m116.42,199.15l3.28-.03c1,0,1.78-.91,1.68-1.95l-6.95-71.11-4.26.45,6.25,72.63Z" style="fill:#6a6a6a;"/><polygon points="109.95 147.21 110.57 147.15 111.8 145.38 116.28 144.9 116.37 145.88 116.91 144.84 111.17 145.44 109.95 147.21" style="fill:url(#x);"/><polygon points="102.88 145.51 97.14 144.99 99.18 120.33 104.93 120.84 102.88 145.51" style="fill:url(#y);"/><polygon points="111.17 145.44 116.91 144.84 114.51 120.21 108.78 120.81 111.17 145.44" style="fill:url(#z);"/><path d="m116.09,116.4c.04,5.33-4.08,9.68-9.19,9.72-5.11.04-9.29-4.25-9.33-9.57-.04-5.33,4.08-9.68,9.19-9.71s9.29,4.25,9.33,9.57Z" style="fill:#6a6a6a;"/><path d="m109.75,117.85l-5.64.04-.15-21.9c-.01-1.62,1.24-2.95,2.8-2.96h0c1.56-.01,2.83,1.29,2.84,2.92l.15,21.9Z" style="fill:#6a6a6a;"/><path d="m110.74,116.44c.02,2.25-1.73,4.09-3.89,4.11-2.16.02-3.93-1.8-3.95-4.05-.02-2.25,1.73-4.09,3.89-4.11,2.16-.02,3.93,1.8,3.95,4.05Z" style="fill:url(#aa);"/><path d="m97.24,200.32l-.73,10.73-1.28-10.67c-.08-.63,2.05-.67,2.01-.06Z" style="fill:url(#ab);"/><path d="m118.85,199.91l-.73,10.73-1.28-10.67c-.08-.63,2.05-.67,2.01-.06Z" style="fill:url(#ac);"/></g><polygon points="99.03 121.67 97.84 123.51 95.91 146.76 97.4 145.01 99.03 121.67" style="fill:url(#ad);"/><polygon points="109.27 125.86 108.02 127.44 109.95 147.21 111.17 145.44 109.27 125.86" style="fill:url(#ae);"/><polygon points="95.91 146.76 97.4 145.01 102.88 145.51 102.32 145.74 97.92 145.41 96.8 146.84 95.91 146.76" style="fill:url(#af);"/></g></svg>