<?xml version="1.0" encoding="UTF-8"?><svg id="a" xmlns="http://www.w3.org/2000/svg" viewBox="0 0 300 300"><g><circle cx="159.94" cy="100.28" r="59.13" style="fill:#efefef; isolation:isolate;"/><g><g><path d="m173.46,89.44c-6.29-7.84-16.64-6.27-27.61-4.61-11.97,1.82-24.36,3.7-32.56-6.54l4.16-3.33c6.29,7.84,16.64,6.27,27.61,4.61,11.97-1.82,24.36-3.7,32.56,6.54l-4.16,3.33Z" style="fill:#f66;"/><path d="m140.65,80.22l-1.84,5.61c2.34-.27,4.7-.63,7.04-.98,1.95-.3,3.89-.59,5.78-.83l1.68-5.55c-2.74.28-5.51.69-8.26,1.11-1.48.22-2.95.45-4.4.64Z" style="fill:#e84343;"/></g><g><rect x="114.65" y="66.33" width="37.75" height="2" transform="translate(-12.76 98.37) rotate(-38.74)" style="fill:#d19c5e;"/><rect x="119.9" y="70.66" width="34.2" height="2" transform="translate(-14.71 101.49) rotate(-38.74)" style="fill:#d19c5e;"/><rect x="126.7" y="75" width="27.53" height="2" transform="translate(-16.65 104.62) rotate(-38.74)" style="fill:#d19c5e;"/></g><g><path d="m206.6,122.26l-4.16,3.33c-6.29-7.84-16.64-6.27-27.61-4.61-11.98,1.82-24.36,3.69-32.57-6.54-8.21-10.24-3.68-21.91.69-33.21,4.01-10.34,7.79-20.11,1.5-27.95l4.16-3.33c8.21,10.24,3.68,21.91-.69,33.21-4.01,10.34-7.79,20.11-1.5,27.95,6.29,7.84,16.64,6.27,27.61,4.61,11.98-1.82,24.36-3.69,32.57,6.54Z" style="fill:#ffc700;"/><path d="m182.58,119.94l1.74-5.51c-3.39.24-6.85.77-10.28,1.29-1.52.23-3.03.46-4.52.66l-2.23,5.65c2.51-.27,5.04-.66,7.55-1.04,2.63-.4,5.23-.79,7.74-1.05Z" style="fill:#56a3f1;"/></g><g><rect x="167.97" y="132.83" width="37.75" height="2" transform="translate(-42.64 146.37) rotate(-38.74)" style="fill:#d19c5e;"/><rect x="166.28" y="128.5" width="34.2" height="2" transform="translate(-40.7 143.24) rotate(-38.74)" style="fill:#fff;"/><rect x="166.14" y="124.17" width="27.54" height="2" transform="translate(-38.75 140.11) rotate(-38.74)" style="fill:#fff;"/></g><g><rect x="142.9" y="101.57" width="37.75" height="2" transform="translate(-28.59 123.8) rotate(-38.74)" style="fill:#d19c5e;"/><rect x="148.16" y="105.91" width="34.2" height="2" transform="translate(-30.54 126.93) rotate(-38.74)" style="fill:#d19c5e;"/><rect x="154.97" y="110.25" width="27.54" height="2" transform="translate(-32.5 130.07) rotate(-38.74)" style="fill:#d19c5e;"/><rect x="139.42" y="97.22" width="37.75" height="2" transform="translate(-26.64 120.66) rotate(-38.74)" style="fill:#d19c5e;"/><rect x="137.72" y="92.88" width="34.2" height="2" transform="translate(-24.69 117.53) rotate(-38.74)" style="fill:#d19c5e;"/><rect x="137.56" y="88.54" width="27.54" height="2" transform="translate(-22.74 114.4) rotate(-38.74)" style="fill:#d19c5e;"/></g><path d="m177.61,86.11c8.21,10.24,3.68,21.91-.69,33.21-4.01,10.34-7.79,20.11-1.5,27.95l-4.16,3.33c-8.21-10.24-3.68-21.91.69-33.21,4.01-10.34,7.79-20.11,1.5-27.95l4.16-3.33Z" style="fill:#ddeafb;"/></g></g><g><g><rect x="163.26" y="227.71" width="27.26" height="21.4" style="fill:#d0d0fc;"/><path d="m146.22,256.9v-6.82c0-2.43,1.97-4.4,4.4-4.4h52.54c2.43,0,4.4,1.97,4.4,4.4v6.82h-61.34Z" style="fill:#5254cf;"/><path d="m125.09,269.97v-8.45c0-3.01,2.44-5.45,5.45-5.45h92.7c3.01,0,5.45,2.44,5.45,5.45v8.45h-103.6Z" style="fill:#393a8f;"/></g><g><path d="m218.31,80.53l-11.46,18.56c17.61,10.88,28.12,29.71,28.12,50.38,0,32.62-26.54,59.16-59.16,59.16h-62.81v6.93c0,2.47,2,4.47,4.47,4.47h18.63c12.08,6.81,25.76,10.4,39.71,10.4,44.65,0,80.97-36.32,80.97-80.97,0-28.28-14.38-54.05-38.47-68.93Z" style="fill:#d0d0fc;"/><path d="m208.05,199.04c-9.28,6.06-20.36,9.59-32.25,9.59h-62.81v6.93c0,2.47,2,4.47,4.47,4.47h18.63c12.08,6.81,25.76,10.4,39.71,10.4,37.99,0,69.96-26.31,78.64-61.66-16.13,20.55-35.49,27.76-46.39,30.26Z" style="fill:#9f9ef2;"/></g><g><rect x="209.93" y="27.91" width="15.27" height="20.43" transform="translate(93.26 220.7) rotate(-65.69)" style="fill:#9f9ef2;"/><rect x="216.84" y="38.6" width="15.27" height="5.28" transform="translate(94.48 228.84) rotate(-65.69)" style="fill:#5254cf;"/><rect x="141.28" y="71.66" width="106.33" height="35.3" transform="translate(33.01 229.74) rotate(-65.69)" style="fill:#5254cf;"/><rect x="150.91" y="86.57" width="106.33" height="14.17" transform="translate(34.71 241.07) rotate(-65.69)" style="fill:#393a8f;"/><g><rect x="147.08" y="153.34" width="15.27" height="8.36" transform="translate(-52.53 233.67) rotate(-65.69)" style="fill:#9f9ef2;"/><rect x="161.89" y="160.03" width="15.27" height="8.36" transform="translate(-49.91 251.1) rotate(-65.69)" style="fill:#9f9ef2;"/><rect x="164.39" y="163.89" width="15.27" height="2.88" transform="translate(-49.47 254.04) rotate(-65.69)" style="fill:#d0d0fc;"/><rect x="149.68" y="157.37" width="15.27" height="2.65" transform="translate(-52.07 236.74) rotate(-65.69)" style="fill:#d0d0fc;"/></g><rect x="159.12" y="133.18" width="15.06" height="35.3" transform="translate(-39.41 240.61) rotate(-65.69)" style="fill:#5254cf;"/><rect x="168.68" y="148" width="15.06" height="14.31" transform="translate(-37.73 251.86) rotate(-65.69)" style="fill:#393a8f;"/><rect x="163.86" y="114.77" width="15.81" height="49.46" transform="translate(-26.07 238.61) rotate(-65.69)" style="fill:#9f9ef2;"/><rect x="163.86" y="136.16" width="15.81" height="6.68" transform="translate(-26.07 238.61) rotate(-65.69)" style="fill:#d0d0fc;"/><rect x="156.18" y="133.45" width="15.81" height="5.16" transform="translate(-27.43 229.56) rotate(-65.69)" style="fill:#d0d0fc;"/></g><g><circle cx="214.24" cy="93.3" r="19.9" transform="translate(90.34 291.42) rotate(-81.51)" style="fill:#393a8f;"/><path d="m226.47,93.3c0,6.75-5.47,12.23-12.23,12.23s-12.23-5.47-12.23-12.23,5.47-12.23,12.23-12.23,12.23,5.47,12.23,12.23Z" style="fill:#9f9ef2;"/><path d="m224.78,93.3c0,5.82-4.72,10.53-10.53,10.53s-10.53-4.72-10.53-10.53,4.72-10.53,10.53-10.53,10.53,4.72,10.53,10.53Z" style="fill:#d0d0fc;"/></g><g><rect x="108.97" y="198.04" width="102.79" height="10.58" rx="3.18" ry="3.18" style="fill:#5254cf;"/><path d="m108.97,203.33v2.11c0,1.75,1.42,3.18,3.18,3.18h96.44c1.75,0,3.18-1.42,3.18-3.18v-2.11h-102.79Z" style="fill:#393a8f;"/></g></g><g><circle cx="254.44" cy="136.03" r="23.72" style="fill:#ffc700;"/><g><path d="m256.84,136.03c0,1.32-1.07,2.4-2.4,2.4s-2.4-1.07-2.4-2.4,1.07-2.4,2.4-2.4,2.4,1.07,2.4,2.4Z" style="fill:#2f52ac;"/><g><path d="m254.44,141.08c-7.68,0-15.84-1.77-15.84-5.06s8.16-5.06,15.84-5.06,15.84,1.77,15.84,5.06-8.16,5.06-15.84,5.06Zm0-9.12c-8.75,0-14.84,2.14-14.84,4.06s6.09,4.06,14.84,4.06,14.84-2.14,14.84-4.06-6.09-4.06-14.84-4.06Z" style="fill:#fff;"/><path d="m244.97,147.85c-.73,0-1.31-.21-1.72-.62-1.05-1.05-.77-3.14.81-6.05,1.46-2.7,3.88-5.8,6.81-8.73,5.43-5.43,12.46-9.95,14.78-7.62h0c2.32,2.32-2.19,9.35-7.62,14.78-2.93,2.93-6.03,5.35-8.73,6.81-1.76.95-3.22,1.43-4.33,1.43Zm18.94-22.65c-2.27,0-7.18,2.8-12.34,7.96-2.86,2.86-5.22,5.88-6.64,8.5-1.29,2.38-1.65,4.19-.98,4.86s2.49.3,4.86-.98c2.62-1.42,5.63-3.77,8.5-6.64,6.18-6.18,8.98-12,7.62-13.36-.23-.23-.57-.34-1.03-.34Z" style="fill:#fff;"/><path d="m263.92,147.85c-1.11,0-2.57-.48-4.33-1.43-2.7-1.46-5.8-3.88-8.73-6.81-5.43-5.43-9.94-12.45-7.62-14.78,2.32-2.33,9.35,2.19,14.78,7.62,5.43,5.43,9.94,12.45,7.62,14.78h0c-.41.42-.99.62-1.72.62Zm-18.94-22.65c-.45,0-.8.11-1.03.34-1.36,1.36,1.44,7.18,7.62,13.36,2.86,2.86,5.88,5.22,8.5,6.64,2.38,1.29,4.2,1.65,4.87.98h0c1.36-1.36-1.44-7.18-7.62-13.36-5.16-5.16-10.06-7.96-12.34-7.96Z" style="fill:#fff;"/><path d="m254.44,151.86c-3.29,0-5.06-8.16-5.06-15.84s1.77-15.84,5.06-15.84,5.06,8.16,5.06,15.84-1.77,15.84-5.06,15.84Zm0-30.68c-1.92,0-4.06,6.09-4.06,14.84s2.14,14.84,4.06,14.84,4.06-6.09,4.06-14.84-2.14-14.84-4.06-14.84Z" style="fill:#fff;"/></g></g></g><g><g><path d="m67.65,81.82s-7.99,12.75-.42,12.75.42-12.75.42-12.75Z" style="fill:#f66;"/><g><path d="m103.11,37.35s-28.94,29.47-31.47,32.06c-2.53,2.58-2.25,3.65-2.37,5.14-.12,1.48-1.92,3.59-1.92,3.59l1.22,1.2,1.22,1.2s2.07-1.84,3.55-1.99,2.56.11,5.09-2.47c2.53-2.58,31.47-32.05,31.47-32.05l-6.79-6.67Z" style="fill:#d0d0fc;"/><path d="m103.64,36.27l5.37-5.47c1.86-1.9,4.91-1.93,6.81-.06l.46.45c1.9,1.86,1.93,4.91.06,6.81l-5.37,5.47-7.33-7.2Z" style="fill:#393a8f;"/><path d="m83.98,58.94c-5.25,5.35-10.84,11.04-11.72,11.94-1.73,1.76-1.54,2.5-1.62,3.51-.08,1.01-1.31,2.45-1.31,2.45l.83.82.83.82s1.42-1.26,2.43-1.36c1.01-.1,1.75.08,3.48-1.69,1.15-1.17,10.21-10.4,16.19-16.49h-9.11Z" style="fill:#f66;"/><path d="m112.07,45.75c-.55.56-1.46.57-2.02.02l-8.69-8.53c-.56-.55-.57-1.46-.02-2.02h0c.55-.56,1.46-.57,2.02-.02l8.69,8.53c.56.55.57,1.46.02,2.02h0Z" style="fill:#5254cf;"/></g></g><g><path d="m39.32,205.69v62.11c0,2.19,13.51,5.24,30.18,5.24s30.18-3.05,30.18-5.24v-62.11h-60.36Z" style="fill:#ffe092;"/><path d="m42.49,227.29v37.51c0,1.96,12.09,4.69,27.01,4.69s27.01-2.73,27.01-4.69v-37.51h-54.01Z" style="fill:#ffc700;"/><g><path d="m55.72,237.56c0,2.04-1.65,3.69-3.69,3.69s-3.69-1.65-3.69-3.69,1.65-3.69,3.69-3.69,3.69,1.65,3.69,3.69Z" style="fill:#fff;"/><path d="m57.74,249.85c0,1.12-.91,2.03-2.03,2.03s-2.03-.91-2.03-2.03.91-2.03,2.03-2.03,2.03.91,2.03,2.03Z" style="fill:#fff;"/><circle cx="72.99" cy="237.56" r="1.27" style="fill:#fff;"/><circle cx="80.19" cy="244.76" r="5.08" style="fill:#fff;"/><path d="m91.74,234.6c0,.94-.76,1.69-1.69,1.69s-1.69-.76-1.69-1.69.76-1.69,1.69-1.69,1.69.76,1.69,1.69Z" style="fill:#fff;"/><path d="m92.16,253.13c0,1.17-.95,2.12-2.12,2.12s-2.12-.95-2.12-2.12.95-2.12,2.12-2.12,2.12.95,2.12,2.12Z" style="fill:#fff;"/><path d="m50.66,259.48c0,1.29-1.04,2.33-2.33,2.33s-2.33-1.04-2.33-2.33,1.04-2.33,2.33-2.33,2.33,1.04,2.33,2.33Z" style="fill:#fff;"/></g><path d="m48.33,258.37c0,1.09-.88,1.97-1.97,1.97h0c-1.09,0-1.97-.88-1.97-1.97v-43.09c0-1.09.88-1.97,1.97-1.97h0c1.09,0,1.97.88,1.97,1.97v43.09Z" style="fill:#fff; opacity:.48;"/><g><g><path d="m66.42,199.76s5.4-8.13,10.34-18.68c4.95-10.55,21.76-25.72,40.55-23.63,0,0-.8,9.28-9.34,21.06-9.67,13.34-28.44,15.5-41.56,21.25Z" style="fill:#ffc700;"/><g><path d="m66.69,200.01l-.55-.51c19.57-20.89,43.94-38.23,44.18-38.41l.43.61c-.24.17-24.55,17.48-44.07,38.31Z" style="fill:#1d1d1b; isolation:isolate; opacity:.3;"/><path d="m100.7,169.17l-.74-.1c.81-6.09,2.04-10.09,2.06-10.13l.72.22s-1.23,3.99-2.03,10.01Z" style="fill:#1d1d1b; isolation:isolate; opacity:.3;"/><path d="m104.03,173.57c-4.67,0-7.9-.75-7.95-.76l.17-.73c.07.02,7.19,1.66,15.53,0l.15.74c-2.85.57-5.56.76-7.91.76Z" style="fill:#1d1d1b; isolation:isolate; opacity:.3;"/><path d="m90.21,177.7l-.75-.02c.22-7.19,1.75-13.03,1.77-13.09l.72.19c-.02.06-1.53,5.82-1.75,12.92Z" style="fill:#1d1d1b; isolation:isolate; opacity:.3;"/><path d="m90.56,183.42c-3.83,0-6.67-.16-6.73-.16l.04-.75c.13,0,13.32.73,21.13-.97l.16.73c-4.27.93-10.11,1.14-14.6,1.14Z" style="fill:#1d1d1b; isolation:isolate; opacity:.3;"/><path d="m79.16,187.51l-.75-.04c.27-5.64,1.97-12.73,1.98-12.8l.73.18c-.02.07-1.7,7.09-1.96,12.66Z" style="fill:#1d1d1b; isolation:isolate; opacity:.3;"/><path d="m74.39,192.04v-.75c.11,0,11.43-.12,17.97-1.33l.14.74c-6.6,1.22-17.99,1.35-18.11,1.35Z" style="fill:#1d1d1b; isolation:isolate; opacity:.3;"/></g></g><g><path d="m68.12,189.17s-.86-20-13.94-29.93c-13.08-9.93-27.6-10.67-32.34-14.37,0,0-.44,16.15,6.37,23.86,6.82,7.71,28.55,9.93,39.91,20.45Z" style="fill:#ffc700;"/><g><path d="m67.78,189.31c-10.4-24.19-38.47-34.59-38.76-34.7l.26-.71c.29.1,28.66,10.62,39.19,35.1l-.69.3Z" style="fill:#1d1d1b; isolation:isolate; opacity:.3;"/><path d="m42.2,162.18c-8.81,0-18.46-2.01-18.56-2.03l.15-.73c.11.02,10.74,2.24,19.8,2l.02.75c-.47.01-.94.02-1.42.02Z" style="fill:#1d1d1b; isolation:isolate; opacity:.3;"/><path d="m46,163.75c-1.64-5.97-7.31-12.34-7.36-12.4l.56-.5c.24.26,5.83,6.56,7.53,12.7l-.72.2Z" style="fill:#1d1d1b; isolation:isolate; opacity:.3;"/><path d="m32.93,172.59l-.17-.73c.62-.14,15.16-3.43,23.07-.78l-.24.71c-7.71-2.58-22.52.77-22.67.8Z" style="fill:#1d1d1b; isolation:isolate; opacity:.3;"/><path d="m57.3,173.47c-.67-6.51-6.44-16.09-6.49-16.19l.64-.39c.24.4,5.92,9.82,6.6,16.5l-.75.08Z" style="fill:#1d1d1b; isolation:isolate; opacity:.3;"/><path d="m62.36,179.63c-5.14-1.74-14.78-1.01-14.87-1l-.06-.75c.4-.03,9.89-.75,15.17,1.04l-.24.71Z" style="fill:#1d1d1b; isolation:isolate; opacity:.3;"/><path d="m63.48,181.3c-.39-6.02-3.29-15.13-3.32-15.22l.71-.23c.03.09,2.96,9.28,3.36,15.4l-.75.05Z" style="fill:#1d1d1b; isolation:isolate; opacity:.3;"/></g></g><g><path d="m69.09,168.9s2.33-24.51-2.75-38.5-17.58-25.13-24.36-26.44c0,0-8.26,11.18-1.69,25.58,6.57,14.4,24.36,20.47,28.81,39.36Z" style="fill:#ffc700;"/><g><path d="m68.72,168.94c-3.34-31.33-21.85-55.15-22.04-55.38l.59-.46c.19.24,18.84,24.22,22.2,55.77l-.75.08Z" style="fill:#1d1d1b; isolation:isolate; opacity:.3;"/><path d="m56.34,129.15c-7.64-8.18-18.55-10.45-18.66-10.47l.15-.74c.11.02,11.25,2.33,19.06,10.69l-.55.51Z" style="fill:#1d1d1b; isolation:isolate; opacity:.3;"/><path d="m58.8,132.62l-.73-.17c1.81-7.92-.37-16.23-.39-16.31l.72-.2c.02.08,2.26,8.57.4,16.68Z" style="fill:#1d1d1b; isolation:isolate; opacity:.3;"/><path d="m61.87,141.28c-7.05-5.3-19.73-7.85-19.86-7.88l.14-.74c.13.03,12.98,2.61,20.16,8.01l-.45.6Z" style="fill:#1d1d1b; isolation:isolate; opacity:.3;"/><path d="m64.74,147.45l-.71-.23c1.82-5.71,2.46-15.17,2.47-15.27l.75.05c0,.1-.65,9.64-2.5,15.45Z" style="fill:#1d1d1b; isolation:isolate; opacity:.3;"/><path d="m66.44,155.81c-2.26-3.36-11.73-8.53-11.82-8.58l.36-.66c.4.21,9.72,5.3,12.09,8.82l-.62.42Z" style="fill:#0b2a6b;"/></g><path d="m49.3,136.15c-4.47-2.2-7.85-6.06-10.09-9.31.3.89.66,1.79,1.08,2.7,6.57,14.4,24.36,20.47,28.81,39.36-.21-14.86-5.72-25.84-19.79-32.75Z" style="fill:#ffe092;"/></g><path d="m69.5,162.24s-1.99,6.59-1.75,17.04c.24,10.45-1.17,17.35-1.85,22.28s1.06,27.41,1.22,33.6c.16,6.2,1.19,14.48.24,15.86-.95,1.38-3.42,5.51-6.67,7.17s-7.62,4.85-7.62,4.85c0,0,4.61-2.7,6.59-3.1s4.37-1.91,5.72-3.49,3.1-4.05,3.57-4.21-.56,4.74.56,7.25c1.11,2.52,2.62,4.28,2.86,6.06,0,0,.16-1.87-.64-4.02s-1.43-4.13-1.51-5.72,0-4.92.64-3.93c.64.99,4.05,7.58,6.67,8.46s5.4.34,8.98,1.48c0,0-1.67-1.43-3.73-2.33-2.07-.9-4.61.29-5.8-1.3s-4.69-6.04-5.24-7.55-1.91-1.83-2.22-5.24-.95-20.65-1.43-24.54-.79-17.87-.48-20.17,1.99-12.23,1.91-16.44-1.35-11.99,0-22Z" style="fill:#a37c58;"/><g><path d="m68.12,171.53s2.12-17.32,2.12-28.59,4.66-44.95,29.44-41.35c0,0-3.39,3.18-4.45,21.39-1.06,18.22-11.44,39.29-27.11,48.55Z" style="fill:#ffc700;"/><g><path d="m68.48,171.65l-.71-.24c.02-.07,2.38-7.34,6.98-33.34,2.42-13.69,7.28-22.25,10.93-27.03,3.97-5.2,7.33-7.12,7.47-7.2l.37.65c-.13.08-13.46,7.87-18.03,33.71-4.61,26.08-6.98,33.37-7,33.44Z" style="fill:#1d1d1b; isolation:isolate; opacity:.3;"/><path d="m79.82,121.14c-.63-7.39,2.33-14.54,2.36-14.61l.69.29c-.03.07-2.92,7.06-2.3,14.26l-.75.06Z" style="fill:#1d1d1b; isolation:isolate; opacity:.3;"/><path d="m77.15,129.94l-.1-.74c.09-.01,9.07-1.31,18.16-9.84l.51.55c-9.28,8.7-18.48,10.02-18.57,10.03Z" style="fill:#1d1d1b; isolation:isolate; opacity:.3;"/><path d="m74.55,141.96l-.11-.74c.09-.01,9.54-1.41,18.58-6.2l.35.66c-9.17,4.85-18.73,6.26-18.83,6.28Z" style="fill:#1d1d1b; isolation:isolate; opacity:.3;"/><path d="m75.7,134.02c-2.33-3.01-3.05-9.65-3.08-9.93l.75-.08c0,.07.73,6.71,2.93,9.55l-.59.46Z" style="fill:#1d1d1b; isolation:isolate; opacity:.3;"/><path d="m71.85,153.97c-1.71-3.43-1.86-14.01-1.87-14.46h.75c0,.1.15,10.85,1.79,14.12l-.67.34Z" style="fill:#1d1d1b; isolation:isolate; opacity:.3;"/><path d="m71.52,157.71l-.1-.74c7.41-.99,15.31-6.37,15.39-6.43l.42.62c-.08.06-8.13,5.54-15.72,6.55Z" style="fill:#1d1d1b; isolation:isolate; opacity:.3;"/></g></g></g><rect x="34.97" y="195.18" width="69.05" height="14.53" rx="3.18" ry="3.18" style="fill:#d19c5e;"/></g></g></svg>