<?xml version="1.0" encoding="UTF-8"?><svg id="a" xmlns="http://www.w3.org/2000/svg" viewBox="0 0 300 300"><g><g><g id="b"><path id="c" d="M41.88,243.69c0,3.44,2.27,6.88,6.82,9.51,9.09,5.25,23.83,5.25,32.92,0,4.54-2.62,6.82-6.06,6.82-9.5v4.17c0,3.44-2.27,6.88-6.82,9.5-9.09,5.25-23.83,5.25-32.92,0-4.55-2.63-6.82-6.07-6.82-9.51v-4.17Z" style="fill:#393a8f;"/><path id="d" d="M41.88,243.69c0-3.44,2.27-6.88,6.82-9.5,9.09-5.25,23.83-5.25,32.92,0,4.55,2.63,6.82,6.07,6.82,9.51s-2.27,6.88-6.82,9.5c-9.09,5.25-23.83,5.25-32.92,0-4.55-2.63-6.82-6.07-6.82-9.51Z" style="fill:#5254cf;"/></g><path d="M60.12,209.07s3.03,1.07,3.48,2.97c.45,1.91,.52,16.16,.65,16.89s-11.83,9.99-11.83,9.99l15.69,4.38,10.66-4.44-12.23-9.85v-17.58l2.99-2.36h-9.41Z" style="fill:#feb30f;"/><g><path d="M70.33,211.56c-.43,.14-1.18,.38-2.1,.57,2.45,.99,5.58,2.81,6.05,3.11,.87,.57,1.8,1.4,2.15,1.72,.48,.42,1.05,1.06,1.47,1.54,.48,.55,1.44,1.73,2.39,3.56,.97,1.86,1.44,3.72,1.44,3.72,.31,1.3,.38,1.57,.5,2.49,.15,1.19,.14,2.07,.14,2.55v11.77c0,2.61-1.78,5.21-5.25,7.16-.39,.22-.8,.43-1.22,.62-6.87,3.2-16.96,2.88-23.23-.87-3.28-1.96-4.88-4.49-4.88-7v-11.78c.02-.68,.07-1.6,.15-2.27,.04-.34,.18-1.38,.48-2.49,.17-.63,.68-2.53,1.89-4.64,1.17-2.01,3.3-4.83,6.88-6.84,.58-.31,3.18-1.54,5.07-2.32-.48-.09-.79-.17-.79-.17-.79-.21-2.63-.69-4.61-1.9-1.04-.64-4.21-2.57-6.62-6.9-2.26-4.08-2.29-7.94-2.31-9.21v-13.74c0,2.52,1.65,5.05,4.92,6.99,5.52,3.3,14.01,3.94,20.65,1.85,1.36-.42,2.64-.96,3.8-1.61,3.48-1.95,5.21-4.55,5.22-7.16v13.75c-.02,.69-.09,1.63-.17,2.32-.07,.6-.21,1.41-.36,2-.37,1.45-.76,2.82-1.83,4.8-1.41,2.6-3.7,5.06-6.13,6.58-1.67,1.04-2.94,1.55-3.7,1.8Z" style="fill:#d0d0fc;"/><path d="M65.13,210.63c-.31,0-.73,0-1.28-.06-1.05-.11-1.84-.31-1.93-.33-.7-.19-2.37-.63-4.13-1.7-.94-.57-3.8-2.32-5.98-6.23-2.05-3.68-2.08-7.2-2.1-8.36v-6.75c.65,.56,1.39,1.08,2.21,1.57,3.57,2.14,8.33,3.31,13.38,3.31,4.81,0,9.38-1.08,12.87-3.04,.95-.53,1.79-1.12,2.54-1.75v6.77c-.03,.87-.08,1.61-.14,2.11-.07,.6-.2,1.31-.31,1.77-.35,1.38-.7,2.58-1.68,4.39-1.27,2.34-3.32,4.56-5.5,5.91-1.51,.94-2.63,1.4-3.3,1.61-.69,.22-2.32,.74-4.08,.77-.19,0-.38,0-.57,0Z" style="fill:#121e51; opacity:.5;"/><path d="M65.13,250.74c-4.35,0-8.56-1.02-11.54-2.8-2.6-1.55-4.01-3.49-4-5.46v-11.78c.02-.54,.07-1.44,.14-2.05,.11-.83,.25-1.59,.43-2.25,.15-.57,.62-2.3,1.72-4.21,1.05-1.82,2.98-4.37,6.2-6.18,.95-.5,4.52-2.13,5.91-2.61,.73,.38,1.64,.77,2.06,.77h.75l.49-.5c1.97,.77,5.05,2.44,6,3.06,.76,.49,1.61,1.26,1.94,1.55,.48,.43,1.12,1.15,1.33,1.39,.43,.48,1.27,1.54,2.13,3.2,.87,1.66,1.29,3.32,1.29,3.32,.31,1.27,.35,1.47,.46,2.29,.14,1.07,.13,1.85,.13,2.31v11.77c0,2.02-1.6,4.06-4.34,5.6-2.97,1.66-6.91,2.58-11.11,2.58Z" style="fill:#5254cf; opacity:.2;"/><g id="e"><path id="f" d="M78.03,202.32c0,1.89-1.25,3.78-3.75,5.23-5,2.89-9.67,6.04-18.11,0-2.35-1.68-3.75-3.34-3.75-5.23s1.25-3.78,3.75-5.23c5-2.89,13.11-2.89,18.11,0,2.5,1.44,3.75,3.34,3.75,5.23Z" style="fill:#fcd561;"/><path id="g" d="M76.98,202.32c0,3.79-5.33,6.87-11.9,6.87s-11.9-3.07-11.9-6.87,5.33-6.87,11.9-6.87,11.9,3.07,11.9,6.87Z" style="fill:#feb30f;"/></g><path id="h" d="M81.14,241.62c0,2.36-1.56,4.72-4.68,6.52-6.24,3.6-16.36,3.6-22.6,0-3.12-1.8-4.68-4.16-4.68-6.53s1.56-4.72,4.68-6.52c6.24-3.6,16.36-3.6,22.6,0,3.12,1.8,4.68,4.16,4.68,6.53Z" style="fill:#fcd561;"/><path d="M52.42,238.93s-2.42,4.75,1.17,6.4c3.59,1.65,4.49,.67,6.28-3.71,1.8-4.37,4.95-9.28,3.73-9.18-1.22,.1-4.63,4.81-6.72,5.25s-4.46,1.23-4.46,1.23Z" style="fill:#fceab2;"/><path d="M59.45,219.46s-4.99,1.31-5.59,5.64c-.27,1.93-1.01,4.18,.71,4.63,1.72,.45,1.19,0,1.57-2.88,.6-4.58,3.31-7.39,3.31-7.39Z" style="fill:#fefefe;"/></g><path d="M70.33,211.56c-.43,.14-1.18,.38-2.1,.57,2.45,.99,5.58,2.81,6.05,3.11,.87,.57,1.8,1.4,2.15,1.72,.48,.42,1.05,1.06,1.47,1.54,.48,.55,1.44,1.73,2.39,3.56,.97,1.86,1.44,3.72,1.44,3.72,.31,1.3,.38,1.57,.5,2.49,.15,1.19,.14,2.07,.14,2.55v11.77c0,2.61-1.78,5.21-5.25,7.16-.39,.22-.8,.43-1.22,.62,.12-4.72,.14-13.12-.69-20.48-1.25-10.96-8.41-15.7-8.41-15.7,0,0-.27-2.74,1.9-3.18,2.17-.44,6.06-6.74,6.21-12.54,.09-3.34-.72-6.93-1.42-9.38,1.36-.42,2.64-.96,3.8-1.61,3.48-1.95,5.21-4.55,5.22-7.16v13.75c-.02,.69-.09,1.63-.17,2.32-.07,.6-.21,1.41-.36,2-.37,1.45-.76,2.82-1.83,4.8-1.41,2.6-3.7,5.06-6.13,6.58-1.67,1.04-2.94,1.55-3.7,1.8Z" style="fill:#393a8f; opacity:.1;"/></g><g id="i"><path id="j" d="M42.64,178.12c0,3.44,2.27,6.88,6.82,9.51,9.09,5.25,23.83,5.25,32.92,0,4.54-2.62,6.82-6.06,6.82-9.5v4.17c0,3.44-2.27,6.88-6.82,9.5-9.09,5.25-23.83,5.25-32.92,0-4.55-2.63-6.82-6.07-6.82-9.51v-4.17Z" style="fill:#393a8f;"/><path id="k" d="M42.64,178.12c0-3.44,2.27-6.88,6.82-9.5,9.09-5.25,23.83-5.25,32.92,0,4.55,2.63,6.82,6.07,6.82,9.51s-2.27,6.88-6.82,9.5c-9.09,5.25-23.83,5.25-32.92,0-4.55-2.63-6.82-6.07-6.82-9.51Z" style="fill:#5254cf;"/></g></g><g><g><path d="M179.11,218.22c-.13-1.19-1.79-2.18-4.57-2.93,3.02-1.25,4.71-2.59,4.57-3.88-.38-3.59-14.79-5.43-32.18-4.1-17.39,1.33-31.18,5.32-30.79,8.91,.13,1.19,1.79,2.18,4.58,2.93-3.02,1.25-4.71,2.59-4.58,3.88,.14,1.27,2.04,2.32,5.2,3.09-3.41,1.32-5.35,2.75-5.2,4.13,.12,1.14,1.67,2.11,4.27,2.85-2.83,1.21-4.41,2.51-4.27,3.75,.19,1.82,3.99,3.19,9.94,3.92v4.02c0,6.59,6.36,11.97,14.12,11.97h14.84c7.77,0,14.12-5.39,14.12-11.97v-7.11c6.29-1.68,10.15-3.72,9.94-5.64-.12-1.14-1.67-2.11-4.27-2.85,2.83-1.21,4.41-2.51,4.27-3.75-.14-1.27-2.04-2.32-5.2-3.09,3.41-1.32,5.35-2.75,5.2-4.13Z" style="fill:#9f9ef2;"/><path d="M134.9,220.95c-8.18,0-13.7-.54-13.82-.55-.4-.04-.69-.35-.64-.69,.05-.34,.42-.58,.81-.54,.29,.03,28.72,2.82,52.49-4.46,.38-.12,.8,.05,.94,.37,.14,.32-.06,.68-.44,.79-13.62,4.17-28.72,5.08-39.34,5.08Z" style="fill:#5254cf;"/><path d="M135.39,227.97c-8.18,0-13.7-.54-13.82-.55-.4-.04-.69-.35-.64-.69,.05-.34,.42-.58,.81-.54,.29,.03,28.72,2.82,52.49-4.46,.38-.12,.8,.05,.94,.37,.14,.32-.06,.68-.44,.79-13.62,4.17-28.72,5.08-39.34,5.08Z" style="fill:#5254cf;"/><path d="M134.9,234.78c-8.18,0-13.7-.54-13.82-.55-.4-.04-.69-.35-.64-.69,.05-.34,.42-.58,.81-.54,.29,.03,28.72,2.82,52.49-4.46,.38-.12,.8,.05,.94,.37,.14,.32-.06,.68-.44,.79-13.62,4.17-28.72,5.08-39.34,5.08Z" style="fill:#5254cf;"/><path d="M135.39,241.38c-8.18,0-13.7-.54-13.82-.55-.4-.04-.69-.35-.64-.69,.05-.34,.42-.58,.81-.54,.29,.03,28.72,2.82,52.49-4.46,.38-.12,.8,.05,.94,.37,.14,.32-.06,.68-.44,.79-13.62,4.17-28.72,5.08-39.34,5.08Z" style="fill:#5254cf;"/></g><path d="M214.67,117.31c0-37.58-30.46-68.04-68.04-68.04s-68.04,30.46-68.04,68.04c0,20.93,9.46,39.66,24.33,52.14l18.59,35.16c3.07,5.8,9.09,9.43,15.66,9.43h17.97c6.48,0,12.44-3.53,15.54-9.22l19.07-34.88c15.21-12.48,24.92-31.42,24.92-52.63Z" style="fill:#ffe092;"/><path d="M136.94,205.89s-23.94-80.81-18.95-85.8c4.99-4.99,6.98,1,6.98,1l11.97,84.8Z" style="fill:#ffc700;"/><path d="M145.94,205.38s22.93-80.3,27.92-85.29c4.99-4.99,8.98-5.99,7.98,0-1,5.99-35.9,85.29-35.9,85.29Z" style="fill:#ffc700;"/><polygon points="116.44 117.44 130.4 96.49 140.38 118.44 158.34 96.49 166.32 106.46 176.29 91.5 167.76 119.1 158.89 105.13 140.49 127.52 129.63 108.9 116.44 117.44" style="fill:#fff;"/></g><g><g><g><path d="M95.62,100.37c-.13,.38-.26,.75-.39,1.13,1.16-3.28,2.2-6.7,3.08-10.17-.58,2.31-1.23,4.58-1.94,6.79,5.59-3.82,12.92-9.81,15.89-15.92,3.86-7.97-2.11-11.56-10.9-11.82,0-.19,.02-.58,.02-1.63,14.8,.33,18.01,9.36,7.04,21.14-3.64,3.91-8.27,7.51-12.78,10.48Z" style="fill:#e84343;"/><path d="M106.32,122.66c-2.03,1.78-5.3,1.57-7.07-.63-.09-.1-.17-.2-.24-.31-1.51-2.13-1.06-5.1,.94-6.73,.19-.15,.4-.3,.62-.43,.1,.17,.53,1.06,.91,1.98,.13,.32,.25,.63,.35,.93,0,0,1.13,.81,1.6-.54-.33-.99-.82-2.07-1.27-2.98,1.2-.23,2.41,0,3.42,.59,.62,.35,1.18,.85,1.6,1.48,1.47,2.12,1.06,4.98-.86,6.62Z" style="fill:#5254cf;"/><path d="M104.98,121.52c-1.59,1.39-3.94,1.56-5.73,.52-.09-.1-.17-.2-.24-.31-1.51-2.13-1.06-5.1,.94-6.73,.19,.44,.38,.93,.53,1.36,0,0,.51,.36,.99,.2,.13,.32,.25,.63,.35,.93,0,0,1.13,.81,1.6-.54-.33-.99-.82-2.07-1.27-2.98,1.2-.23,2.41,0,3.42,.59,.1,.11,.18,.23,.26,.34,1.47,2.12,1.05,4.97-.86,6.61Z" style="fill:#9f9ef2;"/><path d="M101.82,117.49c-1.81-5.26-7.05-12.24-10.53-16.54-6.86-8.46-15.55-17.18-23.74-23.96-3.53-2.92-7.73-6.15-11.64-8.58-2.37-1.47-8.25-4.95-10.87-4.03-.9,.32-.97,1.3-.86,2.25,.51,4.63,6.23,12.28,6.36,12.59,.11,.22,.03,.52-.14,.74-.3,.37-.84,.5-1.16,.27-.15,0-4.89-6.77-6.28-11.33-.43-1.4-.78-3.1-.22-4.46,2.03-4.9,11.55,.81,15.98,3.76,9.78,6.5,23.8,19.13,34.26,32.13,3.51,4.36,8.64,11.33,10.45,16.61-.47,1.34-1.6,.54-1.6,.54Z" style="fill:#fcd561;"/><path d="M99.78,70.37v-1.62c0-5.97-.87-13.38-3.99-18.48-.17-.28-.35-.56-.53-.82,0,0-.59-.69,.16-1.13,.75-.44,1.06-.02,1.06-.02,.18,.25,.36,.51,.52,.78,5.14,8.14,4.9,21.34,3.55,30.84-1.09,7.68-2.85,14.84-5.74,22.75-.36-.47-.74-.95-1.11-1.43,3.44-9.7,5.86-20.5,6.08-30.87Z" style="fill:#9f9ef2;"/><path d="M101.74,123.66c-3.77,.94-10.67-3.36-13.91-5.52,.31-.57,.75-1.39,.8-1.49,2.77,1.85,7.27,4.6,10.54,5.3,.67,.84,1.56,1.43,2.57,1.71Z" style="fill:#fcd561;"/><path d="M69.28,76.24c9.07-3.83,20.67-7.34,30.51-7.49,0,.54,0,1.08-.01,1.62-9.32,.09-20.76,3.44-29.21,6.97-1.03-.89-2.06-1.74-3.08-2.58,.62,.5,1.24,1.01,1.8,1.48Z" style="fill:#e84343;"/><path d="M97,49.08c-.17-.26-.34-.53-.52-.78,0,0-.31-.42-1.06,.02-.75,.44-.16,1.13-.16,1.13,.19,.27,.36,.54,.53,.82-2.64,1.99-6.3,1.61-8.5-.64-.36-.37-.69-.8-.96-1.28-2.39-4.11,.41-9.45,5.32-9.66,1.09-.04,2.09,.17,2.96,.58,3.52,1.63,5.05,6.33,2.39,9.8Z" style="fill:#e84343;"/><path d="M95.15,47.78c-2.02,2.6-5.31,3.07-7.86,1.85-.36-.37-.69-.8-.96-1.28-2.39-4.11,.41-9.45,5.32-9.66,1.09-.04,2.09,.17,2.96,.58,2.16,2.16,2.68,5.76,.54,8.5Z" style="fill:#fc5552;"/><path d="M93.01,103.11c0-.09,3.15,4.08,5.16,7.27-1.3-2.05-2.73-4.06-4.07-5.84-1.93,4.83-3.64,8.9-6.61,14.2-4.67,8.4-12.25,18.79-20.88,22.93-8.73,4.18-16.59,.88-19.89-11.01-1.15-4.14-1.56-8.74-1.56-13.07,.09,0,1.36,.02,1.57,0,0,6.64,1.08,15.36,5.41,20.43,3.44,4.03,8.72,5.34,15.83,1.12,7.92-4.71,15.08-15.14,19.38-23.36,1.19-2.27,2.29-4.57,3.17-6.57,1.38-3.07,2.4-5.91,2.48-6.11Z" style="fill:#9f9ef2;"/><path d="M94.3,99.5c-.01,.06-.52,1.52-.6,1.74-.24-.3-.48-.6-.72-.9,.44-.28,.89-.56,1.32-.84Z" style="fill:#e84343;"/><path d="M91.52,101.23s.9,1.13,.92,1.15c-15.48,9.36-31.95,14.31-43.09,15.11-3.65,.25-6.01,.09-7.99-.2-.53-1.15,.44-1.6,.44-1.6,1.45,.21,3.02,.33,4.96,.3,4.33-.05,8.57-.75,12.84-1.68,5.88-1.29,16.05-4.95,16.38-5.29,4.98-2.04,10.45-4.73,15.54-7.79Z" style="fill:#e84343;"/><path d="M87.83,94.28c-.94-1.05-1.89-2.09-2.88-3.13-4.57-4.89-9.52-9.63-14.38-13.81,0,0,.99,.86,1.49,1.29,4.89-.42,9.37,1.64,12.3,5.05,2.41,2.81,3.78,6.55,3.47,10.6Z" style="fill:#9f9ef2;"/><path d="M78.99,109.37c.31,.31,4.65,3.83,8.37,6.42-.04,.11-1.51,2.78-.8,1.49-1.73-1.19-3.43-2.46-5.08-3.74-.69-.53-4.2-3.41-4.23-3.43-.99,.42-2.01,.83-3.06,1.24,5.44-2.13,10.73-4.66,15.53-7.38-3.32,1.89-6.88,3.7-10.74,5.39Z" style="fill:#fcd561;"/><path d="M87.5,96.46c-1.29,5.54-5.6,9.67-10.82,10.91-3.5,.83-7.08,.35-10.16-1.25-1.94-1.01-3.54-2.39-4.78-4-3.61-4.67-4.15-11.28-1.01-16.42,2.1-3.53,5.52-5.87,9.17-6.73,4.95,4.29,9.98,9.15,14.7,14.27,.99,1.06,1.96,2.14,2.91,3.22Z" style="fill:#9f9ef2;"/><path d="M85.84,42.98c-.05,.19-.26,.63-.35,1.68-5.22,.54-10.37,4.58-14.05,8.36-3.61,3.71-7.6,8.98-11.46,16.04-.43-.3-.85-.58-1.27-.86,4.42-8.05,10.97-17.25,18.69-22.12,2.57-1.62,5.44-2.85,8.44-3.1Z" style="fill:#9f9ef2;"/><path d="M77.71,108.29l-1.73,.73s-.1-.07-.56-.47c0,0-.88-.76-.93-.81,.27,0,2-.26,2.17-.35,.09,.07,.04,.04,1.06,.91Z" style="fill:#fcd561;"/><path d="M56.17,82.75c5.65-3.25,11.29-5.76,11.38-5.76,.32,.27,1.19,1,1.28,1.08-4.17,1.79-8.21,3.81-12.16,6.09,.45-.27-.05-1.68-.5-1.41Z" style="fill:#e84343;"/><path d="M59.15,70.55c.2,.12-1.79,2.82-5.12,11.35-.02,.06-.12,.05-.19,.04-.37-.04-.77-.17-1.13-.39-.07-.04-.15-.09-.12-.15,1.52-3.9,3.31-7.9,5.32-11.7,.04,.02,1.2,.82,1.25,.85Z" style="fill:#9f9ef2;"/><path d="M58.71,92.07c-1.89-2.11-3.62-4.16-5.14-6.05,.71-.45,1.42-.87,1.45-.89,.09,0,.41,.66,4.02,4.77-.28,1.11-.38,2.7-.33,2.17Z" style="fill:#fcd561;"/><path d="M33.1,108.95c.43-.21-.6,.23-1.42,.97-.56-4.6,2.98-9.65,6.11-13.08,4.1-4.57,10.02-8.94,15.22-12.19,.61-.38,3.09-1.89,3.21-1.92,.46-.11,.84,1.08,.5,1.39,0,0-3.06,1.83-3.29,1.99-.93,.6-1.09,.71-1.19,.75-.06,.03-1.97,1.28-2.06,1.37-5.27,3.56-11.83,8.99-15.08,14.43-1.13,1.88-2.1,4.1-2,6.29Z" style="fill:#e84343;"/><path d="M54.1,83.97c.26-.16,.52-.32,.79-.47-.62,.37-1.25,.75-1.87,1.14,.17-.47,.34-.94,.51-1.4,.19,.24,.38,.49,.57,.73Z" style="fill:#fcd561;"/><path d="M52.59,81.4c-.02,.06,.06,.11,.12,.15,.32,.2,.71,.34,1.13,.39,.08,0,.17,.02,.19-.04-.35,.9-.7,1.84-1.02,2.74-.68,.43-1.37,.88-2.06,1.32-.06,.04-.09,.16,.36-1.13,.54-1.51,.82-2.27,1.27-3.43Z" style="fill:#69a4fc;"/><path d="M50.53,79.23c-.06-.19-.31-.34,1.9,2.59-.39,1.02-.66,1.76-.7,1.87-.92-1.2-1.78-2.37-2.63-3.57,.03,.05,.1,.11,.13,.13,.6,.42,1.61-.39,1.3-1.01Z" style="fill:#fcd561;"/><path d="M45.2,115.97c.22-9.25,2.18-18.95,4.98-27.74,.09-.09,1.93-1.29,2.02-1.34,.24-.15-5.11,13.52-5.44,29.1-.95,.01-2.19-.03-1.56-.02Z" style="fill:#9f9ef2;"/><path d="M42.33,115.76c-.17-.03-.36-.06-.53-.07,0,0-.97,.45-.44,1.6,.33,.05,.4,.06,.5,.07-1.59,3.51-5.82,4.82-9.09,2.93-1.12-.65-2.02-1.62-2.58-2.79-.05-.12-.11-.24-.16-.37-1.44-3.51,.54-7.75,4.49-8.68,2.31-.55,4.56,.22,6.07,1.75,1.36,1.38,2.11,3.39,1.75,5.57Z" style="fill:#feb30f;"/><path d="M41.02,114.49c-.34,1.4-1.14,2.64-2.28,3.52-2.54,2.02-6.27,1.78-8.55-.53-.05-.12-.11-.24-.16-.37-1.44-3.51,.54-7.75,4.49-8.68,2.31-.55,4.56,.23,6.07,1.75,.61,1.3,.81,2.81,.43,4.3Z" style="fill:#fbc22c;"/></g><path d="M83.49,111.85c.23-.03,.05,.06,0,0h0Z" style="fill:#1c6df6;"/><path d="M84.59,93.24c.99,1.06,1.96,2.14,2.91,3.22-1.29,5.54-5.6,9.67-10.82,10.91-3.5,.83-7.08,.35-10.16-1.25-1.94-1.01-3.54-2.39-4.78-4,4.24,1.57,10.98,3.23,15.98,.54,3.99-2.16,6.04-5.76,6.88-9.43Z" style="fill:#5254cf;"/><path d="M87.83,94.28c-.94-1.05-1.89-2.09-2.88-3.13,.33-2.82,0-5.52-.59-7.46,2.41,2.81,3.78,6.55,3.47,10.6Z" style="fill:#5254cf;"/><path d="M71.1,88.17c0,1.63-1.32,2.94-2.94,2.94s-2.94-1.32-2.94-2.94,1.32-2.94,2.94-2.94,2.94,1.32,2.94,2.94Z" style="fill:#fff; isolation:isolate; opacity:.5;"/><path d="M89.78,43.73c0,.63-.51,1.13-1.13,1.13s-1.13-.51-1.13-1.13,.51-1.13,1.13-1.13,1.13,.51,1.13,1.13Z" style="fill:#fc9f9c;"/></g><circle cx="34.3" cy="113.01" r="1.69" style="fill:#fceab2;"/></g><g id="l"><g id="m"><g id="n"><polygon id="o" points="199.47 201.62 207.7 206.37 207.7 215.47 199.47 210.72 199.47 201.62" style="fill:#6a70db;"/><path id="p" d="M207.7,206.37l25.47-14.71c5.67-3.27,14.9-3.27,20.57,0v9.1c-5.67-3.27-14.9-3.27-20.57,0l-25.47,14.7v-9.1Z" style="fill:#5254cf;"/><polygon id="q" points="253.74 191.66 261.96 186.91 261.96 196.02 253.74 200.77 253.74 191.66" style="fill:#e7f0f4;"/></g><path id="r" d="M199.47,201.62l25.47-14.71c10.21-5.89,26.82-5.89,37.02,0l-8.23,4.75c-5.67-3.27-14.9-3.27-20.57,0l-25.47,14.71-8.23-4.75Z" style="fill:#d0d0fc;"/></g><g id="s"><path id="t" d="M253.74,191.66c2.83,1.64,4.25,3.79,4.25,5.94v9.1c0-2.15-1.42-4.3-4.25-5.94v-9.1Z" style="fill:#e84343;"/><g id="u"><polygon id="v" points="228.27 218.24 236.49 222.99 236.49 232.1 228.27 227.35 228.27 218.24" style="fill:#fc5552;"/><path id="w" d="M236.49,222.99l25.47-14.7c5.1-2.95,7.66-6.82,7.66-10.69v9.1c0,3.87-2.55,7.74-7.66,10.69l-25.47,14.71v-9.1Z" style="fill:#e84343;"/></g><path id="x" d="M228.27,218.24l25.47-14.7c2.84-1.64,4.25-3.79,4.25-5.94s-1.42-4.3-4.25-5.94l8.23-4.75c5.1,2.95,7.66,6.82,7.66,10.69s-2.55,7.74-7.66,10.69l-25.47,14.7-8.23-4.75Z" style="fill:#f66;"/></g></g><g id="y"><polygon id="z" points="244.61 114.65 255.74 135.18 250.02 131.87 238.89 111.35 244.61 114.65" style="fill:#fcd561;"/><g id="aa"><polygon id="ab" points="270.45 75.09 259.39 81.47 253.67 78.17 264.73 71.79 270.45 75.09" style="fill:#ffe092;"/><polygon id="ac" points="259.39 81.47 253.67 116.44 247.95 113.14 253.67 78.17 259.39 81.47" style="fill:#fcd561;"/></g><g id="ad"><polygon id="ae" points="248.12 106.21 236.64 112.84 230.92 109.54 242.4 102.91 248.12 106.21" style="fill:#ffe092;"/><polygon id="af" points="236.64 112.84 236.64 119.25 230.92 115.95 230.92 109.54 236.64 112.84" style="fill:#fcd96e;"/></g><polygon id="ag" points="270.45 75.09 270.45 81.51 263.91 85.28 255.74 135.18 244.61 114.65 236.64 119.25 236.64 112.84 248.12 106.21 253.67 116.44 259.39 81.47 270.45 75.09" style="fill:#ffc700;"/></g></svg>