<?xml version="1.0" encoding="UTF-8"?><svg id="a" xmlns="http://www.w3.org/2000/svg" viewBox="0 0 300 300"><g id="b"><g id="c"><g id="d"><polygon id="e" points="38.73 208.35 46.96 213.1 46.96 222.2 38.73 217.45 38.73 208.35" style="fill:#6a70db;"/><path id="f" d="M46.96,213.1l25.47-14.71c5.67-3.27,14.9-3.27,20.57,0v9.1c-5.67-3.27-14.9-3.27-20.57,0l-25.47,14.7v-9.1Z" style="fill:#5254cf;"/><polygon id="g" points="92.99 198.4 101.22 193.65 101.22 202.75 92.99 207.5 92.99 198.4" style="fill:#e7f0f4;"/></g><path id="h" d="M38.73,208.35l25.47-14.71c10.21-5.89,26.82-5.89,37.02,0l-8.23,4.75c-5.67-3.27-14.9-3.27-20.57,0l-25.47,14.71-8.23-4.75Z" style="fill:#d0d0fc;"/></g><g id="i"><path id="j" d="M92.99,198.4c2.83,1.64,4.25,3.79,4.25,5.94v9.1c0-2.15-1.42-4.3-4.25-5.94v-9.1Z" style="fill:#e84343;"/><g id="k"><polygon id="l" points="67.52 224.98 75.75 229.73 75.75 238.83 67.52 234.08 67.52 224.98" style="fill:#fc5552;"/><path id="m" d="M75.75,229.73l25.47-14.7c5.1-2.95,7.66-6.82,7.66-10.69v9.1c0,3.87-2.55,7.74-7.66,10.69l-25.47,14.71v-9.1Z" style="fill:#e84343;"/></g><path id="n" d="M67.52,224.98l25.47-14.7c2.84-1.64,4.25-3.79,4.25-5.94s-1.42-4.3-4.25-5.94l8.23-4.75c5.1,2.95,7.66,6.82,7.66,10.69s-2.55,7.74-7.66,10.69l-25.47,14.7-8.23-4.75Z" style="fill:#f66;"/></g></g><g><g><g><path d="M77.81,135c-.13,.38-.26,.75-.39,1.13,1.16-3.28,2.2-6.7,3.08-10.17-.58,2.31-1.23,4.58-1.94,6.79,5.59-3.82,12.92-9.81,15.89-15.92,3.86-7.97-2.11-11.56-10.9-11.82,0-.19,.02-.58,.02-1.63,14.8,.33,18.01,9.36,7.04,21.14-3.64,3.91-8.27,7.51-12.78,10.48Z" style="fill:#e84343;"/><path d="M88.52,157.28c-2.03,1.78-5.3,1.57-7.07-.63-.09-.1-.17-.2-.24-.31-1.51-2.13-1.06-5.1,.94-6.73,.19-.15,.4-.3,.62-.43,.1,.17,.53,1.06,.91,1.98,.13,.32,.25,.63,.35,.93,0,0,1.13,.81,1.6-.54-.33-.99-.82-2.07-1.27-2.98,1.2-.23,2.41,0,3.42,.59,.62,.35,1.18,.85,1.6,1.48,1.47,2.12,1.06,4.98-.86,6.62Z" style="fill:#5254cf;"/><path d="M87.18,156.14c-1.59,1.39-3.94,1.56-5.73,.52-.09-.1-.17-.2-.24-.31-1.51-2.13-1.06-5.1,.94-6.73,.19,.44,.38,.93,.53,1.36,0,0,.51,.36,.99,.2,.13,.32,.25,.63,.35,.93,0,0,1.13,.81,1.6-.54-.33-.99-.82-2.07-1.27-2.98,1.2-.23,2.41,0,3.42,.59,.1,.11,.18,.23,.26,.34,1.47,2.12,1.05,4.97-.86,6.61Z" style="fill:#9f9ef2;"/><path d="M84.02,152.11c-1.81-5.26-7.05-12.24-10.53-16.54-6.86-8.46-15.55-17.18-23.74-23.96-3.53-2.92-7.73-6.15-11.64-8.58-2.37-1.47-8.25-4.95-10.87-4.03-.9,.32-.97,1.3-.86,2.25,.51,4.63,6.23,12.28,6.36,12.59,.11,.22,.03,.52-.14,.74-.3,.37-.84,.5-1.16,.27-.15,0-4.89-6.77-6.28-11.33-.43-1.4-.78-3.1-.22-4.46,2.03-4.9,11.55,.81,15.98,3.76,9.78,6.5,23.8,19.13,34.26,32.13,3.51,4.36,8.64,11.33,10.45,16.61-.47,1.34-1.6,.54-1.6,.54Z" style="fill:#fcd561;"/><path d="M81.97,105v-1.62c0-5.97-.87-13.38-3.99-18.48-.17-.28-.35-.56-.53-.82,0,0-.59-.69,.16-1.13,.75-.44,1.06-.02,1.06-.02,.18,.25,.36,.51,.52,.78,5.14,8.14,4.9,21.34,3.55,30.84-1.09,7.68-2.85,14.84-5.74,22.75-.36-.47-.74-.95-1.11-1.43,3.44-9.7,5.86-20.5,6.08-30.87Z" style="fill:#9f9ef2;"/><path d="M83.94,158.29c-3.77,.94-10.67-3.36-13.91-5.52,.31-.57,.75-1.39,.8-1.49,2.77,1.85,7.27,4.6,10.54,5.3,.67,.84,1.56,1.43,2.57,1.71Z" style="fill:#fcd561;"/><path d="M51.48,110.86c9.07-3.83,20.67-7.34,30.51-7.49,0,.54,0,1.08-.01,1.62-9.32,.09-20.76,3.44-29.21,6.97-1.03-.89-2.06-1.74-3.08-2.58,.62,.5,1.24,1.01,1.8,1.48Z" style="fill:#e84343;"/><path d="M79.2,83.71c-.17-.26-.34-.53-.52-.78,0,0-.31-.42-1.06,.02-.75,.44-.16,1.13-.16,1.13,.19,.27,.36,.54,.53,.82-2.64,1.99-6.3,1.61-8.5-.64-.36-.37-.69-.8-.96-1.28-2.39-4.11,.41-9.45,5.32-9.66,1.09-.04,2.09,.17,2.96,.58,3.52,1.63,5.05,6.33,2.39,9.8Z" style="fill:#e84343;"/><path d="M77.35,82.41c-2.02,2.6-5.31,3.07-7.86,1.85-.36-.37-.69-.8-.96-1.28-2.39-4.11,.41-9.45,5.32-9.66,1.09-.04,2.09,.17,2.96,.58,2.16,2.16,2.68,5.76,.54,8.5Z" style="fill:#fc5552;"/><path d="M75.21,137.74c0-.09,3.15,4.08,5.16,7.27-1.3-2.05-2.73-4.06-4.07-5.84-1.93,4.83-3.64,8.9-6.61,14.2-4.67,8.4-12.25,18.79-20.88,22.93-8.73,4.18-16.59,.88-19.89-11.01-1.15-4.14-1.56-8.74-1.56-13.07,.09,0,1.36,.02,1.57,0,0,6.64,1.08,15.36,5.41,20.43,3.44,4.03,8.72,5.34,15.83,1.12,7.92-4.71,15.08-15.14,19.38-23.36,1.19-2.27,2.29-4.57,3.17-6.57,1.38-3.07,2.4-5.91,2.48-6.11Z" style="fill:#9f9ef2;"/><path d="M76.49,134.12c-.01,.06-.52,1.52-.6,1.74-.24-.3-.48-.6-.72-.9,.44-.28,.89-.56,1.32-.84Z" style="fill:#e84343;"/><path d="M73.71,135.85s.9,1.13,.92,1.15c-15.48,9.36-31.95,14.31-43.09,15.11-3.65,.25-6.01,.09-7.99-.2-.53-1.15,.44-1.6,.44-1.6,1.45,.21,3.02,.33,4.96,.3,4.33-.05,8.57-.75,12.84-1.68,5.88-1.29,16.05-4.95,16.38-5.29,4.98-2.04,10.45-4.73,15.54-7.79Z" style="fill:#e84343;"/><path d="M70.02,128.9c-.94-1.05-1.89-2.09-2.88-3.13-4.57-4.89-9.52-9.63-14.38-13.81,0,0,.99,.86,1.49,1.29,4.89-.42,9.37,1.64,12.3,5.05,2.41,2.81,3.78,6.55,3.47,10.6Z" style="fill:#9f9ef2;"/><path d="M61.19,143.99c.31,.31,4.65,3.83,8.37,6.42-.04,.11-1.51,2.78-.8,1.49-1.73-1.19-3.43-2.46-5.08-3.74-.69-.53-4.2-3.41-4.23-3.43-.99,.42-2.01,.83-3.06,1.24,5.44-2.13,10.73-4.66,15.53-7.38-3.32,1.89-6.88,3.7-10.74,5.39Z" style="fill:#fcd561;"/><path d="M69.7,131.09c-1.29,5.54-5.6,9.67-10.82,10.91-3.5,.83-7.08,.35-10.16-1.25-1.94-1.01-3.54-2.39-4.78-4-3.61-4.67-4.15-11.28-1.01-16.42,2.1-3.53,5.52-5.87,9.17-6.73,4.95,4.29,9.98,9.15,14.7,14.27,.99,1.06,1.96,2.14,2.91,3.22Z" style="fill:#9f9ef2;"/><path d="M68.04,77.61c-.05,.19-.26,.63-.35,1.68-5.22,.54-10.37,4.58-14.05,8.36-3.61,3.71-7.6,8.98-11.46,16.04-.43-.3-.85-.58-1.27-.86,4.42-8.05,10.97-17.25,18.69-22.12,2.57-1.62,5.44-2.85,8.44-3.1Z" style="fill:#9f9ef2;"/><path d="M59.9,142.92l-1.73,.73s-.1-.07-.56-.47c0,0-.88-.76-.93-.81,.27,0,2-.26,2.17-.35,.09,.07,.04,.04,1.06,.91Z" style="fill:#fcd561;"/><path d="M38.37,117.37c5.65-3.25,11.29-5.76,11.38-5.76,.32,.27,1.19,1,1.28,1.08-4.17,1.79-8.21,3.81-12.16,6.09,.45-.27-.05-1.68-.5-1.41Z" style="fill:#e84343;"/><path d="M41.35,105.18c.2,.12-1.79,2.82-5.12,11.35-.02,.06-.12,.05-.19,.04-.37-.04-.77-.17-1.13-.39-.07-.04-.15-.09-.12-.15,1.52-3.9,3.31-7.9,5.32-11.7,.04,.02,1.2,.82,1.25,.85Z" style="fill:#9f9ef2;"/><path d="M40.9,126.7c-1.89-2.11-3.62-4.16-5.14-6.05,.71-.45,1.42-.87,1.45-.89,.09,0,.41,.66,4.02,4.77-.28,1.11-.38,2.7-.33,2.17Z" style="fill:#fcd561;"/><path d="M15.3,143.57c.43-.21-.6,.23-1.42,.97-.56-4.6,2.98-9.65,6.11-13.08,4.1-4.57,10.02-8.94,15.22-12.19,.61-.38,3.09-1.89,3.21-1.92,.46-.11,.84,1.08,.5,1.39,0,0-3.06,1.83-3.29,1.99-.93,.6-1.09,.71-1.19,.75-.06,.03-1.97,1.28-2.06,1.37-5.27,3.56-11.83,8.99-15.08,14.43-1.13,1.88-2.1,4.1-2,6.29Z" style="fill:#e84343;"/><path d="M36.29,118.6c.26-.16,.52-.32,.79-.47-.62,.37-1.25,.75-1.87,1.14,.17-.47,.34-.94,.51-1.4,.19,.24,.38,.49,.57,.73Z" style="fill:#fcd561;"/><path d="M34.79,116.03c-.02,.06,.06,.11,.12,.15,.32,.2,.71,.34,1.13,.39,.08,0,.17,.02,.19-.04-.35,.9-.7,1.84-1.02,2.74-.68,.43-1.37,.88-2.06,1.32-.06,.04-.09,.16,.36-1.13,.54-1.51,.82-2.27,1.27-3.43Z" style="fill:#69a4fc;"/><path d="M32.73,113.85c-.06-.19-.31-.34,1.9,2.59-.39,1.02-.66,1.76-.7,1.87-.92-1.2-1.78-2.37-2.63-3.57,.03,.05,.1,.11,.13,.13,.6,.42,1.61-.39,1.3-1.01Z" style="fill:#fcd561;"/><path d="M27.39,150.59c.22-9.25,2.18-18.95,4.98-27.74,.09-.09,1.93-1.29,2.02-1.34,.24-.15-5.11,13.52-5.44,29.1-.95,.01-2.19-.03-1.56-.02Z" style="fill:#9f9ef2;"/><path d="M24.53,150.38c-.17-.03-.36-.06-.53-.07,0,0-.97,.45-.44,1.6,.33,.05,.4,.06,.5,.07-1.59,3.51-5.82,4.82-9.09,2.93-1.12-.65-2.02-1.62-2.58-2.79-.05-.12-.11-.24-.16-.37-1.44-3.51,.54-7.75,4.49-8.68,2.31-.55,4.56,.22,6.07,1.75,1.36,1.38,2.11,3.39,1.75,5.57Z" style="fill:#feb30f;"/><path d="M23.21,149.11c-.34,1.4-1.14,2.64-2.28,3.52-2.54,2.02-6.27,1.78-8.55-.53-.05-.12-.11-.24-.16-.37-1.44-3.51,.54-7.75,4.49-8.68,2.31-.55,4.56,.23,6.07,1.75,.61,1.3,.81,2.81,.43,4.3Z" style="fill:#fbc22c;"/></g><path d="M65.68,146.48c.23-.03,.05,.06,0,0h0Z" style="fill:#1c6df6;"/><path d="M66.79,127.86c.99,1.06,1.96,2.14,2.91,3.22-1.29,5.54-5.6,9.67-10.82,10.91-3.5,.83-7.08,.35-10.16-1.25-1.94-1.01-3.54-2.39-4.78-4,4.24,1.57,10.98,3.23,15.98,.54,3.99-2.16,6.04-5.76,6.88-9.43Z" style="fill:#5254cf;"/><path d="M70.02,128.9c-.94-1.05-1.89-2.09-2.88-3.13,.33-2.82,0-5.52-.59-7.46,2.41,2.81,3.78,6.55,3.47,10.6Z" style="fill:#5254cf;"/><path d="M53.3,122.8c0,1.63-1.32,2.94-2.94,2.94s-2.94-1.32-2.94-2.94,1.32-2.94,2.94-2.94,2.94,1.32,2.94,2.94Z" style="fill:#fff; isolation:isolate; opacity:.5;"/><path d="M71.98,78.36c0,.63-.51,1.13-1.13,1.13s-1.13-.51-1.13-1.13,.51-1.13,1.13-1.13,1.13,.51,1.13,1.13Z" style="fill:#fc9f9c;"/></g><circle cx="16.49" cy="147.64" r="1.69" style="fill:#fceab2;"/></g><g><path d="M130.62,58.61c-.47,.05-.95-.28-1.17-.86l-13.38-34.02c-.26-.71-.02-1.52,.53-1.82,.55-.3,1.22,.05,1.48,.76l13.38,34.02c.26,.71,.02,1.52-.53,1.82-.1,.06-.21,.09-.32,.1Z" style="fill:#ffe092;"/><path d="M210.72,105.42c-.53,0-1.01-.34-1.17-.87l-9.96-32.9c-.2-.65,.17-1.33,.82-1.53,.65-.2,1.33,.17,1.53,.82l9.97,32.9c.2,.65-.17,1.33-.82,1.53-.12,.04-.24,.05-.35,.05Z" style="fill:#ffe092;"/><g id="o"><path id="p" d="M132.87,148.39c0,8.7,12.22,15.75,27.29,15.75s27.29-7.05,27.29-15.75v2.63c0,8.7-12.22,15.75-27.29,15.75s-27.29-7.05-27.29-15.75v-2.63Z" style="fill:#d19c5e;"/><path id="q" d="M132.87,148.39c0-8.7,12.22-15.75,27.29-15.75s27.29,7.05,27.29,15.75-12.22,15.75-27.29,15.75-27.29-7.05-27.29-15.75Z" style="fill:#ffe092;"/></g><g><path d="M145.36,71.27c0,13.93-12.17,21.09-27.19,21.09s-27.19-7.45-27.19-21.09c0-8.67,12.17-15.7,27.19-15.7s27.19,7.03,27.19,15.7Z" style="fill:#d19c5e;"/><ellipse cx="118.17" cy="71.27" rx="27.19" ry="15.7" style="fill:#ffe092;"/><path d="M142.94,71.21c.02,7.95-11.09,14.35-24.77,14.35-11.18,0-20.63-4.27-23.71-10.15-.69-1.31-1.06-2.71-1.06-4.15,0-7.9,11.09-14.3,24.77-14.3s24.74,6.37,24.77,14.25Z" style="fill:#ffc700;"/></g><g><path d="M227.44,118.66c0,13.93-12.17,21.09-27.19,21.09s-27.19-7.45-27.19-21.09c0-8.67,12.17-15.7,27.19-15.7s27.19,7.03,27.19,15.7Z" style="fill:#d19c5e;"/><ellipse cx="200.25" cy="118.66" rx="27.19" ry="15.7" style="fill:#ffe092;"/><path d="M225.02,118.6c.02,7.95-11.09,14.35-24.77,14.35-11.18,0-20.63-4.27-23.71-10.15-.69-1.31-1.06-2.71-1.06-4.15,0-7.9,11.09-14.3,24.77-14.3s24.74,6.37,24.77,14.25Z" style="fill:#d19c5e;"/><g id="r"><g id="s"><polygon id="t" points="183.43 113.72 196.23 121.11 196.23 130.98 183.43 123.59 183.43 113.72" style="fill:#ff9494;"/><polygon id="u" points="196.23 121.11 209.04 113.72 209.04 123.59 196.23 130.98 196.23 121.11" style="fill:#f97878;"/></g><polygon id="v" points="183.43 113.72 196.23 106.33 209.04 113.72 196.23 121.11 183.43 113.72" style="fill:#fc5552;"/></g></g><g><g id="w"><path id="x" d="M154.73,51.42c0,1.63,2.29,2.95,5.12,2.95s5.12-1.32,5.12-2.96l-1.79,9.11,1.79,85.14c0,1.63-2.29,2.96-5.12,2.96s-5.12-1.32-5.12-2.96l1.88-85.18-1.88-9.07Z" style="fill:#ffc700;"/><path d="M201.44,72.08s-5.63,1.63-8.45-.23c-2.82-1.86-14.28-13.13-21.53-17.07-2.47-1.34-4.75-2.13-6.68-2.56-.59,1.25-2.58,2.17-4.94,2.17-2.83,0-5.12-1.32-5.12-2.95,0-.88-4.46-8.75-9.01-11.52-7.24-4.42-18.71-6.39-21.53-7.78-2.82-1.4-8.45-9.52-8.45-9.52-.14-.92-.08-1.37,.12-1.49,.97-.56,5.32,6.73,7.32,7.88,2.42,1.4,5.83-.81,12.67,.12,6.84,.93,17.7,9.53,17.7,9.53l5.03-12.52,5.03,18.33s10.87,3.95,17.71,10.92c6.84,6.97,10.26,13.13,12.67,14.52,2.42,1.39,8.25-2.21,7.45,2.21Z" style="fill:#ffe092;"/></g><g id="y"><path d="M155.29,37.63l-1.72,.99s-10.86-8.59-17.7-9.53c-6.84-.93-10.26,1.28-12.67-.12-2-1.15-6.35-8.44-7.32-7.88l1.72-.99c.98-.56,5.32,6.72,7.32,7.88,2.42,1.39,5.84-.81,12.67,.12,6.84,.93,17.7,9.53,17.7,9.53Z" style="fill:#ffc700;"/><polygon points="160.32 25.11 158.59 26.11 153.56 38.62 155.29 37.63 160.32 25.11" style="fill:#ffc700;"/><polygon points="165.35 43.43 163.62 44.43 158.59 26.11 160.32 25.11 165.35 43.43" style="fill:#ffc700;"/><path d="M203.17,71.08l-1.72,1c.8-4.42-5.03-.81-7.45-2.21-2.41-1.4-5.83-7.55-12.67-14.52-6.84-6.96-17.71-10.92-17.71-10.92l1.72-1s10.87,3.95,17.71,10.92c6.84,6.97,10.26,13.13,12.67,14.52,2.41,1.4,8.24-2.21,7.44,2.21Z" style="fill:#ffc700;"/></g></g><path d="M130.41,85.7c-.56,0-1.07-.38-1.19-.95l-14.12-57.35-21.7,43.48c-.31,.6-1.04,.85-1.64,.54-.6-.3-.85-1.04-.54-1.64l24.55-48.36,15.84,62.79c.15,.66-.27,1.32-.92,1.46-.09,.02-.18,.03-.27,.03Z" style="fill:#ffe092;"/><path d="M211.98,133.45c-.57,0-1.08-.4-1.2-.98l-11.55-55.69-23.91,43.47c-.32,.6-1.07,.82-1.66,.5-.6-.32-.82-1.06-.5-1.66l26.9-48.63,13.12,61.52c.13,.66-.3,1.31-.96,1.44-.08,.02-.16,.02-.24,.02Z" style="fill:#ffe092;"/></g><g><g><g><g><path d="M114.35,227.74c.14-.43,.26-.75,.35-.95,.3-.7,.86-2,2.08-3.43,1.19-1.38,2.22-2.03,2.97-2.49,1.14-.65,2.18-.98,3.1-1.15,1.24-.23,2.22-.16,2.83-.1,.95,.08,3.02,.48,6.33,2.27,1.14,.61,3.03,1.64,4.24,2.79,.71,.68,1.07,1.03,1.77,1.97,.51,.69,.98,1.58,1.37,2.29,.47,.87,.84,1.44,1.53,2.08,.98,.94,2.21,1.64,2.69,1.9,1.52,.82,1.95,.79,3.12,.69,.71-.06,2.41-.2,4.43,.31,2.29,.57,4.12,1.55,5.03,2.07,.72,.42,1.35,.88,1.68,1.13,1.32,.95,2.68,2.26,3.53,3.43,.35,.46,1.38,1.87,1.82,3.82,.17,.72,.22,1.44,.22,2.11-.02,1.98-.66,3.63-1.1,4.58-1.07,2.26-2.46,3.69-3.51,4.53-.6,.48-1.1,.76-1.36,.89-.86,.46-2.86,1.49-6.18,1.01-3.54-.51-6.43-2.27-7.51-3.01-3.82-2.59-4.98-5.08-5.54-6.28-.49-1.05-.69-1.48-2.25-2.43-2.79-1.68-4.33-1.65-5.44-1.63-1.64,.04-2.73,.04-4.45-.38-1.69-.42-3.15-1.25-3.95-1.69,0,0-1.3-.76-2.68-1.69-.85-.58-1.37-1.03-1.83-1.42-.46-.37-1.47-1.34-2.13-2.32-.29-.42-.96-1.43-1.36-2.86-.68-2.47-.21-4.75,.2-6.05Zm43.94,27.96c.13-.08,.27-.17,.4-.26,2.5-1.67,4.46-5.23,4.45-8.15,0-.21-.01-.41-.03-.61-.25-2.39-1.97-3.41-4.15-2.53-.23,.1-.47,.21-.7,.36-2.25,1.3-4.15,4.16-4.68,6.87-.11,.52-.17,1.04-.17,1.54,0,3.09,2.2,4.34,4.88,2.79Z" style="fill:#ffc700;"/><path d="M142.53,239.87s2.63-1.05,8.17,1.15c3.22,1.28,3.81,5.04,2.98,6.3-.84,1.25-4.19,2.92-7.25,.82-3.06-2.1-5.29-6.27-3.9-8.27Z" style="fill:#ffe092;"/><path d="M119.74,225.21c1.53-2.3,5.79-1.53,10.07,1.56,5.78,4.19,6.22,7.94,5.39,9.2s-8.73-1.09-11.22-3.18c-3.5-2.95-5.38-5.86-4.24-7.58Z" style="fill:#ffe092;"/></g><path d="M114.15,233.79c.4,1.44,1.07,2.44,1.36,2.86,.66,.98,1.67,1.95,2.13,2.32,.46,.39,.98,.84,1.83,1.42,1.37,.94,2.68,1.69,2.68,1.69,.79,.45,2.25,1.27,3.95,1.69,1.72,.42,2.81,.42,4.45,.38,1.11-.02,2.65-.06,5.44,1.63,1.56,.95,1.76,1.38,2.25,2.43,.56,1.19,1.72,3.69,5.54,6.28,1.08,.74,3.97,2.5,7.51,3.01,3.31,.48,5.32-.56,6.18-1.01,.26-.13,.76-.41,1.36-.89l-3.05-3.97s-1.61,4.21-2.92,4.04c-3.17-.45-7.7-2.64-10.4-4.55-3.79-2.68-3.71-8.3-2.81-10.78,1.1-3.01,4.54-6.02,9.58-4.82,4.68,1.13,9.54,4.46,11.4,7.67,1.26,2.15,.27,4.77,.38,4.7,.11-.06,2.32-1.34,2.43-1.4,0-.67-.06-1.38-.22-2.11-.43-1.95-1.47-3.37-1.82-3.82-.86-1.17-2.22-2.49-3.53-3.43-.33-.25-.96-.7-1.68-1.13-.9-.52-2.74-1.5-5.03-2.07-2.02-.51-3.71-.37-4.43-.31-1.17,.1-1.61,.13-3.12-.69-.48-.26-1.71-.96-2.69-1.9-.69-.65-1.06-1.21-1.53-2.08-.39-.7-.86-1.59-1.37-2.29-.7-.95-1.06-1.29-1.77-1.97-1.2-1.15-3.1-2.17-4.24-2.79-3.31-1.79-5.38-2.2-6.33-2.27-.61-.06-1.59-.13-2.83,.1,3.3,.46,6.45,1.87,9.51,4.18,6.71,5.06,9.09,11.26,6.9,14.69-4.08,6.41-14.88,1.59-16.76,.57-9.79-5.37-8.07-11.01-8.15-11.43-.42,1.3-.88,3.58-.2,6.05Z" style="fill:#d19c5e;"/><path d="M153.41,252.91c0,3.09,2.2,4.34,4.88,2.79,2.69-1.55,4.86-5.33,4.85-8.4,0-3.09-2.2-4.34-4.88-2.79-2.69,1.55-4.86,5.33-4.85,8.4Z" style="fill:#d19c5e;"/></g><g><path d="M157.58,251.44c0,.41,.15,.69,.41,.8l32.2,18.63,9.53,6.95,6.99,2.1,2.99-1.73-3.44-3.67-12.62-5.66-33.96-19.65c-.28-.11-.56-.09-.87,.09-.67,.39-1.23,1.36-1.23,2.14Z" style="fill:#5254cf;"/><path d="M157.58,251.47c0,.41,.15,.69,.41,.8l32.2,17.49,9.53,6.95,6.99,3.22,2.99-1.73-3.44-4.79-12.62-5.66-33.96-18.51c-.28-.11-.56-.09-.87,.09-.67,.39-1.23,1.36-1.23,2.14Z" style="fill:#d0d0fc;"/></g></g><path d="M208.45,278.18s-.23,.74-1.67,.79c-1.44,.05-6.32-2.37-6.32-2.37l-8.92-6.18s6.5,3.88,8.45,5.16c1.6,1.05,5.53,3.67,8.45,2.6Z" style="fill:#fff; isolation:isolate; opacity:.5;"/></g><g><g><path d="M251.47,226.1l.28,15.77c1.06,.05,2.12-.2,3.07-.75l32.41-18.71c.68-.39,1.02-1.08,1.02-1.77v-15.77l-36.78,21.24Z" style="fill:#ffc700;"/><path d="M180.93,184.86v15.59c0,.69,.34,1.38,1.02,1.77l67.24,38.89c.79,.46,1.67,.71,2.56,.75v-17.15l-57.39-33.2-13.43-6.65Z" style="fill:#d19c5e;"/><path d="M254.82,225.35l32.41-18.71c1.36-.79,1.36-2.76,0-3.54l-67.24-38.89c-1.74-1.01-3.88-1.01-5.63,0l-32.41,18.71c-1.36,.79-1.36,2.76,0,3.54l67.24,38.9c1.74,1.01,3.88,1.01,5.63,0Z" style="fill:#ffe092;"/><polygon points="218.58 166.82 232.55 174.89 200.23 193.55 186.25 185.48 218.58 166.82" style="fill:#ffc700;"/><polygon points="200.27 192.96 229.8 175.92 218.54 169.41 189.01 186.46 200.27 192.96" style="fill:#5254cf;"/><path d="M223.07,201.84c6.54,3.78,17.18,3.76,23.76-.04,6.58-3.8,6.61-9.94,.07-13.72-6.54-3.78-17.18-3.76-23.76,.04-6.58,3.8-6.61,9.94-.07,13.72Z" style="fill:#d19c5e;"/><path d="M225.24,202.51c5.35,3.09,14.05,3.07,19.43-.04,5.38-3.11,5.41-8.13,.06-11.22-5.35-3.09-14.05-3.07-19.43,.04-5.38,3.11-5.41,8.13-.06,11.22Z" style="fill:#a37c58;"/><g><path d="M247.69,219.78c1.49,.86,3.92,.86,5.42,0,1.5-.87,1.51-2.27,.02-3.13-1.49-.86-3.92-.86-5.42,0-1.5,.87-1.51,2.27-.02,3.13Z" style="fill:#1d1d1b;"/><path d="M248.18,219.94c1.22,.7,3.2,.7,4.43,0s1.23-1.85,.01-2.56c-1.22-.7-3.2-.7-4.43,0-1.23,.71-1.23,1.85-.01,2.56Z" style="fill:#6a6a6a;"/></g><path d="M246.01,202.24s2.52-1.32,1.38-1.98l-20.1-9.65c-1.14-.66-2.86-.73-3.85-.16l-.94-1.93c-.99,.57-.2,3.66,.94,4.31l18.79,10.85s2.8-.88,3.78-1.45Z" style="fill:#d19c5e;"/><path d="M246.53,201.79l.28-.16c.99-.57,.86-1.57-.28-2.22,0,0-4.16-4.44-9.86-7.44-5.5-2.9-9.39-3.67-9.39-3.67-1.14-.66-2.86-.73-3.85-.16l-.28,.16c-.99,.57-.86,1.57,.28,2.22,0,0,4.58,1.44,10.13,4.09,5.31,2.54,9.12,7.02,9.12,7.02,1.14,.66,2.86,.73,3.85,.16Z" style="fill:#ffc700;"/><g><g><polygon points="247.48 213.36 247.48 209.65 241.7 217.2 242.24 220.32 247.48 213.36" style="fill:#5254cf;"/><polygon points="247.48 209.65 244.69 208.29 239.35 215.75 241.7 217.2 247.48 209.65" style="fill:#d0d0fc;"/><polygon points="242.24 220.32 240.23 221.71 240.23 220.82 241.7 217.2 242.24 220.32" style="fill:#393a8f;"/><polygon points="239.35 215.75 241.7 217.2 240.23 220.82 238.47 219.8 239.35 215.75" style="fill:#9f9ef2;"/></g><polygon points="238.47 220.82 238.47 219.8 240.23 220.82 240.23 221.71 238.47 220.82" style="fill:#393a8f;"/></g><g><g><polygon points="242.24 209.87 242.24 206.16 236.46 213.71 237.01 216.82 242.24 209.87" style="fill:#c02106;"/><polygon points="242.24 206.16 239.45 204.8 234.11 212.25 236.46 213.71 242.24 206.16" style="fill:#fc5552;"/><polygon points="237.01 216.82 235 218.22 235 217.33 236.46 213.71 237.01 216.82" style="fill:#fc5552;"/><polygon points="234.11 212.25 236.46 213.71 235 217.33 233.23 216.31 234.11 212.25" style="fill:#c02106;"/></g><polygon points="233.23 217.33 233.23 216.31 235 217.33 235 218.22 233.23 217.33" style="fill:#fc5552;"/></g><g><path d="M104.79,165.2l10.75,6.21v-1.85l-10.31-5.95c-.38-.22-1.14-.25-1.14,.27s.31,1.11,.69,1.33Z" style="fill:#d0d0fc;"/><g style="isolation:isolate;"><path d="M116.55,169.19c.01-.98-.67-1.4-1.51-.92-.85,.47-1.55,1.65-1.56,2.64-.01,.98,.67,1.4,1.51,.92,.85-.47,1.55-1.65,1.56-2.64Z" style="fill:#ff8980;"/><path d="M121.41,178.72c.55,.5,1.41,.54,2.38,0,1.69-.94,3.08-3.3,3.11-5.26l-10.35-4.27c-.01,.98-.71,2.16-1.56,2.64-.49,.27-.91,.25-1.19,0,2.54,2.3,5.07,4.6,7.61,6.9Z" style="fill:#ff8980;"/><path d="M115.96,168.11c.36,.12,.6,.5,.59,1.08l10.35,4.27c.01-1.15-.45-1.91-1.18-2.15-.29-.1-9.47-3.1-9.76-3.2Z" style="fill:#ff8980;"/><path d="M125.72,171.31c-.29-.1-9.47-3.1-9.76-3.2-.26-.08-.58-.04-.92,.16-.85,.47-1.55,1.65-1.56,2.64,0,.42,.12,.74,.32,.92,2.54,2.3,5.07,4.6,7.61,6.9-.41-.37-.65-1-.64-1.84,.02-1.96,1.42-4.32,3.11-5.26,.7-.39,1.33-.48,1.84-.31Z" style="fill:#fc5552;"/><path d="M123.79,178.96c-1.81,1.01-3.25,.13-3.23-1.97s1.51-4.61,3.32-5.62,3.25-.13,3.23,1.97-1.51,4.61-3.32,5.62Zm3.11-5.5c.02-1.96-1.33-2.79-3.02-1.84-1.69,.94-3.08,3.3-3.11,5.26-.02,1.96,1.33,2.79,3.02,1.84,1.69-.94,3.08-3.3,3.11-5.26Z" style="fill:#ff8980;"/><path d="M127.14,170.25s-.24-.14-.53-.22c-.19-.05-.38-.08-.59-.08-.6-.01-1.07,.16-1.3,.25-.24,.09-.72,.3-1.31,.74-.62,.46-1.11,1-1.25,1.17-.14,.17-.39,.46-.54,.69-.07,.11-.18,.25-.25,.36-.07,.11-.17,.26-.23,.38-.07,.11-.15,.27-.22,.39,0,0-.19,.35-.38,.8-.15,.36-.21,.54-.3,.82-.13,.41-.55,1.86-.24,3.2,.03,.13,.12,.53,.37,.94,.23,.37,.51,.61,.6,.67,.1,.07,.23,.16,.34,.21,.07,.03,.16,.08,.23,.1,.1,.04,.23,.08,.33,.1,.18,.04,.31,.06,.6,.07,.17,0,.41-.03,.58-.06,0,0,.44-.07,.98-.32,.57-.27,1.02-.62,1.02-.62,.19-.15,.44-.36,.63-.53,.1-.08,.21-.2,.3-.3q.37-.41,.56-.65c.24-.3,.4-.55,.51-.71,.36-.56,.57-1,.64-1.15,.11-.23,.24-.56,.34-.8,.05-.12,.1-.29,.14-.41,.04-.12,.09-.29,.12-.42,.06-.24,.12-.57,.16-.81,.02-.13,.04-.29,.05-.42,0-.12,.01-.28,.02-.39,0-.07-.05-.14-.16-.2-.28-.16-.93,.14-1.26,.32-.03,2.09-1.51,4.61-3.32,5.62-1.81,1.01-3.25,.13-3.23-1.97s1.51-4.61,3.32-5.62,3.25-.13,3.23,1.97c.33-.18,.98-.48,1.26-.32,.11,.07,.16,.13,.16,.2,0-.5-.05-.82-.05-.82-.04-.19-.09-.44-.15-.63-.03-.11-.09-.24-.13-.34-.35-.76-.84-1.05-1.05-1.18Z" style="fill:#ff8980;"/><path d="M124.55,179.41c-1.81,1.01-3.25,.13-3.23-1.97,.03-2.09,1.51-4.61,3.32-5.62s3.25-.13,3.23,1.97c-.03,2.09-1.51,4.61-3.32,5.62Zm3.11-5.5c.02-1.96-1.33-2.79-3.02-1.84-1.69,.94-3.08,3.3-3.11,5.26-.02,1.96,1.33,2.79,3.02,1.84,1.69-.94,3.08-3.3,3.11-5.26Z" style="fill:#ff8980;"/><path d="M128.52,173.23c0-.22-.02-.51-.04-.73-.01-.11-.04-.26-.06-.36q-.06-.26-.2-.64c-.04-.1-.11-.23-.16-.32-.08-.14-.21-.31-.31-.43-.07-.08-.16-.18-.24-.24-.1-.08-.24-.19-.36-.25-.13-.07-.32-.17-.53-.22-.16-.04-.37-.07-.54-.08-.1,0-.24,0-.34,0-.1,0-.24,.02-.34,.05-.09,.02-.22,.05-.31,.07-.11,.03-.25,.08-.36,.12-.19,.08-.45,.2-.63,.3-.21,.12-.48,.3-.67,.44-.11,.07-.23,.17-.33,.26q-.41,.37-.62,.58c-.39,.41-.76,.87-1.09,1.37-.24,.37-.4,.66-.45,.76-.16,.31-.2,.39-.38,.8,0,0-.16,.37-.3,.82-.1,.31-.1,.33-.21,.82-.07,.29-.13,.81-.14,1.24,0,.22,.01,.52,.04,.74,.03,.25,.04,.28,.15,.67,.05,.18,.23,.6,.42,.85,.12,.15,.21,.27,.39,.42,.06,.05,.14,.11,.21,.15,.09,.06,.22,.12,.31,.17,.1,.05,.25,.11,.36,.13,.08,.02,.18,.04,.26,.06,.11,.02,.26,.03,.37,.03,.17,0,.4-.02,.58-.04,.12-.02,.27-.05,.38-.09,.54-.15,1-.42,1-.42,.2-.12,.47-.29,.66-.43,.11-.07,.24-.18,.34-.27,.4-.35,.4-.35,.62-.58,.26-.26,.4-.44,.56-.65,.03-.03,.25-.31,.51-.71q.16-.24,.45-.75c.11-.19,.12-.22,.38-.79,.05-.12,.11-.28,.16-.4,0,0,.23-.61,.35-1.22,.04-.19,.13-.65,.14-1.23,0,.19-.34,.39-.65,.56-.03,2.09-1.51,4.61-3.32,5.62-1.81,1.01-3.25,.13-3.23-1.97,.03-2.09,1.51-4.61,3.32-5.62s3.25-.13,3.23,1.97c.31-.17,.65-.37,.65-.56Z" style="fill:#fc7464;"/><path d="M135.6,187.59c.61,.38,1.47,.35,2.42-.18,1.89-1.05,3.45-3.69,3.48-5.88l-13.83-7.63c-.02,1.96-1.41,4.32-3.11,5.26-.85,.48-1.62,.5-2.17,.16,4.4,2.76,8.81,5.51,13.21,8.27Z" style="fill:#ff8980;"/><path d="M126.72,171.86c.59,.32,.95,1.03,.94,2.05l13.83,7.63c.01-1.14-.39-1.94-1.05-2.29-4.57-2.46-9.15-4.92-13.72-7.38Z" style="fill:#ff8980;"/><path d="M140.45,179.24c-4.57-2.46-9.15-4.92-13.72-7.38-.54-.29-1.27-.25-2.08,.21-1.69,.94-3.08,3.3-3.11,5.26-.01,.97,.31,1.67,.85,2,4.4,2.76,8.81,5.51,13.21,8.27-.6-.38-.97-1.15-.95-2.24,.03-2.19,1.58-4.83,3.48-5.88,.91-.51,1.73-.56,2.33-.23Z" style="fill:#fc5552;"/><path d="M173.95,206.62c.25,.12,.58,.1,.95-.11,.79-.44,1.44-1.53,1.45-2.45l-34.85-22.53c-.03,2.19-1.58,4.83-3.48,5.88-.88,.49-1.68,.55-2.28,.26,12.74,6.32,25.48,12.63,38.21,18.95Z" style="fill:#ff8980;"/><path d="M140.59,179.32c.57,.39,.92,1.15,.91,2.21l34.85,22.53c0-.44-.14-.76-.38-.92-11.79-7.94-23.59-15.88-35.38-23.82Z" style="fill:#ff8980;"/><path d="M176.35,204.07c.01-.91-.62-1.3-1.41-.86-.79,.44-1.44,1.53-1.45,2.45-.01,.91,.62,1.3,1.41,.86,.79-.44,1.44-1.53,1.45-2.45Z" style="fill:#fc9f9c;"/><path d="M175.97,203.15c-11.79-7.94-23.59-15.88-35.38-23.82-.61-.41-1.49-.4-2.47,.15-1.89,1.05-3.45,3.69-3.48,5.88-.01,1.17,.41,1.98,1.09,2.32,12.74,6.32,25.48,12.63,38.21,18.95-.29-.14-.46-.48-.46-.97,.01-.91,.66-2.01,1.45-2.45,.41-.23,.77-.23,1.03-.06Z" style="fill:#e84343;"/></g></g><g><path d="M92.82,175.99l10.75,6.21v-1.85l-10.31-5.95c-.38-.22-1.14-.25-1.14,.27s.31,1.1,.69,1.33Z" style="fill:#d0d0fc;"/><g style="isolation:isolate;"><path d="M103.58,179.34c.01-.98-.67-1.4-1.51-.92-.85,.47-1.55,1.65-1.56,2.64-.01,.98,.67,1.4,1.51,.92,.85-.47,1.55-1.65,1.56-2.64Z" style="fill:#009fbd;"/><path d="M108.44,188.87c.55,.5,1.41,.54,2.38,0,1.69-.94,3.08-3.3,3.11-5.26l-10.35-4.27c-.01,.98-.71,2.16-1.56,2.64-.49,.27-.91,.25-1.19,0,2.54,2.3,5.07,4.6,7.61,6.9Z" style="fill:#009fbd;"/><path d="M102.99,178.26c.36,.12,.6,.5,.59,1.08l10.35,4.27c.01-1.15-.45-1.91-1.18-2.15-.29-.1-9.47-3.1-9.76-3.2Z" style="fill:#009fbd;"/><path d="M112.75,181.46c-.29-.1-9.47-3.1-9.76-3.2-.26-.08-.58-.04-.92,.16-.85,.47-1.55,1.65-1.56,2.64,0,.42,.12,.74,.32,.92,2.54,2.3,5.07,4.6,7.61,6.9-.41-.37-.65-1-.64-1.84,.02-1.96,1.42-4.32,3.11-5.26,.7-.39,1.34-.48,1.84-.31Z" style="fill:#9f9ef2;"/><path d="M110.81,189.12c-1.81,1.01-3.25,.13-3.23-1.97,.03-2.09,1.51-4.61,3.32-5.62s3.25-.13,3.23,1.97c-.03,2.09-1.51,4.61-3.32,5.62Zm3.11-5.5c.02-1.96-1.33-2.79-3.02-1.84-1.69,.94-3.08,3.3-3.11,5.26s1.33,2.79,3.02,1.84c1.69-.94,3.08-3.3,3.11-5.26Z" style="fill:#009fbd;"/><path d="M114.17,180.4s-.24-.14-.53-.22c-.19-.05-.38-.08-.59-.08-.6-.01-1.07,.16-1.3,.25-.24,.09-.72,.3-1.31,.74-.62,.46-1.11,1-1.25,1.17-.14,.17-.39,.46-.54,.69-.07,.11-.18,.25-.25,.36-.07,.11-.17,.26-.23,.38-.07,.11-.15,.27-.22,.39,0,0-.19,.35-.38,.8-.15,.36-.21,.54-.3,.82-.13,.41-.55,1.86-.23,3.2,.03,.13,.12,.53,.37,.94,.23,.37,.51,.61,.6,.67,.1,.07,.23,.16,.34,.21,.07,.03,.16,.08,.23,.1,.1,.04,.23,.08,.33,.1,.18,.04,.31,.06,.6,.07,.17,0,.41-.03,.58-.06,0,0,.44-.07,.98-.32,.57-.27,1.02-.62,1.02-.62,.19-.15,.44-.36,.63-.53,.1-.08,.21-.2,.3-.3,.37-.41,.37-.41,.56-.65,.24-.3,.4-.55,.51-.71,.36-.56,.57-1,.64-1.15,.11-.23,.24-.56,.34-.8,.05-.12,.1-.29,.14-.41,.04-.12,.09-.29,.12-.42,.06-.24,.12-.57,.16-.81,.02-.13,.04-.29,.05-.42,0-.12,.01-.28,.02-.39,0-.07-.05-.14-.16-.2-.28-.16-.93,.14-1.26,.32-.03,2.09-1.51,4.61-3.32,5.62-1.81,1.01-3.25,.13-3.23-1.97,.03-2.09,1.51-4.61,3.32-5.62s3.25-.13,3.23,1.97c.33-.18,.98-.48,1.26-.32,.11,.07,.16,.13,.16,.2,0-.5-.05-.82-.05-.82-.04-.19-.09-.44-.15-.63-.03-.11-.09-.24-.13-.34-.35-.76-.84-1.05-1.04-1.18Z" style="fill:#009fbd;"/><path d="M111.58,189.56c-1.81,1.01-3.25,.13-3.23-1.97s1.51-4.61,3.32-5.62,3.25-.13,3.23,1.97-1.51,4.61-3.32,5.62Zm3.11-5.5c.02-1.96-1.33-2.79-3.02-1.84-1.69,.94-3.08,3.3-3.11,5.26-.02,1.96,1.33,2.79,3.02,1.84,1.69-.94,3.08-3.3,3.11-5.26Z" style="fill:#5195fb;"/><path d="M115.55,183.38c0-.22-.02-.51-.04-.73-.01-.11-.04-.26-.06-.36q-.06-.26-.2-.64c-.04-.1-.1-.23-.16-.32-.08-.14-.21-.31-.31-.43-.07-.08-.16-.18-.25-.24-.1-.08-.24-.19-.36-.25-.13-.07-.32-.17-.53-.22-.16-.04-.37-.07-.54-.08-.1,0-.24,0-.34,0-.1,0-.24,.02-.34,.05-.09,.02-.22,.05-.31,.07-.11,.03-.25,.08-.36,.12-.19,.08-.45,.2-.63,.3-.21,.12-.48,.3-.67,.44-.11,.07-.23,.18-.33,.26q-.41,.37-.62,.58c-.39,.41-.76,.87-1.09,1.37-.24,.37-.4,.66-.45,.76-.16,.31-.2,.39-.38,.8,0,0-.16,.37-.3,.82-.1,.31-.1,.33-.21,.82-.07,.29-.13,.81-.14,1.24,0,.22,.01,.52,.04,.74,.03,.25,.04,.27,.15,.67,.05,.18,.23,.6,.42,.85,.12,.15,.21,.27,.39,.42,.06,.05,.14,.11,.21,.15,.09,.06,.22,.12,.31,.17,.1,.05,.25,.11,.36,.13,.08,.02,.18,.04,.26,.06,.11,.02,.26,.03,.37,.03,.17,0,.4-.02,.58-.04,.12-.02,.27-.05,.38-.09,.54-.15,1-.42,1-.42,.2-.12,.47-.29,.66-.43,.11-.07,.24-.18,.34-.27,.4-.35,.4-.35,.62-.58,.26-.26,.4-.44,.56-.65,.02-.03,.25-.31,.51-.71q.16-.24,.45-.75c.11-.19,.12-.22,.38-.79,.05-.12,.11-.28,.16-.4,0,0,.23-.61,.35-1.22,.04-.19,.13-.65,.14-1.23,0,.19-.34,.39-.65,.56-.03,2.09-1.51,4.61-3.32,5.62-1.81,1.01-3.25,.13-3.23-1.97s1.51-4.61,3.32-5.62,3.25-.13,3.23,1.97c.31-.17,.65-.37,.65-.56Z" style="fill:#d0d0fc;"/><path d="M122.62,197.74c.61,.38,1.47,.35,2.42-.18,1.89-1.05,3.45-3.69,3.48-5.88l-13.83-7.63c-.02,1.96-1.42,4.32-3.11,5.26-.85,.48-1.62,.5-2.17,.16,4.4,2.76,8.81,5.51,13.21,8.27Z" style="fill:#009fbd;"/><path d="M113.75,182.01c.59,.32,.95,1.03,.94,2.05l13.83,7.63c.01-1.14-.39-1.94-1.05-2.29-4.57-2.46-9.15-4.92-13.72-7.38Z" style="fill:#009fbd;"/><path d="M127.48,189.39c-4.57-2.46-9.15-4.92-13.72-7.38-.54-.29-1.27-.25-2.08,.21-1.69,.94-3.08,3.3-3.11,5.26-.01,.97,.31,1.67,.85,2,4.4,2.76,8.81,5.51,13.21,8.27-.6-.38-.97-1.15-.95-2.24,.03-2.19,1.58-4.83,3.48-5.88,.91-.51,1.73-.56,2.33-.23Z" style="fill:#9f9ef2;"/><path d="M160.98,216.77c.25,.12,.58,.1,.95-.11,.79-.44,1.44-1.53,1.45-2.45l-34.85-22.53c-.03,2.19-1.58,4.83-3.48,5.88-.88,.49-1.68,.55-2.28,.26,12.74,6.32,25.48,12.63,38.21,18.95Z" style="fill:#009fbd;"/><path d="M127.61,189.48c.57,.39,.92,1.15,.91,2.21l34.85,22.53c0-.44-.14-.76-.38-.92-11.79-7.94-23.59-15.88-35.38-23.82Z" style="fill:#009fbd;"/><path d="M163.37,214.22c.01-.91-.62-1.3-1.41-.86-.79,.44-1.44,1.53-1.45,2.45-.01,.91,.62,1.3,1.41,.86,.79-.44,1.44-1.53,1.45-2.45Z" style="fill:#9f9ef2;"/><path d="M163,213.3c-11.79-7.94-23.59-15.88-35.38-23.82-.62-.41-1.49-.4-2.47,.15-1.89,1.05-3.45,3.69-3.48,5.88-.01,1.17,.41,1.98,1.09,2.32,12.74,6.32,25.48,12.63,38.21,18.95-.29-.14-.46-.48-.46-.96,.01-.91,.66-2.01,1.45-2.45,.41-.23,.77-.23,1.03-.06Z" style="fill:#5254cf;"/></g></g></g><path d="M251.86,272.01c-1.4,0-2.9-.19-4.44-.53-.05,0-.1,0-.15,0-5.51-.12-12.33-2.5-19.73-6.88-6.03-3.57-9.48-8.38-10.25-14.3-.61-4.74,.54-9.69,2.48-14.32-9.19-4.76-45.14-30.39-45.24-30.45l.73-1.34c.11,.06,36,25.67,45.13,30.39,4.7-10.26,12.87-18.64,13.38-19.15l1.09,1.08c-.12,.12-8.4,8.62-13.07,18.8,6.5,3.35,14.36,7.31,22.59,11.26,9.43,4.53,15.64,10.64,16.62,16.37,.43,2.54-.25,4.79-1.97,6.51-1.8,1.8-4.3,2.57-7.17,2.57Zm-23.56-27.79c6.17,0,15.12,2.85,23.64,9.86,4.71,3.87,6.77,8.58,5.39,12.3-.67,1.81-2.04,3.18-3.97,4.05,1.82-.23,3.39-.88,4.58-2.07,1.37-1.37,1.89-3.11,1.54-5.17-.88-5.16-6.92-11-15.77-15.25-8.2-3.94-16.04-7.89-22.54-11.23-1.84,4.39-2.92,9.03-2.35,13.41,.7,5.42,3.9,9.86,9.51,13.18,3.88,2.3,7.25,3.84,10.12,4.85-4.8-2.45-9.42-5.78-12.81-9.17-2.4-2.4-4.1-4.75-4.91-6.8-1.22-3.07-.27-4.92,.74-5.93,1.29-1.29,3.71-2.02,6.83-2.02Zm19.14,25.74c4.32,.08,7.46-1.43,8.46-4.11,1.15-3.09-.74-7.14-4.93-10.59-12.91-10.61-25.55-10.8-28.42-7.93-1,1-1.13,2.44-.4,4.28,.73,1.85,2.31,4.02,4.57,6.28,5.17,5.17,13.6,10.39,20.73,12.07Z" style="fill:#fc9f9c;"/><path d="M253.02,275.33c-.15,0-.3,0-.45,0-5.43-.12-12.58-2.66-20.14-7.13-6.03-3.57-9.45-8.36-10.18-14.24-.43-3.46,.1-7.04,1.19-10.51-16.31-3.79-61.28-27.64-61.52-27.66l.15-1.52c.24,.02,45.38,23.9,61.86,27.73,4.27-11.81,14.56-22.16,15.14-22.73l1.08,1.09c-.14,.14-10.42,10.47-14.69,22,8.53,2.05,17.24,4.71,24.21,8.05,9.31,4.47,15.45,10.54,16.42,16.24,.44,2.58-.25,4.87-2,6.62-1.95,1.95-5.08,2.24-8.24,1.84-.88,.15-1.82,.23-2.83,.23Zm-19.24-27.13c6.17,0,14.93,2.7,23.46,9.71,4.71,3.87,6.77,8.58,5.39,12.3-.52,1.4-1.45,2.54-2.74,3.38,1.33-.21,2.38-.68,3.11-1.42,1.38-1.38,1.93-3.21,1.57-5.28-.88-5.14-6.84-10.93-15.57-15.12-6.91-3.31-15.57-5.94-24.05-7.98-1.07,3.33-1.59,6.72-1.19,9.97,.67,5.38,3.85,9.79,9.44,13.11,5.69,3.37,11.27,5.65,15.88,6.52-10.31-3.67-22.76-12.39-23.97-18.74-.35-1.85,.24-3.45,1.7-4.63,1.44-1.15,3.87-1.82,6.95-1.82Zm0,1.54c-2.76,0-4.86,.57-5.99,1.48-1.03,.82-1.4,1.85-1.16,3.15,1.06,5.55,13.48,14.7,24.62,18.13,1.66,.51,3.18,.86,4.57,1.05,2.74-.52,4.65-1.86,5.39-3.87,1.15-3.09-.74-7.15-4.93-10.59-8.46-6.95-16.85-9.35-22.5-9.35Z" style="fill:#9f9ef2;"/></g></svg>