<?xml version="1.0" encoding="UTF-8"?><svg id="a" xmlns="http://www.w3.org/2000/svg" viewBox="0 0 300 300"><g id="b"><path id="c" d="M225.76,45.92c.03,3.14-2.01,6.31-6.14,8.75-8.26,4.88-21.74,5.02-30.1,.31-4.18-2.36-6.29-5.48-6.32-8.62l.74,71.63c.03,3.14,2.14,6.27,6.32,8.62,8.36,4.71,21.84,4.57,30.1-.31,4.13-2.44,6.18-5.61,6.14-8.75l-.74-71.63Z" style="fill:#9f9ef2;"/><path id="d" d="M219.43,37.3c-8.36-4.71-21.84-4.57-30.1,.31-8.26,4.88-8.18,12.66,.18,17.38,8.36,4.71,21.84,4.57,30.1-.31,8.26-4.88,8.18-12.66-.18-17.38Z" style="fill:#5254cf;"/></g><g id="e"><g id="f"><polygon id="g" points="273.53 107.29 247.79 122.51 248.11 153.17 273.85 137.96 273.53 107.29" style="fill:#9f9ef2;"/><polygon id="h" points="247.79 122.51 221.75 107.83 222.07 138.49 248.11 153.17 247.79 122.51" style="fill:#5254cf;"/></g><polygon id="i" points="273.53 107.29 247.48 92.61 221.75 107.83 247.79 122.51 273.53 107.29" style="fill:#d0d0fc;"/></g><g id="j"><polygon id="k" points="51.2 213.35 51.2 229.64 45.52 226.36 45.52 210.07 51.2 213.35" style="fill:#f66;"/><polygon id="l" points="51.2 206.52 37.09 214.66 31.41 211.38 45.52 203.24 51.2 206.52" style="fill:#f66;"/><polygon id="m" points="71.22 194.96 57.12 203.11 51.43 199.82 65.54 191.68 71.22 194.96" style="fill:#f66;"/><polygon id="n" points="57.12 186.82 51.2 190.23 45.52 186.95 51.43 183.54 57.12 186.82" style="fill:#f66;"/><polygon id="o" points="51.2 190.23 51.2 206.52 45.52 203.24 45.52 186.95 51.2 190.23" style="fill:#ff8980;"/><polygon id="p" points="37.09 214.66 37.09 221.5 31.41 218.21 31.41 211.38 37.09 214.66" style="fill:#ff8980;"/><polygon id="q" points="71.22 194.96 71.22 201.79 57.12 209.94 57.12 226.22 51.2 229.64 51.2 213.35 37.09 221.5 37.09 214.66 51.2 206.52 51.2 190.23 57.12 186.82 57.12 203.11 71.22 194.96" style="fill:#e84343;"/></g><g><polygon id="r" points="125.9 100.92 133.75 87.32 141.03 91.52 146.38 82.26 139.1 78.06 146.95 64.46 141.6 61.37 133.75 74.97 126.47 70.76 121.12 80.03 128.4 84.23 120.55 97.83 125.9 100.92" style="fill:#e84343;"/><g id="s"><rect id="t" x="127.78" y="64.63" width="15.7" height="4.72" transform="translate(9.8 150.95) rotate(-60)" style="fill:#f66;"/><rect id="u" x="114.58" y="87.49" width="15.7" height="4.72" transform="translate(-16.6 150.95) rotate(-60)" style="fill:#f66;"/><rect id="v" x="116.4" y="71.86" width="10.7" height="4.72" transform="translate(-3.4 142.55) rotate(-60)" style="fill:#f66;"/></g></g><g><g id="w"><g id="x"><path id="y" d="M189.77,106.37c-.93,.54-1.59,2.05-1.59,4.94,0,4.63,1.61,7.36,3.7,8.57,.94,.54,1.77,.69,2.43,.31l2.99-1.73c-.66,.38-1.49,.23-2.43-.31-2.08-1.2-3.7-3.94-3.7-8.57,0-2.88,.66-4.4,1.59-4.94l-2.99,1.73Z" style="fill:#e84343;"/><path id="z" d="M197.18,124.93c4.53-2.62,3.76-17.55-5.1-22.67-2.05-1.18-3.9-1.35-5.3-.54l2.99-1.73c1.41-.81,3.25-.64,5.3,.54,4.53,2.62,7.81,8.72,7.81,15.33,0,3.84-1,6.34-2.71,7.33l-2.99,1.73Z" style="fill:#ff8980;"/></g><path id="aa" d="M188.17,111.31c0,4.63,1.61,7.36,3.7,8.57,2.24,1.29,3.91,.33,3.91-4.66,0-4.57-1.82-7.55-3.75-8.66-1.93-1.11-3.85-.18-3.85,4.75Zm-4.17-2.4c0-14.88,15.88-6.01,15.88,8.69,0,6.91-3.23,9.5-8.07,6.7-4.69-2.71-7.81-8.78-7.81-15.39Z" style="fill:#f66;"/></g><g id="ab"><g id="ac"><path id="ad" d="M214.24,141.18c-.93,.54-1.59,2.05-1.59,4.94,0,4.63,1.61,7.36,3.7,8.57,.94,.54,1.77,.69,2.43,.31l2.99-1.73c-.66,.38-1.49,.23-2.43-.31-2.08-1.2-3.7-3.94-3.7-8.57,0-2.88,.66-4.4,1.59-4.94l-2.99,1.73Z" style="fill:#e84343;"/><path id="ae" d="M221.65,159.74c4.53-2.62,3.76-17.55-5.1-22.67-2.05-1.18-3.9-1.35-5.3-.54l2.99-1.73c1.41-.81,3.25-.64,5.3,.54,4.53,2.62,7.81,8.72,7.81,15.33,0,3.84-1,6.34-2.71,7.34l-2.99,1.73Z" style="fill:#ff8980;"/></g><path id="af" d="M212.64,146.12c0,4.63,1.61,7.36,3.7,8.57,2.24,1.29,3.91,.33,3.91-4.66,0-4.57-1.82-7.54-3.75-8.66-1.93-1.11-3.85-.18-3.85,4.75Zm-4.16-2.4c0-14.88,15.88-6.01,15.88,8.69,0,6.91-3.23,9.5-8.07,6.7-4.69-2.71-7.81-8.78-7.81-15.39Z" style="fill:#f66;"/></g><g id="ag"><polygon id="ah" points="195.31 147.17 217.28 117.05 220.27 115.33 198.3 145.45 195.31 147.17" style="fill:#e84343;"/><polygon id="ai" points="217.28 117.05 211.86 113.93 214.86 112.2 220.27 115.33 217.28 117.05" style="fill:#ff8980;"/><polygon id="aj" points="195.31 147.17 189.89 144.05 211.86 113.93 217.28 117.05 195.31 147.17" style="fill:#f66;"/></g></g><g><g id="ak"><g id="al"><polygon id="am" points="105.79 99.62 103.76 99.43 99.26 96.83 101.29 97.01 105.79 99.62" style="fill:#e1edff;"/><polygon id="an" points="103.76 99.43 103.76 112.3 99.26 109.7 99.26 96.83 103.76 99.43" style="fill:#88beff;"/><polygon id="ao" points="103.76 112.3 113.73 186.07 109.23 183.47 99.26 109.7 103.76 112.3" style="fill:#5254cf;"/></g><polygon id="ap" points="105.79 99.62 115.21 175.63 113.73 186.07 103.76 112.3 103.76 99.43 105.79 99.62" style="fill:#9f9ef2;"/></g><g id="aq"><polygon id="ar" points="104.21 95.69 99.01 98.69 94.12 95.87 99.33 92.87 104.21 95.69" style="fill:#d0d0fc;"/><path id="as" d="M99.01,98.69v15.25c0,.83,.29,1.41,.76,1.68l-4.89-2.82c-.47-.27-.76-.85-.76-1.68v-15.25l4.89,2.82Z" style="fill:#9f9ef2;"/></g><g id="at"><g id="au"><path d="M101.39,83.03c0,13.7,.11,12.72-.25,13.12-.87,.95-3.18,.87-3.95-.01-.35-.4-.24,.48-.24-13.11,0,.72,.96,1.15,1.68,1.24,1.13,.18,2.76-.29,2.76-1.24Z" style="fill:#9f9ef2;"/></g><path id="av" d="M96.95,83.03c0-.71,.99-1.28,2.22-1.28s2.22,.57,2.22,1.28-.99,1.28-2.22,1.28-2.22-.57-2.22-1.28Z" style="fill:#d0d0fc;"/></g><polygon id="aw" points="98.87 102 96.74 104.64 92.02 101.92 94.14 99.27 98.87 102" style="fill:#d0d0fc;"/><polygon id="ax" points="96.74 104.64 86.87 195.68 82.15 192.95 92.02 101.92 96.74 104.64" style="fill:#9f9ef2;"/><g id="ay"><polygon id="az" points="98.87 102 98.87 115.48 88.42 204.84 86.87 195.68 96.74 104.64 98.87 102" style="fill:#5254cf;"/><g id="ba"><path d="M86.87,195.68l9.87-91.04-9.87,91.04Z" style="fill:#81b2fc;"/><path d="M86.87,195.68l9.87-91.04-9.87,91.04Z" style="fill:#e1edff;"/></g><path d="M99.15,113.76c-2.69,.47-3.1-3.12-1.3-6.23,.38-.65,.82-1.23,1.3-1.73v-.38c-3.49,3.33-3.56,9.2,0,8.63v-.28Z" style="fill:#fff;"/></g><path id="bb" d="M104.21,95.69v15.25c0,1.66-1.16,3.68-2.6,4.51-1.43,.82-2.6,.17-2.6-1.5v-15.25l5.2-3Z" style="fill:#9191e8;"/><path id="bc" d="M101.45,101.77c-.29-.17-.06-.84,.31-1.06,.24-.14,.44-.03,.44,.26,0,.44-.47,.97-.76,.8Z" style="fill:#efefef; isolation:isolate;"/><path id="bd" d="M101.65,110.87c-.11-.06-.02-.32,.12-.4,.09-.05,.17-.01,.17,.1,0,.16-.18,.36-.29,.3Z" style="fill:#1c6df6;"/><polygon points="88.42 204.84 84.73 202.73 82.15 192.95 86.87 195.68 88.42 204.84" style="fill:#5254cf;"/><path d="M86.4,201.76s-.85-.36-1.12,.39c-.27,.75,.29,12.14,.29,12.14l1.3-10.33s.59-1.58-.47-2.19Z" style="fill:#393a8f;"/><path d="M112,183.16s-.85-.36-1.12,.39c-.27,.75,.29,12.14,.29,12.14l1.3-10.33s.59-1.58-.47-2.19Z" style="fill:#393a8f;"/></g><g id="be"><polygon id="bf" points="45.56 143.51 62.72 175.16 53.9 170.07 36.74 138.42 45.56 143.51" style="fill:#fcd561;"/><g id="bg"><polygon id="bh" points="85.4 82.51 68.35 92.36 59.53 87.27 76.58 77.42 85.4 82.51" style="fill:#fceab2;"/><polygon id="bi" points="68.35 92.36 59.52 146.27 50.7 141.18 59.53 87.27 68.35 92.36" style="fill:#fcd561;"/></g><g id="bj"><polygon id="bk" points="50.97 130.49 33.27 140.71 24.45 135.62 42.15 125.4 50.97 130.49" style="fill:#fceab2;"/><polygon id="bl" points="33.27 140.71 33.27 150.61 24.45 145.52 24.45 135.62 33.27 140.71" style="fill:#fcd96e;"/></g><polygon id="bm" points="85.4 82.51 85.4 92.41 75.31 98.23 62.72 175.16 45.56 143.51 33.27 150.61 33.27 140.71 50.97 130.49 59.52 146.27 68.35 92.36 85.4 82.51" style="fill:#ffc700;"/></g><g id="bn"><g id="bo"><path id="bp" d="M175.22,130.13c-.59,.34-1.1,.63-1.61,.93l-4.65-2.68c.51-.29,1.02-.59,1.61-.93l4.65,2.68Z" style="fill:#eaac88;"/><path id="bq" d="M173.61,131.06c-.14,.73-.23,1.4-.4,2.09-.58,2.4-1.75,4.44-3.63,5.93-1.86,1.49-3.62,1.91-4.83,1.21l-4.65-2.68c1.2,.69,2.96,.27,4.83-1.21,1.88-1.5,3.05-3.53,3.63-5.93,.17-.69,.26-1.36,.4-2.09l4.65,2.68Z" style="fill:#feb30f;"/></g><path id="br" d="M159.42,111.71c0,5.25-4.71,35.35,1.56,38.97l-4.65-2.68c-.68-.39-1.25-1.03-1.68-1.92-3.68-7.68,.11-33.61,.11-37.06l4.65,2.68Z" style="fill:#fcd96e;"/><path id="bs" d="M143.6,120.84c-.09,1.5-1.04,15.41-1.55,21.03-.42,4.56-1.71,9.27-4.1,14.09-1.27,2.56-3.67,8.27-1.2,9.69l-4.65-2.68c-1.89-1.09-.84-4.54-.14-6.6,1.08-3.17,4.63-8.25,5.44-17.18,.51-5.62,1.46-19.53,1.55-21.03l4.65,2.68Z" style="fill:#fcd96e;"/><path id="bt" d="M175.17,94.83c-37.78,21.81-26.95,15.54-32.19,18.72-6.91,4.19-10.18,13.67-11.82,21.74,.04,.07-4.61-2.61-4.61-2.61,1.6-8.11,4.88-17.62,11.78-21.81,5.24-3.18-5.59,3.1,32.19-18.72l4.65,2.68Z" style="fill:#fceab2;"/><path id="bu" d="M175.17,94.83v7.73c-3.52,2.03-7.02,4.05-10.61,6.13-.23,2.06-1.46,18.88-1.71,25.23-.07,1.69,.19,3.29,.63,4.63,.93,2.89,3.7,2.46,6.12,.54,1.88-1.5,3.05-3.53,3.63-5.93,.17-.69,.26-1.36,.4-2.09,.51-.29,1.02-.59,1.61-.93-.47,4.13-1.03,8.22-3.13,12.59-1.29,2.68-2.94,5.06-5.09,6.71-2.29,1.77-4.45,2.16-6.02,1.26-6.27-3.62-1.56-34.28-1.56-38.97-3.57,2.06-7.09,4.09-10.7,6.17-.96,14.43-1.42,26.8-4.09,38.68-.8,3.54-3.07,9.16-6.72,9.33-1.83,.09-2.43-1.58-2.19-3.44,.28-2.21,1.27-4.59,2.22-6.5,2.39-4.81,3.68-9.53,4.1-14.09,.51-5.62,1.46-19.53,1.55-21.03-4.57,2.47-7.09,4.52-10.15,12.07-.58,1.43-1.21,2.19-2.25,2.44,1.6-8.11,4.88-17.62,11.78-21.81,5.24-3.18-5.59,3.1,32.19-18.72Z" style="fill:#ffc700;"/></g><g id="bv"><g id="bw"><path id="bx" d="M255.33,186.79c0-4.24-2.79-8.49-8.39-11.72-11.09-6.4-29.1-6.46-40.3-.15v2.36c11.2-6.3,29.21-6.25,40.3,.15,5.6,3.23,8.39,7.48,8.39,11.72v-2.36Z" style="fill:#ffc700;"/><path id="by" d="M256.34,203.62c7.93-4.66,11.89-10.74,11.89-16.82v2.36c0,6.08-3.97,12.16-11.89,16.82v-2.36Z" style="fill:#feb30f;"/><g id="bz"><polygon id="ca" points="179.68 169.9 255.9 213.9 255.9 216.27 179.68 172.27 179.68 169.9" style="fill:#ffc700;"/><polygon id="cb" points="255.9 213.9 265.03 208.63 265.03 210.99 255.9 216.27 255.9 213.9" style="fill:#eaac88;"/></g></g><path id="cc" d="M256.34,203.62c15.95-9.38,15.86-24.5-.27-33.82-16.13-9.31-42.32-9.37-58.57-.16l-8.68-5.01-9.13,5.27,76.21,44,9.13-5.27-8.68-5.01Zm-49.7-28.7c11.2-6.3,29.21-6.25,40.3,.15,11.1,6.41,11.18,16.8,.27,23.27l-40.56-23.42Z" style="fill:#fcd561;"/></g><g><g><g style="isolation:isolate;"><g><polygon points="206.35 229.22 144.74 193.44 162.32 174.73 223.96 210.51 206.35 229.22" style="fill:#9f9ef2;"/><path d="M152.31,189.32l8.43-8.97c1.21-1.29,3.16-1.58,4.69-.69l50.06,29.07c2.12,1.23,2.54,4.12,.86,5.91l-8.43,8.97c-1.21,1.29-3.16,1.58-4.69,.69l-50.06-29.07c-2.12-1.23-2.54-4.12-.86-5.91Z" style="fill:#393a8f;"/><path d="M205.15,224.81c-1.15,0,2.66,2.01-51.52-29.46-1.63-.95-1.94-3.15-.66-4.52l8.43-8.97c.55-.58,1.32-.92,2.13-.92,1.15,0-2.66-2.01,51.52,29.46,1.62,.94,1.94,3.15,.66,4.52l-8.43,8.97c-.55,.58-1.32,.92-2.13,.92Z" style="fill:#efefef; isolation:isolate;"/></g><polygon points="143.19 265.7 81.58 229.91 144.74 193.44 206.35 229.22 143.19 265.7" style="fill:#9f9ef2;"/><polygon points="143.19 274.49 81.58 238.71 81.58 229.91 143.19 265.7 143.19 274.49" style="fill:#5254cf;"/><polygon points="223.96 210.51 223.96 227.85 143.19 274.49 143.19 265.7 206.35 229.22 223.96 210.51" style="fill:#393a8f;"/></g><g><g style="isolation:isolate;"><g><path d="M152.73,202.03v2.93c0,.58-.38,1.15-1.14,1.58l-4.85,2.83c-1.52,.88-3.98,.88-5.51,0l-4.88-2.83c-.77-.44-1.16-1.02-1.16-1.61v-2.93c0,.58,.39,1.17,1.16,1.61l4.89,2.82c1.53,.89,3.99,.89,5.51,0l4.85-2.82c.75-.44,1.13-1.01,1.13-1.58Z" style="fill:#5254cf;"/><path d="M139.06,209.92v2.93c0,.58-.38,1.15-1.14,1.58l-4.85,2.83c-1.52,.88-3.98,.88-5.51,0l-4.88-2.83c-.77-.44-1.15-1.02-1.15-1.61v-2.93c0,.58,.39,1.17,1.15,1.61l4.89,2.82c1.53,.89,3.99,.89,5.51,0l4.85-2.82c.76-.44,1.13-1.01,1.13-1.58Z" style="fill:#5254cf;"/><path d="M125.49,217.76v2.93c0,.58-.38,1.15-1.14,1.58l-4.85,2.83c-1.52,.88-3.98,.88-5.51,0l-4.88-2.83c-.77-.44-1.15-1.02-1.15-1.61v-2.93c0,.58,.39,1.17,1.15,1.61l4.89,2.82c1.53,.89,3.99,.89,5.51,0l4.85-2.82c.76-.44,1.13-1.01,1.13-1.58Z" style="fill:#5254cf;"/><path d="M112.04,225.52v2.93c0,.58-.38,1.15-1.14,1.58l-4.85,2.83c-1.52,.88-3.98,.88-5.51,0l-4.88-2.83c-.77-.44-1.15-1.02-1.15-1.61v-2.93c0,.58,.39,1.17,1.15,1.61l4.89,2.82c1.53,.89,3.99,.89,5.51,0l4.85-2.82c.76-.44,1.13-1.01,1.13-1.58Z" style="fill:#5254cf;"/></g><g><path d="M151.6,203.61l-4.85,2.82c-1.52,.89-3.98,.89-5.51,0l-4.89-2.82c-1.5-.86-1.58-2.28-.02-3.19l4.85-2.82c1.52-.88,3.98-.87,5.51,0l4.89,2.82c1.48,.85,1.57,2.28,.02,3.18Z" style="fill:#d0d0fc;"/><path d="M137.94,211.5l-4.85,2.82c-1.52,.89-3.98,.89-5.51,0l-4.89-2.82c-1.49-.86-1.58-2.28-.02-3.19l4.85-2.82c1.52-.88,3.98-.87,5.51,0l4.89,2.82c1.49,.86,1.57,2.28,.02,3.18Z" style="fill:#d0d0fc;"/><path d="M124.36,219.34l-4.85,2.82c-1.52,.89-3.98,.89-5.51,0l-4.89-2.82c-1.49-.86-1.58-2.28-.02-3.19l4.85-2.82c1.52-.88,3.98-.87,5.51,0l4.89,2.82c1.49,.86,1.57,2.28,.02,3.18Z" style="fill:#d0d0fc;"/><path d="M110.91,227.1l-4.85,2.82c-1.52,.89-3.98,.89-5.51,0l-4.89-2.82c-1.49-.86-1.58-2.28-.02-3.19l4.85-2.82c1.52-.88,3.98-.87,5.51,0l4.89,2.82c1.48,.85,1.57,2.28,.02,3.18Z" style="fill:#d0d0fc;"/></g></g><g style="isolation:isolate;"><g><path d="M167.2,210.38v2.93c0,.58-.38,1.15-1.14,1.58l-4.85,2.83c-1.52,.88-3.98,.88-5.51,0l-4.88-2.83c-.77-.44-1.16-1.02-1.16-1.61v-2.93c0,.58,.39,1.17,1.16,1.61l4.89,2.82c1.53,.89,3.99,.89,5.51,0l4.85-2.82c.76-.44,1.13-1.01,1.13-1.58Z" style="fill:#5254cf;"/><path d="M153.53,218.27v2.93c0,.58-.38,1.15-1.14,1.58l-4.85,2.83c-1.52,.88-3.98,.88-5.51,0l-4.88-2.83c-.77-.44-1.15-1.02-1.15-1.61v-2.93c0,.58,.39,1.17,1.15,1.61l4.89,2.82c1.53,.89,3.99,.89,5.51,0l4.85-2.82c.76-.44,1.13-1.01,1.13-1.58Z" style="fill:#5254cf;"/><path d="M139.95,226.11v2.93c0,.58-.38,1.15-1.14,1.58l-4.85,2.83c-1.52,.88-3.98,.88-5.51,0l-4.88-2.83c-.77-.44-1.15-1.02-1.15-1.61v-2.93c0,.58,.39,1.17,1.15,1.61l4.89,2.82c1.53,.89,3.99,.89,5.51,0l4.85-2.82c.76-.44,1.13-1.01,1.13-1.58Z" style="fill:#5254cf;"/><path d="M126.51,233.87v2.93c0,.58-.38,1.15-1.14,1.58l-4.85,2.83c-1.52,.88-3.98,.88-5.51,0l-4.88-2.83c-.77-.44-1.15-1.02-1.15-1.61v-2.93c0,.58,.39,1.17,1.15,1.61l4.89,2.82c1.53,.89,3.99,.89,5.51,0l4.85-2.82c.76-.44,1.13-1.01,1.13-1.58Z" style="fill:#ffc700;"/></g><g><path d="M166.07,211.96l-4.85,2.82c-1.52,.89-3.98,.89-5.51,0l-4.89-2.82c-1.5-.86-1.58-2.28-.02-3.19l4.85-2.82c1.52-.88,3.98-.87,5.51,0l4.89,2.82c1.49,.86,1.57,2.28,.02,3.18Z" style="fill:#d0d0fc;"/><path d="M152.4,219.85l-4.85,2.82c-1.52,.89-3.98,.89-5.51,0l-4.89-2.82c-1.49-.86-1.58-2.28-.02-3.19l4.85-2.82c1.52-.88,3.98-.87,5.51,0l4.89,2.82c1.48,.86,1.57,2.28,.02,3.18Z" style="fill:#d0d0fc;"/><path d="M138.82,227.69l-4.85,2.82c-1.52,.89-3.98,.89-5.51,0l-4.89-2.82c-1.5-.86-1.58-2.28-.02-3.19l4.85-2.82c1.52-.88,3.98-.87,5.51,0l4.89,2.82c1.48,.86,1.57,2.28,.02,3.18Z" style="fill:#d0d0fc;"/><path d="M125.38,235.45l-4.85,2.82c-1.52,.89-3.98,.89-5.51,0l-4.89-2.82c-1.5-.86-1.58-2.28-.02-3.19l4.85-2.82c1.52-.88,3.98-.87,5.51,0l4.89,2.82c1.48,.86,1.57,2.28,.02,3.18Z" style="fill:#ffe092;"/></g></g></g><g><g style="isolation:isolate;"><g><path d="M181.9,218.87v2.93c0,.58-.38,1.15-1.14,1.58l-4.85,2.83c-1.52,.88-3.98,.88-5.51,0l-4.88-2.83c-.77-.44-1.15-1.02-1.15-1.61v-2.93c0,.58,.39,1.17,1.15,1.61l4.89,2.82c1.53,.89,3.99,.89,5.51,0l4.85-2.82c.76-.44,1.13-1.01,1.13-1.58Z" style="fill:#5254cf;"/><path d="M168.24,226.76v2.93c0,.58-.38,1.15-1.14,1.58l-4.85,2.83c-1.52,.88-3.98,.88-5.51,0l-4.88-2.83c-.77-.44-1.16-1.02-1.16-1.61v-2.93c0,.58,.39,1.17,1.16,1.61l4.89,2.82c1.53,.89,3.99,.89,5.51,0l4.85-2.82c.76-.44,1.13-1.01,1.13-1.58Z" style="fill:#5254cf;"/><path d="M154.66,234.6v2.93c0,.58-.38,1.15-1.14,1.58l-4.85,2.83c-1.52,.88-3.98,.88-5.51,0l-4.88-2.83c-.77-.44-1.16-1.03-1.16-1.61v-2.93c0,.58,.39,1.17,1.16,1.61l4.89,2.82c1.53,.89,3.99,.89,5.51,0l4.85-2.82c.76-.44,1.13-1.01,1.13-1.58Z" style="fill:#5254cf;"/><path d="M141.21,242.36v2.93c0,.58-.38,1.15-1.14,1.58l-4.85,2.83c-1.52,.88-3.98,.88-5.51,0l-4.88-2.83c-.77-.44-1.16-1.02-1.16-1.61v-2.93c0,.58,.39,1.17,1.16,1.61l4.89,2.82c1.53,.89,3.99,.89,5.51,0l4.85-2.82c.76-.44,1.13-1.01,1.13-1.58Z" style="fill:#e84343;"/></g><g><path d="M180.77,220.45l-4.85,2.82c-1.52,.89-3.98,.89-5.51,0l-4.89-2.82c-1.49-.86-1.58-2.28-.02-3.19l4.85-2.82c1.52-.88,3.98-.87,5.51,0l4.89,2.82c1.48,.86,1.56,2.28,.02,3.18Z" style="fill:#d0d0fc;"/><path d="M167.11,228.34l-4.85,2.82c-1.52,.89-3.98,.89-5.51,0l-4.89-2.82c-1.5-.86-1.58-2.28-.02-3.19l4.85-2.82c1.52-.88,3.98-.87,5.51,0l4.89,2.82c1.48,.86,1.57,2.28,.02,3.18Z" style="fill:#d0d0fc;"/><path d="M153.53,236.18l-4.85,2.82c-1.52,.89-3.98,.89-5.51,0l-4.89-2.82c-1.5-.86-1.58-2.28-.02-3.19l4.85-2.82c1.52-.88,3.98-.87,5.51,0l4.89,2.82c1.49,.86,1.56,2.28,.02,3.18Z" style="fill:#d0d0fc;"/><path d="M140.08,243.94l-4.85,2.82c-1.52,.89-3.98,.89-5.51,0l-4.89-2.82c-1.5-.86-1.58-2.28-.02-3.19l4.85-2.82c1.52-.88,3.98-.87,5.51,0l4.89,2.82c1.48,.86,1.57,2.28,.02,3.18Z" style="fill:#f66;"/></g></g><g style="isolation:isolate;"><g><path d="M196.37,227.22v2.93c0,.58-.38,1.15-1.14,1.58l-4.85,2.83c-1.52,.88-3.98,.88-5.51,0l-4.88-2.83c-.77-.44-1.15-1.02-1.15-1.61v-2.93c0,.58,.39,1.17,1.15,1.61l4.89,2.82c1.53,.89,3.99,.89,5.51,0l4.85-2.82c.76-.44,1.13-1.01,1.13-1.58Z" style="fill:#393a8f;"/><path d="M182.7,235.11v2.93c0,.58-.38,1.15-1.14,1.58l-4.85,2.83c-1.52,.88-3.98,.88-5.51,0l-4.88-2.83c-.77-.44-1.16-1.02-1.16-1.61v-2.93c0,.58,.39,1.17,1.16,1.61l4.89,2.82c1.53,.89,3.99,.89,5.51,0l4.85-2.82c.76-.44,1.13-1.01,1.13-1.58Z" style="fill:#393a8f;"/><path d="M169.12,242.95v2.93c0,.58-.38,1.15-1.14,1.58l-4.85,2.83c-1.52,.88-3.98,.88-5.51,0l-4.88-2.83c-.77-.44-1.16-1.03-1.16-1.61v-2.93c0,.58,.39,1.17,1.16,1.61l4.89,2.82c1.53,.89,3.99,.89,5.51,0l4.85-2.82c.76-.44,1.13-1.01,1.13-1.58Z" style="fill:#393a8f;"/><path d="M155.68,250.71v2.93c0,.58-.38,1.15-1.14,1.58l-4.85,2.83c-1.52,.88-3.98,.88-5.51,0l-4.88-2.83c-.77-.44-1.16-1.02-1.16-1.61v-2.93c0,.58,.39,1.17,1.16,1.61l4.89,2.82c1.53,.89,3.99,.89,5.51,0l4.85-2.82c.76-.44,1.13-1.01,1.13-1.58Z" style="fill:#393a8f;"/></g><g><path d="M195.24,228.8l-4.85,2.82c-1.52,.89-3.98,.89-5.51,0l-4.89-2.82c-1.5-.86-1.58-2.28-.02-3.19l4.85-2.82c1.52-.88,3.98-.87,5.51,0l4.89,2.82c1.48,.86,1.56,2.28,.02,3.18Z" style="fill:#d0d0fc;"/><path d="M181.57,236.69l-4.85,2.82c-1.52,.89-3.98,.89-5.51,0l-4.89-2.82c-1.5-.86-1.58-2.28-.02-3.19l4.85-2.82c1.52-.88,3.98-.87,5.51,0l4.89,2.82c1.48,.85,1.57,2.28,.02,3.18Z" style="fill:#fff;"/><path d="M168,244.53l-4.85,2.82c-1.52,.89-3.98,.89-5.51,0l-4.89-2.82c-1.5-.86-1.58-2.28-.02-3.19l4.85-2.82c1.52-.88,3.98-.87,5.51,0l4.89,2.82c1.48,.85,1.57,2.28,.02,3.18Z" style="fill:#fff;"/><path d="M154.55,252.29l-4.85,2.82c-1.52,.89-3.98,.89-5.51,0l-4.89-2.82c-1.5-.86-1.58-2.28-.02-3.19l4.85-2.82c1.52-.88,3.98-.87,5.51,0l4.89,2.82c1.49,.86,1.56,2.28,.02,3.18Z" style="fill:#fff;"/></g></g></g></g><path d="M81.58,229.91c68.68,39.35,62,35.42,61.39,35.42l63.26-36.32c-.06,.04,17.73-18.5,17.73-18.5l-17.45,18.91-63.33,36.77-61.6-36.27Z" style="fill:#9f9ef2;"/></g></svg>