<?xml version="1.0" encoding="UTF-8"?><svg xmlns="http://www.w3.org/2000/svg" xmlns:xlink="http://www.w3.org/1999/xlink" viewBox="0 0 300 300"><defs><linearGradient id="b" x1="131.79" y1="132" x2="27.05" y2="46.3" gradientTransform="translate(-5.92 95.09) rotate(3.82)" gradientUnits="userSpaceOnUse"><stop offset=".03" stop-color="#dddbff"/><stop offset=".58" stop-color="#ecebf5"/><stop offset="1" stop-color="#f2f2f2"/></linearGradient><linearGradient id="c" x1="104.4" y1="140.53" x2="107.97" y2="88.56" xlink:href="#b"/><linearGradient id="d" x1="205.39" y1="222.74" x2="183.63" y2="203.87" gradientTransform="matrix(1, 0, 0, 1, 0, 0)" xlink:href="#b"/><linearGradient id="e" x1="163.01" y1="149.84" x2="197.4" y2="161.04" gradientTransform="translate(-2.29 25.14) rotate(.99)" gradientUnits="userSpaceOnUse"><stop offset="0" stop-color="#e4e4e4"/><stop offset=".58" stop-color="#f6f7f5"/><stop offset=".99" stop-color="#fefffd"/></linearGradient><linearGradient id="f" x1="207.57" y1="170.73" x2="157.69" y2="141.32" gradientTransform="translate(-2.29 25.14) rotate(.99)" gradientUnits="userSpaceOnUse"><stop offset="0" stop-color="#6b33f9"/><stop offset=".2" stop-color="#743bf9"/><stop offset=".52" stop-color="#8d54f9"/><stop offset=".93" stop-color="#b77bfa"/><stop offset="1" stop-color="#bf83fb"/></linearGradient><linearGradient id="g" x1="-2684.29" y1="178.92" x2="-2684.21" y2="178.92" gradientTransform="translate(-2426.55 16.07) rotate(179.22) scale(1 -1)" gradientUnits="userSpaceOnUse"><stop offset=".02" stop-color="#fed488"/><stop offset=".17" stop-color="#fdcf80"/><stop offset=".4" stop-color="#fcc36c"/><stop offset=".68" stop-color="#faaf4c"/><stop offset=".99" stop-color="#f7931f"/><stop offset="1" stop-color="#f7931e"/></linearGradient><linearGradient id="h" x1="-2683.28" y1="172.93" x2="-2683.24" y2="172.93" xlink:href="#g"/><linearGradient id="i" x1="-2683.46" y1="173.37" x2="-2683.41" y2="173.37" xlink:href="#g"/><linearGradient id="j" x1="-2684.39" y1="178.7" x2="-2684.32" y2="178.7" xlink:href="#g"/><linearGradient id="k" x1="-2682.75" y1="172.18" x2="-2682.75" y2="172.18" xlink:href="#g"/><linearGradient id="l" x1="-2683.08" y1="172.55" x2="-2683.04" y2="172.55" xlink:href="#g"/><linearGradient id="m" x1="-2682.92" y1="172.32" x2="-2682.88" y2="172.32" xlink:href="#g"/><linearGradient id="n" x1="-2618.91" y1="190.97" x2="-2610.26" y2="190.97" gradientTransform="translate(-2426.55 16.07) rotate(179.22) scale(1 -1)" xlink:href="#f"/><linearGradient id="o" x1="48.94" y1="229.98" x2="147.85" y2="229.98" gradientTransform="matrix(1, 0, 0, 1, 0, 0)" xlink:href="#f"/><linearGradient id="p" x1="116.22" y1="235.13" x2="132.72" y2="235.13" gradientTransform="matrix(1, 0, 0, 1, 0, 0)" xlink:href="#f"/><linearGradient id="q" x1="102.75" y1="231.99" x2="119.82" y2="231.99" gradientTransform="matrix(1, 0, 0, 1, 0, 0)" xlink:href="#f"/><linearGradient id="r" x1="80.52" y1="226.79" x2="98.53" y2="226.79" gradientTransform="matrix(1, 0, 0, 1, 0, 0)" xlink:href="#f"/><linearGradient id="s" x1="65.69" y1="223.32" x2="84.35" y2="223.32" gradientTransform="matrix(1, 0, 0, 1, 0, 0)" xlink:href="#f"/><linearGradient id="t" x1="14.13" y1="542.93" x2="16.14" y2="542.93" gradientTransform="translate(-30.03 -325.69) rotate(-16.72)" gradientUnits="userSpaceOnUse"><stop offset="0" stop-color="#f14a73"/><stop offset="1" stop-color="#6c2656"/></linearGradient><linearGradient id="u" x1="10.43" y1="545.7" x2="16.28" y2="545.7" xlink:href="#t"/><linearGradient id="v" x1="6.81" y1="545.86" x2="10.11" y2="545.86" xlink:href="#t"/><linearGradient id="w" x1="6.37" y1="547.13" x2="6.49" y2="547.13" xlink:href="#t"/><linearGradient id="x" x1="6.26" y1="547.35" x2="6.32" y2="547.35" xlink:href="#t"/><linearGradient id="y" x1="6.55" y1="546.91" x2="6.81" y2="546.91" xlink:href="#t"/><linearGradient id="z" x1="6.22" y1="547.58" x2="6.24" y2="547.58" xlink:href="#t"/><linearGradient id="aa" x1="2.68" y1="549.14" x2="4.18" y2="549.14" xlink:href="#t"/><linearGradient id="ab" x1="4.18" y1="549.23" x2="5.22" y2="549.23" xlink:href="#t"/><linearGradient id="ac" x1="14.33" y1="550.36" x2="17.78" y2="550.36" xlink:href="#t"/><linearGradient id="ad" x1="21.85" y1="550.67" x2="23.98" y2="550.67" xlink:href="#t"/><linearGradient id="ae" x1="9.1" y1="551.94" x2="9.1" y2="551.94" xlink:href="#t"/><linearGradient id="af" x1="-1.37" y1="551.62" x2="-1.25" y2="551.62" xlink:href="#t"/><linearGradient id="ag" x1="-1.19" y1="550.44" x2="2.37" y2="550.44" xlink:href="#t"/><linearGradient id="ah" x1="-1.52" y1="552.06" x2="-1.5" y2="552.06" xlink:href="#t"/><linearGradient id="ai" x1="-1.48" y1="551.84" x2="-1.42" y2="551.84" xlink:href="#t"/><linearGradient id="aj" x1="-1.42" y1="552.52" x2="-1.37" y2="552.52" xlink:href="#t"/><linearGradient id="ak" x1="-1.5" y1="552.3" x2="-1.48" y2="552.3" xlink:href="#t"/><linearGradient id="al" x1="26.11" y1="553.62" x2="28.3" y2="553.62" xlink:href="#t"/><linearGradient id="am" x1="11.46" y1="553.53" x2="12.17" y2="553.53" xlink:href="#t"/><linearGradient id="an" x1="-4.71" y1="553.58" x2="-3.95" y2="553.58" xlink:href="#t"/><linearGradient id="ao" x1="28.3" y1="554.75" x2="31.61" y2="554.75" xlink:href="#t"/><linearGradient id="ap" x1="-2.52" y1="554.84" x2=".8" y2="554.84" xlink:href="#t"/><linearGradient id="aq" x1="32.17" y1="556.37" x2="32.19" y2="556.37" xlink:href="#t"/><linearGradient id="ar" x1="31.87" y1="555.93" x2="31.94" y2="555.93" xlink:href="#t"/><linearGradient id="as" x1="32.06" y1="556.15" x2="32.11" y2="556.15" xlink:href="#t"/><linearGradient id="at" x1="21.7" y1="556.02" x2="21.82" y2="556.02" xlink:href="#t"/><linearGradient id="au" x1="21.59" y1="556.24" x2="21.66" y2="556.24" xlink:href="#t"/><linearGradient id="av" x1="21.55" y1="556.46" x2="21.58" y2="556.46" xlink:href="#t"/><linearGradient id="aw" x1="6.15" y1="556.5" x2="6.17" y2="556.5" xlink:href="#t"/><linearGradient id="ax" x1="6.18" y1="556.31" x2="6.22" y2="556.31" xlink:href="#t"/><linearGradient id="ay" x1="1.24" y1="556.23" x2="1.29" y2="556.23" xlink:href="#t"/><linearGradient id="az" x1="1.35" y1="556.45" x2="1.37" y2="556.45" xlink:href="#t"/><linearGradient id="ba" x1="1.06" y1="556.02" x2="1.12" y2="556.02" xlink:href="#t"/><linearGradient id="bb" x1=".8" y1="555.81" x2=".83" y2="555.81" xlink:href="#t"/><linearGradient id="bc" x1="-8.93" y1="554.92" x2="-5.38" y2="554.92" xlink:href="#t"/><linearGradient id="bd" x1="-9.23" y1="556.32" x2="-9.16" y2="556.32" xlink:href="#t"/><linearGradient id="be" x1="-9.26" y1="556.55" x2="-9.24" y2="556.55" xlink:href="#t"/><linearGradient id="bf" x1="-9.12" y1="556.1" x2="-8.99" y2="556.1" xlink:href="#t"/><linearGradient id="bg" x1="18.37" y1="558.1" x2="20.55" y2="558.1" xlink:href="#t"/><linearGradient id="bh" x1="34.99" y1="558.26" x2="36.18" y2="558.26" xlink:href="#t"/><linearGradient id="bi" x1="34.07" y1="558.21" x2="34.67" y2="558.21" xlink:href="#t"/><linearGradient id="bj" x1="3.35" y1="559.11" x2="8.46" y2="559.11" xlink:href="#t"/><linearGradient id="bk" x1="31.92" y1="558.95" x2="33.8" y2="558.95" xlink:href="#t"/><linearGradient id="bl" x1="31.43" y1="560.13" x2="31.44" y2="560.13" xlink:href="#t"/><linearGradient id="bm" x1="31.55" y1="559.76" x2="31.65" y2="559.76" xlink:href="#t"/><linearGradient id="bn" x1="31.46" y1="559.94" x2="31.51" y2="559.94" xlink:href="#t"/><linearGradient id="bo" x1="20.55" y1="559.24" x2="23.87" y2="559.24" xlink:href="#t"/><linearGradient id="bp" x1="-1.01" y1="559.27" x2="2.29" y2="559.27" xlink:href="#t"/><linearGradient id="bq" x1="36.18" y1="559.52" x2="40.03" y2="559.52" xlink:href="#t"/><linearGradient id="br" x1="24.43" y1="560.85" x2="24.45" y2="560.85" xlink:href="#t"/><linearGradient id="bs" x1="24.32" y1="560.63" x2="24.37" y2="560.63" xlink:href="#t"/><linearGradient id="bt" x1="24.13" y1="560.42" x2="24.2" y2="560.42" xlink:href="#t"/><linearGradient id="bu" x1="8.91" y1="560.68" x2="8.96" y2="560.68" xlink:href="#t"/><linearGradient id="bv" x1="8.79" y1="561.58" x2="8.91" y2="561.58" xlink:href="#t"/><linearGradient id="bw" x1="9.02" y1="560.9" x2="9.04" y2="560.9" xlink:href="#t"/><linearGradient id="bx" x1="8.72" y1="560.46" x2="8.79" y2="560.46" xlink:href="#t"/><linearGradient id="by" x1="8.47" y1="561.81" x2="8.73" y2="561.81" xlink:href="#t"/><linearGradient id="bz" x1="-1.6" y1="560.99" x2="-1.57" y2="560.99" xlink:href="#t"/><linearGradient id="ca" x1="-1.56" y1="560.76" x2="-1.49" y2="560.76" xlink:href="#t"/><linearGradient id="cb" x1="40.44" y1="561.15" x2="40.45" y2="561.15" xlink:href="#t"/><linearGradient id="cc" x1="40.19" y1="560.79" x2="40.26" y2="560.79" xlink:href="#t"/><linearGradient id="cd" x1="40.35" y1="560.97" x2="40.39" y2="560.97" xlink:href="#t"/><linearGradient id="ce" x1="9.96" y1="562.68" x2="10.27" y2="562.68" xlink:href="#t"/><linearGradient id="cf" x1="10.27" y1="562.52" x2="11" y2="562.52" xlink:href="#t"/><linearGradient id="cg" x1="25.79" y1="563.1" x2="25.89" y2="563.1" xlink:href="#t"/><linearGradient id="ch" x1="25.94" y1="562.91" x2="26.15" y2="562.91" xlink:href="#t"/><linearGradient id="ci" x1="25.69" y1="563.28" x2="25.75" y2="563.28" xlink:href="#t"/><linearGradient id="cj" x1="25.66" y1="563.47" x2="25.68" y2="563.47" xlink:href="#t"/><linearGradient id="ck" x1="34.68" y1="564.49" x2="34.69" y2="564.49" xlink:href="#t"/><linearGradient id="cl" x1="6.66" y1="563.71" x2="9.96" y2="563.71" xlink:href="#t"/><linearGradient id="cm" x1="12.81" y1="563.73" x2="16.16" y2="563.73" xlink:href="#t"/><linearGradient id="cn" x1="16.69" y1="565.34" x2="16.7" y2="565.34" xlink:href="#t"/><linearGradient id="co" x1="24.2" y1="565.93" x2="29.13" y2="565.93" xlink:href="#t"/><linearGradient id="cp" x1="14.2" y1="567.22" x2="22.95" y2="567.22" xlink:href="#t"/><linearGradient id="cq" x1="75.4" y1="216.82" x2="75.48" y2="216.82" gradientTransform="matrix(1, 0, 0, 1, 0, 0)" xlink:href="#g"/><linearGradient id="cr" x1="76.41" y1="210.83" x2="76.45" y2="210.83" gradientTransform="matrix(1, 0, 0, 1, 0, 0)" xlink:href="#g"/><linearGradient id="cs" x1="76.22" y1="211.27" x2="76.27" y2="211.27" gradientTransform="matrix(1, 0, 0, 1, 0, 0)" xlink:href="#g"/><linearGradient id="ct" x1="75.3" y1="216.6" x2="75.37" y2="216.6" gradientTransform="matrix(1, 0, 0, 1, 0, 0)" xlink:href="#g"/><linearGradient id="cu" x1="76.94" y1="210.08" x2="76.94" y2="210.08" gradientTransform="matrix(1, 0, 0, 1, 0, 0)" xlink:href="#g"/><linearGradient id="cv" x1="76.61" y1="210.45" x2="76.64" y2="210.45" gradientTransform="matrix(1, 0, 0, 1, 0, 0)" xlink:href="#g"/><linearGradient id="cw" x1="76.76" y1="210.22" x2="76.8" y2="210.22" gradientTransform="matrix(1, 0, 0, 1, 0, 0)" xlink:href="#g"/><linearGradient id="cx" x1="52.77" y1="170.56" x2="56.09" y2="170.56" gradientTransform="matrix(1, 0, 0, 1, 0, 0)" xlink:href="#b"/><linearGradient id="cy" x1="48.37" y1="171.52" x2="51.7" y2="171.52" gradientTransform="matrix(1, 0, 0, 1, 0, 0)" xlink:href="#b"/><linearGradient id="cz" x1="43.38" y1="171.04" x2="46.7" y2="171.04" gradientTransform="matrix(1, 0, 0, 1, 0, 0)" xlink:href="#b"/><linearGradient id="da" x1="38.98" y1="172" x2="42.3" y2="172" gradientTransform="matrix(1, 0, 0, 1, 0, 0)" xlink:href="#b"/><linearGradient id="db" x1="33.98" y1="171.52" x2="37.31" y2="171.52" gradientTransform="matrix(1, 0, 0, 1, 0, 0)" xlink:href="#b"/><linearGradient id="dc" x1="29.59" y1="172.47" x2="32.91" y2="172.47" gradientTransform="matrix(1, 0, 0, 1, 0, 0)" xlink:href="#b"/></defs><g style="isolation:isolate;"><g id="a"><g><g><polygon points="102.13 246.49 155.43 232.24 102.97 177.33 34.38 195.84 75.11 241.91 102.13 246.49" style="fill:url(#b);"/><polygon points="102.13 246.49 155.43 232.24 102.97 177.33 34.38 195.84 75.11 241.91 102.13 246.49" style="fill:#efefef; isolation:isolate;"/><polygon points="75.11 241.91 93.47 233.79 102.13 246.49 75.11 241.91" style="fill:url(#c);"/><polygon points="75.11 241.91 93.47 233.79 102.13 246.49 75.11 241.91" style="fill:#1d1d1b; isolation:isolate; opacity:.3;"/></g><g><g><polygon points="281.65 202.67 206.01 220.38 206.36 199.37 281.97 183.44 281.65 202.67" style="fill:#9f9ef2;"/><polygon points="206.36 199.37 159.74 187.68 235.35 171.75 281.97 183.44 206.36 199.37" style="fill:#5254cf;"/><path d="M161.05,188.46l-.33,19.69s44.51,11.45,45.3,11.55l.34-20.26-45.31-10.98Z" style="fill:url(#d);"/><polygon points="204.99 199.02 204.99 199.02 159.74 187.68 159.73 188.35 204.97 200.1 204.66 218.94 159.41 207.59 159.4 208.26 206.01 220.38 206.03 219.28 206.34 200.46 206.36 199.37 204.99 199.02" style="fill:#5254cf;"/></g><g><polygon points="278.12 184.25 202.47 201.91 202.83 180.9 278.45 165.02 278.12 184.25" style="fill:#e84343;"/><polygon points="202.83 180.9 156.21 169.18 231.83 153.3 278.45 165.02 202.83 180.9" style="fill:#f66;"/><path d="M157.52,169.97l-.34,19.69s44.51,11.47,45.29,11.58l.35-20.26-45.3-11.01Z" style="fill:url(#e);"/><polygon points="201.45 180.56 201.45 180.56 156.21 169.18 156.2 169.85 201.43 181.64 201.11 200.47 155.87 189.1 155.86 189.77 202.47 201.91 202.49 200.82 202.81 182 202.83 180.9 201.45 180.56" style="fill:url(#f);"/></g></g><g><path d="M263.84,152.63h0s.08,.12,.12,.21c.01,.02,.02,.05,.03,.07,.05,.1,.09,.22,.14,.36,.22,.64,.36,1.45,.32,1.81,0,.08-.03,.13-.06,.15t0,0c.76-.55,1.52-1.1,2.29-1.65,0,0,0-.01,.01-.03,0-.08-.02-.25-.07-.39-.02-.05-.03-.08-.05-.11,0,0,0,0-.01-.01,0-.01-.02-.02-.02-.03-.93-.15-1.86-.29-2.79-.43t0,0s.05,.02,.08,.05Z" style="fill:#394547;"/><polygon points="259.82 158.5 259.83 158.5 259.82 158.5 259.82 158.5" style="fill:#e4eeed;"/><path d="M258.27,151.75s0,0,0,0c.04,.02,.09,.06,.13,.11,.01,.01,.03,.03,.04,.05,.04,.05,.08,.11,.12,.17,.01,.02,.02,.03,.04,.06,.05,.09,.11,.19,.17,.31,.01,.03,.03,.06,.04,.09,.05,.1,.09,.21,.14,.33,.02,.04,.03,.08,.05,.13,.06,.16,.12,.32,.18,.51,.55,1.64,.92,3.7,.81,4.6-.01,.12-.04,.21-.07,.28,0,.02-.02,.03-.03,.05-.02,.02-.03,.06-.05,.07,0,0,0,0,0,0,1.52-1.09,3.03-2.17,4.55-3.26h0s.05-.07,.06-.15c.04-.35-.1-1.16-.32-1.81-.05-.14-.1-.26-.14-.36-.01-.03-.02-.05-.03-.07-.04-.09-.09-.16-.12-.21h0s-.05-.05-.08-.05h0c-1.84-.28-3.69-.57-5.53-.85,0,0-.02,0-.02,0,.02,0,.04,0,.07,0Z" style="fill:#efefef; isolation:isolate;"/><path d="M259.82,158.5s0,0,0,0c0,0,.01,0,.02,0,.02-.01,.03-.04,.05-.07-.02,.03-.05,.06-.07,.07Z" style="fill:url(#g);"/><path d="M258.81,152.53s-.03-.06-.04-.09c.01,.03,.03,.06,.04,.09Z" style="fill:url(#h);"/><path d="M259,152.99s-.03-.09-.05-.13c.02,.04,.03,.08,.05,.13Z" style="fill:url(#i);"/><path d="M260,158.1c-.01,.12-.04,.21-.07,.28,.03-.07,.05-.16,.07-.28Z" style="fill:url(#j);"/><path d="M258.27,151.75s0,0,0,0c0,0,0,0,0,0Z" style="fill:url(#k);"/><path d="M258.6,152.13s-.02-.04-.04-.06c.01,.02,.02,.03,.04,.06Z" style="fill:url(#l);"/><path d="M258.4,151.86s.03,.03,.04,.05c-.01-.02-.03-.03-.04-.05Z" style="fill:url(#m);"/><path d="M194.92,166.89s.09,.06,.13,.11c.01,.01,.03,.03,.04,.05,.04,.05,.08,.11,.12,.17,.01,.02,.02,.03,.04,.06,.05,.09,.11,.2,.17,.31,.01,.03,.03,.06,.04,.09,.05,.1,.09,.21,.14,.33,.02,.04,.03,.08,.05,.13,.06,.16,.12,.32,.18,.51,.55,1.64,.92,3.7,.81,4.6-.01,.12-.04,.21-.07,.28,0,0,0,.01,0,.02,0,.02-.02,.02-.03,.03-.02,.03-.05,.06-.07,.07,0,0,0,.01-.01,.01,1.5-.36,3.05-.73,4.62-1.1l4.47-1.07c2.75-.66,5.56-1.33,8.44-2.02l5-1.19c.45-.11,.91-.22,1.36-.33l10.29-2.46c1.78-.42,3.55-.85,5.31-1.27l1.3-.31c1.7-.41,3.38-.81,5.05-1.21l8.41-2.01c1.53-.36,3.03-.72,4.5-1.08l4.6-1.1s0-.01,.01-.01c0,0,0,0,0,0,.03-.01,.05-.04,.07-.07,.01-.02,.02-.02,.03-.05,.03-.07,.05-.16,.07-.28,.1-.9-.26-2.96-.81-4.6-.06-.18-.12-.35-.18-.51-.02-.04-.03-.09-.05-.13-.05-.12-.09-.23-.14-.33-.01-.03-.03-.06-.04-.09-.06-.12-.11-.22-.17-.31-.01-.02-.02-.04-.04-.06-.04-.07-.08-.13-.12-.17-.01-.02-.03-.03-.04-.05-.05-.05-.09-.09-.13-.11,0,0,0,0,0,0-.02-.01-.05-.01-.07,0,0,0-.02,0-.02,0-1.5,.36-3.04,.73-4.61,1.1l-4.49,1.07c-2.74,.66-5.56,1.33-8.42,2.01l-5.02,1.2c-.45,.11-.9,.22-1.35,.32l-5.29,1.26c-3.44,.82-6.88,1.64-10.29,2.46l-1.35,.32c-1.69,.4-3.36,.8-5.02,1.2l-8.42,2.01c-1.52,.36-3.02,.72-4.49,1.07l-4.61,1.1s.06,0,.09,.01c0,0,0,0,0,0Z" style="fill:#ffc700;"/><path d="M195.05,167s.03,.03,.04,.05c-.01-.02-.03-.03-.04-.05Z" style="fill:#e4eeed;"/><path d="M194.92,166.89s0,0,0,0c0,0,0,0,0,0Z" style="fill:#e4eeed;"/><path d="M195.45,167.67s-.03-.06-.04-.09c.01,.03,.03,.06,.04,.09Z" style="fill:#e4eeed;"/><path d="M196.54,173.56s-.05,.06-.07,.07c.03-.01,.05-.04,.07-.07Z" style="fill:#e4eeed;"/><path d="M196.64,173.24c-.01,.12-.04,.21-.07,.28,.03-.07,.05-.16,.07-.28Z" style="fill:#e4eeed;"/><path d="M195.25,167.27s-.02-.04-.04-.06c.01,.02,.02,.03,.04,.06Z" style="fill:#e4eeed;"/><path d="M195.65,168.13s-.03-.09-.05-.13c.02,.04,.03,.08,.05,.13Z" style="fill:#e4eeed;"/><path d="M192.88,167.34s.06,0,.09,.01c0,0,0,0,0,0,.03,.01,.07,.04,.11,.08,0,0,.02,.02,.03,.03,.01,.01,.03,.03,.04,.05,.04,.05,.08,.11,.12,.17,.01,.02,.02,.03,.04,.06,.05,.09,.11,.2,.17,.31,.01,.03,.03,.06,.04,.09,.05,.1,.09,.21,.14,.33,.02,.04,.03,.08,.05,.13,.06,.16,.12,.32,.18,.51,.55,1.64,.92,3.7,.81,4.6-.01,.12-.04,.21-.07,.28,0,.02-.02,.03-.03,.05-.02,.03-.05,.06-.07,.07,0,0,0,.01-.01,.01l.97-.23c.34-.08,.68-.16,.97-.23,0,0,0-.01,.01-.01,.03-.01,.05-.04,.07-.07,0-.01,.02-.01,.03-.03,0,0,0-.01,0-.02,.03-.07,.05-.16,.07-.28,.1-.9-.26-2.96-.81-4.6-.06-.18-.12-.35-.18-.51-.02-.04-.03-.09-.05-.13-.05-.12-.1-.23-.14-.33-.01-.03-.03-.06-.04-.09-.06-.12-.11-.22-.17-.31-.01-.02-.02-.04-.04-.06-.04-.07-.08-.12-.12-.17-.01-.02-.03-.03-.04-.05-.05-.05-.09-.09-.13-.11,0,0,0,0,0,0-.03-.01-.06-.02-.09-.01l-.97,.23s0,0,0,0l-.97,.23Z" style="fill:#e4eeed;"/><path d="M192.97,167.35s0,0,0,0c0,0,0,0,0,0Z" style="fill:#ff7485;"/><path d="M193.11,167.46s.03,.03,.04,.05c-.01-.02-.03-.03-.04-.05Z" style="fill:#ff7485;"/><path d="M193.47,168.05s.03,.06,.04,.09c-.01-.03-.03-.06-.04-.09Z" style="fill:#ff7485;"/><path d="M193.27,167.68s.02,.04,.04,.06c-.01-.02-.02-.04-.04-.06Z" style="fill:#ff7485;"/><path d="M194.7,173.7c-.01,.12-.04,.21-.07,.28,.03-.07,.05-.16,.07-.28Z" style="fill:#ff7485;"/><path d="M194.6,174.03s-.05,.06-.07,.07c.03-.01,.05-.04,.07-.07Z" style="fill:#ff7485;"/><path d="M193.65,168.47s.03,.08,.05,.13c-.02-.04-.03-.09-.05-.13Z" style="fill:#ff7485;"/><path d="M194.6,174.03s.02-.02,.03-.05c.03-.07,.05-.16,.07-.28,.1-.9-.26-2.96-.81-4.6-.06-.18-.12-.35-.18-.51-.02-.04-.03-.09-.05-.13-.05-.12-.1-.23-.14-.33-.01-.03-.03-.06-.04-.09-.06-.12-.11-.22-.17-.31-.01-.02-.02-.04-.04-.06-.04-.07-.08-.12-.12-.17-.01-.02-.03-.03-.04-.05,0-.01-.02-.03-.03-.03-.04-.04-.07-.06-.11-.08,0,0,0,0,0,0-.03-.01-.06-.02-.09-.01h0l-5.14,1.23c-.31,.07-.62,.15-.91,.22-.22,.05-.39,.19-.52,.4-.13,.2-.22,.48-.27,.83-.02,.16-.02,.34-.02,.52,0,.15,.01,.3,.03,.45,0,.03,0,.06,0,.1,.02,.19,.04,.37,.07,.55,0,0,0,0,0,.01,.03,.2,.07,.39,.11,.56,0,.04,.02,.07,.03,.11,.03,.15,.07,.29,.1,.42,.01,.04,.02,.08,.03,.12,.09,.34,.17,.59,.19,.65,.02,.06,.04,.1,.06,.15,.03,.09,.06,.17,.09,.25,.02,.05,.04,.11,.06,.16,.01,.03,.02,.06,.03,.09,.02,.05,.05,.09,.07,.14,.04,.09,.09,.18,.13,.26,.03,.06,.06,.11,.1,.17,.05,.08,.1,.15,.15,.22,.03,.04,.05,.07,.08,.1,.05,.06,.1,.12,.16,.17,.03,.03,.05,.05,.08,.07,.05,.04,.09,.08,.14,.11,.04,.03,.08,.05,.12,.07,.03,.01,.06,.03,.09,.04,.22,.08,.4,.08,.5,.05l1.81-.43c.26-.06,.51-.12,.77-.18l1.66-.4c.63-.15,1.25-.3,1.8-.43,0,0,0-.01,.01-.01,.03-.01,.05-.04,.07-.07Z" style="fill:url(#n);"/></g><g><g><path d="M186.97,175.52L29.49,194.74c-1.46,.18-2.65-1.04-2.65-2.71V44.66c0-1.68,1.19-2.89,2.65-2.71l157.48,19.23c.81,.1,1.47,1.19,1.47,2.44v109.48c0,1.25-.66,2.34-1.47,2.44Z" style="fill:#394547;"/><polygon points="184.3 170.29 34.2 186.84 34.2 49.84 184.3 66.4 184.3 170.29" style="fill:#5254cf;"/></g><g><g><path d="M143.31,104.31c-.97,.44-2.1,.32-3.12,.25s-2.13-.14-3.19,.09c-.23,.05-.48,.28-.52,.52-.54,3-.41,6.21,.09,9.2,.22,1.33,.5,2.9,1.66,3.76s2.66,.68,4,.65c.96-.02,.97-1.52,0-1.5s-2.38,.27-3.2-.43-.95-2.4-1.09-3.41c-.36-2.56-.47-5.33-.01-7.88l-.52,.52c2.24-.47,4.49,.5,6.67-.48,.88-.4,.12-1.69-.76-1.3h0Z" style="fill:#fff;"/><path d="M138.33,112.82c.74,0,1.49,.02,2.23,.03,.39,0,.77-.35,.75-.75s-.33-.74-.75-.75c-.74,0-1.49-.02-2.23-.03-.39,0-.77,.35-.75,.75s.33,.74,.75,.75h0Z" style="fill:#fff;"/><path d="M145.51,110.61c.54,0,1.08,.02,1.63,.03,.19,0,.4-.09,.53-.22s.23-.34,.22-.53c-.02-.41-.33-.74-.75-.75-.54,0-1.08-.02-1.63-.03-.19,0-.4,.09-.53,.22s-.23,.34-.22,.53c.02,.41,.33,.74,.75,.75h0Z" style="fill:#fff;"/><path d="M145.49,115.18c.81,.18,1.66,.09,2.38-.32,.16-.09,.3-.27,.34-.45s.03-.42-.08-.58c-.22-.35-.66-.48-1.03-.27-.08,.04-.16,.08-.24,.12l.18-.08c-.2,.08-.4,.14-.61,.17l.2-.03c-.24,.03-.47,.03-.71,0l.2,.03c-.08-.01-.16-.03-.24-.05-.19-.04-.4-.03-.58,.08-.16,.09-.3,.27-.34,.45-.04,.19-.03,.41,.08,.58,.1,.16,.26,.3,.45,.34h0Z" style="fill:#fff;"/><path d="M150.14,109.7c-.03,1.94,.11,4.04,.73,5.89,.21,.63,1.33,.79,1.45,0,.13-.92,.36-1.85,.81-2.68,.18-.32,.34-.58,.57-.81,.05-.05,.11-.11,.16-.16,.12-.11,0-.01,.1-.08,.05-.04,.11-.07,.17-.1,.14-.08-.11,.05,.04-.02s.21-.08,.36,0c-.18-.09,.02,.02,.05,.04,.03,.03-.07-.06,.04,.04,.13,.13,.1,.09,.21,.28,.47,.8,.54,1.88,.58,2.8s1.48,.97,1.5,0,.29-1.95,.67-2.81c.17-.38,.37-.83,.7-1.09,.06-.05,.18-.06,.1-.06,.11,0,0-.01,.03,0-.08,0,.15,.11,.04,.01,.2,.18,.33,.42,.45,.73,.18,.46,.29,.95,.4,1.44,.2,.88,.32,1.79,.62,2.65,.31,.91,1.76,.52,1.45-.4-.56-1.6-.49-3.49-1.43-4.95-.44-.7-1.2-1.16-2.04-.89-.9,.29-1.4,1.3-1.74,2.11-.43,1.02-.73,2.17-.75,3.28h1.5c-.07-1.61-.51-5.22-2.98-4.66-.83,.19-1.46,.89-1.91,1.58-.64,1-.98,2.2-1.15,3.36h1.45c-.58-1.73-.71-3.67-.68-5.49,.02-.97-1.48-.97-1.5,0h0Z" style="fill:#fff;"/><path d="M166.46,111.91c-.03-.55-.11-1.13-.46-1.58-.31-.39-.77-.57-1.26-.5-.88,.12-1.59,.89-2.05,1.59-1.17,1.8-.83,4.62,.88,5.98,.47,.38,1.03,.63,1.64,.64s1.22-.28,1.69-.69c.31-.26,.27-.79,0-1.06-.3-.3-.75-.27-1.06,0-.03,.02-.19,.13-.04,.03-.03,.02-.06,.04-.1,.06-.05,.03-.31,.14-.11,.07-.08,.03-.16,.05-.24,.07-.1,.03,.01-.04,.05,0-.01-.01-.12,0-.15,0-.05,0-.1,0-.15,0-.11,0,.04,.02,.05,0-.04,.02-.2-.05-.24-.06-.03-.01-.06-.02-.09-.03,.17,.06,.06,.03,.02,0-.08-.05-.17-.09-.25-.14,0,0-.15-.11-.05-.04s-.04-.04-.05-.04c-.07-.06-.14-.13-.2-.19-.03-.03-.05-.06-.08-.08,0,0-.12-.15-.05-.06s-.05-.06-.05-.07c-.03-.05-.07-.1-.1-.15-.05-.09-.11-.18-.15-.27-.02-.04-.04-.07-.06-.11-.01-.02-.09-.21-.03-.05-.08-.2-.15-.41-.2-.62-.03-.11-.04-.22-.06-.33,.03,.14,0,.03,0,0,0-.07-.01-.14-.02-.2-.01-.23,0-.46,.02-.7-.01,.14,0-.01,0-.05,.01-.06,.02-.12,.03-.18,.02-.11,.05-.21,.08-.32,.02-.07,.05-.14,.07-.21,.05-.16-.08,.15,0,0,.02-.04,.04-.09,.06-.13,.07-.14,.15-.28,.24-.41,.04-.06,.09-.12,.13-.18-.13,.18,.07-.08,.1-.12,.1-.11,.21-.21,.32-.31,.12-.11-.12,.07,.04-.03,.07-.05,.14-.09,.21-.13,0,0,.07-.03,.07-.03,.01,.04-.2,.06-.02,.02,.03,0,.06-.01,.08-.02,.11-.04-.16,.07-.07,0,0,0,.05,0,.06,0,.13,.02-.21-.05-.06,0,.06,.02,.12,.06-.08-.04,.11,.06-.02,.03-.05-.05,0,.02,.05,.04,.06,.06,.02,.02-.09-.17-.02-.02,.01,.02,.03,.05,.04,.07,.08,.11-.04-.15,0-.01,.03,.11,.06,.21,.08,.32,.03,.14,0,.02,0-.01,0,.09,.02,.19,.02,.28,.02,.39,.33,.77,.75,.75,.39-.02,.77-.33,.75-.75h0Z" style="fill:#fff;"/><path d="M167.58,105.12c.12-.11,.29-.21,.35-.24,.04-.02,.09-.02,.13-.03-.13,.03-.05,0,0,0,.04,0,.09,0,.13,0,.15-.01-.08-.04,.05,0,.28,.1,.5,.24,.69,.52,.25,.38,.35,.75,.35,1.21,0,.27-.03,.49-.11,.76-.02,.07-.04,.13-.06,.2-.07,.21-.04,.08-.02,.04-.02,.04-.04,.08-.07,.11-.1,.14,.07-.06-.04,.04-.04,.04-.07,.07-.11,.1-.08,.07,.1-.07,0,0-.07,.05-.15,.1-.23,.15-.15,.09-.31,.18-.45,.28-.4,.28-.73,.65-.83,1.13-.25,1.14,.41,2.06,1.47,2.41,.85,.28,1.78,.23,2.66,.2,.96-.03,.97-1.53,0-1.5-.34,.01-.67,.03-1.01,.03-.21,0-.42-.01-.63-.03-.05,0-.09,0-.14-.02,.14,.02,.01,0-.01,0-.12-.02-.25-.05-.37-.08-.05-.01-.3-.12-.16-.05-.08-.04-.14-.08-.22-.12-.16-.08,.06,.06-.01-.01-.03-.03-.07-.07-.1-.1,.02,.02,.11,.11,.02,0-.07-.08,0,.08-.01-.04-.01-.15-.03-.11-.03-.24,0-.04,0-.2,0-.04,0-.03,.02-.09,.03-.12-.06,.16,.02-.03,.06-.08-.12,.18,.17-.13,.09-.06-.07,.05,.13-.08,.16-.1,.08-.05,.15-.09,.23-.14,.2-.12,.4-.26,.57-.42,.43-.4,.65-.96,.74-1.53,.2-1.16-.06-2.44-.93-3.28-.95-.92-2.31-.92-3.26,0-.69,.68,.37,1.74,1.06,1.06h0Z" style="fill:#fff;"/></g><g><path d="M98.58,103.98c.94-2.2,.8-5.43-.44-7.51-1.53-2.57-3.92-.48-4.65,1.56-1.18,3.3-.34,7.28,.14,10.65,.65,4.63,1.07,9.38,.73,14.05-.18,2.57-.58,5.28-1.26,7.78-.33,1.21-.83,2.32-1.87,3.08s-2.27,1.02-3.16-.07c-.61-.75-1.67,.32-1.06,1.06,2.29,2.81,6.08,.17,7.13-2.44,.76-1.9,.97-4.03,1.32-6.04,.39-2.27,.52-4.58,.5-6.89-.03-4.03-.5-8.02-1.04-12.01-.25-1.84-.47-3.7-.45-5.57,.02-1.53,.14-3.37,1.28-4.53,1.02-1.04,1.47,.88,1.65,1.67,.32,1.37,.45,3.11-.12,4.44-.38,.88,.92,1.64,1.3,.76h0Z" style="fill:#fff;"/><path d="M91.55,115.17c.81-.21,1.61-.23,2.5-.3,.95-.07,1.86-.21,2.74-.59,.37-.16,.45-.71,.27-1.03-.23-.39-.65-.43-1.03-.27,.05-.02,.03-.02-.05,.02-.05,.02-.1,.04-.16,.05-.11,.03-.21,.07-.32,.09-.19,.05-.38,.09-.58,.12-.06,0-.11,.02-.17,.03,.06,0,.04,0-.06,0-.09,0-.17,.02-.26,.03-.22,.02-.43,.04-.65,.05-.88,.06-1.78,.11-2.64,.33-.39,.1-.63,.54-.52,.92s.53,.62,.92,.52h0Z" style="fill:#fff;"/><path d="M105.12,93.98c-.95,3.11-1.67,6.33-1.92,9.57-.23,2.91-.17,6.78,2.33,8.78,.75,.6,1.81-.46,1.06-1.06-2.29-1.84-2.09-5.54-1.85-8.16,.28-2.96,.97-5.89,1.83-8.74,.28-.93-1.17-1.32-1.45-.4h0Z" style="fill:#fff;"/><path d="M107.29,102.88c1.37,2.17,2.48,4.49,4.06,6.53,.25,.32,.8,.26,1.06,0,.32-.32,.25-.74,0-1.06-1.5-1.93-2.53-4.17-3.83-6.23-.51-.81-1.81-.06-1.3,.76h0Z" style="fill:#fff;"/><path d="M109.71,108.75c.43-2.63,2.83-4.29,3.72-6.73,.14-.38-.16-.82-.52-.92-.42-.11-.78,.14-.92,.52-.39,1.07-1.28,2.11-1.98,3.08-.8,1.1-1.52,2.29-1.74,3.65-.07,.4,.1,.81,.52,.92,.36,.1,.86-.12,.92-.52h0Z" style="fill:#fff;"/><path d="M113.42,93.93c.59,3.54,2.02,6.87,2.67,10.39,.29,1.59,.24,3.14-.24,4.69-.43,1.39-1.07,2.7-1.61,4.05-.36,.9,1.09,1.29,1.45,.4,1.17-2.94,2.43-5.57,1.97-8.82-.54-3.79-2.15-7.33-2.79-11.11-.16-.95-1.6-.55-1.45,.4h0Z" style="fill:#fff;"/></g><g><path d="M134.61,76.51c.17,.09,.35,.34,.52,.63,.25,.43,.45,.88,.63,1.33,.4,1,.74,2.03,1.11,3.04,.32,.87,.75,1.65,1.19,2.46,.37,.67,1.2,1.91,.88,2.66-.16,.38,.17,.82,.52,.92,.43,.12,.77-.15,.92-.52,.44-1.06-.28-2.4-.76-3.31s-1-1.77-1.35-2.71c-.42-1.13-.79-2.28-1.26-3.39-.35-.83-.79-1.96-1.65-2.4s-1.62,.86-.76,1.3h0Z" style="fill:#fff;"/><path d="M137.24,84.83c.19-1.47,1.51-2.68,2.52-3.7,1.23-1.24,2.49-2.52,3.03-4.23,.29-.92-1.16-1.32-1.45-.4-.51,1.61-1.87,2.78-3.01,3.94-1.23,1.25-2.36,2.59-2.59,4.38-.05,.4,.38,.75,.75,.75,.45,0,.7-.35,.75-.75h0Z" style="fill:#fff;"/><path d="M145.9,82.36c.1,0,.21,.02,.31,.03,.07,0,.13,.02,.2,.02,.13,.02-.09-.01,.04,0,.24,.03,.48,.07,.71,.11,.52,.09,1.05,.17,1.58,.23,.99,.11,1.99,.07,2.91-.37,.37-.17,.46-.7,.27-1.03-.22-.37-.66-.44-1.03-.27-.08,.04-.09,.04-.03,.02-.05,.02-.09,.04-.14,.05-.1,.03-.2,.06-.3,.08-.03,0-.3,.05-.19,.04-.11,.01-.21,.02-.32,.03-.45,.02-.9-.02-1.35-.07-.09-.01-.1-.01-.23-.03-.12-.02-.23-.03-.35-.05-.23-.04-.46-.07-.68-.11-.47-.07-.94-.15-1.41-.18-.4-.03-.75,.37-.75,.75,0,.43,.34,.72,.75,.75h0Z" style="fill:#fff;"/><path d="M147.67,77.72c-.1,2.53,0,5.12,.56,7.6,.21,.94,1.66,.54,1.45-.4-.53-2.35-.61-4.81-.51-7.2,.04-.97-1.46-.96-1.5,0h0Z" style="fill:#fff;"/><path d="M154.05,78.23c.19,1.45,.67,3.9,2.32,4.43,1.99,.64,2.5-2.32,2.66-3.61h-1.5c-.13,2.2,.22,4.46,.3,6.66,.05,1.36,.07,2.73-.05,4.09-.08,.93-.2,2.02-.67,2.8-.19,.31-.36,.45-.58,.47-.1,.01-.24,0-.45-.07-.26-.08-.5-.22-.73-.37-.82-.52-1.57,.78-.76,1.3,.9,.56,2.03,.93,3,.31,.9-.57,1.26-1.74,1.46-2.73,.57-2.88,.3-5.93,.12-8.83-.07-1.2-.21-2.43-.14-3.64,.06-.99-1.38-.93-1.5,0-.09,.69-.22,1.4-.56,2.01-.02,.03-.24,.24-.11,.17-.02,0-.01,.04-.15-.07-.78-.61-1.04-2.02-1.16-2.93s-1.63-.96-1.5,0h0Z" style="fill:#fff;"/><path d="M161.01,81.22c.96,.07,1.92,.15,2.88,.22,.39,.03,.77-.37,.75-.75-.02-.43-.33-.72-.75-.75-.96-.07-1.92-.15-2.88-.22-.39-.03-.77,.37-.75,.75,.02,.43,.33,.72,.75,.75h0Z" style="fill:#fff;"/><path d="M161.56,84.43c.2-.05,.39-.09,.59-.12l-.2,.03c.42-.06,.85-.05,1.27,0,.18,.02,.41-.1,.53-.22,.13-.13,.23-.34,.22-.53s-.07-.4-.22-.53l-.15-.12c-.12-.07-.24-.1-.38-.1-.69-.09-1.4-.04-2.07,.14-.18,.05-.35,.18-.45,.34s-.13,.4-.08,.58c.13,.39,.52,.63,.92,.52h0Z" style="fill:#fff;"/><path d="M166.83,74.86c-.11,1.18-.44,2.4-.26,3.59s1.18,1.87,2.39,1.62c2.46-.5,2.29-4.24,2.93-6.07l-1.47-.2c.28,4.05-1.3,7.93-1.28,11.97,0,.96,1.5,.97,1.5,0-.02-4.04,1.56-7.91,1.28-11.97-.06-.85-1.19-1.01-1.47-.2-.33,.94-.46,1.94-.68,2.91-.14,.62-.31,1.75-.98,2.06s-.77-.24-.77-.79c0-.97,.22-1.94,.31-2.91s-1.41-.96-1.5,0h0Z" style="fill:#fff;"/></g><g><path d="M46.73,61.91c-2.68,.96-4.14,3.96-4.9,6.51-.87,2.92-1.16,6.43,.2,9.25,.68,1.41,1.87,2.46,3.38,2.9,.93,.27,1.32-1.17,.4-1.45-3.22-.95-3.44-5.17-3.06-7.91,.24-1.71,.74-3.43,1.57-4.95,.63-1.16,1.51-2.45,2.81-2.91,.9-.32,.51-1.77-.4-1.45h0Z" style="fill:#fff;"/><path d="M55.75,68.27c-.96-.89-2.31-.91-3.46-.4-1.21,.54-2.07,1.69-2.22,3.01-.13,1.19,.34,2.94,1.52,3.49s2.28-.21,3.08-.97c.93-.88,1.73-2.04,2.15-3.26l-1.45-.4c-.24,1.45-.03,3.06,.8,4.3s2.16,1.86,3.59,1.39c.91-.3,.52-1.75-.4-1.45-2.03,.67-2.8-2.29-2.55-3.84,.15-.94-1.13-1.33-1.45-.4-.1,.29-.25,.59-.47,.95s-.46,.72-.73,1.04-.64,.7-.91,.9c-.15,.11-.3,.21-.47,.29-.13,.07-.05,.03-.02,.02-.04,.02-.09,.04-.13,.05-.06,.02-.28,.06-.12,.04-.08,0-.17,.01-.25,0,.18,.02-.08-.05-.01-.01s-.11-.07-.14-.09c.11,.09-.12-.14-.1-.12-.24-.32-.41-.91-.46-1.35-.09-.84,.33-1.61,.99-2.05,.38-.25,.8-.4,1.19-.42,.42-.01,.69,.06,.96,.31,.71,.66,1.77-.4,1.06-1.06h0Z" style="fill:#fff;"/><path d="M63.48,73.52c1.02,.22,2.07,.35,3.11,.43,.87,.07,1.77,.12,2.64-.03,.4-.07,.62-.56,.52-.92-.12-.42-.52-.59-.92-.52-.19,.03,.12,0-.05,0-.08,0-.16,.01-.24,.02-.2,.01-.39,.01-.59,.01-.46,0-.91-.03-1.37-.06-.24-.02-.48-.04-.72-.07-.12-.01-.24-.03-.36-.04-.07,0-.13-.02-.2-.02-.03,0-.12-.02-.04,0-.47-.06-.93-.14-1.39-.24-.4-.09-.81,.12-.92,.52-.1,.37,.13,.84,.52,.92h0Z" style="fill:#fff;"/><path d="M66.62,69.34c-.14,1.85-.27,3.7-.41,5.54-.03,.4,.37,.75,.75,.75,.43,0,.72-.34,.75-.75,.14-1.85,.27-3.7,.41-5.54,.03-.4-.37-.75-.75-.75-.43,0-.72,.34-.75,.75h0Z" style="fill:#fff;"/><path d="M73.12,66.21c-.22,2.95-.75,5.86-.9,8.81-.04,.77,1.03,.99,1.4,.38,.43-.71,.96-1.33,1.57-1.91,.3-.28,.61-.53,.96-.74,.17-.1,.26-.14,.37-.18,.23-.08,.16-.07,.36-.07,.18,0-.03-.03,.09,.01s-.05-.06,.09,.04c.02,.01-.02-.03,.06,.06,0,0,.07,.08,.12,.17,.23,.42,.31,.98,.32,1.46,.02,.87-.51,1.69-1.24,2.14-.19,.12-.33,.18-.54,.24-.13,.04-.13,.04-.22,.04-.04,0-.3-.01-.2,0-.15-.02-.25-.08-.31-.14-.12-.12-.18-.31-.24-.53-.22-.94-1.67-.54-1.45,.4,.31,1.33,1.49,2.03,2.8,1.68s2.33-1.46,2.72-2.7,.17-3.08-.84-3.93c-.92-.78-2.15-.36-3.03,.26-1.08,.77-2.01,1.81-2.7,2.94l1.4,.38c.15-2.95,.68-5.87,.9-8.81,.07-.96-1.43-.96-1.5,0h0Z" style="fill:#fff;"/><path d="M79.19,67.33c.73,.8,1.22,1.86,1.63,2.85,.57,1.4,1.01,2.86,1.32,4.34,.29,1.38,.49,2.79,.43,4.2-.03,.81-.12,2.07-.83,2.61-.75,.58,0,1.89,.76,1.3,2.26-1.75,1.66-5.56,1.2-7.98-.32-1.66-.79-3.31-1.43-4.87-.51-1.24-1.09-2.51-2.01-3.51-.65-.71-1.71,.35-1.06,1.06h0Z" style="fill:#fff;"/><path d="M85.84,72.81c.75,.15,1.5,.29,2.24,.44,.2,.04,.4,.03,.58-.08,.16-.09,.3-.27,.34-.45,.08-.37-.11-.84-.52-.92-.75-.15-1.5-.29-2.24-.44-.2-.04-.4-.03-.58,.08-.16,.09-.3,.27-.34,.45-.08,.37,.11,.84,.52,.92h0Z" style="fill:#fff;"/><path d="M86.54,75.8c.82,.16,1.64,.31,2.46,.47,.2,.04,.4,.03,.58-.08,.16-.09,.3-.27,.34-.45,.08-.37-.11-.84-.52-.92-.82-.16-1.64-.31-2.46-.47-.2-.04-.4-.03-.58,.08-.16,.09-.3,.27-.34,.45-.08,.37,.11,.84,.52,.92h0Z" style="fill:#fff;"/><path d="M83.51,63.3c.06-.22,.07-.21,.17-.4,.05-.07,.05-.08,0-.02,.03-.04,.06-.07,.09-.1,.03-.03,.06-.06,.1-.09-.06,.04-.06,.05-.02,.02,.06-.04,.13-.08,.2-.12-.14,.07,.07-.01,.1-.02,.03,0,.07-.02,.1-.02-.09,.01-.08,.01,0,0,.1,0,.19,0,.29,0l-.72-.55c.11,.29,.2,.58,.28,.88,.04,.14,.07,.29,.1,.43,.01,.06,.02,.13,.03,.19,.01,.09,0-.08,0,.06,.02,.24,.03,.47,.01,.71,0,.05,0,.1-.02,.16,.01-.1,.01-.07,0,.01-.02,.11-.05,.21-.08,.31,0,.02-.06,.17-.02,.07s-.02,.04-.03,.06c-.04,.08-.09,.16-.14,.24-.08,.15,.1-.1-.01,.02-.03,.03-.06,.07-.09,.1s-.06,.06-.1,.1c0,0-.14,.12-.05,.05s-.04,.03-.06,.04c-.05,.03-.1,.06-.15,.09-.05,.03-.3,.14-.15,.08-.23,.09-.46,.15-.7,.2-.74,.14-.69,1.27,0,1.45,.96,.24,1.88,.62,2.83,.92,.39,.12,.82-.14,.92-.52,.11-.4-.14-.8-.52-.92-.95-.3-1.87-.68-2.83-.92v1.45c1.14-.22,2.09-.89,2.51-1.99,.44-1.16,.13-2.53-.29-3.65-.13-.34-.37-.52-.72-.55-1.22-.11-2.16,.73-2.49,1.85-.11,.39,.14,.82,.52,.92s.81-.13,.92-.52h0Z" style="fill:#fff;"/><path d="M94.45,70.15c-.94,.07-1.64,.75-2.14,1.49-.52,.79-.87,1.8-.79,2.75,.07,.85,.46,2.04,1.4,2.27,.86,.22,1.55-.45,2.01-1.09,.51-.72,.9-1.61,1.05-2.48l-1.47-.2c.13,1.9,1.13,3.74,2.66,4.88,.33,.24,.84,.05,1.03-.27,.22-.38,.06-.78-.27-1.03-1.04-.77-1.83-2.28-1.92-3.58-.03-.37-.26-.69-.65-.74-.34-.04-.76,.16-.82,.54-.05,.28-.13,.56-.22,.83-.02,.07-.05,.14-.08,.2,0,.02-.05,.13,0,.02-.01,.03-.03,.07-.04,.1-.07,.14-.14,.29-.21,.43s-.15,.27-.24,.4c-.04,.06-.08,.11-.12,.17-.05,.07,.01-.01,.02-.02-.03,.03-.05,.07-.08,.1-.04,.05-.08,.09-.12,.13-.02,.02-.17,.16-.09,.09s-.05,.03-.07,.05c-.08,.05-.15,.06-.01,.01-.02,0-.04,.01-.06,.02-.1,.02,.17-.02,.07-.01-.14,.01,.08,.02,.04,0-.04-.01,.16,.06,.02,0-.07-.03,.05,.03,.06,.04-.02-.03-.06-.05-.07-.08,.09,.13-.02-.03-.04-.08-.02-.04-.08-.16-.08-.15-.04-.1-.11-.32-.14-.48s-.01-.07,0-.04c0-.04,0-.08,0-.12,0-.08,0-.16,0-.24,0-.21,0-.22,.06-.45,.09-.37,.18-.6,.34-.91,.2-.36,.32-.54,.61-.8,.03-.02,.05-.05,.08-.07,.09-.08-.09,.06,0,0,.06-.04,.12-.08,.19-.12,.03-.02,.07-.04,.11-.06-.06,.03-.1,.03-.02,.01,.03,0,.06-.01,.08-.02,.09-.03-.18,.01-.02,0,.4-.03,.75-.32,.75-.75,0-.38-.34-.78-.75-.75h0Z" style="fill:#fff;"/><path d="M99.5,75.19c1,.19,1.99,.39,2.99,.58,.38,.07,.83-.11,.92-.52,.08-.37-.11-.84-.52-.92-1-.19-1.99-.39-2.99-.58-.38-.07-.83,.11-.92,.52-.08,.37,.11,.84,.52,.92h0Z" style="fill:#fff;"/><path d="M100.63,72.01c-.15,2.1-.61,4.27,.03,6.33,.29,.92,1.74,.53,1.45-.4-.6-1.91-.12-3.98,.02-5.93,.03-.4-.37-.75-.75-.75-.43,0-.72,.34-.75,.75h0Z" style="fill:#fff;"/><path d="M105.91,72.21c.1-.04,.21-.05,.31-.09-.08,.03-.16,0-.04,.01,.13,0,.11,0-.02-.01,.02,0,.05,0,.07,.02,.07,.02-.02-.02-.03-.02-.03,.03-.07-.06,.03,.02,.09,.07-.16-.13-.04-.03,.1,.08,.01,.05-.02-.04,.02,.07,.09,.16,.13,.22-.06-.11-.04-.12-.01-.01,.01,.05,.03,.11,.04,.16,.01,.05,.02,.1,.03,.15,.03,.13,0-.15,0-.01,0,.13,.02,.25,.02,.38,0,.12,0,.23-.01,.35,0,.07,0,.13-.02,.2,0,.04,0,.08-.01,.11-.01,.11,.02-.14,0-.03-.04,.28-.1,.55-.17,.83-.07,.29-.16,.57-.27,.84-.02,.06-.04,.11-.07,.17,.07-.16-.01,.03-.03,.07-.06,.13-.12,.26-.19,.39s-.15,.25-.23,.37c-.03,.04-.16,.21-.04,.06-.04,.05-.07,.09-.11,.13-.08,.09-.2,.17-.27,.26-.05,.07,.12-.08,.05-.04-.02,.01-.05,.03-.07,.05-.05,.03-.11,.06-.16,.09-.57,.28-.44,1.24,.18,1.37,1.08,.23,2.18,.42,3.29,.33,.4-.03,.75-.32,.75-.75,0-.38-.34-.78-.75-.75-.98,.08-1.93-.07-2.89-.28l.18,1.37c1.14-.57,1.74-2.05,2.05-3.2,.29-1.08,.56-2.64-.15-3.63-.45-.63-1.22-.8-1.93-.53-.38,.14-.64,.51-.52,.92,.1,.36,.54,.67,.92,.52h0Z" style="fill:#fff;"/><path d="M110.17,66.59c-.83,2.82-.71,5.85-.79,8.76-.02,.71,1.08,1.07,1.4,.38,.06-.13,.12-.26,.2-.37-.06,.08,0,.01,.03-.03,.08-.14,.02,.04,0,0,0-.02,.07-.01-.05,.02,.1-.03-.1,0-.13,0-.13,0-.02,0,.02,.01-.1-.03-.07-.05-.1-.05-.04,0-.04-.05,.03,.04,.06,.07,0,0-.02-.03,.06,.08,.1,.16,.14,.25-.07-.14,.04,.12,.05,.18s.06,.34,.05,.2c.05,.46,.02,.72-.22,1.04,.09-.12-.2,.17-.09,.09-.11,.08-.18,.11-.25,.14-.3,.11-.6,.09-.92,.06-.96-.09-.96,1.41,0,1.5s1.99-.19,2.57-1.03c.43-.64,.52-1.46,.37-2.2-.13-.64-.49-1.39-1.16-1.61-.82-.27-1.47,.35-1.79,1.04l1.4,.38c.08-2.77-.05-5.67,.74-8.36,.27-.93-1.17-1.32-1.45-.4h0Z" style="fill:#fff;"/></g><g><path d="M52.58,92.72c0,8.48,.13,16.96-.22,25.43-.06,1.34-.69,4.24,1.07,4.85,.81,.28,1.82,.08,2.66,.03,2-.12,4.01-.12,6.02-.1,2.29,.02,4.58,0,6.86,.13s4.64,.29,6.96,.07c.57-.05,1.08-.83,.53-1.28-2.22-1.82-3.84-4.19-5.69-6.35s-4.23-4.08-6.02-6.42c-1.94-2.55-3.67-5.32-5.46-7.98s-3.66-5.55-5.3-8.45c-.48-.84-1.77-.09-1.3,.76,1.68,2.96,3.52,5.82,5.43,8.64,1.79,2.65,3.51,5.41,5.45,7.95,1.75,2.29,3.97,4.11,5.86,6.26s3.64,4.76,5.96,6.66l.53-1.28c-2.48,.24-4.95,.03-7.43-.1s-4.74-.09-7.11-.11c-2.08-.02-4.15,.05-6.23,.17-.89,.05-1.3,.27-1.37-.67-.13-1.87,.13-3.83,.19-5.7,.07-2.44,.11-4.89,.13-7.33,.04-5.06,0-10.11-.01-15.17,0-.97-1.5-.97-1.5,0h0Z" style="fill:#fff;"/><path d="M51.3,114.27c2.12,.04,4.02,.85,5.25,2.63,1.36,1.97,1.89,4.42,2.32,6.74,.17,.95,1.62,.55,1.45-.4-.46-2.54-1.09-5.26-2.66-7.37s-3.8-3.05-6.35-3.1c-.97-.02-.97,1.48,0,1.5h0Z" style="fill:#fff;"/><path d="M47.93,105.36c-.17-.71-.55-1.39-1.23-1.7-.61-.28-1.31-.22-1.92,.02-1.41,.56-2.56,1.84-3.07,3.26-.45,1.26-.24,3.31,.97,4.11,1.1,.73,2.42-.02,3.21-.85,1.15-1.2,1.9-2.92,1.81-4.59-.02-.37-.27-.69-.65-.74-.33-.04-.77,.16-.82,.54-.2,1.37,.25,2.57,1.39,3.38,.9,.64,2.08,.93,3.18,.92,.96,0,.97-1.51,0-1.5-1.36,.01-3.38-.67-3.13-2.4l-1.47-.2c.06,1.09-.32,2.12-.96,3.03-.12,.17-.24,.32-.42,.5-.08,.09-.17,.17-.26,.25-.05,.04-.09,.08-.14,.12,.09-.07-.07,.05-.08,.06-.09,.06-.17,.11-.26,.16-.05,.03-.1,.05-.15,.07,.03-.01,.13-.05,0,0-.04,.01-.29,.07-.19,.05,.13-.02-.35-.02-.08,.01-.07,0-.24-.05-.07,0-.04-.01-.08-.04-.12-.07-.09-.06,.13,.13,0,0-.12-.12-.17-.19-.26-.39-.16-.39-.27-1.16-.21-1.52,.15-.98,.9-1.93,1.69-2.47,.46-.31,.83-.47,1.25-.44-.18-.01,.02,0,.05,.02,.15,.05-.11-.05,.06,.02,.04,.01,.08,.05,.11,.07-.12-.08,.03,.03,.05,.05,.03,.04,.07,.08,.14,.21,.04,.09,.09,.26,.13,.42,.22,.94,1.67,.54,1.45-.4h0Z" style="fill:#fff;"/><path d="M67.63,96.89c0,2.92-.41,5.83-.19,8.75,.06,.84,1.19,1.02,1.47,.2,.23-.69,.65-1.42,1.11-2.07,.23-.32,.48-.62,.76-.89,.12-.11,.26-.24,.32-.28,.06-.04,.12-.09,.19-.12,.04-.02,.26-.13,.13-.08,.06-.02,.12-.04,.18-.06,.14-.04-.11,0,.04,0,.11,0-.09-.06,.05,0,.07,.04-.04-.02-.05-.02,.02,0,.09,.04,.1,.06-.11-.13,.07,.08,.03,.03-.02-.03,.07,.11,.09,.15,.09,.17,.15,.36,.21,.56,.22,.83,.17,1.76-.43,2.41-.13,.14-.23,.23-.43,.32-.05,.02-.23,.05-.27,.05,.08,0-.19-.06-.09-.02-.11-.04-.13-.07-.2-.13-.2-.18-.32-.44-.43-.68-.16-.37-.7-.46-1.03-.27-.38,.22-.43,.65-.27,1.03,.54,1.21,1.76,1.98,3.04,1.33,1.14-.58,1.75-1.96,1.73-3.2-.02-1.1-.42-2.74-1.64-3.07-1.02-.27-1.99,.52-2.62,1.22-.86,.95-1.56,2.11-1.98,3.33l1.47,.2c-.22-2.92,.18-5.83,.19-8.75,0-.97-1.5-.97-1.5,0h0Z" style="fill:#fff;"/><path d="M65,127.32c-.02,.11-.04,.09,.06-.09l1.03-.27h0c.11,.15,.23,.3,.34,.45-.01-.04,.01,.24,.02,.1,0-.05,0-.1,0-.15,0-.14,0-.29,0-.43s0-.3-.03-.44c-.08-.27-.31-.44-.54-.58-.48-.31-1.05-.52-1.61-.6-1.23-.18-2.58,.09-3.39,1.1-.88,1.09-1.05,2.76-.35,3.99,.61,1.06,1.79,1.73,2.97,1.93,1.33,.22,2.79-.02,3.62-1.18,.24-.33,.06-.83-.27-1.03-.38-.22-.79-.06-1.03,.27-.09,.13,.12-.12,0,0-.03,.03-.06,.07-.09,.1s-.07,.06-.1,.09c-.11,.11,.14-.08,0,0-.07,.04-.13,.08-.2,.12-.04,.02-.09,.04-.13,.06-.11,.06,.16-.05-.04,.01-.18,.05-.35,.1-.53,.13s.17,0,0,0c-.05,0-.1,0-.16,.01-.12,0-.23,0-.35,0-.1,0-.2-.02-.3-.02-.19-.01,.17,.04-.02,0-.05-.01-.11-.02-.16-.03-.22-.04-.43-.1-.64-.18-.05-.02-.1-.04-.15-.06,.18,.07,0,0-.02-.01-.08-.04-.16-.08-.24-.13-.1-.05-.19-.11-.28-.17-.03-.02-.17-.14-.02-.01-.06-.05-.11-.09-.16-.14-.07-.06-.13-.12-.19-.19-.04-.04-.07-.08-.1-.12,.13,.15,.01,.02-.01-.02-.06-.09-.12-.18-.17-.27-.02-.03-.03-.07-.05-.1-.03-.08-.03-.07,.01,.03-.01-.03-.03-.07-.04-.1-.03-.11-.05-.22-.08-.32-.05-.18,0,.16,0-.03,0-.04,0-.08,0-.12,0-.14,0-.27,0-.41,0-.02,.03-.25,0-.09,.01-.09,.03-.18,.05-.27,.02-.1,.05-.21,.09-.31,.01-.03,.1-.21,.01-.05,.03-.05,.05-.11,.08-.16,.05-.1,.12-.19,.18-.28-.1,.14-.04,.05-.01,.02,.05-.05,.1-.11,.15-.16,.04-.04,.08-.07,.12-.11-.14,.13-.02,.01,.02,0,.08-.05,.16-.1,.25-.15,.04-.02,.08-.04,.12-.06,.16-.08-.15,.04,.02,0,.12-.03,.24-.08,.36-.1,.05-.01,.11-.02,.16-.03,.17-.04-.16,0,.01,0,.13,0,.25-.02,.38-.02s.25,.01,.38,.02c-.02,0-.17-.03-.04,0,.07,.01,.14,.03,.22,.04,.12,.03,.25,.06,.37,.1,.05,.02,.1,.04,.15,.05,.15,.04-.13-.07,.02,0,.22,.11,.44,.23,.64,.38l-.37-.65c.04,.49-.16,1.3,.39,1.57,.36,.18,.82,.11,1.03-.27,.05-.1,.08-.17,.1-.27,.06-.4-.1-.81-.52-.92-.36-.1-.86,.12-.92,.52h0Z" style="fill:#fff;"/></g><g><path d="M62.01,161.52c16.03-1.15,32.05-2.29,48.08-3.44,14.43-1.03,28.87-2.06,43.3-3.1,7.41-.53,14.83-1.06,22.24-1.59,.96-.07,.96-1.57,0-1.5-13.48,.96-26.96,1.93-40.44,2.89-15.14,1.08-30.29,2.17-45.43,3.25-9.25,.66-18.49,1.32-27.74,1.98-.96,.07-.96,1.57,0,1.5h0Z" style="fill:#fff;"/><path d="M70.18,172.35c2.22-4.64,3.74-9.57,5.82-14.26,1.87-4.23,4.33-8.56,8.57-10.79,4.43-2.32,10.4-2.25,14.8,.08s7.76,6.92,10.43,11.25,5.62,9.02,11.1,8.94c5.04-.08,9.28-4.16,12.38-7.71,3.45-3.96,5.98-8.56,8.74-13,2.38-3.83,5.14-8.36,9.42-10.29,2.29-1.03,5.01-1.04,7.27,.07,2.62,1.28,4.39,3.78,5.59,6.36,1.51,3.25,2.41,6.9,3.47,10.32,1.2,3.86,2.12,7.77,2.07,11.84-.01,.97,1.49,.97,1.5,0,.09-6.94-2.48-13.78-4.69-20.27-1.62-4.76-4.8-9.7-10.18-10.47-4.57-.66-8.4,1.96-11.24,5.29-3.38,3.97-5.79,8.65-8.58,13.02-2.99,4.69-6.72,9.74-11.82,12.29-2.14,1.08-4.59,1.45-6.84,.49-2.92-1.25-4.75-4.05-6.33-6.67-2.69-4.49-5.8-9.1-10.28-12-4.22-2.73-9.49-3.31-14.33-2.08-5.35,1.36-8.9,5.55-11.3,10.3-2.7,5.34-4.3,11.14-6.89,16.53-.42,.87,.88,1.63,1.3,.76h0Z" style="fill:#fff;"/></g></g></g><g><polygon points="126.51 206.09 155.88 111.97 226.36 121.88 196.14 227.04 126.51 206.09" style="fill:#d19c5e;"/><polygon points="182.82 221.73 212.33 118.45 224.73 123.39 195.06 225.32 182.82 221.73" style="fill:#efefef; isolation:isolate;"/><g><polygon points="113.27 202 142.38 107.29 211.78 117.06 212.76 117.53 182.58 222.55 113.27 202" style="fill:#ffc700;"/><polygon points="211.77 117.09 181.55 222.25 120.05 204.2 112.19 201.89 141.29 107.17 149.03 108.26 211.77 117.09" style="fill:#ffe092;"/><polygon points="149.03 108.26 120.05 204.2 112.19 201.89 141.29 107.17 149.03 108.26" style="fill:#ffc700;"/></g></g><g><polygon points="64.85 217.51 48.95 221.73 48.94 222.14 135.4 242.45 147.83 237.18 147.85 236.76 64.85 217.51" style="fill:url(#o);"/><polygon points="64.9 216.48 48.95 221.73 135.44 241.87 147.85 236.76 64.9 216.48" style="fill:#9f9ef2;"/><g style="opacity:.38;"><polygon points="116.22 229.03 121.38 236.15 121.74 236.65 121.78 236.71 122 237.01 122.42 237.6 122.64 237.9 123.06 238.48 123.28 238.78 123.5 239.09 132.72 241.24 132.36 240.79 132.12 240.5 131.67 239.94 131.44 239.65 130.99 239.09 130.76 238.8 130.74 238.77 130.33 238.27 124.56 231.07 116.22 229.03" style="fill:url(#p); mix-blend-mode:screen;"/><polygon points="102.75 225.74 108.07 233.01 108.45 233.52 108.63 233.77 108.85 234.08 109.29 234.67 109.51 234.99 109.95 235.58 110.18 235.89 110.27 236.01 119.82 238.23 119.6 237.96 119.36 237.66 118.9 237.09 118.66 236.8 118.2 236.23 117.95 235.93 117.78 235.72 117.36 235.2 111.4 227.85 102.75 225.74" style="fill:url(#q); mix-blend-mode:screen;"/><polygon points="80.52 220.3 86.1 227.82 86.49 228.34 86.94 228.94 87.17 229.26 87.63 229.87 87.87 230.19 88.32 230.81 88.4 230.91 98.53 233.27 98.31 233.01 97.83 232.42 97.57 232.11 97.09 231.52 96.84 231.22 96.39 230.68 95.95 230.15 89.7 222.55 80.52 220.3" style="fill:url(#r); mix-blend-mode:screen;"/><polygon points="65.69 216.68 71.45 224.35 71.99 225.08 72.46 225.71 72.71 226.03 73.18 226.66 73.43 226.98 73.83 227.52 84.35 229.97 84.28 229.89 83.79 229.29 83.53 228.98 83.02 228.38 82.76 228.06 82.26 227.46 81.69 226.77 75.22 219.01 65.69 216.68" style="fill:url(#s); mix-blend-mode:screen;"/></g><polygon points="53.71 220.16 52.91 220.43 54.62 220.83 50.69 222.13 51.44 222.3 55.37 221 56.78 221.34 52.86 222.64 53.61 222.81 57.51 221.51 58.92 221.84 55.04 223.14 55.78 223.31 59.66 222.02 61.06 222.35 57.19 223.64 57.93 223.82 61.79 222.52 63.18 222.85 59.33 224.14 60.07 224.31 63.9 223.02 65.29 223.34 61.47 224.64 62.2 224.81 66.01 223.51 67.39 223.84 63.59 225.13 64.32 225.3 68.11 224.01 69.47 224.33 65.7 225.63 66.42 225.79 70.18 224.5 71.55 224.82 67.8 226.11 68.51 226.28 72.26 224.99 73.62 225.31 69.89 226.6 70.6 226.77 74.32 225.47 75.67 225.79 71.96 227.08 72.67 227.25 76.37 225.96 77.71 226.27 74.02 227.56 74.73 227.73 78.41 226.44 79.75 226.75 76.08 228.04 76.78 228.21 80.44 226.92 81.76 227.23 78.12 228.52 78.82 228.68 82.45 227.39 83.77 227.7 80.15 228.99 80.85 229.15 84.46 227.86 85.78 228.17 82.17 229.46 82.86 229.62 86.46 228.34 87.76 228.64 84.18 229.93 84.87 230.09 88.44 228.8 89.74 229.11 86.18 230.4 86.86 230.56 90.42 229.27 91.71 229.57 88.17 230.86 88.85 231.02 92.38 229.73 93.67 230.03 90.15 231.32 90.82 231.48 94.33 230.19 95.62 230.49 92.12 231.78 92.79 231.94 96.28 230.65 97.56 230.95 94.08 232.24 94.74 232.39 98.22 231.11 99.48 231.4 96.02 232.69 96.68 232.84 100.14 231.56 101.4 231.86 97.96 233.14 98.62 233.29 102.05 232.01 103.31 232.31 99.89 233.59 100.55 233.74 103.96 232.46 105.2 232.75 101.8 234.03 102.46 234.19 105.85 232.91 107.09 233.2 103.71 234.48 104.36 234.63 107.74 233.35 108.97 233.64 105.61 234.92 106.26 235.07 109.62 233.79 110.84 234.08 107.49 235.36 108.14 235.51 111.48 234.23 112.7 234.52 109.37 235.8 110.02 235.95 113.34 234.67 114.55 234.96 111.24 236.23 111.88 236.38 115.18 235.11 116.39 235.39 113.1 236.67 113.73 236.81 117.02 235.54 118.22 235.82 114.95 237.1 115.58 237.25 118.85 235.97 120.05 236.25 116.79 237.53 117.42 237.67 120.67 236.4 121.85 236.68 118.62 237.95 119.25 238.1 122.47 236.83 123.66 237.11 120.44 238.38 121.07 238.52 124.28 237.25 125.46 237.53 122.26 238.8 122.88 238.94 126.07 237.67 127.24 237.95 124.06 239.22 124.67 239.36 127.85 238.09 129.02 238.37 125.85 239.64 126.47 239.78 129.62 238.51 130.79 238.79 127.64 240.05 128.25 240.2 131.39 238.93 132.54 239.2 129.41 240.47 130.02 240.61 133.14 239.34 134.3 239.61 131.18 240.88 131.79 241.02 134.89 239.75 136.04 240.02 132.94 241.29 133.55 241.43 136.63 240.16 138.51 240.61 139.13 240.35 53.71 220.16" style="fill:#fff;"/></g><g><g><path d="M129.78,211.86h0s0,.06,.01,.1c0,0,0,0,0,0,0-.03-.01-.06-.01-.1Z" style="fill:none;"/><polygon points="161.16 201.57 161.16 201.57 161.16 201.57 161.16 201.57" style="fill:none;"/><path d="M140.01,209.04s-.04-.08-.06-.11c0,0,0,0,0,0,.02,.04,.04,.07,.06,.11Z" style="fill:none;"/><path d="M139.51,208.52h0c-.09-.04-.19-.08-.3-.1,.11,.03,.21,.06,.3,.1Z" style="fill:none;"/><path d="M139.74,208.66h0s-.11-.07-.16-.1c0,0,0,0,0,0,.05,.03,.11,.06,.15,.09Z" style="fill:none;"/><path d="M154.25,204.05h0c-.09-.04-.19-.08-.3-.1,.11,.03,.21,.06,.3,.1Z" style="fill:none;"/><polygon points="150.22 203.06 150.22 203.06 150.22 203.06 150.22 203.06" style="fill:none;"/><path d="M132.74,208.35c.24-.25,.56-.46,.92-.61,.11-.05,.23-.09,.34-.12-.49,.15-.96,.41-1.27,.74h0Z" style="fill:none;"/><path d="M184.92,188.35c-.01,.06-.03,.12-.05,.18,.02-.06,.03-.12,.05-.18Z" style="fill:none;"/><path d="M184.95,188.03c0,.06-.01,.11-.02,.17,0-.06,.02-.12,.02-.17Z" style="fill:none;"/><path d="M184.94,187.73c0,.05,0,.11,0,.16,0-.06,0-.11,0-.16Z" style="fill:none;"/><path d="M135.9,205.34h0s0,.07,.01,.1c0,0,0,0,0,0,0-.03-.01-.06-.01-.1Z" style="fill:none;"/><path d="M139.91,208.84h0s-.06-.07-.1-.1c0,0,0,0,0,0,.03,.03,.07,.06,.1,.1Z" style="fill:none;"/><path d="M162.94,199.37c.06-.07,.14-.13,.22-.19,.08-.06,.16-.12,.25-.17-.18,.1-.34,.23-.47,.36h0Z" style="fill:none;"/><path d="M169.74,199.79s0,0,0,0c-.07-.03-.16-.06-.25-.08,.02,0,.04,.01,.06,.02,.07,.02,.13,.04,.19,.06Z" style="fill:none;"/><path d="M161.19,201.37s0,0,0,0c0,.03,0,.05-.01,.08,0,0,0,0,0,0,0-.03,0-.05,.01-.08Z" style="fill:none;"/><path d="M169.94,199.9s0,0,0,0c-.04-.03-.09-.06-.14-.08,0,0,.02,0,.02,.01,.04,.02,.08,.04,.11,.07Z" style="fill:none;"/><path d="M161.29,201.16s-.02,.05-.03,.07c0,0,0,0,0,0,.01-.02,.02-.04,.03-.07Z" style="fill:none;"/><path d="M156.63,206.23s-.01,.06-.02,.09c0,0,0,0,0,0,0-.03,0-.06,.02-.09Z" style="fill:none;"/><path d="M170.08,200.05s0,0,0,0c-.02-.03-.06-.06-.09-.09,0,0,0,0,0,0,.03,.03,.06,.05,.08,.08Z" style="fill:none;"/><path d="M156.73,206.02s0,0,0,0c-.02,.03-.02,.05-.04,.08,0,0,0,0,0,0,.01-.02,.02-.05,.03-.07Z" style="fill:none;"/><polygon points="165.52 204.91 165.52 204.91 165.52 204.91 165.52 204.91" style="fill:none;"/><polygon points="156.63 206.22 156.63 206.23 156.63 206.22 156.63 206.22" style="fill:none;"/><path d="M156.6,206.42s0,0,0,0c0,.03,0,.06,.01,.08,0,0,0,0,0,0,0-.03-.01-.05-.01-.08Z" style="fill:none;"/><path d="M165.56,204.98s.04,.06,.05,.09c-.01-.03-.03-.06-.05-.09,0,0,0,0,0,0Z" style="fill:none;"/><path d="M129.82,211.63s0,.06-.02,.09c0,0,0,0,0,0,0-.03,0-.06,.02-.09Z" style="fill:none;"/><path d="M116.55,212.62s-.06-.08-.09-.11c.03,.04,.06,.08,.09,.11Z" style="fill:none;"/><path d="M150.69,200.63s0,0,0,0c-.01,.03-.01,.06-.02,.1,0,0,0,0,0,0,0-.03,0-.06,.02-.09Z" style="fill:none;"/><polygon points="150.64 200.87 150.64 200.87 150.64 200.87 150.64 200.87" style="fill:none;"/><path d="M116.35,212.37s-.05-.08-.07-.12c.02,.04,.05,.08,.07,.12Z" style="fill:none;"/><path d="M116.8,212.84s-.07-.07-.11-.1c.04,.03,.07,.07,.11,.1Z" style="fill:none;"/><path d="M148.13,210.57c-.09-.04-.19-.08-.3-.1,.01,0,.02,0,.04,.01,.1,.02,.19,.05,.26,.09Z" style="fill:none;"/><path d="M151.76,195.48c-.09-.04-.19-.08-.3-.1,.01,0,.02,0,.04,.01,.1,.02,.19,.05,.26,.09Z" style="fill:none;"/><path d="M150.64,200.87s0,.06,.01,.09c0,0,0,0,0,0,0-.03-.01-.06-.01-.09Z" style="fill:none;"/><polygon points="148.53 210.89 148.53 210.88 148.53 210.89 148.53 210.89" style="fill:none;"/><path d="M154.49,204.19h0s-.11-.07-.16-.1c0,0,0,0,0,0,.05,.03,.11,.06,.15,.09Z" style="fill:none;"/><path d="M116.19,212.1s-.04-.09-.05-.13c.02,.04,.03,.09,.05,.13Z" style="fill:none;"/><path d="M154.36,208.51c.18-.19,.44-.34,.72-.42-.28,.08-.54,.23-.72,.42h0Z" style="fill:none;"/><path d="M117.1,213.05s-.08-.06-.13-.09c.04,.03,.08,.06,.13,.09Z" style="fill:none;"/><path d="M154.76,204.57s-.04-.07-.06-.11c0,0,0,0,0,0,.02,.04,.04,.07,.06,.11Z" style="fill:none;"/><path d="M160.07,197.42c.11,.03,.21,.06,.3,.1h0c-.09-.04-.19-.08-.3-.1Z" style="fill:none;"/><path d="M184.84,188.67c-.02,.06-.05,.13-.08,.19,.03-.06,.06-.13,.08-.19Z" style="fill:none;"/><path d="M184.52,189.33c-.05,.08-.1,.15-.16,.23,.06-.08,.11-.15,.16-.23Z" style="fill:none;"/><path d="M154.66,204.36h0s-.06-.07-.1-.1c0,0,0,0,0,0,.03,.03,.07,.06,.1,.1Z" style="fill:none;"/><path d="M184.7,189c-.03,.07-.07,.14-.11,.21,.04-.07,.08-.14,.11-.21Z" style="fill:none;"/><path d="M160.88,198.04s-.04-.08-.06-.11c0,0,0,0,0,0,.02,.04,.04,.07,.06,.11Z" style="fill:none;"/><path d="M117.82,213.38s-.09-.04-.13-.05c.05,.02,.09,.04,.13,.05Z" style="fill:none;"/><path d="M117.44,213.23s-.09-.05-.13-.07c.04,.02,.08,.05,.13,.07Z" style="fill:none;"/><path d="M160.78,197.84h0s-.07-.07-.1-.11c0,0,0,0,0,0,.03,.03,.07,.07,.1,.1Z" style="fill:none;"/><path d="M160.61,197.67s0,0,0,0c-.05-.04-.11-.07-.17-.1,0,0,0,0,0,0,.06,.03,.11,.06,.16,.09Z" style="fill:none;"/><path d="M184.29,189.67c-.09,.11-.18,.22-.29,.33,.1-.11,.2-.22,.29-.33Z" style="fill:none;"/><path d="M121.15,209.81h0s0,.07,.01,.1c0,0,0,0,0,0,0-.03-.01-.06-.01-.1Z" style="fill:none;"/><path d="M130.24,199.78c.08-.08,.17-.16,.26-.23,.09-.07,.2-.14,.31-.2-.22,.12-.41,.27-.57,.44h0Z" style="fill:none;"/><path d="M127.28,203.29h0s0,.06,.01,.1c0,0,0,0,0,0,0-.03-.01-.06-.01-.09Z" style="fill:none;"/><path d="M121.28,209.41s.02-.05,.04-.08t0,0s-.03,.06-.04,.09c0,0,0,0,0,0Z" style="fill:none;"/><path d="M127.32,203.05h0s-.01,.07-.02,.1c0,0,0,0,0,0,0-.03,0-.06,.02-.1Z" style="fill:none;"/><path d="M137.42,200.27s-.04-.04-.06-.06c.02,.02,.04,.04,.06,.06h0Z" style="fill:none;"/><path d="M133.56,196.29h0s-.03,.06-.04,.09c0,0,0,0,0,0,.01-.03,.02-.05,.04-.08Z" style="fill:none;"/><path d="M133.45,196.53s0,0,0,0c-.01,.03-.01,.07-.02,.1,0,0,0,0,0,0,0-.03,0-.06,.02-.1Z" style="fill:none;"/><polygon points="133.4 196.77 133.4 196.77 133.4 196.77 133.4 196.77" style="fill:none;"/><path d="M136.37,193.26c.08-.08,.17-.16,.26-.23,.09-.07,.2-.14,.31-.2-.22,.12-.41,.27-.57,.44h0Z" style="fill:none;"/><path d="M130.59,206.37h0s.02,0,.04,.01c.1,.02,.19,.05,.27,.09,0,0,0,0,0,0-.09-.04-.19-.08-.3-.1h0Z" style="fill:none;"/><path d="M161.16,201.57s0,.05,.01,.08c0,0,0,0,0,0,0-.03-.01-.05-.01-.08Z" style="fill:none;"/><path d="M131.29,206.79h0s-.07-.07-.11-.11c0,0,0,0,0,0,.04,.04,.08,.07,.1,.11Z" style="fill:none;"/><path d="M131.39,206.99s-.04-.08-.06-.12c0,0,0,0,0,0,.02,.04,.04,.08,.06,.12Z" style="fill:none;"/><path d="M127.4,202.88s.02-.05,.04-.08c0,0,0,0,0,0-.02,.03-.03,.06-.04,.09,0,0,0,0,0,0Z" style="fill:none;"/><path d="M121.2,209.57h0s-.01,.07-.02,.1c0,0,0,0,0,0,0-.03,0-.06,.02-.1Z" style="fill:none;"/><path d="M148.63,211.09s-.04-.08-.06-.11c0,0,0,0,0,0,.02,.04,.04,.07,.06,.11Z" style="fill:none;"/><path d="M131.12,206.61s0,0,0,0c-.05-.04-.11-.07-.17-.1,0,0,.01,0,.02,.01,.05,.03,.11,.06,.15,.09Z" style="fill:none;"/><path d="M170.12,200.13s.04,.06,.05,.09c-.01-.03-.03-.07-.05-.1,0,0,0,0,0,0Z" style="fill:none;"/><path d="M133.4,196.77s0,.06,.01,.09c0,0,0,0,0,0,0-.03-.01-.06-.01-.09Z" style="fill:none;"/><polygon points="141.63 189.98 141.67 189.93 139.55 189.87 139.55 189.87 139.78 189.93 141.63 189.98" style="fill:url(#t);"/><path d="M139.11,192.44l3.73,.89-3.73-.89c-.67-.16-1.52,0-2.17,.38-.11,.06-.21,.13-.31,.2,.66-.51,1.7-.77,2.48-.58Z" style="fill:url(#u);"/><polygon points="136.37 193.26 133.76 196.04 136.37 193.26 136.37 193.26" style="fill:url(#v);"/><path d="M133.53,196.37s0,0,0,0c-.03,.05-.06,.11-.08,.16,0,0,0,0,0,0,.02-.05,.05-.11,.08-.17Z" style="fill:url(#w);"/><path d="M133.43,196.63s0,0,0,0c0,.05-.02,.09-.03,.14h0s.02-.09,.03-.14Z" style="fill:url(#x);"/><path d="M133.76,196.04c-.08,.08-.14,.17-.19,.25h0c.05-.08,.12-.17,.19-.25Z" style="fill:url(#y);"/><path d="M133.42,196.87s0,0,0,0c0,.04,0,.09,.02,.13h0s-.01-.08-.02-.13Z" style="fill:url(#z);"/><path d="M131.89,198.95c-.38,.07-.75,.2-1.08,.39-.11,.06-.21,.13-.31,.2,.38-.29,.88-.5,1.38-.59Z" style="fill:url(#aa);"/><path d="M131.89,198.95c.38-.07,.76-.07,1.09,0-.33-.08-.71-.08-1.09,0Z" style="fill:url(#ab);"/><path d="M142.38,198.09s-.08,.1-.11,.15c.04-.05,.07-.1,.11-.15l2.61-2.78-2.61,2.78Z" style="fill:url(#ac);"/><path d="M151.46,195.37s.02,0,.04,.01c-.01,0-.02,0-.04-.01l-2.37-.56,2.37,.56Z" style="fill:url(#ad);"/><path d="M137.43,200.3s0-.02-.01-.03h0s0,.02,.01,.03Z" style="fill:url(#ae);"/><path d="M127.4,202.88s0,0,0,0c-.03,.05-.06,.11-.08,.16h0c.02-.06,.05-.11,.08-.17Z" style="fill:url(#af);"/><path d="M127.64,202.56l2.61-2.78h0l-2.61,2.78c-.08,.08-.14,.17-.19,.25,0,0,0,0,0,0,.05-.08,.12-.17,.19-.25Z" style="fill:url(#ag);"/><path d="M127.29,203.39s0,0,0,0c0,.04,0,.09,.02,.13h0s-.01-.09-.02-.13Z" style="fill:url(#ah);"/><path d="M127.31,203.15s0,0,0,0c0,.05-.02,.09-.03,.14h0s.02-.09,.03-.14Z" style="fill:url(#ai);"/><path d="M127.51,203.82s0,0,0,0c.02,.02,.04,.05,.07,.07h0s-.05-.05-.07-.07Z" style="fill:url(#aj);"/><path d="M127.36,203.63s0,0,0,0c.01,.03,.02,.06,.04,.09h0s-.03-.06-.04-.09Z" style="fill:url(#ak);"/><path d="M156.34,196.54h0c-.66-.16-1.52,0-2.17,.38,.65-.37,1.5-.54,2.17-.38Z" style="fill:url(#al);"/><path d="M140.83,200.96c-.23,.02-.47,.06-.7,.13,.23-.07,.47-.11,.7-.13Z" style="fill:url(#am);"/><path d="M124.68,205.86c.22-.12,.46-.23,.7-.3-.25,.07-.49,.18-.7,.3Z" style="fill:url(#an);"/><path d="M184.91,187.59s.02,.09,.03,.14c0,.05,0,.11,0,.16,0,.05,0,.09,0,.14,0,.06-.01,.11-.02,.17,0,.05,0,.09-.02,.14-.01,.06-.03,.12-.05,.18-.01,.05-.02,.1-.04,.14-.02,.06-.05,.13-.08,.19-.02,.05-.03,.09-.06,.14-.03,.07-.07,.14-.11,.21-.02,.04-.04,.08-.07,.13-.05,.08-.1,.15-.16,.23-.03,.04-.05,.07-.08,.11-.09,.11-.18,.22-.29,.33l-27.01,28.76c-1.67,1.78-4.97,2.76-7.35,2.2l-31.38-7.46c-.15-.04-.29-.08-.43-.12-.05-.02-.09-.04-.13-.05-.08-.03-.17-.06-.25-.1-.05-.02-.09-.05-.13-.07-.07-.04-.15-.07-.21-.11-.05-.03-.08-.06-.13-.09-.06-.04-.12-.08-.17-.12-.04-.03-.07-.07-.11-.1-.05-.04-.1-.08-.14-.13-.03-.04-.06-.08-.09-.11-.04-.04-.08-.09-.11-.13-.03-.04-.05-.08-.07-.12-.03-.05-.06-.09-.08-.14-.02-.04-.04-.09-.05-.13-.02-.05-.04-.1-.06-.15,0,0,0,0,0,0l.52,1.76c.23,.78,.97,1.4,2.17,1.69l31.38,7.46c2.39,.57,5.68-.42,7.35-2.2l27.01-28.76c.83-.88,1.1-1.8,.88-2.56l-.52-1.76s.02,.1,.03,.15Z" style="fill:#5254cf;"/><polygon points="160.07 197.42 156.34 196.54 156.34 196.54 160.07 197.42" style="fill:url(#ao);"/><polygon points="130.59 206.37 130.59 206.37 126.86 205.48 130.59 206.37 130.59 206.37" style="fill:url(#ap);"/><path d="M160.83,197.93s0,0,0,0c-.02-.03-.02-.06-.04-.09h0s.03,.06,.04,.09Z" style="fill:url(#aq);"/><path d="M160.46,197.57s0,0,0,0c-.02-.01-.04-.03-.07-.04h0s.05,.03,.08,.05Z" style="fill:url(#ar);"/><path d="M160.68,197.74s0,0,0,0c-.02-.02-.04-.05-.07-.07,0,0,0,0,0,0,.03,.02,.05,.05,.07,.07Z" style="fill:url(#as);"/><path d="M150.77,200.47s0,0,0,0c-.03,.05-.06,.11-.08,.16,0,0,0,0,0,0,.02-.05,.05-.11,.08-.16Z" style="fill:url(#at);"/><path d="M150.67,200.72s0,0,0,0c0,.05-.02,.1-.03,.14h0s.02-.1,.03-.14Z" style="fill:url(#au);"/><path d="M150.66,200.96s0,0,0,0c0,.04,0,.09,.02,.13h0s-.01-.09-.02-.13Z" style="fill:url(#av);"/><path d="M135.91,205.44s0,0,0,0c0,.04,0,.09,.02,.13h0s-.01-.08-.02-.13Z" style="fill:url(#aw);"/><path d="M135.92,205.26s-.01,.05-.01,.08h0s.01-.05,.01-.08Z" style="fill:url(#ax);"/><path d="M131.19,206.68s0,0,0,0c-.02-.02-.04-.05-.06-.07,0,0,0,0,0,0,.03,.02,.04,.05,.07,.07Z" style="fill:url(#ay);"/><path d="M131.34,206.87s0,0,0,0c-.01-.03-.02-.06-.04-.08h0s.03,.06,.04,.09Z" style="fill:url(#az);"/><path d="M130.97,206.52s-.01,0-.02-.01c-.02-.01-.04-.03-.07-.04,0,0,0,0,0,0,.03,.01,.05,.03,.08,.05Z" style="fill:url(#ba);"/><path d="M130.59,206.37s.02,0,.04,.01c-.01,0-.02,0-.04-.01h0Z" style="fill:url(#bb);"/><path d="M121.51,209.08l2.61-2.78-2.61,2.78c-.08,.08-.14,.17-.19,.25t0,0c.05-.08,.12-.17,.19-.25Z" style="fill:url(#bc);"/><path d="M121.18,209.67s0,0,0,0c0,.05-.02,.09-.02,.14h0s.02-.09,.03-.14Z" style="fill:url(#bd);"/><path d="M121.17,209.91s0,0,0,0c0,.04,0,.08,.02,.12h0s-.01-.08-.02-.13Z" style="fill:url(#be);"/><path d="M121.28,209.41s0,0,0,0c-.03,.05-.06,.11-.08,.16h0c.02-.06,.05-.11,.08-.17Z" style="fill:url(#bf);"/><path d="M150.22,203.06h0c-.66-.16-1.52,0-2.17,.38,.65-.37,1.5-.54,2.17-.38Z" style="fill:url(#bg);"/><path d="M165.22,198.69h0c-.37-.09-.81-.06-1.22,.07,.41-.12,.85-.16,1.22-.07h0Z" style="fill:url(#bh);"/><path d="M163.7,198.86c-.1,.04-.19,.09-.28,.14-.09,.05-.18,.11-.25,.17,.16-.12,.34-.23,.54-.31Z" style="fill:url(#bi);"/><path d="M135.47,207.53l3.73,.89-3.73-.89c-.44-.11-.97-.07-1.47,.08-.12,.04-.23,.08-.34,.12,.58-.24,1.26-.34,1.81-.21Z" style="fill:url(#bj);"/><polygon points="162.94 199.37 161.45 200.96 162.94 199.37 162.94 199.37" style="fill:url(#bk);"/><polygon points="172.84 197.84 179.3 191 145.94 183.07 139.44 189.98 172.84 197.84" style="fill:#fff;"/><polygon points="139.78 189.93 139.55 189.87 139.5 189.92 172.84 197.84 139.78 189.93" style="fill:#fff;"/><path d="M161.17,201.65s0,0,0,0c0,.04,0,.07,.01,.11h0s-.01-.07-.01-.11Z" style="fill:url(#bl);"/><path d="M161.26,201.23s0,0,0,0c-.02,.05-.05,.09-.07,.14t0,0s.04-.09,.07-.14Z" style="fill:url(#bm);"/><path d="M161.18,201.45s0,0,0,0c0,.04-.02,.08-.02,.12h0s.01-.08,.02-.12Z" style="fill:url(#bn);"/><polygon points="153.95 203.94 150.22 203.06 150.22 203.06 153.95 203.94" style="fill:url(#bo);"/><polygon points="130.13 211.13 132.74 208.35 132.74 208.35 130.13 211.13" style="fill:url(#bp);"/><path d="M169.49,199.7s.04,.01,.06,.02c-.02,0-.04-.01-.06-.02l-4.27-1.01h0s4.27,1.01,4.27,1.01Z" style="fill:url(#bq);"/><path d="M154.7,204.45s0,0,0,0c-.02-.03-.02-.06-.04-.09h0s.03,.06,.04,.09Z" style="fill:url(#br);"/><path d="M154.56,204.26s0,0,0,0c-.02-.02-.04-.05-.07-.07h0s.05,.05,.07,.08Z" style="fill:url(#bs);"/><path d="M154.33,204.1s0,0,0,0c-.03-.01-.05-.03-.07-.04h0s.05,.03,.08,.05Z" style="fill:url(#bt);"/><path d="M139.82,208.74s0,0,0,0c-.02-.02-.04-.05-.07-.07h0s.05,.05,.07,.08Z" style="fill:url(#bu);"/><path d="M139.92,209.67s0,0,0,0c.03-.05,.06-.11,.08-.16h0c-.02,.06-.05,.11-.08,.17Z" style="fill:url(#bv);"/><path d="M139.96,208.93s0,0,0,0c-.01-.03-.02-.06-.04-.09h0s.03,.06,.04,.09Z" style="fill:url(#bw);"/><path d="M139.59,208.57s0,0,0,0c-.03-.01-.05-.03-.07-.04h0s.05,.03,.08,.05Z" style="fill:url(#bx);"/><path d="M139.69,210c.08-.08,.14-.17,.19-.25,0,0,0,0,0,0-.05,.08-.12,.17-.19,.25Z" style="fill:url(#by);"/><path d="M129.79,211.96s0,0,0,0c0,.04,0,.09,.02,.13h0s-.01-.08-.02-.13Z" style="fill:url(#bz);"/><path d="M129.8,211.71s0,0,0,0c-.01,.05-.03,.1-.03,.15h0s.02-.1,.03-.15Z" style="fill:url(#ca);"/><path d="M170.12,200.13s0,0,0,0c-.01-.02-.02-.05-.03-.07,0,0,0,0,0,0,.02,.02,.02,.05,.04,.07Z" style="fill:url(#cb);"/><path d="M169.83,199.84s-.01,0-.02-.01c-.02-.01-.04-.03-.06-.04,0,0,0,0,0,0,.03,.01,.06,.03,.08,.05Z" style="fill:url(#cc);"/><path d="M170,199.97s0,0,0,0c-.02-.02-.03-.04-.05-.06,0,0,0,0,0,0,.02,.02,.04,.04,.06,.06Z" style="fill:url(#cd);"/><path d="M141.36,210.4c.08-.08,.17-.16,.26-.23-.09,.07-.18,.15-.26,.23h0Z" style="fill:url(#ce);"/><path d="M141.62,210.16c.19-.15,.41-.27,.65-.37-.24,.1-.46,.23-.65,.37Z" style="fill:url(#cf);"/><path d="M156.7,206.09s0,0,0,0c-.02,.04-.05,.08-.06,.13h0s.04-.09,.06-.13Z" style="fill:url(#cg);"/><path d="M156.89,205.81c-.06,.07-.12,.14-.16,.21t0,0c.04-.07,.1-.14,.16-.21Z" style="fill:url(#ch);"/><path d="M156.62,206.31s0,0,0,0c0,.04-.02,.07-.02,.11,0,0,0,0,0,0,0-.04,.01-.07,.02-.11Z" style="fill:url(#ci);"/><path d="M156.61,206.51s0,0,0,0c0,.03,0,.07,.01,.1h0s0-.07-.01-.1Z" style="fill:url(#cj);"/><path d="M165.56,204.98s0,0,0,0c-.01-.02-.02-.05-.04-.07h0s.02,.05,.04,.07Z" style="fill:url(#ck);"/><polygon points="141.36 210.4 141.36 210.4 138.75 213.18 141.36 210.4" style="fill:url(#cl);"/><path d="M147.82,210.47s.02,0,.04,.01c-.01,0-.02,0-.04-.01l-3.73-.89,3.73,.89Z" style="fill:url(#cm);"/><path d="M148.58,210.97s0,0,0,0c-.02-.03-.02-.06-.04-.09h0s.03,.06,.04,.09Z" style="fill:url(#cn);"/><path d="M155.92,208.04c-.13-.03-.26-.04-.41-.03,.14,0,.28,0,.41,.03l5.12,1.22-5.12-1.22Z" style="fill:url(#co);"/><polygon points="154.36 208.51 147.44 215.88 154.36 208.51 154.36 208.51" style="fill:url(#cp);"/><path d="M116.13,211.97s.03,.09,.05,.13c.02,.05,.06,.1,.08,.14,.02,.04,.05,.08,.07,.12,.03,.05,.07,.09,.11,.13,.03,.04,.06,.08,.09,.11,.04,.04,.09,.08,.14,.13,.04,.03,.07,.07,.11,.1,.05,.04,.11,.08,.17,.12,.04,.03,.08,.06,.13,.09,.07,.04,.14,.07,.21,.11,.04,.02,.08,.05,.13,.07,.08,.04,.17,.07,.25,.1,.05,.02,.09,.04,.13,.05,.14,.05,.28,.09,.43,.12l31.38,7.46c2.39,.57,5.68-.42,7.35-2.2l27.01-28.76c.1-.11,.2-.22,.29-.33,.03-.04,.05-.07,.08-.11,.06-.08,.11-.15,.16-.23,.03-.04,.05-.08,.07-.13,.04-.07,.08-.14,.11-.21,.02-.05,.04-.09,.06-.14,.03-.06,.06-.13,.08-.19,.02-.05,.02-.1,.04-.14,.02-.06,.03-.12,.05-.18,0-.05,.01-.1,.02-.14,0-.06,.02-.12,.02-.17,0-.05,0-.09,0-.14,0-.06,0-.11,0-.16,0-.05-.02-.09-.03-.14-.18-.84-.93-1.53-2.21-1.84l-31.38-7.46c-2.39-.57-5.68,.41-7.35,2.19l-27.01,28.76c-.83,.89-1.11,1.81-.88,2.57,.02,.05,.04,.1,.06,.15Zm63.16-20.97l-6.43,6.85h-.03s-33.34-7.93-33.34-7.93l.05-.05h0l6.39-6.81,33.36,7.93Z" style="fill:#9f9ef2;"/></g><g><g><path d="M133.53,196.37c-.03,.06-.06,.11-.08,.17-.01,.03-.01,.06-.02,.1,0,.05-.02,.1-.03,.14,0,0,0,0,0,0,0,.03,0,.06,.01,.09,0,.04,0,.09,.02,.13h0c.06,.22,.24,.4,.51,.52,.09,.04,.19,.08,.3,.1l3.73,.89c.89,.21,2.11-.16,2.73-.82l2.61-2.78c.23-.25,.35-.5,.36-.74,0-.31-.18-.58-.53-.74-.09-.04-.19-.07-.3-.1l-3.73-.89c-.78-.19-1.81,.07-2.48,.58-.09,.07-.18,.15-.26,.23h0l-2.61,2.78c-.08,.08-.14,.17-.19,.25-.02,.03-.02,.05-.04,.08Z" style="fill:#1d1d1b; isolation:isolate; opacity:.3;"/><path d="M142.38,198.09s-.08,.1-.11,.15c-.46,.62-.23,1.24,.59,1.43l3.73,.89c.56,.13,1.24,.04,1.83-.21,.35-.15,.67-.36,.9-.6l2.61-2.78c.16-.17,.26-.33,.31-.5,.05-.16,.06-.32,.01-.46-.07-.21-.24-.4-.51-.52-.08-.04-.17-.06-.26-.09-.01,0-.02,0-.04-.01l-2.37-.56-1.37-.32c-.44-.11-.97-.07-1.47,.08-.49,.15-.96,.41-1.27,.74l-2.61,2.78Z" style="fill:#1d1d1b; isolation:isolate; opacity:.3;"/><path d="M130.5,199.54c-.09,.07-.18,.15-.26,.23h0l-2.61,2.78c-.08,.08-.14,.17-.19,.25-.02,.03-.02,.05-.04,.08-.03,.06-.06,.11-.08,.17-.01,.03-.01,.06-.02,.1-.01,.05-.02,.1-.03,.14,0,.03,0,.06,.01,.09,0,.04,0,.09,.02,.13h0s.04,.08,.06,.12c0,0,0,0,0,0,.02,.03,.02,.06,.04,.09h0s.07,.07,.1,.11c0,0,0,0,0,0,.02,.02,.04,.05,.07,.07h0c.14,.11,.32,.19,.54,.24l3.73,.89c.33,.08,.71,.08,1.09,0,.63-.11,1.25-.41,1.64-.83l2.61-2.78c.16-.17,.26-.33,.31-.5,.03-.08,.04-.16,.04-.24,0-.14-.04-.28-.12-.4,0,0,0-.02-.01-.03-.02-.02-.04-.04-.06-.06-.09-.1-.2-.19-.35-.26-.09-.04-.19-.07-.3-.1l-3.73-.89c-.33-.08-.71-.08-1.09,0-.5,.09-1.01,.3-1.38,.59Z" style="fill:#1d1d1b; isolation:isolate; opacity:.3;"/><path d="M160.78,197.84s-.07-.07-.1-.1c-.02-.02-.04-.05-.07-.07-.05-.04-.1-.06-.16-.09-.03-.02-.05-.03-.08-.05-.09-.04-.19-.08-.3-.1l-3.73-.89h0c-.66-.16-1.52,0-2.17,.38-.22,.12-.41,.27-.57,.44l-2.61,2.78c-.08,.08-.14,.17-.19,.25-.02,.03-.03,.06-.04,.08,0,0,0,0,0,0-.03,.06-.06,.11-.08,.16-.01,.03-.01,.06-.02,.09-.01,.05-.02,.1-.03,.14,0,0,0,0,0,0,0,.03,0,.06,.01,.09,0,.04,0,.09,.02,.13h0c.09,.29,.36,.52,.81,.62l3.73,.89c.89,.21,2.11-.15,2.74-.81l2.61-2.78c.31-.33,.41-.67,.33-.96-.01-.04-.04-.08-.06-.11-.02-.03-.02-.06-.04-.09Z" style="fill:#1d1d1b; isolation:isolate; opacity:.3;"/><path d="M138.87,201.83l-2.61,2.78c-.21,.22-.31,.45-.34,.66,0,.03-.01,.05-.01,.08,0,.03,0,.06,.01,.1,0,.04,0,.09,.02,.13h0c.09,.29,.36,.52,.81,.62l3.73,.89c.45,.11,.97,.07,1.47-.08,.5-.15,.96-.41,1.27-.74l2.61-2.78c.62-.66,.41-1.37-.48-1.58l-3.73-.89c-.24-.06-.5-.07-.77-.05-.23,.02-.47,.06-.7,.13-.49,.15-.96,.41-1.27,.74Z" style="fill:#1d1d1b; isolation:isolate; opacity:.3;"/><path d="M121.32,209.33s-.02,.05-.04,.08c-.03,.06-.06,.11-.08,.17-.01,.03-.01,.07-.02,.1,0,.05-.02,.09-.03,.14,0,.03,0,.07,.01,.1,0,.04,0,.09,.02,.13h0c.02,.07,.06,.14,.1,.21,.14,.19,.37,.34,.71,.42l3.73,.89c.89,.21,2.11-.16,2.73-.82l2.61-2.78c.31-.33,.41-.67,.33-.96-.01-.04-.04-.08-.06-.12-.01-.03-.02-.06-.04-.09-.03-.04-.07-.07-.1-.11-.02-.02-.04-.05-.07-.07-.04-.03-.1-.06-.15-.09-.03-.02-.05-.04-.08-.05-.08-.04-.17-.06-.27-.09-.01,0-.02,0-.04-.01h0s-3.73-.89-3.73-.89c-.22-.05-.47-.07-.72-.05s-.51,.06-.75,.14c-.25,.07-.49,.18-.7,.3-.22,.12-.41,.27-.57,.44l-2.61,2.78c-.08,.08-.14,.17-.19,.25Z" style="fill:#1d1d1b; isolation:isolate; opacity:.3;"/><path d="M170.08,200.05s-.05-.06-.08-.08c-.02-.02-.04-.04-.06-.06-.03-.03-.07-.05-.11-.07-.03-.02-.05-.04-.08-.05-.06-.03-.12-.05-.19-.06-.02,0-.04-.01-.06-.02l-4.27-1.01h0c-.37-.09-.81-.06-1.22,.07-.1,.03-.2,.07-.3,.11-.2,.08-.38,.19-.54,.31-.08,.06-.15,.13-.22,.19h0l-1.49,1.59c-.06,.07-.12,.14-.16,.21-.01,.02-.02,.04-.03,.07-.02,.05-.05,.09-.07,.14,0,.03,0,.05-.01,.08,0,.04-.02,.08-.02,.12,0,0,0,0,0,0,0,.03,0,.05,.01,.08,0,.04,0,.07,.01,.11h0c.07,.24,.3,.43,.67,.52l4.27,1.01c.74,.18,1.76-.13,2.28-.68l1.49-1.59c.19-.21,.29-.42,.29-.61,0-.06,0-.13-.02-.19,0-.03-.03-.06-.05-.09-.01-.02-.02-.05-.04-.07Z" style="fill:#5254cf;"/><path d="M145.35,208.24l3.73,.89c.89,.21,2.11-.15,2.74-.82l2.61-2.78c.31-.33,.41-.67,.33-.96-.01-.04-.04-.07-.06-.11-.02-.03-.02-.06-.04-.09-.03-.04-.06-.07-.1-.1-.02-.02-.04-.05-.07-.08-.04-.03-.1-.06-.15-.09-.03-.02-.05-.04-.08-.05-.09-.04-.19-.08-.3-.1l-3.73-.89h0c-.66-.16-1.52,0-2.17,.38-.22,.12-.41,.27-.57,.44l-2.61,2.78c-.62,.66-.41,1.37,.48,1.58Z" style="fill:#1d1d1b; isolation:isolate; opacity:.3;"/><path d="M133.67,207.74c-.36,.15-.69,.36-.92,.61h0l-2.61,2.78c-.16,.17-.26,.33-.31,.5,0,.03,0,.06-.02,.09-.01,.05-.03,.1-.03,.15,0,.03,0,.06,.01,.1,0,.04,0,.09,.02,.13h0c.09,.29,.36,.52,.81,.62l3.73,.89c.67,.16,1.52,0,2.17-.38,.22-.12,.41-.27,.57-.44l2.61-2.78c.08-.08,.14-.17,.19-.25,0,0,0,0,0,0,.02-.03,.03-.06,.04-.08,0,0,0,0,0,0,.03-.06,.06-.11,.08-.17h0s0,0,0,0c.05-.16,.06-.32,.01-.46-.01-.04-.04-.08-.06-.11-.02-.03-.02-.06-.04-.09-.03-.04-.06-.07-.1-.1-.02-.02-.04-.05-.07-.08-.04-.03-.1-.06-.15-.09-.03-.02-.05-.04-.08-.05-.09-.04-.19-.08-.3-.1l-3.73-.89c-.55-.13-1.22-.04-1.81,.21Z" style="fill:#1d1d1b; isolation:isolate; opacity:.3;"/><path d="M165.52,204.91s0,0,0,0c-.11-.16-.31-.28-.59-.35l-4.27-1.01c-.37-.09-.81-.06-1.22,.07-.41,.12-.8,.34-1.06,.61l-1.49,1.59c-.06,.07-.12,.14-.16,.21-.01,.02-.02,.05-.03,.07-.02,.04-.05,.09-.06,.13,0,0,0,0,0,0,0,.03,0,.06-.02,.09,0,.04-.02,.08-.02,.11,0,.03,0,.06,.01,.08,0,.03,0,.07,.01,.1h0s0,0,0,0c.07,.24,.3,.43,.67,.52l4.27,1.01c.28,.07,.59,.06,.91,0,.53-.1,1.04-.34,1.37-.69l1.49-1.59c.13-.14,.22-.28,.26-.41,.02-.07,.03-.13,.04-.2,0-.06,0-.13-.02-.19-.01-.03-.03-.06-.05-.09-.01-.02-.02-.05-.04-.07Z" style="fill:#5254cf;"/><path d="M138.42,214.14c.09,.29,.36,.52,.81,.62l3.73,.89c.89,.21,2.11-.15,2.74-.82l2.61-2.78c.08-.08,.14-.17,.19-.25,.1-.17,.16-.33,.16-.49,0-.08,0-.15-.03-.22-.01-.04-.04-.08-.06-.11-.02-.03-.02-.06-.04-.09,0,0,0,0,0,0-.09-.13-.23-.24-.41-.32-.08-.04-.17-.06-.26-.09-.01,0-.02,0-.04-.01l-3.73-.89c-.55-.13-1.24-.04-1.83,.21-.24,.1-.46,.23-.65,.37-.09,.07-.18,.15-.26,.23h0l-2.61,2.78c-.31,.33-.41,.67-.33,.96Z" style="fill:#1d1d1b; isolation:isolate; opacity:.3;"/><path d="M155.92,208.04c-.13-.03-.26-.04-.41-.03-.14,0-.29,.04-.43,.08-.28,.08-.54,.23-.72,.42h0l-6.92,7.37c-.27,.28-.26,.58-.03,.76,.08,.06,.18,.11,.31,.14l5.12,1.22c.51,.12,1.2-.09,1.55-.46l6.92-7.37c.18-.19,.24-.38,.19-.55-.05-.16-.21-.29-.46-.35l-5.12-1.22Z" style="fill:#5254cf;"/></g><g><path d="M133.46,196.15c-.03,.06-.06,.11-.08,.17-.01,.03-.01,.06-.02,.1,0,.05-.02,.1-.03,.14,0,0,0,0,0,0,0,.03,0,.06,.01,.09,0,.04,0,.09,.02,.13h0c.06,.22,.24,.4,.51,.52,.09,.04,.19,.08,.3,.1l3.73,.89c.89,.21,2.11-.16,2.73-.82l2.61-2.78c.23-.25,.35-.5,.36-.74,0-.31-.18-.58-.53-.74-.09-.04-.19-.07-.3-.1l-3.73-.89c-.78-.19-1.81,.07-2.48,.58-.09,.07-.18,.15-.26,.23h0l-2.61,2.78c-.08,.08-.14,.17-.19,.25-.02,.03-.02,.05-.04,.08Z" style="fill:#ffc700;"/><path d="M142.31,197.87s-.08,.1-.11,.15c-.46,.62-.23,1.24,.59,1.43l3.73,.89c.56,.13,1.24,.04,1.83-.21,.35-.15,.67-.36,.9-.6l2.61-2.78c.16-.17,.26-.33,.31-.5,.05-.16,.06-.32,.01-.46-.07-.21-.24-.4-.51-.52-.08-.04-.17-.06-.26-.09-.01,0-.02,0-.04-.01l-2.36-.56-1.37-.32c-.44-.11-.97-.07-1.47,.08-.49,.15-.96,.41-1.27,.74l-2.61,2.78Z" style="fill:#ffc700;"/><path d="M130.44,199.33c-.09,.07-.18,.15-.26,.23h0l-2.61,2.78c-.08,.08-.14,.17-.19,.25-.02,.03-.02,.05-.04,.08-.03,.06-.06,.11-.08,.17-.01,.03-.01,.06-.02,.1-.01,.05-.02,.1-.03,.14,0,.03,0,.06,.01,.09,0,.04,0,.09,.02,.13h0s.04,.08,.06,.12c0,0,0,0,0,0,.02,.03,.02,.06,.04,.09h0s.07,.07,.1,.11c0,0,0,0,0,0,.02,.02,.04,.05,.07,.07h0c.14,.11,.32,.19,.54,.24l3.73,.89c.33,.08,.71,.08,1.09,0,.63-.11,1.25-.41,1.64-.83l2.61-2.78c.16-.17,.26-.33,.31-.5,.03-.08,.04-.16,.04-.24,0-.14-.04-.28-.11-.4,0,0,0-.02-.01-.03-.02-.02-.04-.04-.06-.06-.09-.1-.2-.19-.35-.26-.09-.04-.19-.07-.3-.1l-3.73-.89c-.33-.08-.71-.08-1.09,0-.5,.09-1.01,.3-1.38,.59Z" style="fill:#ffc700;"/><path d="M160.72,197.62s-.07-.07-.1-.1c-.02-.02-.04-.05-.07-.07-.05-.04-.1-.06-.16-.09-.03-.02-.05-.03-.08-.05-.09-.04-.19-.08-.3-.1l-3.73-.89h0c-.66-.16-1.52,0-2.17,.38-.22,.12-.41,.27-.57,.44l-2.61,2.78c-.08,.08-.14,.17-.19,.25-.02,.03-.03,.06-.04,.08,0,0,0,0,0,0-.03,.06-.06,.11-.08,.16-.01,.03-.01,.06-.02,.09-.01,.05-.02,.1-.03,.14,0,0,0,0,0,0,0,.03,0,.06,.01,.09,0,.04,0,.09,.02,.13h0c.09,.29,.36,.52,.81,.62l3.73,.89c.89,.21,2.11-.15,2.74-.81l2.61-2.78c.31-.33,.41-.67,.33-.96-.01-.04-.04-.08-.06-.11-.02-.03-.02-.06-.04-.09Z" style="fill:#ffc700;"/><path d="M138.8,201.61l-2.61,2.78c-.21,.22-.31,.45-.34,.66,0,.03-.01,.05-.01,.08,0,.03,0,.06,.01,.1,0,.04,0,.09,.02,.13h0c.09,.29,.36,.52,.81,.62l3.73,.89c.45,.11,.97,.07,1.47-.08,.5-.15,.96-.41,1.27-.74l2.61-2.78c.62-.66,.41-1.37-.48-1.58l-3.73-.89c-.24-.06-.5-.07-.77-.05-.23,.02-.47,.06-.7,.13-.49,.15-.96,.41-1.27,.74Z" style="fill:#ffc700;"/><path d="M121.25,209.11s-.02,.05-.04,.08c-.03,.06-.06,.11-.08,.17-.01,.03-.01,.07-.02,.1,0,.05-.02,.09-.03,.14,0,.03,0,.07,.01,.1,0,.04,0,.09,.02,.13h0c.02,.07,.06,.14,.1,.21,.14,.19,.37,.34,.71,.42l3.73,.89c.89,.21,2.11-.16,2.73-.82l2.61-2.78c.31-.33,.41-.67,.33-.96-.01-.04-.04-.08-.06-.12-.01-.03-.02-.06-.04-.09-.03-.04-.07-.07-.1-.11-.02-.02-.04-.05-.07-.07-.04-.03-.1-.06-.15-.09-.03-.02-.05-.04-.08-.05-.08-.04-.17-.06-.27-.09-.01,0-.02,0-.04-.01h0l-3.73-.89c-.22-.05-.47-.07-.72-.05-.25,.01-.51,.06-.75,.14-.25,.07-.49,.18-.7,.3-.22,.12-.41,.27-.57,.44l-2.61,2.78c-.08,.08-.14,.17-.19,.25Z" style="fill:#ffc700;"/><path d="M170.01,199.83s-.05-.06-.08-.08c-.02-.02-.04-.04-.06-.06-.03-.03-.07-.05-.11-.07-.03-.02-.05-.04-.08-.05-.06-.03-.12-.05-.19-.06-.02,0-.04-.01-.06-.02l-4.27-1.01h0c-.37-.09-.81-.06-1.22,.07-.1,.03-.2,.07-.3,.11-.2,.08-.38,.19-.54,.31-.08,.06-.15,.13-.22,.19h0l-1.49,1.59c-.06,.07-.12,.14-.16,.21-.01,.02-.02,.04-.03,.07-.02,.05-.05,.09-.07,.14,0,.03,0,.05-.01,.08,0,.04-.02,.08-.02,.12,0,0,0,0,0,0,0,.03,0,.05,.01,.08,0,.04,0,.07,.01,.11h0c.07,.24,.3,.43,.67,.52l4.27,1.01c.74,.18,1.76-.13,2.28-.68l1.49-1.59c.19-.21,.29-.42,.29-.61,0-.06,0-.13-.02-.19-.01-.03-.03-.06-.05-.09-.01-.02-.02-.05-.04-.07Z" style="fill:#efefef; isolation:isolate;"/><path d="M145.29,208.02l3.73,.89c.89,.21,2.11-.15,2.74-.82l2.61-2.78c.31-.33,.41-.67,.33-.96-.01-.04-.04-.07-.06-.11-.02-.03-.02-.06-.04-.09-.03-.04-.06-.07-.1-.1-.02-.02-.04-.05-.07-.08-.04-.03-.1-.06-.15-.09-.03-.02-.05-.04-.08-.05-.09-.04-.19-.08-.3-.1l-3.73-.89h0c-.66-.16-1.52,0-2.17,.38-.22,.12-.41,.27-.57,.44l-2.61,2.78c-.62,.66-.41,1.37,.48,1.58Z" style="fill:#ffc700;"/><path d="M133.6,207.52c-.36,.15-.69,.36-.92,.61h0l-2.61,2.78c-.16,.17-.26,.33-.31,.5,0,.03,0,.06-.02,.09-.01,.05-.03,.1-.03,.15,0,.03,0,.06,.01,.1,0,.04,0,.09,.02,.13h0c.09,.29,.36,.52,.81,.62l3.73,.89c.67,.16,1.52,0,2.17-.38,.22-.12,.41-.27,.57-.44l2.61-2.78c.08-.08,.14-.17,.19-.25,0,0,0,0,0,0,.02-.03,.03-.06,.04-.08,0,0,0,0,0,0,.03-.06,.06-.11,.08-.17h0s0,0,0,0c.05-.16,.06-.32,.01-.46-.01-.04-.04-.08-.06-.11-.02-.03-.02-.06-.04-.09-.03-.04-.06-.07-.1-.1-.02-.02-.04-.05-.07-.08-.04-.03-.1-.06-.15-.09-.03-.02-.05-.04-.08-.05-.09-.04-.19-.08-.3-.1l-3.73-.89c-.55-.13-1.22-.04-1.81,.21Z" style="fill:#ffc700;"/><path d="M165.45,204.69s0,0,0,0c-.11-.16-.31-.28-.59-.35l-4.27-1.01c-.37-.09-.81-.06-1.22,.07-.41,.12-.8,.34-1.06,.61l-1.49,1.59c-.06,.07-.12,.14-.16,.21-.01,.02-.02,.05-.03,.07-.02,.04-.05,.09-.06,.13,0,0,0,0,0,0,0,.03,0,.06-.02,.09,0,.04-.02,.08-.02,.11,0,.03,0,.06,.01,.08,0,.03,0,.07,.01,.1h0s0,0,0,0c.07,.24,.3,.43,.67,.52l4.27,1.01c.28,.07,.59,.06,.91,0,.53-.1,1.04-.34,1.37-.69l1.49-1.59c.13-.14,.22-.28,.26-.41,.02-.07,.03-.13,.04-.2,0-.06,0-.13-.02-.19-.01-.03-.03-.06-.05-.09-.01-.02-.02-.05-.04-.07Z" style="fill:#efefef; isolation:isolate;"/><path d="M138.36,213.92c.09,.29,.36,.52,.81,.62l3.73,.89c.89,.21,2.11-.15,2.74-.82l2.61-2.78c.08-.08,.14-.17,.19-.25,.1-.17,.16-.33,.16-.49,0-.08,0-.15-.03-.22-.01-.04-.04-.08-.06-.11-.02-.03-.02-.06-.04-.09,0,0,0,0,0,0-.09-.13-.23-.24-.41-.32-.08-.04-.17-.06-.26-.09-.01,0-.02,0-.04-.01l-3.73-.89c-.55-.13-1.24-.04-1.83,.21-.24,.1-.46,.23-.65,.37-.09,.07-.18,.15-.26,.23h0s-2.61,2.78-2.61,2.78c-.31,.33-.41,.67-.33,.96Z" style="fill:#ffc700;"/><path d="M155.85,207.82c-.13-.03-.26-.04-.41-.03-.14,0-.29,.04-.43,.08-.28,.08-.54,.23-.72,.42h0l-6.92,7.37c-.27,.28-.26,.58-.03,.76,.08,.06,.18,.11,.31,.14l5.12,1.22c.51,.12,1.2-.09,1.55-.46l6.92-7.37c.18-.19,.24-.38,.19-.55-.05-.16-.21-.29-.46-.35l-5.12-1.22Z" style="fill:#efefef; isolation:isolate;"/></g></g></g><g><path d="M71.38,211.05s0,0,0,0c-.04,.04-.08,.12-.12,.21-.01,.02-.02,.05-.03,.07-.04,.1-.09,.22-.14,.36-.21,.65-.34,1.46-.29,1.81,.01,.08,.03,.13,.06,.15t0,0c-.77-.54-1.54-1.08-2.31-1.62,0,0-.01-.01-.01-.03,0-.08,.02-.25,.06-.39,.02-.05,.03-.08,.05-.11,0,0,0,0,.01-.01,0-.01,.02-.02,.02-.03,.93-.16,1.86-.32,2.78-.47t0,0s-.05,.02-.08,.05Z" style="fill:#6a6a6a;"/><polygon points="75.48 216.85 75.47 216.85 75.48 216.85 75.48 216.85" style="fill:#e4eeed;"/><path d="M76.94,210.08s0,0,0,0c-.04,.02-.09,.06-.13,.11-.01,.01-.03,.03-.04,.05-.04,.05-.08,.11-.12,.17-.01,.02-.02,.04-.03,.06-.05,.09-.11,.2-.16,.32-.01,.03-.03,.06-.04,.09-.04,.1-.09,.21-.14,.33-.02,.04-.03,.08-.05,.13-.06,.16-.12,.32-.18,.51-.53,1.65-.87,3.72-.75,4.61,.02,.12,.04,.21,.07,.28,0,.02,.02,.03,.03,.05,.02,.02,.03,.06,.05,.07,0,0,0,0,0,0-1.53-1.07-3.06-2.13-4.59-3.2h0s-.05-.07-.06-.15c-.05-.35,.09-1.16,.29-1.81,.05-.14,.09-.26,.14-.36,.01-.03,.02-.05,.03-.07,.04-.09,.08-.17,.12-.21,0,0,0,0,0,0,.03-.03,.05-.05,.08-.05h0c1.84-.31,3.68-.62,5.52-.92,0,0,.02,0,.02,0-.02,0-.04,0-.07,0Z" style="fill:#efefef; isolation:isolate;"/><path d="M75.48,216.85s0,0,0,0c0,0-.01,0-.02,0-.02-.01-.03-.04-.05-.07,.02,.03,.05,.06,.07,.07Z" style="fill:url(#cq);"/><path d="M76.41,210.88s.03-.06,.04-.09c-.01,.03-.03,.06-.04,.09Z" style="fill:url(#cr);"/><path d="M76.22,211.34s.03-.09,.05-.13c-.02,.04-.03,.08-.05,.13Z" style="fill:url(#cs);"/><path d="M75.3,216.46c.02,.12,.04,.21,.07,.28-.03-.07-.05-.16-.07-.28Z" style="fill:url(#ct);"/><path d="M76.94,210.08s0,0,0,0c0,0,0,0,0,0Z" style="fill:url(#cu);"/><path d="M76.61,210.47s.02-.04,.03-.06c-.01,.02-.02,.03-.03,.06Z" style="fill:url(#cv);"/><path d="M76.8,210.19s-.03,.03-.04,.05c.01-.02,.03-.03,.04-.05Z" style="fill:url(#cw);"/><path d="M140.49,224.36s-.09,.06-.13,.11c-.01,.01-.03,.03-.04,.05-.04,.05-.08,.11-.12,.17-.01,.02-.02,.04-.03,.06-.05,.09-.11,.2-.16,.32-.01,.03-.03,.06-.04,.09-.05,.1-.09,.21-.14,.33-.02,.04-.03,.08-.05,.13-.06,.16-.12,.32-.18,.51-.53,1.65-.87,3.72-.75,4.61,.02,.12,.04,.21,.07,.28,0,0,0,.01,0,.02,0,.02,.02,.02,.03,.03,.02,.03,.05,.06,.07,.07,0,0,0,.01,.01,.01-1.5-.34-3.06-.69-4.63-1.04l-4.49-1.01c-2.75-.62-5.58-1.25-8.46-1.9l-5.01-1.13c-.45-.1-.91-.2-1.36-.31l-10.32-2.32c-1.78-.4-3.56-.8-5.33-1.2l-1.31-.29c-1.7-.38-3.39-.76-5.07-1.14l-8.43-1.89c-1.53-.34-3.04-.68-4.51-1.01l-4.62-1.04s0-.01-.01-.01c0,0,0,0,0,0-.03-.01-.05-.04-.07-.07-.01-.02-.02-.02-.03-.05-.03-.07-.05-.16-.07-.28-.12-.9,.22-2.96,.75-4.61,.06-.18,.12-.35,.18-.51,.02-.04,.03-.09,.05-.13,.05-.12,.09-.23,.14-.33,.01-.03,.03-.06,.04-.09,.06-.12,.11-.23,.16-.32,.01-.02,.02-.04,.03-.06,.04-.07,.08-.13,.12-.17,.01-.02,.03-.03,.04-.05,.05-.05,.09-.09,.13-.11,0,0,0,0,0,0,.02-.01,.05-.01,.07,0,0,0,.02,0,.02,0,1.5,.34,3.05,.69,4.62,1.04l4.5,1.01c2.75,.62,5.57,1.25,8.45,1.9l5.03,1.13c.45,.1,.9,.2,1.35,.3l5.3,1.19c3.45,.77,6.9,1.55,10.33,2.32l1.35,.3c1.69,.38,3.37,.76,5.03,1.13l8.45,1.9c1.53,.34,3.03,.68,4.5,1.01l4.62,1.04s-.06,0-.09,.01c0,0,0,0,0,0Z" style="fill:#ffc700;"/><path d="M140.36,224.47s-.03,.03-.04,.05c.01-.02,.03-.03,.04-.05Z" style="fill:#e4eeed;"/><path d="M140.49,224.36s0,0,0,0c0,0,0,0,0,0Z" style="fill:#e4eeed;"/><path d="M139.97,225.15s.03-.06,.04-.09c-.01,.03-.03,.06-.04,.09Z" style="fill:#e4eeed;"/><path d="M138.96,231.05s.05,.06,.07,.07c-.03-.01-.05-.04-.07-.07Z" style="fill:#e4eeed;"/><path d="M138.85,230.73c.02,.12,.04,.21,.07,.28-.03-.07-.05-.16-.07-.28Z" style="fill:#e4eeed;"/><path d="M140.16,224.75s.02-.04,.03-.06c-.01,.02-.02,.04-.03,.06Z" style="fill:#e4eeed;"/><path d="M139.78,225.61s.03-.09,.05-.13c-.02,.04-.03,.08-.05,.13Z" style="fill:#e4eeed;"/><path d="M142.53,224.78s-.06,0-.09,.01c0,0,0,0,0,0-.03,.02-.07,.04-.1,.08,0,0-.02,.02-.03,.03-.01,.01-.03,.03-.04,.05-.04,.05-.08,.11-.12,.17-.01,.02-.02,.04-.03,.06-.05,.09-.11,.2-.16,.32-.01,.03-.02,.06-.04,.09-.05,.1-.09,.21-.14,.33-.02,.04-.03,.08-.05,.13-.06,.16-.12,.32-.18,.51-.53,1.65-.87,3.72-.75,4.61,.02,.12,.04,.21,.07,.28,0,.02,.02,.03,.03,.05,.02,.03,.05,.06,.07,.07,0,0,0,.01,.01,.01l-.98-.22c-.34-.08-.68-.15-.98-.22,0,0,0-.01-.01-.01-.03-.01-.05-.04-.07-.07,0-.01-.02-.01-.03-.03,0,0,0-.01,0-.02-.03-.07-.05-.16-.07-.28-.12-.9,.22-2.96,.75-4.61,.06-.18,.12-.35,.18-.51,.02-.04,.03-.09,.05-.13,.05-.12,.09-.23,.14-.33,.01-.03,.03-.06,.04-.09,.06-.12,.11-.23,.16-.32,.01-.02,.02-.04,.03-.06,.04-.07,.08-.13,.12-.17,.01-.02,.03-.03,.04-.05,.05-.05,.09-.09,.13-.11,0,0,0,0,0,0,.03-.01,.06-.02,.09-.01l.97,.22s0,0,0,0l.97,.22Z" style="fill:#efefef; isolation:isolate;"/><path d="M142.44,224.79s0,0,0,0c0,0,0,0,0,0Z" style="fill:#ff7485;"/><path d="M142.31,224.91s-.03,.03-.04,.05c.01-.02,.03-.03,.04-.05Z" style="fill:#ff7485;"/><path d="M141.95,225.5s-.02,.06-.04,.09c.01-.03,.03-.06,.04-.09Z" style="fill:#ff7485;"/><path d="M142.15,225.13s-.02,.04-.03,.06c.01-.02,.02-.04,.03-.06Z" style="fill:#ff7485;"/><path d="M140.8,231.17c.02,.12,.04,.21,.07,.28-.03-.07-.05-.16-.07-.28Z" style="fill:#ff7485;"/><path d="M140.91,231.49s.05,.06,.07,.07c-.03-.01-.05-.04-.07-.07Z" style="fill:#ff7485;"/><path d="M141.78,225.92s-.03,.08-.05,.13c.02-.04,.03-.09,.05-.13Z" style="fill:#ff7485;"/><path d="M140.91,231.49s-.02-.02-.03-.05c-.03-.07-.05-.16-.07-.28-.12-.9,.22-2.96,.75-4.61,.06-.18,.12-.35,.18-.51,.02-.04,.03-.09,.05-.13,.05-.12,.09-.23,.14-.33,.01-.03,.03-.06,.04-.09,.06-.12,.11-.23,.16-.32,.01-.02,.02-.04,.03-.06,.04-.07,.08-.13,.12-.17,.01-.02,.03-.03,.04-.05,0-.01,.02-.03,.03-.03,.04-.04,.07-.06,.1-.08,0,0,0,0,0,0,.03-.02,.06-.02,.09-.01h0l5.16,1.16c.31,.07,.62,.14,.91,.2,.22,.05,.39,.18,.53,.39,.14,.2,.23,.47,.28,.82,.02,.16,.03,.33,.03,.52,0,.15,0,.3-.02,.45,0,.03,0,.06,0,.1-.02,.19-.04,.37-.07,.56,0,0,0,0,0,.01-.03,.2-.06,.39-.1,.57,0,.04-.02,.07-.02,.11-.03,.15-.06,.29-.1,.42-.01,.04-.02,.08-.03,.12-.09,.34-.16,.59-.19,.66-.02,.06-.04,.1-.06,.15-.03,.09-.06,.17-.09,.25-.02,.05-.04,.11-.06,.16-.01,.03-.02,.06-.03,.09-.02,.05-.04,.09-.07,.14-.04,.09-.08,.18-.13,.27-.03,.06-.06,.11-.1,.17-.05,.08-.09,.15-.14,.22-.03,.04-.05,.07-.08,.11-.05,.06-.1,.12-.16,.18-.03,.03-.05,.05-.08,.07-.05,.04-.09,.08-.14,.11-.04,.03-.08,.05-.12,.07-.03,.01-.06,.03-.09,.04-.21,.09-.39,.08-.5,.06l-1.81-.41c-.26-.06-.51-.12-.78-.17l-1.67-.37c-.64-.14-1.25-.28-1.81-.41,0,0,0-.01-.01-.01-.03-.01-.05-.04-.07-.07Z" style="fill:#f66;"/></g><g><g><g><path d="M59.42,154.98v32.49h-6.66v-32.49c0-.73,.62-1.33,1.39-1.33h3.87c.77,0,1.4,.59,1.4,1.33Z" style="fill:#ffe092;"/><path d="M56.09,153.66v33.82h-3.33v-32.49c0-.73,.62-1.33,1.39-1.33h1.94Z" style="fill:url(#cx); mix-blend-mode:multiply;"/></g><g><path d="M55.02,155.94v32.49h-6.66v-32.49c0-.73,.62-1.33,1.39-1.33h3.87c.77,0,1.4,.59,1.4,1.33Z" style="fill:#f66;"/><path d="M51.7,154.61v33.82h-3.33v-32.49c0-.73,.62-1.33,1.39-1.33h1.94Z" style="fill:url(#cy); mix-blend-mode:multiply;"/></g><g><path d="M50.03,155.46v32.49h-6.66v-32.49c0-.73,.62-1.33,1.39-1.33h3.87c.77,0,1.4,.59,1.4,1.33Z" style="fill:#ffe092;"/><path d="M46.7,154.13v33.82h-3.33v-32.49c0-.73,.62-1.33,1.39-1.33h1.94Z" style="fill:url(#cz); mix-blend-mode:multiply;"/></g><g><path d="M45.63,156.41v32.49h-6.66v-32.49c0-.73,.62-1.33,1.39-1.33h3.87c.77,0,1.4,.59,1.4,1.33Z" style="fill:#f66;"/><path d="M42.3,155.09v33.82h-3.33v-32.49c0-.73,.62-1.33,1.39-1.33h1.94Z" style="fill:url(#da); mix-blend-mode:multiply;"/></g><g><path d="M40.64,155.94v32.49h-6.66v-32.49c0-.73,.62-1.33,1.39-1.33h3.87c.77,0,1.4,.59,1.4,1.33Z" style="fill:#ffe092;"/><path d="M37.31,154.61v33.82h-3.33v-32.49c0-.73,.62-1.33,1.39-1.33h1.94Z" style="fill:url(#db); mix-blend-mode:multiply;"/></g><g><path d="M36.24,156.89v32.49h-6.66v-32.49c0-.73,.62-1.33,1.39-1.33h3.87c.77,0,1.4,.59,1.4,1.33Z" style="fill:#f66;"/><path d="M32.91,155.56v33.82h-3.33v-32.49c0-.73,.62-1.33,1.39-1.33h1.94Z" style="fill:url(#dc); mix-blend-mode:multiply;"/></g></g><polygon points="34.3 172.39 28.76 172.39 28.76 196.16 34.3 197.84 34.3 172.39" style="fill:#5254cf;"/><polygon points="60.2 170.88 34.3 172.39 34.3 197.84 60.2 193.85 60.2 170.88" style="fill:#9f9ef2;"/></g><g><path d="M34.19,198.23l33.74-4.39c.52-.07,.99,.32,1.03,.84l.34,4.8c.03,.48-.31,.91-.79,.97l-33.84,4.41c-.54,.07-1.01-.49-1.06-1.26l-.27-3.85c-.05-.77,.33-1.45,.87-1.52Z" style="fill:#d0d0fc;"/><path d="M69.12,197.02l.17,2.46c.03,.48-.31,.91-.79,.97l-33.84,4.41c-.54,.07-1.01-.49-1.06-1.26,31.67-3.91,34.87-3.39,35.53-6.58Z" style="fill:#9f9ef2;"/></g><g><path d="M220.95,155.35l33.82,3.65c.52,.06,.89,.54,.8,1.06l-.8,4.75c-.08,.48-.52,.81-1,.76l-33.93-3.66c-.54-.06-.87-.72-.74-1.47l.64-3.81c.13-.76,.66-1.33,1.2-1.27Z" style="fill:#d0d0fc;"/><path d="M255.19,162.38l-.41,2.43c-.08,.48-.52,.81-1,.76l-33.93-3.66c-.54-.06-.87-.72-.74-1.47,31.7,3.64,34.69,4.89,36.08,1.95Z" style="fill:#9f9ef2;"/></g></g></g></g></svg>