<?xml version="1.0" encoding="UTF-8"?><svg id="a" xmlns="http://www.w3.org/2000/svg" viewBox="0 0 300 300"><g><g><rect x="129.38" y="213.79" width="133.77" height="24.07" transform="translate(392.54 451.66) rotate(180)" style="fill:#ffc800;"/><g><rect x="51.89" y="213.79" width="77.49" height="24.07" transform="translate(181.28 451.66) rotate(180)" style="fill:#ffc800;"/><rect x="51.89" y="213.79" width="77.49" height="24.07" transform="translate(181.28 451.66) rotate(180)" style="opacity:.1;"/></g><g><rect x="131.92" y="216.29" width="131.23" height="19.08" transform="translate(395.08 451.66) rotate(180)" style="fill:#fff;"/><path d="m131.92,216.29c36.6-.25,94.21-.35,131.23-.45,0,0,.45,0,.45,0,0,0,0,.46,0,.46,0,0,.04,19.08.04,19.08v.5s-.5,0-.5,0c-30.35-.08-85.01-.16-114.83-.25,0,0-16.4-.11-16.4-.11h-.14s0-.14,0-.14l.14-19.08h0Zm0,0l.14,19.08-.14-.14,16.4-.11c10.34-.03,38.5-.09,49.21-.11,0,0,65.62-.14,65.62-.14l-.5.5.04-19.08.45.45c-32.71-.05-98.53-.29-131.23-.45h0Z" style="fill:#dcdcdc;"/></g><path d="m255.81,231.44c-8.84.13-17.68.23-26.52.28l-26.52.09-44.32-.08c-8.84-.05-17.68-.15-26.52-.28,8.84-.14,17.68-.23,26.52-.28l44.32-.08,26.52.09c8.84.05,17.68.15,26.52.28Z" style="fill:#dcdcdc;"/><path d="m255.81,227.7c-8.84.13-17.68.23-26.52.28l-26.52.09-44.32-.08c-8.84-.05-17.68-.15-26.52-.28,8.84-.14,17.68-.23,26.52-.28l44.32-.08,26.52.09c8.84.05,17.68.15,26.52.28Z" style="fill:#dcdcdc;"/><path d="m255.81,223.96c-8.84.13-17.68.23-26.52.28l-26.52.09-44.32-.08c-8.84-.05-17.68-.15-26.52-.28,8.84-.14,17.68-.23,26.52-.28l44.32-.08,26.52.09c8.84.05,17.68.15,26.52.28Z" style="fill:#dcdcdc;"/><path d="m255.81,220.22c-8.84.13-17.68.23-26.52.28l-26.52.09-44.32-.08c-8.84-.05-17.68-.15-26.52-.28,8.84-.14,17.68-.23,26.52-.28l44.32-.08,26.52.09c8.84.05,17.68.15,26.52.28Z" style="fill:#dcdcdc;"/></g><g><rect x="19.75" y="237.87" width="99.13" height="28.74" style="fill:#5254cf;"/><rect x="118.88" y="237.87" width="129.95" height="28.74" style="fill:#9f9ef2;"/><g><rect x="19.75" y="240.85" width="95.03" height="22.78" style="fill:#fff;"/><path d="m114.78,263.63c-28.1.15-67.32.49-95.03.46,0,0-.46,0-.46,0,0,0,0-.46,0-.46l-.03-22.78v-.5s.5,0,.5,0l47.51.07c.13.07,47.57.19,47.71.24,0,0,0,.19,0,.19l-.19,22.78h0Zm0,0s-.19-22.78-.19-22.78l.19.19c-23.69.16-71.35.31-95.03.31,0,0,.5-.5.5-.5l-.03,22.78s-.46-.46-.46-.46c27.42.01,67.19.27,95.03.46h0Z" style="fill:#dcdcdc;"/></g><g><path d="m23.22,243.37c7.63-.12,15.26-.2,22.89-.24l22.89-.07,22.89.07c7.63.04,15.26.13,22.89.25-7.63.12-15.26.2-22.89.25l-22.89.07-22.89-.07c-7.63-.04-15.26-.13-22.89-.24Z" style="fill:#dcdcdc;"/><path d="m23.22,246.33c7.63-.12,15.26-.2,22.89-.24l22.89-.07,22.89.07c7.63.04,15.26.13,22.89.25-7.63.12-15.26.2-22.89.25l-22.89.07-22.89-.07c-7.63-.04-15.26-.13-22.89-.24Z" style="fill:#dcdcdc;"/><path d="m23.22,249.28c7.63-.12,15.26-.2,22.89-.24l22.89-.07,22.89.07c7.63.04,15.26.13,22.89.25-7.63.12-15.26.2-22.89.25l-22.89.07-22.89-.07c-7.63-.04-15.26-.13-22.89-.24Z" style="fill:#dcdcdc;"/><path d="m23.22,252.24c7.63-.12,15.26-.2,22.89-.24l22.89-.07,22.89.07c7.63.04,15.26.13,22.89.25-7.63.12-15.26.2-22.89.25l-22.89.07-22.89-.07c-7.63-.04-15.26-.13-22.89-.24Z" style="fill:#dcdcdc;"/><path d="m23.22,255.2c7.63-.12,15.26-.2,22.89-.24l22.89-.07,22.89.07c7.63.04,15.26.13,22.89.25-7.63.12-15.26.2-22.89.25l-22.89.07-22.89-.07c-7.63-.04-15.26-.13-22.89-.24Z" style="fill:#dcdcdc;"/><path d="m23.22,258.16c7.63-.12,15.26-.2,22.89-.24l22.89-.07,22.89.07c7.63.04,15.26.13,22.89.25-7.63.12-15.26.2-22.89.25l-22.89.07-22.89-.07c-7.63-.04-15.26-.13-22.89-.24Z" style="fill:#dcdcdc;"/><path d="m23.22,261.11c7.63-.12,15.26-.2,22.89-.24l22.89-.07,22.89.07c7.63.04,15.26.13,22.89.25-7.63.12-15.26.2-22.89.25l-22.89.07-22.89-.07c-7.63-.04-15.26-.13-22.89-.24Z" style="fill:#dcdcdc;"/></g></g><g><g><g><g><path d="m38.64,278.39c2.4.05,64.75-19.25,66.66-21.49.21-.25-.77-9.48-2.39-16.81-.07-.35,22.13-29.47,22.13-29.47l-40.18-15.6-19.2,39.83-4.99,10.36s-20.79,20.92-22.63,23.6c-1.82,2.68-1.8,9.54.6,9.59Z" style="fill:#a8a8a8;"/><g><path d="m36.89,278.74c2.51.07,67.59-19.84,69.59-22.17.76-.88-.4-4.91-3.57-16.48l-42.67,5.16s-22.01,20.69-23.94,23.48c-1.91,2.78-1.92,9.94.59,10Z" style="fill:#394547;"/><g><g><path d="m37.02,275.85c10.83-3.6,54.84-17.12,65.82-19.86.09-.02.11.04.02.07-10.65,3.81-54.78,16.97-65.79,19.97-.23.06-.28-.1-.05-.18Z" style="fill:#1d1d1b;"/><path d="m39.77,265.12c2.56-.9,5.46-.44,7.34.67,1.81,1.07,3.6,2.79,4.22,5.08.02.07-.1.1-.13.04-1.93-4.08-6.96-6.64-11.39-5.65-.09.02-.13-.11-.04-.14Z" style="fill:#1a2e35;"/><path d="m55.83,249.56c4.35-1.4,9.88-1.4,13.69,1.34.15.11,0,.31-.16.29-4.57-.83-8.79-1.2-13.44-1.07-.33,0-.4-.46-.09-.56Z" style="fill:#1a2e35;"/><path d="m52.86,251.91c4.35-1.4,9.88-1.4,13.69,1.34.15.11,0,.31-.16.29-4.57-.83-8.79-1.2-13.44-1.07-.33,0-.4-.46-.09-.56Z" style="fill:#1a2e35;"/><path d="m49.89,254.25c4.35-1.4,9.88-1.4,13.69,1.34.15.11,0,.31-.16.29-4.57-.83-8.79-1.2-13.44-1.07-.33,0-.4-.46-.09-.56Z" style="fill:#1d1d1b;"/><path d="m46.93,256.6c4.35-1.4,9.88-1.4,13.69,1.34.15.11,0,.31-.16.29-4.57-.83-8.79-1.2-13.44-1.07-.33,0-.4-.46-.09-.56Z" style="fill:#1d1d1b;"/></g><path d="m49.86,245.65c3.29,2.32,7.46,3.14,11.23,4.34.39.12.68-.25.68-.59.07-.02.13-.08.1-.17-1.4-3.69-4.23-7.55-7.38-9.95-1.94-1.49-5.28-2.43-6.93.08-1.56,2.37.39,4.94,2.31,6.29Zm-1.31-3.56c-1.02-4.88,4.38-2.55,5.77-1.39.89.74,1.71,1.6,2.5,2.46,1.64,1.79,2.99,3.78,4.44,5.72-1.81-.7-3.67-1.24-5.51-1.88-2.19-.76-6.64-2.21-7.2-4.9Z" style="fill:#1d1d1b;"/><path d="m76.52,241.7c-1.21-2.75-4.66-2.37-6.82-1.22-3.5,1.86-6.94,5.19-8.92,8.6-.05.08,0,.15.07.18-.06.34.16.75.57.7,3.91-.56,8.17-.68,11.79-2.43,2.12-1.02,4.46-3.23,3.31-5.83Zm-9.34,6.19c-1.92.32-3.84.55-5.75.95,1.75-1.67,3.41-3.41,5.32-4.91.91-.71,1.86-1.43,2.87-2.01,1.56-.91,7.27-2.33,5.47,2.32-1,2.56-5.62,3.27-7.91,3.65Z" style="fill:#1d1d1b;"/></g></g></g><g><path d="m63.63,236.7l44.29,6.52s24.14-43.89,33.9-54.81l.02-.02c.64-.72,1.24-1.3,1.78-1.74h.02c.62-.36,1.7-.63,3.2-.81h.02c13.09-1.6,57.16,2.66,87.61.67l-14.23-19-6.31-8.43c-34.31-3.9-76.42-17.9-95.41-8.36-20.63,10.36-54.89,85.98-54.89,85.98Z" style="fill:#5254cf;"/><g><path d="m69.18,229.18c7.53.97,5.38.59,12.9,1.63,3.68.51,22.17,3.04,25.53,4.09.07.02.06.14-.02.15-3.51.03-21.95-2.9-25.62-3.47-7.5-1.18-5.33-.92-12.82-2.18-.14-.02-.11-.23.03-.21Z" style="fill:#1d1d1b; isolation:isolate; opacity:.3;"/><path d="m107.69,234.28c5.01-8.38,27.8-49.75,32.34-51.38,4.13-1.48,86.84.19,88.06.2.09,0,.09.14,0,.14-9.79-.12-85.39-.35-87.54.5-4.48,1.78-31.74,49.76-32.41,50.77-.18.27-.63.06-.46-.22Z" style="fill:#1d1d1b; isolation:isolate; opacity:.3;"/></g></g></g><g><path d="m257.59,169.21s2.63,24.94-10.02,37.35c-15.14,14.85-115.08,11.15-130.57,6.16-15.49-5-15.99-29.99.94-35.79,16.1-5.52,87.51-8.72,89.2-9.39,1.69-.68,6.64-8.58,6.64-8.58l43.81,10.26Z" style="fill:#5254cf;"/><g><path d="m236.44,168.52c.02-.12.2-.08.2.03-.01,3.15,1.16,6.46,3.23,8.85,2.37,2.74,5.87,4.27,9.04,5.87.3.15.07.63-.24.54-1.93-.58-3.84-1.42-5.6-2.41-1.6-.9-3.09-2.03-4.21-3.5-2.07-2.71-2.98-6.01-2.42-9.38Z" style="fill:#1d1d1b; isolation:isolate; opacity:.3;"/><path d="m207.82,165.97c.71-.9,1.48-1.76,2.21-2.64,1.74-2.08,3.5-4.16,5.32-6.17.17-.19.51.08.35.29-1.23,1.61-2.53,3.17-3.82,4.74-.66.81-1.32,1.61-1.98,2.41-.62.75-1.39,1.49-1.85,2.35-.48.89.15,1.66,1.08,1.75.83.09,1.59-.33,2.23-.82,1.44-1.11,2.58-2.69,3.78-4.04.73-.83,1.47-1.65,2.21-2.47.79-.87,1.64-1.69,2.43-2.56.05-.06.15.02.1.08-.69.95-1.33,1.94-2.02,2.89-.69.95-1.39,1.89-2.11,2.82-.68.88-1.38,1.75-2.1,2.6-.61.72-1.31,1.42-2.13,1.9-1.32.78-3.62.95-4.33-.76-.35-.85.09-1.7.61-2.37Z" style="fill:#1d1d1b; isolation:isolate; opacity:.3;"/><path d="m119.12,212.81c5.33.1,10.66.4,16,.52,5.29.11,10.58.14,15.87.08,10.63-.11,21.25-.52,31.85-1.26,10.71-.75,22.27-1.82,32.91-3.3,5.09-.71,10.25-1.3,15.28-2.38,4.54-.98,8.66-2.87,12.05-6.17,6.89-6.69,9.56-16.52,10.66-25.91.15-1.26.27-2.52.37-3.79,0-.09.14-.08.13,0-.62,9.63-2.11,19.67-8.16,27.41-2.62,3.35-5.95,6.1-9.86,7.66-4.76,1.91-10.05,2.36-15.09,3.05-10.68,1.45-22.28,2.58-33.03,3.42-10.81.84-21.65,1.37-32.5,1.54-10.84.17-21.7.02-32.53-.51-1.32-.06-2.64-.14-3.96-.26-.07,0-.07-.12,0-.12Z" style="fill:#1d1d1b; isolation:isolate; opacity:.3;"/><path d="m104.87,189.51c1.02-4.23,3.56-7.77,7.14-10.22,3.84-2.62,8.43-3.82,12.97-4.48,5.14-.75,10.35-1.13,15.52-1.64,10.61-1.04,21.22-1.99,31.85-2.87,10.62-.88,33.48-2.67,34.77-2.72.11,0,.14.19.02.2-10.25,1.14-19.57,2.13-29.84,3.06-10.32.94-20.63,1.93-30.95,2.96-5.14.51-10.27,1.03-15.41,1.56-4.76.49-9.65.98-14.12,2.82-3.83,1.58-7.27,4.12-9.22,7.84-1.88,3.6-2.28,7.9-1.52,11.86.7,3.67,2.43,7.25,4.96,10.02,2.49,2.73,5.65,4.82,9.29,5.6.94.2,2.07.35,2.94.52.07.01.13.15.07.15-7.68.2-14.78-5.4-17.55-12.41-1.53-3.86-1.87-8.21-.9-12.25Z" style="fill:#1d1d1b; isolation:isolate; opacity:.3;"/></g></g></g><g><g><g><path d="m217.84,108.43c-6.64,19.08-17.78,34.38-22.17,37.76-5.55,4.27-38.75,7.75-40.43,7.75-4.15-.04-4.43-27.68.02-27.83,6.76-.23,30.07.04,31.69-1.29,1.68-1.39,10.58-10.38,22.68-23.78,8.35-9.26,12.34-4.44,8.22,7.4Z" style="fill:#ed776a;"/><g><g><path d="m161.02,153.17c-3.01.8-17.14,3.24-21.22,3.05-4.08-.2-15.79-1.62-15.96-4.77s3.3-3,3.3-3c0,0-4.85-1.38-4.73-4.56.12-3.18,5.5-2.78,5.5-2.78,0,0-4.88-1.78-4.53-4.95.35-3.16,5.69-1.85,5.69-1.85,0,0-4.53-1.42-3.15-3.91,1.66-2.99,9.73.58,14.25.46,1.03-.03,20.78-2.03,20.78-2.03l.06,24.34Z" style="fill:#d19c5e;"/><g><path d="m128.61,134.2c5.94,2.61,8.98,2.73,15.3,1.78.12-.02.18.16.05.19-6.1,1.49-9.94,1.9-15.49-1.69-.27-.18-.14-.4.14-.28Z" style="fill:#1a2e35;"/><path d="m127.45,140.89c6.4,2.17,9.71,2.33,16.39,1.82.09,0,.12.15.02.17-6.52,1.04-10.36,1.36-16.47-1.65-.28-.14-.23-.44.06-.34Z" style="fill:#6a6a6a;"/><path d="m127.48,148.41c6.35,1.66,9.97,1.98,16.39.66.15-.03.21.19.06.23-6.42,1.99-10.94,1.61-16.49-.69-.38-.16-.37-.3.03-.2Z" style="fill:#6a6a6a;"/></g></g><g><path d="m164.83,129.86s-6.69-4.61-10.08-5.98c-3.39-1.37-17.89-1.85-18.17,1.27-.36,4.04,7.96,5.96,12.16,6.38,0,0-.85,9.34,4.82,12.01,5.67,2.67,11.28-13.68,11.28-13.68Z" style="fill:#d19c5e;"/><path d="m136.83,126.3c2.32,3.92,7.87,4.11,11.91,4.81.31.05.37.32.29.55-.09,3.94.92,9.52,4.27,11.98.1.07,0,.22-.1.16-3.96-2.15-5.4-7.55-5.02-11.86-4.16-.66-9.71-1.09-11.39-5.62,0-.03.02-.05.04-.02Z" style="fill:#6a6a6a;"/></g></g></g><g><path d="m160.35,124.41l7.08,32.2s25.92-5.37,31.22-9.96c5.3-4.59,16.42-26.38,21.07-38.77,4.61-12.29-2.69-16.67-9.52-9.25-6.83,7.41-23.77,25.34-24.64,25.67-.87.33-25.21.11-25.21.11Z" style="fill:#ffc700;"/><path d="m170.87,143.12c-.8-3.59-1.64-7.17-2.31-10.78-.38-2.05-.77-4.11-1.14-6.17-.01-.08.12-.11.14-.03.95,3.57,1.89,7.15,2.68,10.76.78,3.59,1.6,7.18,2.33,10.78.42,2.05.77,4.1,1.07,6.17,0,.04-.06.06-.07.02-1.07-3.54-1.89-7.14-2.7-10.75Z" style="fill:#1a2e35;"/><path d="m219.72,107.88c-4.65,12.39-15.77,34.17-21.07,38.77-1.96,1.7-6.73,3.49-11.96,5.1l27.71-56.24c5.15-2.13,8.97,2.64,5.32,12.38Z" style="opacity:.1;"/></g></g><path d="m260.47,171.37c-.16.16-64.78-8.1-65.33-8.8-.78-.99,8.85-54.66,20.21-68.19,2.84-3.38,11.88-3.15,15.93.26,20.07,16.9,29.76,76.15,29.19,76.73Z" style="fill:#ffc700;"/><g><g><path d="m239.38,101.69c11.44,8.79,41.59,44.33,35.3,52.77-6.34,8.5-49.47,5.65-62.07,2.03-3.75-1.08,5.86-24.92,9.85-26.11,3.33-.99,22.02,4.08,22.36,3,.38-1.22-3.76-9.1-10.45-23.51-7.71-16.6-.04-12.07,5.01-8.18Z" style="fill:#d19c5e;"/><g><g><path d="m204.89,127.62c-8.33.22-10.44,1.55-17.56-2-4.68-2.33-8.17-.34-4.99,4.07,5.2,7.21,16.01,9.19,19.95,8.79l2.61-10.86Z" style="fill:#d19c5e;"/><path d="m227.82,131.87s-9.99-3.56-18.89-4.21c-6.16-.45-19.65.07-30.14,15.22-2.49,3.59-3.48,10.47,2.71,6.08,4.4-3.12,6.25-6.43,9.13-7.78,0,0-.23,8.9,3.47,11.26,1.65,1.05,6.23,3.81,10.1,5.46,0,0,.58-.75,1.19-1.8,0,0,3.66,1.87,9.7.27l12.73-24.5Z" style="fill:#d19c5e;"/><g><path d="m202.98,128.17c-2.58,1.95-7.99,6.16-11.22,11.15-3.58,5.54-8.99,17.17-4.88,19.77,3.02,1.91,5.47-2.35,5.47-2.35,0,0-1.22,5.28,1.88,6.41,2.83,1.03,4.53-2.38,4.53-2.38,0,0-.19,3.33,2.72,3.8,3.51.56,3.33-6.51,7.37-9.01.91-.56-5.88-27.38-5.88-27.38Z" style="fill:#d19c5e;"/><g><path d="m198.25,142.12c-2.13,2.23-5.67,8.53-5.95,14.49,0,.14.09.21.12.09,1.7-6.5,4.53-12.2,5.88-14.55.02-.03-.03-.06-.05-.03Z" style="fill:#6a6a6a;"/><path d="m203.73,145.9c-1.64,2.11-5,8.77-5.08,14.82,0,.14.1.21.13.08,1.5-6.87,3.8-12.45,5-14.87.02-.03-.03-.06-.05-.03Z" style="fill:#6a6a6a;"/></g></g></g><path d="m190.62,141.13c-2.52,1.22-4.03,2.81-6.01,4.74-.98.95-1.98,1.89-3.06,2.73-.98.76-2.43,1.91-3.73,1.19-.73-.4-.87-1.33-.85-2.09.02-.85.58-2.5.96-3.26.02-.04-.05-.07-.07-.03-.35.68-1.01,2.2-1.15,2.95-.13.68-.19,1.46.1,2.11.63,1.4,2.39,1.3,3.55.7.69-.36,1.32-.87,1.92-1.36.58-.48,1.14-.98,1.69-1.5,1.12-1.06,2.18-2.19,3.29-3.26,1.22-1.18,2.09-1.8,3.43-2.84.05-.04,0-.11-.05-.08Z" style="fill:#6a6a6a;"/><path d="m186.61,151.39c.44-1.63,3.11-8.55,4.07-10.2.02-.04-.03-.08-.06-.04-1.74,2.3-4.2,8.06-4.7,9.86-.49,1.78-1.02,4.03-.72,5.87.46,2.77,2.39,2.99,3.09,3.02.84.03,1.63-.28,2.3-.78.74-.55,1.38-1.56,1.81-2.36.02-.04-.04-.09-.06-.04-.78,1.25-2.2,2.59-3.74,2.65-.67.02-1.38-.16-1.87-.64-.57-.56-.75-1.39-.81-2.16-.14-1.74.26-3.49.7-5.16Z" style="fill:#6a6a6a;"/></g></g><g><path d="m227.82,130.67l-8.66,30.2s53.98,3.05,56.97-6.75c2.99-9.8-23.11-41.9-33.93-50.72-12.54-10.21-13.21-5.92-9.13,4.3,4.28,10.7,11.64,25.98,11.64,25.98l-16.9-3Z" style="fill:#ffc700;"/><g><path d="m261.77,138.49c-2.68-1.29-5.49-2.31-8.33-3.2-2.81-.88-5.7-1.45-8.61-1.9-1.66-.26-3.33-.44-5-.63-.05,0-.06.07,0,.08,2.92.41,5.83,1.08,8.68,1.82,2.84.74,5.67,1.53,8.48,2.37,1.59.48,3.16,1.03,4.74,1.56.07.02.11-.08.04-.11Z" style="fill:#1d1d1b; isolation:isolate; opacity:.3;"/><path d="m227.94,130.56c.27.02,15.28,2.36,15.79,2.5-.09-.2-3.9-7.35-4.47-8.39-.06-.1-.11-.21-.16-.31-.34-.45-.69-.9-1.01-1.36-.41-.6-.83-1.19-1.24-1.79-.01-.02.01-.04.03-.02.44.58.88,1.15,1.31,1.73.2.27.39.54.58.82-.38-.74-.75-1.49-1.12-2.23-.59-1.19-1.14-2.4-1.69-3.61-.02-.04.04-.06.06-.03,1.12,2.08,2.31,4.13,3.44,6.21,1.13,2.07,5.4,9.71,5.38,9.71-.02.03-16.59-2.93-16.92-3.01-.13-.03-.11-.22.03-.2Z" style="fill:#1d1d1b; isolation:isolate; opacity:.3;"/><path d="m230.01,148.98c.95-3.37,1.87-6.74,2.94-10.07.61-1.89,1.21-3.79,1.83-5.68.02-.07.15-.04.13.03-.82,3.42-1.64,6.84-2.61,10.22-.97,3.36-1.91,6.73-2.92,10.08-.57,1.9-1.2,3.79-1.89,5.65-.01.04-.08.02-.07-.02.7-3.45,1.64-6.83,2.59-10.22Z" style="fill:#1d1d1b; isolation:isolate; opacity:.3;"/><path d="m218.56,161.41c.38-.95.83-2.3,1.25-3.23.11-.25.29-.23.21.02-.27.85-.45,1.78-.71,2.65.75.02,1.51.03,2.26.06.87.04,1.75.08,2.62.11,1.71.07,3.42.12,5.13.15,3.46.06,6.93.05,10.39-.03,6.94-.17,13.9-.59,20.79-1.48,1.93-.25,3.85-.53,5.76-.88,1.94-.35,4.04-.74,5.62-1.21.05-.01.08.07.03.09-1.61.62-3.13,1.09-4.82,1.46-1.72.37-3.45.7-5.19.97-3.47.53-6.96.88-10.46,1.14-6.93.51-13.89.71-20.84.64-1.95-.02-3.9-.06-5.84-.13-.98-.03-1.97-.07-2.95-.12-.98-.05-3.32-.05-3.25-.22Z" style="fill:#1d1d1b; isolation:isolate; opacity:.3;"/></g></g></g><g><path d="m219.39,111.25s9.57-11.5,16.49-11.97l6.38,4.59s1.99.43,2.46-.85c1.16-3.16.71-10.47-6.04-14.56-6.18-3.74-15.54-2.46-23.16.41-7.32,2.75-13.34,8.41-10.53,13.09,2.81,4.67,14.39,9.28,14.39,9.28Z" style="fill:#ffc700;"/><path d="m218.4,109.02s-9.26-5.28-10.53-8.84c-1.27-3.57,5.69-7.8,10.28-9.65,7.09-2.87,12.12-2.91,16.62.58,4.5,3.48-16.37,17.92-16.37,17.92Z" style="opacity:.1;"/><g><g><path d="m218.68,107.4c2.76-.11,8.02-5.74,9.88-10.25.13-.31-.67-3.34-1.45-7.06-.47-2.26-.94-4.79-1.2-7.13l-14.27,5.2s1.99,4.74,2.42,8.82c.03.34.03.66,0,.97,0,.04,0,.1,0,.16-.09,1.86.3,9.46,4.62,9.29Z" style="fill:#d19c5e;"/><path d="m214.07,97.95s-.01.09,0,.16c.47.01.97-.01,1.52-.09,8.32-1.12,9.22-11.51,9.29-14.69l-13.24,4.82s1.99,4.74,2.43,8.82c.02.34.03.65,0,.97Z" style="fill:#1d1d1b; isolation:isolate; opacity:.3;"/></g><g><path d="m224.79,66.16c2.31,4.96,1.67,20.31-1.54,24.17-4.66,5.59-13.35,7.28-18.36,1.43-4.86-5.67-3.68-25.66.02-29.27,5.44-5.32,16.48-3.66,19.89,3.67Z" style="fill:#d19c5e;"/><g><path d="m213.81,75.92c-.45-.12-.85-.3-1.29-.47-.49-.19-.9-.28-1.22-.73-.17-.24-.09-.67.12-.85.51-.44,1.17-.36,1.77-.16.65.22,1.1.55,1.47,1.13.36.56-.25,1.24-.85,1.09Z" style="fill:#1a2e35;"/><path d="m203.35,75.91c.46-.07.88-.21,1.33-.33.51-.13.93-.19,1.29-.6.2-.22.16-.65-.03-.86-.46-.49-1.12-.48-1.74-.35-.67.15-1.15.43-1.58.97-.42.52.12,1.26.73,1.17Z" style="fill:#1a2e35;"/><path d="m212.96,87.94c-.25.24-.5.57-.88.6-.36.03-.78-.14-1.11-.27-.03-.01-.07.02-.05.05.27.4.83.65,1.31.57.47-.08.71-.48.82-.91.02-.06-.06-.08-.1-.05Z" style="fill:#1a2e35;"/><path d="m211.9,84.83c-.59.89-1.44,1.37-2.37,1.54-.41.08-.84.09-1.27.05-.08,0-.17-.01-.24-.03-.08,0-.14-.02-.23-.04-.12-.02-.19-.12-.21-.23h0s0-.08.01-.11h0s0-.1,0-.1c-.01-.8.08-2.01.08-2.01-.29.14-1.78.8-1.76.38.24-3.44.51-7.27,1.47-10.65.03-.11.2-.08.19.03-.1,3.32-.78,6.6-.94,9.93.48-.17,1.25-.5,1.67-.49.11.03-.21,2.34-.18,2.69,0,0,0,.02,0,.04,1.34.18,2.35-.21,3.66-1.1.08-.06.16.01.1.09Z" style="fill:#1a2e35;"/><g><path d="m211.43,78.41s.08.05.08.09c-.01,1.03.15,2.21,1.09,2.53.03.01.03.06,0,.06-1.14-.14-1.34-1.7-1.16-2.68Z" style="fill:#1a2e35;"/><path d="m212.33,77.32c1.65-.16,1.85,3.15.32,3.3-1.5.15-1.7-3.17-.32-3.3Z" style="fill:#1a2e35;"/></g><g><path d="m205.44,78.38s-.08.05-.07.1c.1,1.02.05,2.21-.86,2.62-.03.01-.02.06.01.06,1.12-.24,1.18-1.82.92-2.77Z" style="fill:#1a2e35;"/><path d="m204.45,77.37c-1.66-.01-1.56,3.3-.03,3.32,1.51.01,1.42-3.3.03-3.32Z" style="fill:#1a2e35;"/></g><g><path d="m208.75,86.1s.7.94,1.65,1.27c.35.13.73.17,1.12.07.81-.21.83-.96.68-1.6-.12-.52-.37-.98-.37-.98,0,0-1.19,1.11-3.09,1.23Z" style="fill:#1a2e35;"/><path d="m210.4,87.38c.35.13.73.17,1.12.07.81-.21.83-.96.68-1.6-.87.09-1.73.68-1.81,1.53Z" style="fill:#f66;"/></g></g><path d="m202.37,68.74c.56-1.36,1.2-2.73,2.01-3.01.81-.28,1.24,2.25,3.09,2.34,2.5.12,3.96-2.85,7.46-2.75,4.33.13,6.61,3.27,6.86,10.37.23,6.34,3.88,7.11,3.88,7.11,0,0,2.75-14.17-1.28-18.73-4.03-4.56-13.12-6.43-19.11-1.89-2.18,1.65-2.9,6.56-2.9,6.56Z" style="fill:#1d1d1b;"/><g><path d="m223.3,78.81s2.81-5.26,5.16-4.31c2.35.95.64,8.29-1.83,9.56-2.47,1.27-3.69-.99-3.69-.99l.36-4.25Z" style="fill:#d19c5e;"/><path d="m227.92,76.59s.06.05.02.07c-1.72.95-2.48,2.75-2.94,4.57.46-.74,1.15-1.19,2.12-.66.05.03.01.11-.04.1-.76-.07-1.28.12-1.71.78-.3.46-.48,1.03-.68,1.54-.07.17-.37.12-.33-.07,0-.01,0-.03,0-.04-.32-2.31,1.09-5.76,3.54-6.29Z" style="fill:#1a2e35;"/></g><g><path d="m209.12,60.28c1.66-.88,3.66-1.82,6.02-2.3,2.36-.48,9.93-.47,11.85.9,1.92,1.37,2.93,8.42,3.06,9.46s.14,7.34-2.02,9.02c-2.15,1.68-3.18-8.95-7.03-12.21-3.85-3.26-11.88-4.87-11.88-4.87Z" style="fill:#9f9ef2;"/><path d="m209.12,60.28s8.03,1.61,11.88,4.87c3.85,3.25,4.88,13.89,7.03,12.21.95-.74,1.36-1.77,1.64-3.47-.71-3.07-2.34-7.81-5.18-10.95-2.67-2.95-6.97-4.21-11.48-4.38-1.46.49-2.76,1.12-3.9,1.73Z" style="opacity:.1;"/><g><path d="m227.89,83.72c-.42-2.82-3.88-10.2-7.23-14.32-3.36-4.12-12.45-5.99-13.69-5.83-3.01.4-3.56,1.9-4.06,1.66-.5-.23,2.26-3.89,3.07-4.47.81-.57,2.78-1.3,4.1-1.36,1.32-.07,9.47.12,12.67,3.35,3.2,3.23,8.1,12.59,7.52,15.12-.14.61-.9,1.05-1.09,1.91-.25,1.13-.38,2.43-.66,3.23-.22.64-.61.95-.65.7Z" style="fill:#9f9ef2;"/><g><path d="m219.81,67.49c.66-.48,1.28-1,1.85-1.59.57-.58,1.13-1.22,1.54-1.92.03-.05.11-.02.09.04-.37.78-.78,1.5-1.38,2.13-.57.61-1.28,1.13-2.03,1.48-.08.04-.15-.09-.08-.14Z" style="fill:#1a2e35;"/><path d="m227.7,80.88c.06-.21.18-.4.27-.61.09-.23.17-.47.21-.72.08-.47.03-.95.22-1.4.15-.36.37-.68.59-.99.25-.36.5-.74.47-1.2,0-.06.09-.07.09,0,.07.86-.46,1.52-.78,2.27-.21.48-.16,1-.28,1.5-.1.42-.29.97-.66,1.24-.05.04-.16,0-.13-.08Z" style="fill:#1a2e35;"/><path d="m226.49,77.89c.24-.34.51-.65.72-1.02.2-.35.38-.73.53-1.11.15-.37.27-.76.42-1.13.17-.44.4-.87.54-1.33.02-.06.1-.02.09.04-.15.47-.23.96-.37,1.44-.12.41-.28.81-.45,1.2-.17.38-.36.73-.59,1.07-.22.32-.51.68-.85.88-.02.02-.05-.01-.04-.04Z" style="fill:#1a2e35;"/><path d="m225.25,75.19c.55-.54,1.04-1.18,1.41-1.86.36-.67.69-1.37,1.01-2.06.02-.05.1-.03.09.03-.21.77-.42,1.53-.81,2.23-.19.33-.4.67-.66.95-.28.3-.62.56-.97.78-.04.03-.11-.03-.07-.07Z" style="fill:#1a2e35;"/><path d="m223.92,72.62c.31-.21.49-.51.69-.82.22-.34.44-.68.64-1.03.19-.33.4-.66.59-1,.2-.34.39-.69.43-1.08,0-.05.09-.05.09,0,.01.4-.1.77-.24,1.13-.16.4-.34.79-.56,1.16-.22.36-.45.71-.72,1.05-.23.29-.5.59-.87.7-.07.02-.13-.07-.06-.12Z" style="fill:#1a2e35;"/><path d="m222.86,69.32c.24-.28.48-.56.71-.85.22-.3.43-.6.63-.91.21-.32.43-.64.62-.98.03-.05.11-.02.09.04-.13.37-.26.73-.44,1.07-.18.34-.39.66-.62.97-.22.3-.46.6-.72.88-.25.26-.54.57-.87.71-.05.02-.11-.04-.08-.09.18-.31.46-.57.7-.84Z" style="fill:#1a2e35;"/><path d="m217.51,66.05c.25-.37.5-.73.79-1.08.29-.35.61-.68.94-1,.64-.62,1.32-1.19,2.09-1.65.04-.03.11.03.06.07-1.26,1.25-2.56,2.45-3.81,3.71-.04.04-.11,0-.07-.06Z" style="fill:#1a2e35;"/><path d="m215.61,63.75c.26-.36.56-.69.89-.99.7-.62,1.51-1.09,2.33-1.54.05-.03.1.04.06.08-.7.54-1.41,1.08-2.07,1.66-.33.29-.66.58-.95.91-.3.32-.51.7-.8,1.04-.02.03-.07,0-.06-.03.09-.41.36-.8.6-1.13Z" style="fill:#1a2e35;"/><path d="m213.17,62.81c.24-.36.52-.68.82-.98.58-.57,1.25-1.02,1.98-1.37.05-.02.09.05.04.08-.66.47-1.28.99-1.85,1.57-.29.29-.56.59-.83.89-.27.3-.5.66-.8.93-.02.02-.06-.01-.05-.04.16-.38.45-.74.67-1.08Z" style="fill:#1a2e35;"/><path d="m211.35,61.53c.28-.27.57-.51.87-.76.29-.24.59-.49.94-.63.05-.02.08.05.04.08-.55.51-1.08,1.02-1.62,1.54-.5.49-.82,1.09-1.21,1.66-.02.03-.06,0-.05-.02.16-.72.49-1.36,1.02-1.87Z" style="fill:#1a2e35;"/><path d="m209.19,61.23c.5-.58,1.13-.97,1.8-1.32.05-.02.09.06.04.08-.62.37-1.15.89-1.62,1.43-.49.54-.87,1.15-1.23,1.79-.02.03-.07.02-.06-.02.18-.73.58-1.39,1.07-1.95Z" style="fill:#1a2e35;"/><path d="m206.49,62.71c.06-.15.13-.3.21-.45.16-.29.36-.57.57-.82.44-.52.98-.94,1.52-1.36.05-.04.1.04.06.08-.53.4-.99.88-1.41,1.39-.21.25-.39.52-.55.8-.08.14-.15.28-.22.42-.06.13-.12.3-.2.42-.02.03-.08.02-.08-.03,0-.15.06-.31.12-.45Z" style="fill:#1a2e35;"/><path d="m204.8,63c.15-.24.3-.46.47-.68.17-.22.35-.42.55-.61.2-.2.41-.39.6-.59.05-.05.11.02.06.07-.21.19-.38.42-.56.64-.16.21-.33.42-.49.63-.16.21-.32.42-.48.64-.16.21-.3.46-.49.66-.03.03-.08,0-.06-.04.08-.25.25-.49.39-.71Z" style="fill:#1a2e35;"/></g></g></g></g></g><path d="m218.4,109.02s7.05-15.31,17.56-17.83l-.08,8.1s-6.35.67-16.49,11.97l-.99-2.23Z" style="fill:#ffc700;"/><g><path d="m238.77,99.14c-1.98-.04-3.87.59-5.64,1.35-1.78.77-3.43,1.82-4.99,2.98-1.57,1.14-3.02,2.45-4.43,3.78l-2.04,2.1-1.94,2.19-.22.25-.28-.11c-2.11-.82-4.13-1.78-6.1-2.87-.98-.55-1.95-1.12-2.86-1.78-.91-.66-4.7-3.52-5.66-5.79,1.48,2.15,6.8,6.07,8.79,7.05,1,.49,2.02.93,3.04,1.35,1.02.42,2.06.84,3.09,1.21l-.5.14,1.94-2.26c.68-.73,1.37-1.44,2.07-2.14.74-.67,1.46-1.35,2.22-1.99.78-.61,1.55-1.26,2.38-1.8,1.62-1.15,3.41-2.09,5.27-2.79.46-.18.95-.32,1.42-.46.49-.11.97-.24,1.46-.31.98-.17,1.99-.24,2.96-.07Z" style="fill:#1d1d1b; isolation:isolate; opacity:.3;"/><path d="m242.26,103.88c-1.17-.61-2.26-1.34-3.33-2.1-1.06-.77-2.1-1.57-3.05-2.49,1.17.61,2.26,1.34,3.33,2.1,1.06.77,2.1,1.57,3.05,2.49Z" style="fill:#1d1d1b; isolation:isolate; opacity:.3;"/></g><path d="m222.46,106s1.28,4.04,1.97,10c.27,2.36.16,10.92-2.49,10.86-2.65-.06,1.11-5.93,1.43-10.47.33-4.61-1.17-7.7-1.59-10.36l.68-.03Z" style="fill:#fff;"/><path d="m213.19,107.35s-.8,4.58-1.03,10.01c-.09,2.15.59,9.88,2.98,9.65,2.4-.23-1.4-5.29-2-9.37-.61-4.15.47-7.88.66-10.31l-.61.02Z" style="fill:#fff;"/></g><g><g><rect x="191.05" y="139.93" width="2.39" height="59.36" transform="translate(19.02 358.61) rotate(-88.92)" style="fill:#375a64;"/><rect x="204.3" y="153.44" width="2.39" height="32.85" transform="translate(31.78 372.11) rotate(-88.92)" style="fill:#a8a8a8;"/></g><g><polygon points="190.05 170.76 138.04 169.78 131.36 134.31 183.37 135.3 190.05 170.76" style="fill:#a8a8a8;"/><polygon points="187.69 170.72 135.68 169.73 129 134.27 181.01 135.25 187.69 170.72" style="fill:#c8c8c8;"/><path d="m161.8,153.35c.16,1.92-1.25,3.44-3.17,3.41s-3.6-1.62-3.77-3.54c-.16-1.92,1.25-3.44,3.17-3.41,1.91.04,3.6,1.62,3.77,3.54Z" style="fill:#fff;"/></g></g></g></g></g><g><rect x="32.02" y="42.38" width="66.98" height="110.86" style="fill:#e1e1e1;"/><rect x="29.79" y="42.38" width="66.98" height="110.86" style="fill:#ececec;"/><rect x="32.65" y="44.62" width="61.27" height="106.37" style="fill:#fafafa;"/><g><rect x="44.31" y="58.45" width="37.68" height="78.72" style="fill:#ececec;"/><path d="m44.31,109.31c-.09-7.35,6.52-14.53,13.81-15.56,3.47-.49,7.16.2,10.41-1.13,5.79-2.37,7.63-10.07,13.46-12.35l.27,56.9h-37.94v-27.86Z" style="fill:#e1e1e1;"/></g></g><g><path d="m147.76,93.62c-10.56,0-19.15-8.59-19.15-19.15s8.59-19.15,19.15-19.15,19.15,8.59,19.15,19.15-8.59,19.15-19.15,19.15Zm0-36.1c-9.35,0-16.95,7.6-16.95,16.95s7.6,16.95,16.95,16.95,16.95-7.6,16.95-16.95-7.6-16.95-16.95-16.95Z" style="fill:#efefef; isolation:isolate;"/><polygon points="146.82 77.28 146.82 65.85 149.02 65.85 149.02 73.94 154.32 71.67 155.19 73.69 146.82 77.28" style="fill:#efefef;"/></g></svg>