<?xml version="1.0" encoding="UTF-8"?><svg id="a" xmlns="http://www.w3.org/2000/svg" viewBox="0 0 300 300"><g><path id="b" d="m57.35,237.91c51.17,29.45,134.13,29.46,185.29,0,51.17-29.46,51.17-77.21,0-106.66-51.17-29.45-134.13-29.45-185.29,0-51.17,29.45-51.17,77.21,0,106.66Z" style="fill:#efefef; isolation:isolate;"/><g id="c"><g><path d="m43.96,154.18c-.29-3.63-3.09-9.82-7.23-14.22-4.14-4.41-10.77-6.53-14.86-4.75-3.81,1.65-2.97,6.76,2.05,9.78,5.02,3.02,12.51,6.72,15.07,12.44l4.96,6.87v-10.11Z" style="fill:#00dfbf;"/><path d="m43.96,154.18c-.29-3.63-3.09-9.82-7.23-14.22-4.14-4.41-10.77-6.53-14.86-4.75-3.81,1.65-2.97,6.76,2.05,9.78,5.02,3.02,12.51,6.72,15.07,12.44l4.96,6.87v-10.11Z" style="fill:#d0d0fc;"/><path d="m44.48,158.93s.05,0,.08-.01c.13-.04.2-.19.16-.32-4.08-12.31-15.64-20.55-20.44-21.34-.13-.02-.27.07-.29.21-.02.14.07.27.21.29,4.7.77,16.03,8.88,20.05,21,.03.11.13.17.24.17Z" style="fill:#fff;"/></g><path d="m43.42,169.15c-.75-1.99-3.51-5.16-7.76-7.61-4.7-2.72-10.46-3.68-11.95-5.97-1.79-2.75.41-5.66,5.04-5.46,4.62.2,13.17,5.8,15.22,15.1l-.54,3.94Z" style="fill:#d0d0fc;"/><path d="m43.63,165.38s.08,0,.11-.03c.12-.06.17-.21.11-.34-3.98-7.92-12.38-11.63-16.72-12.57-.14-.03-.27.06-.3.19-.03.14.06.27.19.3,4.25.92,12.48,4.55,16.37,12.3.04.09.13.14.22.14Z" style="fill:#fff;"/></g><g id="d"><g><path d="m115.33,157.75v-1.72l65.32-35.99c.86-.49,2.24-.49,3.1,0l90.58,51.11s0,1.39,0,1.71c0,.32-.21.65-.64.9l-65.32,37.71-93.03-53.71Z" style="fill:#00dfbf;"/><path d="m274.33,172.86c0-.32,0-1.71,0-1.71l-1.11-.62-64.85,39.22v1.72l65.32-37.71c.43-.25.64-.57.64-.9Z" style="fill:#d19c5e;"/><path d="m115.33,156.03l65.32-37.71c.86-.49,2.24-.49,3.1,0l89.94,51.92c.86.49.86,1.3,0,1.79l-65.32,37.71-93.03-53.71Z" style="fill:#ffc700;"/><polygon points="208.37 211.47 208.37 209.74 115.33 156.03 115.33 157.75 208.37 211.47" style="fill:#a37c58;"/></g><g><path d="m116.83,158.58l-66.03,34.77-1.36,2.13v1.72c0,.86.49,1.64,1.36,2.13l87.03,50.25c.63.36,1.43.56,2.27.56s1.64-.2,2.27-.56l64.56-37.27v-1.72l-90.08-52.01Z" style="fill:#00dfbf;"/><path d="m116.83,158.58l-66.03,34.77-1.36,2.13v1.72c0,.86.49,1.64,1.36,2.13l87.03,50.25c.63.36,1.43.56,2.27.56s1.64-.2,2.27-.56l64.56-37.27v-1.72l-90.08-52.01Z" style="fill:#d19c5e;"/><path d="m140.08,248.42c-.83,0-1.64-.2-2.27-.56l-87.03-50.25c-.86-.5-1.36-1.28-1.36-2.13s.49-1.64,1.36-2.13l63.13-36.45,92.99,53.69-64.56,37.27c-.63.36-1.43.56-2.27.56Z" style="fill:#ffc700;"/></g><g><path d="m113.92,151.86l-62.41,36.03-.64.89v6.7h0c0,.32.21.65.64.89l87.03,50.25c.86.49,2.24.49,3.1,0l62.41-36.03v-6.7l-90.13-52.04Z" style="fill:#ececec;"/><path d="m204.05,203.9l-.78.45-10.16,5.86-1.89,1.1-49.59,28.62c-.86.49-2.25.49-3.1,0l-87.03-50.25c-.85-.49-.85-1.3,0-1.79l.83-.48,61.58-35.55,89.36,51.59.19.11.59.34Z" style="fill:#f0f0f0;"/><path d="m140.08,240.3v6.7c-.56,0-1.12-.12-1.55-.37l-87.03-50.25c-.42-.24-.64-.57-.64-.89v-6.7c0,.32.21.64.64.89l87.03,50.25c.42.25.99.37,1.55.37Z" style="fill:#e1e1e1;"/></g><path d="m204.05,203l-11.24,6.48-1.76,1.02-49.41,28.53c-.86.49-2.25.49-3.1,0l-77.93-45c-.7-.39-1.35-.77-1.96-1.13-3.17-1.93-5.08-3.66-6.31-5.5-.05-.08-.1-.15-.15-.23-.1-.15-.16-.31-.19-.47-.14-.69.31-1.35,1.09-1.57,1.51-.45,3.79-1.25,5.88-2.45.03-.01.05-.03.08-.04l54.88-31.69,90.13,52.04Z" style="fill:#fafafa;"/><g><g><path d="m192.42,202.21c-.8.46-.8,1.22,0,1.68.8.46,2.09.46,2.89,0s.8-1.22,0-1.68c-.8-.46-2.1-.46-2.89,0Z" style="opacity:.1;"/><path d="m201.72,196.79c-1.1-.64-2.48-.54-3.89.27-2.18,1.27-4.07,4.09-4.9,7.04.33.11.7.15,1.07.13.76-2.63,2.43-5.12,4.37-6.24.63-.36,1.23-.54,1.78-.54.38,0,.73.09,1.04.27.93.54,1.47,1.85,1.47,3.59,0,.29-.01.57-.05.86l1.02.59c.07-.49.11-.97.11-1.45,0-2.13-.73-3.78-2-4.52Z" style="fill:#394547;"/><path d="m203.51,203.31c0,.08-.03.16-.05.25l-.19-.11.24-.14Z" style="fill:#1a2e35;"/></g><g><path d="m183.7,197.18c-.8.46-.8,1.21,0,1.68.8.46,2.09.46,2.89,0,.8-.46.8-1.22,0-1.68-.8-.46-2.1-.46-2.89,0Z" style="opacity:.1;"/><path d="m192.99,191.75c-1.1-.64-2.48-.54-3.89.27-2.18,1.27-4.07,4.09-4.9,7.04.33.11.7.15,1.07.13.76-2.63,2.43-5.12,4.37-6.24.63-.36,1.23-.54,1.78-.54.38,0,.73.09,1.04.27.93.54,1.47,1.85,1.47,3.59,0,.29-.01.57-.05.86l1.02.59c.07-.49.11-.97.11-1.45,0-2.13-.73-3.78-2-4.52Z" style="fill:#394547;"/></g><g><path d="m174.97,192.14c-.8.46-.8,1.21,0,1.68.8.46,2.09.46,2.89,0s.8-1.22,0-1.68c-.8-.46-2.1-.46-2.89,0Z" style="opacity:.1;"/><path d="m184.27,186.71c-1.1-.64-2.48-.54-3.89.27-2.18,1.27-4.07,4.09-4.9,7.04.33.11.7.15,1.07.13.76-2.63,2.43-5.12,4.37-6.24.63-.36,1.23-.54,1.78-.54.38,0,.73.09,1.04.27.93.54,1.47,1.85,1.47,3.59,0,.29-.01.57-.05.86l1.02.59c.07-.49.11-.97.11-1.45,0-2.13-.73-3.78-2-4.52Z" style="fill:#394547;"/></g><g><path d="m166.25,187.11c-.8.46-.8,1.21,0,1.68.8.46,2.09.46,2.89,0,.8-.46.8-1.22,0-1.68-.8-.46-2.1-.46-2.89,0Z" style="opacity:.1;"/><path d="m175.55,181.68c-1.1-.64-2.48-.54-3.89.27-2.18,1.27-4.07,4.09-4.9,7.04.33.11.7.15,1.07.13.76-2.63,2.43-5.12,4.37-6.24.63-.36,1.23-.54,1.78-.54.38,0,.73.09,1.04.27.93.54,1.47,1.85,1.47,3.59,0,.29-.01.57-.05.86l1.02.59c.07-.49.11-.97.11-1.45,0-2.13-.73-3.78-2-4.52Z" style="fill:#394547;"/></g><g><path d="m157.53,182.07c-.8.46-.8,1.21,0,1.68.8.46,2.09.46,2.89,0,.8-.46.8-1.22,0-1.68-.8-.46-2.1-.46-2.89,0Z" style="opacity:.1;"/><path d="m166.83,176.64c-1.1-.64-2.48-.54-3.89.27-2.18,1.27-4.07,4.09-4.9,7.04.33.11.7.15,1.07.13.76-2.63,2.43-5.12,4.37-6.24.63-.36,1.23-.54,1.78-.54.38,0,.73.09,1.04.27.93.54,1.47,1.85,1.47,3.59,0,.29-.01.57-.05.86l1.02.59c.07-.49.11-.97.11-1.45,0-2.13-.73-3.78-2-4.52Z" style="fill:#394547;"/></g><g><path d="m148.81,177.03c-.8.46-.8,1.22,0,1.68.8.46,2.09.46,2.89,0,.8-.46.8-1.22,0-1.68-.8-.46-2.1-.46-2.89,0Z" style="opacity:.1;"/><path d="m158.1,171.61c-1.1-.64-2.48-.54-3.89.27-2.18,1.27-4.07,4.09-4.9,7.04.33.11.7.15,1.07.13.76-2.63,2.43-5.12,4.37-6.24.63-.36,1.23-.54,1.77-.54.38,0,.73.09,1.04.27.93.54,1.47,1.85,1.47,3.59,0,.29-.01.57-.05.86l1.02.59c.07-.49.11-.97.11-1.45,0-2.13-.73-3.78-2-4.52Z" style="fill:#394547;"/></g><g><path d="m140.08,172c-.8.46-.8,1.21,0,1.68.8.46,2.09.46,2.89,0,.8-.46.8-1.22,0-1.68-.8-.46-2.1-.46-2.89,0Z" style="opacity:.1;"/><path d="m149.38,166.57c-1.1-.64-2.48-.54-3.89.27-2.18,1.27-4.07,4.09-4.9,7.04.33.11.7.15,1.07.13.76-2.63,2.43-5.12,4.37-6.24.63-.36,1.23-.54,1.78-.54.38,0,.73.09,1.04.27.93.54,1.47,1.85,1.47,3.59,0,.29-.01.57-.05.86l1.02.59c.07-.49.11-.97.11-1.45,0-2.13-.73-3.78-2-4.52Z" style="fill:#394547;"/></g><g><path d="m131.36,166.96c-.8.46-.8,1.21,0,1.68.8.46,2.09.46,2.89,0,.8-.46.8-1.22,0-1.68s-2.1-.46-2.89,0Z" style="opacity:.1;"/><path d="m140.66,161.54c-1.1-.64-2.48-.54-3.89.27-2.18,1.27-4.07,4.09-4.9,7.04.33.11.7.15,1.07.13.76-2.63,2.43-5.12,4.37-6.24.63-.36,1.23-.54,1.78-.54.38,0,.73.09,1.04.27.93.54,1.47,1.85,1.47,3.59,0,.29-.01.57-.05.86l1.02.59c.07-.49.11-.97.11-1.45,0-2.13-.73-3.78-2-4.52Z" style="fill:#394547;"/></g><g><path d="m122.64,161.93c-.8.46-.8,1.21,0,1.68.8.46,2.09.46,2.89,0,.8-.46.8-1.22,0-1.68-.8-.46-2.1-.46-2.89,0Z" style="opacity:.1;"/><path d="m131.94,156.5c-1.1-.64-2.48-.54-3.89.27-2.18,1.27-4.07,4.09-4.9,7.04.33.11.7.15,1.07.13.76-2.63,2.43-5.12,4.37-6.24.63-.36,1.23-.54,1.78-.54.38,0,.73.09,1.04.27.93.54,1.47,1.85,1.47,3.59,0,.29-.01.57-.05.86l1.02.59c.07-.49.11-.97.11-1.45,0-2.13-.73-3.78-2-4.52Z" style="fill:#394547;"/></g><g><path d="m113.92,156.89c-.8.46-.8,1.21,0,1.68s2.09.46,2.89,0c.8-.46.8-1.22,0-1.68-.8-.46-2.1-.46-2.89,0Z" style="opacity:.1;"/><path d="m123.22,151.47c-1.1-.64-2.48-.54-3.89.27-2.18,1.27-4.07,4.09-4.9,7.04.33.11.7.15,1.07.13.76-2.63,2.43-5.12,4.37-6.24.63-.36,1.23-.54,1.78-.54.38,0,.73.09,1.04.27.93.54,1.47,1.85,1.47,3.59,0,.29-.01.57-.05.86l1.02.59c.07-.49.11-.97.11-1.45,0-2.13-.73-3.78-2-4.52Z" style="fill:#394547;"/></g></g><g><path d="m131.36,229.35c-.1,0-.19-.05-.25-.14-.08-.14-.03-.31.1-.39l48.01-27.72c.13-.08.31-.03.39.1s.03.31-.1.39l-48.01,27.72s-.09.04-.14.04Z" style="fill:#ececec;"/><path d="m125.55,226c-.1,0-.19-.05-.25-.14-.08-.14-.03-.31.1-.39l48.01-27.72c.13-.08.31-.03.39.1s.03.31-.1.39l-48.01,27.72s-.09.04-.14.04Z" style="fill:#ececec;"/><path d="m119.73,222.64c-.1,0-.19-.05-.25-.14-.08-.14-.03-.31.1-.39l48.01-27.72c.13-.08.31-.03.39.1s.03.31-.1.39l-48.01,27.72s-.09.04-.14.04Z" style="fill:#ececec;"/><path d="m113.92,219.28c-.1,0-.19-.05-.25-.14-.08-.14-.03-.31.1-.39l48.01-27.72c.13-.08.31-.03.39.1s.03.31-.1.39l-48.01,27.72s-.09.04-.14.04Z" style="fill:#ececec;"/><path d="m108.1,215.92c-.1,0-.19-.05-.25-.14-.08-.14-.03-.31.1-.39l48.01-27.72c.13-.08.31-.03.39.1s.03.31-.1.39l-48.01,27.72s-.09.04-.14.04Z" style="fill:#ececec;"/><path d="m102.29,212.57c-.1,0-.19-.05-.25-.14-.08-.14-.03-.31.1-.39l48.01-27.72c.13-.08.31-.03.39.1.08.14.03.31-.1.39l-48.01,27.72s-.09.04-.14.04Z" style="fill:#ececec;"/><path d="m96.47,209.21c-.1,0-.19-.05-.25-.14-.08-.14-.03-.31.1-.39l48.01-27.72c.13-.08.31-.03.39.1.08.14.03.31-.1.39l-48.01,27.72s-.09.04-.14.04Z" style="fill:#ececec;"/><path d="m90.66,205.85c-.1,0-.19-.05-.25-.14-.08-.14-.03-.31.1-.39l48.01-27.72c.13-.08.31-.03.39.1.08.14.03.31-.1.39l-48.01,27.72s-.09.04-.14.04Z" style="fill:#ececec;"/><path d="m84.84,202.49c-.1,0-.19-.05-.25-.14-.08-.14-.03-.31.1-.39l48.01-27.72c.13-.08.31-.03.39.1.08.14.03.31-.1.39l-48.01,27.72s-.09.04-.14.04Z" style="fill:#ececec;"/><path d="m79.03,199.14c-.1,0-.19-.05-.25-.14-.08-.14-.03-.31.1-.39l48.01-27.72c.13-.08.31-.03.39.1.08.14.03.31-.1.39l-48.01,27.72s-.09.04-.14.04Z" style="fill:#ececec;"/><path d="m73.21,195.78c-.1,0-.19-.05-.25-.14-.08-.14-.03-.31.1-.39l48.01-27.72c.13-.08.31-.03.39.1.08.14.03.31-.1.39l-48.01,27.72s-.09.04-.14.04Z" style="fill:#ececec;"/><path d="m67.4,192.42c-.1,0-.19-.05-.25-.14-.08-.14-.03-.31.1-.39l48.01-27.72c.13-.08.31-.03.39.1.08.14.03.31-.1.39l-48.01,27.72s-.09.04-.14.04Z" style="fill:#ececec;"/><path d="m61.58,189.06c-.1,0-.19-.05-.25-.14-.08-.14-.03-.31.1-.39l48.01-27.72c.13-.08.31-.03.39.1.08.14.03.31-.1.39l-48.01,27.72s-.09.04-.14.04Z" style="fill:#ececec;"/></g><g><path d="m191.01,208.37c-.05,0-.11-.01-.16-.04l-84.33-48.67c-.15-.09-.2-.28-.12-.43.09-.15.28-.2.43-.11l84.33,48.67c.15.09.2.28.12.43-.06.1-.16.16-.27.16Z" style="fill:#ffc700;"/><path d="m137.27,232.74c-.11,0-.21-.06-.27-.16-.09-.15-.03-.34.11-.43l50.79-29.37c.15-.09.34-.03.43.11.09.15.03.34-.11.43l-50.79,29.37s-.1.04-.16.04Z" style="fill:#ffc700;"/></g><g style="opacity:.25;"><g><path d="m162.65,196.91c-.44-.67-1.26-.94-1.96-1.26-.29-.13-.61-.31-.95-.48-.44-.71-1.03-1.87-.25-2.01.46-.09,1.36.4,1.87.55.28.08.22-.33.02-.41-.86-.34-2.49-1.4-2.84.06-.1.39,0,.86.2,1.34-.43-.17-.86-.27-1.26-.23-.4.04-.75.05-.89.52-.08.26.03.37.05.57.03.3.32.39.41.41-.05,0-.18-.02-.46-.03-.61-.02-2.26-.42-2.64.33-.16.31.2.74.15.86-.02.05-1.2.45-1.41.58-.09.06-.03.38-.08.41-.18.1-1.39-.02-1.75.01-.96.08-3.34-.28-3.03,1.2.03.16.16.14.19.4.02.21.05.31.07.36-.03,0-.1.02-.23.2-.08.11-.41.08-.53.23-.46.57.24.77-.33,1.13-.8.5-2.47-.51-3.28.05-.72.5.22,1.94-1.06,1.96-.28,0-.12.42.1.44,1.2.1,1.07-.12,1.3-1.1.37-1.59,2.75-.5,4.09-.86.15-.04.17-.23.1-.35-.35-.57.06-.88.59-1.12.15-.07.17-.21.1-.35-.14-.26-.65-1.05-.34-1.43.07-.09,1.25-.16,1.42-.17,1.03-.06,2.07-.11,3.11-.05.14,0,.26-.16.2-.29-.15-.33,1.19-.55,1.49-.61.12-.03.17-.18.13-.28-.64-1.59,1.72-1.01,2.7-.85.19.03.33-.12.27-.3-.15-.54-1.34-1.08.07-1.27.28-.04.66.08,1.08.26.65,1.09,1.73,2.15,2.46,2.53.93.49,1.87.16,1.16-.92Zm-.43.29c.29.39-.63.07-.74.02-.54-.24-.91-.84-1.23-1.31.29.16.54.3.73.39.51.23.9.44,1.25.9Z" style="fill:#375a64;"/><path d="m138.64,207.03c-.18-.69-.2-1.45.45-1.54.31-.04.09-.46-.14-.47-.87-.03-1.14.73-1.03,1.63-.4-.18-.78-.31-1.08-.37-.56-.11-.93-.12-1.12.45-.11.34.16.57.14.88-.03.45.42.27-.26.45-.17.05-.59-.07-.79-.08-.69-.03-.75.01-1.17.36-.43.36.63.53-.62.33-.32-.05-.65-.21-.98-.14-.46.1-.7.24-.63.75.03.23.53.53.53.68-.03,1.1-1.2.17-1.65,0-.13-.05-.28.03-.28.17-.02.55.36.74-.43.79-.1,0-.64-.3-.82-.3-.51-.01-.98.67-1.65.61-.18-.02-.24.15-.19.3.18.5.45.8-.55,1.23-.02,0-1.18-.15-1.16-.15-.29,0-.1.47.12.48.46.03,2.01.69,2.47.07.34-.46-.33-.99-.16-1.28-.11.19.88-.27.99-.31.16-.06.57-.22.78-.21.14,0,.26.23.4.22.19,0,.4.09.58-.01.13-.08.22-.32.29-.37.18-.12-.23-.26.12-.38.25-.09.47.17.71.24.37.12.94.4,1.26,0,.42-.52-.35-.89-.28-1.24.16-.79,1.28-.19,1.8-.54.08-.05.1-.15.07-.24-.32-1.09,1.65-.24,2.28-.35.11-.02.23-.09.21-.23-.01-.1-.25-.67-.24-.68.16-.65,1.05-.58,1.47-.47.4,1.32,1.45,2.66,2.59,2.3.08-.03.15-.11.14-.2-.08-.88-1.1-1.78-2.16-2.4Zm.41,1.09c-.04-.07-.09-.18-.15-.31.38.28.74.62.8.79.22.66-.55-.3-.65-.48Z" style="fill:#375a64;"/></g><g><path d="m156.08,214.12c-.44-.67-1.26-.94-1.96-1.26-.29-.13-.61-.31-.95-.48-.44-.71-1.03-1.87-.25-2.01.46-.09,1.36.4,1.87.55.28.08.22-.33.02-.41-.86-.34-2.49-1.4-2.84.06-.1.39,0,.86.2,1.34-.43-.17-.86-.27-1.26-.23-.4.04-.75.05-.89.52-.08.26.03.37.05.57.03.3.32.39.41.41-.05,0-.18-.02-.46-.03-.61-.02-2.26-.42-2.64.33-.16.31.2.74.15.86-.02.05-1.2.45-1.41.58-.09.06-.03.38-.08.41-.18.1-1.39-.02-1.75.01-.96.08-3.34-.28-3.03,1.2.03.16.16.14.19.4.02.21.05.31.07.36-.03,0-.1.02-.23.2-.08.11-.41.08-.53.23-.46.57.24.77-.33,1.13-.8.5-2.47-.51-3.28.05-.72.5.22,1.94-1.06,1.96-.28,0-.12.42.1.44,1.2.1,1.07-.12,1.3-1.1.37-1.59,2.75-.5,4.09-.86.15-.04.17-.23.1-.35-.35-.57.06-.88.59-1.12.15-.07.17-.21.1-.35-.14-.26-.65-1.05-.34-1.43.07-.09,1.25-.16,1.42-.17,1.03-.06,2.07-.11,3.11-.05.14,0,.26-.16.2-.29-.15-.33,1.19-.55,1.49-.61.12-.03.17-.18.13-.28-.64-1.59,1.72-1.01,2.7-.85.19.03.33-.12.27-.3-.15-.54-1.34-1.08.07-1.27.28-.04.66.08,1.08.26.65,1.09,1.73,2.15,2.46,2.53.93.49,1.87.16,1.16-.92Zm-.43.29c.29.39-.63.07-.74.02-.54-.24-.91-.84-1.23-1.31.29.16.54.3.73.39.51.23.9.44,1.25.9Z" style="fill:#375a64;"/><path d="m170.84,201.92c-.18-.69-.2-1.45.45-1.54.31-.04.09-.46-.14-.47-.87-.03-1.14.73-1.03,1.63-.4-.18-.78-.31-1.08-.37-.56-.11-.93-.12-1.12.45-.11.34.16.57.14.88-.03.45.42.27-.26.45-.17.05-.59-.07-.79-.08-.69-.03-.75.01-1.17.36-.43.36.63.53-.62.33-.32-.05-.65-.21-.98-.14-.46.1-.7.24-.63.75.03.23.53.53.53.68-.03,1.1-1.2.17-1.65,0-.13-.05-.28.03-.28.17-.02.55.36.74-.43.79-.1,0-.64-.3-.82-.3-.51-.01-.98.67-1.64.61-.18-.02-.24.15-.19.3.18.5.45.8-.55,1.23-.02,0-1.18-.15-1.16-.15-.29,0-.1.47.12.48.46.03,2.01.69,2.47.07.34-.46-.33-.99-.16-1.28-.11.19.88-.27.99-.31.16-.06.57-.22.78-.21.14,0,.26.23.4.22.19,0,.4.09.58-.01.13-.08.22-.32.29-.37.18-.12-.23-.26.12-.38.25-.09.47.17.71.24.37.12.94.4,1.26,0,.42-.52-.35-.89-.28-1.24.16-.79,1.28-.19,1.8-.54.08-.05.1-.15.07-.24-.32-1.09,1.65-.24,2.28-.35.11-.02.23-.09.21-.23-.01-.1-.25-.67-.24-.68.16-.65,1.05-.58,1.47-.47.4,1.32,1.45,2.66,2.59,2.3.08-.03.15-.11.14-.2-.08-.88-1.1-1.78-2.16-2.4Zm.41,1.09c-.04-.07-.09-.18-.15-.31.38.28.74.62.8.79.22.66-.55-.3-.65-.48Z" style="fill:#375a64;"/></g><g><path d="m127.18,177.31c-.44-.67-1.26-.94-1.96-1.26-.29-.13-.61-.31-.95-.48-.44-.71-1.03-1.87-.25-2.01.46-.09,1.36.4,1.87.55.28.08.22-.33.02-.41-.86-.34-2.49-1.4-2.84.06-.1.39,0,.86.2,1.34-.43-.17-.86-.27-1.26-.23-.4.04-.75.05-.89.52-.08.26.03.37.05.57.03.3.32.39.41.41-.05,0-.18-.02-.46-.03-.61-.02-2.26-.42-2.64.33-.16.31.2.74.15.86-.02.05-1.2.45-1.41.58-.09.06-.03.38-.08.41-.18.1-1.39-.02-1.75.01-.96.08-3.34-.28-3.03,1.2.03.16.16.14.19.4.02.21.05.31.07.36-.03,0-.1.02-.23.2-.08.11-.41.08-.53.23-.46.57.24.77-.33,1.13-.8.5-2.47-.51-3.28.05-.72.5.22,1.94-1.06,1.96-.28,0-.12.42.1.44,1.2.1,1.07-.12,1.3-1.1.37-1.59,2.75-.5,4.09-.86.15-.04.17-.23.1-.35-.35-.57.06-.88.59-1.12.15-.07.17-.21.1-.35-.14-.26-.65-1.05-.34-1.43.07-.09,1.25-.16,1.42-.17,1.03-.06,2.07-.11,3.11-.05.14,0,.26-.16.2-.29-.15-.33,1.19-.55,1.49-.61.12-.03.17-.18.13-.28-.64-1.59,1.72-1.01,2.7-.85.19.03.33-.12.27-.3-.15-.54-1.34-1.08.07-1.27.28-.04.66.08,1.08.26.65,1.09,1.73,2.15,2.46,2.53.93.49,1.87.16,1.16-.92Zm-.43.29c.29.39-.63.07-.74.02-.54-.24-.91-.84-1.23-1.31.29.16.54.3.73.39.51.23.9.44,1.25.9Z" style="fill:#375a64;"/><path d="m103.17,187.42c-.18-.69-.2-1.45.45-1.54.31-.04.09-.46-.14-.47-.87-.03-1.14.73-1.03,1.63-.4-.18-.78-.31-1.08-.37-.56-.11-.93-.12-1.12.45-.11.34.16.57.14.88-.03.45.42.27-.26.45-.17.05-.59-.07-.79-.08-.69-.03-.75.01-1.17.36-.43.36.63.53-.62.33-.32-.05-.65-.21-.98-.14-.46.1-.7.24-.63.75.03.23.53.53.53.68-.03,1.1-1.2.17-1.65,0-.13-.05-.28.03-.28.17-.02.55.36.74-.43.79-.1,0-.64-.3-.82-.3-.51-.01-.98.67-1.64.61-.18-.02-.24.15-.19.3.18.5.45.8-.55,1.23-.02,0-1.18-.15-1.16-.15-.29,0-.1.47.12.48.46.03,2.01.69,2.47.07.34-.46-.33-.99-.16-1.28-.11.19.88-.27.99-.31.16-.06.57-.22.78-.21.14,0,.26.23.4.22.19,0,.4.09.58-.01.13-.08.22-.32.29-.37.18-.12-.23-.26.12-.38.25-.09.47.17.71.24.37.12.94.4,1.26,0,.42-.52-.35-.89-.28-1.24.16-.79,1.28-.19,1.8-.54.08-.05.1-.15.07-.24-.32-1.09,1.65-.24,2.28-.35.11-.02.23-.09.21-.23-.01-.1-.25-.67-.24-.68.16-.65,1.05-.58,1.47-.47.4,1.32,1.45,2.66,2.59,2.3.08-.03.15-.11.14-.2-.08-.88-1.1-1.78-2.16-2.4Zm.41,1.09c-.04-.07-.09-.18-.15-.31.38.28.74.62.8.79.22.66-.55-.3-.65-.48Z" style="fill:#375a64;"/></g><g><path d="m120.62,194.51c-.44-.67-1.26-.94-1.96-1.26-.29-.13-.61-.31-.95-.48-.44-.71-1.03-1.87-.25-2.01.46-.09,1.36.4,1.87.55.28.08.22-.33.02-.41-.86-.34-2.49-1.4-2.84.06-.1.39,0,.86.2,1.34-.43-.17-.86-.27-1.26-.23-.4.04-.75.05-.89.52-.08.26.03.37.05.57.03.3.32.39.41.41-.05,0-.18-.02-.46-.03-.61-.02-2.26-.42-2.64.33-.16.31.2.74.15.86-.02.05-1.2.45-1.41.58-.09.06-.03.38-.08.41-.18.1-1.39-.02-1.75.01-.96.08-3.34-.28-3.03,1.2.03.16.16.14.19.4.02.21.05.31.07.36-.03,0-.1.02-.23.2-.08.11-.41.08-.53.23-.46.57.24.77-.33,1.13-.8.5-2.47-.51-3.28.05-.72.5.22,1.94-1.06,1.96-.28,0-.12.42.1.44,1.2.1,1.07-.12,1.3-1.1.37-1.59,2.75-.5,4.09-.86.15-.04.17-.23.1-.35-.35-.57.06-.88.59-1.12.15-.07.17-.21.1-.35-.14-.26-.65-1.05-.34-1.43.07-.09,1.25-.16,1.42-.17,1.03-.06,2.07-.11,3.11-.05.14,0,.26-.16.2-.29-.15-.33,1.19-.55,1.49-.61.12-.03.17-.18.13-.28-.64-1.59,1.72-1.01,2.7-.85.19.03.33-.12.27-.3-.15-.54-1.34-1.08.07-1.27.28-.04.66.08,1.08.26.65,1.09,1.73,2.15,2.46,2.53.93.49,1.87.16,1.16-.92Zm-.43.29c.29.39-.63.07-.74.02-.54-.24-.91-.84-1.23-1.31.29.16.54.3.73.39.51.23.9.44,1.25.9Z" style="fill:#375a64;"/><path d="m135.38,182.31c-.18-.69-.2-1.45.45-1.54.31-.04.09-.46-.14-.47-.87-.03-1.14.73-1.03,1.63-.4-.18-.78-.31-1.08-.37-.56-.11-.93-.12-1.12.45-.11.34.16.57.14.88-.03.45.42.27-.26.45-.17.05-.59-.07-.79-.08-.69-.03-.75.01-1.17.36-.43.36.63.53-.62.33-.32-.05-.65-.21-.98-.14-.46.1-.7.24-.63.75.03.23.53.53.53.68-.03,1.1-1.2.17-1.65,0-.13-.05-.28.03-.28.17-.02.55.36.74-.43.79-.1,0-.64-.3-.82-.3-.51-.01-.98.67-1.64.61-.18-.02-.24.15-.19.3.18.5.45.8-.55,1.23-.02,0-1.18-.15-1.16-.15-.29,0-.1.47.12.48.46.03,2.01.69,2.47.07.34-.46-.33-.99-.16-1.28-.11.19.88-.27.99-.31.16-.06.57-.22.78-.21.14,0,.26.23.4.22.19,0,.4.09.58-.01.13-.08.22-.32.29-.37.18-.12-.23-.26.12-.38.25-.09.47.17.7.24.37.12.94.4,1.26,0,.42-.52-.35-.89-.28-1.24.16-.79,1.28-.19,1.8-.54.08-.05.1-.15.07-.24-.32-1.09,1.65-.24,2.28-.35.11-.02.23-.09.21-.23-.01-.1-.25-.67-.24-.68.16-.65,1.05-.58,1.47-.47.4,1.32,1.45,2.66,2.59,2.3.08-.03.15-.11.14-.2-.08-.88-1.1-1.78-2.16-2.4Zm.41,1.09c-.04-.07-.09-.18-.15-.31.38.28.74.62.8.79.22.66-.55-.3-.65-.48Z" style="fill:#375a64;"/></g><g><path d="m124.26,206.35c-.44-.67-1.26-.94-1.96-1.26-.29-.13-.61-.31-.95-.48-.44-.71-1.03-1.87-.25-2.01.46-.09,1.36.4,1.87.55.28.08.22-.33.02-.41-.86-.34-2.49-1.4-2.84.06-.1.39,0,.86.2,1.34-.43-.17-.86-.27-1.26-.23-.4.04-.75.05-.89.52-.08.26.03.37.05.57.03.3.32.39.41.41-.05,0-.18-.02-.46-.03-.61-.02-2.26-.42-2.64.33-.16.31.2.74.15.86-.02.05-1.2.45-1.41.58-.09.06-.03.38-.08.41-.18.1-1.39-.02-1.75.01-.96.08-3.34-.28-3.03,1.2.03.16.16.14.19.4.02.21.05.31.07.36-.03,0-.1.02-.23.2-.08.11-.41.08-.53.23-.46.57.24.77-.33,1.13-.8.5-2.47-.51-3.28.05-.72.5.22,1.94-1.06,1.96-.28,0-.12.42.1.44,1.2.1,1.07-.12,1.3-1.1.37-1.59,2.75-.5,4.09-.86.15-.04.17-.23.1-.35-.35-.57.06-.88.59-1.12.15-.07.17-.21.1-.35-.14-.26-.65-1.05-.34-1.43.07-.09,1.25-.16,1.42-.17,1.03-.06,2.07-.11,3.11-.05.14,0,.26-.16.2-.29-.15-.33,1.19-.55,1.49-.61.12-.03.17-.18.13-.28-.64-1.59,1.72-1.01,2.7-.85.19.03.33-.12.27-.3-.15-.54-1.34-1.08.07-1.27.28-.04.66.08,1.08.26.65,1.09,1.73,2.15,2.46,2.53.93.49,1.87.16,1.16-.92Zm-.43.29c.29.39-.63.07-.74.02-.54-.24-.91-.84-1.23-1.31.29.16.54.3.73.39.51.23.9.44,1.25.9Z" style="fill:#375a64;"/><path d="m135.95,195.23c-.18-.69-.2-1.45.45-1.54.31-.04.09-.46-.14-.47-.87-.03-1.14.73-1.03,1.63-.4-.18-.78-.31-1.08-.37-.56-.11-.93-.12-1.12.45-.11.34.16.57.14.88-.03.45.42.27-.26.45-.17.05-.59-.07-.79-.08-.69-.03-.75.01-1.17.36-.43.36.63.53-.62.33-.32-.05-.65-.21-.98-.14-.46.1-.7.24-.63.75.03.23.53.53.53.68-.03,1.1-1.2.17-1.65,0-.13-.05-.28.03-.28.17-.02.55.36.74-.43.79-.1,0-.64-.3-.82-.3-.51-.01-.98.67-1.64.61-.18-.02-.24.15-.19.3.18.5.45.8-.55,1.23-.02,0-1.18-.15-1.16-.15-.29,0-.1.47.12.48.46.03,2.01.69,2.47.07.34-.46-.33-.99-.16-1.28-.11.19.88-.27.99-.31.16-.06.57-.22.78-.21.14,0,.26.23.4.22.19,0,.4.09.58-.01.13-.08.22-.32.29-.37.18-.12-.23-.26.12-.38.25-.09.47.17.71.24.37.12.94.4,1.26,0,.42-.52-.35-.89-.28-1.24.16-.79,1.28-.19,1.8-.54.08-.05.1-.15.07-.24-.32-1.09,1.65-.24,2.28-.35.11-.02.23-.09.21-.23-.01-.1-.25-.67-.24-.68.16-.65,1.05-.58,1.47-.47.4,1.32,1.45,2.66,2.59,2.3.08-.03.15-.11.14-.2-.08-.88-1.1-1.78-2.16-2.4Zm.41,1.09c-.04-.07-.09-.18-.15-.31.38.28.74.62.8.79.22.66-.55-.3-.65-.48Z" style="fill:#375a64;"/><path d="m149.34,186.22c.01-.09.02-.18,0-.26-.19-.68-.97-.17-1.1.24-.11.34.16.57.14.88-.03.45.42.27-.26.45-.17.05-.59-.07-.79-.08-.69-.03-.75.01-1.17.36-.43.36.63.53-.62.33-.32-.05-.65-.21-.98-.14-.46.1-.7.24-.63.75.03.23.53.53.53.68-.03,1.1-1.2.17-1.65,0-.13-.05-.28.03-.28.17-.02.55.36.74-.43.79-.1,0-.64-.3-.82-.3-.51-.01-.98.67-1.65.61-.18-.02-.24.15-.19.3.18.5.45.8-.55,1.23-.02,0-1.18-.15-1.16-.15-.29,0-.1.47.12.48.46.03,2.01.69,2.47.07.34-.46-.33-.99-.16-1.28-.11.19.88-.27.99-.31.16-.06.57-.22.78-.21.14,0,.26.23.4.22.19,0,.4.09.58-.01.13-.08.22-.32.29-.37.18-.12-.23-.26.12-.38.25-.09.47.17.7.24.37.12.94.4,1.26,0,.42-.52-.35-.89-.28-1.24.16-.79,1.28-.19,1.8-.54.08-.05.1-.15.07-.24-.32-1.09,1.65-.24,2.28-.35.11-.02.23-.09.21-.23-.06-.51-.23-.86-.09-1.4.03-.1.06-.21.08-.32Z" style="fill:#375a64;"/></g></g></g></g><g><g><path d="m146.41,107.77c-.74-.48-1.57-.84-2.47-.71-.98.14-1.79.88-2.3,1.7-.42.66-.54,1.46-.18,2.18.32.64.92,1.09,1.49,1.5,1.07.77,2.36,1.5,3.13,2.6.4.57.54,1.16.31,1.83-.2.56-.6,1.01-1.11,1.31-.99.56-2.5.53-3.11-.56-.41-.74-1.55-.08-1.13.66,1.44,2.55,5.41,1.73,6.48-.7.72-1.63,0-3.13-1.23-4.26-.53-.48-1.12-.89-1.7-1.32-.54-.39-1.13-.74-1.61-1.21-.65-.64-.39-1.24.2-1.85.82-.84,1.68-.6,2.57-.02.71.46,1.37-.67.66-1.13h0Z" style="fill:#6a6a6a;"/><path d="m148.94,108.58c-.02,1.76.12,3.52.39,5.25.26,1.66.63,3.42,1.51,4.88.44.72,1.57.06,1.13-.66-.82-1.36-1.14-3.02-1.38-4.57s-.36-3.27-.34-4.91c.01-.84-1.3-.84-1.31,0h0Z" style="fill:#6a6a6a;"/><path d="m153.22,111.07c.03,2.38-.19,4.85.45,7.18.2.73,1.25.55,1.29-.17.09-1.56,0-3.16.28-4.7s1.1-2.88,2.43-3.81h-.66c.12.09.3.32.41.51.15.27.26.56.35.85.22.74.33,1.52.4,2.29.13,1.52.1,3.05.12,4.57.01.84,1.32.85,1.31,0-.02-1.68.02-3.36-.17-5.03-.17-1.52-.44-3.37-1.77-4.33-.17-.13-.49-.12-.66,0-1.53,1.07-2.59,2.53-2.99,4.37-.38,1.73-.28,3.52-.38,5.27l1.29-.17c-.61-2.21-.38-4.56-.41-6.83-.01-.84-1.32-.85-1.31,0h0Z" style="fill:#6a6a6a;"/><path d="m161.25,117.31c.85-2.95.62-6.02,1.02-9.04l-.99.57c1.15.49,1.79,2.12,2.24,3.23.56,1.39.99,2.83,1.44,4.26.25.8,1.52.46,1.27-.35-.48-1.55-.95-3.11-1.58-4.61-.55-1.3-1.3-3.08-2.7-3.67-.49-.21-.92.04-.99.57-.39,2.89-.16,5.86-.98,8.69-.24.81,1.03,1.16,1.27.35h0Z" style="fill:#6a6a6a;"/><path d="m162.08,114.27c-.4.06-.8.13-1.21.19-.15.02-.33.17-.39.3s-.1.27-.08.42c.04.3.32.6.64.57,1.09-.09,2.26-.34,3.19-.93.29-.18.43-.59.24-.9-.19-.29-.59-.43-.9-.24-.09.06-.18.11-.28.16-.05.03-.1.05-.15.07-.03.01-.05.02-.08.04-.08.04,0,0,.04-.01-.24.07-.47.18-.71.24s-.49.12-.74.17c-.06.01-.12.02-.18.03-.03,0-.06,0-.09.01-.02,0-.13.02-.03,0s0,0-.02,0c-.03,0-.06,0-.09.01-.07,0-.13.01-.2.02l.17,1.29c.4-.06.8-.13,1.21-.19.34-.05.56-.5.46-.81-.12-.37-.44-.52-.81-.46h0Z" style="fill:#6a6a6a;"/><path d="m154.75,100.75s0-.06,0-.1c0-.16-.02.1,0,0,.02-.07.03-.14.05-.2.02-.05.09-.21.02-.06.03-.07.07-.13.11-.2.03-.05.07-.1.1-.15-.11.15.03-.03.06-.05.05-.05.1-.09.15-.14.02-.02.1-.07-.03.02.04-.03.07-.05.11-.08.05-.03.1-.06.15-.09.03-.02.21-.11.12-.06s.08-.03.11-.04c.07-.02.14-.04.21-.06.03,0,.07-.01.11-.02-.02,0-.16,0-.05,0,.06,0,.11,0,.17,0,.06,0,.13.01.19,0,.08,0-.13-.04-.05,0,.03.02.08.02.12.03.05.01.23.09.05,0,.05.02.1.05.14.07.07.04.13.11.03.01.05.05.1.1.15.15.1.1-.06-.09-.01-.01.02.03.03.05.05.08.02.04.1.24.05.08.02.06.04.13.06.19.01.05.05.3.04.16.08.85-.2,1.68-.59,2.48-.48,1-1.11,1.93-1.74,2.85-.22.32-.01.9.39.96,1.41.22,2.77-.19,4.15-.41.35-.06.54-.49.46-.81-.1-.37-.46-.51-.81-.46-1.11.18-2.32.59-3.45.41l.39.96c.64-.92,1.28-1.87,1.76-2.89s.9-2.2.71-3.36c-.12-.79-.63-1.47-1.41-1.71-.68-.21-1.45-.06-2.06.3-.77.46-1.27,1.24-1.31,2.14-.01.35.31.66.66.66.37,0,.64-.3.66-.66h0Z" style="fill:#6a6a6a;"/><path d="m169.94,111.2l4.61-.72c.35-.05.54-.49.46-.81-.1-.37-.46-.51-.81-.46l-4.61.72c-.35.05-.54.49-.46.81.1.37.46.51.81.46h0Z" style="fill:#6a6a6a;"/><path d="m171.1,107.49c.12,2.48.2,4.97.48,7.44.04.35.27.66.66.66.32,0,.7-.3.66-.66-.28-2.47-.35-4.96-.48-7.44-.04-.84-1.35-.85-1.31,0h0Z" style="fill:#6a6a6a;"/><path d="m185.86,104.99c-.02-.92-.29-1.91-.99-2.55-.67-.6-1.58-.73-2.41-.39-1.53.62-2.19,2.47-2.5,3.96-.27,1.3-.22,2.51.11,3.8.32,1.26.83,2.64,1.78,3.57.47.46,1.09.8,1.76.76.81-.04,1.48-.57,1.99-1.16.55-.64-.38-1.57-.93-.93-.29.34-.65.72-1.09.78-.07,0-.19,0-.34-.06-.04-.01-.27-.15-.34-.21-.74-.62-1.13-1.66-1.41-2.56s-.48-1.81-.4-2.73c.09-1.13.42-2.44,1.1-3.36.32-.43.86-.86,1.43-.71.72.19.92,1.15.93,1.79.02.84,1.33.85,1.31,0h0Z" style="fill:#6a6a6a;"/><path d="m189.99,104.02c-.92,1.48-1.67,3.18-2.01,4.89-.32,1.64-.15,3.68,1.76,4.19,1.64.43,3.41-.25,3.95-1.92.47-1.44.06-3.11-.55-4.44-.47-1.02-1.75-2.88-3.09-1.93-.68.48-.03,1.62.66,1.13.03-.02.07-.05.11-.07.02,0-.14.05-.01.01.09-.03-.17,0-.03,0s0,0,0,0c.04,0,.08.02.12.03.1.04-.12-.07-.02,0,.04.02.08.05.12.07.02.01.05.03.07.05.07.05-.1-.08-.03-.02.08.07.16.14.24.22.04.04.08.09.12.13.02.02.03.04.05.06.05.06-.06-.09.01.02.16.22.3.45.43.7.27.51.45,1.04.59,1.69.07.35.09.44.11.81,0,.15,0,.3,0,.45,0,.07,0,.14-.02.22-.01.15.01-.02-.02.13-.02.13-.05.25-.09.37-.02.06-.04.13-.07.19-.04.09.04-.09,0,0-.02.03-.03.07-.05.1-.04.08-.18.29-.17.28,0,0-.18.19-.26.25.09-.07-.17.1-.23.13-.13.07,0,0-.1.04-.08.03-.16.05-.25.07-.19.05-.19.04-.39.06-.19.01-.41,0-.58-.01-.29-.04-.55-.13-.72-.26.03.02-.09-.08-.12-.11-.03-.03-.06-.06-.08-.09,0,0,.05.08.01.01-.04-.06-.07-.12-.11-.18-.02-.03-.03-.05-.04-.08-.03-.06.02.07-.02-.04-.19-.56-.15-1.22-.04-1.83.31-1.62,1.01-3.21,1.88-4.61.45-.72-.69-1.38-1.13-.66h0Z" style="fill:#6a6a6a;"/><path d="m198.23,103.95c-.93-.73-2.55-.44-3.49.13-.56.34-1,.9-1,1.57s.46,1.14.98,1.46,1.13.53,1.7.73c.13.04.25.09.38.13.06.02.12.04.17.07.02,0,.2.08.06.02.22.1.43.22.65.34.53.3,1.1.62,1.47,1.11.12.15.18.31.16.47.01-.12-.03.09-.04.1.05-.13-.02.03-.03.05-.1.16.09-.09-.04.05-.05.06-.11.12-.17.16.11-.08-.06.03-.07.04-.08.04-.15.08-.23.12.11-.05-.09.03-.09.03-.09.03-.18.06-.26.08-.34.09-.52.11-.89.12-.16,0-.32,0-.48-.02,0,0-.22-.02-.09,0-.08-.01-.16-.03-.24-.04-.13-.03-.25-.06-.37-.11.15.06-.1-.06-.15-.1-.28-.21-.73-.04-.9.24-.2.34-.05.68.24.9.41.31,1.01.4,1.51.44.61.05,1.26,0,1.85-.19s1.19-.51,1.51-1.06c.35-.6.31-1.33-.07-1.91s-.99-1.03-1.59-1.4c-.47-.29-.94-.55-1.45-.74s-1.07-.36-1.47-.55c-.12-.06-.24-.12-.36-.19-.05-.03-.11-.07-.16-.1-.16-.11.08.08-.06-.05-.04-.04-.08-.08-.12-.12-.12-.13.06.11-.02-.04s.05.13-.02-.03c-.02-.07-.02-.06,0,.02,0-.03,0-.07,0-.11-.05.17,0-.03.02-.05.03-.07.03-.07,0,0,.02-.04.04-.07.06-.1.12-.15-.09.08.05-.06.02-.02.19-.16.11-.1.27-.2.46-.26.8-.34.32-.08.5-.1.86-.09.06,0,.12,0,.18.01-.15-.02.07.01.1.02.05.01.09.03.14.04-.21-.07.12.1-.07-.05.28.22.66.27.93,0,.23-.23.28-.71,0-.93h0Z" style="fill:#6a6a6a;"/><path d="m202.92,110.8c.29-1.68,1.18-3.17,1.55-4.83.34-1.54.4-3.19,1.06-4.64h-1.13c1.34,2.64,2.62,5.31,3.7,8.07.31.78,1.57.44,1.27-.35-1.12-2.86-2.44-5.64-3.84-8.38-.21-.41-.93-.44-1.13,0-.69,1.53-.82,3.17-1.16,4.8-.36,1.71-1.28,3.26-1.58,4.98-.14.83,1.12,1.18,1.27.35h0Z" style="fill:#6a6a6a;"/><path d="m204.25,108.57s.09-.05.14-.07c.1-.05,0,0-.04.02.02,0,.05-.02.07-.03.12-.04.24-.08.36-.11.29-.08.58-.14.87-.19.59-.1,1.18-.17,1.76-.27.34-.05.56-.5.46-.81-.12-.37-.44-.52-.81-.46-.6.1-1.21.17-1.81.27-.57.1-1.15.22-1.66.51-.3.17-.42.6-.24.9s.58.41.9.24h0Z" style="fill:#6a6a6a;"/><path d="m197.69,94.41c.02-.09.04-.17.07-.26.01-.04.03-.08.04-.12,0,.01-.04.09,0,.02s.07-.13.11-.2c.01-.02.03-.05.04-.07-.09.12,0,0,.03-.03.04-.04.08-.08.12-.12.07-.06-.1.06-.02.02.02-.01.04-.03.06-.04.06-.03.18-.07.04-.03.06-.02.13-.03.19-.05.08-.03-.13,0-.05,0,.02,0,.04,0,.06,0,.06,0,.11,0,.17,0-.14,0-.04,0,.04.02.02,0,.04.02.06.02.07.02-.11-.07-.02,0,.05.03.1.06.15.09.09.05-.07-.08.03.02.04.05.09.09.13.14.05.05-.03-.03-.03-.04.03.04.06.08.08.13.1.17.16.4.16.64,0,.37-.06.66-.2,1.04-.28.73-.87,1.41-1.42,2-.66.7-1.37,1.36-1.94,2.14-.3.4.1,1,.57.99,1.8-.05,3.62,0,5.39-.41.82-.19.47-1.46-.35-1.27-1.65.38-3.36.32-5.04.37.19.33.38.66.57.99.13-.18-.04.04.04-.06.03-.04.06-.07.09-.11.07-.09.14-.17.22-.25.17-.19.34-.37.51-.55.35-.36.71-.72,1.05-1.09.71-.78,1.39-1.66,1.68-2.69.23-.83.23-1.81-.29-2.53-.45-.63-1.18-.98-1.96-.85-.89.15-1.47.95-1.66,1.79s1.08,1.17,1.27.35h0Z" style="fill:#6a6a6a;"/><path d="m211.96,103.65c1.04-.16,2.09-.33,3.13-.49.34-.05.56-.5.46-.81-.12-.37-.44-.52-.81-.46-1.04.16-2.09.33-3.13.49-.34.05-.56.5-.46.81.12.37.44.52.81.46h0Z" style="fill:#6a6a6a;"/><path d="m211.35,105.25c.39.49,1.12.52,1.7.47s1.15-.19,1.73-.15c.34.02.67-.32.66-.66-.02-.38-.29-.63-.66-.66-.54-.04-1.07.08-1.61.13-.25.03-.49.02-.74.02-.08,0,.17.03.06,0-.03,0-.05,0-.08-.02-.03,0-.2-.07-.08-.02.14.06-.12-.1,0,0,.1.08-.03-.04-.05-.07-.21-.27-.71-.24-.93,0-.26.29-.23.64,0,.93h0Z" style="fill:#6a6a6a;"/><path d="m220.05,102.54c1.31-.85,2.44-1.93,3.57-3l-1.12-.46c.08,1.43-.05,2.86-.08,4.29-.03,1.37-.02,2.81.44,4.12.28.79,1.55.45,1.27-.35-.44-1.24-.43-2.6-.39-3.9.04-1.39.16-2.77.08-4.16-.03-.57-.69-.87-1.12-.46-1.05.99-2.09,2-3.31,2.79-.71.46-.05,1.59.66,1.13h0Z" style="fill:#6a6a6a;"/></g><g><path d="m161.31,68.75c-.09-2.17.17-4.32.18-6.49,0-.56-.07-1.34.29-1.82s1.24-.58,1.79-.61c.2-.01.49,0,.58.01.1.02.2.04.3.08-.12-.05.11.06.15.09-.05-.03,0-.01.07.07-.1-.15.03.06.05.1-.07-.17.02.06.03.11.03.17.02-.06.01.11,0,.04-.02.31,0,.13-.01.09-.03.18-.06.26-.07.26-.05.21-.17.44-.21.4-.35.58-.69.88-.62.56-1.43.78-2.17.37s-1.4.73-.66,1.13c2.14,1.17,4.82-.65,5.04-2.96.11-1.09-.62-1.94-1.69-2.1-1.6-.24-3.71.35-4.07,2.12-.22,1.1-.12,2.28-.18,3.4-.09,1.56-.19,3.12-.12,4.68.04.84,1.35.85,1.31,0h0Z" style="fill:#6a6a6a;"/><path d="m166.9,61.15c.06,1.26.79,2.33,1.33,3.43.57,1.13.75,2.42,1.3,3.56.22.45.91.41,1.13,0,.59-1.07.85-2.26,1.06-3.45s.37-2.33.88-3.37c.16-.32.09-.71-.24-.9-.29-.17-.74-.08-.9.24-.54,1.1-.77,2.28-.97,3.47s-.4,2.33-.97,3.36h1.13c-.52-1.08-.7-2.29-1.21-3.37-.44-.93-1.2-1.89-1.25-2.95-.04-.84-1.35-.85-1.31,0h0Z" style="fill:#6a6a6a;"/><path d="m174.98,63.88c.75.02,1.51-.14,2.25-.25.06,0,.07,0,0,0,.05,0,.1-.01.15-.02.09-.01.17-.02.26-.03.17-.02.35-.03.53-.03.09,0,.17,0,.26,0,.04,0,.08,0,.12,0,.1,0-.01-.02-.04,0,.04-.02.17.03.21.04.03,0,.05.02.08.02.13.03-.13-.06-.01,0,.31.15.72.09.9-.24.16-.3.09-.74-.24-.9-.69-.34-1.48-.27-2.22-.17-.43.06-.85.12-1.28.18-.08.01.1-.01-.03,0-.05,0-.09.01-.14.02-.09.01-.18.02-.28.03-.18.01-.35.02-.53.02-.34,0-.67.31-.66.66s.29.65.66.66h0Z" style="fill:#6a6a6a;"/><path d="m176.71,64.49c-.5.1-.8.5-.83.99-.02.31.22.53.48.63.99.37,2.08.19,3.11.18.34,0,.67-.3.66-.66s-.29-.66-.66-.66c-.49,0-.99.04-1.48.04-.12,0-.23,0-.35,0s-.28.01-.39-.03c.1.01.11.01.03,0h-.05c-.06-.02-.12-.03-.18-.04-.12-.03-.23-.06-.35-.11l.48.63c-.02.11-.02.14-.01.09.01-.05,0-.02-.04.08.05-.09-.07.07-.09.09-.05.03-.06.04-.03.02.04-.03.02-.02-.08.03.03,0,.09-.02.12-.03.34-.06.56-.49.46-.81-.12-.36-.45-.53-.81-.46h0Z" style="fill:#6a6a6a;"/><path d="m187.45,54.42c.21,2.22.56,4.42.91,6.63.09.56.95.63,1.2.16.31-.6.46-1.3.66-1.94.25-.82.51-1.66.92-2.42.19-.35.32-.58.6-.81-.1.08.07-.04.1-.06.1-.05-.08.01.07-.02.16-.04-.06-.01.06,0s.01,0-.01,0c.04,0,.1.03.14.04.02,0-.03,0-.03-.02,0,0,.07.11.03.03-.03-.07,0,.01.01.03.08.13.03.04.07.13.04.1.07.21.09.31.1.41.12.83.13,1.26.02.93-.02,1.88-.22,2.72l1.29.17c.12-.96.29-2.03.58-3.02.15-.51.33-1.01.62-1.46.23-.37.49-.61.84-.7l-.74-.3c1.12,1.81,1.2,3.96,1.16,6.03-.02.84,1.3.84,1.31,0,.05-2.3-.1-4.68-1.34-6.69-.16-.26-.45-.37-.74-.3-1.28.31-1.91,1.65-2.28,2.79s-.56,2.43-.71,3.66c-.09.74,1.11.88,1.29.17.23-.92.28-1.93.27-2.88s-.01-2.21-.74-2.89-1.78-.36-2.37.29c-.68.75-1.05,1.77-1.37,2.72-.18.52-.33,1.04-.49,1.57-.06.21-.13.42-.2.63-.03.08-.06.16-.09.25-.05.13.05-.1-.04.08l1.2.16c-.34-2.09-.67-4.17-.87-6.28-.03-.35-.28-.66-.66-.66-.33,0-.69.3-.66.66h0Z" style="fill:#6a6a6a;"/><path d="m186.38,64.91c4.5-.1,8.96-.85,13.47-.86.84,0,.85-1.31,0-1.31-4.5.01-8.97.76-13.47.86-.84.02-.85,1.33,0,1.31h0Z" style="fill:#6a6a6a;"/><path d="m188.76,77.9c-.07-.89.19-1.72.36-2.58s.2-1.69.17-2.55c-.05-1.74-.31-3.51.17-5.21l-1.1.29c.94.8,1.31,2.06,1.72,3.17.46,1.25.96,2.51,1.88,3.5.42.45,1.07.07,1.12-.46.11-1.26.33-2.51.67-3.73.29-1.03.69-2.47,1.7-3.03l-.96-.39c.66,3.06-.29,6.23.58,9.27.23.81,1.5.47,1.27-.35-.86-3.02.08-6.22-.58-9.27-.09-.42-.61-.59-.96-.39-1.25.7-1.84,2.25-2.22,3.54-.42,1.41-.66,2.89-.79,4.35l1.12-.46c-1.75-1.89-1.6-4.97-3.6-6.67-.37-.31-.95-.21-1.1.29-.5,1.76-.29,3.56-.22,5.36.03.88.03,1.74-.16,2.6-.2.91-.44,1.8-.37,2.73.07.84,1.38.84,1.31,0h0Z" style="fill:#6a6a6a;"/><path d="m203.01,60.12c.89,3.37-.89,7.07.58,10.34.35.77,1.48.1,1.13-.66-.66-1.47-.41-3.31-.31-4.86.12-1.71.3-3.49-.14-5.17-.21-.82-1.48-.47-1.27.35h0Z" style="fill:#6a6a6a;"/><path d="m204.51,60.92c.54-.1,1.16-.26,1.64-.31.15-.01.3-.02.45-.02.18,0,.25,0,.36.03.25.06.38.1.53.3.1.13.17.43.16.61,0,.11.02-.09,0,.01,0,.03-.01.06-.02.09-.04.12.03-.04-.02.07-.09.17-.05.12-.18.24-.33.34-.95.61-1.44.81-.66.26-1.36.47-1.97.83-.34.2-.46.75-.13,1.03.59.5,1.26.9,1.88,1.37.54.41,1.1.9,1.22,1.57.06.35.49.55.81.46.37-.1.52-.46.46-.81-.32-1.73-2.25-2.53-3.44-3.52l-.13,1.03c.57-.34,1.21-.51,1.88-.78s1.46-.62,1.95-1.22c.55-.68.58-1.57.18-2.34s-1.23-1.07-2.04-1.08-1.66.23-2.47.38c-.35.06-.55.49-.46.81.1.37.46.52.81.46h0Z" style="fill:#6a6a6a;"/><path d="m210.55,59.91c1.44-.02,2.87-.26,4.32-.17.34.02.67-.32.66-.66-.02-.37-.29-.63-.66-.66-1.44-.09-2.88.16-4.32.17-.34,0-.67.3-.66.66s.29.66.66.66h0Z" style="fill:#6a6a6a;"/><path d="m211.96,59.6c.02,2.83.51,5.63.52,8.46,0,.84,1.32.85,1.31,0-.01-2.83-.5-5.63-.52-8.46,0-.84-1.32-.85-1.31,0h0Z" style="fill:#6a6a6a;"/></g><g><path d="m78.05,113.93c-.24-19.06-.47-38.12-.71-57.18-.07-5.32-.13-10.63-.2-15.95-.01-.84-1.32-.85-1.31,0,.23,19.04.47,38.08.7,57.11.07,5.34.13,10.67.2,16.01.01.84,1.32.85,1.31,0h0Z" style="fill:#6a6a6a;"/><path d="m76.87,72.91c9.04-.04,18.08-.09,27.12-.14,8.19-.05,16.39-.1,24.58-.14,5.96-.03,11.91-.05,17.87-.08.84,0,.85-1.32,0-1.31-9.77.04-19.55.09-29.32.14-7.92.05-15.85.1-23.77.14-5.5.03-10.99.06-16.49.08-.84,0-.85,1.32,0,1.31h0Z" style="fill:#6a6a6a;"/><path d="m147.1,71.76c-.04-.78-.67-1.44-1.19-1.96-.64-.63-1.36-1.21-2.12-1.68-.34-.21-.7-.41-1.08-.52-.33-.09-.73.11-.81.46s.1.71.46.81c.05.02.11.04.16.05.11.04-.09-.04-.05-.02.03.02.07.03.1.05.14.07.28.14.42.22.33.19.64.42.95.64.09.07-.09-.07.04.03.04.03.08.06.11.09.08.07.16.13.24.2.16.13.31.27.46.41s.29.28.43.43c.06.06.11.12.17.19.03.03.05.06.08.09.02.02.13.16.06.07s.02.03.04.05c.02.03.05.07.07.1.04.07.09.14.12.21.01.03.06.14.02.03s0,0,0,.02c0,.03.01.07.03.09.03.07-.02-.19,0-.07.02.34.29.67.66.66.34-.02.68-.29.66-.66h0Z" style="fill:#6a6a6a;"/><path d="m146.27,71.12c-1.6.29-2.93,1.39-4.3,2.18-.3.17-.43.6-.24.9s.58.42.9.24c.67-.39,1.3-.82,1.97-1.21.34-.2.69-.38,1.04-.54.1-.05-.07.03.03-.01.04-.02.08-.03.12-.05.09-.04.18-.07.28-.1.18-.06.36-.1.55-.14.34-.06.56-.49.46-.81-.12-.36-.44-.52-.81-.46h0Z" style="fill:#6a6a6a;"/><path d="m114.87,74.76c-.13-.06-.17-.07-.11-.05.03.02.02.01-.04-.03-.11-.08-.03-.02-.01,0,.06.07-.1-.15-.05-.07.01.02.02.04.04.06.01.02.02.05.03.07.05.09-.06-.16-.02-.06.02.06.04.12.06.19.04.14.07.28.1.43.02.08.03.17.04.25,0,.05,0,.2,0,0,0,.04.01.08.01.12.07.62.1,1.24.1,1.86,0,.34.3.67.66.66s.65-.29.66-.66c0-.73-.04-1.47-.14-2.19s-.24-1.57-.98-1.85c-.32-.12-.73.14-.81.46-.09.38.11.67.46.81h0Z" style="fill:#6a6a6a;"/><path d="m115.81,80.94c0,.74.02,1.49.03,2.23,0,.34.3.67.66.66s.66-.29.66-.66c0-.74-.02-1.49-.03-2.23,0-.34-.3-.67-.66-.66s-.66.29-.66.66h0Z" style="fill:#6a6a6a;"/><path d="m115.88,86.46c.01,1.09.03,2.19.04,3.28,0,.34.3.67.66.66s.66-.29.66-.66c-.01-1.09-.03-2.19-.04-3.28,0-.34-.3-.67-.66-.66s-.66.29-.66.66h0Z" style="fill:#6a6a6a;"/><path d="m115.95,92.14c0,.62.02,1.24.02,1.86,0,.34.3.67.66.66s.66-.29.66-.66c0-.62-.02-1.24-.02-1.86,0-.34-.3-.67-.66-.66s-.66.29-.66.66h0Z" style="fill:#6a6a6a;"/><path d="m77.61,93.36c4.17-3.09,9.65-4.22,14.77-3.7,5.19.53,9.85,3.24,14.81,4.64,10.8,3.05,22.66,4.08,33.73,1.92,2.98-.58,5.78-1.61,8.41-3.15,1.23-.72,2.54-1.37,3.71-2.17.4-.27.78-.58,1.16-.87.25-.19.64-.58.97-.63.83-.12.48-1.38-.35-1.27-.67.1-1.33.8-1.84,1.19-.89.68-1.89,1.17-2.85,1.74-2.44,1.44-4.82,2.7-7.57,3.42-5.54,1.47-11.57,1.66-17.27,1.42-5.8-.25-11.56-1.18-17.16-2.72-5.01-1.38-9.69-4.02-14.87-4.75-5.57-.78-11.75.39-16.31,3.77-.67.5-.02,1.64.66,1.13h0Z" style="fill:#6a6a6a;"/><path d="m80.28,81.96c2.55-2.29,5.11-4.57,7.66-6.86.63-.56-.3-1.49-.93-.93-2.55,2.29-5.11,4.57-7.66,6.86-.63.56.3,1.49.93.93h0Z" style="fill:#6a6a6a;"/><path d="m82.13,86.94c4.76-4.27,9.53-8.53,14.29-12.8.63-.56-.3-1.49-.93-.93-4.76,4.27-9.53,8.53-14.29,12.8-.63.56.3,1.49.93.93h0Z" style="fill:#6a6a6a;"/><path d="m90.94,88.22c4.37-3.91,8.74-7.83,13.12-11.74.63-.56-.3-1.49-.93-.93-4.37,3.91-8.74,7.83-13.12,11.74-.63.56.3,1.49.93.93h0Z" style="fill:#6a6a6a;"/><path d="m99.01,90.54c5.57-4.98,11.13-9.97,16.7-14.95.63-.56-.3-1.49-.93-.93-.17.15-.35.31-.52.46-.63.56.3,1.49.93.93.45-.4.9-.81,1.35-1.21.63-.56-.3-1.49-.93-.93-.45.4-.9.81-1.35,1.21l.93.93c.17-.15.35-.31.52-.46l-.93-.93c-5.57,4.98-11.13,9.97-16.7,14.95-.63.56.3,1.49.93.93h0Z" style="fill:#6a6a6a;"/><path d="m105.6,93.4c3.14-2.81,6.29-5.63,9.43-8.44.63-.56-.3-1.49-.93-.93-3.14,2.81-6.29,5.63-9.43,8.44-.63.56.3,1.49.93.93h0Z" style="fill:#6a6a6a;"/><path d="m76.35,43.5c8.61,7.47,17.23,14.94,25.84,22.41,2.43,2.11,4.86,4.22,7.29,6.33.64.55,1.57-.37.93-.93-8.61-7.47-17.23-14.94-25.84-22.41-2.43-2.11-4.86-4.22-7.29-6.33-.64-.55-1.57.37-.93.93h0Z" style="fill:#6a6a6a;"/><path d="m93.07,57.15c7.7-.03,15.4.32,23.1.29.84,0,.85-1.32,0-1.31-7.7.03-15.4-.32-23.1-.29-.84,0-.85,1.32,0,1.31h0Z" style="fill:#6a6a6a;"/><path d="m113.43,55.33c.07.03.15.05.22.08.05.02.07.03,0,0,.04.02.09.04.13.06.14.07.29.14.43.21.3.16.59.33.89.49.61.34,1.24.67,1.92.84.33.09.73-.11.81-.46s-.1-.72-.46-.81c-.16-.04-.32-.09-.48-.15-.04-.01-.07-.03-.11-.04-.01,0-.12-.05-.06-.02s-.05-.02-.06-.03c-.04-.02-.07-.03-.11-.05-.31-.14-.6-.31-.9-.48-.61-.34-1.22-.69-1.88-.92-.32-.12-.73.13-.81.46-.08.37.11.68.46.81h0Z" style="fill:#6a6a6a;"/><path d="m116.58,56.09c-.61.27-1.2.62-1.77.97-.66.4-1.31.81-1.92,1.28-.27.21-.44.57-.24.9.17.27.61.46.9.24.61-.47,1.26-.88,1.92-1.28.58-.35,1.16-.7,1.77-.97.31-.14.41-.62.24-.9-.21-.33-.56-.39-.9-.24h0Z" style="fill:#6a6a6a;"/><path d="m117.15,99.26c.39-.31.53-.87.17-1.27-.25-.27-.63-.36-.98-.41-.8-.11-1.75-.1-2.45.37-1.99,1.35-.22,3.6.42,5.18.18.44.37.99.38,1.39,0,.24.03.26-.07.48.03-.06-.05.06-.06.07-.01.01-.09.08-.02.02-.06.04-.12.07-.18.1-.76.38-.09,1.51.66,1.13,1.72-.86.77-3.14.17-4.41-.29-.6-.68-1.2-.86-1.85-.08-.3-.12-.61.09-.86.06-.08.14-.13.22-.19.06-.04.14-.08.21-.11,0,0-.14.05-.06.03.06-.02.11-.03.17-.04.04,0,.24-.04.12-.02.37-.04.75-.05,1.11,0-.11-.01.12.03.15.03.12.02.11.06.07.01.01.01.04.02.05.03-.16-.14-.26-.32-.2-.54,0,.03.04-.2.09-.19,0,0-.12.11-.12.11-.28.22-.23.7,0,.93.27.27.65.22.93,0h0Z" style="fill:#6a6a6a;"/><path d="m110.92,102.89c1.55-.02,3.08-.28,4.61-.41.35-.03.66-.28.66-.66,0-.33-.3-.69-.66-.66-1.54.14-3.07.39-4.61.41-.35,0-.66.3-.66.66s.3.66.66.66h0Z" style="fill:#6a6a6a;"/><path d="m117.85,99.8c-.43,1.12-.88,2.27-.91,3.49-.04,1.33.57,2.5,1.6,3.32.28.22.66.27.93,0,.23-.23.28-.71,0-.93-.86-.68-1.28-1.49-1.21-2.55.06-.99.49-2.03.86-2.98.13-.33-.14-.72-.46-.81-.37-.1-.68.13-.81.46h0Z" style="fill:#6a6a6a;"/><path d="m119.09,103.69c1.08.68,2.12,1.41,3.31,1.89.32.13.73-.14.81-.46.09-.38-.12-.67-.46-.81-.07-.03-.03,0,.02,0-.03-.01-.06-.03-.09-.04-.07-.03-.14-.07-.21-.1-.14-.07-.27-.14-.41-.21-.27-.15-.54-.31-.81-.47-.5-.31-.99-.63-1.48-.95-.29-.18-.74-.07-.9.24-.17.32-.07.7.24.9h0Z" style="fill:#6a6a6a;"/><path d="m120.38,105.52s.02-.06.03-.08c.03-.08,0,0-.01.03.04-.05.06-.12.08-.18.05-.11.11-.21.17-.32.13-.23.26-.44.41-.66.28-.42.59-.84.86-1.27.19-.29.07-.74-.24-.9-.33-.17-.7-.07-.9.24-.59.92-1.28,1.76-1.67,2.79-.12.32.14.73.46.81.37.09.68-.11.81-.46h0Z" style="fill:#6a6a6a;"/><path d="m121.27,99.21c1.37.87,2.4,2.33,2.97,3.83.53,1.39.8,3.08.04,4.44-.41.74.72,1.4,1.13.66.93-1.67.74-3.72.09-5.46-.69-1.84-1.89-3.55-3.57-4.62-.71-.45-1.37.68-.66,1.13h0Z" style="fill:#6a6a6a;"/></g></g></svg>