<?xml version="1.0" encoding="UTF-8"?><svg id="a" xmlns="http://www.w3.org/2000/svg" viewBox="0 0 300 300"><g><path d="m62.4,59.65c-2.37,0-4.74,0-7.11,0-.13,0-.33.12-.34-.14-.02-.89-.03-1.79-.03-2.68,0-.31.19-.5.38-.71,1.46-1.69,2.87-3.42,4.36-5.07,1.22-1.35,2.24-2.87,3.63-4.08.24-.21.62-.45.5-.76-.11-.31-.54-.13-.82-.13-2.33-.01-4.66-.02-6.98,0-.5,0-.69-.12-.66-.65.04-.77.02-1.55,0-2.33,0-.37.08-.54.5-.54,4.55.01,9.09,0,13.64,0,.36,0,.51.11.5.48-.02.69-.02,1.38,0,2.07.01.5-.36.76-.61,1.09-1.48,1.91-3.16,3.67-4.68,5.56-1.03,1.28-2.21,2.45-3.21,3.77-.1.13-.33.21-.22.41.1.17.31.09.48.09,2.59,0,5.17,0,7.76,0,.48,0,.75.02.64.67-.12.73-.06,1.51-.02,2.26.02.54-.18.71-.71.71-2.33-.02-4.66,0-6.98,0h0Z" style="fill:#d0d0fc;"/><path d="m220.68,109.6c-2.73.07-5.21-.71-7.47-2.22-.37-.25-.6-.5-.32-1,.46-.84.85-1.72,1.27-2.59.19-.39.39-.28.66-.07,1.41,1.12,3.02,1.8,4.76,2.18.74.16,1.5.14,2.23-.09.53-.17.84-.55.89-1.14.06-.75-.43-1.09-.98-1.36-1.19-.57-2.49-.81-3.73-1.2-1.4-.44-2.75-.99-3.6-2.3-.93-1.43-.91-2.94-.25-4.46.76-1.77,2.31-2.49,4.04-2.95,1.97-.53,3.94-.28,5.86.19,1.05.25,2.15.57,3.06,1.28.26.21.31.37.18.65-.43.89-.85,1.78-1.27,2.68-.18.38-.35.41-.74.2-1.7-.87-3.44-1.66-5.44-1.51-.94.07-1.19.21-1.35.96-.12.6.29.91.68,1.21.69.55,1.55.7,2.37.94,1.65.47,3.31.88,4.63,2.09,1.61,1.49,1.8,4.43.4,6.17-1.24,1.54-2.94,2.13-4.82,2.35-.34.04-.69,0-1.03,0Z" style="fill:#ffe092;"/><path d="m208.21,66.65c-.59-.64-.68-1.5-.99-2.26-.14-.35-.3-.49-.69-.49-1.92.02-3.84,0-5.75,0-1.26,0-1.27,0-1.66,1.2-.09.27-.25.52-.29.78-.15.97-.77,1.07-1.58,1.02-.94-.06-1.9-.02-2.84,0-.41,0-.54-.08-.37-.52.64-1.63,1.4-3.21,2.09-4.82.95-2.2,1.89-4.4,2.83-6.61.7-1.63,1.4-3.26,2.08-4.89.1-.25.27-.24.46-.24,1.29,0,2.59,0,3.88,0,.32,0,.49.1.62.42.7,1.73,1.46,3.43,2.14,5.17.85,2.17,1.83,4.29,2.73,6.43.49,1.16.96,2.33,1.44,3.5-1.38.37-2.73.82-4.07,1.32Zm-4.88-12.2c-.78,1.99-1.49,3.79-2.2,5.6-.16.4.1.37.35.37,1.16,0,2.33-.02,3.49,0,.6.02.67-.22.46-.7-.27-.63-.56-1.26-.79-1.9-.39-1.06-.74-2.14-1.3-3.38Z" style="fill:#d0d0fc;"/><path d="m41.73,100.39c0,.08.02.15.03.23.04.09.07.18.11.28.34.97.67,1.94.84,2.96-1.27.01-2.53.03-3.8.03-.38,0-.54.11-.53.51.02.73.03,1.46,0,2.19-.02.43.14.55.56.54,1.37-.02,2.75,0,4.12,0,.22,0,.43-.02.62-.13.38,1.25.76,2.5,1.14,3.75-.45-.04-.89-.1-1.34-.13-1.55-.09-3.09.16-4.63.12-.39-.01-.47.17-.46.51.02.73.03,1.46,0,2.19-.02.44.16.55.57.54,1.81-.02,3.62-.01,5.42,0,.45,0,.9,0,1.34-.14.19.53.39,1.07.45,1.64.02.57-.14,1.21.49,1.59.02.07.03.14.05.22-.15.27-.42.18-.64.18-3.86,0-7.72,0-11.58.01-.47,0-.63-.12-.63-.61.01-5.39.01-10.78,0-16.17,0-.52.33-.3.51-.3,2.46-.02,4.91-.01,7.37-.01Z" style="fill:#d0d0fc;"/><path d="m129.49,45.56c-2.98,0-5.04-1.18-6.23-3.62-.72-1.48-.79-3.1-.21-4.68.82-2.25,2.47-3.59,4.79-4.02,3.14-.58,6.44.54,7.7,3.8.98,2.55.37,5.37-2.02,7.2-1.06.81-2.68,1.43-4.03,1.33Zm-.11-2.74c1.82.07,3.34-1.61,3.3-3.47-.04-1.89-1.26-3.49-3.21-3.49-2.19,0-3.44,1.41-3.45,3.55,0,1.89,1.35,3.37,3.36,3.41Z" style="fill:#ffe092;"/><path d="m236.99,50.71c0-1.7.01-3.4,0-5.1,0-.44.11-.61.58-.6,1.77.02,3.53-.03,5.3.02,1.34.04,2.56.38,3.46,1.53.67.85.46,2.68-.58,3.33-.15.09-.29.19-.43.29-.22.16-.24.29.05.4,1.32.49,1.81,1.81,1.71,2.92-.11,1.27-1,2.26-2.38,2.64-.66.18-1.33.29-2.03.28-1.68-.03-3.36-.03-5.04,0-.53.01-.65-.17-.64-.67.03-1.68.01-3.36.01-5.04Zm4.67,1.03q-1.58,0-1.57,1.51c0,.17,0,.34,0,.52,0,.18.09.3.27.29.96-.03,1.94.14,2.88-.17.48-.16.75-.51.72-1.03-.03-.52-.29-.86-.82-1.02-.51-.15-1.02-.09-1.49-.11Zm-.18-2.2c.34,0,.69.02,1.03,0,.75-.06,1.08-.43,1.08-1.17,0-.61-.36-.97-1.08-1.01-.54-.03-1.08.04-1.61-.02-.67-.07-.84.17-.82.82.05,1.38.01,1.38,1.4,1.38Z" style="fill:#ffe092;"/><path d="m57.15,193.22c0-2.11.01-4.22,0-6.34,0-.45.12-.6.58-.59,3.06.02,6.12.02,9.18,0,.43,0,.63.1.6.57-.04.54-.03,1.08,0,1.62.03.5-.16.68-.67.68-1.81-.02-3.62,0-5.43-.02-.51,0-.74.07-.65.67.09.61.05,1.25.01,1.87-.03.47.16.58.6.58,1.64-.02,3.28,0,4.91-.02.53,0,.75.16.71.7-.04.54-.03,1.08,0,1.62.02.43-.15.55-.56.55-1.66-.02-3.32.01-4.98-.02-.54-.01-.71.15-.69.69.04,1.23,0,2.46.02,3.69,0,.49-.14.71-.66.69-.8-.03-1.6-.03-2.39,0-.46.02-.59-.15-.58-.59.02-2.11,0-4.22,0-6.34Z" style="fill:#ffe092;"/><path d="m224.68,181.65c1.79,0,3.58.02,5.36-.01.49,0,.65.14.62.62-.04.64-.03,1.29,0,1.94.02.42-.12.57-.55.56-.9-.03-1.81,0-2.71,0q-.88,0-.88.86c0,3.1-.01,6.2.01,9.3,0,.56-.14.77-.72.73-.73-.05-1.47-.04-2.2,0-.58.03-.74-.2-.73-.75.02-3.14,0-6.29.02-9.43,0-.59-.18-.74-.73-.71-.97.04-1.94,0-2.91.02-.39,0-.54-.12-.52-.52.02-.65.03-1.29,0-1.94-.03-.5.12-.67.65-.66,1.77.03,3.53.01,5.3.01Z" style="fill:#d0d0fc;"/><path d="m245.58,153.77c.67-2.16,1.46-4.1,2.04-6.12.24-.82.59-1.6.87-2.41.1-.29.29-.34.54-.34.8,0,1.59.01,2.39,0,.42,0,.47.15.33.51-.68,1.71-1.34,3.43-2.01,5.15-.39,1-.71,2.02-1.15,2.99-.47,1.03-.82,2.11-1.27,3.15-.15.36-.38.53-.79.51-.64-.03-1.3-.07-1.94,0-.7.09-.94-.31-1.14-.84-.75-1.93-1.52-3.86-2.26-5.79-.56-1.46-1.09-2.93-1.64-4.39-.1-.28-.26-.54-.39-.8-.15-.3-.14-.49.27-.49.9,0,1.81,0,2.71,0,.29,0,.44.14.5.4.32,1.27.87,2.45,1.25,3.71.47,1.55,1.06,3.06,1.67,4.77Z" style="fill:#ffe092;"/><path d="m168.94,134.3c.67-2.16,1.46-4.1,2.04-6.12.24-.82.59-1.6.87-2.41.1-.29.29-.34.54-.34.8,0,1.59.01,2.39,0,.42,0,.47.15.33.51-.68,1.71-1.34,3.43-2.01,5.15-.39,1-.71,2.02-1.15,2.99-.47,1.03-.82,2.11-1.27,3.15-.15.36-.38.53-.79.51-.64-.03-1.3-.07-1.94,0-.7.09-.94-.31-1.14-.84-.75-1.93-1.52-3.86-2.26-5.79-.56-1.46-1.09-2.93-1.64-4.39-.1-.28-.26-.54-.39-.8-.15-.3-.14-.49.27-.49.9,0,1.81,0,2.71,0,.29,0,.44.14.5.4.32,1.27.87,2.45,1.25,3.71.47,1.55,1.06,3.06,1.67,4.77Z" style="fill:#ffe092;"/><path d="m31.14,146.95c0,1.51-.01,3.02,0,4.52,0,.5-.16.7-.67.68-.58-.03-1.16-.01-1.74,0-.33,0-.48-.1-.4-.46.25-1.06-.06-2.15.18-3.21.05-.23-.16-.34-.38-.34-1.16,0-2.33,0-3.49,0-.4,0-.37.27-.37.53,0,.95-.02,1.9,0,2.84.01.46-.09.67-.6.64-.6-.04-1.2,0-1.81.03-.31.01-.45-.16-.42-.43.24-2.3.06-4.6.09-6.9.01-.9.13-1.81-.1-2.7-.06-.24.07-.36.31-.36.75,0,1.51,0,2.26,0,.31,0,.26.16.26.37-.01,1.12,0,2.24-.02,3.36,0,.36.06.56.49.55,1.05-.02,2.11-.02,3.17,0,.42,0,.5-.19.49-.55-.02-1.06,0-2.11-.01-3.17,0-.41.1-.59.54-.57.52.03,1.03.03,1.55,0,.48-.02.65.16.64.64-.02,1.51,0,3.02,0,4.52Z" style="fill:#ffe092;"/><path d="m193.42,249.16c0,1.51-.01,3.02,0,4.52,0,.5-.16.7-.67.68-.58-.03-1.16-.01-1.74,0-.33,0-.48-.1-.4-.46.25-1.06-.06-2.15.18-3.21.05-.23-.16-.34-.38-.34-1.16,0-2.33,0-3.49,0-.4,0-.37.27-.37.53,0,.95-.02,1.9,0,2.84.01.46-.09.67-.6.64-.6-.04-1.2,0-1.81.03-.31.01-.45-.16-.42-.43.24-2.3.06-4.6.09-6.9.01-.9.13-1.81-.1-2.7-.06-.24.07-.36.31-.36.75,0,1.51,0,2.26,0,.31,0,.26.16.26.37-.01,1.12,0,2.24-.02,3.36,0,.36.06.56.49.55,1.05-.02,2.11-.02,3.17,0,.42,0,.5-.19.49-.55-.02-1.06,0-2.11-.01-3.17,0-.41.1-.59.54-.57.52.03,1.03.03,1.55,0,.48-.02.65.16.64.64-.02,1.51,0,3.02,0,4.52Z" style="fill:#ffe092;"/><path d="m143.7,78.02c-1.08.62-2.15,1.26-3.08,2.11-.3-.51-.82-.67-1.33-.82-.93-.27-1.88-.06-2.82-.14-.61-.06-.81.13-.8.77.04,2.11.02,4.22.02,6.33-1.48.66-2.78,1.56-3.88,2.76.21-1,.11-2.01.12-3.02.01-3.08.02-6.16,0-9.24,0-.52.12-.71.68-.7,2.24.03,4.48-.05,6.72.04,1.6.06,3.03.72,4.3,1.7.06.04.06.15.1.23Z" style="fill:#ffe092;"/><path d="m112.39,154.11c.39.33.86.13,1.29.2,1.28.2,2.43.65,3.43,1.49.3.25.42.45.1.79-.39.42-.73.9-1.1,1.34-.2.24-.35.38-.65.03-.53-.61-1.25-.92-2.04-1.11-1.19-.29-2.75.57-3.2,1.7-.5,1.29-.47,2.47.44,3.59,1.19,1.45,3.41,1.22,4.57.16.45-.41.73-.41,1.08.1.22.34.53.62.84.89.38.33.33.61-.04.89-.88.66-1.81,1.22-2.89,1.48-2.25.54-4.22,0-5.86-1.6-1.7-1.65-2.04-4.74-.87-6.82.43-.76.94-1.42,1.7-1.87.17-.1.24-.24.25-.42.99-.28,1.98-.56,2.96-.84Z" style="fill:#ffe092;"/><path d="m239.79,225.51c-3.33.04-6.06-2.86-5.77-6.26.2-2.34,1.48-4.06,3.63-4.89,2.33-.91,4.59-.46,6.61,1.04.4.3.42.61.1.98-.37.42-.76.82-1.09,1.27-.23.31-.41.24-.61.02-.29-.32-.62-.59-1-.81-1.11-.62-2.22-.51-3.22.17-1.11.76-1.51,1.9-1.28,3.22.42,2.5,3.18,3.3,5.09,1.9.83-.61.97-.59,1.6.25.14.19.3.37.46.53.53.52.57.65-.04,1.04-1.5.96-2.46,1.64-4.46,1.55Z" style="fill:#ffe092;"/><path d="m39.03,218.87c0,1.16,0,2.33,0,3.49,0,.7-.18,1.36-.46,1.99-.64,1.45-1.84,1.99-3.35,2.07-1.66.08-3.15-.28-4.31-1.57-.24-.27-.31-.45-.06-.76.31-.38.57-.8.82-1.22.26-.45.49-.56.91-.13.43.45,1,.7,1.6.9.94.31,1.57-.5,1.59-1.19.04-1.68,0-3.36.02-5.04,0-.42-.23-.44-.54-.44-1.03,0-2.07,0-3.1,0-.33,0-.43-.07-.4-.43.05-.56.08-1.13-.01-1.68-.07-.45.07-.5.44-.49,1.74.01,3.49,0,5.23,0,1.67.01,1.6-.32,1.59,1.58,0,.97,0,1.94,0,2.91Z" style="fill:#ffe092;"/><path d="m187.56,155.91c1.13.12,2.26.33,3.39.06,2.26-.54,3.91-1.88,5.06-3.88.14-.24.27-.49.4-.73,1.44,1.17,1.06,3.02-.91,4.22.81.37,1.59.79,1.85,1.66.44,1.45.2,2.83-1.15,3.66-.85.52-1.79.68-2.77.69-1.77.01-3.53,0-5.3.01-.45,0-.6-.13-.59-.59.02-1.7,0-3.4,0-5.1Zm4.65,1.02q-1.68,0-1.67,1.61c0,.15,0,.3,0,.45,0,.15.09.26.24.25,1-.07,2.01.22,2.99-.22.34-.15.6-.32.65-.72.05-.43-.04-.78-.41-1.08-.58-.46-1.23-.25-1.8-.3Z" style="fill:#ffe092;"/><path d="m164.92,57.61c.37-1.57-.83-2.84-1.5-4.28-.73-1.6-1.74-3.05-2.47-4.65-.2-.43-.03-.42.28-.42.26,0,.53.05.77,0,1.47-.34,2.12.54,2.66,1.69.44.95.96,1.86,1.46,2.79.07.13.11.3.3.28.17-.02.15-.19.21-.29.7-1.32,1.42-2.64,2.11-3.98.18-.35.42-.51.82-.49.62.02,1.25.02,1.87,0,.45-.01.57.16.33.53-.94,1.49-1.63,3.11-2.46,4.66-.26.49-.56.96-.83,1.44-.36.66-.66,1.33-.59,2.13.06.71,0,1.42.02,2.13,0,.35-.1.51-.48.5-.67-.02-1.34-.02-2,0-.41.02-.52-.16-.5-.54.02-.43,0-.86,0-1.5Z" style="fill:#ffe092;"/><path d="m216.54,130.11c0-1.31,0-2.63,0-3.94,0-.36.07-.57.49-.55,1.55.08,3.1-.11,4.64.12,1.46.22,2.45,1.35,2.53,2.8.07,1.2-.3,2.16-1.21,2.9-.33.27-.16.51-.02.73.4.63.73,1.31,1.21,1.89.09.1.26.22.18.38-.1.2-.31.08-.47.11-.02,0-.04,0-.06,0-2.51-.06-1.77.42-2.93-1.77-.32-.6-1.2-.93-1.83-.67-.22.09-.19.26-.19.43,0,.5-.02.99,0,1.49.02.38-.1.53-.51.54-1.83.06-1.83.07-1.83-1.74,0-.91,0-1.81,0-2.72Zm2.33-1.29c0,.26.02.52,0,.78-.06.55.2.71.72.7.45-.01.9-.07,1.34-.13.63-.08.95-.49,1.04-1.06.15-.96-.36-1.5-1.5-1.65-1.52-.2-1.59-.14-1.59,1.37Z" style="fill:#ffe092;"/><path d="m35.15,180.55c0,1.56-.02,2.94.01,4.31.01.54-.16.7-.69.69-1.39-.03-1.39,0-1.39-1.39,0-2.18.02-4.35-.01-6.53,0-.52.16-.69.66-.65.34.03.69.06,1.03-.05.21-.07.37.02.5.19,1.08,1.46,2.17,2.91,3.25,4.37.1.13.17.37.36.3.14-.06.17-.28.17-.46,0-1.23.02-2.46,0-3.68-.01-.5.12-.67.65-.67,1.44.02,1.44,0,1.44,1.42,0,2.18-.01,4.35.01,6.53,0,.56-.16.81-.73.74-.23-.03-.47-.02-.71,0-.42.03-.69-.11-.96-.48-1.11-1.52-2.28-2.99-3.55-4.64Z" style="fill:#d0d0fc;"/><path d="m24.67,58.76c0-1.52.03-2.79-.01-4.06-.02-.61.21-.78.79-.76,1.23.04,2.46-.02,3.69.02,2.76.09,3.82,2.22,2.94,4.58-.57,1.52-1.81,1.94-3.27,2-.41.02-.82.02-1.23,0-.34-.02-.46.13-.45.46.02.52,0,1.03,0,1.55.01.33-.12.45-.45.46-.56.01-1.11-.06-1.67.06-.27.06-.44-.14-.41-.43.17-1.37,0-2.75.07-3.88Zm3.51-.16c.19,0,.39.02.58,0,.71-.07,1.18-.52,1.32-1.27.11-.59-.21-1.11-.84-1.43-.6-.3-1.21-.02-1.82-.11-.26-.04-.29.26-.29.48,0,.43,0,.86,0,1.29q0,1.04,1.06,1.04Z" style="fill:#ffe092;"/><path d="m251.6,76.09c-.45,1.03-.88,2-1.29,2.98-.15.37-.38.51-.79.51-.4,0-.69-.06-.87-.48-.36-.84-.84-1.63-1.08-2.53-.04-.15-.14-.31-.35-.38,0,1.18-.02,2.34.01,3.5.01.51-.13.67-.65.66-1.04-.03-1.04,0-1.04-1.02,0-1.79.02-3.58-.01-5.37,0-.56.17-.7.73-.77,1.02-.12,1.56.24,1.89,1.2.32.91.81,1.75,1.23,2.64.24-.02.32-.26.4-.42.45-.92.91-1.85,1.3-2.8.17-.42.37-.62.84-.6,1.75.05,1.49-.21,1.5,1.52.01,1.62-.03,3.23.02,4.85.02.7-.35.75-.88.77-.54.01-.86-.07-.82-.73.05-.95.02-1.9.01-2.85,0-.2.07-.43-.13-.68Z" style="fill:#d0d0fc;"/><path d="m111.41,76.59c-.36-1.17-.71-2.33-1.07-3.5.45-.69.37-1.52.32-2.24-.11-1.59-.05-3.18-.07-4.76-.02-1.61-.19-1.39,1.4-1.41.47,0,.95.02,1.42,0,.37-.02.54.08.54.5-.02,2.49.06,4.99-.04,7.48-.06,1.55-.73,2.9-2.09,3.79-.13.09-.26.15-.42.13Z" style="fill:#d0d0fc;"/><path d="m195.35,188.31c-1.04-1.02-1.95-2.15-2.83-3.31.7-.33,1.46-.45,2.22-.49,1.83-.1,3.66-.05,5.42.52.85.28,1.68.63,2.47,1.06.28.15.39.37.23.7-.46.92-.84,1.88-1.38,2.76-.21.34-.4.22-.64.1-1.32-.63-2.67-1.19-4.12-1.46-.45-.09-.95-.26-1.37.13Z" style="fill:#ffe092;"/><path d="m88.59,176c.93-1.03,1.78-1.91,2.54-2.85.32-.39.62-.61,1.13-.57.43.03.86,0,1.29,0,.16,0,.37-.06.44.16.05.17-.09.27-.2.38-.75.8-1.49,1.6-2.26,2.39-.28.29-.51.53-.11.9.2.18.16.43-.05.55-.37.21-.57.57-.85.86-.21.22-.4.49-.73.13-.14-.15-.37-.03-.46.1-.31.43-.82.71-.78,1.41.04.72-1.25,1.62-1.85,1.41-.26-.09-.34-.18-.34-.49.01-2.5,0-4.99-.04-7.49,0-.26.07-.3.27-.3.54,0,1.08,0,1.62,0,.4,0,.37.27.37.53,0,.9,0,1.8,0,2.88Z" style="fill:#d0d0fc;"/><path d="m252.74,185.87c0-1.21,0-2.41,0-3.62.01-1.1.11-.98,1.48-.98.43,0,.77.37.78.83.01,2.02.02,4.04-.01,6.06.98-.08,1.97-.03,2.95-.04.36,0,.62.06.44.55-.02.06,0,.13-.01.19q-.07,1.32-1.33,1.32c-1.44,0-2.88-.02-4.33.02.04-1.44.02-2.89.02-4.34Z" style="fill:#d0d0fc;"/><path d="m160.96,215.88c0-1.21,0-2.41,0-3.62.01-1.1.11-.98,1.48-.98.43,0,.77.37.78.83.01,2.02.02,4.04-.01,6.06.98-.08,1.97-.03,2.95-.04.36,0,.62.06.44.55-.02.06,0,.13-.01.19q-.07,1.32-1.33,1.32c-1.44,0-2.88-.02-4.33.02.04-1.44.02-2.89.02-4.34Z" style="fill:#d0d0fc;"/><path d="m183.34,90.66c-.76.2-1.02-.11-1.32-.84-.74-1.8-1.25-3.69-2.13-5.43-.16-.31-.14-.57.34-.48.02,0,.04.02.06.02,1.17-.22,1.61.36,1.89,1.45.25.94.6,1.88.96,2.79.05.12.03.28.2.28.17,0,.18-.15.22-.27.34-1.04.72-2.06,1.01-3.11.26-.94,1.08-1.43,1.99-1.11.25.09.2.23.13.41-.56,1.43-1.12,2.87-1.68,4.3-.16.4-.24.82-.41,1.22-.25.6-.55,1.02-1.27.77Z" style="fill:#d0d0fc;"/><path d="m219.29,161.07c-.23.59-.46,1.17-.68,1.77-.11.29-.19.57-.59.57-.34,0-.6-.01-.74-.43-.22-.64-.54-1.24-.86-1.96,0,.81-.02,1.54,0,2.27.02.48-.18.63-.65.64-.52.01-.53-.26-.53-.65.01-1.23,0-2.45,0-3.68,0-.23-.11-.61.3-.58.42.04,1.02-.33,1.24.32.22.63.59,1.19.83,1.81.05.14.02.4.27.38.16-.01.21-.2.27-.33.26-.56.56-1.11.77-1.69.26-.72.83-.48,1.3-.48.5,0,.31.43.31.69.02,1.18,0,2.37.02,3.55,0,.46-.12.67-.62.66-.49,0-.56-.26-.56-.66.02-.72,0-1.45,0-2.17l-.1-.03Z" style="fill:#d0d0fc;"/><path d="m180.39,37.07c-.22.5-.44,1-.67,1.5-.11.25-.2.5-.57.51-.37,0-.54-.15-.68-.46-.23-.51-.5-1-.87-1.5,0,.64-.02,1.28,0,1.92.02.43-.14.56-.56.55-.4,0-.64-.05-.63-.55.03-1.23,0-2.45.02-3.68,0-.24-.17-.65.27-.67.44-.02.98-.24,1.26.35.31.68.61,1.36.92,2.04.04.09.12.16.21.28.52-.62.65-1.38.98-2.05.28-.57.97-.82,1.53-.49.19.11.14.3.14.46,0,1.27-.01,2.54.01,3.81,0,.43-.19.5-.55.49-.33-.01-.65.04-.63-.48.03-.67,0-1.35,0-2.03-.06,0-.12-.01-.18-.02Z" style="fill:#d0d0fc;"/><path d="m193.43,122.3c-.22.5-.44,1-.67,1.5-.11.25-.2.5-.57.51-.37,0-.54-.15-.68-.46-.23-.51-.5-1-.87-1.5,0,.64-.02,1.28,0,1.92.02.43-.14.56-.56.55-.4,0-.64-.05-.63-.55.03-1.23,0-2.45.02-3.68,0-.24-.17-.65.27-.67.44-.02.98-.24,1.26.35.31.68.61,1.36.92,2.04.04.09.12.16.21.28.52-.62.65-1.38.98-2.05.28-.57.97-.82,1.53-.49.19.11.14.3.14.46,0,1.27-.01,2.54.01,3.81,0,.43-.19.5-.55.49-.33-.01-.65.04-.63-.48.03-.67,0-1.35,0-2.03-.06,0-.12-.01-.18-.02Z" style="fill:#d0d0fc;"/><path d="m89.46,35.75c.83-.07,1.13.41,1.29.86.42,1.21.99,2.37,1.47,3.55.13.31.1.39-.23.46-.62.14-1.16.2-1.31-.63-.04-.25-.21-.29-.43-.29-.28,0-.56.03-.84,0-.47-.05-.83.04-1.02.53-.2.52-.72.43-1.1.46-.31.02-.38-.31-.24-.58.66-1.25,1.12-2.59,1.71-3.87.19-.41.53-.45.7-.49Zm.24,3.07c.2-.07.53.14.54-.27.01-.32-.49-1.19-.64-1.1-.39.24-.36.71-.44,1.08-.1.43.34.21.53.3Z" style="fill:#ffe092;"/><path d="m152.97,146.05c.83-.07,1.13.41,1.29.86.42,1.21.99,2.37,1.47,3.55.13.31.1.39-.23.46-.62.14-1.16.2-1.31-.63-.04-.25-.21-.29-.43-.29-.28,0-.56.03-.84,0-.47-.05-.83.04-1.02.53-.2.52-.72.43-1.1.46-.31.02-.38-.31-.24-.58.66-1.25,1.12-2.59,1.71-3.87.19-.41.53-.45.7-.49Zm.24,3.07c.2-.07.53.14.54-.27.01-.32-.49-1.19-.64-1.1-.39.24-.36.71-.44,1.08-.1.43.34.21.53.3Z" style="fill:#ffe092;"/><path d="m220.81,37.63s0,.09,0,.13c.01.52-.15,1.14.08,1.52.27.44.95.14,1.45.17.36.02.44.19.42.49-.02.3.05.66-.4.67-.84.02-1.68,0-2.52,0-.27,0-.32-.17-.32-.39,0-1.38,0-2.76,0-4.14,0-.46.31-.38.58-.38.32,0,.69-.07.7.43,0,.5,0,.99,0,1.49h0Z" style="fill:#d0d0fc;"/><path d="m131.55,63q-1.56,0-1.56-1.54c0-.93.02-1.85,0-2.78-.02-.51.29-.47.62-.48.35,0,.56.05.56.48.01.9-.08,1.8.06,2.7.08.48.3.61.74.57.23-.02.47,0,.71,0,.36-.02.57.05.56.48-.01.42-.19.58-.59.56-.37-.02-.73,0-1.1,0Z" style="fill:#d0d0fc;"/><path d="m161.27,108.42q-1.56,0-1.56-1.54c0-.93.02-1.85,0-2.78-.02-.51.29-.47.62-.48.35,0,.56.05.56.48.01.9-.08,1.8.06,2.7.08.48.3.61.74.57.23-.02.47,0,.71,0,.36-.02.57.05.56.48-.01.42-.19.58-.59.56-.37-.02-.73,0-1.1,0Z" style="fill:#d0d0fc;"/></g><g><g><path d="m117.23,230.76c-.68.87-58.1,3.44-60.83,2.66-.11-.03-.23-.08-.38-.16-3.38-1.58-17.9-12.54-20.21-17.16-1.86-3.71,9.09-23.89,12.91-27.34,2.54-2.3,7.25-3.2,7.25-3.2,0,0,13.3-38.37,21.5-46.41,2.06-2.02,37.66-2.8,44.02.1,2.72,1.24,9.35,8.01,9.53,9.22h0c.17,1.78-13.11,81.42-13.79,82.3Z" style="fill:#1d1d1b;"/><path d="m117.63,230.76c-.68.87-58.1,3.44-60.83,2.66-.11-.03-.23-.08-.38-.16,5.5-14.87,31.36-84.67,32.1-85.12.72-.44,34.76-.25,42.91.34.17,1.77-13.11,81.41-13.79,82.29Z" style="fill:#1a2e35;"/><path d="m96.55,141.97c-.57-.54-.95-8.34.1-9.89,1.18-1.74,14.84-.88,15.64.6.81,1.48,1.19,9.28.78,9.56-.41.28-2.69.55-2.99.05-.31-.5-.29-6.95-.53-7.29-.24-.34-9.8-.96-10.13-.47-.33.49.47,7.01.09,7.3-.38.28-2.4.67-2.96.14Z" style="fill:#394547;"/><g><g><rect x="62.77" y="176.16" width="4.66" height="5.35" transform="translate(82.05 -10.72) rotate(25.11)" style="fill:#dcdcdc;"/><rect x="59.61" y="179.4" width="7.59" height="6.11" transform="translate(83.43 -9.66) rotate(25.11)" style="fill:#c8c8c8;"/></g><path d="m67.06,195.91c-2.35,5.01-11.87,25.33-11.87,25.33l-16.34-7.66s9.52-20.32,11.87-25.33c2.35-5.01,7.32-7.41,12.33-5.06,5.02,2.35,6.36,7.7,4.01,12.71Z" style="fill:#ffc800;"/><path d="m67.06,195.91c-2.35,5.01-11.87,25.33-11.87,25.33l-16.34-7.66s9.52-20.32,11.87-25.33c2.35-5.01,7.32-7.41,12.33-5.06,5.02,2.35,6.36,7.7,4.01,12.71Z" style="opacity:.1;"/><g><path d="m61.29,184.67c-.16.35-.58.5-.93.34-.35-.16-.5-.58-.34-.93s.58-.5.93-.34c.35.16.5.58.34.93Z" style="fill:#fff;"/><path d="m66.72,194.2c-.16.35-.58.5-.93.34-.35-.16-.5-.58-.34-.93.16-.35.58-.5.93-.34.35.16.5.58.34.93Z" style="fill:#fff;"/><path d="m59.19,191.45c-.16.35-.58.5-.93.34-.35-.16-.5-.58-.34-.93.16-.35.58-.5.93-.34.35.16.5.58.34.93Z" style="fill:#fff;"/><path d="m56.97,197.83c-.16.35-.58.5-.93.34-.35-.16-.5-.58-.34-.93.16-.35.58-.5.93-.34.35.16.5.58.34.93Z" style="fill:#fff;"/><path d="m47.42,201.1c-.16.35-.58.5-.93.34-.35-.16-.5-.58-.34-.93.16-.35.58-.5.93-.34.35.16.5.58.34.93Z" style="fill:#fff;"/><path d="m49.43,195.15c-.16.35-.58.5-.93.34-.35-.16-.5-.58-.34-.93.16-.35.58-.5.93-.34.35.16.5.58.34.93Z" style="fill:#fff;"/><path d="m52.4,189.23c-.16.35-.58.5-.93.34-.35-.16-.5-.58-.34-.93.16-.35.58-.5.93-.34.35.16.5.58.34.93Z" style="fill:#fff;"/><path d="m56.88,186.86c-.16.35-.58.5-.93.34-.35-.16-.5-.58-.34-.93.16-.35.58-.5.93-.34.35.16.5.58.34.93Z" style="fill:#fff;"/><path d="m54.56,193.47c-.16.35-.58.5-.93.34-.35-.16-.5-.58-.34-.93.16-.35.58-.5.93-.34.35.16.5.58.34.93Z" style="fill:#fff;"/><path d="m64.01,189.52c-.16.35-.58.5-.93.34-.35-.16-.5-.58-.34-.93.16-.35.58-.5.93-.34.35.16.5.58.34.93Z" style="fill:#fff;"/><path d="m61.88,196.06c-.16.35-.58.5-.93.34-.35-.16-.5-.58-.34-.93.16-.35.58-.5.93-.34.35.16.5.58.34.93Z" style="fill:#fff;"/><path d="m52.13,199.55c-.16.35-.58.5-.93.34-.35-.16-.5-.58-.34-.93.16-.35.58-.5.93-.34.35.16.5.58.34.93Z" style="fill:#fff;"/><path d="m56.63,207.79c-.16.35-.58.5-.93.34-.35-.16-.5-.58-.34-.93.16-.35.58-.5.93-.34.35.16.5.58.34.93Z" style="fill:#fff;"/><path d="m54.29,212.53c-.16.35-.58.5-.93.34-.35-.16-.5-.58-.34-.93.16-.35.58-.5.93-.34.35.16.5.58.34.93Z" style="fill:#fff;"/><path d="m50.1,204.86c-.16.35-.58.5-.93.34-.35-.16-.5-.58-.34-.93s.58-.5.93-.34c.35.16.5.58.34.93Z" style="fill:#fff;"/><path d="m43.5,210.87c-.16.35-.58.5-.93.34-.35-.16-.5-.58-.34-.93.16-.35.58-.5.93-.34.35.16.5.58.34.93Z" style="fill:#fff;"/><path d="m54.73,203.54c-.16.35-.58.5-.93.34-.35-.16-.5-.58-.34-.93.16-.35.58-.5.93-.34.35.16.5.58.34.93Z" style="fill:#fff;"/><path d="m52.39,208.75c-.16.35-.58.5-.93.34-.35-.16-.5-.58-.34-.93s.58-.5.93-.34c.35.16.5.58.34.93Z" style="fill:#fff;"/><path d="m49.97,213.91c-.16.35-.58.5-.93.34-.35-.16-.5-.58-.34-.93.16-.35.58-.5.93-.34.35.16.5.58.34.93Z" style="fill:#fff;"/><path d="m52.09,217.81c-.16.35-.58.5-.93.34-.35-.16-.5-.58-.34-.93.16-.35.58-.5.93-.34.35.16.5.58.34.93Z" style="fill:#fff;"/><path d="m45.69,205.98c-.16.35-.58.5-.93.34-.35-.16-.5-.58-.34-.93.16-.35.58-.5.93-.34.35.16.5.58.34.93Z" style="fill:#fff;"/><path d="m47.8,209.76c-.16.35-.58.5-.93.34-.35-.16-.5-.58-.34-.93.16-.35.58-.5.93-.34.35.16.5.58.34.93Z" style="fill:#fff;"/><path d="m56.24,216.84c-.16.35-.58.5-.93.34-.35-.16-.5-.58-.34-.93.16-.35.58-.5.93-.34.35.16.5.58.34.93Z" style="fill:#fff;"/><path d="m45.6,214.83c-.16.35-.58.5-.93.34-.35-.16-.5-.58-.34-.93.16-.35.58-.5.93-.34.35.16.5.58.34.93Z" style="fill:#fff;"/><path d="m61.09,206.74c-.16.35-.58.5-.93.34s-.5-.58-.34-.93c.16-.35.58-.5.93-.34.35.16.5.58.34.93Z" style="fill:#fff;"/><path d="m58.75,211.73c-.16.35-.58.5-.93.34-.35-.16-.5-.58-.34-.93.16-.35.58-.5.93-.34s.5.58.34.93Z" style="fill:#fff;"/><path d="m59.21,202.63c-.16.35-.58.5-.93.34-.35-.16-.5-.58-.34-.93.16-.35.58-.5.93-.34.35.16.5.58.34.93Z" style="fill:#fff;"/><path d="m64.14,201.07c-.16.35-.58.5-.93.34-.35-.16-.5-.58-.34-.93.16-.35.58-.5.93-.34.35.16.5.58.34.93Z" style="fill:#fff;"/></g></g><path d="m36.94,213.94c1.38,6.77,16.41,14.06,17.44,14.03,1.02-.03,11-24.72,11-24.72,0,0-12.16-4-17.65-11.09,0,0-11.22,19.68-10.79,21.79Z" style="fill:#394547;"/></g><g><g><path d="m152.97,270h-58.17c-3.54-13.52-6.8-25.47-8.87-33.01-1.3-4.74-2.14-7.75-2.3-8.31-.02-.07-.03-.1-.03-.1h60.49s.69,3.16,1.85,8.48c.73,3.43,1.66,7.76,2.73,12.71.09.43.19.87.28,1.32,1.22,5.67,2.59,12.1,4.02,18.91Z" style="fill:#5254cf;"/><path d="m103.61,270h-1.09c-2.97-10.97-5.9-21.95-8.71-32.96l-.24-.93c-.06-.26.32-.37.4-.12.1.35.21.7.31,1.04,3.21,10.95,6.29,21.95,9.34,32.96Z" style="fill:#1a2e35;"/></g><g><path d="m139.37,228.68c-.24,1.88-.97,4.92-2.07,8.48-.68,2.2-1.49,4.58-2.42,7.03-.2.56-.42,1.1-.63,1.66-2.93,7.47-6.79,15.08-10.72,18.7t-.01,0h-.01c-.51.47-1.01.88-1.52,1.19l-3.37,2.08s0,.02-.01.05h0c-.03.21-.15.94-.35,2.12h-56.73c-1.45-13.15,1.57-25.45,4.21-33.16,1.73-5.08,3.29-8.16,3.29-8.16h70.34Z" style="fill:#5254cf;"/><g><path d="m132.63,261.34c-3.54,2.03-7.27,3.65-11.01,5.26-1,.43-2.01.86-3.02,1.27h0c-.06.03-.13.06-.19.08-.88.36-1.75.71-2.64,1.05-.86.33-1.71.68-2.58,1h-1.92c1.32-.67,2.71-1.23,4.05-1.83,1.87-.84,3.75-1.66,5.63-2.49.86-.37,1.71-.75,2.56-1.13,0,0,.02,0,.03,0,2.93-1.3,5.86-2.6,8.87-3.7.3-.11.49.34.23.5Z" style="fill:#1a2e35;"/><path d="m118.61,267.92c0,.45-.03,1.18-.12,2.08h-.63c.19-.85.38-1.55.54-2.05,0-.02,0-.03.02-.06.03-.08.14-.09.17-.02h0s.01.03.01.04Z" style="fill:#1a2e35;"/><path d="m74.52,232.22c-.77,1.53-1.46,3.09-2.11,4.69-3.86,9.58-5.44,20.12-4.28,30.42.1.9.23,1.79.37,2.68h-1c-.38-2.6-.63-5.21-.68-7.84-.2-8.69,1.49-17.33,4.96-25.27.72-1.66,1.53-3.28,2.41-4.86.12-.22.45-.03.33.19Z" style="fill:#1a2e35;"/><path d="m117.19,252.09c.05-2.18.21-4.37.32-6.55.26-5.15.45-10.34.93-15.48.02-.2.32-.2.32,0,.06,3.99-.09,7.99-.17,11.97-.04,2-.1,3.99-.15,5.98-.05,1.9-.18,3.82-.04,5.72.11,1.44.42,4.23,2.3,4.4,1.77.16,3.17-1.74,3.61-3.14,1.12-3.55,1.52-7.38,1.88-11.07.21-2.19.47-11.08.35-13.29,0-.14.21-.14.22,0,.12,2.25.43,4.49.51,6.75.07,2.25.08,4.5-.06,6.74-.14,2.15-.32,4.32-.64,6.45-.29,1.92-.61,3.91-1.39,5.7-.65,1.51-1.77,2.9-3.46,3.23-.21.04-.42.06-.63.06-.02.46-.08.93-.12,1.38-.05.72-.14,1.44-.24,2.16-.09.7-.26,1.41-.44,2.09-.19.68-.37,1.39-.73,2-.06.1-.2.04-.2-.06-.05-.69.08-1.38.17-2.06.1-.7.19-1.41.34-2.1.14-.68.27-1.37.41-2.05.09-.46.16-.93.24-1.39-1.09-.17-1.99-.89-2.5-1.97-.79-1.68-.86-3.67-.81-5.49Z" style="fill:#1a2e35;"/></g></g></g><g><g><path d="m116.14,153.21c7.34,9.19,36.11,41.83,52.1,44.86,10.77,2.04,45.36-15.54,52.94-21.92,3.1-2.61-14.22-28.42-18.43-27.38-4.57,1.13-29.47,17.67-32.71,17.49-3.23-.19-28.74-14.52-44.21-20.89-9.27-3.81-13.83,2.66-9.7,7.84Z" style="fill:#c36358;"/><g><g><path d="m211.67,182.3c6.65-2.56,26.83-16.72,30.18-20.39,3.35-3.67,12.23-14.94,9.68-17.79-2.55-2.85-5.42.24-5.42.24,0,0,3.36-5.81.16-7.99-2.55-1.74-6.81,2.4-6.81,2.4,0,0,3.35-6.56-.1-8.32-3.14-1.6-6.61,4.02-6.61,4.02,0,0,2.25-5.77-1.08-6.73-4-1.15-7.89,8.84-11.89,12.62-.91.86-27.77,14.03-27.77,14.03l19.65,27.9Z" style="fill:#a37c58;"/><g><path d="m232.62,134.18c-3.68,7.19-5.41,10.06-11.67,14.65-.12.09-.02.29.12.21,6.54-3.95,8.83-7.2,11.91-14.74.15-.36-.19-.45-.36-.12Z" style="fill:#1a2e35;"/><path d="m239.39,138.76c-3.66,7.36-6.45,10.15-12.65,15.45-.09.08.03.23.12.16,6.51-4.69,10.1-7.71,12.79-15.55.12-.35-.1-.4-.27-.06Z" style="fill:#1a2e35;"/><path d="m245.81,144.62c-4.06,6.87-6.9,10.26-13.57,14.63-.16.1-.02.34.15.25,7.24-3.79,10.82-7.99,13.62-14.74.19-.46.06-.58-.2-.15Z" style="fill:#1a2e35;"/></g></g><g><g><path d="m272.61,164.92c-17.66,5.16-35.03,10.31-51.97,15.47-10.13-22.76-11.63-45.52-18.56-68.28,17.68-5.16,35.08-10.31,52.04-15.47,10.1,22.76,11.57,45.52,18.49,68.28Z" style="fill:#fff;"/><path d="m272.61,164.92c-8.8,2.61-17.53,5.22-26.16,7.84-8.67,2.6-17.25,5.21-25.72,7.81-.06.02-.12.04-.17.05-.03-.06-.06-.12-.08-.18-10.18-22.75-11.72-45.5-18.68-68.24-.03-.1-.06-.2-.09-.3.1-.03.2-.06.29-.09,17.68-5.13,35.08-10.26,52.03-15.39.07-.02.13-.04.2-.06.03.07.06.14.09.21,5.04,11.41,7.92,22.81,10.4,34.22,2.44,11.37,4.49,22.75,7.9,34.12Zm0,0c-3.51-11.39-5.66-22.77-8.21-34.16-2.51-11.35-5.43-22.71-10.48-34.06.1.05.19.1.29.15-16.96,5.19-34.36,10.37-52.04,15.56.07-.13.14-.25.2-.38,6.91,22.77,8.36,45.54,18.44,68.31-.09-.04-.17-.09-.26-.13,8.47-2.55,17.04-5.1,25.7-7.65,8.7-2.54,17.49-5.09,26.34-7.63Z" style="fill:#1a2e35;"/></g><path d="m210.43,122.06c9.98-2.87,19.9-5.73,29.75-8.6.17.58.34,1.17.51,1.75-9.88,2.87-19.83,5.73-29.83,8.6-.14-.58-.28-1.17-.43-1.75Z" style="fill:#dcdcdc;"/><path d="m211.49,126.49c10.03-2.87,20.01-5.73,29.94-8.6.16.58.31,1.17.46,1.75-9.95,2.87-19.96,5.73-30,8.6-.13-.58-.27-1.17-.4-1.75Z" style="fill:#dcdcdc;"/><path d="m212.49,130.91c10.06-2.87,20.1-5.73,30.08-8.6.14.58.29,1.17.43,1.75-10,2.87-20.05,5.73-30.12,8.6-.13-.58-.25-1.17-.38-1.75Z" style="fill:#dcdcdc;"/><path d="m213.45,135.34c14.77-4.2,29.51-8.4,44.14-12.6.14.58.28,1.17.42,1.75-14.66,4.2-29.42,8.4-44.19,12.6-.12-.58-.25-1.17-.37-1.75Z" style="fill:#dcdcdc;"/><path d="m214.39,139.76c14.77-4.2,29.55-8.4,44.25-12.6.13.58.27,1.17.4,1.75-14.72,4.2-29.51,8.4-44.28,12.6-.12-.58-.25-1.17-.37-1.75Z" style="fill:#dcdcdc;"/><path d="m215.34,144.19c14.75-4.2,29.55-8.4,44.29-12.6.13.58.25,1.17.38,1.75-14.76,4.2-29.55,8.4-44.29,12.6-.13-.58-.26-1.17-.38-1.75Z" style="fill:#dcdcdc;"/><path d="m216.31,148.61c14.71-4.2,29.5-8.4,44.27-12.6.12.58.25,1.17.37,1.75-14.77,4.2-29.55,8.4-44.24,12.6-.14-.58-.27-1.17-.4-1.75Z" style="fill:#dcdcdc;"/><path d="m217.34,153.04c14.65-4.2,29.41-8.4,44.18-12.6.12.58.25,1.17.37,1.75-14.76,4.2-29.5,8.4-44.13,12.6-.14-.58-.29-1.17-.43-1.75Z" style="fill:#dcdcdc;"/><path d="m218.45,157.46c14.57-4.2,29.28-8.4,44.03-12.6.13.58.26,1.17.38,1.75-14.74,4.2-29.41,8.4-43.95,12.6-.16-.58-.31-1.17-.46-1.75Z" style="fill:#dcdcdc;"/><path d="m219.65,161.89c14.47-4.2,29.1-8.4,43.81-12.6.13.58.27,1.17.4,1.75-14.68,4.2-29.28,8.4-43.7,12.6-.17-.58-.34-1.17-.51-1.75Z" style="fill:#dcdcdc;"/><path d="m220.98,166.31c14.34-4.2,28.88-8.4,43.52-12.6.14.58.29,1.17.43,1.75-14.61,4.2-29.1,8.4-43.39,12.6-.19-.58-.38-1.17-.56-1.75Z" style="fill:#dcdcdc;"/><path d="m222.45,170.74c14.19-4.2,28.61-8.4,43.17-12.6.15.58.31,1.17.47,1.75-14.52,4.2-28.88,8.4-43.01,12.6-.21-.58-.42-1.17-.63-1.75Z" style="fill:#dcdcdc;"/><g><g><path d="m245.26,122.59c-.66-4.78-1.46-9.56-2.54-14.34,3.36,3.43,6.58,6.85,9.71,10.28-.31.28-.61.56-.92.84-2.19-2.41-4.42-4.82-6.72-7.23.67,3.41,1.22,6.82,1.69,10.23-.41.07-.81.15-1.22.22Z" style="fill:#ffc800;"/><path d="m244.38,120.1c-.24-.33-.48-.65-.71-.98,2.19-1.63,4.36-3.27,6.51-4.9.25.33.5.65.74.98-2.15,1.63-4.33,3.27-6.53,4.9Z" style="fill:#ffc800;"/></g><path d="m242.46,106.38c-1.01.76-1.92,1.64-2.66,2.65-.75,1.01-1.31,2.15-1.69,3.35-.38,1.19-.56,2.45-.53,3.7.04,1.24.26,2.48.79,3.55,1.1,2.12,3.08,3.85,5.43,4.26,2.35.46,4.87-.38,6.97-1.77,2.13-1.35,3.89-3.32,4.61-5.66.76-2.31.48-4.98-.9-7.01-.69-1-1.69-1.83-2.79-2.46-1.1-.63-2.33-1.03-3.58-1.15-1.25-.12-2.52.05-3.67.51-1.16.46-2.21,1.17-3.17,2,.43-.46.89-.91,1.39-1.3.51-.38,1.05-.73,1.63-1.01,1.16-.57,2.47-.86,3.82-.82,2.69.11,5.42,1.44,7.16,3.67.85,1.14,1.35,2.47,1.54,3.82.2,1.36.09,2.75-.31,4.07-.8,2.66-2.79,4.87-5.1,6.35-1.16.73-2.42,1.36-3.76,1.72-1.34.36-2.77.46-4.12.18-1.35-.27-2.59-.92-3.61-1.78-1.03-.87-1.84-1.94-2.41-3.18-1.07-2.53-.88-5.42.04-7.88.96-2.47,2.73-4.53,4.93-5.78Z" style="fill:#ffc800;"/><g><path d="m249.21,110.98c-.71-.96-1.43-1.93-2.16-2.89.32-.24.65-.48.97-.71.74.96,1.46,1.93,2.18,2.89-.33.24-.66.48-.98.71Z" style="fill:#ffc800;"/><path d="m247.63,110.66c-.24-.34-.49-.67-.73-1.01.93-.66,1.85-1.33,2.77-1.99.25.34.5.67.75,1.01-.92.66-1.85,1.33-2.78,1.99Z" style="fill:#ffc800;"/></g></g></g><g><path d="m192.03,154.4s6.54-6.69,9.48-10.02c2.94-3.33,9.96-13.89,13.77-13.63,4.28.29,1.19,11.4-4.01,17.39,0,0,6.92,11.03,2.19,17.02-1.02,1.29-8.48,5.39-10.33,5.01l-11.09-15.76Z" style="fill:#a37c58;"/><path d="m210.95,148.92c2.84,4.2,4.83,10.59,2.79,15.22-.06.14.12.24.2.11,2.86-4.67.64-12.08-2.13-15.68-.53-.69-1.59-.73-.86.35Z" style="fill:#1d1d1b; isolation:isolate; opacity:.3;"/></g></g><g><path d="m192.03,154.4l19.65,27.9s.46,5.75-5.4,8.32c-5.86,2.57-30.1,11.31-39.7,8.07-9.6-3.24-36.99-26.83-48.8-42.53-11.82-15.7,5.65-12.57,8.97-11.08,3.32,1.49,42.38,19.91,43.78,19.87,1.39-.03,10.47-6.92,14.75-9.06,4.27-2.14,6.76-1.49,6.76-1.49Z" style="fill:#ffc700;"/><path d="m180.58,198.48c-5.53,1.01-10.66,1.35-13.99.22-9.61-3.25-37-26.84-48.81-42.54-.75-.99-1.37-1.91-1.9-2.75l64.7,45.08Z" style="fill:#1d1d1b; isolation:isolate; opacity:.11;"/><path d="m204.02,188.07c-1.8-2.21-3.3-4.67-4.87-7.03-1.55-2.33-3.08-4.66-4.6-7.01-3.06-4.73-6.26-9.43-9-14.34-.06-.12.09-.22.17-.11,3.54,4.47,6.64,9.31,9.75,14.06,1.56,2.38,3.09,4.79,4.59,7.21,1.44,2.33,2.98,4.66,4.15,7.13.06.12-.12.18-.19.09Z" style="fill:#1d1d1b; isolation:isolate; opacity:.3;"/><g style="opacity:.1;"><path d="m197.72,193.84c-.71.24-1.46.49-2.22.73-.12-.82-.17-1.65-.17-2.45,0-1.56.12-3.06.1-4.56,0-1.49-.13-2.97-.43-4.42-.3-1.44-.81-2.82-1.48-4.08-.17-.32-.36-.63-.54-.92-.17-.28-.38-.57-.58-.85-.44-.56-.89-1.14-1.37-1.7l-2.83-3.44c-.96-1.16-1.91-2.32-2.84-3.51-.95-1.19-1.84-2.42-2.69-3.7-.83-1.3-1.62-2.63-2.26-4.16-.22-.54-.4-1.08-.55-1.62.79-.52,1.57-1.03,2.31-1.49.25.68.53,1.33.84,1.94.62,1.19,1.43,2.41,2.24,3.6,1.65,2.4,3.38,4.82,5.12,7.26.87,1.22,1.76,2.44,2.57,3.73.41.65.81,1.3,1.17,2,.18.36.36.71.52,1.1.15.39.28.75.39,1.13.91,3.03,1.05,6.08,1.4,9.06.26,2.19.67,4.37,1.28,6.34Z" style="fill:#1d1d1b; isolation:isolate; opacity:.3;"/><path d="m189.96,196.25c-.6.17-1.19.34-1.8.5-.74-2.55-.78-5.06-.84-7.53l-.03-3.84c0-.63-.02-1.26-.05-1.88-.03-.62-.06-1.24-.18-1.8-.02-.15-.06-.26-.1-.39l-.15-.42-.18-.41c-.07-.14-.15-.26-.22-.4-.3-.52-.68-1.01-1.11-1.47-.85-.9-1.89-1.65-2.98-2.29-.55-.33-1.11-.62-1.69-.92l-1.73-.88c-1.15-.61-2.34-1.28-3.29-2.37-.23-.27-.46-.57-.64-.89-.09-.16-.17-.33-.25-.5l-.19-.49c-.23-.66-.38-1.33-.5-1.99-.23-1.33-.26-2.65-.23-3.96.01-.39.04-.77.07-1.16.39-.25.81-.52,1.25-.81,0,.66.02,1.31.06,1.96.06,1.25.19,2.49.42,3.68.12.6.28,1.17.48,1.72l.16.41c.06.12.1.24.17.36.13.23.26.47.44.69.67.9,1.61,1.73,2.61,2.5,1,.77,2.09,1.46,3.17,2.17,1.08.69,2.18,1.4,3.17,2.28.5.43.97.91,1.4,1.45.21.26.4.55.58.84l.25.45c.08.16.16.34.22.51.24.68.35,1.33.45,1.99.1.65.16,1.3.22,1.95.1,1.29.17,2.57.25,3.84.08,1.27.18,2.53.3,3.78.11,1.14.26,2.28.52,3.33Z" style="fill:#1d1d1b; isolation:isolate; opacity:.3;"/></g></g></g><g><path d="m62.79,240.88c.06.08,83.99-3.84,84.53-4.36.25-.24,1.34-5.02.06-11.65-3.86-19.9-15.41-60.53-25.6-77.73-2.54-4.29-14.02-10.63-22.35-2.5-16.88,16.48-30.14,58.43-35.36,81.46-2.55,11.26-1.63,14.3-1.28,14.78Z" style="fill:#ffc700;"/><g style="opacity:.1;"><path d="m147.01,222.97c-.25,0-.5.02-.75.04-2.26.17-4.7.63-7.1,1.12-4.83.98-9.74,2.09-14.69,3.19-2.48.55-4.96,1.13-7.51,1.54-1.28.2-2.56.41-3.9.5-.68.04-1.34.09-2.07.08-.69-.02-1.34-.07-2.01-.15-5.32-.57-10.16-2.37-15.05-3.79-4.88-1.43-9.93-2.39-14.42-2.37-1.11,0-2.3.09-3.5.2-1.19.11-2.4.29-3.61.47-2.42.39-4.86.87-7.29,1.4-.3.06-.58.13-.88.2.3-1.29.62-2.64.97-4.04,2.1-.68,4.24-1.29,6.43-1.74,1.28-.28,2.58-.5,3.9-.66.66-.08,1.33-.15,2-.18.66-.05,1.4-.06,2.09-.02,2.82.12,5.45.96,7.86,1.98,2.42,1.01,4.69,2.2,7.02,3.17,2.33.97,4.72,1.77,7.17,2.24,2.44.48,4.93.61,7.35.39.6-.04,1.22-.14,1.79-.22.54-.09,1.13-.23,1.7-.36,1.17-.31,2.36-.64,3.55-1l7.24-2.15c2.42-.73,4.87-1.45,7.34-2.12,2.47-.69,4.98-1.27,7.54-1.74,2.52-.43,5.06-.79,7.79-.77.38,1.69.73,3.29,1.04,4.8Z" style="fill:#1d1d1b; isolation:isolate; opacity:.3;"/><path d="m143.35,207.37c-1.73-.61-3.49-1.11-5.23-1.49-1.01-.21-2.02-.34-3-.39l-.73-.02c-.23.02-.45,0-.68.03-.46.05-.91.11-1.38.22-1.84.45-3.76,1.37-5.61,2.42-1.86,1.06-3.67,2.29-5.47,3.51-1.8,1.22-3.62,2.47-5.64,3.43-1,.49-2.06.91-3.17,1.22-.55.15-1.13.26-1.7.36l-.87.09c-.3.02-.65.02-.94,0-1.22-.07-2.31-.33-3.4-.61-1.08-.27-2.13-.61-3.17-.95-2.08-.69-4.12-1.43-6.16-2.14-2.03-.72-4.07-1.4-6.08-2.02-2.01-.63-4.03-1.18-6-1.48-1-.14-1.88-.17-2.87-.06-.98.1-1.98.31-2.98.56-2,.51-4.01,1.23-5.99,2.02-1.76.71-3.51,1.48-5.25,2.29.19-.71.39-1.42.59-2.15,1.22-.75,2.47-1.46,3.75-2.13,1.96-1.03,3.99-1.94,6.13-2.67,1.08-.34,2.19-.65,3.36-.84,1.16-.21,2.46-.25,3.61-.14,4.67.47,8.79,2.12,12.83,3.73l6,2.48c.99.41,1.99.8,2.97,1.17.98.36,1.97.72,2.91.9.25.06.44.07.69.1l.75.03.76-.02c.26-.02.51-.05.76-.07,1.02-.12,2.03-.39,3.02-.75,1.97-.74,3.82-1.86,5.55-3.14.87-.63,1.69-1.33,2.53-2.02l2.51-2.12c1.7-1.39,3.54-2.8,5.87-3.55.58-.19,1.19-.33,1.81-.41.31-.04.63-.05.95-.07l.89.02c1.18.07,2.32.28,3.43.54,1.35.31,2.64.73,3.9,1.22.25.97.5,1.94.75,2.88Z" style="fill:#1d1d1b; isolation:isolate; opacity:.3;"/></g></g><g><g><path d="m90.62,146.62c-27.4,11.62-48.67,21.73-45.58,32.26,1.21,4.13,8.36,15.28,17.55,15.27,7.22-.01,20.09-11.59,34.76-31.85,7.58-10.47,10.57-23.01-6.73-15.68Z" style="fill:#ffc700;"/><path d="m95.48,167.87c-1.17.97-2.33,1.96-3.47,2.96.24-.28.49-.56.73-.85,1.96-2.32,3.9-4.67,5.84-7.01.04-.05-.04-.11-.08-.07-3.69,3.92-7.41,7.81-11.12,11.72-3.69,3.9-13.47,13.82-15.84,15.77-.05.04.01.12.06.08,2.14-1.67,8.15-6.7,10.07-8.58,2.9-2.84,5.68-5.76,8.36-8.78,1.97-1.6,3.82-3.34,5.58-5.13.07-.07-.05-.19-.13-.13Z" style="fill:#1d1d1b; isolation:isolate; opacity:.3;"/></g><g><g><path d="m54.83,187.79c-11.98-4.91-19.74-41.25-22.68-65.71-.56-4.66,36.24-9.14,36.27-4.13.16,28.61-.47,75.22-13.59,69.84Z" style="fill:#a37c58;"/><g><path d="m27.52,103.01c.22,7.8,6.9,27.34,9.98,30.53,3.08,3.19,26.43-7.97,27.73-12.32,1.3-4.36,2.4-29.9-2.75-35.97-5.15-6.08-35.18,9.68-34.96,17.77Z" style="fill:#a37c58;"/><g><path d="m68.53,96.18c-2.04,3.6-5.11-.87-5.11-.87,0,0,2.87,7.49-.66,10.39-3.42,2.78-6.94-2.74-7.2-3.13.15.4,2.61,7.35-1.25,9.89-4.01,2.64-6.59-3.51-6.76-3.91.02.42.22,5.97-3.14,7.24-5.79,2.17-6.7-12.01-10.59-15.15,0,0-6.08,2.82-6.29,2.96,0,0-1.14-10.31,3.39-15.32,2.39-2.64,5.33-.94,5.33-.94,0,0-.85-4.3,2.12-6.4,1.53-1.07,4.6.42,4.6.42,0,0-.53-3.47,2.23-5.18,2.2-1.37,4.94.34,4.94.34,0,0,1.03-3.57,3.73-4.24,5.44-1.35,19.02,16.19,14.65,23.9Z" style="fill:#a37c58;"/><g><path d="m50.62,76.73c-.05-.05.02-.14.08-.09,5.87,4.68,10.89,11.62,12.92,18.9.07.24-.29.45-.42.2-3.52-7.1-7.21-13.13-12.58-19.02Z" style="fill:#1d1d1b; isolation:isolate; opacity:.3;"/><path d="m42.94,81.24c-.06-.06.05-.16.12-.1,6.03,4.86,11.46,12.83,12.81,21.5.05.3-.21.61-.29.27-1.33-5.69-7.78-16.39-12.64-21.67Z" style="fill:#1d1d1b; isolation:isolate; opacity:.3;"/><path d="m47.44,109.19c-1.61-8.26-5.71-15.17-10.93-21.67-.07-.08.06-.17.13-.12,3.42,2.48,6.32,6.97,8.28,10.65,1.88,3.53,2.86,7.09,2.8,11.08,0,.15-.25.23-.29.06Z" style="fill:#1d1d1b; isolation:isolate; opacity:.3;"/></g><path d="m63.42,95.32c.41,1.49.71,3.02.84,4.55.11,1.51.06,3.11-.58,4.38-.32.63-.82,1.12-1.46,1.37-.65.24-1.37.35-2.04.24-1.35-.2-2.52-1.26-3.23-2.4l-1.78-2.88.67,3.33c.29,1.45.4,3.03.21,4.49-.19,1.46-.77,2.86-1.88,3.6-1.15.79-2.52.81-3.57-.08-1.07-.84-1.88-2.22-2.4-3.56l-1.47-3.74.16,4c.04,1.08-.05,2.25-.28,3.31-.25,1.07-.67,2.1-1.4,2.77-.71.65-1.78.93-2.63.57-.9-.37-1.64-1.28-2.26-2.21-1.24-1.92-2.08-4.13-3.03-6.27-.47-1.08-.93-2.17-1.45-3.23-.53-1.04-1.08-2.15-2.02-2.89.84.83,1.26,1.96,1.72,3.03.43,1.09.81,2.2,1.19,3.31.76,2.23,1.56,4.46,2.76,6.57.63,1.02,1.35,2.11,2.63,2.73,1.32.63,2.9.23,3.91-.69,1.03-.93,1.52-2.19,1.82-3.39.29-1.22.4-2.42.37-3.69l-1.3.26c.61,1.59,1.4,3.07,2.8,4.24.69.57,1.64.98,2.61.96.98,0,1.85-.36,2.61-.87,1.56-1.08,2.2-2.92,2.38-4.55.19-1.68.05-3.3-.3-4.94l-1.11.45c.95,1.43,2.38,2.56,4.15,2.76.87.09,1.72-.09,2.5-.43.81-.35,1.44-1.05,1.78-1.82.68-1.57.54-3.22.32-4.75-.24-1.55-.67-3.06-1.25-4.5Z" style="fill:#1d1d1b; isolation:isolate; opacity:.3;"/></g><g><path d="m65.96,122.89s18.98-34.74,1.26-35.21c-4.28-.11-21.4,6.82-20.17,10.29,1.6,4.48,9.25,3.1,13.92,1.48,0,0-5.62,9.89.1,15.86,3.59,3.74,4.88,7.58,4.88,7.58Z" style="fill:#a37c58;"/><path d="m68.42,87.67c-1.68-.14-3.37.19-5.02.54-1.65.36-3.26.89-4.85,1.47-3.16,1.21-6.26,2.5-9.22,4.27-.74.45-1.47.95-2.12,1.66-.32.35-.63.8-.79,1.32-.09.26-.13.49-.13.84.01.3.06.58.16.83.35,1.02,1.11,1.74,1.94,2.23.84.46,1.74.71,2.63.85,1.79.26,3.54.07,5.22-.26,1.69-.32,3.32-.84,4.92-1.4l-.69-.85c-.62,1.18-1.08,2.36-1.46,3.6-.38,1.23-.64,2.5-.75,3.78-.11,1.28-.03,2.59.23,3.84.26,1.26.77,2.45,1.47,3.5-.55-1.13-.92-2.34-1.06-3.57-.15-1.23-.08-2.47.1-3.68.18-1.22.5-2.41.92-3.57.42-1.15.95-2.29,1.56-3.31l.78-1.29-1.47.43c-1.59.47-3.17.95-4.78,1.19-1.6.27-3.24.44-4.78.19-1.49-.23-3.03-.93-3.45-2.15-.46-1.04.95-2.22,2.27-3.07,1.36-.89,2.84-1.65,4.32-2.41,1.49-.76,2.98-1.5,4.51-2.16,3.06-1.26,6.19-2.56,9.54-2.83Z" style="fill:#1d1d1b; isolation:isolate; opacity:.3;"/></g></g></g><g><path d="m69.9,125.02l-38.27,8.37s-2.52,7.26-.3,14.79c4.22,14.29,16.82,44.98,26.99,44.26,11-.77,13.68-39.12,13.49-57.9-.06-6.34-1.92-9.52-1.92-9.52Z" style="fill:#ffc700;"/><g style="opacity:.1;"><path d="m71.8,139.94c-.01.81-.03,1.64-.06,2.48-.92.46-1.87.9-2.84,1.27-.72.28-1.46.54-2.21.76-.38.11-.76.22-1.15.31-.38.09-.81.17-1.21.22-1.65.2-3.27-.03-4.78-.39-1.51-.35-2.95-.83-4.4-1.16-1.45-.34-2.92-.57-4.39-.6-1.47-.04-2.94.12-4.32.49-.34.09-.69.2-1.02.3-.31.1-.63.24-.96.38-.65.3-1.31.6-1.97.93l-4,1.96c-1.34.66-2.7,1.32-4.07,1.94-.83.39-1.68.76-2.54,1.11-.19-.61-.37-1.19-.54-1.75-.13-.42-.24-.85-.33-1.27,2.1-.82,4.22-1.69,6.35-2.55,1.4-.55,2.78-1.14,4.23-1.63.73-.24,1.45-.49,2.22-.67.39-.09.77-.18,1.2-.25.41-.06.79-.09,1.18-.11,3.16-.18,6.16.39,9.14.74,2.99.36,6.03.42,8.64-.02.65-.11,1.33-.28,2.02-.46.69-.18,1.37-.4,2.06-.63,1.25-.42,2.5-.89,3.76-1.38Z" style="fill:#1d1d1b; isolation:isolate; opacity:.3;"/><path d="m71.59,146.66c-.02.44-.04.89-.06,1.33-.5.42-1.01.84-1.54,1.24-1.04.79-2.13,1.51-3.31,2.15-.6.31-1.22.59-1.88.82-.66.23-1.41.38-2.09.43-2.77.18-5.33-.38-7.85-.93l-3.74-.86c-.61-.14-1.23-.27-1.84-.39-.6-.11-1.22-.23-1.78-.25-.15,0-.26,0-.41.01l-.44.06-.44.09c-.14.03-.29.08-.44.12-.58.17-1.14.42-1.69.73-1.08.62-2.04,1.45-2.93,2.37-.45.46-.86.94-1.29,1.42l-1.25,1.48c-.85.98-1.79,1.98-3.07,2.64-.12.07-.25.13-.39.18-.19-.5-.38-.99-.56-1.48.09-.04.19-.07.28-.11,1.03-.44,2.05-1.16,3.03-1.96.98-.8,1.91-1.69,2.85-2.58.93-.89,1.88-1.8,2.96-2.55.54-.39,1.11-.73,1.72-1.02.31-.14.63-.26.96-.37l.5-.14c.17-.04.38-.07.55-.09.71-.07,1.38-.03,2.04.02.66.06,1.3.15,1.94.25,1.28.2,2.54.44,3.79.65,1.25.22,2.5.42,3.74.58,1.24.17,2.47.3,3.64.28.6-.02,1.12-.09,1.69-.25.56-.15,1.12-.37,1.68-.61,1.13-.49,2.22-1.11,3.3-1.76.79-.48,1.56-.98,2.33-1.5Z" style="fill:#1d1d1b; isolation:isolate; opacity:.3;"/></g><g><path d="m69.41,135.32c-18.92,5.31-32.62,7.78-35.25,8.19-.07.01-.1-.09-.03-.11,13.16-4.03,33.97-8.21,35.25-8.31.14-.01.16.2.03.23Z" style="fill:#1d1d1b; isolation:isolate; opacity:.3;"/><path d="m71.28,158.07c-.45,3.59-1.47,9.28-2.3,12.79-.05.22-.11.44-.16.66.22,1.27.36,2.53.35,3.83-.01,1.5-.13,2.98-.28,4.47,0,.06-.1.06-.1,0,.11-1.48.07-2.97-.04-4.44-.07-.88-.14-1.77-.22-2.65-.8,3.36-1.65,6.71-2.7,10-.02.06-.11.03-.09-.03.79-3.57,1.63-7.14,2.29-10.74.65-3.57,2.16-12.04,2.79-15.61.5-2.83.59.61.45,1.73Z" style="fill:#1d1d1b; isolation:isolate; opacity:.3;"/></g></g></g></g><g><g><path d="m106.16,143.13c.44,1.31,7.7,9.4,13.8,8.51,1.99-.29.88-11.21.88-11.21l.1-.82,1.43-11.55-16.13-8.16s-.26,22.68-.08,23.23Z" style="fill:#a37c58;"/><path d="m122.37,128.07l-1.43,11.54-.1.83s.2,1.98.28,4.27c-8.48-.43-12.92-6.33-15.01-10.5.04-6.55.13-14.3.13-14.3l16.13,8.17Z" style="fill:#1a2e35; opacity:.42;"/></g><g><path d="m140.36,108.38c5.89,24.22-7.95,30.48-13.18,31.75-4.74,1.15-21.04,4.45-29.39-19.03-8.36-23.48,1.04-33.88,11.75-37.07,10.71-3.2,24.94.14,30.82,24.36Z" style="fill:#a37c58;"/><g><path d="m133.4,109.08c-.59.03-1.14-.04-1.72-.07-.66-.03-1.19,0-1.74-.4-.3-.22-.37-.76-.18-1.07.44-.72,1.25-.88,2.05-.87.86,0,1.53.24,2.19.79.64.53.18,1.58-.6,1.62Z" style="fill:#1d1d1b;"/><path d="m116.17,112.77c.57-.17,1.06-.41,1.6-.63.61-.25,1.12-.39,1.51-.96.21-.31.1-.84-.18-1.07-.65-.53-1.47-.41-2.22-.14-.81.29-1.36.73-1.81,1.47-.43.72.36,1.55,1.1,1.33Z" style="fill:#1d1d1b;"/><path d="m123.46,129.49c.45.35.91.85,1.53.84.59-.01,1.25-.35,1.77-.62.05-.03.11.02.08.08-.37.69-1.25,1.2-2.04,1.15-.78-.05-1.23-.67-1.49-1.35-.04-.1.09-.15.15-.09Z" style="fill:#1d1d1b;"/><g><path d="m129.58,125.46s-.69,1.85-2.08,2.84c-.51.37-1.1.62-1.79.64-1.42.03-1.8-1.17-1.86-2.28-.05-.91.14-1.76.14-1.76,0,0,2.45,1.25,5.6.56Z" style="fill:#fff;"/><g><path d="m128.73,127.03c-.07.09-.14.2-.22.29-.45.04-.9.05-1.35-.01.53-.08,1.06-.18,1.57-.28Z" style="fill:#dcdcdc;"/><path d="m125.74,127.21c-.35,0-.69-.03-1.03-.12-.29-.06-.57-.18-.85-.3,0-.04,0-.09-.01-.12,0-.06-.01-.12-.01-.19.6.3,1.25.5,1.9.73Z" style="fill:#dcdcdc;"/></g></g><path d="m129.46,122.28s.76,2.44.96,3.62c.02.11-.26.21-.66.3-.02,0-.03.02-.05,0-2.03.67-4.25.3-5.79-1.19-.1-.1.03-.25.15-.19,1.74.88,3.51.89,5.36.62.03-.34-1.45-4.19-1.26-4.19.81,0,2.25.12,2.78.16-.46-1.6-1.98-6.07-2.81-8.98-.05-.18.22-.29.3-.13,1.9,4.25,2.83,6.5,3.89,9.92.08.27-2.37.17-2.87.05Z" style="fill:#1d1d1b;"/><path d="m117.52,117.3c.01-.4.12-.82.36-1.21.25-.39.71-.65,1.17-.72.47-.07,1,.14,1.31.47.3.33.49.71.61,1.09.07.24.11.49.15.74.06.52.04,1.05-.14,1.54-.03-.38-.1-.76-.2-1.11-.1-.34-.22-.65-.35-.96-.3-.63-.75-1.13-1.27-1.02-.56.06-.9.56-1.03,1.25-.13.68-.14,1.41-.14,2.16-.31-.69-.48-1.44-.45-2.24Z" style="fill:#1d1d1b;"/><path d="m134.27,114.06c-.16-.36-.42-.71-.79-.98-.38-.27-.9-.33-1.35-.23-.46.11-.88.51-1.03.93-.15.42-.19.84-.15,1.24.02.25.08.5.14.74.14.51.36.99.71,1.38-.12-.37-.19-.74-.23-1.11-.04-.35-.05-.69-.03-1.02.04-.69.27-1.33.79-1.43.54-.15,1.05.18,1.43.77.38.58.66,1.26.94,1.95.03-.75-.1-1.52-.43-2.24Z" style="fill:#1d1d1b;"/></g><g><path d="m95.39,123.27c7.41.08,10.74-8.94,8.6-15.92,0,0,19.78,1.44,19.79-14.36,0,0,4.26,6.61,13.17,6.32l2.54,5.68c1.98-.7,3.78-6.55-1.41-10.74,0,0-.8-7.83-6.87-12.2-6.07-4.37-11.64-.93-11.64-.93,0,0-4.83-3.57-12-2.22-7.17,1.35-9.76,8.12-9.76,8.12,0,0-9.61,2.43-10.86,9.43-1.25,7,2.59,11.42,2.59,11.42,0,0-2.28,2.86-.69,8.68,1.02,3.74,4.32,6.71,6.54,6.74Z" style="fill:#1d1d1b;"/><path d="m123.26,91.61c.21,1.28.33,2.56.27,3.84,0,1.28-.19,2.54-.49,3.76-.65,2.43-2.1,4.6-4.21,5.92-2.04,1.48-4.64,1.85-7.13,2.24-1.27.04-2.56.16-3.84.13-1.28-.05-2.57-.14-3.87-.17,1.27.23,2.56.41,3.85.61,1.29.13,2.61.08,3.92.12,2.58-.26,5.31-.64,7.57-2.18,2.26-1.49,3.86-3.91,4.39-6.52.52-2.61.32-5.3-.46-7.77Z" style="fill:#1d1d1b;"/><path d="m97.81,87c-2.46.17-4.91.84-7.14,2-2.23,1.14-4.19,3.02-5.18,5.43-.45,1.22-.67,2.48-.71,3.75-.08,1.26.06,2.55.41,3.77.68,2.44,2.25,4.63,4.36,5.92-1.88-1.59-3.18-3.77-3.68-6.09-.49-2.3-.38-4.84.47-7,.42-1.09,1.07-2.08,1.87-2.95.83-.84,1.77-1.58,2.81-2.2,2.07-1.23,4.4-2.07,6.8-2.6Z" style="fill:#1a2e35;"/><path d="m119.57,81.1c1.84-.78,3.76-1.3,5.7-1.46,1.93-.15,3.88.1,5.61.9,1.73.8,3.17,2.13,4.32,3.69,1.14,1.58,2.02,3.37,2.66,5.26-.28-1.99-1.01-3.91-2.08-5.65-1.07-1.74-2.62-3.23-4.52-4.13-1.9-.86-4.06-1.1-6.07-.77-2.02.31-3.95,1.04-5.62,2.15Z" style="fill:#1a2e35;"/><path d="m133.91,100.12c-2.23-.67-4.33-1.55-6.14-2.85-.93-.62-1.71-1.41-2.44-2.26-.75-.84-1.26-1.86-1.83-2.88.21,1.14.58,2.3,1.26,3.3.64,1.01,1.49,1.9,2.48,2.59.98.69,2.06,1.24,3.19,1.58,1.13.35,2.3.57,3.48.53Z" style="fill:#1d1d1b;"/></g><g><path d="m118.32,126.51c-3.87.27-7.6-2.1-8.87-5.95-1.51-4.56.98-9.49,5.53-11,4.56-1.51,9.49.97,11,5.53h0c1.51,4.56-.98,9.49-5.53,11-.7.23-1.42.37-2.12.42Zm-1.14-16.21c-.61.04-1.23.16-1.84.36-3.95,1.3-6.1,5.58-4.79,9.53,1.31,3.95,5.58,6.1,9.53,4.79,3.95-1.31,6.1-5.58,4.79-9.53-1.1-3.34-4.33-5.39-7.69-5.16Z" style="fill:#ffc800;"/><path d="m137.18,122.75c-3.32.23-6.58-2.96-7.42-7.42-.43-2.25-.19-4.5.68-6.32.89-1.89,2.34-3.11,4.07-3.44,1.74-.33,3.53.28,5.05,1.71,1.47,1.38,2.51,3.39,2.94,5.64.89,4.72-1.24,9.09-4.75,9.76-.19.04-.38.06-.57.07Zm-2.01-16.09c-.15.01-.29.03-.44.06-1.36.26-2.51,1.25-3.24,2.79-.76,1.6-.97,3.6-.59,5.61.77,4.09,3.74,6.97,6.63,6.42,2.88-.54,4.59-4.31,3.82-8.4-.38-2.01-1.3-3.79-2.59-5.01-1.11-1.04-2.37-1.56-3.59-1.47Z" style="fill:#ffc800;"/><path d="m125.96,116.12l-.76-.62c.92-1.12,3.22-2.84,5.33-1.29l-.58.79c-1.89-1.39-3.91,1.02-3.99,1.12Z" style="fill:#ffc800;"/><path d="m91.51,124.57l-.94-.28c.13-.44,1.34-4.31,3.43-5.06,1.95-.7,15.1-1.93,15.66-1.99l.09.98c-3.77.35-13.91,1.38-15.42,1.93-1.38.5-2.5,3.36-2.82,4.42Z" style="fill:#ffc800;"/></g><g><path d="m102.93,122.21s-6.55-6.87-9.75-4.42c-3.2,2.45,2.55,12.98,6.88,13.88,4.33.9,5.24-3.09,5.24-3.09l-2.37-6.37Z" style="fill:#a37c58;"/><path d="m94.9,120.77c-.07,0-.07.1,0,.11,3.05.72,4.97,3.16,6.45,5.76-1.02-.93-2.27-1.34-3.54-.1-.07.06.02.17.1.14,1.14-.43,2.02-.36,2.96.46.67.58,1.18,1.37,1.7,2.07.17.24.62.03.47-.25-.01-.02-.02-.04-.03-.06-.49-3.67-4.12-8.36-8.11-8.13Z" style="fill:#1d1d1b;"/></g></g></g><path d="m96.1,144.8c-1-1.25,5.48-4.93,7.17-3.53,1.69,1.39,10.21,23.03,7.44,46.5-2.77,23.47-48.22,48.75-49.89,45.24-.7-1.47.2-5.59,1.3-6.91,1.56-1.86,34.37-22.21,37.61-36.77,2.88-12.94-1.07-41.35-3.63-44.53Z" style="fill:#394547;"/><path d="m121.67,144.3c-1.36-2.59,5.66-.51,6.43.89.77,1.39,10.17,23.82,11.79,38.49.65,5.87,2.93,21.68,2.93,21.68,0,0-6.87-21.23-12.52-38.97-3.61-11.34-8.06-21.02-8.62-22.09Z" style="fill:#394547;"/></g></g></svg>