<?xml version="1.0" encoding="UTF-8"?><svg id="a" xmlns="http://www.w3.org/2000/svg" viewBox="0 0 300 300"><g><g><path d="m258.16,218.63c2.53-1.31,5.52-1.48,8.33-1.01,1.51.25,3.09.7,4.11,1.84,1.03,1.14,1.22,3.13.04,4.11-.7.58-1.68.67-2.59.66-2.2-.03-4.64-.41-6.4.91-1,.76-1.67,2.01-2.87,2.38-1.17.36-2.5-.33-3.12-1.39-.62-1.06-.64-2.38-.35-3.58,0,0,.31-2.6,2.86-3.92Z" style="fill:#ececec;"/><path d="m252.36,207.42c1.55,2.21,4.56,1.48,5.96.13,1.4-1.35,1.99-3.31,2.52-5.17,1.23-4.26,2.46-8.74,1.55-13.08-.27-1.3-.76-2.59-1.67-3.56-.91-.96-2.32-1.54-3.6-1.2-1.52.4-2.46,1.89-3.14,3.3-2,4.16-3.07,8.77-3.08,13.38,0,2.16.25,4.42,1.46,6.2" style="fill:#ececec;"/><path d="m248.11,210.6c1.68-2,2-4.91,1.25-7.41-.75-2.5-2.44-4.63-4.39-6.37-2.28-2.04-4.97-3.62-7.86-4.64-1.14-.4-2.33-.71-3.53-.6-1.2.11-2.41.73-2.97,1.79-.83,1.58-.03,3.49.82,5.05,1.51,2.75,3.24,5.38,5.16,7.86,1.55,1.99,3.32,3.96,5.68,4.86,2.36.9,4.81.8,6.06-.84" style="fill:#ececec;"/><path d="m252.25,240.8s.08-.36.14-1.01c.07-.73.16-1.65.27-2.74.13-1.15.3-2.53.62-4.02.32-1.49.82-3.11,1.46-4.75.67-1.63,1.48-3.11,2.43-4.3.94-1.19,2.04-2.05,3.07-2.55,1.03-.51,1.95-.71,2.58-.8.64-.07,1-.12,1-.14,0-.03-.36-.03-1.02-.02-.65.04-1.61.21-2.69.7-1.09.48-2.25,1.36-3.23,2.57-1,1.21-1.84,2.72-2.51,4.38-.65,1.67-1.15,3.3-1.45,4.83-.3,1.52-.44,2.91-.54,4.08-.09,1.17-.12,2.11-.14,2.76-.01.65,0,1.01.02,1.02Z" style="fill:#e1e1e1;"/><path d="m252.44,238.69s.02-.16.03-.47c0-.35,0-.79,0-1.33,0-1.16,0-2.83.06-4.9.1-4.14.46-8.59,1.15-14.87.65-5.9,1.53-12.77,2.45-17.24.2-1.02.4-1.93.58-2.73.18-.8.33-1.49.48-2.05.13-.53.23-.96.31-1.3.07-.3.1-.46.08-.46-.01,0-.07.15-.16.44-.1.34-.23.76-.39,1.28-.17.55-.35,1.24-.55,2.04-.21.8-.43,1.71-.65,2.72-.91,4.05-1.88,9.7-2.57,16-.69,6.29-1,12.02-1.03,16.17-.02,2.07.02,3.75.07,4.91.03.54.06.98.08,1.33.02.3.04.46.06.46Z" style="fill:#e1e1e1;"/><path d="m252.47,227.64s.02-.5,0-1.39c-.05-.9-.17-2.19-.43-3.78-.27-1.58-.64-3.46-1.23-5.5-.25-.93-.85-3.17-2.3-6.51-1.91-4.53-4.5-8.23-6.76-10.52-.53-.61-1.12-1.05-1.59-1.48-.24-.21-.46-.41-.68-.57-.22-.15-.43-.29-.62-.43-.74-.51-1.16-.78-1.17-.75-.07.09,1.66,1.11,3.85,3.43,2.17,2.32,4.69,5.99,6.59,10.48,1.06,2.43,1.79,4.61,2.31,6.45.6,2.02,1,3.88,1.31,5.45.29,1.57.45,2.85.55,3.74.08.89.14,1.38.17,1.38Z" style="fill:#e1e1e1;"/></g><polygon points="241.79 247.13 242.9 262.3 262.38 262.3 263.49 247.13 241.79 247.13" style="fill:#e1e1e1;"/><rect x="239.91" y="241.15" width="25.91" height="5.98" style="fill:#e1e1e1;"/><polygon points="239.91 261.72 239.91 263.38 241.13 263.38 265.39 263.38 265.39 261.72 239.91 261.72" style="fill:#ececec;"/><polygon points="242.32 266.29 241.13 263.38 264.46 263.38 263.07 266.29 242.32 266.29" style="fill:#e1e1e1;"/><path d="m263.13,252.09s-.03.05-.09.14c-.08.1-.17.23-.29.39-.28.35-.66.84-1.14,1.45l-.05.06-.05-.07c-.71-.99-1.67-2.3-2.79-3.86h.16c-.83,1.17-1.75,2.48-2.75,3.89l-.09.12-.1-.11c-1.01-1.21-2.11-2.51-3.26-3.87h.19c-.06.07-.12.15-.18.22-1.01,1.27-1.99,2.49-2.91,3.65l-.1.12-.09-.13c-.99-1.4-1.91-2.71-2.75-3.89h.16c-1.35,1.55-2.5,2.86-3.38,3.86l-.06.07-.05-.08c-.45-.75-.8-1.35-1.06-1.78-.11-.19-.2-.35-.27-.47-.06-.11-.09-.17-.08-.17,0,0,.04.05.11.15.08.12.18.27.3.46.27.43.64,1.01,1.11,1.75h-.11c.87-1.02,2-2.35,3.33-3.91l.08-.1.08.11c.84,1.18,1.77,2.48,2.77,3.87h-.19c.92-1.17,1.9-2.39,2.9-3.66.06-.08.12-.15.18-.23l.09-.12.1.11c1.14,1.36,2.24,2.67,3.25,3.88h-.18c1-1.39,1.94-2.69,2.77-3.86l.08-.11.08.11c1.1,1.57,2.03,2.9,2.73,3.9h-.1c.5-.6.89-1.07,1.18-1.42.13-.15.23-.27.32-.37.07-.08.11-.12.12-.12Z" style="fill:#f5f5f5;"/><path d="m263.76,247.03c0,.07-4.88.12-10.9.12s-10.9-.05-10.9-.12,4.88-.12,10.9-.12,10.9.05,10.9.12Z" style="fill:#f5f5f5;"/><path d="m264.75,263.54c0,.07-5.31.12-11.85.12s-11.85-.05-11.85-.12,5.3-.12,11.85-.12,11.85.05,11.85.12Z" style="fill:#f5f5f5;"/></g><g><rect x="234.1" y="43.95" width="39.46" height="41.14" style="fill:#e1e1e1;"/><g><rect x="231.43" y="43.95" width="39.46" height="41.14" style="fill:#fafafa;"/><path d="m270.9,85.1h-39.49v-41.16h39.49v41.16Zm-39.46-.02h39.44v-41.11h-39.44v41.11Z" style="fill:#e1e1e1;"/></g><rect x="236.73" y="49.48" width="28.85" height="30.08" style="fill:#fafafa;"/><path d="m236.73,79.76s-.25.34-.71.83c-.46.49-1.11,1.14-1.83,1.86-.73.72-1.39,1.35-1.89,1.8-.49.45-.81.72-.83.69-.02-.03.25-.34.71-.82.46-.49,1.11-1.15,1.84-1.86.73-.72,1.4-1.36,1.89-1.81.49-.45.81-.72.83-.69Z" style="fill:#e1e1e1;"/><path d="m265.59,79.69s.34.25.83.71c.49.46,1.14,1.11,1.86,1.83.72.73,1.35,1.39,1.8,1.89.45.49.72.81.69.83-.03.02-.34-.25-.82-.71-.49-.46-1.15-1.11-1.86-1.84-.72-.73-1.36-1.4-1.81-1.89-.45-.49-.72-.81-.69-.83Z" style="fill:#e1e1e1;"/><path d="m265.51,49.56s.25-.34.71-.83c.46-.49,1.11-1.14,1.83-1.86.73-.72,1.39-1.35,1.88-1.8.49-.45.81-.72.83-.69.02.03-.25.34-.71.82-.46.49-1.11,1.15-1.84,1.86-.73.72-1.4,1.36-1.89,1.81-.49.45-.81.72-.83.69Z" style="fill:#e1e1e1;"/><path d="m236.65,49.64s-.34-.25-.83-.71c-.49-.46-1.14-1.11-1.86-1.83-.72-.73-1.35-1.39-1.8-1.88-.45-.49-.72-.81-.69-.83.02-.03.34.25.82.71.49.46,1.15,1.11,1.86,1.84.72.73,1.36,1.4,1.81,1.89s.72.81.69.83Z" style="fill:#e1e1e1;"/><path d="m265.51,79.56s0-.05,0-.15c0-.1,0-.24,0-.42,0-.38,0-.92-.01-1.62,0-1.42-.02-3.5-.03-6.13-.01-5.27-.03-12.77-.06-21.76l.11.11c-8.4,0-18.26.01-28.77.02h0l.13-.13c0,11.04-.01,21.37-.02,30.08l-.11-.11c8.62.02,15.8.04,20.84.06,2.51.01,4.49.02,5.85.03.67,0,1.19,0,1.55.01.17,0,.3,0,.4,0,.09,0,.14,0,.14,0,0,0-.04,0-.13,0-.1,0-.22,0-.39,0-.35,0-.86,0-1.53.01-1.35,0-3.32.02-5.83.03-5.05.01-12.25.03-20.91.06h-.11s0-.11,0-.11c0-8.71-.01-19.04-.02-30.08v-.13s.13,0,.13,0h0c10.51,0,20.37.01,28.77.02h.11v.11c-.02,9.02-.04,16.54-.06,21.83-.01,2.62-.02,4.69-.03,6.11,0,.69,0,1.23-.01,1.6,0,.17,0,.31,0,.41,0,.09,0,.14,0,.13Z" style="fill:#e1e1e1;"/><rect x="246.35" y="59.71" width="9.63" height="9.63" style="fill:#ececec;"/></g><g><rect x="234.1" y="94.85" width="39.46" height="41.14" style="fill:#e1e1e1;"/><g><rect x="231.43" y="94.85" width="39.46" height="41.14" style="fill:#fafafa;"/><path d="m270.9,136h-39.49v-41.16h39.49v41.16Zm-39.46-.02h39.44v-41.11h-39.44v41.11Z" style="fill:#e1e1e1;"/></g><rect x="236.73" y="100.38" width="28.85" height="30.08" style="fill:#fafafa;"/><path d="m236.73,130.65s-.25.34-.71.83c-.46.49-1.11,1.14-1.83,1.86-.73.72-1.39,1.35-1.89,1.8-.49.45-.81.72-.83.69-.02-.03.25-.34.71-.82.46-.49,1.11-1.15,1.84-1.86.73-.72,1.4-1.36,1.89-1.81.49-.45.81-.72.83-.69Z" style="fill:#e1e1e1;"/><path d="m265.59,130.58s.34.25.83.71c.49.46,1.14,1.11,1.86,1.83.72.73,1.35,1.39,1.8,1.89.45.49.72.81.69.83-.03.02-.34-.25-.82-.71-.49-.46-1.15-1.11-1.86-1.84-.72-.73-1.36-1.4-1.81-1.89-.45-.49-.72-.81-.69-.83Z" style="fill:#e1e1e1;"/><path d="m265.51,100.46s.25-.34.71-.83c.46-.49,1.11-1.14,1.83-1.86.73-.72,1.39-1.35,1.88-1.8.49-.45.81-.72.83-.69.02.03-.25.34-.71.82-.46.49-1.11,1.15-1.84,1.86-.73.72-1.4,1.36-1.89,1.81-.49.45-.81.72-.83.69Z" style="fill:#e1e1e1;"/><path d="m236.65,100.53s-.34-.25-.83-.71c-.49-.46-1.14-1.11-1.86-1.83-.72-.73-1.35-1.39-1.8-1.88-.45-.49-.72-.81-.69-.83.02-.03.34.25.82.71.49.46,1.15,1.11,1.86,1.84.72.73,1.36,1.4,1.81,1.89s.72.81.69.83Z" style="fill:#e1e1e1;"/><path d="m265.51,130.45s0-.05,0-.15c0-.1,0-.24,0-.42,0-.38,0-.92-.01-1.62,0-1.42-.02-3.5-.03-6.13-.01-5.27-.03-12.77-.06-21.76l.11.11c-8.4,0-18.26.01-28.77.02h0l.13-.13c0,11.04-.01,21.37-.02,30.08l-.11-.11c8.62.02,15.8.04,20.84.06,2.51.01,4.49.02,5.85.03.67,0,1.19,0,1.55.01.17,0,.3,0,.4,0,.09,0,.14,0,.14,0,0,0-.04,0-.13,0-.1,0-.22,0-.39,0-.35,0-.86,0-1.53.01-1.35,0-3.32.02-5.83.03-5.05.01-12.25.03-20.91.06h-.11s0-.11,0-.11c0-8.71-.01-19.04-.02-30.08v-.13s.13,0,.13,0h0c10.51,0,20.37.01,28.77.02h.11v.11c-.02,9.02-.04,16.54-.06,21.83-.01,2.62-.02,4.69-.03,6.11,0,.69,0,1.23-.01,1.6,0,.17,0,.31,0,.41,0,.09,0,.14,0,.13Z" style="fill:#e1e1e1;"/><rect x="246.35" y="110.6" width="9.63" height="9.63" style="fill:#ececec;"/></g><g><rect x="29.42" y="33.36" width="66.98" height="110.86" style="fill:#e1e1e1;"/><rect x="27.2" y="33.36" width="66.98" height="110.86" style="fill:#ececec;"/><rect x="30.05" y="35.61" width="61.27" height="106.37" style="fill:#fafafa;"/><g><rect x="41.71" y="49.43" width="37.68" height="78.72" style="fill:#ececec;"/><path d="m41.71,100.3c-.09-7.35,6.52-14.53,13.81-15.56,3.47-.49,7.16.2,10.41-1.13,5.79-2.37,7.63-10.07,13.46-12.35l.27,56.9h-37.94v-27.86Z" style="fill:#e1e1e1;"/></g></g><g><g><polygon points="116.66 163.05 128.99 160.67 152.65 166.1 164.64 168.6 164.81 184.98 138.07 189.91 120.02 184.56 113.19 174.52 116.66 163.05" style="fill:#d19c5e;"/><path d="m107.9,164.68l11.64-2.74s8.23,25.44,28.54,24.34c16.55-.89,16.57-17.69,16.57-17.69l12.1,2.14s5.07,30.72-.49,52.27c-4.63,17.94-8.73,42.53-8.73,42.53h-80.39l20.77-100.86h0Z" style="fill:#ffc700;"/><path d="m225.82,243.4s-33.16-58.08-39.12-65.54c-6.53-8.16-11.74-7.22-11.74-7.22l-3.51,39.13,28.19,40,6.72,2.42,19.47-8.79Z" style="fill:#ffc700;"/><path d="m109.29,164.35s-18.84,1.51-25.61,32.38c-3.06,13.96-6.92,30.33-8.04,41.33-.81,7.98,4.12,16.28,12.07,17.3l9.99,1.85c5.48,1.02,10.8-2.43,12.11-7.85l3.38-13.97-8.98-2.99,2.08-41.62,2.99-26.43Z" style="fill:#ffc700;"/><path d="m178.29,192.33s.04.15.09.43c.05.31.11.73.19,1.24.04.27.08.57.13.9.03.33.07.69.11,1.08.08.77.17,1.65.21,2.63.14,1.95.14,4.28.05,6.87-.11,2.58-.4,5.42-.83,8.37-.43,2.95-.98,5.74-1.53,8.27-.54,2.53-1.1,4.79-1.57,6.68-.48,1.89-.88,3.42-1.17,4.48-.14.5-.25.91-.34,1.21-.08.28-.13.42-.14.42-.01,0,.02-.15.08-.43.07-.31.16-.72.28-1.23.26-1.09.63-2.62,1.07-4.5.44-1.9.98-4.16,1.5-6.69.54-2.52,1.07-5.31,1.5-8.25.43-2.94.73-5.76.86-8.34.11-2.57.13-4.9.02-6.84-.03-.97-.11-1.85-.17-2.63-.03-.38-.06-.74-.08-1.08-.04-.33-.07-.63-.1-.9-.06-.52-.1-.94-.13-1.25-.03-.29-.04-.44-.03-.44Z" style="fill:#1a2e35;"/><path d="m114.07,236.91s-.04-.08-.1-.25c-.06-.19-.14-.44-.24-.74-.1-.34-.23-.74-.37-1.2-.16-.47-.23-1.06-.67-1.5-.42-.45-1.04-.79-1.74-1.06-.7-.28-1.5-.48-2.35-.66-1.71-.34-3.68-.54-5.81-.6h-.16s.02-.16.02-.16c.51-3.32,1.09-7.1,1.7-11.09,1.1-6.99,2.09-13.31,2.82-17.92.37-2.27.67-4.12.89-5.43.11-.62.19-1.11.26-1.47.03-.15.05-.28.07-.38.02-.09.03-.13.04-.13,0,0,0,.05,0,.13-.01.11-.03.23-.04.39-.05.36-.12.86-.2,1.48-.19,1.31-.46,3.16-.79,5.44-.7,4.61-1.66,10.94-2.73,17.94-.62,3.99-1.21,7.77-1.73,11.09l-.13-.16c2.15.07,4.12.29,5.85.65.86.19,1.66.41,2.38.7.71.29,1.35.65,1.79,1.14.22.24.37.53.45.81.08.27.15.53.21.77.13.47.24.87.33,1.21.08.31.15.56.2.76.04.17.06.26.05.26Z" style="fill:#1a2e35;"/><path d="m88.12,241.64s.02-.28.15-.78c.12-.49.35-1.2.73-2.03.74-1.66,2.19-3.83,4.47-5.49,2.27-1.66,4.79-2.37,6.59-2.56.91-.1,1.65-.1,2.16-.07.51.03.79.08.78.1,0,.06-1.13-.07-2.91.18-1.77.24-4.22.98-6.44,2.6-2.22,1.62-3.68,3.72-4.45,5.33-.79,1.62-1.01,2.73-1.07,2.72Z" style="fill:#1a2e35;"/><path d="m92.47,226.26s.16-.04.46-.04c.29-.01.72,0,1.24.06,1.05.1,2.49.39,3.98,1,1.49.62,2.72,1.42,3.53,2.09.41.33.72.62.92.83.2.21.31.34.29.35-.04.04-.51-.4-1.34-1.02-.83-.61-2.06-1.37-3.52-1.98-1.46-.6-2.86-.92-3.89-1.07-1.03-.15-1.67-.17-1.67-.22Z" style="fill:#1a2e35;"/><path d="m111.98,186.28s-.04-.3-.05-.83c0-.53-.03-1.3-.1-2.24-.13-1.89-.48-4.49-1.25-7.27-.78-2.78-1.84-5.19-2.71-6.86-.44-.84-.81-1.51-1.08-1.97-.27-.46-.41-.72-.39-.73s.19.23.49.67c.3.44.71,1.09,1.17,1.93.93,1.66,2.02,4.08,2.82,6.88.78,2.81,1.1,5.44,1.18,7.34.04.95.04,1.72,0,2.25-.03.53-.05.82-.07.82Z" style="fill:#1a2e35;"/><g style="opacity:.3;"><path d="m177.42,218.25c4.81-8.14,4.91-18.72.72-27.2,1.25,9.02,1.15,18.27-.86,27.16"/></g><g style="opacity:.3;"><path d="m134.66,227.46c-3.65,1.07-8.7,1.33-12.25-.02,2.78,3.95,8.15,5.38,12.8,4.09,4.65-1.29,8.95-5.95,9.31-10.76-2.25,3.06-6.21,5.61-9.85,6.69Z"/></g><path d="m148.07,214.31s-.02.11-.08.33c-.07.21-.15.52-.31.91-.29.78-.79,1.89-1.57,3.18-.78,1.28-1.86,2.72-3.29,4.1-1.43,1.38-3.21,2.68-5.28,3.68-2.07.98-4.21,1.56-6.18,1.81-1.97.25-3.77.21-5.26,0-1.49-.19-2.67-.5-3.46-.76-.4-.12-.7-.25-.91-.33-.2-.08-.31-.13-.31-.14,0-.03.45.12,1.25.35.8.23,1.98.5,3.45.66,2.93.35,7.18.08,11.28-1.88,4.1-1.97,6.96-5.12,8.52-7.62.79-1.25,1.32-2.34,1.64-3.11.32-.77.48-1.2.51-1.19Z" style="fill:#1a2e35;"/><path d="m107.42,254.83s-.04.06-.15.16c-.11.09-.25.24-.47.4-.42.33-1.09.73-1.99,1.05-.9.33-2.03.53-3.29.59-1.26.06-2.64-.02-4.08-.14-2.88-.25-5.46-.67-7.33-1-.93-.17-1.68-.31-2.2-.42-.52-.11-.8-.18-.8-.2,0-.02.29,0,.82.08.58.08,1.32.19,2.21.32,1.87.28,4.45.66,7.32.91,1.43.13,2.8.22,4.04.17,1.24-.04,2.35-.22,3.23-.52,1.79-.58,2.63-1.47,2.67-1.4Z" style="fill:#1a2e35;"/></g><g><g><path d="m172.78,102.55l2.38-2.31c3.17,1.38,4.64,5.05,5.17,8.47.53,3.41.46,7,1.91,10.14,1.11,2.41,3.13,4.65,2.89,7.29-.23,2.52-2.51,4.56-2.52,7.09-.01,2.43,2.03,4.31,3.21,6.43,2.39,4.32,3.94,21.95,2.69,26.73-10.51-.91-29.14-2.03-39.66-4.45,2.78-18.12,14.45-43.7,23.94-59.39Z" style="fill:#1d1d1b;"/><g><g><g><g><path d="m157.92,173.67s-.01.17,0,0h0Z" style="fill:#ffbf9d;"/><path d="m177.49,118.72c.73-12.32-8.22-23.6-20.69-25.08-13.24-1.57-24.94,7.9-26.04,20.8l-3.1,52.05c-.06,1.01.23,2,.8,2.83,3.06,4.47,8.59,7.96,13.54,8.65,4.79.67,9.65-.58,13.72-2.84,1.38-.77,2.22-2.23,2.25-3.81l.21-11.65s.03-.08.08-.08c.72.05,2.56.08,3.27-.09,3.08-.75,10.94-3.77,13.57-15.3.87-3.82,1.76-14.67,2.4-25.48Z" style="fill:#d19c5e;"/></g><path d="m160.37,135.74c0-.12,1.29-.24,3.37-.36.53-.02,1.03-.08,1.14-.43.15-.36-.04-.93-.25-1.55-.41-1.28-.84-2.63-1.3-4.03-1.79-5.74-3.06-10.45-2.82-10.51.24-.07,1.88,4.53,3.67,10.27.43,1.41.84,2.76,1.23,4.05.16.6.46,1.29.14,2.04-.17.38-.57.63-.91.69-.34.08-.64.06-.9.06-2.09-.03-3.38-.12-3.38-.23Z" style="fill:#1d1d1b;"/></g><path d="m174.09,123.08c-.23.25-1.59-.9-3.55-.95-1.96-.09-3.41.96-3.62.7-.1-.12.14-.58.77-1.05.62-.47,1.68-.92,2.91-.88,1.22.04,2.24.56,2.82,1.08.59.52.79.99.68,1.1Z" style="fill:#1d1d1b;"/><path d="m154.21,123.57c-.27.25-1.69-1.04-3.83-1.22-2.14-.21-3.8.79-4.01.5-.1-.13.18-.59.91-1.05.71-.46,1.9-.86,3.23-.73,1.33.12,2.41.73,3.02,1.31.62.58.8,1.09.67,1.2Z" style="fill:#1d1d1b;"/><path d="m158.17,159.58s-7.97.09-17.51-6.47c0,0,2.47,10.52,17.45,10.19l.06-3.73Z" style="fill:#1d1d1b; isolation:isolate; opacity:.3;"/><path d="m159.19,140.54c-.68-1.01-1.94-1.63-3.23-1.58-.9.03-1.83.39-2.41,1.07-.59.68-.77,1.68-.32,2.4.5.8,1.65,1.06,2.65.86,1-.21,1.88-.78,2.72-1.36.23-.16.47-.33.63-.56.15-.23.2-.54.05-.75" style="fill:#f66;"/><path d="m154.24,136.71c.34,0,.2,2.2,2.01,3.88,1.8,1.69,4.2,1.61,4.19,1.92.02.14-.56.39-1.56.35-.99-.04-2.4-.45-3.51-1.48-1.1-1.04-1.52-2.34-1.54-3.25-.03-.92.26-1.45.41-1.42Z" style="fill:#1d1d1b;"/><path d="m154.53,115.51c-.24.53-2.27.12-4.7.22-2.43.06-4.42.6-4.71.09-.13-.25.25-.74,1.07-1.21.82-.47,2.09-.88,3.55-.93,1.46-.05,2.77.28,3.62.7.86.42,1.27.88,1.17,1.14Z" style="fill:#1d1d1b;"/><path d="m174.51,115.94c-.42.46-2.07,0-4.04-.02-1.98-.07-3.65.33-4.04-.15-.17-.23.09-.69.82-1.13.72-.44,1.92-.8,3.28-.77,1.36.03,2.54.44,3.23.91.7.47.94.94.75,1.17Z" style="fill:#1d1d1b;"/><g><path d="m158.63,91.03c-1.08-1.83-3.08-2.66-5.31-3-9.12-1.38-19.3,4.11-24.4,11.79-5.11,7.68-5.38,19.13-1.64,27.56l5.69-3.56c11.42-4.71,19.48-15.71,26.83-27.07,1-1.55-.22-4.12-1.16-5.71Z" style="fill:#1d1d1b;"/><path d="m172.66,96.05c-3.81-4.34-6.58-8.66-14.5-5.65-1.17,2.22,1.18,5.09,3.14,6.77,2.87,2.46,5.38,4.12,7.27,5.89,3.81,3.56,8.14,15.54,8.51,22.07.02.41.73-5.61,1.14-5.67.53-.08,2.68-2.71,2.39-6.3-1.01-12.26-4.14-12.77-7.95-17.11Z" style="fill:#1d1d1b;"/><path d="m153.32,88.03c0-.06.7-.14,1.78.15,1.07.3,2.48,1.06,3.6,2.36.27.33.52.67.72,1.03.21.37.32.77.42,1.09.21.68.39,1.32.47,1.87.16,1.12-.11,1.8-.16,1.78-.09-.01.03-.68-.22-1.71-.12-.51-.32-1.11-.56-1.78-.12-.35-.22-.68-.41-.99-.18-.32-.42-.63-.67-.94-1.04-1.22-2.33-1.98-3.3-2.35-.99-.37-1.66-.43-1.65-.52Z" style="fill:#394547;"/></g></g><path d="m172.28,126.84c.05.91-.68,1.71-1.64,1.78-.95.07-1.77-.61-1.81-1.53-.05-.91.68-1.71,1.64-1.78.95-.07,1.77.62,1.82,1.53Z" style="fill:#1d1d1b;"/><path d="m153.22,126.96c.05.91-.68,1.71-1.64,1.78-.95.07-1.77-.62-1.81-1.53s.68-1.71,1.64-1.78c.95-.07,1.77.62,1.82,1.53Z" style="fill:#1d1d1b;"/></g><path d="m100.76,141.45c1.08-1.77,2.29-3.44,4.28-4.17,1.99-.73,4.2-1.17,5.75-2.6,2.42-2.22,2.34-5.93,2.09-9.16-.24-3.23-.28-6.95,2.2-9.12,2.07-1.81,5.36-1.97,7.16-4.04,1.2-1.38,1.43-3.3,1.86-5.06,1.13-4.73,3.74-12.99,17.68-17.74l-12.33,46.84c.92.26,3.12,2.35,3.24,3.77.11,1.33-.46,2.67-.47,4-.02,1.63,1.77,2.6,2.9,3.81,1.42,1.53,1.86,3.74,1.64,5.79-.22,2.05-1.43,6.25-2.23,8.17-11.44-1.16-28.13-1.53-36.84-8.83-1.59-1.33.68-7.72,3.08-11.67Z" style="fill:#1d1d1b;"/><g><path d="m132.96,123.81c-.21-.12-8.63-3.45-9.17,5.41-.54,8.86,8.47,7.57,8.5,7.32.03-.25.67-12.73.67-12.73Z" style="fill:#d19c5e;"/><path d="m129.79,133.02s-.16.1-.43.2c-.26.1-.7.15-1.15-.05-.92-.4-1.61-1.93-1.56-3.53.03-.81.24-1.57.57-2.18.31-.63.76-1.06,1.23-1.11.48-.08.79.22.89.48.1.25.04.43.08.45.02.02.2-.14.15-.51-.03-.18-.12-.39-.31-.58-.2-.19-.51-.29-.84-.28-.69,0-1.34.6-1.7,1.28-.39.68-.66,1.53-.68,2.44-.05,1.79.76,3.51,2.02,3.96.61.2,1.14.04,1.43-.15.29-.2.35-.4.32-.42Z" style="fill:#1d1d1b; isolation:isolate; opacity:.3;"/></g><g><path d="m164.48,126.14s-.02-.73.28-1.99c.29-1.23,1.09-3.05,2.91-4.48.9-.7,2.05-1.3,3.37-1.55,1.32-.24,2.8-.23,4.23.29.72.24,1.41.6,2.05,1.06.65.45,1.23,1.02,1.72,1.68,1.01,1.3,1.59,2.98,1.64,4.72.01,1.74-.52,3.44-1.48,4.77-.47.67-1.04,1.26-1.67,1.73-.62.48-1.31.87-2.01,1.13-1.41.56-2.9.63-4.22.43-1.33-.21-2.49-.77-3.42-1.44-1.87-1.37-2.72-3.16-3.05-4.38-.34-1.25-.3-1.98-.34-1.98,0,0,0,.04,0,.13,0,.11,0,.23.01.39,0,.17.01.38.06.63.04.25.07.54.17.85.3,1.25,1.14,3.1,3.04,4.53.94.7,2.13,1.29,3.5,1.51,1.36.22,2.9.16,4.36-.41.73-.27,1.44-.66,2.09-1.16.66-.49,1.25-1.09,1.73-1.79,1-1.38,1.56-3.14,1.54-4.95-.04-1.8-.65-3.55-1.7-4.89-.51-.68-1.12-1.27-1.79-1.73-.66-.48-1.38-.85-2.13-1.09-1.48-.53-3.01-.54-4.37-.27-1.36.27-2.53.9-3.45,1.63-1.86,1.49-2.63,3.36-2.89,4.62-.08.32-.11.61-.14.86-.04.25-.04.46-.04.63,0,.16,0,.28,0,.39,0,.09,0,.13.01.13Z" style="fill:#1d1d1b;"/><path d="m142.11,126.5s-.02-.73.28-1.99c.29-1.23,1.09-3.05,2.91-4.48.9-.7,2.05-1.3,3.37-1.55,1.32-.24,2.8-.23,4.23.29.72.24,1.41.6,2.05,1.06.65.45,1.23,1.02,1.72,1.68,1.01,1.3,1.59,2.98,1.64,4.72.01,1.74-.52,3.44-1.48,4.77-.47.67-1.04,1.26-1.67,1.73-.62.48-1.31.87-2.01,1.13-1.41.56-2.89.63-4.22.43-1.33-.21-2.49-.77-3.42-1.44-1.87-1.37-2.72-3.16-3.05-4.38-.34-1.25-.3-1.98-.34-1.98,0,0,0,.04,0,.13,0,.11,0,.23.01.39,0,.17.01.38.06.63.04.25.07.54.17.85.3,1.25,1.14,3.1,3.04,4.53.94.7,2.13,1.29,3.5,1.51,1.36.22,2.9.16,4.36-.41.73-.27,1.44-.66,2.09-1.16.66-.49,1.25-1.09,1.73-1.79,1-1.38,1.56-3.14,1.54-4.95-.04-1.8-.65-3.55-1.7-4.89-.51-.68-1.12-1.27-1.79-1.73-.66-.48-1.38-.85-2.13-1.09-1.48-.53-3.01-.54-4.37-.27-1.36.27-2.53.9-3.45,1.63-1.86,1.49-2.63,3.36-2.89,4.62-.08.32-.11.61-.14.86-.04.25-.04.46-.04.63,0,.16,0,.28,0,.39,0,.09,0,.13.01.13Z" style="fill:#1d1d1b;"/><path d="m158.08,125.89s.28-.35.81-.78c.53-.43,1.41-.89,2.45-.91,1.04-.02,1.94.41,2.48.82.55.41.8.78.84.75.03-.01-.16-.43-.71-.92-.53-.48-1.49-.97-2.62-.96-1.13.02-2.07.56-2.58,1.05-.53.5-.7.93-.67.94Z" style="fill:#1d1d1b;"/><path d="m130.93,123.25s.62.18,1.64.34c1.02.16,2.44.31,4.01.45,1.51.14,2.88.26,4.01.36,1.02.1,1.66.17,1.66.13,0-.04-.62-.18-1.64-.34-1.02-.16-2.44-.31-4.01-.45-1.51-.14-2.88-.26-4.01-.36-1.02-.1-1.66-.17-1.66-.13Z" style="fill:#1d1d1b;"/></g><path d="m177.39,131.14c-.07-.06,1.11-1.07,1.74-2.8.65-1.72.41-3.25.5-3.25.03,0,.15.36.17.98.03.62-.06,1.48-.39,2.38-.33.89-.83,1.61-1.25,2.06-.42.45-.75.66-.77.63Z" style="fill:#fff;"/><path d="m178.79,122c.04-.07.38.1.56.49.19.39.12.75.04.75-.09,0-.15-.3-.31-.62-.15-.32-.35-.56-.29-.62Z" style="fill:#fff;"/><path d="m156.96,129.39s.12-.47.25-1.21c.13-.74.19-1.8-.02-2.93-.21-1.13-.65-2.1-1.04-2.74-.39-.65-.7-1.01-.67-1.04.02-.02.4.29.85.93.45.63.93,1.63,1.16,2.8.22,1.18.12,2.28-.07,3.03-.19.76-.43,1.18-.45,1.17Z" style="fill:#fff;"/></g><path d="m126.19,136.42s-.12.17-.3.49c-.18.32-.37.82-.38,1.47-.01.64.2,1.43.82,2.02.59.59,1.55.97,2.5.8.95-.18,1.72-.87,2.07-1.62.37-.76.3-1.58.06-2.18-.23-.6-.59-1.01-.87-1.25-.28-.24-.46-.33-.45-.36,0-.01.21.05.52.27.31.22.72.62.99,1.26.28.62.39,1.52,0,2.37-.37.84-1.2,1.6-2.27,1.8-1.07.19-2.11-.25-2.75-.9-.67-.66-.88-1.54-.84-2.22.04-.69.28-1.22.49-1.53.22-.32.39-.44.4-.43Z" style="fill:#fff;"/><path d="m175.08,143.25c.01-.06.58.36,1.54.1.46-.12.98-.41,1.42-.87.43-.46.78-1.1.92-1.82.14-.72.03-1.44-.24-2.01-.26-.58-.66-1.02-1.04-1.33-.77-.61-1.41-.7-1.39-.76,0-.01.16-.02.44.06.27.07.67.23,1.09.53.41.3.86.76,1.16,1.38.31.61.44,1.4.29,2.19-.15.78-.53,1.47-1.01,1.96-.48.49-1.06.78-1.57.89-.51.11-.95.04-1.21-.07-.27-.11-.39-.22-.38-.24Z" style="fill:#fff;"/></g><g><g><path d="m142.95,258.16l8.58,2.54s4.73,2.03,7.04,2.56c2.86.65,4.81-.24,4.91-1.82.11-1.59-2.12-1.8-2.12-1.8,0,0-3.6-1.38-5.5-2.54-1.9-1.16-3.07-3.49-3.07-3.49l3.07.42s6.45,4.65,8.88,6.03c2.43,1.38,2.96-1.06,3.17-1.8.21-.74-7.19-8.25-7.19-8.25,0,0,7.09,4.55,8.36,5.69,1.27,1.14,3.17,1.51,3.6.77.42-.74,1.59-.74,0-3.88-1.59-3.14-14.28-11.57-14.28-11.57l3.49-.74,3.81,1.69s.21,1.59,1.59,3.62c1.38,2.04,3.81,0,3.81,0l-1.48-7.8-7.51-4.71s-7.83.95-8.99,1.48c-1.16.53-2.43,2.74-2.43,2.74l-2.12.85c-3.28.95-3.17,4.23-4.23,4.34-1.06.11-31.93-5.92-31.93-5.92l-2.8-.73c-4.61,3.52-6.48,9.32-7.29,14.46,0,0-.85,2.52,0,3.91l40.63,3.93Z" style="fill:#d19c5e;"/><path d="m137.31,252.67s-.03-.18-.03-.5c0-.16.01-.36.05-.59.03-.23.07-.49.16-.77.28-1.14,1.04-2.6,2.16-3.98,1.12-1.38,2.31-2.46,3.19-3.2.89-.74,1.48-1.15,1.5-1.12.03.04-.51.5-1.36,1.28-.84.78-2,1.87-3.1,3.23-1.1,1.36-1.86,2.75-2.19,3.85-.34,1.09-.32,1.81-.38,1.81Z" style="fill:#ff9a6c;"/><path d="m150.68,237.32s-.26.13-.65.45c-.4.32-.91.85-1.41,1.62-.25.38-.5.81-.71,1.3-.22.47-.22,1.05-.34,1.66-.09.6-.28,1.27-.68,1.83-.39.56-.8,1.07-1.03,1.72-.41,1.11-.38,2.31-.01,3.27l.04.11-.1.06c-1.64,1.04-2.43,2.63-2.73,3.74-.3,1.14-.21,1.85-.26,1.85-.01,0-.04-.17-.06-.5,0-.33.01-.81.15-1.39.25-1.16,1.03-2.83,2.74-3.94l-.06.17c-.4-1.02-.45-2.3,0-3.48.24-.69.7-1.26,1.07-1.78.38-.53.55-1.12.65-1.71.12-.58.13-1.19.38-1.71.22-.51.5-.94.76-1.32.53-.76,1.08-1.29,1.51-1.59.21-.15.39-.25.52-.3.13-.05.2-.07.2-.06Z" style="fill:#ff9a6c;"/><path d="m158.11,240.78c.01.08-1.02.19-2.19-.24-1.18-.41-1.9-1.15-1.84-1.2.06-.07.83.53,1.95.92,1.11.4,2.09.43,2.09.52Z" style="fill:#ff9a6c;"/><path d="m160.09,249.33c-.03.08-1.49-.48-3.25-1.24-1.76-.76-3.16-1.44-3.13-1.52.03-.08,1.49.48,3.25,1.24,1.76.76,3.16,1.44,3.13,1.52Z" style="fill:#ff9a6c;"/><path d="m153.13,253.55c-.04.07-.76-.25-1.67-.62-.9-.37-1.64-.65-1.62-.73.02-.08.82.07,1.74.45.92.38,1.59.83,1.55.9Z" style="fill:#ff9a6c;"/><path d="m159.03,249.88c.03.08-.72.35-1.29,1.08-.59.72-.67,1.51-.76,1.5-.04,0-.07-.2-.02-.53.05-.32.22-.76.54-1.16.32-.4.7-.66,1-.79.3-.13.51-.14.52-.11Z" style="fill:#ff9a6c;"/><path d="m162.13,245.18c.04.08-.53.37-.91,1.02-.4.64-.4,1.27-.49,1.28-.08.03-.22-.7.23-1.43.44-.74,1.16-.94,1.17-.86Z" style="fill:#ff9a6c;"/><path d="m161.26,236.68s-.15-.13-.23-.41c-.09-.28-.12-.7,0-1.13.11-.44.35-.78.56-.99.21-.2.38-.27.4-.24.06.07-.47.52-.67,1.3-.22.78.03,1.43-.05,1.46Z" style="fill:#ff9a6c;"/></g><g><path d="m223.83,239.34s-.39-7.59-8.26-9.17c-7.87-1.57-21.64,5.12-21.64,5.12l-38.63,26.92,1.15,3.33,39.19-5.46,3.59,1.38,27.54-18.1,25.98-18.78-2.87-2.26s-7.28,5.02-12.1,7.18c-4.82,2.16-11.8,5.94-13.97,9.85Z" style="fill:#f5f5f5;"/><path d="m154.69,266.64l32.69-20.31,34.56-5.55s1.73,2.51,4.67,1.89h0l28.42-19.67.53,1.19-55.1,38.7c-2,.62-3.53.15-4.8-.93l-40.96,4.67Z" style="fill:#5254cf;"/><path d="m221.93,240.78s-.09.08-.27.22c-.21.15-.47.34-.8.58-.69.5-1.7,1.22-2.92,2.14-2.45,1.82-5.78,4.42-9.39,7.37-3.61,2.95-6.83,5.68-9.15,7.67-1.13.98-2.06,1.78-2.74,2.36-.31.26-.55.47-.75.64-.17.14-.27.21-.28.21s.07-.09.23-.25c.19-.18.42-.4.71-.68.62-.58,1.54-1.42,2.68-2.44,2.28-2.04,5.48-4.79,9.1-7.75,3.62-2.95,6.97-5.53,9.45-7.31,1.24-.9,2.26-1.59,2.98-2.06.34-.22.61-.39.83-.53.19-.12.29-.18.3-.17Z" style="fill:#1a2e35;"/><path d="m221.58,236.55c-3.13-3.36-8.06-4.56-12.64-4.2-4.58.36-8.93,2.07-13.21,3.76l-39.99,27.37.36,1.03,40.2-27.21s8.98-2.91,12.95-3.39c6.66-.81,12.33,2.64,12.33,2.64Z" style="fill:#e1e1e1;"/><path d="m227.85,240.15l19.22-12.97s-15.75,8.19-19.22,12.97Z" style="fill:#e1e1e1;"/><path d="m155.74,263.48s.05-.05.16-.13c.12-.09.29-.21.49-.36.45-.32,1.1-.77,1.92-1.35,1.69-1.17,4.1-2.84,7.08-4.91,6.01-4.13,14.29-9.81,23.44-16.1,2.33-1.6,4.61-3.15,6.81-4.65h.01s.01-.01.01-.01c4.2-1.81,8.32-3.12,12.16-3.65,3.85-.49,7.37.17,9.97,1.4,1.3.61,2.37,1.37,3.19,2.15.82.78,1.4,1.57,1.78,2.26.39.69.58,1.28.69,1.67.04.19.08.34.1.46.02.1.03.16.03.16-.05.02-.13-.87-.91-2.23-.39-.67-.97-1.45-1.79-2.2-.82-.75-1.88-1.49-3.17-2.08-2.57-1.19-6.05-1.82-9.85-1.32-3.79.55-7.9,1.86-12.08,3.67h.03c-2.19,1.49-4.47,3.05-6.8,4.65-9.17,6.25-17.46,11.91-23.49,16.02-3,2.03-5.44,3.68-7.14,4.83-.83.56-1.49.99-1.95,1.3-.21.14-.38.25-.51.33-.12.07-.18.11-.18.1Z" style="fill:#1a2e35;"/><path d="m190.74,242.79s.1-.07.3-.19c.2-.11.5-.28.89-.48.78-.41,1.92-.97,3.35-1.62,2.86-1.28,6.95-2.91,11.73-3.59,4.78-.68,9.22,0,12.17,1.11,1.48.55,2.62,1.14,3.36,1.61.38.22.65.43.84.56.19.13.28.21.28.22-.02.02-.42-.24-1.18-.68-.76-.44-1.9-1-3.37-1.51-2.93-1.06-7.32-1.69-12.06-1.02-4.74.67-8.81,2.26-11.69,3.49-1.44.62-2.59,1.16-3.39,1.53-.37.17-.68.31-.92.43-.21.09-.32.14-.33.13Z" style="fill:#1a2e35;"/><path d="m251.73,223.76s-.08.07-.25.19c-.2.13-.45.3-.75.5-.69.45-1.63,1.05-2.77,1.79-2.35,1.5-5.58,3.58-9.13,5.92-3.55,2.34-6.74,4.49-9.05,6.05-1.13.76-2.05,1.38-2.74,1.84-.3.2-.55.36-.75.49-.17.11-.27.16-.27.15,0,0,.08-.08.24-.2.19-.14.43-.32.72-.54.63-.46,1.54-1.12,2.68-1.92,2.28-1.6,5.45-3.78,9-6.12,3.55-2.34,6.81-4.39,9.18-5.85,1.19-.73,2.15-1.31,2.83-1.7.31-.18.57-.33.78-.45.18-.1.28-.15.28-.14Z" style="fill:#1a2e35;"/></g><g><path d="m234.24,244.57s-.76,1.79-1.49,2.67c-.74.88-3.16,2.11-3.35,3.78-.19,1.67.21,5.6-2.41,8.58-2.62,2.98-6.2,4.03-6.2,4.03l-10.32-1.01-16.48-6.48s-1.36-.37-1.05-1.73c.18-.82.89-1.42,1.72-1.55l.39-.06s-.95-.77.41-2.13c1.17-1.17,3.63-.51,4.9-.08,1.27.43,8.74,3.54,10.08,4.02,1.19.42,2.1.8,2.1.8,0,0-9.55-6.45-9.69-7.29-.16-1.01-.05-1.48.92-2.19,1.15-.83,3.06.06,4.9.84,1.37.58,10.12,4.9,10.12,4.9,0,0,.39-.38.02-1.16-.37-.78-3.3-4.51-3.76-5.2-.45-.68-.57-1.09-.13-1.67.64-.83,2.33-1.22,3.86.19.98.91,4.46,3.24,4.46,3.24l16.05-11.71s2-.05,1.3,2.73c-.7,2.78-6.36,6.5-6.36,6.5Z" style="fill:#d19c5e;"/><path d="m222.27,254.33c-.02.07-.9-.15-1.74-.86-.84-.7-1.22-1.53-1.15-1.56.08-.05.55.67,1.34,1.33.79.67,1.58,1.01,1.54,1.09Z" style="fill:#ff9a6c;"/><path d="m223.59,247.34s.21-.09.56-.05c.35.04.82.21,1.24.55.42.34.67.78.77,1.11.11.33.09.55.05.56-.08.02-.25-.82-1.02-1.44-.75-.64-1.61-.64-1.6-.73Z" style="fill:#ff9a6c;"/><path d="m224.35,250.57c-.09,0-.13-.86-.47-1.85-.33-.99-.82-1.7-.75-1.76.06-.05.68.61,1.03,1.66.36,1.05.26,1.96.19,1.95Z" style="fill:#ff9a6c;"/><path d="m233.85,243.74s-.21-.09-.42-.37c-.21-.27-.42-.72-.48-1.25-.06-.53.05-1.01.19-1.32.14-.32.29-.47.32-.45.08.04-.33.77-.21,1.74.1.97.66,1.59.59,1.65Z" style="fill:#ff9a6c;"/><path d="m219.33,258.37s-.43.09-1.13-.02c-.69-.1-1.63-.41-2.55-.95-.92-.53-1.67-1.14-2.19-1.59-.52-.45-.82-.76-.8-.79.03-.03.38.21.93.62.55.41,1.31.98,2.21,1.5.9.52,1.78.85,2.44,1,.66.16,1.09.18,1.09.22Z" style="fill:#ff9a6c;"/><path d="m222.01,256.72c.08,0,.09.58-.4,1.06-.48.48-1.07.46-1.06.38-.01-.09.46-.19.85-.59.41-.39.52-.85.61-.84Z" style="fill:#ff9a6c;"/><path d="m225.96,253.82s.03.16-.07.36c-.1.2-.33.45-.65.6-.32.15-.66.17-.88.12-.23-.05-.34-.14-.33-.17.03-.08.54.04,1.08-.23.55-.25.78-.72.86-.69Z" style="fill:#ff9a6c;"/><path d="m212.06,260.39c-.03.08-3.87-1.53-8.57-3.58-4.7-2.05-8.48-3.78-8.45-3.85.03-.08,3.87,1.52,8.57,3.58,4.7,2.05,8.48,3.78,8.45,3.85Z" style="fill:#ff9a6c;"/></g></g></g><g><g><path d="m26.49,203.9l12.56,61.65h109c1.2,0,2.18-.97,2.18-2.18h0c0-1.2-.97-2.18-2.18-2.18h-21.94l-11.64-57.34c-.22-1.1-1.18-1.89-2.31-1.91l-83.31-.91c-1.52-.02-2.66,1.37-2.36,2.86Z" style="fill:#e1e1e1;"/><path d="m26.49,203.9s-.01-.06-.03-.19c-.02-.12-.04-.31-.01-.56.04-.48.3-1.28,1.15-1.8.21-.13.45-.22.72-.29.27-.06.56-.06.86-.05.6,0,1.25,0,1.96.01,1.42.01,3.06.03,4.9.04,7.39.07,18.13.17,31.5.3,6.69.07,14.04.14,21.96.22,3.96.04,8.07.08,12.3.13,2.12.02,4.27.04,6.45.07,1.09.01,2.19.02,3.3.03.28,0,.54,0,.84.02.29.03.58.11.84.24.53.26.96.71,1.2,1.25.12.27.17.57.23.84l.17.83c.11.55.23,1.11.34,1.67.23,1.11.46,2.24.68,3.37.46,2.26.92,4.54,1.4,6.86.94,4.63,1.9,9.36,2.89,14.2,1.96,9.67,4.01,19.72,6.11,30.08l-.15-.12c4.12,0,8.34,0,12.64,0,2.15,0,4.31,0,6.49,0h1.64s.82,0,.82,0c.27,0,.56-.01.85.05.57.12,1.1.47,1.43.95.34.48.48,1.1.39,1.68-.1.71-.56,1.35-1.19,1.7-.32.17-.67.26-1.03.28h-1.01c-1.33,0-2.66,0-3.99,0-2.65,0-5.29,0-7.91,0-5.24,0-10.41,0-15.5,0-10.18,0-20.05,0-29.51,0-18.92,0-36.22-.02-51.18-.03h-.09s-.02-.09-.02-.09c-3.84-18.95-6.96-34.36-9.12-45.05-1.07-5.34-1.91-9.49-2.48-12.32-.28-1.41-.49-2.48-.64-3.21-.14-.72-.21-1.1-.21-1.1,0,0,.09.37.24,1.09.15.73.38,1.8.67,3.21.58,2.82,1.44,6.97,2.54,12.3,2.19,10.68,5.34,26.09,9.22,45.03l-.11-.09c14.96,0,32.26-.02,51.18-.03,9.46,0,19.33,0,29.51,0,5.09,0,10.26,0,15.5,0,2.62,0,5.25,0,7.91,0,1.33,0,2.66,0,3.99,0h1c.31-.02.62-.1.89-.24.55-.3.95-.86,1.04-1.48.08-.51-.04-1.04-.34-1.46-.29-.42-.74-.73-1.24-.83-.25-.06-.51-.04-.79-.04h-.82s-1.64,0-1.64,0c-2.18,0-4.34,0-6.49,0-4.29,0-8.52,0-12.64,0h-.12l-.02-.12c-2.1-10.36-4.14-20.42-6.1-30.08-.98-4.83-1.94-9.57-2.88-14.2-.47-2.31-.93-4.6-1.39-6.86-.23-1.13-.46-2.25-.68-3.37-.11-.56-.23-1.11-.34-1.67l-.17-.83c-.06-.28-.1-.54-.21-.79-.21-.49-.6-.89-1.07-1.12-.24-.12-.49-.19-.75-.22-.25-.02-.55-.01-.82-.02-1.11-.01-2.21-.03-3.3-.04-2.18-.03-4.33-.05-6.45-.07-4.24-.05-8.34-.1-12.3-.14-7.92-.09-15.27-.18-21.96-.26-13.37-.17-24.11-.3-31.5-.39-1.85-.03-3.49-.05-4.9-.07-.71-.01-1.36-.02-1.96-.03-.3,0-.58-.01-.84.05-.26.06-.5.15-.7.27-.84.5-1.1,1.29-1.15,1.76-.05.49.03.74.02.74Z" style="fill:#1a2e35;"/></g><circle cx="73.12" cy="232.12" r="3.6" style="fill:#fff;"/><path d="m26.59,204.4s.13,0,.38-.01c.26,0,.63,0,1.1,0,.98,0,2.41,0,4.24,0,3.69.02,9.01.04,15.59.08,13.17.09,31.34.22,51.42.36,2.51.02,4.99.04,7.44.06.61,0,1.22,0,1.83.01.3,0,.61-.01.93.06.31.06.62.19.88.36.54.34.94.89,1.11,1.5.14.6.24,1.17.36,1.76.92,4.64,1.81,9.12,2.66,13.39,1.69,8.53,3.21,16.22,4.48,22.68,1.26,6.45,2.29,11.67,3,15.29.35,1.8.61,3.2.8,4.16.09.47.15.83.2,1.08.04.24.06.37.06.37,0,0-.03-.12-.09-.37-.05-.25-.13-.61-.23-1.08-.2-.96-.49-2.36-.86-4.15-.73-3.62-1.79-8.83-3.09-15.28-1.29-6.45-2.84-14.14-4.55-22.67-.85-4.27-1.75-8.75-2.67-13.39-.12-.58-.23-1.18-.35-1.74-.14-.54-.5-1.03-.98-1.33-.24-.15-.5-.26-.78-.32-.27-.06-.57-.04-.88-.05-.61,0-1.22,0-1.83-.01-2.45-.02-4.93-.04-7.44-.06-20.07-.18-38.25-.34-51.42-.45-6.57-.07-11.89-.13-15.59-.17-1.83-.03-3.26-.05-4.24-.06-.48-.01-.84-.02-1.1-.02-.25,0-.38-.02-.38-.02Z" style="fill:#1a2e35;"/></g></svg>