<?xml version="1.0" encoding="UTF-8"?><svg id="a" xmlns="http://www.w3.org/2000/svg" viewBox="0 0 300 300"><g><g><path d="M208.32,238.42c12.02-13.26,19.34-30.85,19.34-50.16,0-41.26-33.44-74.7-74.7-74.7s-74.7,33.44-74.7,74.7c0,19.3,7.32,36.9,19.34,50.16h110.71Z" style="fill:#5254cf;"/><g><g><polygon points="226.79 164.17 204.69 162.97 208.86 168.26 226.79 164.17" style="fill:#f66;"/><polygon points="208.86 168.26 207.25 175.63 226.79 164.17 208.86 168.26" style="fill:#e84343;"/><polygon points="207.25 175.63 210.59 170.8 226.79 164.17 207.25 175.63" style="fill:#1d1d1b; isolation:isolate; opacity:.3;"/><polygon points="226.79 164.17 214.5 178.3 210.59 170.8 226.79 164.17" style="fill:#f66;"/></g><g><g><polygon points="38.2 94.06 52.59 98.57 48.67 100.95 38.2 94.06" style="fill:#f66;"/><polygon points="48.67 100.95 47.94 106.04 38.2 94.06 48.67 100.95" style="fill:#ea5050;"/><polygon points="47.94 106.04 46.96 102.16 38.2 94.06 47.94 106.04" style="fill:#1d1d1b; isolation:isolate; opacity:.3;"/><polygon points="38.2 94.06 42.67 106.01 46.96 102.16 38.2 94.06" style="fill:#f66;"/></g><path d="M77.77,117.65l-.04-1.17-.07,.05-.43-.59,.46-.43,.51-.37-.51,.37,.55-.3,.43,.59-.83,.6c.23,0,.46-.02,.69-.04l.09,1.24c-.28,.02-.57,.04-.86,.05Zm-3.41-.14c-.28-.03-.56-.06-.84-.1l.16-1.24c.27,.04,.54,.07,.81,.09l-.13,1.24Zm7.66-.5l-.34-1.2c.25-.07,.51-.15,.76-.24l.41,1.18c-.27,.1-.55,.19-.83,.26Zm-11.82-.17c-.28-.06-.55-.12-.82-.18l.27-1.22c.27,.06,.53,.12,.8,.17l-.25,1.22Zm-4.08-1.01c-.27-.08-.54-.16-.81-.24l.37-1.19c.26,.08,.52,.16,.79,.23l-.35,1.2Zm19.83-.67l-.71-1.03c.22-.15,.43-.31,.64-.47l.77,.98c-.23,.18-.46,.35-.7,.52Zm-23.82-.65c-.26-.1-.52-.2-.79-.3l.45-1.16c.25,.1,.51,.2,.77,.29l-.44,1.17Zm13.13-1.38c-.15-.24-.3-.49-.44-.75l1.09-.6c.13,.23,.26,.46,.41,.68l-1.05,.67Zm-17.01-.24c-.25-.12-.51-.24-.76-.36l.54-1.12c.25,.12,.5,.24,.74,.35l-.52,1.13Zm30.84-.73l-.99-.75c.16-.21,.31-.43,.46-.65l1.04,.69c-.16,.24-.33,.48-.5,.71Zm-34.58-1.18c-.25-.14-.49-.28-.73-.42l.63-1.08c.24,.14,.47,.27,.71,.41l-.61,1.09Zm18.92-1.71l-.13-.33c-.06-.15-.11-.3-.17-.46l1.17-.43c.05,.15,.11,.29,.16,.44l.13,.33-1.16,.45Zm17.67-.98l-1.19-.37c.08-.25,.15-.5,.2-.75l1.22,.28c-.07,.29-.14,.57-.23,.85Zm-18.91-3.11c-.05-.29-.09-.58-.13-.87l1.24-.14c.03,.26,.07,.52,.11,.78l-1.23,.22Zm18.13-1.12c-.03-.26-.06-.52-.11-.77l1.23-.23c.05,.29,.09,.58,.12,.87l-1.24,.12Zm-16.81-2.93l-1.2-.35c.08-.29,.18-.57,.3-.85l1.15,.48c-.1,.23-.18,.47-.25,.72Zm15.67-.78c-.12-.23-.26-.46-.4-.68l1.06-.66c.16,.25,.3,.5,.44,.76l-1.1,.59Zm-13.69-2.46l-.87-.89c.21-.21,.43-.4,.66-.59l.79,.96c-.2,.16-.39,.34-.58,.52Zm11.24-.57c-.2-.17-.41-.32-.62-.47l.71-1.02c.24,.17,.47,.35,.7,.53l-.8,.96Zm-7.97-1.47l-.42-1.17c.28-.1,.56-.19,.85-.26l.31,1.21c-.25,.06-.5,.14-.74,.23Zm4.55-.28l-.15-.04c-.2-.04-.4-.08-.59-.11l.16-1.24c.23,.03,.46,.07,.69,.12l.19,.04-.3,1.21Z" style="fill:#6a6a6a;"/></g><path d="M106.25,198.51l-.07-1.25,.82-.05,.08,1.24-.83,.05Zm4.17-.34l-.13-1.24,.82-.09,.14,1.24-.83,.09Zm4.15-.54l-.19-1.23,.82-.13,.2,1.23-.83,.13Zm4.12-.72l-.24-1.22,.81-.16,.25,1.22-.82,.16Zm4.09-.87l-.28-1.21,.81-.19,.29,1.21-.81,.19Zm4.05-1.01l-.32-1.21,.8-.21,.33,1.2-.81,.22Zm4.02-1.13l-.35-1.2,.8-.24,.36,1.2-.8,.24Zm3.99-1.23l-.38-1.19,.79-.25,.39,1.19-.79,.26Zm-60.22-.84c-.24-.13-.49-.27-.73-.41l.61-1.09c.24,.13,.48,.27,.72,.4l-.6,1.09Zm-3.62-2.13c-.24-.15-.47-.3-.71-.45l.68-1.05c.23,.15,.46,.3,.69,.44l-.67,1.05Zm-3.47-2.35c-.23-.16-.45-.33-.68-.49l.74-1c.22,.16,.44,.33,.67,.49l-.73,1.01Zm-3.33-2.55l-.65-.53,.8-.96,.64,.52-.78,.97Zm-3.18-2.74c-.21-.19-.41-.38-.62-.58l.86-.9c.2,.19,.4,.38,.6,.56l-.84,.92Zm-2.97-2.99c-.19-.21-.38-.42-.56-.63l.94-.82c.18,.21,.36,.41,.54,.61l-.92,.84Zm-2.66-3.29c-.16-.23-.32-.46-.48-.7l1.03-.7c.15,.23,.31,.45,.47,.67l-1.02,.72Zm-2.22-3.62c-.13-.25-.25-.51-.38-.76l1.13-.53c.12,.25,.24,.49,.36,.73l-1.11,.57Zm-1.62-3.94c-.08-.27-.17-.54-.24-.82l1.2-.34c.07,.26,.15,.52,.23,.78l-1.19,.37Zm-.95-4.14c-.04-.28-.08-.56-.12-.84l1.24-.15c.03,.27,.07,.54,.11,.81l-1.23,.19Zm-.36-4.22c0-.28,0-.56,0-.85h1.25c0,.27,0,.54,0,.82l-1.25,.03Zm1.38-4.11l-1.24-.11c.02-.28,.05-.56,.08-.84l1.24,.13c-.03,.27-.05,.54-.08,.82Zm.56-4.05l-1.22-.24c.05-.28,.11-.55,.17-.83l1.22,.26c-.06,.27-.11,.54-.16,.8Zm.99-3.97l-1.19-.37c.08-.27,.17-.54,.25-.8l1.19,.38c-.08,.26-.17,.52-.25,.79Zm1.38-3.86l-1.15-.48c.11-.26,.22-.52,.33-.78l1.14,.5c-.11,.25-.22,.5-.32,.76Zm1.73-3.72l-1.11-.58c.13-.25,.26-.5,.4-.74l1.1,.59c-.13,.24-.26,.48-.39,.73Zm2.04-3.56l-1.06-.66c.15-.24,.3-.47,.46-.71l1.04,.68c-.15,.23-.3,.46-.44,.69Zm2.33-3.39l-1-.75c.17-.22,.34-.45,.51-.67l.99,.76c-.17,.22-.33,.44-.5,.66Zm2.58-3.2l-.94-.82c.18-.21,.37-.42,.56-.63l.93,.83c-.18,.2-.37,.41-.54,.62Zm2.82-2.99l-.88-.89c.2-.2,.4-.39,.6-.59l.86,.9c-.2,.19-.39,.38-.59,.57Zm3.03-2.77l-.8-.95c.21-.18,.43-.36,.65-.54l.79,.97c-.21,.17-.42,.35-.63,.52Zm3.24-2.52l-.72-1.01c.23-.16,.46-.32,.69-.48l.71,1.03c-.22,.16-.45,.31-.67,.47Zm3.44-2.24l-.64-1.07c.24-.14,.49-.28,.73-.42l.62,1.08c-.24,.13-.47,.27-.71,.41Z" style="fill:#6a6a6a;"/></g></g><path d="M182.4,191.37c.52,.34,1.13,.56,1.7,.81,.28,.12,.56,.25,.85,.37,.15,.06,.29,.13,.44,.2s.3,.17,.46,.21c.4,.1,.66-.46,.28-.67-.15-.08-.32-.12-.48-.17-.15-.05-.3-.1-.45-.15-.29-.1-.58-.21-.87-.31-.59-.21-1.18-.46-1.8-.57-.18-.03-.28,.19-.12,.29h0Z" style="fill:#fcfcfc;"/><g><path d="M186.44,190.5c-.15,1.08-.32,2.15-.5,3.22-.09,.52-.17,1.05-.27,1.57-.05,.25-.1,.5-.15,.75-.03,.12-.05,.25-.08,.37l-.06,.25c-.1,.21,.06,.32,.48,.32l-.18,.23,.04-.02c.4-.18,.12-.85-.3-.71-.66,.22-.23,1.19,.38,.9,.33-.15,.33-.5,.33-.82,0-.4,.04-.81,.07-1.21,.12-1.61,.29-3.22,.49-4.82,.02-.14-.23-.17-.25-.03h0Z" style="fill:#fcfcfc;"/><g><g><path d="M161.74,151.28h-1.32v1.73h-.68v-1.73h-3.71v-.49l3.49-4.36h.75l-3.36,4.25h2.86v-1.52h.66v1.52h1.32v.6Z" style="fill:#fff;"/><g><path d="M176.89,151.18c0,1.16-.99,1.89-2.56,1.89s-2.54-.72-2.54-1.89c0-.79,.45-1.34,1.27-1.62-.67-.26-1.03-.76-1.03-1.45,0-1.07,.91-1.74,2.3-1.74s2.32,.67,2.32,1.74c0,.69-.38,1.18-1.05,1.45,.83,.27,1.29,.84,1.29,1.62Zm-.7,0c0-.81-.7-1.32-1.86-1.32s-1.85,.51-1.85,1.32,.69,1.32,1.85,1.32,1.86-.51,1.86-1.32Zm-1.86-1.85c1.02,0,1.63-.46,1.63-1.17s-.65-1.19-1.63-1.19-1.63,.45-1.63,1.18,.6,1.18,1.63,1.18Z" style="fill:#fff;"/><path d="M183.11,151.12c0,1.1-.8,1.95-2.39,1.95-.95,0-1.86-.33-2.37-.85l.33-.54c.42,.44,1.18,.76,2.04,.76,1.09,0,1.69-.51,1.69-1.32s-.55-1.31-1.78-1.31h-.47v-.5l1.82-2.28h-3.36v-.6h4.23v.48l-1.86,2.34c1.41,.07,2.11,.82,2.11,1.87Z" style="fill:#fff;"/><path d="M189.52,146.43v.48l-2.75,6.1h-.73l2.71-5.98h-3.38v1.23h-.67v-1.83h4.83Z" style="fill:#fff;"/><path d="M195.62,151.12c0,1.1-.8,1.95-2.39,1.95-.95,0-1.86-.33-2.37-.85l.33-.54c.42,.44,1.18,.76,2.04,.76,1.09,0,1.69-.51,1.69-1.32s-.55-1.31-1.78-1.31h-.47v-.5l1.82-2.28h-3.36v-.6h4.23v.48l-1.86,2.34c1.41,.07,2.11,.82,2.11,1.87Z" style="fill:#fff;"/></g><path d="M156.25,145.39c1.84-1.54,3.67-3.07,5.63-4.47l-.5-.13c1.88,4.17,3.83,8.31,5.76,12.45,.22,.48,.83,.17,.89-.24,.43-3.32,.84-6.64,1.25-9.95,.08-.63-.92-.63-.99,0-.41,3.32-.82,6.63-1.21,9.95l.89-.24c-1.98-4.12-3.93-8.25-5.95-12.34-.11-.22-.42-.23-.57-.07-1.73,1.69-3.57,3.24-5.43,4.79-.17,.15,.08,.39,.25,.25h0Z" style="fill:#fcfcfc;"/><path d="M169.1,143.2c3.68,.28,7.37,.29,11.07,.34s7.31,.04,10.96,.06c1.03,0,2.07,.01,3.1,.02s2.15,.07,3.21-.02c.9-.08,.9-1.33,0-1.4s-1.87-.02-2.79-.02-1.79,0-2.69,.01l-5.58,.03c-3.65,.02-7.31,.05-10.96,.1-2.11,.03-4.21,.12-6.31,.27-.4,.03-.4,.59,0,.62h0Z" style="fill:#fff;"/></g><g><path d="M82.94,144.77c-.24,0-.48,.02-.72,.05-1.21-2.57-3.82-4.35-6.85-4.35s-5.64,1.78-6.85,4.35c-.24-.03-.47-.05-.72-.05-2.94,0-5.33,2.38-5.33,5.33,0,1.14,.36,2.19,.97,3.06h23.86c.61-.87,.97-1.92,.97-3.06,0-2.94-2.38-5.33-5.33-5.33Z" style="fill:#f9fbfc;"/><g><rect x="191.89" y="103.59" width="67.7" height="2.74" style="fill:#6a6a6a;"/><rect x="169.36" y="80.5" width="58.66" height="2.74" transform="translate(280.56 -116.82) rotate(90)" style="fill:#6a6a6a;"/><rect x="204.48" y="88.26" width="7.18" height="15.33" style="fill:#ffe092;"/><rect x="218.58" y="80.89" width="7.18" height="22.7" style="fill:#ffc700;"/><rect x="232.67" y="75.04" width="7.18" height="28.54" style="fill:#ffe092;"/><rect x="246.76" y="57.5" width="7.18" height="46.09" style="fill:#ffc700;"/><g><rect x="199.15" y="61.9" width="57.24" height="1.25" transform="translate(22.5 179.37) rotate(-45)" style="fill:#6a6a6a;"/><polygon points="250.89 39.41 245.36 40.89 249.41 44.93 250.89 39.41 245.36 40.89 249.41 44.93 250.89 39.41" style="fill:#f9fbfc;"/></g></g><path d="M256.9,197.8c.12-.31,.19-.65,.19-1.01,0-1.57-1.28-2.85-2.85-2.85-.1,0-.2,0-.31,.02-.61-1.46-2.05-2.49-3.73-2.49-.39,0-.77,.06-1.13,.16-.89-2.01-2.9-3.41-5.24-3.41-3.16,0-5.73,2.57-5.73,5.73,0,1.49,.57,2.84,1.5,3.86h17.3Z" style="fill:#f9fbfc;"/><g><path d="M57.81,75.86c4.28-4.29,8.81-8.35,13.26-12.47,4.46-4.13,8.92-8.27,13.32-12.46,2.46-2.34,4.91-4.69,7.27-7.13,.51-.52-.28-1.31-.8-.8-4.36,4.22-8.7,8.45-13.11,12.61s-8.88,8.31-13.21,12.57c-2.42,2.38-4.78,4.82-7.17,7.22-.29,.29,.16,.74,.45,.45h0Z" style="fill:#6a6a6a;"/><path d="M91.01,43.41c-.28,4.24-.35,8.52-.35,12.77s-.02,8.51-.02,12.77c0,2.42-.04,4.84,0,7.27,.01,.8,1.24,.8,1.25,0,.06-4.25,0-8.51,0-12.77,0-4.26-.01-8.51-.09-12.77-.05-2.42-.11-4.85-.27-7.27-.02-.33-.48-.33-.51,0h0Z" style="fill:#6a6a6a;"/><path d="M52.14,75.64c5.8,.05,11.6,.23,17.4,.26s11.6,.05,17.4,.06c3.24,0,6.49,.04,9.74,0,.87,0,.87-1.34,0-1.34-5.8-.06-11.6,0-17.4,.02s-11.6,.03-17.4,.13c-3.25,.05-6.49,.15-9.74,.18-.44,0-.44,.68,0,.68h0Z" style="fill:#6a6a6a;"/><path d="M81.66,74.99c.03-.28,.13-.59,.17-.88,.04-.32,.08-.63,.14-.94,.12-.62,.29-1.23,.5-1.82,.45-1.22,1.13-2.36,1.98-3.34,1.65-1.92,3.95-3.39,6.51-3.58,.86-.07,.7-1.35-.16-1.18-2.73,.55-5.24,2.06-6.97,4.25-.84,1.06-1.5,2.26-1.94,3.54-.21,.62-.36,1.26-.44,1.91-.04,.33-.07,.67-.08,1.01,0,.39,.1,.68,.17,1.04,.01,.08,.12,.05,.12-.02h0Z" style="fill:#6a6a6a;"/><path d="M65.2,49.61c.73,.78,1.46,1.55,2.19,2.33,.36,.38,.72,.77,1.06,1.17s.67,.85,1.07,1.21c.52,.46,1.22-.24,.76-.76-.35-.4-.78-.7-1.18-1.05s-.81-.72-1.2-1.09c-.78-.73-1.55-1.46-2.33-2.19-.25-.23-.6,.12-.37,.37h0Z" style="fill:#6a6a6a;"/><path d="M66.82,54.18c.81-.79,1.59-1.62,2.44-2.37s1.77-1.44,2.52-2.3c.46-.53-.24-1.22-.76-.76-.86,.75-1.55,1.67-2.3,2.52s-1.58,1.63-2.37,2.44c-.3,.31,.17,.78,.48,.48h0Z" style="fill:#6a6a6a;"/><path d="M97.52,60.01c1.04,1.35,2.21,2.61,3.37,3.85,.37,.4,.99-.22,.59-.59-1.25-1.16-2.5-2.33-3.85-3.37-.08-.06-.17,.03-.11,.11h0Z" style="fill:#6a6a6a;"/><path d="M103.42,60.98c-1.54,1.29-3.04,2.59-4.48,3.99s-2.84,2.8-4.26,4.21c-.59,.58,.32,1.49,.91,.91,.42-.42,.81-.85,1.2-1.29,.5-.56-.26-1.32-.82-.82-.44,.39-.87,.79-1.29,1.2l.91,.91c1.41-1.42,2.81-2.84,4.21-4.26s2.7-2.94,3.99-4.48c.21-.26-.11-.58-.37-.37h0Z" style="fill:#6a6a6a;"/></g><g><rect x="236.04" y="131.47" width="17.29" height="1.25" transform="translate(-21.74 211.71) rotate(-45)" style="fill:#6a6a6a;"/><path d="M237.36,124.9c-.69,.79-.74,1.94-.46,2.9s.92,1.87,1.82,2.36c.55,.3,1.19,.47,1.81,.37s1.14-.54,1.44-1.09c.61-1.13,.47-2.62-.28-3.66-.86-1.2-2.42-1.73-3.84-1.37-.64,.17-.37,1.18,.27,1,.9-.25,1.91,0,2.57,.66s.91,1.74,.62,2.64c-.13,.41-.41,.83-.84,.95s-.93-.01-1.31-.21c-.7-.36-1.24-1-1.5-1.74-.32-.87-.24-1.75,.07-2.62,.07-.2-.22-.37-.36-.21h0Z" style="fill:#6a6a6a;"/><path d="M248.12,134.51c-.69,.79-.74,1.94-.46,2.9s.92,1.87,1.82,2.36c.55,.3,1.19,.47,1.81,.37s1.14-.54,1.44-1.09c.61-1.13,.47-2.62-.28-3.66-.86-1.2-2.42-1.73-3.84-1.37-.64,.17-.37,1.18,.27,1,.9-.25,1.91,0,2.57,.66s.92,1.74,.62,2.64c-.13,.41-.41,.83-.84,.95s-.93-.01-1.31-.21c-.7-.36-1.24-1-1.5-1.74-.32-.87-.24-1.75,.07-2.62,.07-.2-.22-.37-.36-.21h0Z" style="fill:#6a6a6a;"/></g><path d="M137.46,106.02l-7.24-12.54h-2.86c-5.6,0-10.16-4.56-10.16-10.16v-26.12c0-5.6,4.56-10.16,10.16-10.16h40.29c5.6,0,10.16,4.56,10.16,10.16v26.12c0,5.6-4.56,10.16-10.16,10.16h-22.95l-7.24,12.54Zm-10.1-57.75c-4.92,0-8.92,4-8.92,8.92v26.12c0,4.92,4,8.92,8.92,8.92h3.58l6.52,11.3,6.52-11.3h23.67c4.92,0,8.92-4,8.92-8.92v-26.12c0-4.92-4-8.92-8.92-8.92h-40.29Z" style="fill:#6a6a6a;"/><path d="M251.89,160.98c1.85,1.83,3.64,3.75,5.28,5.78,.23,.29,.66-.13,.41-.41-1.74-1.95-3.53-3.84-5.43-5.63-.17-.16-.43,.09-.26,.26h0Z" style="fill:#fcfcfc;"/><path d="M252.54,166.31c.7-1.06,1.45-2.1,2.25-3.09s1.61-1.96,2.57-2.79c.4-.35-.25-.99-.58-.58-.82,1.02-1.7,1.98-2.51,3s-1.56,2.06-2.27,3.14c-.22,.34,.32,.66,.55,.32h0Z" style="fill:#6a6a6a;"/><path d="M109.42,95.08l.12,.17-.07-.24c.12,.91,.06,1.85,.06,2.76s.02,1.85-.1,2.76l.07-.26v.03c-.46,.39-.09,1.12,.45,1.12s.91-.74,.47-1.12v-.03c0,.09,.03,.18,.06,.26-.11-.91-.1-1.85-.1-2.76s-.06-1.85,.06-2.76l-.07,.24,.12-.17c.28-.39-.1-.93-.53-.93s-.81,.54-.53,.93h0Z" style="fill:#6a6a6a;"/><path d="M107.19,97.58c1,.04,2,.07,2.99,.12s2.01,.16,2.99,.08c.62-.05,.62-.91,0-.96-.98-.08-2.01,.04-2.99,.08s-2,.08-2.99,.12c-.36,.01-.36,.55,0,.56h0Z" style="fill:#fcfcfc;"/><path d="M41.55,124.32c-.95,1.75-1.49,3.7-1.53,5.7-.02,1.56,.31,3.35,1.58,4.4,.64,.53,1.5,.84,2.31,.55,.7-.25,1.15-.87,1.4-1.55,.48-1.31,.31-3.39-1.11-4.06-.85-.4-1.83-.07-2.46,.57-.71,.7-1.05,1.84-1.1,2.82-.03,.63,.88,.71,1.06,.14,.25-.8,.25-1.76,.97-2.33,.61-.48,1.3-.32,1.61,.37,.46,1.02,.23,3.53-1.41,3.11s-2.05-2.45-2.12-3.84c-.09-1.95,.33-3.9,1.17-5.66,.12-.26-.25-.48-.39-.23h0Z" style="fill:#6a6a6a;"/><path d="M180.65,89.7c-.12,3.13-.12,6.58,1.79,9.24,.42,.59,1.03,1.19,1.83,.97,.65-.18,1.16-.8,1.43-1.39,.53-1.17,.28-2.78-.99-3.36-1.16-.54-3.14-.01-3.19,1.49-.02,.48,.72,.71,.94,.25,.24-.49,.49-.83,1.07-.91,.49-.07,.99,.1,1.26,.53,.35,.55,.27,1.29-.03,1.83-.14,.26-.39,.6-.67,.72-.44,.18-.8-.29-1.04-.59-1.94-2.41-1.97-5.84-1.96-8.78,0-.28-.42-.28-.43,0h0Z" style="fill:#6a6a6a;"/><path d="M51.71,195.71c.33,.75,.72,1.47,1.18,2.16s1.01,1.27,1.48,1.94c.21,.29,.67,.27,.78-.1,.46-1.62,.66-3.3,.58-4.98l-.54,.54c1.93-.03,3.85-.14,5.77-.34,.93-.1,1.85-.22,2.77-.35s1.98-.23,2.9-.49c.67-.19,.57-1.36-.17-1.26-.92,.12-1.83,.38-2.76,.53s-1.9,.3-2.85,.41c-1.88,.22-3.77,.36-5.67,.41-.28,0-.56,.24-.54,.54,.12,1.6,.02,3.19-.32,4.76l.63-.25c-1.26-.87-2.2-2.39-2.89-3.72-.12-.24-.46-.03-.35,.21h0Z" style="fill:#6a6a6a;"/><path d="M58.12,197.5c.28,.1,.51,.16,.8,.19s.6,.05,.9,.07c.6,.03,1.2,.03,1.8,0s1.19-.1,1.78-.18c.29-.04,.59-.08,.88-.14s.61-.07,.89-.15c.69-.2,.39-1.28-.3-1.07-.29,.09-.55,.23-.84,.32s-.57,.17-.86,.24c-.55,.14-1.11,.23-1.67,.3s-1.11,.1-1.67,.12c-.3,0-.6,0-.9,0s-.52,.02-.8,.06c-.14,.02-.11,.21,0,.25h0Z" style="fill:#6a6a6a;"/></g></g></g><g><path d="M262.57,261.78H42.74c-7.07,0-11.57-7.57-8.19-13.78l18.14-33.32c1.63-3,4.77-4.87,8.19-4.87H250.91c3.96,0,7.49,2.5,8.8,6.25l11.65,33.32c2.12,6.06-2.38,12.4-8.8,12.4Z" style="fill:#d19c5e;"/><path d="M271.24,249.01c-1.34,3.38-4.63,5.9-8.67,5.9H42.74c-4.1,0-7.33-2.54-8.67-5.89-2.4,5.99,1.98,12.76,8.67,12.76h219.83c6.42,0,10.92-6.34,8.8-12.4l-.13-.36Z" style="fill:#a37c58;"/><polygon points="242.69 249.84 242.69 252.46 241.31 248.96 242.69 249.84" style="fill:#f9be06;"/><g><path d="M222.57,253.3h-42.18l-4.17-7.67-6.01,.19-7.23-30.18c-.5-2.1,1.09-4.11,3.24-4.11h39.16c1.27,0,2.43,.72,2.99,1.87l17.19,35.11c1.08,2.21-.53,4.8-2.99,4.8Z" style="fill:#fff;"/><path d="M170.2,245.81l10.19,7.49-2.68-7.75c-.3-.86-1.21-1.35-2.09-1.13l-5.42,1.39Z" style="fill:#d0d0fc;"/></g><g><rect x="162.94" y="231.6" width="13.28" height="5.35" style="fill:#e84343;"/><rect x="157.1" y="223.77" width="13.28" height="5.35" style="fill:#f781c4;"/><polygon points="157.1 223.77 157.18 223.88 162.94 231.6 176.21 231.6 170.37 223.77 157.1 223.77" style="fill:#f66;"/><polygon points="157.1 229.11 157.1 223.77 162.94 231.6 162.94 236.95 157.1 229.11" style="fill:#d33333;"/></g><g><path d="M57.52,213.57v30.27h.17c1.19,2.77,8.65,5.58,17.68,5.58,9.86,0,17.85-3.22,17.85-6.36v-29.49H57.52Z" style="fill:#efefef; isolation:isolate;"/><path d="M63.56,243.84h-.17s0-.78,0-.78v-29.49h-5.87v30.27h.17c1.19,2.77,8.65,5.58,17.68,5.58,1.01,0,2-.04,2.96-.1-7.68-.52-13.71-3.01-14.77-5.48Z" style="fill:#1d1d1b; isolation:isolate; opacity:.13;"/><path d="M66.66,224.1v14.78h.08c.58,1.35,4.22,2.72,8.63,2.72,4.81,0,8.72-1.57,8.72-3.1v-14.4h0c-5.73,1.33-11.7,1.33-17.43,0h0Z" style="fill:#5254cf;"/><path d="M74.96,238.87h-.08s0-.38,0-.38v-13.41c-2.76-.04-5.51-.36-8.22-.98v14.78h.08c.58,1.35,4.22,2.72,8.63,2.72,1.5,0,2.91-.15,4.15-.41-2.42-.51-4.17-1.41-4.56-2.32Z" style="fill:#393a8f;"/><ellipse cx="75.37" cy="213.57" rx="17.85" ry="5.69" style="fill:#6a6a6a;"/><path d="M90.1,213.57c0,2.07-6.59,3.75-14.72,3.75s-14.72-1.68-14.72-3.75,6.59-3.75,14.72-3.75,14.72,1.68,14.72,3.75Z" style="fill:#fcfcfc;"/><path d="M91.36,242.77h-4.78v-24.3h4.78c6.7,0,12.15,5.45,12.15,12.15s-5.45,12.15-12.15,12.15Zm-1.93-2.86h1.93c5.12,0,9.29-4.17,9.29-9.29s-4.17-9.29-9.29-9.29h-1.93v18.58Z" style="fill:#efefef; isolation:isolate;"/></g><g><path d="M146.02,223.91l2.46-3.69c.22-.33-.12-.73-.5-.59l-4.34,1.54c-.27,.1-.36,.42-.18,.64l1.88,2.14c.18,.21,.53,.19,.68-.04Z" style="fill:#ffe092;"/><path d="M145.5,224.64c.37-.38,.6-.88,.58-1.44-.02-1.13-1-2.02-2.18-1.99-.4,0-.78,.13-1.1,.32h0s-.03,.02-.03,.02c-.05,.03-.09,.06-.13,.09l-23.15,16.35h0c-.64,.37-1.07,1.03-1.05,1.79,.02,1.13,1,2.02,2.18,1.99,.13,0,.25-.02,.36-.04v.03s.08-.05,.08-.05c.57-.13,1.04-.47,1.34-.93l22.49-15.73c.22-.11,.42-.24,.59-.42h0s0,0,0,0Z" style="fill:#ffc700;"/></g><g><path d="M151.21,220.32l2.9-3.26c.26-.29,.73-.09,.7,.3l-.34,4.4c-.02,.28-.31,.45-.57,.34l-2.56-1.14c-.25-.11-.32-.43-.14-.64Z" style="fill:#5254cf;"/><path d="M154.36,222.61h0c.1-.35,.12-.72,.02-1.1-.29-1.09-1.4-1.74-2.49-1.45-.54,.14-.97,.49-1.23,.93h0s0,0,0,0c-.12,.2-.2,.43-.24,.66l-9.18,24.95c-.37,.39-.57,.93-.55,1.48l-.03,.08h.04c.01,.12,.02,.23,.06,.35,.29,1.09,1.4,1.74,2.49,1.45,.73-.19,1.26-.77,1.44-1.45h0s9.61-25.72,9.61-25.72c.02-.05,.04-.09,.05-.14v-.04Z" style="fill:#393a8f;"/></g><g><path d="M237.05,217.68h-48.76l54.39,34.78-5.63-34.78Zm-28.23,6.36l19.36-.48,1.19,13.59-20.56-13.11Z" style="fill:#ffc700;"/><path d="M237.05,215.14h-48.76l54.39,34.78-5.63-34.78Zm-28.23,6.36l20.72,.21,1.7,14.09-22.42-14.3Z" style="fill:#ffe092;"/><polygon points="188.3 215.14 188.3 217.68 193.94 218.75 188.3 215.14" style="fill:#f9be06;"/><polygon points="240.94 239.17 236.39 239.17 236.06 237.74 240.71 237.74 240.94 239.17" style="fill:#1d1d1b; isolation:isolate; opacity:.3;"/><polygon points="240.3 235.22 235.74 235.22 235.42 233.8 240.07 233.8 240.3 235.22" style="fill:#1d1d1b; isolation:isolate; opacity:.3;"/><polygon points="239.54 230.69 234.98 230.69 234.65 229.26 239.31 229.26 239.54 230.69" style="fill:#1d1d1b; isolation:isolate; opacity:.3;"/><polygon points="238.73 225.34 234.17 225.34 233.84 223.91 238.5 223.91 238.73 225.34" style="fill:#1d1d1b; isolation:isolate; opacity:.3;"/><polygon points="237.86 220.19 233.3 220.19 232.97 218.76 237.63 218.76 237.86 220.19" style="fill:#1d1d1b; isolation:isolate; opacity:.3;"/></g><path d="M140.38,162.75c0,1.98-9.83,5.67-21.96,5.67s-21.96-3.68-21.96-5.67,9.83-3.59,21.96-3.59,21.96,1.61,21.96,3.59Z" style="fill:#fcfcfc;"/><polygon points="105.74 170.34 99.48 128.25 112.55 128.25 116.17 178.05 106.43 178.05 105.74 170.34" style="fill:#d0d0fc;"/><polygon points="104.31 171.48 98.05 129.39 111.13 129.39 114.74 179.18 105.01 179.18 104.31 171.48" style="fill:#9f9ef2;"/><path d="M108.65,179.18h6.09l-.41-5.67c-1.89,1.89-3.78,3.78-5.68,5.67Z" style="fill:#97a7b5;"/><path d="M131.23,137.67h0c2.03,0,3.69,1.65,3.69,3.69v38.11c0,2.03-1.65,3.69-3.69,3.69h0c-2.03,0-3.69-1.65-3.69-3.69v-38.11c0-2.03,1.65-3.69,3.69-3.69Z" transform="translate(46.1 -28.55) rotate(15.04)" style="fill:#f66;"/><path d="M139.66,143.25l.15-.57c.49-1.81-.59-3.68-2.4-4.17l-.55-.15c-1.81-.49-3.68,.59-4.17,2.4l-.05,.2c1.97,1.62,4.57,2.6,7.02,2.28Z" style="fill:#e84343;"/><polygon points="118.33 170.47 118.33 141.77 122.11 130.09 125.17 141.35 123.64 171.81 118.33 170.47" style="fill:#f66;"/><path d="M125.17,141.47v-.12s-3.05-11.27-3.05-11.27l-3.69,11.39h0c2.18,.76,4.56,.76,6.74,0h0Z" style="fill:#e84343;"/><path d="M106.75,213.69l-10.28-51.42s5.92,5.18,21.98,5.18,21.74-5.18,21.74-5.18l-5.96,50.36c-.81,6.86-6.61,12.09-13.51,12.08-.63,0-1.28-.03-1.95-.08-5.98-.5-10.84-5.05-12.02-10.93Z" style="fill:#ffc700;"/><g style="isolation:isolate; opacity:.3;"><path d="M115.55,213.69l-9.5-47.48c-6.84-1.53-9.59-3.94-9.59-3.94l10.28,51.42c1.18,5.89,6.04,10.43,12.02,10.93,.66,.06,1.31,.08,1.95,.08,1.42,0,2.79-.23,4.08-.64-4.67-1.45-8.26-5.44-9.24-10.38Z" style="fill:#1d1d1b;"/></g><polygon points="98.05 129.39 99.48 128.25 101.28 128.25 100.51 129.39 98.05 129.39" style="fill:#d0d0fc;"/></g></g><g><polygon points="116.42 163.13 116.28 163.13 116.28 161.88 117.11 161.88 117.12 163.13 116.42 163.13" style="fill:#fff;"/><path d="M112.93,163.04c-.28-.01-.56-.03-.84-.05l.08-1.24c.27,.02,.55,.03,.82,.05l-.06,1.25Z" style="fill:#fff;"/><path d="M108.74,162.68c-.28-.03-.56-.07-.83-.11l.16-1.24c.27,.04,.54,.07,.82,.1l-.15,1.24Z" style="fill:#fff;"/><path d="M104.59,162.04c-.28-.05-.55-.11-.82-.17l.26-1.22c.27,.06,.54,.11,.81,.16l-.24,1.22Z" style="fill:#fff;"/><path d="M100.5,161.08c-.27-.07-.54-.15-.81-.23l.35-1.2c.26,.08,.53,.15,.79,.22l-.33,1.2Z" style="fill:#fff;"/><path d="M96.49,159.81c-.26-.09-.53-.19-.79-.29l.44-1.17c.26,.1,.51,.19,.77,.29l-.42,1.17Z" style="fill:#fff;"/><path d="M92.59,158.22c-.25-.12-.51-.23-.76-.35l.53-1.13c.25,.12,.5,.23,.75,.35l-.52,1.14Z" style="fill:#fff;"/><polygon points="153.02 155.87 152.61 154.69 153.4 154.42 153.81 155.6 153.02 155.87" style="fill:#fff;"/><rect x="156.71" y="153.14" width=".83" height="1.25" transform="translate(-42.92 62.58) rotate(-19.87)" style="fill:#fff;"/><polygon points="160.86 153.06 160.42 151.89 161.2 151.6 161.64 152.77 160.86 153.06" style="fill:#fff;"/><rect x="164.51" y="150.26" width=".83" height="1.25" transform="translate(-42.27 67.01) rotate(-20.42)" style="fill:#fff;"/><rect x="168.4" y="148.8" width=".83" height="1.25" transform="translate(-41.52 68.28) rotate(-20.42)" style="fill:#fff;"/><rect x="172.31" y="147.37" width=".83" height="1.25" transform="translate(-40.22 68.05) rotate(-20.01)" style="fill:#fff;"/><rect x="176.22" y="145.96" width=".83" height="1.25" transform="translate(-38.76 67.27) rotate(-19.47)" style="fill:#fff;"/><polygon points="180.37 145.96 179.97 144.77 180.77 144.51 181.16 145.69 180.37 145.96" style="fill:#fff;"/><polygon points="184.31 144.67 183.94 143.48 184.73 143.23 185.1 144.42 184.31 144.67" style="fill:#fff;"/><polygon points="188.28 143.47 187.93 142.27 188.74 142.05 189.07 143.25 188.28 143.47" style="fill:#fff;"/><polygon points="192.27 142.38 191.96 141.17 192.77 140.97 193.08 142.18 192.27 142.38" style="fill:#fff;"/><polygon points="196.3 141.42 196.03 140.21 196.85 140.03 197.11 141.25 196.3 141.42" style="fill:#fff;"/><polygon points="200.35 140.62 200.13 139.39 200.96 139.25 201.17 140.47 200.35 140.62" style="fill:#fff;"/><path d="M204.43,139.98l-.16-1.24c.28-.04,.55-.07,.83-.11l.15,1.24c-.27,.03-.55,.07-.82,.1Z" style="fill:#fff;"/><path d="M208.53,139.55l-.1-1.24c.28-.02,.56-.04,.84-.06l.09,1.24c-.27,.02-.55,.04-.82,.06Z" style="fill:#fff;"/><path d="M212.65,139.32l-.03-1.25c.28,0,.56-.01,.84-.02l.02,1.25c-.27,0-.55,0-.82,.02Z" style="fill:#fff;"/></g></svg>