<?xml version="1.0" encoding="UTF-8"?><svg id="a" xmlns="http://www.w3.org/2000/svg" xmlns:xlink="http://www.w3.org/1999/xlink" viewBox="0 0 300 300"><defs><linearGradient id="b" x1="-909.26" y1="-1347.56" x2="-938.57" y2="-1388.13" gradientTransform="translate(-1176.27 -703.71) rotate(-92.9) scale(1 -1)" gradientUnits="userSpaceOnUse"><stop offset="0" stop-color="#ffbb0a"/><stop offset="1" stop-color="#fff551"/></linearGradient></defs><path d="M150,226.33c-42.09,0-76.33-34.24-76.33-76.33s34.24-76.33,76.33-76.33,76.33,34.24,76.33,76.33-34.24,76.33-76.33,76.33Zm0-150.55c-40.92,0-74.22,33.29-74.22,74.22s33.29,74.22,74.22,74.22,74.22-33.29,74.22-74.22-33.29-74.22-74.22-74.22Z" style="fill:#1d1d1b; isolation:isolate; opacity:.3;"/><rect x="23.89" y="169" width="252.23" height="2" style="fill:#1d1d1b; isolation:isolate; opacity:.3;"/><rect x="149" y="41.15" width="2" height="217.7" style="fill:#1d1d1b; isolation:isolate; opacity:.3;"/><g><polygon points="149.91 100.94 177.25 105.39 150.19 110.12 123.01 105.37 149.91 100.94" style="fill:#393a8f;"/><polygon points="204.3 146.01 149.99 155.11 96.15 146.04 149.99 136.98 204.3 146.01" style="fill:#a37c58;"/><polygon points="149.96 200.01 231.61 186.24 149.96 172.06 68.65 186.24 149.96 200.01" style="fill:#393a8f;"/><g><g><polyline points="74.79 177.35 150 190 150 155.13 96.16 146.03" style="fill:#ffe092;"/><polyline points="47 218.06 150 235.19 150 200.02 68.65 186.24" style="fill:#9f9ef2;"/><polyline points="102.05 137.06 150 145.14 150 110.1 123.32 105.44 123 105.38" style="fill:#9f9ef2;"/><polygon points="150 64.82 128.14 97.34 150 101 150 64.82" style="fill:#f66;"/></g><g><polygon points="253 218.06 231.62 186.25 150.1 200.04 150 200.02 150 235.18 253 218.06" style="fill:#5254cf;"/><polygon points="171.52 97.38 171.82 97.33 150 64.81 150 101 150.26 101.04 171.52 97.38" style="fill:#e84343;"/><polyline points="177.29 105.42 150.2 110.13 150 110.1 150 145.14 150.18 145.17 198.32 137.06" style="fill:#5254cf;"/><polyline points="204.29 146.03 150.27 155.18 150 155.13 150 190 150.18 190.03 225.5 177.44" style="fill:#ffc700;"/></g></g></g><g style="isolation:isolate;"><path d="M58.74,80.41c-.36,0-.73-.14-1.01-.42-.56-.56-.56-1.46,0-2.01l5.67-5.67-6.2-6.2c-.56-.56-.56-1.46,0-2.01,.56-.56,1.46-.56,2.01,0l7.21,7.21c.56,.56,.56,1.46,0,2.01l-6.67,6.67c-.28,.28-.64,.42-1.01,.42Z" style="fill:#efefef;"/><path d="M68.79,80.41c-.36,0-.73-.14-1.01-.42-.56-.56-.56-1.46,0-2.01l5.67-5.67-6.2-6.2c-.56-.56-.56-1.46,0-2.01,.56-.56,1.46-.56,2.01,0l7.21,7.21c.56,.56,.56,1.46,0,2.01l-6.67,6.67c-.28,.28-.64,.42-1.01,.42Z" style="fill:#efefef;"/><path d="M78.84,80.41c-.36,0-.73-.14-1.01-.42-.56-.56-.56-1.46,0-2.01l5.67-5.67-6.2-6.2c-.56-.56-.56-1.46,0-2.01,.56-.56,1.46-.56,2.01,0l7.21,7.21c.56,.56,.56,1.46,0,2.01l-6.67,6.67c-.28,.28-.64,.42-1.01,.42Z" style="fill:#efefef;"/><path d="M88.89,80.41c-.36,0-.73-.14-1.01-.42-.56-.56-.56-1.46,0-2.01l5.67-5.67-6.2-6.2c-.56-.56-.56-1.46,0-2.01,.56-.56,1.46-.56,2.01,0l7.21,7.21c.56,.56,.56,1.46,0,2.01l-6.67,6.67c-.28,.28-.64,.42-1.01,.42Z" style="fill:#efefef;"/><path d="M98.95,80.41c-.36,0-.73-.14-1.01-.42-.56-.56-.56-1.46,0-2.01l5.67-5.67-6.2-6.2c-.56-.56-.56-1.46,0-2.01,.56-.56,1.46-.56,2.01,0l7.21,7.21c.56,.56,.56,1.46,0,2.01l-6.67,6.67c-.28,.28-.64,.42-1.01,.42Z" style="fill:#efefef;"/></g><g style="isolation:isolate;"><path d="M235.98,161.68c-.26,0-.52-.1-.72-.3-.4-.4-.4-1.04,0-1.44l4.06-4.06-4.44-4.44c-.4-.4-.4-1.04,0-1.44,.4-.4,1.04-.4,1.44,0l5.16,5.16c.4,.4,.4,1.04,0,1.44l-4.78,4.78c-.2,.2-.46,.3-.72,.3Z" style="fill:#efefef;"/><path d="M243.17,161.68c-.26,0-.52-.1-.72-.3-.4-.4-.4-1.04,0-1.44l4.06-4.06-4.44-4.44c-.4-.4-.4-1.04,0-1.44,.4-.4,1.04-.4,1.44,0l5.16,5.16c.4,.4,.4,1.04,0,1.44l-4.78,4.78c-.2,.2-.46,.3-.72,.3Z" style="fill:#efefef;"/><path d="M250.37,161.68c-.26,0-.52-.1-.72-.3-.4-.4-.4-1.04,0-1.44l4.06-4.06-4.44-4.44c-.4-.4-.4-1.04,0-1.44,.4-.4,1.04-.4,1.44,0l5.16,5.16c.4,.4,.4,1.04,0,1.44l-4.78,4.78c-.2,.2-.46,.3-.72,.3Z" style="fill:#efefef;"/><path d="M257.57,161.68c-.26,0-.52-.1-.72-.3-.4-.4-.4-1.04,0-1.44l4.06-4.06-4.44-4.44c-.4-.4-.4-1.04,0-1.44,.4-.4,1.04-.4,1.44,0l5.16,5.16c.4,.4,.4,1.04,0,1.44l-4.78,4.78c-.2,.2-.46,.3-.72,.3Z" style="fill:#efefef;"/><path d="M264.76,161.68c-.26,0-.52-.1-.72-.3-.4-.4-.4-1.04,0-1.44l4.06-4.06-4.44-4.44c-.4-.4-.4-1.04,0-1.44,.4-.4,1.04-.4,1.44,0l5.16,5.16c.4,.4,.4,1.04,0,1.44l-4.78,4.78c-.2,.2-.46,.3-.72,.3Z" style="fill:#efefef;"/></g><circle cx="213.84" cy="80.04" r="5.4" style="fill:#d0d0fc;"/><g><polygon points="89.15 156.7 92.36 168.77 92.05 155.52 89.15 156.7" style="fill:#6a6a6a;"/><path d="M80.52,112.17l6.77,41.58c.19,1.19,.86,2.26,1.86,2.95h0l2.81-.51,.47-3.73c.38-3.04,.19-6.12-.57-9.09l-8.35-32.8-2.99,1.6Z" style="fill:#9f9ef2;"/><g><rect x="39.73" y="147.04" width="31.3" height="3.69" transform="translate(209.62 110.85) rotate(96.55)" style="fill:#ffc700;"/><g><polygon points="53.86 167.41 52.58 167.26 51.77 164.23 55.43 164.65 53.86 167.41" style="fill:#efefef; isolation:isolate;"/><polygon points="53.02 168.89 52.58 167.26 53.86 167.41 53.02 168.89" style="fill:#6a6a6a;"/></g><rect x="56.5" y="130.75" width="1.5" height="3.69" transform="translate(195.52 90.85) rotate(96.55)" style="fill:#6a6a6a;"/><path d="M56.76,128.26h2.54v3.69h-2.54c-.54,0-.98-.44-.98-.98v-1.72c0-.54,.44-.98,.98-.98Z" transform="translate(193.36 87.78) rotate(96.55)" style="fill:#fc7464;"/></g><path d="M81.46,103.07l1.34-11.88c.21-1.66-1.06-3.15-2.73-3.21h0c-1.61-.06-2.94,1.22-2.96,2.82v12.18s4.36,.09,4.36,.09Z" style="fill:#5254cf;"/><path d="M58.94,158.57h0c1.06,.1,2.01-.63,2.19-1.67,2.82-16.86,5.54-35.05,9.44-40.81,.78-1.15,2.09-1.83,3.48-1.85l7.7-.1c4.56,.11,5.75-9.67,1.28-10.92,0,0-10.13-6.17-16.94,10.85-3.46,7.4-5.38,16.27-6.49,25.48-.06,.52-.51,.91-1.03,.9l-4.19-.08c-.5,0-.94,.35-1.02,.85l-2.12,12.51c-.1,.62,.37,1.19,1,1.19l5.16-.08-.23,1.39c-.19,1.15,.63,2.22,1.79,2.34Z" style="fill:#5254cf;"/><g><path d="M81.45,107.52c.24,1.4-.7,2.73-2.1,2.96-1.4,.24-2.73-.7-2.96-2.1-.24-1.4,.7-2.73,2.1-2.96,1.4-.24,2.73,.7,2.96,2.1Z" style="fill:#d0d0fc;"/><path d="M80.11,107.75c.11,.66-.33,1.28-.99,1.4-.66,.11-1.28-.33-1.4-.99-.11-.66,.33-1.28,.99-1.4s1.28,.33,1.4,.99Z" style="fill:#fff;"/></g><g><path d="M64.04,147.97c.22,1.26-.63,2.46-1.89,2.67-1.26,.22-2.46-.63-2.67-1.89-.22-1.26,.63-2.46,1.89-2.67,1.26-.21,2.46,.63,2.67,1.89Z" style="fill:#d0d0fc;"/><path d="M62.83,148.17c.1,.59-.3,1.16-.89,1.26-.59,.1-1.16-.3-1.26-.89-.1-.59,.3-1.16,.89-1.26,.59-.1,1.16,.3,1.26,.89Z" style="fill:#fff;"/></g></g><g><g><polygon points="243.06 87.09 243.06 87.09 243.33 86.56 243.33 86.56 243.33 86.56 243.06 87.09" style="fill:#ff6c7b;"/><rect x="242.16" y="86.98" width="0" height=".59" style="fill:#ff6c7b;"/><polygon points="243.06 87.09 243.33 86.56 243.33 86.56 241.83 84.25 241.56 84.77 241.56 84.77 241.56 84.77 243.06 87.09" style="fill:#ff6c7b;"/><polygon points="242.29 87.01 242.29 87.01 242.29 87.01 241.24 85.39 241.24 85.39 242.29 87.01" style="fill:#ff6c7b;"/><polygon points="241.67 88.24 241.4 88.76 241.4 88.76 241.67 88.24 241.67 88.24 241.67 88.24" style="fill:#ff6c7b;"/><polygon points="242.02 87.54 242.29 87.01 242.29 87.01 241.24 85.39 241.24 85.39 240.97 85.92 240.97 85.92 242.02 87.54" style="fill:#ff6c7b;"/><polygon points="241.67 88.24 241.67 88.24 240.61 86.62 241.67 88.24" style="fill:#ff6c7b;"/><polygon points="241.04 89.46 240.77 89.98 240.77 89.98 241.04 89.46 241.04 89.46 241.04 89.46" style="fill:#ff6c7b;"/><polygon points="241.4 88.76 241.67 88.24 241.67 88.24 240.61 86.62 240.34 87.14 240.34 87.14 241.4 88.76" style="fill:#ff6c7b;"/><rect x="240.51" y="87.68" width="0" height="1.93" style="fill:#ff6c7b;"/><polygon points="240.15 91.21 240.41 90.68 240.41 90.68 240.41 90.68 240.15 91.21" style="fill:#ff6c7b;"/><polygon points="240.77 89.98 241.04 89.46 241.04 89.46 239.99 87.84 239.99 87.84 239.72 88.36 239.72 88.36 239.72 88.36 240.77 89.98" style="fill:#ff6c7b;"/><rect x="237.96" y="88.41" width="1.76" height="0" style="fill:#ff6c7b;"/><polygon points="239.94 93.19 240.21 92.67 240.21 92.67 240.21 92.67 239.94 93.19" style="fill:#ff6c7b;"/><polygon points="240.15 91.21 240.41 90.68 240.41 90.68 239.36 89.06 239.09 89.59 240.15 91.21" style="fill:#ff6c7b;"/><polygon points="238.7 90.35 240.21 92.67 240.21 92.67 238.7 90.35 236.94 90.43 236.94 90.43 238.7 90.35" style="fill:#ff6c7b;"/><polygon points="238.81 93.82 239.08 93.3 238.81 93.82 238.81 93.82" style="fill:#ff6c7b;"/><polygon points="239.94 93.19 240.21 92.67 240.21 92.67 238.7 90.35 238.43 90.88 238.43 90.88 238.43 90.88 239.94 93.19" style="fill:#ff6c7b;"/><polygon points="239.08 93.3 238.02 91.68 238.02 91.68 239.08 93.3" style="fill:#ff6c7b;"/><polygon points="238.45 94.52 238.18 95.05 238.18 95.05 238.45 94.52 238.45 94.52 238.45 94.52" style="fill:#ff6c7b;"/><polygon points="238.81 93.82 239.08 93.3 238.02 91.68 238.02 91.68 237.75 92.21 237.75 92.21 238.81 93.82" style="fill:#ff6c7b;"/><polygon points="237.63 131.92 239.39 131.84 238.68 102.83 237 106.27 237.63 131.92" style="fill:#ffc700;"/><rect x="237.92" y="92.75" width="0" height="1.93" style="fill:#ff6c7b;"/><polygon points="237.56 96.27 237.56 96.27 237.82 95.74 237.82 95.74 237.82 95.74 237.56 96.27" style="fill:#ff6c7b;"/><polygon points="238.18 95.05 238.45 94.52 238.45 94.52 237.4 92.9 237.4 92.9 237.13 93.43 237.13 93.43 238.18 95.05" style="fill:#ff6c7b;"/><polygon points="236.93 97.49 236.93 97.49 237.2 96.97 237.2 96.97 237.2 96.97 236.93 97.49" style="fill:#ff6c7b;"/><polygon points="237.56 96.27 237.82 95.74 237.82 95.74 236.77 94.13 236.5 94.65 236.5 94.65 236.5 94.65 237.56 96.27" style="fill:#ff6c7b;"/><rect x="236.56" y="99.22" width=".59" height="0" style="fill:#ff6c7b;"/><polygon points="236.93 97.49 237.2 96.97 237.2 96.97 236.14 95.35 235.88 95.88 235.88 95.88 235.88 95.88 236.93 97.49" style="fill:#ff6c7b;"/><polygon points="236.99 98.95 236.99 98.95 236.99 98.95 235.49 96.64 235.49 96.64 236.99 98.95" style="fill:#ff6c7b;"/><polygon points="235.59 100.11 235.86 99.58 235.59 100.11 235.59 100.11" style="fill:#ff6c7b;"/><polygon points="236.72 99.48 236.99 98.95 236.99 98.95 235.49 96.64 235.49 96.64 235.22 97.17 235.22 97.17 236.72 99.48" style="fill:#ff6c7b;"/><polygon points="235.86 99.58 234.81 97.97 234.8 97.97 234.81 97.97 235.86 99.58" style="fill:#ff6c7b;"/><polygon points="235.23 100.81 234.96 101.33 234.96 101.33 235.23 100.81 235.23 100.81 235.23 100.81" style="fill:#ff6c7b;"/><polygon points="235.59 100.11 235.86 99.58 234.81 97.97 234.54 98.49 234.54 98.49 234.54 98.49 235.59 100.11" style="fill:#ff6c7b;"/><polygon points="235.23 100.81 235.23 100.81 234.18 99.19 234.17 99.19 234.18 99.19 235.23 100.81" style="fill:#ff6c7b;"/><polygon points="234.34 102.56 234.61 102.03 234.61 102.03 234.61 102.03 234.34 102.56" style="fill:#ff6c7b;"/><polygon points="234.96 101.33 235.23 100.81 235.23 100.81 234.18 99.19 233.91 99.72 234.52 100.66 234.96 101.33" style="fill:#ff6c7b;"/><polygon points="233.71 103.78 233.71 103.78 233.98 103.25 233.98 103.25 233.98 103.25 233.71 103.78" style="fill:#ff6c7b;"/><polygon points="234.34 102.56 234.61 102.03 234.61 102.03 233.55 100.41 233.29 100.94 233.29 100.94 234.34 102.56" style="fill:#ff6c7b;"/><rect x="233.64" y="105.21" width="0" height=".59" style="fill:#ff6c7b;"/><polygon points="233.71 103.78 233.98 103.25 233.98 103.25 232.93 101.64 232.66 102.16 232.66 102.16 233.71 103.78" style="fill:#ff6c7b;"/><polygon points="233.78 105.24 233.78 105.24 233.78 105.24 232.27 102.92 232.27 102.92 233.78 105.24" style="fill:#ff6c7b;"/><polygon points="232.37 106.4 232.37 106.4 232.64 105.87 232.64 105.87 232.64 105.87 232.37 106.4" style="fill:#ff6c7b;"/><polygon points="233.51 105.77 233.78 105.24 233.78 105.24 232.27 102.92 232.27 102.92 232 103.45 232 103.45 233.51 105.77" style="fill:#ff6c7b;"/><polygon points="231.75 107.62 231.75 107.62 232.02 107.09 232.02 107.09 232.02 107.09 231.75 107.62" style="fill:#ff6c7b;"/><polygon points="232.37 106.4 232.64 105.87 232.64 105.87 231.59 104.25 231.32 104.78 231.32 104.78 231.32 104.78 232.37 106.4" style="fill:#ff6c7b;"/><polygon points="231.12 108.84 231.39 108.32 231.12 108.84 231.12 108.84" style="fill:#ff6c7b;"/><polygon points="231.75 107.62 232.02 107.09 232.02 107.09 230.96 105.47 230.69 106 230.69 106 231.75 107.62" style="fill:#ff6c7b;"/><polygon points="230.5 110.07 230.76 109.54 230.5 110.07 230.5 110.07" style="fill:#ff6c7b;"/><polygon points="231.12 108.84 231.39 108.32 230.34 106.7 230.34 106.7 230.34 106.7 230.07 107.22 230.07 107.22 231.12 108.84" style="fill:#ff6c7b;"/><polygon points="230.56 111.53 230.29 112.05 230.29 112.05 230.56 111.53 230.56 111.53 230.56 111.53" style="fill:#ff6c7b;"/><polygon points="230.76 109.54 229.71 107.92 229.71 107.92 229.71 107.92 230.76 109.54" style="fill:#ff6c7b;"/><polygon points="230.5 110.07 230.76 109.54 229.71 107.92 229.44 108.45 229.44 108.45 230.5 110.07" style="fill:#ff6c7b;"/><rect x="229.81" y="108.99" height="2.76" style="fill:#ff6c7b;"/><polygon points="229.16 112.68 229.43 112.16 229.43 112.16 229.43 112.16 229.16 112.68" style="fill:#ff6c7b;"/><polygon points="230.29 112.05 230.56 111.53 230.56 111.53 229.05 109.21 229.05 109.21 228.78 109.74 228.78 109.74 230.29 112.05" style="fill:#ff6c7b;"/><rect x="228.37" y="113.64" width=".59" height="0" style="fill:#ff6c7b;"/><polygon points="229.16 112.68 229.43 112.16 229.43 112.16 228.37 110.54 228.1 111.07 228.1 111.07 229.16 112.68" style="fill:#ff6c7b;"/><polygon points="228.8 113.38 228.8 113.38 228.8 113.38 227.75 111.76 227.75 111.76 228.8 113.38" style="fill:#ff6c7b;"/><polygon points="228.17 114.6 227.91 115.13 227.91 115.13 228.17 114.6 228.17 114.6 228.17 114.6" style="fill:#ff6c7b;"/><polygon points="228.53 113.91 228.8 113.38 228.8 113.38 227.75 111.76 227.75 111.76 227.48 112.29 227.48 112.29 227.48 112.29 228.53 113.91" style="fill:#ff6c7b;"/><rect x="227.65" y="112.83" width="0" height="1.93" style="fill:#ff6c7b;"/><polygon points="227.55 115.83 227.28 116.35 227.28 116.35 227.55 115.83 227.55 115.83 227.55 115.83" style="fill:#ff6c7b;"/><polygon points="227.91 115.13 228.17 114.6 228.17 114.6 227.12 112.99 227.12 112.99 226.85 113.51 226.85 113.51 227.91 115.13" style="fill:#ff6c7b;"/><polygon points="227.07 118.34 227.07 118.34 227.34 117.81 227.34 117.81 227.34 117.81 227.07 118.34" style="fill:#ff6c7b;"/><polygon points="227.55 115.83 227.55 115.83 226.49 114.21 227.55 115.83" style="fill:#ff6c7b;"/><polygon points="224.46 114.82 224.46 114.82 224.46 114.82 224.46 114.82" style="fill:#ff6c7b;"/><polygon points="227.28 116.35 227.55 115.83 227.55 115.83 226.49 114.21 226.23 114.74 226.23 114.74 227.28 116.35" style="fill:#ff6c7b;"/><rect x="225.78" y="118.71" width=".59" height="0" transform="translate(-17.72 194.63) rotate(-45)" style="fill:#ff6c7b;"/><polygon points="227.07 118.34 227.34 117.81 227.34 117.81 225.84 115.5 225.57 116.02 225.57 116.02 227.07 118.34" style="fill:#ff6c7b;"/><polygon points="226.21 118.44 226.21 118.44 226.21 118.44 225.77 117.77 226.21 118.44" style="fill:#ff6c7b;"/><polygon points="225.31 120.19 225.58 119.67 225.31 120.19 225.31 120.19" style="fill:#ff6c7b;"/><polygon points="225.94 118.97 226.21 118.44 226.21 118.44 225.77 117.77 225.16 116.83 225.16 116.83 225.16 116.83 224.89 117.35 224.89 117.35 225.94 118.97" style="fill:#ff6c7b;"/><polygon points="225.58 119.67 224.53 118.05 224.53 118.05 224.53 118.05 225.58 119.67" style="fill:#ff6c7b;"/><polygon points="224.96 120.89 224.96 120.89 224.69 121.42 224.96 120.89 224.96 120.89" style="fill:#ff6c7b;"/><polygon points="225.31 120.19 225.58 119.67 224.53 118.05 224.26 118.58 224.26 118.58 225.31 120.19" style="fill:#ff6c7b;"/><rect x="224.43" y="119.12" width="0" height="1.93" style="fill:#ff6c7b;"/><polygon points="224.06 122.64 224.06 122.64 224.06 122.64 224.33 122.11 224.33 122.11 224.33 122.11 224.06 122.64" style="fill:#ff6c7b;"/><polygon points="224.96 120.89 223.9 119.27 223.9 119.27 223.64 119.8 224.69 121.42 224.96 120.89 224.96 120.89" style="fill:#ff6c7b;"/><polygon points="223.86 124.62 223.86 124.62 224.13 124.1 224.13 124.1 224.13 124.1 223.86 124.62" style="fill:#ff6c7b;"/><polygon points="223.45 121.7 224.06 122.64 224.33 122.11 224.33 122.11 223.28 120.5 223.01 121.02 223.01 121.02 223.01 121.02 223.45 121.7" style="fill:#ff6c7b;"/><polygon points="223.45 121.7 224.06 122.64 224.06 122.64 223.45 121.7" style="fill:#ff6c7b;"/><polygon points="222.99 124.73 222.72 125.26 222.72 125.26 222.99 124.73 222.99 124.73 222.99 124.73" style="fill:#ff6c7b;"/><polygon points="223.86 124.62 224.13 124.1 224.13 124.1 222.62 121.78 222.35 122.31 222.35 122.31 222.35 122.31 223.86 124.62" style="fill:#ff6c7b;"/><polygon points="222.99 124.73 222.99 124.73 221.94 123.11 221.93 123.11 221.94 123.11 222.99 124.73" style="fill:#ff6c7b;"/><polygon points="222.1 126.48 222.1 126.48 222.37 125.95 222.37 125.95 222.37 125.95 222.1 126.48" style="fill:#ff6c7b;"/><polygon points="222.72 125.26 222.99 124.73 222.99 124.73 221.94 123.11 221.67 123.64 221.67 123.64 222.72 125.26" style="fill:#ff6c7b;"/><polygon points="221.47 127.7 221.74 127.18 221.47 127.7 221.47 127.7" style="fill:#ff6c7b;"/><polygon points="222.1 126.48 222.37 125.95 222.37 125.95 221.31 124.33 221.04 124.86 221.04 124.86 222.1 126.48" style="fill:#ff6c7b;"/><polygon points="220.85 128.93 220.85 128.93 221.12 128.4 221.12 128.4 221.12 128.4 220.85 128.93" style="fill:#ff6c7b;"/><polygon points="221.47 127.7 221.74 127.18 220.69 125.56 220.42 126.08 220.42 126.08 220.42 126.08 221.47 127.7" style="fill:#ff6c7b;"/><polygon points="218.66 126.17 218.66 126.17 218.66 126.17 218.66 126.17" style="fill:#ff6c7b;"/><polygon points="218.66 126.17 220.42 126.08 220.42 126.08 218.66 126.17" style="fill:#ff6c7b;"/><rect x="220.48" y="130.65" width=".59" height="0" style="fill:#ff6c7b;"/><polygon points="220.85 128.93 221.12 128.4 221.12 128.4 220.06 126.78 219.79 127.31 220.85 128.93" style="fill:#ff6c7b;"/><polygon points="220.03 129.04 219.4 128.07 219.4 128.07 220.03 129.04" style="fill:#ff6c7b;"/><polygon points="219.51 131.54 219.51 131.54 219.78 131.02 219.78 131.02 219.78 131.02 219.51 131.54" style="fill:#ff6c7b;"/><polygon points="220.64 130.91 220.91 130.39 220.91 130.39 220.03 129.04 219.4 128.07 219.4 128.07 219.13 128.6 219.13 128.6 220.64 130.91" style="fill:#ff6c7b;"/><polygon points="219.15 132.24 219.15 132.24 219.15 132.24 218.88 132.77 218.88 132.77 218.88 132.77 219.15 132.24" style="fill:#ff6c7b;"/><polygon points="219.51 131.54 219.78 131.02 219.78 131.02 218.72 129.4 218.45 129.93 218.45 129.93 219.51 131.54" style="fill:#ff6c7b;"/><polygon points="218.26 133.99 218.26 133.99 218.52 133.46 218.52 133.46 218.52 133.46 218.26 133.99" style="fill:#ff6c7b;"/><polygon points="219.15 132.24 218.1 130.62 217.83 131.15 218.88 132.77 219.15 132.24 219.15 132.24" style="fill:#ff6c7b;"/><polygon points="217.83 131.15 218.88 132.77 218.88 132.77 217.83 131.15 216.06 131.23 216.06 131.23 216.06 131.23 217.83 131.15" style="fill:#ff6c7b;"/><polygon points="217.9 134.69 217.63 135.21 217.63 135.21 217.9 134.69 217.9 134.69 217.9 134.69" style="fill:#ff6c7b;"/><polygon points="218.26 133.99 218.52 133.46 218.52 133.46 217.47 131.85 217.2 132.37 217.2 132.37 218.26 133.99" style="fill:#ff6c7b;"/><polygon points="217.69 136.67 217.42 137.2 217.42 137.2 217.69 136.67 217.69 136.67 217.69 136.67" style="fill:#ff6c7b;"/><rect x="217.37" y="132.91" width="0" height="1.93" style="fill:#ff6c7b;"/><polygon points="217.63 135.21 217.9 134.69 217.9 134.69 216.85 133.07 216.85 133.07 216.58 133.6 216.58 133.6 217.63 135.21" style="fill:#ff6c7b;"/><polygon points="217.69 136.67 217.69 136.67 216.19 134.36 216.18 134.36 216.19 134.36 217.69 136.67" style="fill:#ff6c7b;"/><polygon points="216.29 137.83 216.29 137.83 216.56 137.3 216.56 137.3 216.56 137.3 216.29 137.83" style="fill:#ff6c7b;"/><polygon points="217.42 137.2 217.69 136.67 217.69 136.67 216.19 134.36 215.92 134.88 215.92 134.88 217.42 137.2" style="fill:#ff6c7b;"/><polygon points="215.66 139.05 215.66 139.05 215.93 138.53 215.93 138.53 215.93 138.53 215.66 139.05" style="fill:#ff6c7b;"/><polygon points="216.29 137.83 216.56 137.3 216.56 137.3 215.51 135.69 215.24 136.21 215.24 136.21 215.24 136.21 216.29 137.83" style="fill:#ff6c7b;"/><rect x="215.17" y="139.72" width="0" height=".59" style="fill:#ff6c7b;"/><polygon points="215.66 139.05 215.93 138.53 215.93 138.53 214.88 136.91 214.61 137.43 214.61 137.43 215.66 139.05" style="fill:#ff6c7b;"/><polygon points="214.68 140.97 214.41 141.5 214.41 141.5 214.68 140.97 214.68 140.97 214.68 140.97" style="fill:#ff6c7b;"/><polygon points="215.04 140.28 215.31 139.75 215.31 139.75 214.25 138.13 214.25 138.13 214.25 138.13 213.98 138.66 213.98 138.66 215.04 140.28" style="fill:#ff6c7b;"/><polygon points="214.21 143.48 214.21 143.48 214.48 142.96 214.48 142.96 214.48 142.96 214.21 143.48" style="fill:#ff6c7b;"/><polygon points="214.68 140.97 214.68 140.97 213.63 139.35 213.62 139.35 213.63 139.35 214.68 140.97" style="fill:#ff6c7b;"/><polygon points="214.41 141.5 214.68 140.97 214.68 140.97 213.63 139.35 213.36 139.88 213.36 139.88 214.41 141.5" style="fill:#ff6c7b;"/><polygon points="210.94 141.25 210.94 141.25 210.94 141.25 210.94 141.25" style="fill:#ff6c7b;"/><polygon points="214.21 143.48 214.48 142.96 214.48 142.96 212.97 140.64 212.7 141.17 212.7 141.17 214.21 143.48" style="fill:#ff6c7b;"/></g><g><path d="M245.18,77.7c-1.12,2.18-34.68,67.77-35.91,70.18-.59,.03-1.18,.06-1.76,.09,11.97-23.39,23.94-46.79,35.91-70.18,.59-.03,1.18-.06,1.76-.09Z" style="fill:#ffc700;"/><polygon points="216.56 137.3 215.51 135.69 216.56 137.3 216.56 137.3" style="fill:url(#b);"/></g><path d="M246.23,139.94l-.34-19.78-.26-15.66-.28-16.68-.17-10.12-3.35,6.55,1.51,2.31-.27,.53-1.51-2.31-.32,.62,1.05,1.62-.27,.53-1.05-1.62-.36,.7,1.05,1.62-.27,.53-1.05-1.62-.36,.7,1.05,1.62-.27,.53-1.05-1.62-.36,.7,1.05,1.62-.27,.52-1.06-1.62-.39,.76,1.51,2.31-.27,.53-1.51-2.32-.41,.8,1.05,1.62-.27,.53-1.06-1.62-.36,.7,1.05,1.62-.27,.53-1.06-1.62-.36,.7,1.06,1.62-.27,.53-1.05-1.62-.36,.7,1.06,1.62-.27,.53-1.05-1.62-.39,.76,1.51,2.31-.27,.53-1.51-2.32-.41,.8,1.06,1.62-.27,.53-1.05-1.62-.36,.7,1.05,1.62-.27,.53-.44-.68-.61-.94-.36,.69,1.05,1.62-.27,.52-1.06-1.62-.36,.7,1.05,1.62-.27,.53-1.05-1.62-.39,.76,1.51,2.32-.27,.53-1.51-2.31-.41,.8,1.05,1.62-.27,.53-1.05-1.62-.36,.7,1.05,1.62-.27,.53-1.05-1.62-.36,.7,1.05,1.62-.27,.53-1.05-1.62-.36,.7,1.05,1.62-.27,.53-1.05-1.62-.39,.76,1.51,2.32-.27,.52-1.51-2.31-.41,.8,1.05,1.62-.27,.53-1.05-1.62-.36,.7,1.05,1.62-.27,.53-1.06-1.62-.36,.7,1.06,1.62-.27,.53-1.05-1.62-.36,.7,1.06,1.62-.27,.52-1.05-1.62-.39,.76,1.51,2.31-.27,.53-1.51-2.31-.41,.8,.62,.94,.44,.68-.27,.53-1.05-1.62-.36,.7,1.05,1.62-.27,.53-1.05-1.62-.36,.7,1.05,1.62-.27,.53-1.06-1.62-.36,.7,1.05,1.62-.27,.53-.61-.94-.44-.68-.39,.76,1.51,2.31-.27,.53-1.51-2.31-.41,.8,1.05,1.62-.27,.53-1.05-1.62-.36,.7,1.06,1.62-.27,.53-1.05-1.62-.36,.69,1.05,1.62-.27,.52-1.05-1.62-.36,.7,1.05,1.62-.27,.53-1.05-1.62-.39,.76,.63,.97,.87,1.35-.27,.53-1.51-2.32-.41,.8,1.05,1.62-.27,.53-1.05-1.62-.36,.7,1.05,1.62-.27,.53-1.05-1.62-.36,.7,1.05,1.62-.27,.53-1.05-1.62-.36,.7,1.05,1.62-.27,.53-1.05-1.62-.39,.76,1.51,2.32-.27,.52-1.51-2.31-.41,.8,1.06,1.62-.27,.53-1.05-1.62-.36,.7,1.05,1.62-.27,.53h0l-1.05-1.62-.36,.7,1.05,1.62-.27,.53-1.06-1.62-.36,.7,1.06,1.62-.27,.53-1.06-1.62-.39,.76,1.51,2.31-.27,.53-1.51-2.31-3.43,6.71,4.84-.76,13.01-2.05,6.18-.98,11.9-1.88,1.07-.17-.03-2.1Zm-13.09-8.08l-9.59,1.13,.07-.13,13.41-26.2,1.69-3.3,.36,15.52,.29,12.25-6.21,.73Z" style="fill:#ffe092;"/><polygon points="246.23 139.94 245.19 142.21 233.29 144.09 245.89 120.16 246.23 139.94" style="fill:#ffe092;"/></g><g><path d="M192.81,253.38h-2.51c-.01-.12-.12-.08-.2-.1-1.25-.18-2.42-.51-3.5-1.05-3.35-1.68-5.35-4.52-6.62-7.97-1.15-3.13-1.52-6.5-1.32-10.03,.15-2.75,.65-5.5,1.51-8.23,1.04-3.3,2.54-6.47,4.66-9.41,1.9-2.65,4.12-5,6.93-6.71,4.62-2.81,9.09-3.31,13.27-1.19,3.23,1.63,5.13,4.45,6.36,7.78,1.16,3.14,1.55,6.52,1.34,10.07-.21,3.7-1.03,7.37-2.52,11-1.64,4.02-3.94,7.69-7.25,10.8-2.39,2.25-5.08,3.9-8.16,4.65-.67,.16-1.34,.27-2.01,.4Zm13.56-26.13c.13-2.65-.12-5.12-.91-7.44-.67-1.96-1.65-3.71-3.32-4.93-1.65-1.21-3.59-1.53-5.85-.73-1.99,.71-3.61,2.04-5.03,3.63-2.4,2.7-3.92,5.76-4.99,9-.14,.42-.05,.47,.34,.47,6.43-.01,12.86,0,19.29,0h.47Zm-21.34,6.29c-.11,2.22,.05,4.32,.57,6.31,.63,2.4,1.65,4.56,3.63,6.03,1.67,1.25,3.64,1.57,5.92,.74,1.97-.72,3.57-2.04,4.98-3.62,2.4-2.7,3.92-5.76,4.99-9,.14-.42,.05-.47-.34-.47-6.43,.01-12.86,0-19.29,0h-.47Z" style="fill:#a37c58;"/><path d="M189.07,252.45h-2.51c-.01-.12-.12-.08-.2-.1-1.25-.18-2.42-.51-3.5-1.05-3.35-1.68-5.35-4.52-6.62-7.97-1.15-3.13-1.52-6.5-1.32-10.03,.15-2.75,.65-5.5,1.51-8.23,1.04-3.3,2.54-6.47,4.66-9.41,1.9-2.65,4.12-5,6.93-6.71,4.62-2.81,9.09-3.31,13.27-1.19,3.23,1.63,5.13,4.45,6.36,7.78,1.16,3.14,1.55,6.52,1.34,10.07-.21,3.7-1.03,7.37-2.52,11-1.64,4.02-3.94,7.69-7.25,10.8-2.39,2.25-5.08,3.9-8.16,4.65-.67,.16-1.34,.27-2.01,.4Zm13.56-26.13c.13-2.65-.12-5.12-.91-7.44-.67-1.96-1.65-3.71-3.32-4.93-1.65-1.21-3.59-1.53-5.85-.73-1.99,.71-3.61,2.04-5.03,3.63-2.4,2.7-3.92,5.76-4.99,9-.14,.42-.05,.47,.34,.47,6.43-.01,12.86,0,19.29,0h.47Zm-21.34,6.29c-.11,2.22,.05,4.32,.57,6.31,.63,2.4,1.65,4.56,3.63,6.03,1.67,1.25,3.64,1.57,5.92,.74,1.97-.72,3.57-2.04,4.98-3.62,2.4-2.7,3.92-5.76,4.99-9,.14-.42,.05-.47-.34-.47-6.43,.01-12.86,0-19.29,0h-.47Z" style="fill:#ffc700;"/></g></svg>