<?xml version="1.0" encoding="UTF-8"?><svg id="a" xmlns="http://www.w3.org/2000/svg" xmlns:xlink="http://www.w3.org/1999/xlink" viewBox="0 0 300 300"><defs><linearGradient id="b" x1="149.97" y1="66.37" x2="150.01" y2="66.37" gradientTransform="translate(409.5 120.79) rotate(145.41)" gradientUnits="userSpaceOnUse"><stop offset=".02" stop-color="#fed488"/><stop offset=".17" stop-color="#fdcf80"/><stop offset=".4" stop-color="#fcc36c"/><stop offset=".68" stop-color="#faaf4c"/><stop offset=".99" stop-color="#f7931f"/><stop offset="1" stop-color="#f7931e"/></linearGradient><linearGradient id="c" x1="150.54" y1="62.98" x2="150.56" y2="62.98" xlink:href="#b"/><linearGradient id="d" x1="150.43" y1="63.23" x2="150.46" y2="63.23" xlink:href="#b"/><linearGradient id="e" x1="149.91" y1="66.25" x2="149.95" y2="66.25" xlink:href="#b"/><linearGradient id="f" x1="150.84" y1="62.55" x2="150.84" y2="62.55" xlink:href="#b"/><linearGradient id="g" x1="150.65" y1="62.76" x2="150.67" y2="62.76" xlink:href="#b"/><linearGradient id="h" x1="150.74" y1="62.63" x2="150.76" y2="62.63" xlink:href="#b"/></defs><g><rect x="129.17" y="96.52" width="18.7" height="161.12" style="fill:#1d1d1b; isolation:isolate; opacity:.1;"/><rect x="147.87" y="96.52" width="110.84" height="161.12" style="fill:#efefef; isolation:isolate;"/><polyline points="254.56 101.62 254.56 253.24 152.14 253.24 152.14 101.62 254.56 101.62" style="fill:#1d1d1b; isolation:isolate; opacity:.1;"/><rect x="149.48" y="138.51" width="107.08" height="3.66" style="fill:#efefef;"/><rect x="149.48" y="178.51" width="107.08" height="3.66" style="fill:#efefef;"/><rect x="149.48" y="218.51" width="107.08" height="3.66" style="fill:#efefef;"/><g><rect x="158.12" y="107.25" width="6.32" height="30.93" style="fill:#efefef;"/><rect x="165.12" y="113.8" width="8.11" height="24.38" style="fill:#efefef;"/><rect x="182.12" y="109.55" width="8.11" height="28.63" style="fill:#efefef;"/><rect x="191.12" y="105.66" width="6.8" height="32.52" style="fill:#efefef;"/><rect x="199.12" y="116.07" width="4.28" height="22.1" style="fill:#efefef;"/><rect x="204.79" y="106.84" width="9.42" height="31.34" style="fill:#efefef;"/><rect x="174.12" y="105.3" width="4.23" height="32.88" style="fill:#efefef;"/></g><g><rect x="196.03" y="146.83" width="6.32" height="30.93" style="fill:#efefef;"/><rect x="158.03" y="146.83" width="6.32" height="30.93" transform="translate(-39.42 52.4) rotate(-16.48)" style="fill:#efefef;"/><rect x="203.03" y="153.37" width="8.11" height="24.38" style="fill:#efefef;"/><rect x="220.03" y="149.12" width="8.11" height="28.63" style="fill:#efefef;"/><rect x="229.03" y="145.24" width="6.8" height="32.52" style="fill:#efefef;"/><rect x="237.03" y="155.65" width="4.28" height="22.1" style="fill:#efefef;"/><rect x="242.7" y="146.41" width="9.42" height="31.34" style="fill:#efefef;"/><rect x="212.03" y="144.87" width="4.23" height="32.88" style="fill:#efefef;"/><rect x="171.03" y="144.87" width="4.23" height="32.88" style="fill:#efefef;"/></g></g><g><path d="M227.3,180.68s7.05-1.98,10.73-8.7,4.48-13.29,2.88-14.9-15.76,2.34-16.21,4.69-3.17,20.4,2.59,18.9Z" style="fill:#d19c5e;"/><g><path d="M252.1,152.68s0,0,0,0c0-.03,0-.08-.01-.14,0-.01,0-.03,0-.04-.01-.06-.03-.13-.05-.21-.11-.37-.31-.79-.45-.94-.03-.04-.06-.05-.08-.05t0,0c.53,0,1.07,0,1.6,.01,0,0,0,0,.02,.01,.03,.03,.07,.12,.1,.2,0,.03,.01,.05,.01,.07,0,0,0,0,0,.01,0,0,0,.02,0,.02-.38,.37-.76,.74-1.15,1.12t0,0s.02-.03,.02-.05Z" style="fill:#6a6a6a;"/><polygon points="248.32 151.28 248.32 151.28 248.32 151.28 248.32 151.28" style="fill:#e4eeed;"/><path d="M249.81,154.92s0,0,0,0c.01-.02,.02-.06,.03-.09,0-.01,0-.02,0-.04,0-.04,0-.08,0-.12,0-.01,0-.02,0-.04,0-.06-.01-.13-.03-.2,0-.02,0-.04-.01-.05-.01-.06-.03-.13-.04-.2,0-.03-.01-.05-.02-.08-.02-.09-.05-.19-.08-.29-.28-.94-.79-2.01-1.13-2.39-.05-.05-.09-.08-.12-.11-.01,0-.02,0-.03-.01-.02,0-.03-.02-.05-.02,0,0,0,0,0,0,1.06,0,2.11,0,3.17,.01h0s.04,.02,.08,.05c.13,.15,.33,.57,.45,.94,.02,.08,.04,.15,.05,.21,0,.02,0,.03,0,.04,0,.06,.01,.1,.01,.14,0,0,0,0,0,0,0,.02,0,.04-.02,.05h0c-.76,.74-1.52,1.47-2.28,2.21,0,0,0,0-.01,0,.01,0,.02-.01,.03-.03Z" style="fill:#efefef; isolation:isolate;"/><path d="M248.32,151.28s0,0,0,0c0,0,0,0,.01,0,.01,0,.03,0,.05,.02-.02,0-.04-.01-.06-.01Z" style="fill:url(#b);"/><path d="M249.8,154.38s0,.04,.01,.05c0-.02,0-.04-.01-.05Z" style="fill:url(#c);"/><path d="M249.74,154.1s.01,.05,.02,.08c0-.03-.01-.05-.02-.08Z" style="fill:url(#d);"/><path d="M248.53,151.41c-.05-.05-.09-.08-.12-.11,.04,.02,.08,.06,.12,.11Z" style="fill:url(#e);"/><path d="M249.81,154.92s0,0,0,0c0,0,0,0,0,0Z" style="fill:url(#f);"/><path d="M249.84,154.63s0,.02,0,.04c0-.01,0-.02,0-.04Z" style="fill:url(#g);"/><path d="M249.84,154.82s0-.02,0-.04c0,.01,0,.02,0,.04Z" style="fill:url(#h);"/><path d="M215.54,168.72s.02-.06,.03-.09c0-.01,0-.02,0-.04,0-.03,0-.07,0-.12,0-.01,0-.02,0-.04,0-.06-.01-.13-.03-.2,0-.02,0-.03-.01-.05-.01-.06-.03-.13-.04-.2,0-.02-.01-.05-.02-.08-.02-.09-.05-.19-.08-.29-.28-.94-.79-2.01-1.13-2.39-.05-.05-.09-.08-.12-.11,0,0,0,0,0,0,0,0-.01,0-.02,0-.02,0-.04-.01-.06-.01,0,0,0,0-.01,0,.81-.33,1.65-.66,2.5-1.01l2.42-.97c1.49-.6,3.01-1.21,4.56-1.84l2.7-1.09c.25-.1,.49-.2,.74-.3l5.57-2.24c.96-.39,1.92-.77,2.87-1.16l.71-.28c.92-.37,1.83-.74,2.73-1.1l4.55-1.83c.83-.33,1.64-.66,2.43-.98l2.49-1s0,0,0,0c0,0,0,0,0,0,.02,0,.04,0,.06,.01,.01,0,.02,0,.03,.01,.04,.02,.08,.06,.12,.11,.34,.38,.85,1.45,1.13,2.39,.03,.11,.06,.2,.08,.29,0,.03,.01,.05,.02,.08,.02,.07,.03,.14,.04,.2,0,.02,0,.04,.01,.05,.01,.07,.02,.14,.03,.2,0,.01,0,.02,0,.04,0,.05,0,.09,0,.12,0,.01,0,.02,0,.04,0,.04-.01,.07-.03,.09,0,0,0,0,0,0,0,.01-.02,.02-.03,.03,0,0,0,0,0,0-.81,.33-1.65,.66-2.49,1l-2.43,.98c-1.48,.6-3.01,1.21-4.56,1.83l-2.71,1.09c-.24,.1-.49,.2-.73,.29l-2.86,1.15c-1.86,.75-3.72,1.5-5.57,2.24l-.73,.29c-.91,.37-1.82,.73-2.71,1.09l-4.56,1.83c-.82,.33-1.63,.66-2.43,.98l-2.49,1s.03-.02,.04-.04c0,0,0,0,0,0Z" style="fill:#ffc700;"/><path d="M215.56,168.62s0-.02,0-.04c0,.01,0,.02,0,.04Z" style="fill:#e4eeed;"/><path d="M215.54,168.72s0,0,0,0c0,0,0,0,0,0Z" style="fill:#e4eeed;"/><path d="M215.53,168.18s0,.04,.01,.05c0-.02,0-.04-.01-.05Z" style="fill:#e4eeed;"/><path d="M214.1,165.09s-.04-.01-.06-.01c.02,0,.04,0,.06,.01Z" style="fill:#e4eeed;"/><path d="M214.25,165.21c-.05-.05-.09-.08-.12-.11,.04,.02,.08,.06,.12,.11Z" style="fill:#e4eeed;"/><path d="M215.56,168.43s0,.02,0,.04c0-.01,0-.02,0-.04Z" style="fill:#e4eeed;"/><path d="M215.47,167.9s.01,.05,.02,.08c0-.02-.01-.05-.02-.08Z" style="fill:#e4eeed;"/><path d="M214.45,169.18s.03-.02,.04-.04c0,0,0,0,0,0,.01-.02,.02-.04,.02-.07,0,0,0-.02,0-.03,0-.01,0-.02,0-.04,0-.03,0-.07,0-.12,0-.01,0-.02,0-.04,0-.06-.01-.13-.03-.2,0-.02,0-.03-.01-.05-.01-.06-.03-.13-.04-.2,0-.02-.01-.05-.02-.08-.02-.09-.05-.19-.08-.3-.28-.94-.79-2.01-1.13-2.39-.05-.05-.09-.09-.12-.11-.01,0-.02,0-.03-.01-.02,0-.04-.01-.06-.01,0,0,0,0-.01,0l.53-.21c.18-.07,.37-.15,.53-.21,0,0,0,0,.01,0,.02,0,.04,0,.06,.01,0,0,.01,0,.02,0,0,0,0,0,0,0,.04,.02,.08,.06,.12,.11,.34,.38,.85,1.45,1.13,2.39,.03,.11,.06,.2,.08,.29,0,.03,.01,.05,.02,.08,.02,.07,.03,.14,.04,.2,0,.02,0,.04,.01,.05,.01,.07,.02,.14,.03,.2,0,.01,0,.02,0,.04,0,.05,0,.08,0,.12,0,.01,0,.02,0,.04,0,.04-.01,.07-.03,.09,0,0,0,0,0,0-.01,.02-.02,.03-.04,.04l-.52,.21s0,0,0,0l-.53,.21Z" style="fill:#efefef; isolation:isolate;"/><path d="M214.48,169.14s0,0,0,0c0,0,0,0,0,0Z" style="fill:#ff7485;"/><path d="M214.51,169.04s0-.02,0-.04c0,.01,0,.02,0,.04Z" style="fill:#ff7485;"/><path d="M214.48,168.65s0-.03-.01-.05c0,.02,0,.04,.01,.05Z" style="fill:#ff7485;"/><path d="M214.51,168.89s0-.02,0-.04c0,.01,0,.02,0,.04Z" style="fill:#ff7485;"/><path d="M213.2,165.63c-.05-.05-.09-.08-.12-.11,.04,.02,.08,.06,.12,.11Z" style="fill:#ff7485;"/><path d="M213.04,165.52s-.04-.01-.06-.01c.02,0,.04,0,.06,.01Z" style="fill:#ff7485;"/><path d="M214.43,168.4s-.01-.05-.02-.08c0,.03,.01,.05,.02,.08Z" style="fill:#ff7485;"/><path d="M213.04,165.52s.02,0,.03,.01c.04,.02,.08,.06,.12,.11,.34,.38,.85,1.45,1.13,2.39,.03,.11,.06,.2,.08,.3,0,.03,.01,.05,.02,.08,.02,.07,.03,.14,.04,.2,0,.02,0,.04,.01,.05,.01,.07,.02,.14,.03,.2,0,.01,0,.02,0,.04,0,.05,0,.08,0,.12,0,.01,0,.02,0,.04,0,0,0,.02,0,.03,0,.03-.01,.05-.02,.07,0,0,0,0,0,0-.01,.02-.02,.03-.04,.04h0l-2.78,1.12c-.17,.07-.34,.14-.49,.2-.12,.05-.24,.04-.37-.01-.13-.05-.26-.15-.39-.29-.06-.07-.12-.15-.18-.23-.05-.07-.09-.14-.14-.22,0-.02-.02-.03-.03-.05-.05-.09-.1-.19-.15-.28,0,0,0,0,0,0-.05-.1-.09-.2-.14-.3,0-.02-.02-.04-.02-.06-.03-.08-.06-.16-.09-.23,0-.02-.02-.04-.02-.07-.07-.19-.11-.33-.12-.37,0-.03-.02-.06-.02-.09-.01-.05-.03-.1-.04-.15,0-.03-.02-.07-.02-.1,0-.02,0-.04-.01-.05,0-.03,0-.06-.01-.08-.01-.06-.02-.11-.03-.17,0-.04,0-.07,0-.11,0-.05,0-.1,0-.15,0-.03,0-.05,0-.08,0-.05,0-.09,.02-.13,0-.02,0-.04,.01-.06,0-.03,.02-.07,.03-.1,.01-.03,.02-.05,.03-.07,0-.02,.02-.03,.03-.05,.07-.11,.16-.16,.22-.19l.98-.39c.14-.06,.28-.11,.42-.17l.9-.36c.34-.14,.68-.27,.98-.39,0,0,0,0,.01,0,.02,0,.04,0,.06,.01Z" style="fill:#f66;"/></g><path d="M118.37,102.19s1.08-10.5-1.25-17.17c0,0,5.42-8.92-2.92-15.25s-15.25-5.33-11.42-.5c0,0-14.92-3.67-18.67-1.83s2.83,3.58,2.83,3.58c0,0-14.75,2.5-18.84,10.83s1.5,14.17,1.5,14.17c0,0,1.67,24.59,14.92,35.75,0,0-4.17-6.25-4.17-10.5s7-7.83,8.17-15.59-2.08-7.75-1.92-11.42,4.42-2.83,4.42-2.83c0,0,13.92,4.08,22-1.5,0,0,5.33,4.83,5.33,12.25Z" style="fill:#394547;"/><path d="M105.62,167.2l-7.83-12.25-13.5-4.5s1.25-11.42-1.42-20.09l1.67,1.42s-2.75-3-3.92-9.17c0,0-9.67-1.75-10.92-10.08-1.25-8.33,12-9.42,14.67,0,0,0,3.25-5.25,3.08-10.83-.17-5.58-3.42-8.42,.83-11.5,0,0,17.59,2.67,25-2.17,0,0,8.75,12,6.92,28.92s-11.67,21.84-19.5,22.17c0,0-2.92,13.08,8.83,15l-1.08,.92-2.83,12.17Z" style="fill:#d19c5e;"/><path d="M96.7,116.94s4.33,4.42,12.17,5l-2.25,6.33s-12.42-.25-9.92-11.33Z" style="fill:#1d1d1b;"/><path d="M105.36,128.16c-1.22-4.04-5.53-5.03-8.38-5.23,1.65,3.86,6.17,4.94,8.38,5.23Z" style="fill:#f66;"/><path d="M109.2,106.36l6.25,9.92s-1.25,2-5.75,1.58l-.5-11.5Z" style="fill:#a37c58;"/><ellipse cx="100.83" cy="106.86" rx="1.46" ry="2.42" style="fill:#1d1d1b;"/><ellipse cx="114.61" cy="105.59" rx="1.46" ry="2.42" style="fill:#1d1d1b;"/><path d="M93.45,100.26c-.1,0-.2-.02-.3-.07-.35-.16-.5-.58-.34-.93,.08-.16,1.91-3.99,6.8-3.99,.39,0,.7,.31,.7,.7s-.31,.7-.7,.7c-3.98,0-5.47,3.05-5.53,3.18-.12,.25-.37,.4-.64,.4Z" style="fill:#1d1d1b;"/><path d="M118.73,98.62c-.26,.07-.54-.01-.72-.24-2.14-2.63-5.94-2.23-5.98-2.23-.38,.04-.73-.23-.78-.61-.04-.38,.23-.73,.61-.78,.19-.02,4.59-.51,7.23,2.73,.24,.3,.2,.74-.1,.99-.08,.07-.17,.11-.26,.13Z" style="fill:#1d1d1b;"/><path d="M90.45,136.86s4.25,3.25,10.25,2.25c0,0-.75,1.75-.33,3.67,0,0-6.25-.83-9.92-5.92Z" style="fill:#a37c58;"/><path d="M134.45,259.63H63.36l-1.5-102.51s9.42-1.92,11-1.92,23.59,2.67,23.59,2.67l9.45,9.97,13.55-12.31s9.83,.58,12.25,2.83c0,0,6.83,18.84,7.08,40.67,.25,21.84-4.33,60.59-4.33,60.59Z" style="fill:#9f9ef2;"/><path d="M96.45,194.62l-18.34,21s-28.42-21.84-27.92-40.09c.5-18.25,13.67-21.59,21.92-16.17,8.25,5.42,23.42,33,24.34,35.25Z" style="fill:#5254cf;"/><path d="M138.79,201.2s11.08,3.58,13.75,4.25l8.67-26.67s-25.25-18.59-29.5-20.42c0,0,7.75,28.5,7.08,42.84Z" style="fill:#5254cf;"/><path d="M149.11,204.48s-9.82-11.48-11.73-19.98l1.37,17.48,10.37,2.5Z" style="fill:#393a8f;"/><polygon points="113.53 160.86 107.28 170.78 93.45 162.7 89.45 166.36 93.36 158.53 105.87 168.11 110.03 156.61 118.78 163.03 113.53 160.86" style="fill:#393a8f;"/><path d="M234.71,155.45s-4.42,.25-5.17,.92-5.58,4.5-6.33,6.75-.83,8.42-.67,9.33c0,0-24.75,21.17-31.17,22.92s-31.1-13.65-31.1-13.65l-6.08,18.61s28.01,14.03,37.43,11.95c9.42-2.08,30.92-21.67,37.92-33.5l.98-7s2.13-2.5,2.06-4.06-4.5-5.38-4.5-5.38c0,0,1.75-3.25,2.81-3.56s4.25-.92,3.81-3.33Z" style="fill:#d19c5e;"/><path d="M116.26,98.99c-3.78,0-6.85,3.07-6.85,6.85,0,.24,.01,.48,.04,.72l-2.07,.25c-.26-3.71-3.36-6.65-7.13-6.65s-7.11,3.17-7.16,7.08l-6.32-1.03-.16,1.04,6.55,1.06c.49,3.48,3.47,6.17,7.08,6.17s6.85-2.92,7.13-6.61l2.27-.27c.78,2.93,3.44,5.09,6.61,5.09,3.78,0,6.85-3.07,6.85-6.85s-3.07-6.85-6.85-6.85Zm-16.02,14.08c-3.17,0-5.76-2.58-5.76-5.76s2.58-5.76,5.76-5.76,5.76,2.58,5.76,5.76-2.58,5.76-5.76,5.76Zm16.02-1.73c-3.04,0-5.51-2.47-5.51-5.51s2.47-5.51,5.51-5.51,5.51,2.47,5.51,5.51-2.47,5.51-5.51,5.51Z" style="fill:#1d1d1b;"/><path d="M106.45,123.61l.94-1.83c-6.9-.98-10.69-4.84-10.69-4.84-.2,.87-.29,1.67-.32,2.41,1.55,1.39,5.15,4.07,10.07,4.25Z" style="fill:#fff;"/><polygon points="79.53 148.61 97.78 154.95 105.62 167.2 108.45 155.03 112.78 151.2 119.45 155.53 118.78 163.03 110.78 158.11 107.28 170.78 94.03 160.11 89.45 166.36 72.86 155.2 79.53 148.61" style="fill:#5254cf;"/><path d="M177.49,181.69l1.04-2.8s7.43,3.66,12.22,3.89c5.96,.28,9.32,2.52,10.28,3.88,0,0,.57-2,3.2-2.64s5.05-1.24,6.01-2.04l1.6,1-5.04,5.79-12.22,.56-17.1-7.63Z" style="fill:#ffe092;"/><polygon points="212.54 182.21 203.29 188.21 199.22 187.91 177.24 179.4 161.56 220.32 182.94 230.16 187.31 230.02 196.85 223.21 212.54 182.21" style="fill:#f66;"/><path d="M94.32,197.16s19.69,24.75,24.38,24.94c4.69,.19,36.75-6.75,36.75-6.75,0,0,3.83-7.56,11.88-10.06l-1.58,4.38s10.08-5.5,10.75-5.29,6.38,3.5,5.71,7.42c-.67,3.92-4.21,7.29-4.21,7.29,0,0-9.21,10.04-20.17,5.25,0,0-28.17,16.71-41.5,14.46-16.55-2.79-34.63-27.04-34.63-27.04l12.63-14.59Z" style="fill:#d19c5e;"/><polygon points="203.36 188.2 199.35 187.94 183.02 230.22 187.34 230.01 203.36 188.2" style="fill:#e84343;"/><path d="M229.09,163.25l1.87-.72s3.15,2.24,3.1,4-1.74,5.34-2.72,6.22-1.12,1.28-1.12,1.28l.31-2.25s1.8-2.26,1.93-3.28,0-1.98-3.36-5.26Z" style="fill:#a37c58;"/></g><rect x="23.9" y="257.66" width="252.19" height="4.67" rx="2.34" ry="2.34" style="fill:#ffc700;"/><rect x="32.31" y="262.33" width="235.38" height="4.67" style="fill:#ffe092;"/><g><path d="M144.22,77.16c-10.56,0-19.15-8.59-19.15-19.15s8.59-19.15,19.15-19.15,19.15,8.59,19.15,19.15-8.59,19.15-19.15,19.15Zm0-36.1c-9.35,0-16.95,7.6-16.95,16.95s7.6,16.95,16.95,16.95,16.95-7.6,16.95-16.95-7.6-16.95-16.95-16.95Z" style="fill:#efefef; isolation:isolate;"/><polygon points="143.29 60.82 143.29 49.39 145.49 49.39 145.49 57.48 150.78 55.21 151.65 57.24 143.29 60.82" style="fill:#efefef;"/></g><g><path d="M188.3,246.44s.56,1.69,.35,4.79-.78,5.29-.78,5.29h46.11v-10.01s-45.9,.14-45.68-.07Z" style="fill:#d0d0fc;"/><path d="M229.69,245.51h15.93s2.75,2.45,2.47,6.63-2.4,5.55-2.4,5.55h-16.29s3.13-2.48,3.21-5.58-2.89-6.64-2.92-6.6Z" style="fill:#5254cf;"/><path d="M194.93,250.57h-2.96c-.41,0-.75-.34-.75-.75s.34-.75,.75-.75h2.96c.41,0,.75,.34,.75,.75s-.34,.75-.75,.75Z" style="fill:#fff;"/><path d="M214.04,254.39h-22.07c-.41,0-.75-.34-.75-.75s.34-.75,.75-.75h22.07c.41,0,.75,.34,.75,.75s-.34,.75-.75,.75Z" style="fill:#fff;"/><path d="M228.35,254.39h-11.57c-.41,0-.75-.34-.75-.75s.34-.75,.75-.75h11.57c.41,0,.75,.34,.75,.75s-.34,.75-.75,.75Z" style="fill:#fff;"/><path d="M228.42,250.57h-4.65c-.41,0-.75-.34-.75-.75s.34-.75,.75-.75h4.65c.41,0,.75,.34,.75,.75s-.34,.75-.75,.75Z" style="fill:#fff;"/><path d="M220.31,250.57h-22.62c-.41,0-.75-.34-.75-.75s.34-.75,.75-.75h22.62c.41,0,.75,.34,.75,.75s-.34,.75-.75,.75Z" style="fill:#fff;"/><path d="M230.88,257.69h-43.5c-.41,0-.75-.34-.75-.75s.34-.75,.75-.75h42.79c3.64-4.6,.76-8.29-.06-9.18h-42.51c-.41,0-.75-.34-.75-.75s.34-.75,.75-.75h43.13l.22,.2c.06,.05,5.53,5.32,.17,11.71l-.22,.27Z" style="fill:#9f9ef2;"/></g><g><path d="M198.3,234.21s.56,1.69,.35,4.79-.78,5.29-.78,5.29h46.11v-10.01s-45.9,.14-45.68-.07Z" style="fill:#efefef; isolation:isolate;"/><path d="M239.69,233.29h15.93s2.75,2.45,2.47,6.63-2.4,5.55-2.4,5.55h-16.29s3.13-2.48,3.21-5.58-2.89-6.64-2.92-6.6Z" style="fill:#e84343;"/><path d="M204.93,238.35h-2.96c-.41,0-.75-.34-.75-.75s.34-.75,.75-.75h2.96c.41,0,.75,.34,.75,.75s-.34,.75-.75,.75Z" style="fill:#fff;"/><path d="M224.04,242.16h-22.07c-.41,0-.75-.34-.75-.75s.34-.75,.75-.75h22.07c.41,0,.75,.34,.75,.75s-.34,.75-.75,.75Z" style="fill:#fff;"/><path d="M238.35,242.16h-11.57c-.41,0-.75-.34-.75-.75s.34-.75,.75-.75h11.57c.41,0,.75,.34,.75,.75s-.34,.75-.75,.75Z" style="fill:#fff;"/><path d="M238.42,238.35h-4.65c-.41,0-.75-.34-.75-.75s.34-.75,.75-.75h4.65c.41,0,.75,.34,.75,.75s-.34,.75-.75,.75Z" style="fill:#fff;"/><path d="M230.31,238.35h-22.62c-.41,0-.75-.34-.75-.75s.34-.75,.75-.75h22.62c.41,0,.75,.34,.75,.75s-.34,.75-.75,.75Z" style="fill:#fff;"/><path d="M240.88,245.47h-43.5c-.41,0-.75-.34-.75-.75s.34-.75,.75-.75h42.79c3.64-4.6,.76-8.29-.06-9.18h-42.51c-.41,0-.75-.34-.75-.75s.34-.75,.75-.75h43.13l.22,.2c.06,.05,5.53,5.32,.17,11.71l-.22,.27Z" style="fill:#f66;"/></g></svg>